<?xml version="1.0" encoding="UTF-8"?><svg xmlns="http://www.w3.org/2000/svg" xmlns:xlink="http://www.w3.org/1999/xlink" viewBox="0 0 1920 1920"><defs><style>.cls-1{fill:none;}.cls-2{fill:#ce7736;}.cls-3{fill:#ffb192;}.cls-4{fill:#c3bace;}.cls-5{fill:#e4635d;}.cls-6,.cls-7{mix-blend-mode:multiply;}.cls-6,.cls-8{opacity:.5;}.cls-9{fill:#747691;}.cls-10{fill:#ea997d;}.cls-11{fill:#f73962;}.cls-12{fill:#ff7171;}.cls-13{fill:url(#linear-gradient);}.cls-7{opacity:.3;}.cls-7,.cls-14{fill:#9a9aaf;}.cls-15{fill:#822616;}.cls-16{isolation:isolate;}.cls-17{fill:#babacc;}.cls-18{fill:#c40533;}.cls-19{filter:url(#outer-glow-1);}.cls-19,.cls-20,.cls-21,.cls-22,.cls-23{fill:#eb1d47;}.cls-20{filter:url(#outer-glow-4);}.cls-21{filter:url(#outer-glow-2);}.cls-22{filter:url(#outer-glow-3);}.cls-24{fill:#fff;}.cls-25{fill:#ffb883;}.cls-26,.cls-27{fill:#c69c6d;}.cls-27{opacity:.7;}.cls-28{fill:#c5d8ff;}.cls-29{fill:#af6345;}.cls-30{fill:#c4795f;}.cls-8{fill:#ed1c24;}.cls-31{fill:#f15a24;opacity:.6;}</style><filter id="outer-glow-1" x="498" y="1074.24" width="206.64" height="225.36" filterUnits="userSpaceOnUse"><feOffset dx="0" dy="0"/><feGaussianBlur result="blur" stdDeviation="3.6"/><feFlood flood-color="#ea1c48" flood-opacity=".5"/><feComposite in2="blur" operator="in"/><feComposite in="SourceGraphic"/></filter><filter id="outer-glow-2" x="453.84" y="1029.6" width="296.4" height="314.64" filterUnits="userSpaceOnUse"><feOffset dx="0" dy="0"/><feGaussianBlur result="blur-2" stdDeviation="3.6"/><feFlood flood-color="#ea1c48" flood-opacity=".5"/><feComposite in2="blur-2" operator="in"/><feComposite in="SourceGraphic"/></filter><filter id="outer-glow-3" x="586.8" y="1163.28" width="47.28" height="47.28" filterUnits="userSpaceOnUse"><feOffset dx="0" dy="0"/><feGaussianBlur result="blur-3" stdDeviation="3.6"/><feFlood flood-color="#ea1c48" flood-opacity=".5"/><feComposite in2="blur-3" operator="in"/><feComposite in="SourceGraphic"/></filter><filter id="outer-glow-4" x="542.4" y="1118.64" width="135.84" height="133.2" filterUnits="userSpaceOnUse"><feOffset dx="0" dy="0"/><feGaussianBlur result="blur-4" stdDeviation="3.6"/><feFlood flood-color="#ea1c48" flood-opacity=".5"/><feComposite in2="blur-4" operator="in"/><feComposite in="SourceGraphic"/></filter><linearGradient id="linear-gradient" x1="794.74" y1="958.01" x2="1291.09" y2="689.95" gradientTransform="translate(-150.14 2178.41) rotate(-6.43) scale(1 -1)" gradientUnits="userSpaceOnUse"><stop offset="0" stop-color="#ed1846"/><stop offset=".09" stop-color="#e4274c"/><stop offset=".24" stop-color="#cf3e59"/><stop offset=".45" stop-color="#ab556f"/><stop offset=".7" stop-color="#75678f"/><stop offset=".98" stop-color="#0075b8"/><stop offset="1" stop-color="#0076bb"/></linearGradient></defs><g class="cls-16"><g id="Layer_1"><path d="M396.65,1444.69s-3.16,44.3-66.74,88.01c0,0-27.97-29.76,3.97-117.32l62.78,29.31Z"/><path d="M332.04,1522.09c42.61-31.35,53.59-61.61,56.34-73.09l-50.23-23.45c-19.07,56.51-11.23,85.56-6.11,96.54Z"/><path class="cls-11" d="M378.89,1453.25c.58-1.47,1.11-2.86,1.53-4.09l-37.79-13.35c-11.59,37.81-10.1,61.27-6.95,74.11,19.61-32.07,21.24-66.11,21.24-66.11l21.97,9.43Z"/><path class="cls-18" d="M378.89,1453.25l-21.97-9.43s-1.63,34.04-21.24,66.11c25.77-20.88,37.98-43.48,43.21-56.68Z"/><path d="M213.46,1467.52s-32.53-65.95,18.69-149.22l52.78,45.76s-13.19,68.81-71.48,103.46Z"/><path d="M214.2,1445.91c.95,4.13,1.97,7.65,2.89,10.46,41.05-28.56,55.95-75.62,59.6-89.66l-42.66-36.99c-28.55,50.97-24.84,94.31-19.83,116.18h0Z"/><path d="M363.49,1403.2s-22.34,81.92-103.51,119.25c0,0-37.89-52.12,12.16-162.69l91.35,43.44Z"/><path d="M259.03,1502.49c1.36,4.31,2.79,7.72,3.99,10.25,60.29-30.64,84.82-87.36,91.39-105.65l-78.57-37.37c-29.36,68.52-23.26,112.39-16.81,132.77h0Z"/><path class="cls-11" d="M341.54,1418.82c1.37-2.94,2.53-5.63,3.5-7.99l-64.55-34.44c-25.12,62.41-20.23,105.44-14.39,123.86.17.53.35,1.06.52,1.58,14.86-16.2,35.57-47.01,54.17-103.91l20.75,20.91Z"/><path class="cls-18" d="M341.54,1418.82l-20.75-20.91c-18.6,56.9-39.31,87.71-54.17,103.91.05.16.1.32.16.48,41.86-23.92,64.36-61.14,74.76-83.48Z"/><path class="cls-11" d="M266.44,1375.04c.72-2.13,1.35-4.1,1.85-5.8l-32.08-27.82c-22.6,45.15-19.25,83.02-14.89,102.4,25.54-43.31,30.78-77.7,30.78-77.7l14.34,8.93Z"/><path class="cls-18" d="M266.44,1375.04l-14.34-8.93s-5.24,34.39-30.78,77.7c26.16-21.91,39.29-51.58,45.12-68.77Z"/><path d="M481.9,1381.22c-22.34,34.76-49.74,68.92-81.58,92.82,0,0-105.06-53.56-192.88-141.99,0,0,6.46-48.03,49.46-124.87,149.59-25.5,219.77,107.67,225,174.03Z"/><path d="M355.76,1069.03s149.1,60,194.25,173.61c0,0-24.32,70.44-68.11,138.58-34.83-45.33-107.66-123.54-225-174.03,22.02-39.35,53.62-86.26,98.86-138.15Z"/><path d="M267.4,1203.7c108.57,48.6,178.49,120.66,213.83,164.67,34.84-56.49,56.26-112.98,60.85-125.57-40-96.39-158.84-153.53-184.27-164.83-35.99,41.73-66.36,83.97-90.41,125.72Z"/><path d="M215.4,1329.53c75.71,75.31,164.26,125.02,184.18,135.74,25.1-19.71,49.71-47.82,73.24-83.66-33.44-42.54-102.86-116.08-212.7-164.92-32.72,59.96-42.43,101.02-44.72,112.85Z"/><path d="M447.09,1418.35s-122.79-60.69-205.65-152.81l-13.64,10.37s95.73,100.52,211.11,156.63l8.18-14.2Z"/><path class="cls-17" d="M372.88,1303.35c-32.1-24.72-67.04-52.04-106.71-83.94-26.85,50.55-39.52,93.38-42.69,107.68,47.4,46.54,99.8,83.16,136.27,106.13,24.41-46.26,24.14-90.97,13.14-129.88Z"/><path class="cls-17" d="M292.52,1176.78c-6.74,10.23-13.03,20.25-18.71,29.84,31.48,24.02,61.71,48.98,90.66,72.53-21.89-52.97-60.38-91.54-71.95-102.37Z"/><path class="cls-14" d="M468.51,1376.2c-30.11-22.87-61.23-46.36-95.63-72.85,11,38.91,11.27,83.62-13.14,129.88,17.41,10.97,31.2,18.84,39.05,23.17,22.11-18.17,48.74-48.95,69.72-80.2Z"/><path class="cls-14" d="M534.12,1243c-37.8-87.14-142.84-141.34-174.3-155.97-23.91,28.05-47.56,59.81-67.29,89.75,11.57,10.83,50.05,49.4,71.95,102.37,39.6,32.21,76.77,61.78,111.35,82.6,29.39-49.62,52.79-104.01,58.29-118.75Z"/><path d="M1156.18,1645.56c-58.53-3.34-75.91-43.81-100.44-48.5l111.88-195.03c29.94,19.87,105.46,64,191.41,68.9,48.22,2.75,92.72-7.26,132.26-29.73,46.9-26.66,86.91-71.06,118.92-131.96,36.31-69.08,54.83-143.83,55.06-222.15.17-62.38-11.21-127.07-33.83-192.27-12.57-36.24-27.14-68.37-40.75-94.79,71.59,68.45,124.25,139.58,156.81,211.94,37.56,83.45,53.03,192.83,36.67,275.15-33.08,166.45-159.1,348.8-326.26,389.35-95.16,23.08-184.64,32.2-298.66,11.92l-3.07-42.81Z"/><path d="M1281.3,1692.19c-37.43,0-75.14-3.32-115.08-10.13l-3.12-43.53-6.5-.37c-34.45-1.97-53.84-17.85-69.41-30.62-7.15-5.86-13.62-11.16-20.58-14.55l103.54-180.5c33.23,21.13,106.19,61.13,188.46,65.82,5.31.3,10.66.46,15.88.46,43.58,0,84.1-10.48,120.46-31.15,48.16-27.38,89.14-72.78,121.81-134.96,36.87-70.15,55.68-146.05,55.91-225.58.18-63.22-11.34-128.74-34.23-194.72-6.54-18.84-14-37.7-22.3-56.39,55.46,58.27,97.29,118.34,124.6,179,37.33,82.93,51.86,191.7,36.16,270.67-16.76,84.34-56.32,169.12-111.39,238.73-60.25,76.16-132.64,126.25-209.35,144.85-65.43,15.87-119.35,22.94-174.86,22.94Z"/><path d="M776.16,1657.38l-174.18-6.75-14.42,54.46s-140.35-47.16-185.11,99.27c0,0,113.56-24.5,206.05-23.82l5.75,20.72,218.89-2.84c3.76-92.62-56.98-141.04-56.98-141.04Z"/><path d="M413.58,1794.56c27.25-73.43,81.65-89.3,123.54-89.3,27.37,0,47.88,6.79,48.08,6.85l7.5,2.52,14.92-56.37,165.65,6.42c9.32,8.43,52.94,51.9,52.62,126.42l-206.03,2.67-5.72-20.61-5.59-.04c-1.29-.01-2.59-.01-3.89-.01-73.31,0-159.25,15.25-191.09,21.44Z"/><path class="cls-23" d="M1750.33,1354.66c8.13-23.29,14.62-46.89,19.3-70.45,15.42-77.58,1.1-184.55-35.65-266.18-22.06-49.03-53.91-97.88-94.9-145.64.37.99.73,1.97,1.09,2.96,266.46,459.34-113.21,666.03-276.03,626.92,87.33,50.45,232.82,76.12,386.18-147.6Z"/><path class="cls-5" d="M1172.75,1422.86l-52.76,91.97,116.43-59.16c-25.73-10.9-47.54-22.93-63.67-32.82Z"/><path class="cls-12" d="M1364.15,1502.25c-52.12-30.11-83.53-69.03-83.53-69.03l-44.19,22.45c24.81,10.51,53.27,19.99,83.83,25.49,11.41,9.86,26.41,16.88,43.89,21.08Z"/><path class="cls-18" d="M1091.88,1601.81c15.51,12.71,33.09,27.12,65.13,28.95l13.01.74,3.17,44.21c37.42,6.1,72.84,9.07,108.1,9.07,54.89,0,108.28-7.01,173.11-22.74,75.08-18.21,146.07-67.4,205.29-142.25,38.97-49.25,70.06-106.19,90.63-165.13-153.35,223.71-298.84,198.05-386.18,147.6-17.49-4.2-32.48-11.22-43.89-21.08-30.56-5.5-59.02-14.98-83.83-25.49l-116.43,59.16-43.27,75.42c5.13,3.33,10.05,7.36,15.16,11.56Z"/><path class="cls-5" d="M1640.18,875.34c1.81,4.87,3.58,9.75,5.27,14.61,23.17,66.78,34.83,133.11,34.64,197.17-.23,80.74-19.33,157.79-56.76,229-33.34,63.45-75.3,109.86-124.71,137.95-37.49,21.31-79.25,32.11-124.12,32.11-5.38,0-10.87-.16-16.31-.47-12.92-.74-25.6-2.32-37.94-4.55,117.7,101.69,614.99-97.16,319.92-605.83Z"/><path class="cls-11" d="M1640.18,875.34c1.81,4.87,3.58,9.75,5.27,14.61,23.17,66.78,34.83,133.11,34.64,197.17-.23,80.74-19.33,157.79-56.76,229-33.34,63.45-75.3,109.86-124.71,137.95-37.49,21.31-79.25,32.11-124.12,32.11-5.38,0-10.87-.16-16.31-.47-12.92-.74-25.6-2.32-37.94-4.55,117.7,101.69,614.99-97.16,319.92-605.83Z"/><path class="cls-17" d="M770.23,1671.99l-156.97-6.08-15.43,58.27-5.2-1.75c-1.3,14.48-1.23,28.96-.99,43.43,4.37-.1,8.71-.15,13.01-.15,1.32,0,2.64,0,3.95.01l11.18.08,5.69,20.49,192.89-2.5c-2.28-62.84-37.03-101.13-48.14-111.81Z"/><circle cx="692.9" cy="1544.05" r="169.63"/><path d="M692.9,1706.27c-89.45,0-162.23-72.77-162.23-162.23s72.77-162.23,162.23-162.23,162.23,72.77,162.23,162.23-72.77,162.23-162.23,162.23Z"/><path class="cls-14" d="M692.9,1698.87c-85.37,0-154.82-69.45-154.82-154.82s69.45-154.82,154.82-154.82,154.82,69.45,154.82,154.82-69.45,154.82-154.82,154.82Z"/><path d="M898.37,1678.83c-46.39,0-92.51-6.11-137.07-18.17l.66-14.45c186.43-32.6,357.9-108.21,509.63-224.74l59.19-45.46,1.8,12.54c2.36,16.45,3.96,33.12,4.75,49.54l.12,2.41-1.33,2.02c-27.23,41.42-60.19,78.78-97.98,111.05-61.25,52.31-134.71,90.23-212.45,109.66-41.45,10.36-84.29,15.61-127.33,15.61Z"/><path d="M1325.25,1389.6l-49.15,37.75c-152.44,117.07-326.93,193.65-512.87,226.17,43.08,11.65,88.37,17.91,135.13,17.91,43.3,0,85.35-5.35,125.54-15.39,78.47-19.61,149.82-57.19,209.43-108.11,37.12-31.7,69.69-68.56,96.6-109.48-.79-16.5-2.38-32.78-4.68-48.84Z"/><path class="cls-9" d="M898.37,1664.02c-33.46,0-66.76-3.27-99.41-9.75,175.52-35.99,337.4-110.26,481.66-221.05l38.96-29.92c1.31,11.04,2.26,22.12,2.84,33.08-26.2,39.45-57.78,75.07-93.89,105.91-59.51,50.83-130.89,87.68-206.42,106.56-40.28,10.07-81.91,15.17-123.74,15.17Z"/><path d="M761.17,1660.63c-48.3-13.09-94.38-33.05-137.06-59.35l-19.86-12.24,23.29-1.46c218.09-13.7,425.2-91.45,598.93-224.87l84.71-65.06,3.16,10.14c8.03,25.77,14.09,52.31,18,78.9l.25,1.86.62,4.29-52.59,40.39c-153.65,118-327.29,194.57-516.11,227.59l-1.57.28-1.77-.45Z"/><path d="M1307.26,1309.99l-76.29,58.59c-175.83,135.04-383.01,212.58-602.98,226.39,41.48,25.56,86.85,45.42,135.03,58.48.07.02.14.04.21.06,185.94-32.51,360.43-109.1,512.87-226.17l49.15-37.75c-.09-.61-.16-1.23-.25-1.84-3.92-26.65-9.91-52.62-17.74-77.77Z"/><path d="M624.11,1601.28c-33.66-20.74-65.01-45.33-93.17-73.08l-13.25-13.05,18.59.36c7.34.14,13.94.22,20.19.22,228.37,0,444.45-73.24,624.86-211.79l100.25-76.99,3.97,8.17c11.38,23.42,21.06,47.87,28.79,72.66l1.54,4.93-80.39,61.74c-176.07,135.22-385.98,214.03-607.03,227.91l-2.35.15-2-1.23Z"/><path d="M1307.26,1309.99c-7.7-24.72-17.22-48.65-28.38-71.63l-93.04,71.45c-181.72,139.56-399.36,213.32-629.38,213.32-6.78,0-13.56-.08-20.33-.21,27.73,27.32,58.54,51.52,91.86,72.05,219.97-13.81,427.15-91.36,602.98-226.39l76.29-58.59Z"/><path d="M556.47,1530.55c-6.34,0-13.04-.07-20.48-.22l-2.95-.06-2.1-2.07c-24.28-23.92-46.36-50.4-65.64-78.72l-8.8-12.92,15.57,1.37c27.95,2.46,56.35,3.71,84.4,3.71,211.91,0,412.38-67.93,579.73-196.46l106.97-82.15,4.41,6.49c12.91,18.99,24.65,38.94,34.88,59.32.93,1.86,1.85,3.74,2.76,5.61l2.97,6.11-97.83,75.14c-183.02,140.56-402.22,214.85-633.89,214.85Z"/><path d="M1241.46,1173.69l-100.74,77.37c-168.66,129.53-370.69,197.99-584.25,197.99-28.45,0-56.82-1.25-85.04-3.74,19.03,27.95,40.7,53.96,64.71,77.61h0c6.77.13,13.55.21,20.33.21,230.02,0,447.66-73.76,629.38-213.32l93.04-71.45c-1.01-2.07-2.01-4.14-3.04-6.2-10.2-20.3-21.7-39.82-34.39-58.48Z"/><path d="M556.47,1456.46c-28.48,0-57.31-1.27-85.69-3.76l-3.5-.31-1.98-2.9c-17.46-25.64-32.65-52.85-45.17-80.85l-5.23-12.37,13.02,1.91c42.47,6.23,85.72,9.39,128.54,9.39,195.45,0,380.31-62.63,534.6-181.13l105.33-80.89,4.59,5.02c16.84,18.43,32.52,38.28,46.59,58.97l3.93,5.78-106.29,81.63c-169.97,130.53-373.56,199.52-588.76,199.52Z"/><path d="M1140.72,1251.06l100.74-77.37c-13.93-20.48-29.28-39.91-45.94-58.14l-99.93,76.75c-155.6,119.5-342.02,182.66-539.12,182.66-43.51,0-86.82-3.19-129.62-9.46.02.04.03.08.05.11,12.5,27.98,27.45,54.63,44.53,79.71,28.22,2.48,56.59,3.74,85.04,3.74,213.56,0,415.59-68.46,584.25-197.99Z"/><path d="M556.47,1382.37c-43.54,0-87.51-3.21-130.7-9.54l-4.03-.59-1.66-3.72c-11.63-26.05-21.19-53.33-28.41-81.08l-2.97-11.41,11.56,2.27c51.24,10.06,103.79,15.16,156.2,15.16,178.98,0,348.24-57.33,489.47-165.8l95.25-73.15,4.54,3.72c17.31,14.16,33.85,29.56,49.17,45.77,2.05,2.17,4.07,4.35,6.09,6.55l5.44,5.96-106.34,81.67c-156.9,120.5-344.89,184.19-543.63,184.19Z"/><path d="M1141.04,1063.96l-90.59,69.57c-142.54,109.47-313.36,167.33-493.99,167.33-53.11,0-105.88-5.14-157.63-15.3,7.18,27.61,16.57,54.32,28.01,79.93,42.8,6.27,86.11,9.46,129.62,9.46,197.09,0,383.52-63.16,539.12-182.66l99.93-76.75c-1.98-2.17-3.98-4.33-6-6.46-15.17-16.05-31.37-31.12-48.48-45.12Z"/><path d="M556.47,1308.27c-53.37,0-106.88-5.19-159.05-15.44l-4.57-.9-1.17-4.51c-6.82-26.2-11.62-53.1-14.28-79.94l-1.03-10.34,10.1,2.33c55.52,13.19,112.71,19.88,170,19.88,162.52,0,316.17-52.03,444.34-150.47l76.05-58.41,4.32,2.56c22.59,13.4,44.31,28.6,64.56,45.18l7.23,5.92-98,75.26c-143.85,110.47-316.22,168.86-498.5,168.86Z"/><path d="M1050.46,1133.53l90.59-69.57c-20.02-16.38-41.29-31.27-63.65-44.54l-72.07,55.35c-129.48,99.44-284.69,152-448.86,152-58.05,0-115.66-6.76-171.71-20.08,0,.02,0,.05,0,.07,2.67,26.93,7.43,53.25,14.08,78.8,51.75,10.16,104.52,15.3,157.63,15.3,180.63,0,351.45-57.86,493.99-167.33Z"/><path d="M1003.1,983.06l-42.9,32.95c-116.42,89.41-256.03,136.67-403.73,136.67-58.89,0-117.24-7.69-173.63-22.87-.41,8.44-.62,16.93-.62,25.47,0,17.36.87,34.51,2.55,51.42,56.05,13.32,113.66,20.08,171.71,20.08,164.17,0,319.38-52.56,448.86-152l72.07-55.35c-1.64-.98-3.28-1.96-4.94-2.92-22.13-12.8-45.31-23.99-69.36-33.45Z"/><path d="M960.2,1016.01l42.9-32.95c-28.22-11.1-57.64-19.8-88.03-25.81-102.46,78.69-227.24,121.34-358.6,121.34-56.49,0-111.76-7.92-164.57-23.17-4.76,24.23-7.83,49.07-9.06,74.39,56.4,15.18,114.75,22.87,173.63,22.87,147.7,0,287.31-47.26,403.73-136.67Z"/><path d="M791.58,947.96c-64.14,32.88-136.08,52.69-212.3,56.01-7.57.33-15.17.53-22.82.53-50.36,0-99.03-7.25-145.05-20.7-8.16,23.16-14.71,47.08-19.52,71.62,52.81,15.24,108.08,23.17,164.57,23.17,131.35,0,256.13-42.65,358.6-121.34-32.56-6.44-66.22-9.82-100.67-9.82-7.65,0-15.25.2-22.82.53Z"/><path d="M376.9,448.38c-1.96-.86-48.49-21.65-88.29-71.25-36.75-45.8-74.11-125.67-43.42-246.04,4.62-18.13,22.41-29.84,45.33-29.84,10.21,0,20.54,2.46,29.07,6.92,52.72,27.57,146.96,88.76,185.69,188.74l1.58,4.07-124.87,149.63-5.1-2.24Z"/><path d="M316.17,114.74c52.88,27.66,144.51,87.53,182.22,184.85l-118.5,142s-185.46-81.39-127.51-308.68c6.33-24.82,41.1-30.05,63.79-18.18Z"/><path class="cls-23" d="M276.6,118.19c-7.95,2.6-14.8,7.76-17.04,16.56-23.36,91.63-9.83,169.89,40.22,232.6,30.21,37.86,65.39,58.38,78.15,65.02l7.74-9.27c6.08-62.92,7.67-218.57-109.07-304.91Z"/><path class="cls-14" d="M916.9,965.17c-4.63,3.52-9.32,6.93-14.03,10.3l-13.25,26.04c-197.04,145.3-452.24,91.22-494.74,80.83-2,13.88-3.46,27.86-4.31,41.84,53.96,13.99,109.75,21.09,165.91,21.09,146.05,0,284.1-46.73,399.21-135.14l32.36-24.85c-23.22-8.44-47.09-15.19-71.15-20.11Z"/><path class="cls-28" d="M889.61,1001.51l13.25-26.04c-101.21,72.36-220.51,110.52-346.39,110.52-53.9,0-107.27-7.15-158.79-21.25-1.05,5.84-1.97,11.71-2.81,17.6,42.5,10.39,297.7,64.48,494.74-80.83Z"/><path class="cls-9" d="M1194.6,1125.59l-94.5,72.58c-86.12,66.14-181.61,115.12-283.1,145.89l5.1,23.48c-7.67,2.75-15.46,5.3-23.34,7.68l4.43,31.39c-99.35,26.16-283.61,16.6-339.56,12.91,3.85,6.32,7.83,12.56,11.95,18.7,26.8,2.26,53.99,3.4,80.88,3.4,211.91,0,412.38-67.93,579.73-196.46l95.16-73.08c-11.34-16.19-23.66-31.78-36.76-46.51Z"/><path class="cls-14" d="M803.2,1406.62l-4.43-31.39c-137.25,41.43-301.9,27.99-347.36,23.14,3.9,7.14,7.99,14.2,12.23,21.17,59.62,10.48,240.21,13.25,339.56-12.91Z"/><path class="cls-14" d="M1004.27,991.5l-39.57,30.39c-37.48,28.79-77.34,53.23-119.08,73.21l-.81,17.49c-224.81,105.15-415.79,56.98-455.16,45.09.07,14.28.72,28.72,1.99,43.03,53.89,12.39,109.32,18.67,164.83,18.67,162.52,0,316.17-52.03,444.34-150.47l63.31-48.62c-19.2-10.84-39.29-20.5-59.84-28.77Z"/><path class="cls-28" d="M866.64,1124.59l-21.02-29.5c-89.36,42.77-187.36,65-289.16,65-56.37,0-112.36-6.99-166.6-20.78-.16,5.32-.25,10.67-.25,15.97,0,.8.02,1.6.03,2.39,39.37,11.9,252.18,72.08,476.99-33.07Z"/><path class="cls-25" d="M276.6,118.19c116.74,86.34,115.15,242,109.07,304.91l73.08-87.58-21.64-30.96c-29.58-137.62-160.51-186.37-160.51-186.37Z"/><path class="cls-2" d="M312.73,121.3c-6.46-3.38-14.34-5.24-22.21-5.24-4.58,0-9.43.65-13.93,2.12,0,0,130.94,48.75,160.51,186.37l21.64,30.96,31.12-37.29c-37.95-93.09-126.98-150.7-177.14-176.93Z"/><path class="cls-14" d="M848.24,955.97c-18.62,12.36-193.39,122.35-441.29,67.43-2.37,8.86-4.54,17.79-6.42,26.76,50.57,13.95,103,21.02,155.94,21.02,123.88,0,241.23-37.86,340.48-109.67-16.09-2.62-32.37-4.46-48.71-5.53Z"/><path class="cls-28" d="M848.24,955.97c-11.26-.74-22.55-1.14-33.84-1.14-6.59,0-13.44.15-20.89.45-66.71,33.94-138.67,52.8-213.9,56.08-8.29.36-15.86.54-23.14.54-47.59,0-94.76-6.41-140.33-19.06-3.38,10.06-6.44,20.27-9.19,30.56,247.9,54.93,422.67-55.06,441.29-67.43Z"/><path class="cls-28" d="M393.86,1089.72s248.92,81.83,458.04-43.9c0,0,13.27-22.38,22.52-35.77.82-1.19-3.31-4.76-3.31-4.76l-69.86,38.11-98.27,29.75-52.02,14.48-91.37,6.64-79.48-6.64-84.23-12.03-2.01,14.11Z"/><path class="cls-14" d="M1077.91,1028.37l-68.07,52.28c-28.32,21.75-57.87,41.27-88.45,58.52l5.39,13.51c-184.52,139.84-468.45,98.95-529.98,87.99,2.19,12.93,4.88,25.8,8.07,38.52,49.77,9.47,100.75,14.27,151.61,14.27,178.98,0,348.24-57.33,489.47-165.8l83.1-63.83c-16.26-12.81-33.41-24.7-51.14-35.46Z"/><path class="cls-14" d="M1184.14,1114.17c-13.55-14.33-28.08-28.01-43.26-40.73l-85.9,65.97c-64.44,49.49-134.62,88.49-208.83,116.51l2.11,18.65c-152.18,75.3-370.31,53.53-431.29,45.48,4.49,13.12,9.5,26.05,15.02,38.7,41.18,5.84,83.04,8.8,124.5,8.8,195.45,0,380.31-62.63,534.6-181.13l93.49-71.8c-.14-.15-.28-.3-.43-.45Z"/><path class="cls-9" d="M1269.23,1235.5c-8.78-17.48-18.7-34.64-29.53-51.11l-94.47,72.55c-102.75,78.91-217.8,135.28-340.25,167.57l-.51,19.31c-100.67,41.47-248.31,38.75-297.39,36.5,10.19,12.26,20.92,24.05,32.17,35.26,6.21.11,11.87.16,17.22.16,228.37,0,444.45-73.24,624.86-211.79l88.23-67.77c-.11-.23-.23-.46-.34-.68Z"/><path class="cls-14" d="M804.47,1443.82l.51-19.31c-80.11,21.12-163.39,31.96-248.5,31.96-23.23,0-46.67-.84-69.91-2.5,6.55,9.01,13.4,17.8,20.52,26.36,49.08,2.26,196.72,4.97,297.39-36.5Z"/><path class="cls-9" d="M581.97,1553.62c15.31,12.18,31.32,23.48,47.92,33.81,168.54-10.95,330.45-60.18,475.41-143.78-5.92-10.45-12.25-20.77-17.67-32.04-214.31,130.75-434.21,142.11-505.66,142.01Z"/><path class="cls-9" d="M1298.63,1307.28c-6.31-19.53-13.86-38.79-22.51-57.45l-85.77,65.87c-7.67,5.89-15.43,11.62-23.23,17.28l10.98,15.44c-29.75,23.68-60.06,44.64-90.48,63.2,5.42,11.27,11.75,21.59,17.67,32.04,41.88-24.15,82.36-51.15,121.17-80.95l72.17-55.42Z"/><path class="cls-14" d="M1178.11,1348.42l-10.98-15.44c-178.22,129.33-388.71,197.57-610.66,197.57h-1.55c8.74,8,17.76,15.7,27.04,23.07,81.6.11,356.78-14.71,596.15-205.21Z"/><path class="cls-9" d="M1317.31,1386.36c-3.27-21.49-7.99-42.94-14.05-63.95l-67.77,52.05c-10.93,8.39-21.99,16.56-33.17,24.51l11.9,8.91c-21.93,20.77-45.44,39.58-69.94,56.64,7.6,9.75,14.69,19.62,20.97,29.94,36.43-22.21,71.9-46.53,106.35-72.99l45.71-35.11Z"/><path class="cls-9" d="M697.37,1622.67c21.5,9.26,43.61,17.06,66.21,23.26,143.49-25.3,278.1-76.12,401.66-151.47-6.27-10.32-13.37-20.19-20.97-29.94-158.51,110.39-358.82,146.92-446.91,158.15Z"/><path class="cls-14" d="M1202.31,1398.97c-162.5,115.6-351.39,184.91-549.99,201.64,14.66,8.12,29.7,15.44,45.04,22.05,101.7-12.97,353-59.63,516.85-214.79l-11.9-8.91Z"/><path d="M1437.82,1464.42s35.8,93.59-13.15,213.59l19.6-6.33s44.91-103.69,14.52-205.72l-20.98-1.54Z"/><path d="M1247.32,1850.19c15.06-161.31-81.34-206.65-81.34-206.65l-174.66,61.89-1.84,20.77s-97.65-15.34-136.37,99.07c0,0,121.31-1.21,180.05,5.84,3.73,14.1,5.55,23.34,5.55,23.34l208.61-4.26Z"/><path d="M1044.68,1846.92c-.93-4.16-2.37-10.25-4.35-17.7l-1.28-4.86-5-.6c-48.98-5.88-139.21-6.08-170.3-5.96,38.09-96.24,120.99-84.83,124.61-84.28l7.8,1.19.71-7.86,1.42-16.03,167.07-59.2c6.54,3.79,24.66,15.73,41.43,39.79,33.23,47.7,37,107.52,33.71,151.5l-195.82,4Z"/><path class="cls-17" d="M1200.71,1695.65c-13.83-19.85-28.43-30.9-36.19-35.86l-159.26,56.44-1,11.3-.67,7.41c33.51,15.74,45.93,48.52,37.5,82.2l3.85.46,2.57,9.72c1.22,4.61,2.23,8.69,3.04,12.07l183.01-3.74c2.24-40.79-2.18-95.99-32.84-140Z"/><circle cx="1056.63" cy="1555.58" r="169.63"/><path d="M1031.44,1715.84c-88.37-13.89-148.96-97.08-135.06-185.45,13.89-88.37,97.08-148.96,185.45-135.06,88.37,13.89,148.96,97.09,135.06,185.45-13.89,88.37-97.09,148.96-185.45,135.06Z"/><path class="cls-11" d="M1027.29,1752.42c-6.16-6.98-14.06-12.94-23.72-17.48l-.75,8.29-15.58-2.38c-3.15-.48-74.74-10.35-112.22,69.52,0,0,91.4-73.01,152.27-57.95Z"/><path class="cls-18" d="M1041.07,1817.14c6-23.97,1.43-47.48-13.78-64.72-60.88-15.06-152.27,57.95-152.27,57.95,40.11,0,115.87.75,159.92,6.03l6.14.74Z"/><path d="M1038.71,1854.44s-89.13,2.92-101.15,5.56c0,0,29.29-113.85,102.92-113.93,0,0,62.39-2.06,85.91,106.57l-87.69,1.79Z"/><path d="M947.97,1851.36c9.15-27.2,38.15-97.82,92.52-97.87h.24s1.63-.02,4.34.41c6.9,1.08,20.61,4.97,34.88,18.76,16.61,16.05,29.09,40.51,37.16,72.77l-78.55,1.61c-7.66.25-64.16,2.15-90.59,4.32Z"/><path class="cls-28" d="M793.69,1350.75c-76.35,20.88-155.87,31.62-237.22,31.62-39,0-78.36-2.58-117.2-7.67,0,0,126.68,50.83,337.89,6.55.05-.01.11-.03.16-.04l16.36-30.46Z"/><path class="cls-14" d="M439.27,1374.7c3.82,7.97,7.88,15.87,12.13,23.67,43.09,4.6,193.31,16.91,325.76-17.12-211.21,44.28-337.89-6.55-337.89-6.55Z"/><path class="cls-28" d="M777.33,1381.21c-.05.01-.11.03-.16.04.05-.01.11-.02.16-.03h0Z"/><path class="cls-28" d="M863.66,1211.26c13.12-5.72,25.97-12.06,38.47-19.07-12.77,7-25.61,13.32-38.47,19.07Z"/><path class="cls-28" d="M911.28,1186.89l-5.95,3.47c1.99-1.14,3.98-2.29,5.95-3.47Z"/><path class="cls-14" d="M396.79,1240.67c24.63,4.39,87.89,15.37,166.73,18-99.46-7.96-168.41-33.97-169.18-34.27.74,5.43,1.54,10.85,2.46,16.26Z"/><path class="cls-28" d="M902.86,1191.79l2.47-1.44c-1.06.61-2.13,1.23-3.2,1.83.24-.13.49-.26.73-.39Z"/><path class="cls-28" d="M905.33,1190.35l5.95-3.47c11.73-7.01,23.13-14.62,34.1-22.93l-13.85-14.31-13.39-8.67c-109.84,61.23-233.03,93.21-361.66,93.21-54.94,0-109.79-6.03-163.21-17.93.33,2.72.71,5.43,1.08,8.15.78.29,69.73,26.31,169.18,34.27,91.08,3.04,202.95-5.08,300.14-47.41,12.86-5.75,25.69-12.08,38.47-19.07,1.07-.6,2.13-1.22,3.2-1.83Z"/><path class="cls-14" d="M843.88,1256.74l-10.48,40.9c-276.78,67.8-424.29-2.6-424.29-2.6,2.4,8.4,5.02,16.74,7.84,25.01,68.45,22.64,234.5,36.76,382.34-4.45,23.38-6.52,45.34-59.14,44.59-58.86Z"/><path class="cls-28" d="M833.4,1297.65l10.48-40.9c-90.8,33.97-187.61,51.53-287.4,51.53-49.4,0-98.91-4.45-147.36-13.23,0,0,147.51,70.41,424.29,2.6Z"/><g class="cls-6"><path class="cls-17" d="M383.46,1130.94c-.41,8.44-.62,16.93-.62,25.47,0,17.36.87,34.51,2.55,51.42,0,.02,0,.05,0,.07,2.67,26.93,7.43,53.25,14.08,78.8,7.18,27.61,16.57,54.32,28.01,79.93.02.04.03.08.05.11,12.5,27.98,27.45,54.63,44.53,79.71,19.03,27.95,40.7,53.96,64.71,77.61,0,0,0,0,0,0,27.73,27.32,58.54,51.52,91.86,72.05,41.48,25.56,86.85,45.42,135.03,58.48.07.02.14.04.21.06,43.07,11.65,88.37,17.91,135.13,17.91,43.3,0,85.35-5.35,125.54-15.39,78.47-19.61,149.82-57.19,209.43-108.11,12.97-11.08,25.37-22.79,37.18-35.08l.63-93.96-106.81-151.76-160.48,143.85c-613.92,31.34-588.16-420.72-588.16-420.72l-8.98,7.62c-5.99,18.74-10.96,37.94-14.81,57.54-4.76,24.23-7.83,49.07-9.06,74.39Z"/></g><path class="cls-11" d="M1078.89,1782.25c-1.34-1.48-2.7-2.92-4.09-4.27-12.81-12.38-24.85-15.82-30.88-16.77-1.84-.29-3-.32-3.16-.32h-.25c-43.92.05-70.67,54-81.67,82.26,0,0,63.42-68.89,120.06-60.9Z"/><path class="cls-18" d="M1107.49,1838.21c-6.92-23.81-16.52-42.56-28.59-55.96-56.64-7.99-120.06,60.9-120.06,60.9,29.1-1.85,73.83-3.34,79.58-3.53l69.08-1.41Z"/><path d="M1001.77,1729.26s19.31,2.2,31.03,19.87l-13.37,5.56s-9.51-10.57-26.45-12.97l8.79-12.47Z"/><path class="cls-14" d="M1080.68,1402.64c-56.08-8.82-109.95,13.83-143.67,54.77,20.12-9.75,42.7-15.23,66.56-15.23,84.39,0,152.79,68.41,152.79,152.79,0,39.98-15.37,76.36-40.51,103.59,48.1-20.02,85.05-63.81,93.72-118.94,13.26-84.33-44.57-163.73-128.9-176.98Z"/><path class="cls-17" d="M1003.58,1442.18c-23.86,0-46.44,5.48-66.56,15.23-16.98,20.62-28.87,45.88-33.31,74.13-13.26,84.33,44.56,163.73,128.89,176.98,29.2,4.59,57.79.65,83.27-9.95,25.14-27.23,40.51-63.61,40.51-103.59,0-84.39-68.41-152.79-152.79-152.79Z"/><path class="cls-8" d="M556.47,1004.5c7.65,0,15.25-.2,22.82-.53,76.22-3.32,148.15-23.13,212.3-56.01,116.8-59.87,207.77-162.95,251.86-288.14,13.4-38.05,22.44-78.14,26.58-119.67-57.77-169.33-218.2-291.11-407.08-291.11-237.49,0-430.02,192.53-430.02,430.02,0,104.05,36.96,199.46,98.46,273.84,25.58,12.41,52.32,22.79,80.04,30.89,46.02,13.45,94.68,20.7,145.05,20.7Z"/><path d="M556.47,1011.91c-49.95,0-99.45-7.06-147.12-21-27.74-8.11-55.05-18.65-81.2-31.34l-1.45-.7-1.03-1.24c-64.59-78.11-100.16-177.04-100.16-278.56,0-241.2,196.23-437.43,437.43-437.43,93.27,0,182.46,28.76,257.93,83.18,74.17,53.48,128.78,126.93,157.94,212.4l.52,1.52-.16,1.6c-3.77,37.83-13.18,77.72-28.75,121.94-22.18,62.99-55.85,120.52-100.08,170.99-43.95,50.16-96.23,90.96-155.39,121.28-67.12,34.4-139.58,53.52-215.36,56.82-8.3.36-15.87.54-23.14.54Z"/><path d="M556.47,1004.5c7.65,0,15.25-.2,22.82-.53,76.22-3.32,148.15-23.13,212.3-56.01,116.8-59.87,207.77-162.95,251.86-288.14,13.4-38.05,24.22-78.68,28.37-120.22-57.77-169.33-219.98-290.56-408.86-290.56-237.49,0-430.02,192.53-430.02,430.02,0,104.05,36.96,199.46,98.46,273.84,25.58,12.41,52.32,22.79,80.04,30.89,46.02,13.45,94.68,20.7,145.05,20.7Z"/><path class="cls-17" d="M844.81,696.85c103.45-191.95-90.51-378.8-90.51-378.8l104.58-13.49c-59.14-30.94-126.03-48.11-195.94-48.11-233.03,0-422.61,189.58-422.61,422.61,0,55.25,10.91,109.71,31.59,160.22,97.63,7.28,482.75,24.82,572.89-142.43Z"/><path class="cls-14" d="M413.5,976.68c46.32,13.54,94.42,20.41,142.97,20.41,7.05,0,14.41-.17,22.5-.52,73.63-3.2,144.03-21.78,209.24-55.2,57.48-29.46,108.29-69.12,151.01-117.86,42.98-49.04,75.69-104.94,97.24-166.14,13.19-37.45,21.94-76.58,26.04-116.35-36.02-104.28-110.14-187.56-203.61-236.45l-104.58,13.49s193.95,186.85,90.51,378.8c-90.14,167.25-475.26,149.71-572.89,142.43,15.83,38.67,37.37,75.03,64.14,107.66,24.96,12.01,51,22.02,77.43,29.74Z"/><path class="cls-4" d="M474.65,895.81s471.11-6.49,396.64-363.06l-40.98,38.76,12.63,61.67-3.83,52.45-19.16,45.98-36.62,43.46-60.46,49.78-52.93,31.93-89.71,23.84-88.95,10.49-16.63,4.68Z"/><path d="M797.94,1339.41s-35.9,26.14-39.32,103.22c0,0,40.05,7.97,97.42-65.49l-58.11-37.73Z"/><path d="M766.49,1435.2c4.03-52.74,23.88-78.08,32.17-86.49l46.49,30.19c-37.84,46.1-66.63,54.83-78.66,56.3Z"/><path class="cls-11" d="M820.62,1369.81l-17.88-14.26c-8.12,9.98-23.34,33.53-27.86,70.13,21.21-9.83,41.7-48.02,45.74-55.87Z"/><path class="cls-18" d="M834.07,1380.54l-13.45-10.72c-4.04,7.84-24.53,46.04-45.74,55.87,12.56-4.13,33.25-15.28,59.19-45.14Z"/><path d="M825.69,1526.89s71.85,15.64,140.3-54.16l-57.15-40.18s-63.59,29.41-83.15,94.34Z"/><path d="M846.48,1520.96c-4.24.08-7.9-.06-10.85-.28,17.81-46.73,59.88-72.55,72.62-79.48l46.2,32.47c-42.57,40.01-85.53,46.87-107.96,47.29h0Z"/><path class="cls-11" d="M907.82,1449.96c-13.93,8.21-44.24,29.12-61.03,63.59,39.07-8.35,73.52-37.97,83.85-47.55l-22.82-16.04Z"/><path class="cls-18" d="M930.64,1466c-10.33,9.58-44.78,39.2-83.85,47.55,19.85-.44,57.41-6.34,95.77-39.17l-11.92-8.38Z"/><path d="M850.28,1372.35s-70.48,47.36-79.89,136.21c0,0,61.5,19.23,150.26-63.54l-70.37-72.66Z"/><path d="M789.6,1503.07c-4.52.08-8.21-.17-10.99-.51,9.76-66.92,55.65-108.3,70.88-120.37l60.53,62.5c-55.53,49.73-99.05,57.98-120.42,58.38h0Z"/><path class="cls-11" d="M882.28,1423.65l-33.33-31.37c-16.59,14.37-51.14,49.87-61.64,103.4,51.56-18.4,86.98-61.6,94.97-72.03Z"/><path class="cls-18" d="M902.22,1442.42l-19.94-18.78c-7.99,10.43-43.41,53.63-94.97,72.03.71,0,1.43,0,2.16-.01,19.31-.36,61.65-9.48,112.75-53.24Z"/><path d="M1186.38,1281.78s-93.98-130.38-215.09-147c0,0-62.56,40.49-118.22,99.33,52.35,22.96,145.73,74.93,222.87,176.75,32.93-30.81,70.9-72.72,110.45-129.08Z"/><path d="M1076.8,1399.83c-73.19-93.77-159.91-144.38-211.11-168.15,46.5-47.36,96.21-81.69,107.33-89.16,103.17,15.74,187.11,117.44,204.17,139.42-31.9,44.94-65.62,84.54-100.4,117.9Z"/><path d="M853.07,1234.1c-28.4,30.02-56.42,68.13-71.99,104.77,0,0,78.58,85.85,185.48,149.92,0,0,45.08-17.78,109.38-77.93-77.14-101.83-170.51-153.79-222.87-176.75Z"/><path d="M967.09,1480.46c-91.26-55.46-160.73-129.53-175.91-146.3,13.12-29.09,34.51-59.71,63.68-91.15,49.31,22.28,137.34,72.06,211.08,166.99-50.37,46.14-87.92,65.39-98.85,70.45Z"/><path d="M813.89,1298.06s114.52,65.89,188.13,158.75l13.94-8.87s-85.47-101.69-193.15-162.74l-8.93,12.86Z"/><path class="cls-14" d="M1072.43,1394.3c28.97-28.47,61.59-66.13,89.2-103.51l-26.02-44.72c-36.13-36.62-94.51-84.56-160.87-95.77-9.06,6.19-34.75,25.44-63.41,50.23,13.39,13.87,45.8,50.73,60.41,95.82,33.03,25.22,68.1,57.43,100.69,97.95Z"/><path class="cls-17" d="M873.42,1235.34c25.64,12.56,60.65,32.25,98.32,61.01-14.6-45.09-47.02-81.95-60.41-95.82-12.45,10.77-25.46,22.57-37.91,34.81Z"/><path class="cls-17" d="M977.41,1319.63c-45.01-36.73-87.75-60.46-116.26-73.73-25.31,27.85-49.52,62.81-61.86,88.63,15.39,16.64,62.43,62.93,124.44,108.04,49.43-39.2,60.06-83.1,53.68-122.94Z"/><path class="cls-14" d="M1061.84,1404.79c-27.06-33.95-56.19-62.11-84.43-85.15,6.37,39.85-4.26,83.74-53.68,122.94,13.87,10.09,28.52,20.04,43.79,29.46,13.13-6.51,51.68-29.07,94.32-67.25Z"/><path d="M1047.87,88.95c-6.94-22.48-31.23-34.58-53.29-26.37-63.09,23.47-183.56,87.29-236.59,243.1,2.4.67,4.74,1.39,7.09,2.11,18.71-54.9,47.49-102.75,86.12-142.96,50.67-52.74,107.35-80.94,145.97-95.31,3.76-1.4,7.68-2.11,11.63-2.11,14.76,0,27.61,9.53,31.99,23.72,36.31,117.69,30.87,212.61-16.16,282.13-23.16,34.23-53.98,58.33-84.73,75.25,1.33,2.18,2.63,4.34,3.9,6.49,85.13-47.05,171.15-148.62,104.07-366.05Z"/><path d="M856.54,169.96c49.7-51.73,105.31-79.4,143.21-93.5,2.93-1.09,5.98-1.64,9.05-1.64,11.49,0,21.5,7.43,24.91,18.5.34,1.11.65,2.2.99,3.3,34.5,113.9,29.07,205.58-16.21,272.49-22.54,33.32-52.54,56.73-82.5,73.17,1.33,2.09,2.64,4.16,3.91,6.23,30.75-16.92,61.56-41.01,84.73-75.25,47.03-69.52,52.47-164.44,16.16-282.13-4.38-14.19-17.23-23.72-31.99-23.72-3.96,0-7.87.71-11.63,2.11-38.62,14.37-95.3,42.56-145.97,95.31-38.63,40.2-67.4,88.06-86.12,142.96,2.38.73,4.73,1.49,7.06,2.27,18.37-53.83,46.58-100.73,84.4-140.1Z"/><path d="M1018.49,369.11c45.27-66.92,50.71-158.59,16.21-272.49-48.92,26.53-146.01,95.62-197.81,244.45,39.55,25.38,68.5,57.27,88.77,85.85,3.66,5.15,7.09,10.28,10.33,15.36,29.96-16.44,59.95-39.85,82.5-73.17Z"/><path d="M260.79,916.93l24.08-36.41,15.53-34.59-7.39-36.14-29.43-25.62-63.32-19.52,33.5-15.22c-5.2-96.58.63-203.62,53.95-260.95,27.55-29.63,57.95-35.85,78.6-35.85,30.38,0,59.13,14.1,69.92,34.28l1.29,2.42.34,2.72c.15,1.19,3.73,29.82,1.64,65.86-2.87,49.57-14.79,87.14-35.44,111.64-31.81,37.76-69.71,65.93-115.52,85.77,1.53.96,2.98,1.93,4.35,2.92,16.27-6.25,57.23-23.78,97.51-55.18,68.41-53.33,103.1-119.68,103.1-197.19v-5.49l3.57-4.16c45.07-52.49,95.34-79.1,149.43-79.1,74.35,0,138.01,51.91,168.12,103.35,47.9,81.85,50.18,163.64,6.26,224.4-44.01,60.88-105.56,104.67-182.92,130.13-62.18,20.47-118.59,23.52-146.68,23.52-7.25,0-34.98.19-38.04.03l-95.97,18.37h-96.49Z"/><path d="M238.44,924.34l52.4-39.03,17.3-38.52-8.38-40.94-32.51-28.3-51.74-15.95,26.42-21.97c-5.6-82.14-.95-190.04,51.19-246.1,25.74-27.68,54-33.48,73.18-33.48,27.76,0,53.83,12.49,63.38,30.36l.65,1.21.17,1.36c.15,1.18,3.63,29.34,1.6,64.51-2.77,47.94-14.11,84.04-33.71,107.3-34.25,40.66-76.05,70.12-127.32,89.65,6.96,3.15,14.55,7.25,20.58,12.19,13.4-4.89,58.65-22.9,103.3-57.71,70.31-54.81,105.96-123.12,105.96-203.04v-2.74l1.79-2.08c43.59-50.78,91.98-76.52,143.8-76.52,71.41,0,132.68,50.07,161.72,99.69,46.35,79.2,48.77,158.04,6.65,216.32-43.08,59.59-103.38,102.47-179.23,127.44-61.19,20.15-116.71,23.15-144.36,23.15h0c-8.32,0-14.01-.27-16.48-.42l-116.48,33.63h-119.89Z"/><path d="M280.34,776.99c-7.45-7.44-26.05-13.6-35.34-16.28l-46.74-5.81,38.74-4.44c56.17-17.89,109.06-53.62,144.77-96.01,39.81-47.25,26.8-157.63,26.67-158.7l-3.57-28.35,62.84,33.45,55.41-13.99v19.03c0,86.05-39.73,162.42-114.9,220.86-55.97,43.52-111.39,61.68-113.73,62.43l-4.68.47-9.5-12.65Z"/><path d="M284.74,780.31c-9.49-9.49-30.24-16.94-37.44-19.01l-23.49-6.76,23.29-7.42c57.55-18.33,103.33-48.39,139.97-91.88,42.07-49.94,28.88-159.31,28.74-160.41l-1.78-14.18,52.75,28.08,48.96-12.36v9.51c0,83.68-38.74,158.03-112.04,215.01-54.99,42.75-109.17,60.5-111.45,61.23l-4.31,1.39-3.2-3.2Z"/><path class="cls-4" d="M392.73,660.01c-44.7,53.06-96.71,79.3-143.39,94.17,0,0,27.7,7.97,40.63,20.89,0,0,218.35-70.34,218.35-269.19l-42.51,10.74-42.66-22.71s14.28,113.04-30.42,166.11Z"/><path class="cls-25" d="M566.96,757.78l29.27,6.69-42.49,68.94-15.8,10.21s169.5,3.07,288.04-138c23.4-56.53,8.79-121.35-24.16-177.66-44.86-76.66-175.07-160.03-293.51-22.08,0,198.85-218.35,269.19-218.35,269.19-9.7-9.69-27.71-16.6-36.11-19.45l-13.13,6,30.2,9.31,35.58,30.97,9.36,45.73-18.38,40.93,6.47-3.83s152.36,20.42,263-126.97Z"/><path class="cls-25" d="M349.28,682.62l.47,19.2c14.77-11.7,29.22-25.48,42.98-41.81,44.7-53.06,30.42-166.11,30.42-166.11-18.87-35.3-133.05-59.91-166.5,94.72,8.51,34.63,31.57,89.45,92.63,93.99Z"/><polygon class="cls-3" points="230.77 758.56 237.11 760.51 234.75 755.25 230.77 758.56"/><polygon class="cls-10" points="238.14 762.81 240.74 761.63 237.11 760.51 238.14 762.81"/><path class="cls-25" d="M249.35,754.18c32.31-10.29,67.18-26.04,100.41-52.36l-.47-19.2c-61.06-4.54-84.12-59.36-92.63-93.99-8.45,39.07-11.76,89.59-7.06,154.27l-14.84,12.34,2.36,5.26,3.63,1.12,13.13-6c-2.79-.95-4.52-1.44-4.52-1.44Z"/><path class="cls-2" d="M260.79,916.93h96.49l116.72-33.7s216.42,16.82,334.87-147.03c7.11-9.83,12.77-20.06,17.12-30.58-118.54,141.07-288.04,138-288.04,138l15.8-10.21,42.49-68.94-29.27-6.69c-110.64,147.39-263,126.97-263,126.97l-6.47,3.83-.69,1.53-36.02,26.83Z"/><path class="cls-1" d="M662.95,249.04c-237.49,0-430.02,192.53-430.02,430.02,0,12.61.55,25.09,1.62,37.42,128.22-192.43,347.18-319.21,595.76-319.21,60.37,0,118.99,7.49,174.99,21.57-78.55-103.18-202.66-169.8-342.34-169.8Z"/><path class="cls-27" d="M1005.3,418.83s0,0,0,0c1.03.26,2.03.54,3.05.8-1.02-.26-2.03-.55-3.05-.81Z"/><path class="cls-31" d="M1005.3,418.84s0,0,0,0c0,0,.07.09.2.26-.06-.08-.13-.17-.19-.25Z"/><path class="cls-31" d="M1008.35,419.64c2.77.71,5.53,1.45,8.29,2.19-2.73-.75-5.51-1.47-8.29-2.19Z"/><path d="M1067.32,532.45c.93,2.55,1.83,5.12,2.71,7.69-4.14,41.54-13.19,81.63-26.58,119.67-25.28,71.8-66.02,136.31-118.17,189.58-38.78,39.61-83.87,73.03-133.68,98.56,7.57-.33,15.17-.53,22.82-.53,31.11,0,61.56,2.78,91.15,8.05,3.18.57,6.36,1.14,9.51,1.76,30.39,6.01,59.81,14.71,88.03,25.81,135.84-170.75,107.44-342.26,64.22-450.6Z"/><path class="cls-27" d="M1007.83,422.23c-1.19-1.63-1.99-2.68-2.34-3.13.79,1.04,1.56,2.09,2.34,3.13Z"/><path class="cls-31" d="M1007.83,422.23c-1.19-1.63-1.99-2.68-2.34-3.13.79,1.04,1.56,2.09,2.34,3.13Z"/><path class="cls-31" d="M1007.83,422.23c-1.19-1.63-1.99-2.68-2.34-3.13.79,1.04,1.56,2.09,2.34,3.13Z"/><path d="M1184.14,1114.17c-20.25-21.43-42.57-41.26-66.34-58.95-15.75-11.72-32.25-22.59-49.05-32.31-21.8-12.61-44.8-23.7-68.36-32.97l-9.33-3.67,6.24-7.84c132.09-166.03,107.24-332.68,63.13-443.24l-.08-.22c-14.03-38.67-33.7-75.12-58.47-108.33-1.18-1.61-1.94-2.61-2.27-3.04l-12.37-16.87,19.87,4.91c.62.16,3.09.81,3.09.81,2.77.71,5.56,1.46,8.35,2.2,93.8,25.67,167.3,69.73,218.48,130.95,43.66,52.22,70.59,116.02,80.06,189.63,7.87,61.21,3.17,128.03-13.6,193.23-23.87,92.84-70.67,171.69-111.29,187.5l-4.65,1.81-3.42-3.62Z"/><path d="M1231.36,550.38c-46.45-55.56-115.59-101.41-214.72-128.55-2.76-.74-5.52-1.48-8.29-2.19-1.02-.26-2.02-.54-3.05-.8.06.08.13.17.19.25.35.45,1.15,1.5,2.34,3.13,24.88,33.35,45.05,70.41,59.49,110.23,43.22,108.34,71.62,279.85-64.22,450.6,24.05,9.46,47.23,20.65,69.36,33.45,17.25,9.98,33.85,20.94,49.76,32.78,24.14,17.96,46.67,37.97,67.3,59.8,81.72-31.8,209.28-358.4,41.83-558.7Z"/><path d="M1387.52,1531.91c-17.34,0-36.27-6.96-48.36-19.09-11.9-11.94-16.09-29.62-16.02-47.22v-2.03c0-8.04-.2-16.38-.6-24.79-.8-16.69-2.44-33.49-4.86-49.95-3.8-25.81-9.68-51.6-17.49-76.65l-2.99-9.61h10.06c2.85,0,12.81-5.04,30.08-24.08,60.99-67.23,151.75-235.87,135.65-402.18l-.34-3.49,9.17-9.12,4.9,8.05c45.57,75.31,68.09,164.56,66.93,265.28-4.25,122.62-39.91,242.59-103.13,347.13-3.71,6.14-7.04,11.49-10.17,16.36-10.18,15.86-25.68,28.1-43.65,30.72-3.02.44-6.11.66-9.19.66h0Z"/><path d="M1480.38,875.6l-.02.02c21.1,217.94-138.01,434.36-173.1,434.38,7.84,25.15,13.82,51.12,17.74,77.77,2.45,16.65,4.11,33.55,4.93,50.67.4,8.33.62,16.71.62,25.14,0,.69,0,1.37,0,2.06-.15,38.38,33.79,60.79,65.09,56.22,14.67-2.14,28.77-10.18,38.49-25.33,3.43-5.34,6.77-10.75,10.06-16.19,60.98-100.85,97.71-218,102.06-343.38.94-81.52-13.83-175.37-65.86-261.35Z"/><path d="M1300.2,1312.2c-3.26-10.48-6.85-20.81-10.65-30.71-5.99-15.6-12.82-31.07-20.32-45.99-22.28-44.34-50.91-85.16-85.09-121.32l-7.56-8,10.26-3.99c35.92-13.98,79.9-90.24,102.31-177.38,52.13-202.76-27.02-326.06-63.47-369.66l-2.17-2.6,2.15-13.26,9,4.46c81.5,40.47,144.46,91.58,187.14,151.92,37.36,52.82,59.55,113.13,65.95,179.25,16.57,171.07-76.73,344.46-139.42,413.56-17.41,19.19-31.22,28.93-41.04,28.94h-5.46s-1.62-5.2-1.62-5.2Z"/><path d="M1480.37,875.61c-11.61-119.87-77.72-240.2-249.01-325.25h0c167.45,200.31,39.88,526.91-41.83,558.71h0c34.43,36.42,63.6,77.85,86.33,123.09,7.61,15.14,14.49,30.71,20.61,46.66,3.93,10.23,7.52,20.63,10.8,31.16,35.09-.02,194.2-216.44,173.1-434.38Z"/><path d="M249.6,1115.55h0c12.52,20.39,32.79,34.86,56.19,39.84,22.37,4.76,52.55,17.7,78.97,51.31l-1.59-43.22s-50.97-68.17-133.57-47.93Z"/><path class="cls-9" d="M376.6,1179.68c-24.57-24.32-50.51-34.26-69.27-38.26-17.67-3.76-28.27-11.15-37.13-20.01,5.96-.91,15.88,1.1,21.55,2.56,54.9,14.17,76.86,33.59,84.11,42.23l.74,13.47Z"/><path d="M331.38,952.9s-82.96,59.36-81.79,162.64c0,0,71.05-10.11,133.57,47.93,0,0-7.06-62.05,28.26-179.68,0,0-40.82-11.55-80.04-30.89Z"/><path d="M375.15,1146.91c-43.58-34.03-88.5-39.45-112.69-39.45-1.98,0-3.78.04-5.37.1,2.66-81.72,60.45-133.94,75.21-145.97,28.65,13.71,57.01,23.16,69.93,27.18-23.16,79.46-26.97,132.65-27.08,158.15Z"/><path d="M828.05,1091.21h0s50.99-19.55,50.99-19.55l268.26,134,80.78,189.4,7.17,162.79-17.71,23.42s2.95-318.12-353.46-449.73c-18.38-6.79-32.99-20.97-36.03-40.33Z"/><path d="M1223.92,1560.55c-2.58-30.11-11.56-89.62-42.72-157.86-25.82-56.57-61.61-107.26-106.38-150.67-55.87-54.17-125.91-97.04-208.18-127.42-15.23-5.63-27.41-18.7-30.78-33.33l42.79-11.51,262.9,131.33,79.19,185.66,6.99,158.78-3.81,5.04Z"/><path class="cls-9" d="M1222.57,1504.88c-6.52-24.37-21.38-76.25-34.63-105.28-26.21-57.41-62.53-108.86-107.96-152.91-56.61-54.89-127.53-98.31-210.77-129.05-10.59-3.91-21.58-14.21-25.93-25.82l34.58-4.19,257.95,128.85,77.59,181.92,9.17,106.48Z"/><path d="M920.78,951.46s-52.07,53.17-92.73,139.74c0,0,438.35,65.08,389.49,490.06,0,0,79.16-1.9,119.02-113.22,0,0-9.78-426.74-415.77-516.58Z"/><path d="M1225.9,1572.75c9.41-94.62-4.72-178.94-42.03-250.76-30.86-59.39-77.5-110.28-138.63-151.28-86.94-58.3-176.85-79.41-206.28-85.11,33.52-68.22,73.55-114.21,84.33-125.98,89.46,20.45,166.33,59.37,228.52,115.73,50.55,45.81,91.64,103.23,122.13,170.66,48.93,108.22,54.62,208.21,55.15,220.87-30.39,83.55-82.64,101.87-103.2,105.87Z"/><ellipse cx="226.32" cy="837.35" rx="86.29" ry="97.55" transform="translate(-640.81 858.9) rotate(-76.3)"/><path d="M231.85,916.93c-8.08,0-16.22-.99-24.22-2.94-23.56-5.74-43.69-19.21-56.7-37.92-12.81-18.43-17.14-39.76-12.19-60.07,8.36-34.28,42.09-58.23,82.04-58.23,8.08,0,16.22.99,24.22,2.94,48.29,11.77,79.19,55.73,68.89,97.99-8.36,34.28-42.1,58.23-82.04,58.23Z"/><path d="M207.44,921.52s280.76,58.2,405.86-148.69c0,0,26.92,1.36,56.64-15.08,0,0-84.9,11.68-115.67-14.85,0,0,9.55,17.51,26.53,22.29,0,0-51.79,157.13-353.27,145.18l-20.08,11.15Z"/><path d="M619.11,726.48c-47.82,0-86.73-47.07-86.73-104.93s38.91-104.93,86.73-104.93,86.73,47.07,86.73,104.93-38.91,104.93-86.73,104.93Z"/><ellipse cx="619.11" cy="621.55" rx="79.32" ry="97.52"/><path class="cls-24" d="M619.11,711.66c-39.65,0-71.91-40.42-71.91-90.11s32.26-90.11,71.91-90.11,71.91,40.42,71.91,90.11-32.26,90.11-71.91,90.11Z"/><path d="M345.39,682.76c-38.02,0-68.95-37.27-68.95-83.07s30.93-83.07,68.95-83.07,68.95,37.27,68.95,83.07-30.93,83.07-68.95,83.07Z"/><ellipse cx="345.39" cy="599.69" rx="61.54" ry="75.66"/><path class="cls-24" d="M345.39,667.94c-29.85,0-54.13-30.62-54.13-68.25s24.28-68.25,54.13-68.25,54.13,30.62,54.13,68.25-24.28,68.25-54.13,68.25Z"/><path d="M215.19,752.4s104.73-32.69,158.01-92.39h19.53s-51,69.33-154.6,97.43l-22.94-5.04Z"/><ellipse cx="629.33" cy="632.43" rx="63.64" ry="84.05"/><ellipse cx="349.99" cy="610.52" rx="49.53" ry="63.55"/><ellipse class="cls-24" cx="617.84" cy="607.26" rx="20.11" ry="24.99"/><ellipse class="cls-24" cx="338.37" cy="591.6" rx="16" ry="19.88"/><path class="cls-4" d="M508.19,514.35s.45-35.77,0-48.02l-90.42-13.53s6.3,40.68,6.92,59.59l40.99,23.63,42.51-21.68Z"/><path d="M293.7,486.74s77.97-142.16,204.68-191.07c126.71-48.91,202.14-34.48,271.25-17.11l6.03-11.01-57.61-12.35-62.27-3.66-79.53,9.68-64.62,17.01-46.05,22.76-58.34,36.37-39.24,33.75-36.37,40.81-27.99,37.67-18.05,30.87-9.14,20.15,12.1-1.85,5.15-12.01Z"/><path d="M1662.93,1004.66s26.21-33.6,54.78-29.97l12.44,8.39s-38.22,7.38-56.71,34.69l-10.51-13.11Z"/><path d="M1672.19,1115.55s36.76-46.77,91.37-29.47l-4.55-15.21s-47.45-17.15-86.82,28.64v16.03Z"/><path d="M1661.61,1207.01s54.26-39.21,122.11-11.63l-3.63-15.92s-58.63-26.06-116.13,11.68l-2.36,15.86Z"/><path d="M1625.24,1294.78s71.97-19.81,144.43,30.4l-.57-16.82s-62.11-45.57-137.5-28.3l-6.37,14.71Z"/><path d="M1579.1,1373.2s81.37,4.52,131.37,82.53l7.08-17.8s-41.71-69.5-125.36-77.89l-13.1,13.17Z"/><path d="M1523.51,1425.03s85.31,63.13,74.74,168.39l14.72-13.17s11.09-101.18-71.52-160.01l-17.94,4.79Z"/><path d="M1323.65,1480.65s-6.35,131.44-100.53,205.52l21.95,2.26s92.38-71.83,93.91-191.39l-15.34-16.39Z"/><path d="M970.9,546.07s-15.79,125.68-66.54,211.68h10.51l32.45-69.93,27.24-87.73,5.5-46.02-9.16-8Z"/><path class="cls-23" d="M1033.71,93.32c-.46-1.51-1.06-2.94-1.76-4.3-57.29,35.68-158.4,117.71-181.05,261.63,32.47,23.55,56.96,51.18,74.76,76.27,3.66,5.15,7.09,10.28,10.33,15.36,29.96-16.44,59.95-39.85,82.5-73.17,45.27-66.92,50.71-158.59,16.2-272.49-.33-1.1-.65-2.19-.99-3.3Z"/><path class="cls-29" d="M1302.4,737.15c-9.09-70.76-34.91-132-76.73-182.02-47.59-56.93-115.56-98.5-202.1-123.65,0,0,231.55,192.18,53.29,579h-.02c17.05,9.9,33.8,20.94,49.8,32.85,23.02,17.13,44.73,36.23,64.59,56.81,15.44-8.14,33.36-28.14,49.92-55.9,19.58-32.83,36.63-75.25,47.99-119.45,16.3-63.4,20.88-128.29,13.25-187.65Z"/><path class="cls-15" d="M1023.57,431.48c21.05,30.58,38.06,63.58,50.67,98.33,27.43,68.8,39.38,137.76,35.51,204.96-5.02,87.2-36.89,169.61-94.76,245.09,21.05,8.74,41.59,18.89,61.18,30.22.22.13.45.27.67.4h.02c178.26-386.82-53.29-579.01-53.29-579.01Z"/><path class="cls-29" d="M1073.44,571.5s31.16,194.43-205.84,371.22h-.05c13.18,1.34,26.31,3.15,39.31,5.46,3.22.57,6.45,1.15,9.65,1.79,1.62.32,3.24.68,4.86,1.01,26.88,5.59,53.51,13.35,79.31,23.18,114.81-147.32,107.02-294.75,72.76-402.66Z"/><path class="cls-15" d="M1073.44,571.5c-4.94,30.94-12.64,61.36-23,90.78-25.14,71.38-66.59,137.88-119.87,192.3-32.66,33.36-69.31,62.03-109.23,85.48,15.42.2,30.85,1.11,46.21,2.67h.05c237-176.8,205.84-371.23,205.84-371.23Z"/><path class="cls-11" d="M592.64,1722.43l-9.78-3.29c-.2-.06-19.87-6.47-45.74-6.47-36.47,0-84.29,12.89-111.47,72.07,0,0,76.25-64.85,125.05-58.33v41.57c13.67-1.06,27.45-1.81,40.96-2.12-.24-14.48-.31-28.95.99-43.43Z"/><path class="cls-18" d="M425.65,1784.75c28.76-5.26,76.21-12.98,125.05-16.76v-41.57c-48.79-6.52-125.05,58.33-125.05,58.33Z"/><path d="M614.25,1801.26s-105.6,3.74-141.43,12.69c0,0,30.01-107.09,114.74-108.86,0,0,64.02,20.86,78.76,95.49l-52.07.68Z"/><path d="M484.08,1804.15c10.4-26.68,41.29-89.45,102.31-91.61,8.15,3.01,55.2,22.73,70.64,80.76l-42.88.56c-4.05.14-86.96,3.15-130.08,10.29Z"/><path class="cls-11" d="M585.18,1720.01c-48.04,2.57-76.04,46.68-89.11,74.91,0,0,59.18-51.81,116.51-58.41-11.64-9.56-22.45-14.53-27.39-16.49Z"/><path class="cls-18" d="M647.05,1786.02c-8.2-23.32-21.83-39.13-34.48-49.52-57.33,6.61-116.51,58.41-116.51,58.41,45.65-5.9,114.65-8.36,117.99-8.47l32.99-.43Z"/><path class="cls-7" d="M1126.4,1704.73s41.63,57.52-33.31,76.88l24.02,63.82,123.39-2.51v-70.26l-29.03-80.7-29.12-27.94-55.95,40.71Z"/><path class="cls-25" d="M1031.96,89.02c-4.42-8.65-13.23-14.2-23.15-14.2-3.07,0-6.12.55-9.05,1.64-37.9,14.1-93.51,41.76-143.21,93.5-37.82,39.36-66.03,86.26-84.4,140.1,9.94,3.33,25.79,10.13,34.85,14.26,23.24-70.34,93.74-202.88,224.97-235.3Z"/><path class="cls-2" d="M850.91,350.65c22.65-143.91,123.76-225.94,181.05-261.63-131.23,32.42-206.05,163.51-224.97,235.3,12.97,5.92,18.69,9.56,29.9,16.75,4.83,3.1,9.5,6.3,14.02,9.58Z"/><path class="cls-7" d="M625.3,1734.94s78.93-.36,86.83-28.66l75.48-27.81,19.49,31.94,18.8,68.7-7.53,12.1-161.33,2.09-15.86-35.84-15.88-22.52Z"/><path class="cls-17" d="M917.46,977.63c-16.09,19.32-43.06,54.97-67.53,102.66,39.09,8.45,120.01,31,199.45,84.27,62.17,41.69,109.63,93.51,141.07,154.01,24.12,46.42,38.73,97.95,43.73,153.98,39.31-346.42-257.88-473.32-316.72-494.93Z"/><path class="cls-14" d="M1234.23,1562.97c22.98-7.33,62.38-29.6,87.4-97.23-.82-16.47-7.53-112.94-54.43-216.67-30.07-66.5-70.56-123.09-120.36-168.22-60.25-54.6-134.57-92.61-220.97-113.02-2.27,2.55-5.12,5.84-8.42,9.8,58.84,21.61,356.03,148.51,316.72,494.93,2.59,28.96,2.61,59.12.06,90.4Z"/><path class="cls-17" d="M324.29,979.85c-23.07,23.45-56.22,66.52-60.02,127.65,20.08.3,57.63,5.09,96.05,29.16,5.34-21.64,29.19-132.49-36.03-156.81Z"/><path class="cls-14" d="M402.23,988.77c-14.44-4.71-39.22-12.9-62.23-23.6-3.98,3.44-9.48,8.35-15.7,14.68,65.22,24.31,41.37,135.17,36.03,156.81,4.94,3.1,9.9,6.49,14.83,10.26-.2-31.37,6.75-87.06,27.08-158.15Z"/><path class="cls-17" d="M989.71,549.8s78.97,283.16-340.84,398.15l93.49-38.9,73.8-40.16,77.57-78.86,43.32-69.05,52.66-171.19Z"/><path class="cls-26" d="M471.22,428.9c-.13,1.48-.15,2.3-.15,2.3,0,0,.08-.83.15-2.3Z"/><path d="M514.32,961.59c-82.96,0-151.47-14.22-177.08-20.34-1.04-.29-1.81-.5-2.39-.65-10.99-2.92-12.88-5.65-15.2-8.8l-3.4-4.62,14-3,.88.25c.8.23,80.77,22.34,183.19,22.34h.03c110.3,0,203.7-24.58,277.6-73.05,100.11-65.66,161.57-174.39,182.68-323.15-1.54-5.89-13.61-49.66-43.97-97.93-29.86-47.48-84.09-109.2-172.81-133.61l-3.55-.97c2.26-8.97,4.25-14.04,4.25-14.04l3.18.88c85.28,23.65,139.36,79.67,169.71,122.5,42.71,60.27,57.16,117.9,57.75,120.32l.51,2.08-.3,2.11c-21.63,153.55-85.33,265.99-189.33,334.2-76.36,50.08-172.49,75.47-285.73,75.48h-.03Z"/><path d="M338.1,937.65c24.81,5.93,93.34,20.24,176.22,20.24h.03c112.5,0,207.95-25.2,283.7-74.87,103.07-67.6,166.22-179.17,187.7-331.62l.2-1.41-.34-1.38c-.59-2.39-14.84-59.32-57.18-119.06-31.93-45.06-85.05-98.16-167.68-121.08-.56,2.14-1.08,3.9-1.91,6.99,174.16,47.91,219.57,234.91,219.57,234.91-75.85,538.42-648.28,377.63-648.28,377.63l-7.5,1.61c2.49,3.38,13.07,7.37,15.47,8.05Z"/><path d="M754.31,318.06s168.07,43.46,220.59,253.45l5.16-28.27-26.79-66.66-33.64-54.35-48.91-52.19-66.04-42.05-40.19-15.89-10.18,5.96Z"/><path d="M279.47,780.15c-7.45-7.44-24.03-13.66-33.32-16.33l-47.81-8.48,38.74-4.44c56.17-17.89,109.06-53.62,144.77-96.01,39.81-47.25,26.8-157.63,26.67-158.7l-3.57-28.35,62.84,33.45,55.41-13.99v19.03c0,86.05-39.73,162.42-114.9,220.86-55.97,43.52-111.39,61.68-113.73,62.43l-4.74.03-10.37-9.49Z"/><path d="M284.8,780.75c-9.49-9.49-30.24-16.94-37.44-19.01l-23.49-6.76,23.29-7.42c57.55-18.33,103.33-48.39,139.97-91.88,42.07-49.94,28.88-159.31,28.74-160.41l-1.78-14.18,52.75,28.08,48.96-12.36v9.51c0,83.68-38.74,158.03-112.04,215.01-54.99,42.75-109.17,60.5-111.45,61.23l-4.31,1.39-3.2-3.2Z"/><path class="cls-4" d="M392.8,660.45c-44.7,53.06-96.71,79.3-143.39,94.17,0,0,27.7,7.97,40.63,20.89,0,0,218.35-70.34,218.35-269.19l-42.51,10.74-42.66-22.71s14.28,113.04-30.42,166.11Z"/><path class="cls-4" d="M508.25,514.79s.45-35.77,0-48.02l-90.42-13.53s6.3,40.68,6.92,59.59l40.99,23.63,42.51-21.68Z"/><path class="cls-18" d="M209.39,906.79c7.42,1.81,14.98,2.73,22.46,2.73,36.52,0,67.3-21.62,74.84-52.57,3.81-15.65,1.31-31.57-6-45.67,5.28,37.66-32.91,86.42-79.51,84.09-46.54-2.33-73.74-42.75-73.82-42.86,2.15,6.67,5.38,13.18,9.66,19.34,11.97,17.23,30.57,29.64,52.37,34.95Z"/><path class="cls-29" d="M1472.99,876.33c-12.46-128.68-85.11-230.86-216.11-304.14,0,0,0,0,0,0,215.49,254.36,62.41,516.35-3.26,606.41,10.52,16.19,20.16,32.95,28.85,50.24,7.71,15.34,14.74,31.27,20.91,47.33,3.07,8,5.99,16.25,8.72,24.61,5.04-2.79,13.42-9.26,25.23-22.27,60.99-67.23,151.76-235.87,135.65-402.19Z"/><path class="cls-15" d="M1256.88,572.19c40.06,59.81,92.24,178.87,46.62,356.3-22.04,85.72-63.63,159.52-101.85,182.77,19.16,21.05,36.52,43.57,51.97,67.34,65.66-90.06,218.74-352.05,3.26-606.41Z"/><path class="cls-29" d="M1489.6,907.54c26.63,270.95-102.05,420.67-158.33,472.33.37,2.27.73,4.54,1.07,6.81,2.49,16.94,4.17,34.23,5,51.4.42,8.65.63,17.23.63,25.5v2.08c-.06,13.57,4.7,25.55,13.76,34.64,9.32,9.36,22.37,14.73,35.8,14.73h0c2.36,0,4.74-.17,7.05-.51,9.66-1.41,23.29-6.37,33.32-22,3.07-4.78,6.32-10.02,9.95-16.03,61.91-102.38,96.83-219.88,100.99-339.63.98-85.62-15.56-162.6-49.23-229.33Z"/><path class="cls-15" d="M1489.6,907.54c2.96,160.07-82.58,316.22-141.29,380.93-12.49,13.76-23.12,22.66-31.76,26.6,6.29,21.27,11.21,43,14.72,64.8,56.28-51.67,184.96-201.39,158.33-472.33Z"/><path class="cls-23" d="M300.69,811.28c-8.67-16.71-24.11-30.85-43.82-38.93-60.14-12.33-109.23,40.23-109.5,40.52-.54,1.61-1.02,3.23-1.43,4.89-2.8,11.48-2.26,23.36,1.41,34.74.08.12,27.29,40.54,73.82,42.86,46.6,2.33,84.79-46.43,79.51-84.09Z"/><path class="cls-11" d="M256.87,772.34c-4.34-1.78-8.89-3.28-13.62-4.43-7.42-1.81-14.98-2.73-22.46-2.73-34.56,0-63.96,19.37-73.42,47.68.27-.29,49.36-52.85,109.5-40.52Z"/><circle cx="186.44" cy="826.97" r="21"/><circle cx="256.9" cy="839.03" r="21"/><path class="cls-28" d="M340.99,441.6s16.65-12.29,44.47-6.43c0,0,40.06-93.29,127.36-126.7,0,0-80.35,14.33-171.83,133.13Z"/><path class="cls-18" d="M885.8,375.03s60.6-149.32,109.41-172.1c0,0,3.21,156.51-75.73,208.55l-33.68-36.45Z"/><path d="M848.13,346.22s11.75-160.28,183.43-262.84l4.95,16.59s-137.23,75.41-175.68,256.3l-12.69-10.05Z"/><path d="M273.44,112.64s109.71,68.54,113.84,231.79l-11.63,9.82s-7.97-153.69-114.42-234.09l12.21-7.53Z"/><path class="cls-18" d="M298.35,201.29s-21.77,120.95,41.29,183.35l26.35-26.43s-23.95-113.95-67.64-156.92Z"/><path class="cls-28" d="M925.85,1539.32l38.39,32.18s-9.78,59.26,54.49,113.36c0,0-105.85-42.57-92.88-145.54Z"/><path class="cls-30" d="M1191.23,1100.15c15.44-8.14,33.36-28.14,49.92-55.9,19.58-32.83,36.63-75.25,47.99-119.45,16.3-63.4,20.88-128.29,13.25-187.65-4.06-31.6-11.48-61.29-22.15-88.94,11.42,80.17,28.15,300.77-104.75,436.31,5.36,5.11,10.62,10.32,15.74,15.63Z"/><path class="cls-30" d="M1095.56,721.85c-18.68,120.98-80.25,202.57-119.47,243.69,8.26,2.68,16.45,5.54,24.56,8.63,67.62-86.77,92.7-173.57,94.9-252.31Z"/><path class="cls-30" d="M1312.1,1300.79c5.04-2.79,13.42-9.26,25.23-22.27,60.99-67.23,151.76-235.87,135.65-402.19-.05-.53-.12-1.05-.18-1.57-7.2,71.09-38.64,268.28-170.95,397.59.5,1.28,1.03,2.55,1.52,3.83,3.07,8,5.99,16.25,8.72,24.61Z"/><path class="cls-30" d="M1387.51,1515.03c2.36,0,4.74-.17,7.05-.51,9.66-1.41,23.29-6.37,33.32-22,3.07-4.78,6.32-10.02,9.95-16.03,51.72-85.53,84.59-181.62,96.44-280.76-21.5,80.8-79.98,263.82-178.07,308.53,8.8,6.89,19.91,10.76,31.3,10.76h0Z"/><path d="M676.66,1206.87c2.64-8.84,3.54-18.27,2.47-27.79-1.07-9.46-4-18.42-8.56-26.47l34.38-30.72-.04-.04,33.39-30.12-8.91-9.67-9.01-8.78c-15.01-14.62-33.14-26.36-52.43-33.96-11.82-4.63-24.06-7.85-36.44-9.57-12.85-1.7-25.9-1.83-38.79-.38-86.48,9.74-148.88,88.29-139.1,175.11,3.76,33.42,17.69,64.19,40.26,88.97l8.98,9.95,11.21,8.72c32.66,25.4,73.23,36.85,114.24,32.23,13.06-1.47,25.79-4.54,37.8-9.13,12.02-4.56,23.25-10.43,33.36-17.44,20.49-14.09,37.54-32.95,49.28-54.45l7.14-12.72-79.23-43.74Z"/><path d="M622.53,1294.06c-58.79,6.62-112.13-36.04-118.89-95.09-2.14-19.02.86-38.41,8.69-56.07l2.55-5.76,5.66,2.75c1.2.58,2.45.81,3.73.66,3.63-.41,6.25-3.72,5.84-7.39-.21-1.85-1.17-3.49-2.7-4.61l-5.07-3.71,3.88-4.94c17.82-22.71,43.45-37,72.17-40.23,17.21-1.94,34.93.42,51.25,6.81,15.73,6.23,29.93,16.16,41.07,28.71l5.64,6.24-29.19,26.09-5.63-6.22c-14.9-16.71-36.86-25.19-58.75-22.72-37.45,4.22-64.47,38.31-60.23,75.99,4.24,37.62,38.16,64.8,75.61,60.58,21.99-2.48,41.51-15.62,52.19-35.16l4.14-7.38,21.63,11.99-3.14,5.37c-.51.88-1.08,2.31-.88,4.14.27,2.36,1.79,4.43,3.98,5.4l6.74,2.99-4.23,6.04c-7.7,11.01-16.99,20.26-27.62,27.48-14.26,9.83-31.02,16.07-48.44,18.03Z"/><path class="cls-19" d="M621.85,1288.02c16.31-1.84,32.16-7.69,45.71-17.02,10.19-6.93,18.99-15.83,26.06-25.94-4.04-1.79-7.03-5.63-7.55-10.28-.32-2.85,1.97-4.69,3.31-6.98l-12.55-6.96-1.15,2.06c-11.66,21.32-32.96,35.6-56.84,38.29-40.82,4.6-77.72-25.05-82.33-65.94-4.62-40.99,24.87-78.12,65.58-82.71,23.88-2.69,47.72,6.5,63.94,24.68l1.58,1.75,20.13-18-1.58-1.75c-10.62-11.96-24.02-21.26-38.74-27.09-15.27-5.98-31.94-8.28-48.35-6.43-27.88,3.14-51.95,17.41-68.07,37.95,2.79,2.04,4.73,5.14,5.15,8.83.79,6.97-4.25,13.32-11.2,14.1-2.52.28-4.92-.19-7.06-1.24-7.14,16.1-10.32,34.22-8.21,52.92,6.39,55.77,56.63,96.01,112.18,89.75Z"/><path d="M627.62,1338.31c-39.42,4.44-78.43-6.56-109.83-30.98l-4.62-3.59,3.42-4.75c1.08-1.5,1.57-3.25,1.38-4.93-.41-3.66-3.7-6.31-7.34-5.9-1.43.16-2.69.72-3.75,1.66l-4.49,3.98-4.03-4.43c-21.71-23.83-35.09-53.42-38.71-85.57-9.4-83.49,50.59-159.03,133.75-168.39,12.39-1.4,24.95-1.27,37.31.36,11.88,1.65,23.65,4.75,35.02,9.21,18.55,7.31,35.97,18.6,50.41,32.66l4.51,4.39-4.54,4.35c-1.53,1.46-2.31,3.57-2.07,5.64.17,1.52.71,2.75,1.66,3.75l4.26,4.54-19.69,17.59-5.63-6.22c-24.42-27.49-60.61-41.45-96.84-37.37-61.76,6.96-106.32,63.08-99.34,125.12,6.99,62.03,62.92,106.84,124.68,99.89,36.16-4.07,68.34-25.73,86.08-57.93l4.13-7.36,34.27,18.94-4.14,7.38c-11.31,20.72-27.72,38.87-47.43,52.42-9.72,6.74-20.52,12.38-32.08,16.77-11.55,4.41-23.78,7.36-36.33,8.77Z"/><path class="cls-21" d="M700.7,1109.35l10.55-9.43c-1.82-1.94-2.94-4.38-3.26-7.23-.46-4.12,1.12-8.04,3.91-10.71-13.88-13.52-30.44-24.28-48.39-31.35-10.81-4.24-22.12-7.24-33.6-8.84-11.79-1.56-23.84-1.7-35.84-.35-79.85,9-137.42,81.49-128.39,161.68,3.58,31.8,17.11,60.13,37.17,82.15,1.94-1.72,4.37-2.85,7.1-3.15,6.94-.78,13.27,4.28,14.05,11.26.38,3.38-.64,6.6-2.48,9.16,28.96,22.52,66.28,34.15,105.42,29.74,11.99-1.35,23.72-4.17,34.85-8.42,10.83-4.11,21.2-9.45,30.79-16.09,18.79-12.92,34.62-30.33,45.57-50.39l1.15-2.06-23.63-13.07-1.15,2.06c-18.66,33.88-52.53,56.74-90.72,61.04-65.12,7.34-124.03-39.84-131.4-105.24-7.37-65.4,39.57-124.5,104.69-131.83,38.19-4.3,76.28,10.34,102.02,39.33l1.58,1.75Z"/><path class="cls-22" d="M609.04,1174.24c-6.94.78-11.98,7.13-11.2,14.1.79,6.97,7.11,12.04,14.05,11.26,6.94-.78,11.98-7.13,11.2-14.1-.8-7.08-7.11-12.04-14.05-11.26Z"/><path d="M586.63,1245.56c-21.47-8.81-36.42-28.61-39.02-51.67-1.89-16.8,2.85-33.34,13.37-46.58,10.52-13.25,25.53-21.58,42.28-23.47,16.75-1.89,33.24,2.9,46.44,13.47,13.2,10.57,21.5,25.64,23.4,42.44,2.61,23.18-7.58,45.82-26.59,59.08l-7.29,4.76-22.18-32.03,6.87-4.87c7.28-5.11,11.17-13.74,10.18-22.54-1.49-13.22-13.4-22.76-26.54-21.28-13.15,1.48-22.63,13.44-21.14,26.65.99,8.81,6.71,16.36,14.91,19.7l7.81,3.24-14.59,36.38-7.91-3.28Z"/><path class="cls-20" d="M643.03,1233.86c17.19-11.99,26.38-32.5,24.03-53.42-1.71-15.21-9.21-28.81-21.16-38.38s-26.81-13.88-41.96-12.18c-15.15,1.71-28.69,9.22-38.2,21.21-9.52,11.98-13.8,26.91-12.09,42.12,2.36,20.92,15.87,38.76,35.31,46.73l2.24.93,10.06-25.1-2.23-.92c-10.27-4.19-17.41-13.66-18.65-24.65-1.87-16.59,9.98-31.51,26.5-33.37,16.52-1.86,31.39,10.05,33.26,26.64,1.24,10.99-3.62,21.81-12.7,28.18l-1.97,1.4,15.4,22.23,2.18-1.42Z"/><path class="cls-13" d="M522.54,1125.25c-4.73.53-8.19,4.88-7.65,9.63.54,4.75,4.87,8.22,9.6,7.69,4.73-.53,8.19-4.88,7.65-9.63-.55-4.86-4.87-8.22-9.6-7.69Z"/><path d="M518.65,1155.49c-.9.03-1.79,0-2.66-.05-6.75-.46-13.02-3.46-17.66-8.44-4.39-4.73-6.92-10.87-7.12-17.29-.12-3.75.55-7.43,1.98-10.92,3.98-9.72,13.33-16.21,23.81-16.54,14.68-.46,26.99,11.11,27.45,25.79.18,5.86-1.53,11.49-4.95,16.28-4.88,6.84-12.47,10.91-20.84,11.17Z"/><path class="cls-23" d="M517.33,1113.24c-6.36.2-11.71,4.18-13.98,9.72-.81,1.97-1.23,4.14-1.16,6.4.12,3.93,1.7,7.47,4.19,10.15,2.63,2.83,6.29,4.69,10.37,4.96.52.03,1.04.05,1.57.03,5.07-.16,9.49-2.73,12.23-6.56,1.92-2.69,3.02-6,2.91-9.55-.27-8.63-7.49-15.41-16.12-15.14Z"/><path d="M701.48,1277.32c-.9.03-1.79,0-2.66-.05-6.75-.46-13.02-3.46-17.66-8.44-4.39-4.73-6.92-10.87-7.12-17.29-.12-3.75.55-7.43,1.98-10.92,3.98-9.72,13.33-16.21,23.81-16.54,14.68-.46,26.99,11.11,27.45,25.79.18,5.86-1.53,11.49-4.95,16.28-4.88,6.84-12.47,10.91-20.84,11.17Z"/><path class="cls-23" d="M700.16,1235.07c-6.36.2-11.71,4.18-13.98,9.72-.81,1.97-1.23,4.14-1.16,6.4.12,3.93,1.7,7.47,4.19,10.15,2.63,2.83,6.29,4.69,10.37,4.96.52.03,1.04.05,1.57.03,5.07-.16,9.49-2.73,12.23-6.56,1.92-2.69,3.02-6,2.91-9.55-.27-8.63-7.49-15.41-16.12-15.14Z"/><path d="M521.69,1309.92c-.9.03-1.79,0-2.66-.05-6.75-.46-13.02-3.46-17.66-8.44-4.39-4.73-6.92-10.87-7.12-17.29-.12-3.75.55-7.43,1.98-10.92,3.98-9.72,13.33-16.21,23.81-16.54,14.68-.46,26.99,11.11,27.45,25.79.18,5.86-1.53,11.49-4.95,16.28-4.88,6.84-12.47,10.91-20.84,11.17Z"/><path class="cls-23" d="M520.37,1267.67c-6.36.2-11.71,4.18-13.98,9.72-.81,1.97-1.23,4.14-1.16,6.4.12,3.93,1.7,7.47,4.19,10.15,2.63,2.83,6.29,4.69,10.37,4.96.52.03,1.04.05,1.57.03,5.07-.16,9.49-2.73,12.23-6.56,1.92-2.69,3.02-6,2.91-9.55-.27-8.63-7.49-15.41-16.12-15.14Z"/><path d="M699.69,1117.68c-.9.03-1.79,0-2.66-.05-6.75-.46-13.02-3.46-17.66-8.44-4.39-4.73-6.92-10.87-7.12-17.29-.12-3.75.55-7.43,1.98-10.92,3.98-9.72,13.33-16.21,23.81-16.54,14.68-.46,26.99,11.11,27.45,25.79.18,5.86-1.53,11.49-4.95,16.28-4.88,6.84-12.47,10.91-20.84,11.17Z"/><path class="cls-23" d="M698.36,1075.44c-6.36.2-11.71,4.18-13.98,9.72-.81,1.97-1.23,4.14-1.16,6.4.12,3.93,1.7,7.47,4.19,10.15,2.63,2.83,6.29,4.69,10.37,4.96.52.03,1.04.05,1.57.03,5.07-.16,9.49-2.73,12.23-6.56,1.92-2.69,3.02-6,2.91-9.55-.27-8.63-7.49-15.41-16.12-15.14Z"/></g></g></svg>