<?xml version="1.0" encoding="UTF-8"?>
<svg xmlns="http://www.w3.org/2000/svg" version="1.1" xmlns:xlink="http://www.w3.org/1999/xlink" viewBox="0 0 1920 1920">
  <!-- Generator: Adobe Illustrator 29.7.1, SVG Export Plug-In . SVG Version: 2.1.1 Build 8)  -->
  <defs>
    <style>
      .st0 {
        opacity: .3;
      }

      .st0, .st1 {
        fill: #9a9aaf;
      }

      .st0, .st2 {
        mix-blend-mode: multiply;
      }

      .st3 {
        fill: #c3bace;
      }

      .st4 {
        fill: #c4795f;
      }

      .st5, .st6, .st7, .st8, .st9 {
        fill: #eb1d47;
      }

      .st10 {
        fill: #822616;
      }

      .st11 {
        opacity: .7;
      }

      .st11, .st12 {
        fill: #c69c6d;
      }

      .st13 {
        fill: #ed1c24;
      }

      .st13, .st2 {
        opacity: .5;
      }

      .st14 {
        fill: #fff;
      }

      .st15 {
        fill: #e4635d;
      }

      .st16 {
        fill: none;
      }

      .st6 {
        filter: url(#outer-glow-3);
      }

      .st17 {
        fill: #c40533;
      }

      .st7 {
        filter: url(#outer-glow-1);
      }

      .st18 {
        isolation: isolate;
      }

      .st19 {
        opacity: .6;
      }

      .st19, .st20 {
        fill: #f15a24;
      }

      .st21 {
        fill: #babacc;
      }

      .st22 {
        fill: #ffb883;
      }

      .st8 {
        filter: url(#outer-glow-4);
      }

      .st23 {
        fill: #f73962;
      }

      .st24 {
        fill: #ea997d;
      }

      .st25 {
        fill: #747691;
      }

      .st26 {
        fill: #ce7736;
      }

      .st27 {
        fill: #af6345;
      }

      .st28 {
        fill: #ff7171;
      }

      .st29 {
        fill: url(#linear-gradient);
      }

      .st30 {
        fill: #ffb192;
      }

      .st31 {
        fill: #c5d8ff;
      }

      .st9 {
        filter: url(#outer-glow-2);
      }
    </style>
    <filter id="outer-glow-1" x="1209.6" y="1074.2" width="206.4" height="225.4" filterUnits="userSpaceOnUse">
      <feOffset dx="0" dy="0"/>
      <feGaussianBlur result="blur" stdDeviation="3.6"/>
      <feFlood flood-color="#ea1c48" flood-opacity=".5"/>
      <feComposite in2="blur" operator="in"/>
      <feComposite in="SourceGraphic"/>
    </filter>
    <filter id="outer-glow-2" x="1165.4" y="1029.6" width="296.4" height="314.6" filterUnits="userSpaceOnUse">
      <feOffset dx="0" dy="0"/>
      <feGaussianBlur result="blur1" stdDeviation="3.6"/>
      <feFlood flood-color="#ea1c48" flood-opacity=".5"/>
      <feComposite in2="blur1" operator="in"/>
      <feComposite in="SourceGraphic"/>
    </filter>
    <filter id="outer-glow-3" x="1298.4" y="1163.3" width="47.3" height="47.3" filterUnits="userSpaceOnUse">
      <feOffset dx="0" dy="0"/>
      <feGaussianBlur result="blur2" stdDeviation="3.6"/>
      <feFlood flood-color="#ea1c48" flood-opacity=".5"/>
      <feComposite in2="blur2" operator="in"/>
      <feComposite in="SourceGraphic"/>
    </filter>
    <filter id="outer-glow-4" x="1253.8" y="1118.6" width="136.1" height="133.2" filterUnits="userSpaceOnUse">
      <feOffset dx="0" dy="0"/>
      <feGaussianBlur result="blur3" stdDeviation="3.6"/>
      <feFlood flood-color="#ea1c48" flood-opacity=".5"/>
      <feComposite in2="blur3" operator="in"/>
      <feComposite in="SourceGraphic"/>
    </filter>
    <linearGradient id="linear-gradient" x1="794.7" y1="958" x2="1291.1" y2="690" gradientTransform="translate(561.4 2178.4) rotate(-6.4) scale(1 -1)" gradientUnits="userSpaceOnUse">
      <stop offset="0" stop-color="#ed1846"/>
      <stop offset="0" stop-color="#e4274c"/>
      <stop offset=".2" stop-color="#cf3e59"/>
      <stop offset=".4" stop-color="#ab556f"/>
      <stop offset=".7" stop-color="#75678f"/>
      <stop offset="1" stop-color="#0075b8"/>
      <stop offset="1" stop-color="#0076bb"/>
    </linearGradient>
  </defs>
  <g class="st18">
    <g id="Layer_1">
      <g>
        <g>
          <path d="M1523.4,1444.7s3.2,44.3,66.7,88c0,0,28-29.8-4-117.3l-62.8,29.3Z"/>
          <path d="M1588,1522.1c-42.6-31.3-53.6-61.6-56.3-73.1l50.2-23.4c19.1,56.5,11.2,85.6,6.1,96.5Z"/>
          <path class="st23" d="M1541.1,1453.3c-.6-1.5-1.1-2.9-1.5-4.1l37.8-13.3c11.6,37.8,10.1,61.3,7,74.1-19.6-32.1-21.2-66.1-21.2-66.1l-22,9.4Z"/>
          <path class="st17" d="M1541.1,1453.3l22-9.4s1.6,34,21.2,66.1c-25.8-20.9-38-43.5-43.2-56.7Z"/>
          <path d="M1706.5,1467.5s32.5-66-18.7-149.2l-52.8,45.8s13.2,68.8,71.5,103.5Z"/>
          <path d="M1705.8,1445.9c-.9,4.1-2,7.6-2.9,10.5-41-28.6-55.9-75.6-59.6-89.7l42.7-37c28.6,51,24.8,94.3,19.8,116.2h0Z"/>
          <path d="M1556.5,1403.2s22.3,81.9,103.5,119.2c0,0,37.9-52.1-12.2-162.7l-91.3,43.4Z"/>
          <path d="M1661,1502.5c-1.4,4.3-2.8,7.7-4,10.3-60.3-30.6-84.8-87.4-91.4-105.7l78.6-37.4c29.4,68.5,23.3,112.4,16.8,132.8h0Z"/>
          <path class="st23" d="M1578.5,1418.8c-1.4-2.9-2.5-5.6-3.5-8l64.5-34.4c25.1,62.4,20.2,105.4,14.4,123.9-.2.5-.3,1.1-.5,1.6-14.9-16.2-35.6-47-54.2-103.9l-20.8,20.9Z"/>
          <path class="st17" d="M1578.5,1418.8l20.8-20.9c18.6,56.9,39.3,87.7,54.2,103.9,0,.2-.1.3-.2.5-41.9-23.9-64.4-61.1-74.8-83.5Z"/>
          <path class="st23" d="M1653.6,1375c-.7-2.1-1.3-4.1-1.9-5.8l32.1-27.8c22.6,45.2,19.3,83,14.9,102.4-25.5-43.3-30.8-77.7-30.8-77.7l-14.3,8.9Z"/>
          <path class="st17" d="M1653.6,1375l14.3-8.9s5.2,34.4,30.8,77.7c-26.2-21.9-39.3-51.6-45.1-68.8Z"/>
          <g>
            <path d="M1438.1,1381.2c22.3,34.8,49.7,68.9,81.6,92.8,0,0,105.1-53.6,192.9-142,0,0-6.5-48-49.5-124.9-149.6-25.5-219.8,107.7-225,174Z"/>
            <path d="M1564.2,1069s-149.1,60-194.3,173.6c0,0,24.3,70.4,68.1,138.6,34.8-45.3,107.7-123.5,225-174-22-39.4-53.6-86.3-98.9-138.2Z"/>
            <path d="M1652.6,1203.7c-108.6,48.6-178.5,120.7-213.8,164.7-34.8-56.5-56.3-113-60.9-125.6,40-96.4,158.8-153.5,184.3-164.8,36,41.7,66.4,84,90.4,125.7Z"/>
            <path d="M1704.6,1329.5c-75.7,75.3-164.3,125-184.2,135.7-25.1-19.7-49.7-47.8-73.2-83.7,33.4-42.5,102.9-116.1,212.7-164.9,32.7,60,42.4,101,44.7,112.9Z"/>
          </g>
          <path d="M1472.9,1418.3s122.8-60.7,205.6-152.8l13.6,10.4s-95.7,100.5-211.1,156.6l-8.2-14.2Z"/>
          <g>
            <path class="st21" d="M1547.1,1303.3c32.1-24.7,67-52,106.7-83.9,26.9,50.5,39.5,93.4,42.7,107.7-47.4,46.5-99.8,83.2-136.3,106.1-24.4-46.3-24.1-91-13.1-129.9Z"/>
            <path class="st21" d="M1627.5,1176.8c6.7,10.2,13,20.3,18.7,29.8-31.5,24-61.7,49-90.7,72.5,21.9-53,60.4-91.5,71.9-102.4Z"/>
            <path class="st1" d="M1451.5,1376.2c30.1-22.9,61.2-46.4,95.6-72.9-11,38.9-11.3,83.6,13.1,129.9-17.4,11-31.2,18.8-39,23.2-22.1-18.2-48.7-48.9-69.7-80.2Z"/>
            <path class="st1" d="M1385.9,1243c37.8-87.1,142.8-141.3,174.3-156,23.9,28,47.6,59.8,67.3,89.7-11.6,10.8-50.1,49.4-71.9,102.4-39.6,32.2-76.8,61.8-111.4,82.6-29.4-49.6-52.8-104-58.3-118.7Z"/>
          </g>
        </g>
        <path d="M763.8,1645.6c58.5-3.3,75.9-43.8,100.4-48.5l-111.9-195c-29.9,19.9-105.5,64-191.4,68.9-48.2,2.7-92.7-7.3-132.3-29.7-46.9-26.7-86.9-71.1-118.9-132-36.3-69.1-54.8-143.8-55.1-222.2-.2-62.4,11.2-127.1,33.8-192.3,12.6-36.2,27.1-68.4,40.8-94.8-71.6,68.5-124.2,139.6-156.8,211.9-37.6,83.4-53,192.8-36.7,275.2,33.1,166.4,159.1,348.8,326.3,389.3,95.2,23.1,184.6,32.2,298.7,11.9l3.1-42.8Z"/>
        <path d="M638.7,1692.2c37.4,0,75.1-3.3,115.1-10.1l3.1-43.5,6.5-.4c34.5-2,53.8-17.9,69.4-30.6,7.1-5.9,13.6-11.2,20.6-14.5l-103.5-180.5c-33.2,21.1-106.2,61.1-188.5,65.8-5.3.3-10.7.5-15.9.5-43.6,0-84.1-10.5-120.5-31.1-48.2-27.4-89.1-72.8-121.8-135-36.9-70.1-55.7-146-55.9-225.6-.2-63.2,11.3-128.7,34.2-194.7,6.5-18.8,14-37.7,22.3-56.4-55.5,58.3-97.3,118.3-124.6,179-37.3,82.9-51.9,191.7-36.2,270.7,16.8,84.3,56.3,169.1,111.4,238.7,60.3,76.2,132.6,126.3,209.4,144.9,65.4,15.9,119.4,22.9,174.9,22.9Z"/>
        <path d="M1143.8,1657.4l174.2-6.7,14.4,54.5s140.3-47.2,185.1,99.3c0,0-113.6-24.5-206-23.8l-5.8,20.7-218.9-2.8c-3.8-92.6,57-141,57-141Z"/>
        <path d="M1506.4,1794.6c-27.3-73.4-81.6-89.3-123.5-89.3-27.4,0-47.9,6.8-48.1,6.9l-7.5,2.5-14.9-56.4-165.7,6.4c-9.3,8.4-52.9,51.9-52.6,126.4l206,2.7,5.7-20.6h5.6c1.3,0,2.6,0,3.9,0,73.3,0,159.2,15.3,191.1,21.4Z"/>
        <g>
          <path class="st5" d="M169.7,1354.7c-8.1-23.3-14.6-46.9-19.3-70.5-15.4-77.6-1.1-184.5,35.6-266.2,22.1-49,53.9-97.9,94.9-145.6-.4,1-.7,2-1.1,3-266.5,459.3,113.2,666,276,626.9-87.3,50.5-232.8,76.1-386.2-147.6Z"/>
          <path class="st15" d="M747.2,1422.9l52.8,92-116.4-59.2c25.7-10.9,47.5-22.9,63.7-32.8Z"/>
          <path class="st28" d="M555.9,1502.3c52.1-30.1,83.5-69,83.5-69l44.2,22.5c-24.8,10.5-53.3,20-83.8,25.5-11.4,9.9-26.4,16.9-43.9,21.1Z"/>
          <path class="st17" d="M828.1,1601.8c-15.5,12.7-33.1,27.1-65.1,29l-13,.7-3.2,44.2c-37.4,6.1-72.8,9.1-108.1,9.1-54.9,0-108.3-7-173.1-22.7-75.1-18.2-146.1-67.4-205.3-142.2-39-49.3-70.1-106.2-90.6-165.1,153.4,223.7,298.8,198,386.2,147.6,17.5-4.2,32.5-11.2,43.9-21.1,30.6-5.5,59-15,83.8-25.5l116.4,59.2,43.3,75.4c-5.1,3.3-10,7.4-15.2,11.6Z"/>
        </g>
        <g>
          <path class="st15" d="M279.8,875.3c-1.8,4.9-3.6,9.7-5.3,14.6-23.2,66.8-34.8,133.1-34.6,197.2.2,80.7,19.3,157.8,56.8,229,33.3,63.5,75.3,109.9,124.7,138,37.5,21.3,79.2,32.1,124.1,32.1,5.4,0,10.9-.2,16.3-.5,12.9-.7,25.6-2.3,37.9-4.5-117.7,101.7-615-97.2-319.9-605.8Z"/>
          <path class="st23" d="M279.8,875.3c-1.8,4.9-3.6,9.7-5.3,14.6-23.2,66.8-34.8,133.1-34.6,197.2.2,80.7,19.3,157.8,56.8,229,33.3,63.5,75.3,109.9,124.7,138,37.5,21.3,79.2,32.1,124.1,32.1,5.4,0,10.9-.2,16.3-.5,12.9-.7,25.6-2.3,37.9-4.5-117.7,101.7-615-97.2-319.9-605.8Z"/>
        </g>
        <path class="st21" d="M1149.8,1672l157-6.1,15.4,58.3,5.2-1.7c1.3,14.5,1.2,29,1,43.4-4.4,0-8.7-.2-13-.2s-2.6,0-3.9,0h-11.2c0,0-5.7,20.6-5.7,20.6l-192.9-2.5c2.3-62.8,37-101.1,48.1-111.8Z"/>
        <circle cx="1227.1" cy="1544" r="169.6"/>
        <path d="M1227.1,1706.3c89.5,0,162.2-72.8,162.2-162.2,0-89.5-72.8-162.2-162.2-162.2s-162.2,72.8-162.2,162.2,72.8,162.2,162.2,162.2Z"/>
        <path class="st1" d="M1227.1,1698.9c85.4,0,154.8-69.5,154.8-154.8s-69.4-154.8-154.8-154.8c-85.4,0-154.8,69.5-154.8,154.8s69.4,154.8,154.8,154.8Z"/>
        <g>
          <g>
            <path d="M1021.6,1678.8c46.4,0,92.5-6.1,137.1-18.2l-.7-14.4c-186.4-32.6-357.9-108.2-509.6-224.7l-59.2-45.5-1.8,12.5c-2.4,16.5-4,33.1-4.7,49.5v2.4c-.1,0,1.2,2,1.2,2,27.2,41.4,60.2,78.8,98,111,61.2,52.3,134.7,90.2,212.4,109.7,41.4,10.4,84.3,15.6,127.3,15.6Z"/>
            <path d="M594.7,1389.6l49.1,37.7c152.4,117.1,326.9,193.7,512.9,226.2-43.1,11.7-88.4,17.9-135.1,17.9-43.3,0-85.3-5.3-125.5-15.4-78.5-19.6-149.8-57.2-209.4-108.1-37.1-31.7-69.7-68.6-96.6-109.5.8-16.5,2.4-32.8,4.7-48.8Z"/>
            <path class="st25" d="M1021.6,1664c33.5,0,66.8-3.3,99.4-9.7-175.5-36-337.4-110.3-481.7-221l-39-29.9c-1.3,11-2.3,22.1-2.8,33.1,26.2,39.4,57.8,75.1,93.9,105.9,59.5,50.8,130.9,87.7,206.4,106.6,40.3,10.1,81.9,15.2,123.7,15.2Z"/>
            <path d="M1158.8,1660.6c48.3-13.1,94.4-33,137.1-59.4l19.9-12.2-23.3-1.5c-218.1-13.7-425.2-91.5-598.9-224.9l-84.7-65.1-3.2,10.1c-8,25.8-14.1,52.3-18,78.9l-.2,1.9-.6,4.3,52.6,40.4c153.7,118,327.3,194.6,516.1,227.6l1.6.3,1.8-.5Z"/>
            <path d="M612.7,1310l76.3,58.6c175.8,135,383,212.6,603,226.4-41.5,25.6-86.9,45.4-135,58.5,0,0-.1,0-.2,0-185.9-32.5-360.4-109.1-512.9-226.2l-49.1-37.7c0-.6.2-1.2.2-1.8,3.9-26.6,9.9-52.6,17.7-77.8Z"/>
            <path d="M1295.9,1601.3c33.7-20.7,65-45.3,93.2-73.1l13.2-13.1-18.6.4c-7.3.1-13.9.2-20.2.2-228.4,0-444.4-73.2-624.9-211.8l-100.2-77-4,8.2c-11.4,23.4-21.1,47.9-28.8,72.7l-1.5,4.9,80.4,61.7c176.1,135.2,386,214,607,227.9h2.3c0,.1,2-1.1,2-1.1Z"/>
            <path d="M612.7,1310c7.7-24.7,17.2-48.6,28.4-71.6l93,71.5c181.7,139.6,399.4,213.3,629.4,213.3,6.8,0,13.6,0,20.3-.2-27.7,27.3-58.5,51.5-91.9,72-220-13.8-427.1-91.4-603-226.4l-76.3-58.6Z"/>
            <path d="M1363.5,1530.6c6.3,0,13,0,20.5-.2h3c0,0,2.1-2.1,2.1-2.1,24.3-23.9,46.4-50.4,65.6-78.7l8.8-12.9-15.6,1.4c-27.9,2.5-56.3,3.7-84.4,3.7-211.9,0-412.4-67.9-579.7-196.5l-107-82.2-4.4,6.5c-12.9,19-24.6,38.9-34.9,59.3-.9,1.9-1.8,3.7-2.8,5.6l-3,6.1,97.8,75.1c183,140.6,402.2,214.9,633.9,214.9Z"/>
            <path d="M678.5,1173.7l100.7,77.4c168.7,129.5,370.7,198,584.2,198,28.4,0,56.8-1.3,85-3.7-19,28-40.7,54-64.7,77.6h0c-6.8.1-13.5.2-20.3.2-230,0-447.7-73.8-629.4-213.3l-93-71.5c1-2.1,2-4.1,3-6.2,10.2-20.3,21.7-39.8,34.4-58.5Z"/>
            <path d="M1363.5,1456.5c28.5,0,57.3-1.3,85.7-3.8l3.5-.3,2-2.9c17.5-25.6,32.7-52.8,45.2-80.9l5.2-12.4-13,1.9c-42.5,6.2-85.7,9.4-128.5,9.4-195.4,0-380.3-62.6-534.6-181.1l-105.3-80.9-4.6,5c-16.8,18.4-32.5,38.3-46.6,59l-3.9,5.8,106.3,81.6c170,130.5,373.6,199.5,588.8,199.5Z"/>
            <path d="M779.3,1251.1l-100.7-77.4c13.9-20.5,29.3-39.9,45.9-58.1l99.9,76.8c155.6,119.5,342,182.7,539.1,182.7,43.5,0,86.8-3.2,129.6-9.5,0,0,0,0,0,.1-12.5,28-27.5,54.6-44.5,79.7-28.2,2.5-56.6,3.7-85,3.7-213.6,0-415.6-68.5-584.2-198Z"/>
            <path d="M1363.5,1382.4c43.5,0,87.5-3.2,130.7-9.5l4-.6,1.7-3.7c11.6-26,21.2-53.3,28.4-81.1l3-11.4-11.6,2.3c-51.2,10.1-103.8,15.2-156.2,15.2-179,0-348.2-57.3-489.5-165.8l-95.2-73.1-4.5,3.7c-17.3,14.2-33.9,29.6-49.2,45.8-2,2.2-4.1,4.4-6.1,6.6l-5.4,6,106.3,81.7c156.9,120.5,344.9,184.2,543.6,184.2Z"/>
            <path d="M779,1064l90.6,69.6c142.5,109.5,313.4,167.3,494,167.3,53.1,0,105.9-5.1,157.6-15.3-7.2,27.6-16.6,54.3-28,79.9-42.8,6.3-86.1,9.5-129.6,9.5-197.1,0-383.5-63.2-539.1-182.7l-99.9-76.8c2-2.2,4-4.3,6-6.5,15.2-16.1,31.4-31.1,48.5-45.1Z"/>
            <path d="M1363.5,1308.3c53.4,0,106.9-5.2,159.1-15.4l4.6-.9,1.2-4.5c6.8-26.2,11.6-53.1,14.3-79.9l1-10.3-10.1,2.3c-55.5,13.2-112.7,19.9-170,19.9-162.5,0-316.2-52-444.3-150.5l-76-58.4-4.3,2.6c-22.6,13.4-44.3,28.6-64.6,45.2l-7.2,5.9,98,75.3c143.8,110.5,316.2,168.9,498.5,168.9Z"/>
            <path d="M869.5,1133.5l-90.6-69.6c20-16.4,41.3-31.3,63.6-44.5l72.1,55.3c129.5,99.4,284.7,152,448.9,152,58.1,0,115.7-6.8,171.7-20.1,0,0,0,0,0,0-2.7,26.9-7.4,53.2-14.1,78.8-51.7,10.2-104.5,15.3-157.6,15.3-180.6,0-351.4-57.9-494-167.3Z"/>
            <path d="M916.9,983.1l42.9,33c116.4,89.4,256,136.7,403.7,136.7,58.9,0,117.2-7.7,173.6-22.9.4,8.4.6,16.9.6,25.5,0,17.4-.9,34.5-2.5,51.4-56.1,13.3-113.7,20.1-171.7,20.1-164.2,0-319.4-52.6-448.9-152l-72.1-55.3c1.6-1,3.3-2,4.9-2.9,22.1-12.8,45.3-24,69.4-33.4Z"/>
            <path d="M959.8,1016l-42.9-33c28.2-11.1,57.6-19.8,88-25.8,102.5,78.7,227.2,121.3,358.6,121.3,56.5,0,111.8-7.9,164.6-23.2,4.8,24.2,7.8,49.1,9.1,74.4-56.4,15.2-114.7,22.9-173.6,22.9-147.7,0-287.3-47.3-403.7-136.7Z"/>
          </g>
          <path d="M1128.4,948c64.1,32.9,136.1,52.7,212.3,56,7.6.3,15.2.5,22.8.5,50.4,0,99-7.3,145-20.7,8.2,23.2,14.7,47.1,19.5,71.6-52.8,15.2-108.1,23.2-164.6,23.2-131.4,0-256.1-42.6-358.6-121.3,32.6-6.4,66.2-9.8,100.7-9.8,7.6,0,15.2.2,22.8.5Z"/>
        </g>
        <path d="M1543.1,448.4c2-.9,48.5-21.6,88.3-71.3,36.7-45.8,74.1-125.7,43.4-246-4.6-18.1-22.4-29.8-45.3-29.8s-20.5,2.5-29.1,6.9c-52.7,27.6-147,88.8-185.7,188.7l-1.6,4.1,124.9,149.6,5.1-2.2Z"/>
        <path d="M1603.8,114.7c-52.9,27.7-144.5,87.5-182.2,184.9l118.5,142s185.5-81.4,127.5-308.7c-6.3-24.8-41.1-30-63.8-18.2Z"/>
        <path class="st5" d="M1643.4,118.2c8,2.6,14.8,7.8,17,16.6,23.4,91.6,9.8,169.9-40.2,232.6-30.2,37.9-65.4,58.4-78.2,65l-7.7-9.3c-6.1-62.9-7.7-218.6,109.1-304.9Z"/>
        <g>
          <path class="st1" d="M1003.1,965.2c4.6,3.5,9.3,6.9,14,10.3l13.3,26c197,145.3,452.2,91.2,494.7,80.8,2,13.9,3.5,27.9,4.3,41.8-54,14-109.7,21.1-165.9,21.1-146.1,0-284.1-46.7-399.2-135.1l-32.4-24.8c23.2-8.4,47.1-15.2,71.1-20.1Z"/>
          <path class="st31" d="M1030.4,1001.5l-13.3-26c101.2,72.4,220.5,110.5,346.4,110.5,53.9,0,107.3-7.1,158.8-21.3,1,5.8,2,11.7,2.8,17.6-42.5,10.4-297.7,64.5-494.7-80.8Z"/>
        </g>
        <g>
          <path class="st25" d="M725.4,1125.6l94.5,72.6c86.1,66.1,181.6,115.1,283.1,145.9l-5.1,23.5c7.7,2.8,15.5,5.3,23.3,7.7l-4.4,31.4c99.3,26.2,283.6,16.6,339.6,12.9-3.8,6.3-7.8,12.6-11.9,18.7-26.8,2.3-54,3.4-80.9,3.4-211.9,0-412.4-67.9-579.7-196.5l-95.2-73.1c11.3-16.2,23.7-31.8,36.8-46.5Z"/>
          <path class="st1" d="M1116.8,1406.6l4.4-31.4c137.3,41.4,301.9,28,347.4,23.1-3.9,7.1-8,14.2-12.2,21.2-59.6,10.5-240.2,13.2-339.6-12.9Z"/>
        </g>
        <g>
          <path class="st1" d="M915.7,991.5l39.6,30.4c37.5,28.8,77.3,53.2,119.1,73.2l.8,17.5c224.8,105.2,415.8,57,455.2,45.1,0,14.3-.7,28.7-2,43-53.9,12.4-109.3,18.7-164.8,18.7-162.5,0-316.2-52-444.3-150.5l-63.3-48.6c19.2-10.8,39.3-20.5,59.8-28.8Z"/>
          <path class="st31" d="M1053.4,1124.6l21-29.5c89.4,42.8,187.4,65,289.2,65,56.4,0,112.4-7,166.6-20.8.2,5.3.2,10.7.2,16s0,1.6,0,2.4c-39.4,11.9-252.2,72.1-477-33.1Z"/>
        </g>
        <g>
          <path class="st22" d="M1643.4,118.2c-116.7,86.3-115.1,242-109.1,304.9l-73.1-87.6,21.6-31c29.6-137.6,160.5-186.4,160.5-186.4Z"/>
          <path class="st26" d="M1607.3,121.3c6.5-3.4,14.3-5.2,22.2-5.2s9.4.7,13.9,2.1c0,0-130.9,48.8-160.5,186.4l-21.6,31-31.1-37.3c37.9-93.1,127-150.7,177.1-176.9Z"/>
        </g>
        <g>
          <path class="st1" d="M1071.8,956c18.6,12.4,193.4,122.4,441.3,67.4,2.4,8.9,4.5,17.8,6.4,26.8-50.6,14-103,21-155.9,21-123.9,0-241.2-37.9-340.5-109.7,16.1-2.6,32.4-4.5,48.7-5.5Z"/>
          <path class="st31" d="M1071.8,956c11.3-.7,22.6-1.1,33.8-1.1s13.4.1,20.9.5c66.7,33.9,138.7,52.8,213.9,56.1,8.3.4,15.9.5,23.1.5,47.6,0,94.8-6.4,140.3-19.1,3.4,10.1,6.4,20.3,9.2,30.6-247.9,54.9-422.7-55.1-441.3-67.4Z"/>
        </g>
        <path class="st31" d="M1526.1,1089.7s-248.9,81.8-458-43.9c0,0-13.3-22.4-22.5-35.8-.8-1.2,3.3-4.8,3.3-4.8l69.9,38.1,98.3,29.7,52,14.5,91.4,6.6,79.5-6.6,84.2-12,2,14.1Z"/>
        <path class="st1" d="M842.1,1028.4l68.1,52.3c28.3,21.8,57.9,41.3,88.5,58.5l-5.4,13.5c184.5,139.8,468.5,99,530,88-2.2,12.9-4.9,25.8-8.1,38.5-49.8,9.5-100.8,14.3-151.6,14.3-179,0-348.2-57.3-489.5-165.8l-83.1-63.8c16.3-12.8,33.4-24.7,51.1-35.5Z"/>
        <path class="st1" d="M735.9,1114.2c13.5-14.3,28.1-28,43.3-40.7l85.9,66c64.4,49.5,134.6,88.5,208.8,116.5l-2.1,18.7c152.2,75.3,370.3,53.5,431.3,45.5-4.5,13.1-9.5,26.1-15,38.7-41.2,5.8-83,8.8-124.5,8.8-195.4,0-380.3-62.6-534.6-181.1l-93.5-71.8c.1-.1.3-.3.4-.5Z"/>
        <g>
          <path class="st25" d="M650.8,1235.5c8.8-17.5,18.7-34.6,29.5-51.1l94.5,72.6c102.7,78.9,217.8,135.3,340.3,167.6l.5,19.3c100.7,41.5,248.3,38.8,297.4,36.5-10.2,12.3-20.9,24.1-32.2,35.3-6.2.1-11.9.2-17.2.2-228.4,0-444.4-73.2-624.9-211.8l-88.2-67.8c.1-.2.2-.5.3-.7Z"/>
          <path class="st1" d="M1115.5,1443.8l-.5-19.3c80.1,21.1,163.4,32,248.5,32,23.2,0,46.7-.8,69.9-2.5-6.5,9-13.4,17.8-20.5,26.4-49.1,2.3-196.7,5-297.4-36.5Z"/>
        </g>
        <g>
          <path class="st25" d="M1338,1553.6c-15.3,12.2-31.3,23.5-47.9,33.8-168.5-10.9-330.4-60.2-475.4-143.8,5.9-10.4,12.2-20.8,17.7-32,214.3,130.7,434.2,142.1,505.7,142Z"/>
          <path class="st25" d="M621.4,1307.3c6.3-19.5,13.9-38.8,22.5-57.5l85.8,65.9c7.7,5.9,15.4,11.6,23.2,17.3l-11,15.4c29.8,23.7,60.1,44.6,90.5,63.2-5.4,11.3-11.8,21.6-17.7,32-41.9-24.2-82.4-51.2-121.2-81l-72.2-55.4Z"/>
          <path class="st1" d="M741.9,1348.4l11-15.4c178.2,129.3,388.7,197.6,610.7,197.6h1.5c-8.7,8-17.8,15.7-27,23.1-81.6.1-356.8-14.7-596.1-205.2Z"/>
        </g>
        <g>
          <path class="st25" d="M602.7,1386.4c3.3-21.5,8-42.9,14.1-63.9l67.8,52c10.9,8.4,22,16.6,33.2,24.5l-11.9,8.9c21.9,20.8,45.4,39.6,69.9,56.6-7.6,9.7-14.7,19.6-21,29.9-36.4-22.2-71.9-46.5-106.4-73l-45.7-35.1Z"/>
          <path class="st25" d="M1222.6,1622.7c-21.5,9.3-43.6,17.1-66.2,23.3-143.5-25.3-278.1-76.1-401.7-151.5,6.3-10.3,13.4-20.2,21-29.9,158.5,110.4,358.8,146.9,446.9,158.2Z"/>
          <path class="st1" d="M717.7,1399c162.5,115.6,351.4,184.9,550,201.6-14.7,8.1-29.7,15.4-45,22.1-101.7-13-353-59.6-516.8-214.8l11.9-8.9Z"/>
        </g>
        <path d="M482.2,1464.4s-35.8,93.6,13.1,213.6l-19.6-6.3s-44.9-103.7-14.5-205.7l21-1.5Z"/>
        <path d="M672.7,1850.2c-15.1-161.3,81.3-206.6,81.3-206.6l174.7,61.9,1.8,20.8s97.7-15.3,136.4,99.1c0,0-121.3-1.2-180,5.8-3.7,14.1-5.5,23.3-5.5,23.3l-208.6-4.3Z"/>
        <path d="M875.3,1846.9c.9-4.2,2.4-10.2,4.3-17.7l1.3-4.9,5-.6c49-5.9,139.2-6.1,170.3-6-38.1-96.2-121-84.8-124.6-84.3l-7.8,1.2-.7-7.9-1.4-16-167.1-59.2c-6.5,3.8-24.7,15.7-41.4,39.8-33.2,47.7-37,107.5-33.7,151.5l195.8,4Z"/>
        <path class="st21" d="M719.3,1695.7c13.8-19.8,28.4-30.9,36.2-35.9l159.3,56.4,1,11.3.7,7.4c-33.5,15.7-45.9,48.5-37.5,82.2l-3.9.5-2.6,9.7c-1.2,4.6-2.2,8.7-3,12.1l-183-3.7c-2.2-40.8,2.2-96,32.8-140Z"/>
        <circle cx="863.4" cy="1555.6" r="169.6"/>
        <path d="M888.6,1715.8c88.4-13.9,149-97.1,135.1-185.5-13.9-88.4-97.1-149-185.5-135.1-88.4,13.9-149,97.1-135.1,185.5,13.9,88.4,97.1,149,185.5,135.1Z"/>
        <g>
          <path class="st23" d="M892.7,1752.4c6.2-7,14.1-12.9,23.7-17.5l.8,8.3,15.6-2.4c3.1-.5,74.7-10.3,112.2,69.5,0,0-91.4-73-152.3-58Z"/>
          <path class="st17" d="M878.9,1817.1c-6-24-1.4-47.5,13.8-64.7,60.9-15.1,152.3,58,152.3,58-40.1,0-115.9.7-159.9,6l-6.1.7Z"/>
        </g>
        <path d="M881.3,1854.4s89.1,2.9,101.1,5.6c0,0-29.3-113.8-102.9-113.9,0,0-62.4-2.1-85.9,106.6l87.7,1.8Z"/>
        <path d="M972,1851.4c-9.1-27.2-38.1-97.8-92.5-97.9h-.2s-1.6,0-4.3.4c-6.9,1.1-20.6,5-34.9,18.8-16.6,16.1-29.1,40.5-37.2,72.8l78.6,1.6c7.7.3,64.2,2.1,90.6,4.3Z"/>
        <g>
          <path class="st31" d="M1126.3,1350.7c76.3,20.9,155.9,31.6,237.2,31.6,39,0,78.4-2.6,117.2-7.7,0,0-126.7,50.8-337.9,6.5,0,0-.1,0-.2,0l-16.4-30.5Z"/>
          <path class="st1" d="M1480.7,1374.7c-3.8,8-7.9,15.9-12.1,23.7-43.1,4.6-193.3,16.9-325.8-17.1,211.2,44.3,337.9-6.5,337.9-6.5Z"/>
          <path class="st31" d="M1142.7,1381.2c0,0,.1,0,.2,0,0,0-.1,0-.2,0h0Z"/>
        </g>
        <g>
          <path class="st31" d="M1056.3,1211.3c-13.1-5.7-26-12.1-38.5-19.1,12.8,7,25.6,13.3,38.5,19.1Z"/>
          <path class="st31" d="M1008.7,1186.9l5.9,3.5c-2-1.1-4-2.3-5.9-3.5Z"/>
          <path class="st1" d="M1523.2,1240.7c-24.6,4.4-87.9,15.4-166.7,18,99.5-8,168.4-34,169.2-34.3-.7,5.4-1.5,10.9-2.5,16.3Z"/>
          <path class="st31" d="M1017.1,1191.8l-2.5-1.4c1.1.6,2.1,1.2,3.2,1.8-.2-.1-.5-.3-.7-.4Z"/>
          <path class="st31" d="M1014.7,1190.4l-5.9-3.5c-11.7-7-23.1-14.6-34.1-22.9l13.9-14.3,13.4-8.7c109.8,61.2,233,93.2,361.7,93.2,54.9,0,109.8-6,163.2-17.9-.3,2.7-.7,5.4-1.1,8.1-.8.3-69.7,26.3-169.2,34.3-91.1,3-203-5.1-300.1-47.4-12.9-5.8-25.7-12.1-38.5-19.1-1.1-.6-2.1-1.2-3.2-1.8Z"/>
        </g>
        <g>
          <path class="st1" d="M1076.1,1256.7l10.5,40.9c276.8,67.8,424.3-2.6,424.3-2.6-2.4,8.4-5,16.7-7.8,25-68.4,22.6-234.5,36.8-382.3-4.4-23.4-6.5-45.3-59.1-44.6-58.9Z"/>
          <path class="st31" d="M1086.6,1297.6l-10.5-40.9c90.8,34,187.6,51.5,287.4,51.5,49.4,0,98.9-4.4,147.4-13.2,0,0-147.5,70.4-424.3,2.6Z"/>
        </g>
        <g class="st2">
          <path class="st21" d="M1536.5,1130.9c.4,8.4.6,16.9.6,25.5,0,17.4-.9,34.5-2.5,51.4,0,0,0,0,0,0-2.7,26.9-7.4,53.2-14.1,78.8-7.2,27.6-16.6,54.3-28,79.9,0,0,0,0,0,.1-12.5,28-27.5,54.6-44.5,79.7-19,28-40.7,54-64.7,77.6,0,0,0,0,0,0-27.7,27.3-58.5,51.5-91.9,72-41.5,25.6-86.9,45.4-135,58.5,0,0-.1,0-.2,0-43.1,11.7-88.4,17.9-135.1,17.9-43.3,0-85.3-5.3-125.5-15.4-78.5-19.6-149.8-57.2-209.4-108.1-13-11.1-25.4-22.8-37.2-35.1l-.6-94,106.8-151.8,160.5,143.8c613.9,31.3,588.2-420.7,588.2-420.7l9,7.6c6,18.7,11,37.9,14.8,57.5,4.8,24.2,7.8,49.1,9.1,74.4Z"/>
        </g>
        <g>
          <path class="st23" d="M841.1,1782.3c1.3-1.5,2.7-2.9,4.1-4.3,12.8-12.4,24.8-15.8,30.9-16.8,1.8-.3,3-.3,3.2-.3h.3c43.9,0,70.7,54,81.7,82.3,0,0-63.4-68.9-120.1-60.9Z"/>
          <path class="st17" d="M812.5,1838.2c6.9-23.8,16.5-42.6,28.6-56,56.6-8,120.1,60.9,120.1,60.9-29.1-1.8-73.8-3.3-79.6-3.5l-69.1-1.4Z"/>
        </g>
        <path d="M918.2,1729.3s-19.3,2.2-31,19.9l13.4,5.6s9.5-10.6,26.5-13l-8.8-12.5Z"/>
        <g>
          <path class="st1" d="M839.3,1402.6c56.1-8.8,110,13.8,143.7,54.8-20.1-9.8-42.7-15.2-66.6-15.2-84.4,0-152.8,68.4-152.8,152.8s15.4,76.4,40.5,103.6c-48.1-20-85-63.8-93.7-118.9-13.3-84.3,44.6-163.7,128.9-177Z"/>
          <path class="st21" d="M916.4,1442.2c23.9,0,46.4,5.5,66.6,15.2,17,20.6,28.9,45.9,33.3,74.1,13.3,84.3-44.6,163.7-128.9,177-29.2,4.6-57.8.6-83.3-10-25.1-27.2-40.5-63.6-40.5-103.6,0-84.4,68.4-152.8,152.8-152.8Z"/>
        </g>
        <g>
          <path class="st13" d="M1363.5,1004.5c-7.6,0-15.2-.2-22.8-.5-76.2-3.3-148.2-23.1-212.3-56-116.8-59.9-207.8-162.9-251.9-288.1-13.4-38-22.4-78.1-26.6-119.7,57.8-169.3,218.2-291.1,407.1-291.1,237.5,0,430,192.5,430,430,0,104-37,199.5-98.5,273.8-25.6,12.4-52.3,22.8-80,30.9-46,13.5-94.7,20.7-145,20.7Z"/>
          <path d="M1363.5,1011.9c50,0,99.5-7.1,147.1-21,27.7-8.1,55.1-18.6,81.2-31.3l1.4-.7,1-1.2c64.6-78.1,100.2-177,100.2-278.6,0-241.2-196.2-437.4-437.4-437.4-93.3,0-182.5,28.8-257.9,83.2-74.2,53.5-128.8,126.9-157.9,212.4l-.5,1.5.2,1.6c3.8,37.8,13.2,77.7,28.8,121.9,22.2,63,55.9,120.5,100.1,171,44,50.2,96.2,91,155.4,121.3,67.1,34.4,139.6,53.5,215.4,56.8,8.3.4,15.9.5,23.1.5Z"/>
          <path d="M1363.5,1004.5c-7.6,0-15.2-.2-22.8-.5-76.2-3.3-148.2-23.1-212.3-56-116.8-59.9-207.8-162.9-251.9-288.1-13.4-38-24.2-78.7-28.4-120.2,57.8-169.3,220-290.6,408.9-290.6,237.5,0,430,192.5,430,430,0,104-37,199.5-98.5,273.8-25.6,12.4-52.3,22.8-80,30.9-46,13.5-94.7,20.7-145,20.7Z"/>
        </g>
        <g>
          <path class="st21" d="M1075.2,696.9c-103.4-192,90.5-378.8,90.5-378.8l-104.6-13.5c59.1-30.9,126-48.1,195.9-48.1,233,0,422.6,189.6,422.6,422.6,0,55.3-10.9,109.7-31.6,160.2-97.6,7.3-482.7,24.8-572.9-142.4Z"/>
          <path class="st1" d="M1506.5,976.7c-46.3,13.5-94.4,20.4-143,20.4s-14.4-.2-22.5-.5c-73.6-3.2-144-21.8-209.2-55.2-57.5-29.5-108.3-69.1-151-117.9-43-49-75.7-104.9-97.2-166.1-13.2-37.5-21.9-76.6-26-116.3,36-104.3,110.1-187.6,203.6-236.5l104.6,13.5s-194,186.8-90.5,378.8c90.1,167.3,475.3,149.7,572.9,142.4-15.8,38.7-37.4,75-64.1,107.7-25,12-51,22-77.4,29.7Z"/>
        </g>
        <path class="st3" d="M1445.3,895.8s-471.1-6.5-396.6-363.1l41,38.8-12.6,61.7,3.8,52.4,19.2,46,36.6,43.5,60.5,49.8,52.9,31.9,89.7,23.8,88.9,10.5,16.6,4.7Z"/>
        <g>
          <path d="M1122.1,1339.4s35.9,26.1,39.3,103.2c0,0-40.1,8-97.4-65.5l58.1-37.7Z"/>
          <path d="M1153.5,1435.2c-4-52.7-23.9-78.1-32.2-86.5l-46.5,30.2c37.8,46.1,66.6,54.8,78.7,56.3Z"/>
          <g>
            <path class="st23" d="M1099.4,1369.8l17.9-14.3c8.1,10,23.3,33.5,27.9,70.1-21.2-9.8-41.7-48-45.7-55.9Z"/>
            <path class="st17" d="M1085.9,1380.5l13.4-10.7c4,7.8,24.5,46,45.7,55.9-12.6-4.1-33.3-15.3-59.2-45.1Z"/>
          </g>
          <path d="M1094.3,1526.9s-71.9,15.6-140.3-54.2l57.1-40.2s63.6,29.4,83.1,94.3Z"/>
          <path d="M1073.5,1521c4.2,0,7.9,0,10.9-.3-17.8-46.7-59.9-72.5-72.6-79.5l-46.2,32.5c42.6,40,85.5,46.9,108,47.3h0Z"/>
          <g>
            <path class="st23" d="M1012.2,1450c13.9,8.2,44.2,29.1,61,63.6-39.1-8.3-73.5-38-83.9-47.5l22.8-16Z"/>
            <path class="st17" d="M989.4,1466c10.3,9.6,44.8,39.2,83.9,47.5-19.9-.4-57.4-6.3-95.8-39.2l11.9-8.4Z"/>
          </g>
          <path d="M1069.7,1372.4s70.5,47.4,79.9,136.2c0,0-61.5,19.2-150.3-63.5l70.4-72.7Z"/>
          <path d="M1130.4,1503.1c4.5,0,8.2-.2,11-.5-9.8-66.9-55.7-108.3-70.9-120.4l-60.5,62.5c55.5,49.7,99.1,58,120.4,58.4h0Z"/>
          <g>
            <path class="st23" d="M1037.7,1423.6l33.3-31.4c16.6,14.4,51.1,49.9,61.6,103.4-51.6-18.4-87-61.6-95-72Z"/>
            <path class="st17" d="M1017.8,1442.4l19.9-18.8c8,10.4,43.4,53.6,95,72-.7,0-1.4,0-2.2,0-19.3-.4-61.7-9.5-112.8-53.2Z"/>
          </g>
          <g>
            <path d="M733.6,1281.8s94-130.4,215.1-147c0,0,62.6,40.5,118.2,99.3-52.4,23-145.7,74.9-222.9,176.8-32.9-30.8-70.9-72.7-110.4-129.1Z"/>
            <path d="M843.2,1399.8c73.2-93.8,159.9-144.4,211.1-168.2-46.5-47.4-96.2-81.7-107.3-89.2-103.2,15.7-187.1,117.4-204.2,139.4,31.9,44.9,65.6,84.5,100.4,117.9Z"/>
            <path d="M1066.9,1234.1c28.4,30,56.4,68.1,72,104.8,0,0-78.6,85.8-185.5,149.9,0,0-45.1-17.8-109.4-77.9,77.1-101.8,170.5-153.8,222.9-176.8Z"/>
            <path d="M952.9,1480.5c91.3-55.5,160.7-129.5,175.9-146.3-13.1-29.1-34.5-59.7-63.7-91.1-49.3,22.3-137.3,72.1-211.1,167,50.4,46.1,87.9,65.4,98.9,70.5Z"/>
          </g>
          <path d="M1106.1,1298.1s-114.5,65.9-188.1,158.8l-13.9-8.9s85.5-101.7,193.1-162.7l8.9,12.9Z"/>
          <g>
            <path class="st1" d="M847.6,1394.3c-29-28.5-61.6-66.1-89.2-103.5l26-44.7c36.1-36.6,94.5-84.6,160.9-95.8,9.1,6.2,34.7,25.4,63.4,50.2-13.4,13.9-45.8,50.7-60.4,95.8-33,25.2-68.1,57.4-100.7,98Z"/>
            <path class="st21" d="M1046.6,1235.3c-25.6,12.6-60.7,32.2-98.3,61,14.6-45.1,47-82,60.4-95.8,12.5,10.8,25.5,22.6,37.9,34.8Z"/>
            <path class="st21" d="M942.6,1319.6c45-36.7,87.8-60.5,116.3-73.7,25.3,27.9,49.5,62.8,61.9,88.6-15.4,16.6-62.4,62.9-124.4,108-49.4-39.2-60.1-83.1-53.7-122.9Z"/>
            <path class="st1" d="M858.2,1404.8c27.1-34,56.2-62.1,84.4-85.2-6.4,39.8,4.3,83.7,53.7,122.9-13.9,10.1-28.5,20-43.8,29.5-13.1-6.5-51.7-29.1-94.3-67.2Z"/>
          </g>
        </g>
        <g>
          <path d="M872.1,88.9c6.9-22.5,31.2-34.6,53.3-26.4,63.1,23.5,183.6,87.3,236.6,243.1-2.4.7-4.7,1.4-7.1,2.1-18.7-54.9-47.5-102.8-86.1-143-50.7-52.7-107.3-80.9-146-95.3-3.8-1.4-7.7-2.1-11.6-2.1-14.8,0-27.6,9.5-32,23.7-36.3,117.7-30.9,212.6,16.2,282.1,23.2,34.2,54,58.3,84.7,75.2-1.3,2.2-2.6,4.3-3.9,6.5-85.1-47.1-171.2-148.6-104.1-366Z"/>
          <path d="M1063.5,170c-49.7-51.7-105.3-79.4-143.2-93.5-2.9-1.1-6-1.6-9-1.6-11.5,0-21.5,7.4-24.9,18.5-.3,1.1-.7,2.2-1,3.3-34.5,113.9-29.1,205.6,16.2,272.5,22.5,33.3,52.5,56.7,82.5,73.2-1.3,2.1-2.6,4.2-3.9,6.2-30.7-16.9-61.6-41-84.7-75.2-47-69.5-52.5-164.4-16.2-282.1,4.4-14.2,17.2-23.7,32-23.7s7.9.7,11.6,2.1c38.6,14.4,95.3,42.6,146,95.3,38.6,40.2,67.4,88.1,86.1,143-2.4.7-4.7,1.5-7.1,2.3-18.4-53.8-46.6-100.7-84.4-140.1Z"/>
          <path d="M901.5,369.1c-45.3-66.9-50.7-158.6-16.2-272.5,48.9,26.5,146,95.6,197.8,244.5-39.6,25.4-68.5,57.3-88.8,85.9-3.7,5.2-7.1,10.3-10.3,15.4-30-16.4-60-39.9-82.5-73.2Z"/>
        </g>
        <g>
          <path d="M1659.2,916.9l-24.1-36.4-15.5-34.6,7.4-36.1,29.4-25.6,63.3-19.5-33.5-15.2c5.2-96.6-.6-203.6-53.9-260.9-27.6-29.6-58-35.8-78.6-35.8-30.4,0-59.1,14.1-69.9,34.3l-1.3,2.4-.3,2.7c-.2,1.2-3.7,29.8-1.6,65.9,2.9,49.6,14.8,87.1,35.4,111.6,31.8,37.8,69.7,65.9,115.5,85.8-1.5,1-3,1.9-4.3,2.9-16.3-6.3-57.2-23.8-97.5-55.2-68.4-53.3-103.1-119.7-103.1-197.2v-5.5s-3.6-4.2-3.6-4.2c-45.1-52.5-95.3-79.1-149.4-79.1s-138,51.9-168.1,103.4c-47.9,81.8-50.2,163.6-6.3,224.4,44,60.9,105.6,104.7,182.9,130.1,62.2,20.5,118.6,23.5,146.7,23.5s35,.2,38,0l96,18.4h96.5Z"/>
          <path d="M1681.6,924.3l-52.4-39-17.3-38.5,8.4-40.9,32.5-28.3,51.7-15.9-26.4-22c5.6-82.1,1-190-51.2-246.1-25.7-27.7-54-33.5-73.2-33.5-27.8,0-53.8,12.5-63.4,30.4l-.6,1.2-.2,1.4c-.2,1.2-3.6,29.3-1.6,64.5,2.8,47.9,14.1,84,33.7,107.3,34.3,40.7,76,70.1,127.3,89.7-7,3.2-14.5,7.3-20.6,12.2-13.4-4.9-58.6-22.9-103.3-57.7-70.3-54.8-106-123.1-106-203v-2.7s-1.8-2.1-1.8-2.1c-43.6-50.8-92-76.5-143.8-76.5-71.4,0-132.7,50.1-161.7,99.7-46.3,79.2-48.8,158-6.6,216.3,43.1,59.6,103.4,102.5,179.2,127.4,61.2,20.1,116.7,23.2,144.4,23.2h0c8.3,0,14-.3,16.5-.4l116.5,33.6h119.9Z"/>
          <path d="M1639.7,777c7.4-7.4,26-13.6,35.3-16.3l46.7-5.8-38.7-4.4c-56.2-17.9-109.1-53.6-144.8-96-39.8-47.3-26.8-157.6-26.7-158.7l3.6-28.3-62.8,33.4-55.4-14v19c0,86,39.7,162.4,114.9,220.9,56,43.5,111.4,61.7,113.7,62.4l4.7.5,9.5-12.6Z"/>
          <path d="M1635.3,780.3c9.5-9.5,30.2-16.9,37.4-19l23.5-6.8-23.3-7.4c-57.5-18.3-103.3-48.4-140-91.9-42.1-49.9-28.9-159.3-28.7-160.4l1.8-14.2-52.7,28.1-49-12.4v9.5c0,83.7,38.7,158,112,215,55,42.8,109.2,60.5,111.5,61.2l4.3,1.4,3.2-3.2Z"/>
          <path class="st3" d="M1527.3,660c44.7,53.1,96.7,79.3,143.4,94.2,0,0-27.7,8-40.6,20.9,0,0-218.4-70.3-218.4-269.2l42.5,10.7,42.7-22.7s-14.3,113,30.4,166.1Z"/>
        </g>
        <g>
          <path class="st22" d="M1353,757.8l-29.3,6.7,42.5,68.9,15.8,10.2s-169.5,3.1-288-138c-23.4-56.5-8.8-121.3,24.2-177.7,44.9-76.7,175.1-160,293.5-22.1,0,198.8,218.4,269.2,218.4,269.2,9.7-9.7,27.7-16.6,36.1-19.4l13.1,6-30.2,9.3-35.6,31-9.4,45.7,18.4,40.9-6.5-3.8s-152.4,20.4-263-127Z"/>
          <path class="st22" d="M1570.7,682.6l-.5,19.2c-14.8-11.7-29.2-25.5-43-41.8-44.7-53.1-30.4-166.1-30.4-166.1,18.9-35.3,133-59.9,166.5,94.7-8.5,34.6-31.6,89.4-92.6,94Z"/>
          <polygon class="st30" points="1689.2 758.6 1682.9 760.5 1685.2 755.2 1689.2 758.6"/>
          <polygon class="st24" points="1681.9 762.8 1679.3 761.6 1682.9 760.5 1681.9 762.8"/>
          <path class="st22" d="M1670.7,754.2c-32.3-10.3-67.2-26-100.4-52.4l.5-19.2c61.1-4.5,84.1-59.4,92.6-94,8.5,39.1,11.8,89.6,7.1,154.3l14.8,12.3-2.4,5.3-3.6,1.1-13.1-6c2.8-.9,4.5-1.4,4.5-1.4Z"/>
          <path class="st26" d="M1659.2,916.9h-96.5s-116.7-33.7-116.7-33.7c0,0-216.4,16.8-334.9-147-7.1-9.8-12.8-20.1-17.1-30.6,118.5,141.1,288,138,288,138l-15.8-10.2-42.5-68.9,29.3-6.7c110.6,147.4,263,127,263,127l6.5,3.8.7,1.5,36,26.8Z"/>
        </g>
        <path class="st16" d="M1257.1,249c237.5,0,430,192.5,430,430,0,12.6-.6,25.1-1.6,37.4-128.2-192.4-347.2-319.2-595.8-319.2-60.4,0-119,7.5-175,21.6,78.5-103.2,202.7-169.8,342.3-169.8Z"/>
        <path class="st20" d="M773.6,470.6"/>
        <g>
          <path class="st11" d="M914.7,418.8s0,0,0,0c-1,.3-2,.5-3.1.8,1-.3,2-.5,3.1-.8Z"/>
          <path class="st19" d="M914.7,418.8s0,0,0,0c0,0,0,0-.2.3,0,0,.1-.2.2-.3Z"/>
          <path class="st19" d="M911.6,419.6c-2.8.7-5.5,1.4-8.3,2.2,2.7-.7,5.5-1.5,8.3-2.2Z"/>
          <path d="M852.7,532.5c-.9,2.6-1.8,5.1-2.7,7.7,4.1,41.5,13.2,81.6,26.6,119.7,25.3,71.8,66,136.3,118.2,189.6,38.8,39.6,83.9,73,133.7,98.6-7.6-.3-15.2-.5-22.8-.5-31.1,0-61.6,2.8-91.2,8.1-3.2.6-6.4,1.1-9.5,1.8-30.4,6-59.8,14.7-88,25.8-135.8-170.7-107.4-342.3-64.2-450.6Z"/>
          <path class="st11" d="M912.2,422.2c1.2-1.6,2-2.7,2.3-3.1-.8,1-1.6,2.1-2.3,3.1Z"/>
          <path class="st19" d="M912.2,422.2c1.2-1.6,2-2.7,2.3-3.1-.8,1-1.6,2.1-2.3,3.1Z"/>
          <path class="st19" d="M912.2,422.2c1.2-1.6,2-2.7,2.3-3.1-.8,1-1.6,2.1-2.3,3.1Z"/>
          <path d="M735.9,1114.2c20.3-21.4,42.6-41.3,66.3-58.9,15.8-11.7,32.3-22.6,49-32.3,21.8-12.6,44.8-23.7,68.4-33l9.3-3.7-6.2-7.8c-132.1-166-107.2-332.7-63.1-443.2v-.2c14.1-38.7,33.8-75.1,58.6-108.3,1.2-1.6,1.9-2.6,2.3-3l12.4-16.9-19.9,4.9c-.6.2-3.1.8-3.1.8-2.8.7-5.6,1.5-8.3,2.2-93.8,25.7-167.3,69.7-218.5,131-43.7,52.2-70.6,116-80.1,189.6-7.9,61.2-3.2,128,13.6,193.2,23.9,92.8,70.7,171.7,111.3,187.5l4.6,1.8,3.4-3.6Z"/>
          <path d="M688.6,550.4c46.5-55.6,115.6-101.4,214.7-128.5,2.8-.7,5.5-1.5,8.3-2.2,1-.3,2-.5,3.1-.8,0,0-.1.2-.2.3-.3.4-1.1,1.5-2.3,3.1-24.9,33.3-45.1,70.4-59.5,110.2-43.2,108.3-71.6,279.9,64.2,450.6-24,9.5-47.2,20.6-69.4,33.4-17.2,10-33.8,20.9-49.8,32.8-24.1,18-46.7,38-67.3,59.8-81.7-31.8-209.3-358.4-41.8-558.7Z"/>
          <path d="M532.5,1531.9c17.3,0,36.3-7,48.4-19.1,11.9-11.9,16.1-29.6,16-47.2v-2c0-8,.2-16.4.6-24.8.8-16.7,2.4-33.5,4.9-50,3.8-25.8,9.7-51.6,17.5-76.6l3-9.6h-10.1c-2.9,0-12.8-5-30.1-24.1-61-67.2-151.8-235.9-135.6-402.2l.3-3.5-9.2-9.1-4.9,8c-45.6,75.3-68.1,164.6-66.9,265.3,4.3,122.6,39.9,242.6,103.1,347.1,3.7,6.1,7,11.5,10.2,16.4,10.2,15.9,25.7,28.1,43.7,30.7,3,.4,6.1.7,9.2.7h0Z"/>
          <path d="M439.6,875.6h0c-21.1,218,138,434.4,173.1,434.4-7.8,25.2-13.8,51.1-17.7,77.8-2.5,16.6-4.1,33.6-4.9,50.7-.4,8.3-.6,16.7-.6,25.1s0,1.4,0,2.1c.1,38.4-33.8,60.8-65.1,56.2-14.7-2.1-28.8-10.2-38.5-25.3-3.4-5.3-6.8-10.8-10.1-16.2-61-100.8-97.7-218-102.1-343.4-.9-81.5,13.8-175.4,65.9-261.4Z"/>
          <path d="M619.8,1312.2c3.3-10.5,6.8-20.8,10.6-30.7,6-15.6,12.8-31.1,20.3-46,22.3-44.3,50.9-85.2,85.1-121.3l7.6-8-10.3-4c-35.9-14-79.9-90.2-102.3-177.4-52.1-202.8,27-326.1,63.5-369.7l2.2-2.6-2.2-13.3-9,4.5c-81.5,40.5-144.5,91.6-187.1,151.9-37.4,52.8-59.5,113.1-66,179.2-16.6,171.1,76.7,344.5,139.4,413.6,17.4,19.2,31.2,28.9,41,28.9h5.5s1.6-5.2,1.6-5.2Z"/>
          <path d="M439.6,875.6c11.6-119.9,77.7-240.2,249-325.2h0c-167.4,200.3-39.9,526.9,41.8,558.7h0c-34.4,36.4-63.6,77.9-86.3,123.1-7.6,15.1-14.5,30.7-20.6,46.7-3.9,10.2-7.5,20.6-10.8,31.2-35.1,0-194.2-216.4-173.1-434.4Z"/>
        </g>
        <path d="M1670.4,1115.5h0c-12.5,20.4-32.8,34.9-56.2,39.8-22.4,4.8-52.5,17.7-79,51.3l1.6-43.2s51-68.2,133.6-47.9Z"/>
        <path class="st25" d="M1543.4,1179.7c24.6-24.3,50.5-34.3,69.3-38.3,17.7-3.8,28.3-11.1,37.1-20-6-.9-15.9,1.1-21.5,2.6-54.9,14.2-76.9,33.6-84.1,42.2l-.7,13.5Z"/>
        <path d="M1588.6,952.9s83,59.4,81.8,162.6c0,0-71-10.1-133.6,47.9,0,0,7.1-62-28.3-179.7,0,0,40.8-11.5,80-30.9Z"/>
        <path d="M1544.8,1146.9c43.6-34,88.5-39.5,112.7-39.5,2,0,3.8,0,5.4,0-2.7-81.7-60.5-133.9-75.2-146-28.7,13.7-57,23.2-69.9,27.2,23.2,79.5,27,132.6,27.1,158.1Z"/>
        <path d="M1091.9,1091.2h0s-51-19.6-51-19.6l-268.3,134-80.8,189.4-7.2,162.8,17.7,23.4s-3-318.1,353.5-449.7c18.4-6.8,33-21,36-40.3Z"/>
        <path d="M696.1,1560.5c2.6-30.1,11.6-89.6,42.7-157.9,25.8-56.6,61.6-107.3,106.4-150.7,55.9-54.2,125.9-97,208.2-127.4,15.2-5.6,27.4-18.7,30.8-33.3l-42.8-11.5-262.9,131.3-79.2,185.7-7,158.8,3.8,5Z"/>
        <path class="st25" d="M697.4,1504.9c6.5-24.4,21.4-76.3,34.6-105.3,26.2-57.4,62.5-108.9,108-152.9,56.6-54.9,127.5-98.3,210.8-129.1,10.6-3.9,21.6-14.2,25.9-25.8l-34.6-4.2-258,128.9-77.6,181.9-9.2,106.5Z"/>
        <path d="M999.2,951.5s52.1,53.2,92.7,139.7c0,0-438.3,65.1-389.5,490.1,0,0-79.2-1.9-119-113.2,0,0,9.8-426.7,415.8-516.6Z"/>
        <path d="M694.1,1572.7c-9.4-94.6,4.7-178.9,42-250.8,30.9-59.4,77.5-110.3,138.6-151.3,86.9-58.3,176.8-79.4,206.3-85.1-33.5-68.2-73.6-114.2-84.3-126-89.5,20.4-166.3,59.4-228.5,115.7-50.6,45.8-91.6,103.2-122.1,170.7-48.9,108.2-54.6,208.2-55.2,220.9,30.4,83.6,82.6,101.9,103.2,105.9Z"/>
        <ellipse cx="1693.7" cy="837.4" rx="97.5" ry="86.3" transform="translate(-150.1 425) rotate(-13.7)"/>
        <path d="M1688.1,916.9c8.1,0,16.2-1,24.2-2.9,23.6-5.7,43.7-19.2,56.7-37.9,12.8-18.4,17.1-39.8,12.2-60.1-8.4-34.3-42.1-58.2-82-58.2-8.1,0-16.2,1-24.2,2.9-48.3,11.8-79.2,55.7-68.9,98,8.4,34.3,42.1,58.2,82,58.2Z"/>
        <path d="M1712.6,921.5s-280.8,58.2-405.9-148.7c0,0-26.9,1.4-56.6-15.1,0,0,84.9,11.7,115.7-14.8,0,0-9.6,17.5-26.5,22.3,0,0,51.8,157.1,353.3,145.2l20.1,11.1Z"/>
        <path d="M1300.9,726.5c47.8,0,86.7-47.1,86.7-104.9s-38.9-104.9-86.7-104.9c-47.8,0-86.7,47.1-86.7,104.9s38.9,104.9,86.7,104.9Z"/>
        <ellipse cx="1300.9" cy="621.5" rx="79.3" ry="97.5"/>
        <path class="st14" d="M1300.9,711.7c39.7,0,71.9-40.4,71.9-90.1,0-49.7-32.3-90.1-71.9-90.1-39.7,0-71.9,40.4-71.9,90.1,0,49.7,32.3,90.1,71.9,90.1Z"/>
        <path d="M1574.6,682.8c38,0,68.9-37.3,68.9-83.1,0-45.8-30.9-83.1-68.9-83.1-38,0-68.9,37.3-68.9,83.1,0,45.8,30.9,83.1,68.9,83.1Z"/>
        <ellipse cx="1574.6" cy="599.7" rx="61.5" ry="75.7"/>
        <path class="st14" d="M1574.6,667.9c29.8,0,54.1-30.6,54.1-68.3s-24.3-68.3-54.1-68.3c-29.8,0-54.1,30.6-54.1,68.3,0,37.6,24.3,68.3,54.1,68.3Z"/>
        <path d="M1704.8,752.4s-104.7-32.7-158-92.4h-19.5s51,69.3,154.6,97.4l22.9-5Z"/>
        <ellipse cx="1290.7" cy="632.4" rx="63.6" ry="84"/>
        <ellipse cx="1570" cy="610.5" rx="49.5" ry="63.5"/>
        <ellipse class="st14" cx="1302.2" cy="607.3" rx="20.1" ry="25"/>
        <ellipse class="st14" cx="1581.6" cy="591.6" rx="16" ry="19.9"/>
        <path class="st3" d="M1411.8,514.4s-.4-35.8,0-48l90.4-13.5s-6.3,40.7-6.9,59.6l-41,23.6-42.5-21.7Z"/>
        <path d="M1626.3,486.7s-78-142.2-204.7-191.1c-126.7-48.9-202.1-34.5-271.3-17.1l-6-11,57.6-12.4,62.3-3.7,79.5,9.7,64.6,17,46,22.8,58.3,36.4,39.2,33.7,36.4,40.8,28,37.7,18.1,30.9,9.1,20.1-12.1-1.9-5.2-12Z"/>
        <path d="M257.1,1004.7s-26.2-33.6-54.8-30l-12.4,8.4s38.2,7.4,56.7,34.7l10.5-13.1Z"/>
        <path d="M247.8,1115.6s-36.8-46.8-91.4-29.5l4.5-15.2s47.4-17.1,86.8,28.6v16Z"/>
        <path d="M258.4,1207s-54.3-39.2-122.1-11.6l3.6-15.9s58.6-26.1,116.1,11.7l2.4,15.9Z"/>
        <path d="M294.8,1294.8s-72-19.8-144.4,30.4l.6-16.8s62.1-45.6,137.5-28.3l6.4,14.7Z"/>
        <path d="M340.9,1373.2s-81.4,4.5-131.4,82.5l-7.1-17.8s41.7-69.5,125.4-77.9l13.1,13.2Z"/>
        <path d="M396.5,1425s-85.3,63.1-74.7,168.4l-14.7-13.2s-11.1-101.2,71.5-160l17.9,4.8Z"/>
        <path d="M596.3,1480.6s6.3,131.4,100.5,205.5l-22,2.3s-92.4-71.8-93.9-191.4l15.3-16.4Z"/>
        <path d="M949.1,546.1s15.8,125.7,66.5,211.7h-10.5s-32.4-69.9-32.4-69.9l-27.2-87.7-5.5-46,9.2-8Z"/>
        <path class="st5" d="M886.3,93.3c.5-1.5,1.1-2.9,1.8-4.3,57.3,35.7,158.4,117.7,181,261.6-32.5,23.5-57,51.2-74.8,76.3-3.7,5.2-7.1,10.3-10.3,15.4-30-16.4-60-39.9-82.5-73.2-45.3-66.9-50.7-158.6-16.2-272.5.3-1.1.6-2.2,1-3.3Z"/>
        <g>
          <path class="st27" d="M617.6,737.1c9.1-70.8,34.9-132,76.7-182,47.6-56.9,115.6-98.5,202.1-123.6,0,0-231.5,192.2-53.3,579h0c-17,9.9-33.8,20.9-49.8,32.8-23,17.1-44.7,36.2-64.6,56.8-15.4-8.1-33.4-28.1-49.9-55.9-19.6-32.8-36.6-75.3-48-119.5-16.3-63.4-20.9-128.3-13.3-187.6Z"/>
          <path class="st10" d="M896.4,431.5c-21,30.6-38.1,63.6-50.7,98.3-27.4,68.8-39.4,137.8-35.5,205,5,87.2,36.9,169.6,94.8,245.1-21.1,8.7-41.6,18.9-61.2,30.2-.2.1-.4.3-.7.4h0c-178.3-386.8,53.3-579,53.3-579Z"/>
        </g>
        <g>
          <path class="st27" d="M846.6,571.5s-31.2,194.4,205.8,371.2h0c-13.2,1.3-26.3,3.1-39.3,5.5-3.2.6-6.4,1.2-9.7,1.8-1.6.3-3.2.7-4.9,1-26.9,5.6-53.5,13.4-79.3,23.2-114.8-147.3-107-294.7-72.8-402.7Z"/>
          <path class="st10" d="M846.6,571.5c4.9,30.9,12.6,61.4,23,90.8,25.1,71.4,66.6,137.9,119.9,192.3,32.7,33.4,69.3,62,109.2,85.5-15.4.2-30.9,1.1-46.2,2.7h0c-237-176.8-205.8-371.2-205.8-371.2Z"/>
        </g>
        <g>
          <path class="st23" d="M1327.4,1722.4l9.8-3.3c.2,0,19.9-6.5,45.7-6.5,36.5,0,84.3,12.9,111.5,72.1,0,0-76.3-64.9-125-58.3v41.6c-13.7-1.1-27.4-1.8-41-2.1.2-14.5.3-29-1-43.4Z"/>
          <path class="st17" d="M1494.4,1784.7c-28.8-5.3-76.2-13-125-16.8v-41.6c48.8-6.5,125,58.3,125,58.3Z"/>
        </g>
        <path d="M1305.7,1801.3s105.6,3.7,141.4,12.7c0,0-30-107.1-114.7-108.9,0,0-64,20.9-78.8,95.5l52.1.7Z"/>
        <path d="M1435.9,1804.1c-10.4-26.7-41.3-89.5-102.3-91.6-8.1,3-55.2,22.7-70.6,80.8l42.9.6c4,.1,87,3.1,130.1,10.3Z"/>
        <g>
          <path class="st23" d="M1334.8,1720c48,2.6,76,46.7,89.1,74.9,0,0-59.2-51.8-116.5-58.4,11.6-9.6,22.5-14.5,27.4-16.5Z"/>
          <path class="st17" d="M1273,1786c8.2-23.3,21.8-39.1,34.5-49.5,57.3,6.6,116.5,58.4,116.5,58.4-45.7-5.9-114.6-8.4-118-8.5l-33-.4Z"/>
        </g>
        <path class="st0" d="M793.6,1704.7s-41.6,57.5,33.3,76.9l-24,63.8-123.4-2.5v-70.3s29-80.7,29-80.7l29.1-27.9,55.9,40.7Z"/>
        <g>
          <path class="st22" d="M888,89c4.4-8.6,13.2-14.2,23.2-14.2s6.1.6,9,1.6c37.9,14.1,93.5,41.8,143.2,93.5,37.8,39.4,66,86.3,84.4,140.1-9.9,3.3-25.8,10.1-34.8,14.3-23.2-70.3-93.7-202.9-225-235.3Z"/>
          <path class="st26" d="M1069.1,350.6c-22.7-143.9-123.8-225.9-181-261.6,131.2,32.4,206.1,163.5,225,235.3-13,5.9-18.7,9.6-29.9,16.8-4.8,3.1-9.5,6.3-14,9.6Z"/>
        </g>
        <path class="st0" d="M1294.7,1734.9s-78.9-.4-86.8-28.7l-75.5-27.8-19.5,31.9-18.8,68.7,7.5,12.1,161.3,2.1,15.9-35.8,15.9-22.5Z"/>
        <g>
          <path class="st21" d="M1002.5,977.6c16.1,19.3,43.1,55,67.5,102.7-39.1,8.4-120,31-199.4,84.3-62.2,41.7-109.6,93.5-141.1,154-24.1,46.4-38.7,97.9-43.7,154-39.3-346.4,257.9-473.3,316.7-494.9Z"/>
          <path class="st1" d="M685.8,1563c-23-7.3-62.4-29.6-87.4-97.2.8-16.5,7.5-112.9,54.4-216.7,30.1-66.5,70.6-123.1,120.4-168.2,60.3-54.6,134.6-92.6,221-113,2.3,2.5,5.1,5.8,8.4,9.8-58.8,21.6-356,148.5-316.7,494.9-2.6,29-2.6,59.1,0,90.4Z"/>
        </g>
        <g>
          <path class="st21" d="M1595.7,979.8c23.1,23.4,56.2,66.5,60,127.7-20.1.3-57.6,5.1-96,29.2-5.3-21.6-29.2-132.5,36-156.8Z"/>
          <path class="st1" d="M1517.8,988.8c14.4-4.7,39.2-12.9,62.2-23.6,4,3.4,9.5,8.3,15.7,14.7-65.2,24.3-41.4,135.2-36,156.8-4.9,3.1-9.9,6.5-14.8,10.3.2-31.4-6.7-87.1-27.1-158.1Z"/>
        </g>
        <path class="st21" d="M930.3,549.8s-79,283.2,340.8,398.1l-93.5-38.9-73.8-40.2-77.6-78.9-43.3-69-52.7-171.2Z"/>
        <g>
          <path class="st12" d="M1448.8,428.9c.1,1.5.2,2.3.2,2.3,0,0,0-.8-.2-2.3Z"/>
          <path d="M1405.7,961.6c83,0,151.5-14.2,177.1-20.3,1-.3,1.8-.5,2.4-.7,11-2.9,12.9-5.6,15.2-8.8l3.4-4.6-14-3-.9.2c-.8.2-80.8,22.3-183.2,22.3h0c-110.3,0-203.7-24.6-277.6-73.1-100.1-65.7-161.6-174.4-182.7-323.2,1.5-5.9,13.6-49.7,44-97.9,29.9-47.5,84.1-109.2,172.8-133.6l3.5-1c-2.3-9-4.3-14-4.3-14l-3.2.9c-85.3,23.7-139.4,79.7-169.7,122.5-42.7,60.3-57.2,117.9-57.8,120.3l-.5,2.1.3,2.1c21.6,153.6,85.3,266,189.3,334.2,76.4,50.1,172.5,75.5,285.7,75.5h0Z"/>
          <path d="M1581.9,937.7c-24.8,5.9-93.3,20.2-176.2,20.2h0c-112.5,0-208-25.2-283.7-74.9-103.1-67.6-166.2-179.2-187.7-331.6l-.2-1.4.3-1.4c.6-2.4,14.8-59.3,57.2-119.1,31.9-45.1,85.1-98.2,167.7-121.1.6,2.1,1.1,3.9,1.9,7-174.2,47.9-219.6,234.9-219.6,234.9,75.9,538.4,648.3,377.6,648.3,377.6l7.5,1.6c-2.5,3.4-13.1,7.4-15.5,8Z"/>
        </g>
        <path d="M1165.7,318.1s-168.1,43.5-220.6,253.4l-5.2-28.3,26.8-66.7,33.6-54.3,48.9-52.2,66-42.1,40.2-15.9,10.2,6Z"/>
        <g>
          <path d="M1640.5,780.1c7.4-7.4,24-13.7,33.3-16.3l47.8-8.5-38.7-4.4c-56.2-17.9-109.1-53.6-144.8-96-39.8-47.3-26.8-157.6-26.7-158.7l3.6-28.3-62.8,33.4-55.4-14v19c0,86,39.7,162.4,114.9,220.9,56,43.5,111.4,61.7,113.7,62.4h4.7s10.4-9.5,10.4-9.5Z"/>
          <path d="M1635.2,780.7c9.5-9.5,30.2-16.9,37.4-19l23.5-6.8-23.3-7.4c-57.5-18.3-103.3-48.4-140-91.9-42.1-49.9-28.9-159.3-28.7-160.4l1.8-14.2-52.7,28.1-49-12.4v9.5c0,83.7,38.7,158,112,215,55,42.8,109.2,60.5,111.5,61.2l4.3,1.4,3.2-3.2Z"/>
          <path class="st3" d="M1527.2,660.5c44.7,53.1,96.7,79.3,143.4,94.2,0,0-27.7,8-40.6,20.9,0,0-218.4-70.3-218.4-269.2l42.5,10.7,42.7-22.7s-14.3,113,30.4,166.1Z"/>
        </g>
        <path class="st3" d="M1411.7,514.8s-.4-35.8,0-48l90.4-13.5s-6.3,40.7-6.9,59.6l-41,23.6-42.5-21.7Z"/>
        <path class="st17" d="M1710.6,906.8c-7.4,1.8-15,2.7-22.5,2.7-36.5,0-67.3-21.6-74.8-52.6-3.8-15.6-1.3-31.6,6-45.7-5.3,37.7,32.9,86.4,79.5,84.1,46.5-2.3,73.7-42.7,73.8-42.9-2.2,6.7-5.4,13.2-9.7,19.3-12,17.2-30.6,29.6-52.4,35Z"/>
        <g>
          <path class="st27" d="M447,876.3c12.5-128.7,85.1-230.9,216.1-304.1,0,0,0,0,0,0-215.5,254.4-62.4,516.4,3.3,606.4-10.5,16.2-20.2,32.9-28.9,50.2-7.7,15.3-14.7,31.3-20.9,47.3-3.1,8-6,16.2-8.7,24.6-5-2.8-13.4-9.3-25.2-22.3-61-67.2-151.8-235.9-135.6-402.2Z"/>
          <path class="st10" d="M663.1,572.2c-40.1,59.8-92.2,178.9-46.6,356.3,22,85.7,63.6,159.5,101.8,182.8-19.2,21-36.5,43.6-52,67.3-65.7-90.1-218.7-352.1-3.3-606.4Z"/>
        </g>
        <g>
          <path class="st27" d="M430.4,907.5c-26.6,270.9,102,420.7,158.3,472.3-.4,2.3-.7,4.5-1.1,6.8-2.5,16.9-4.2,34.2-5,51.4-.4,8.6-.6,17.2-.6,25.5v2.1c0,13.6-4.7,25.6-13.8,34.6-9.3,9.4-22.4,14.7-35.8,14.7h0c-2.4,0-4.7-.2-7-.5-9.7-1.4-23.3-6.4-33.3-22-3.1-4.8-6.3-10-10-16-61.9-102.4-96.8-219.9-101-339.6-1-85.6,15.6-162.6,49.2-229.3Z"/>
          <path class="st10" d="M430.4,907.5c-3,160.1,82.6,316.2,141.3,380.9,12.5,13.8,23.1,22.7,31.8,26.6-6.3,21.3-11.2,43-14.7,64.8-56.3-51.7-185-201.4-158.3-472.3Z"/>
        </g>
        <g>
          <path class="st5" d="M1619.3,811.3c8.7-16.7,24.1-30.9,43.8-38.9,60.1-12.3,109.2,40.2,109.5,40.5.5,1.6,1,3.2,1.4,4.9,2.8,11.5,2.3,23.4-1.4,34.7,0,.1-27.3,40.5-73.8,42.9-46.6,2.3-84.8-46.4-79.5-84.1Z"/>
          <path class="st23" d="M1663.1,772.3c4.3-1.8,8.9-3.3,13.6-4.4,7.4-1.8,15-2.7,22.5-2.7,34.6,0,64,19.4,73.4,47.7-.3-.3-49.4-52.8-109.5-40.5Z"/>
        </g>
        <circle cx="1733.6" cy="827" r="21"/>
        <circle cx="1663.1" cy="839" r="21"/>
        <path class="st31" d="M1579,441.6s-16.7-12.3-44.5-6.4c0,0-40.1-93.3-127.4-126.7,0,0,80.4,14.3,171.8,133.1Z"/>
        <path class="st17" d="M1034.2,375s-60.6-149.3-109.4-172.1c0,0-3.2,156.5,75.7,208.5l33.7-36.4Z"/>
        <path d="M1071.9,346.2s-11.8-160.3-183.4-262.8l-4.9,16.6s137.2,75.4,175.7,256.3l12.7-10.1Z"/>
        <path d="M1646.6,112.6s-109.7,68.5-113.8,231.8l11.6,9.8s8-153.7,114.4-234.1l-12.2-7.5Z"/>
        <path class="st17" d="M1621.7,201.3s21.8,120.9-41.3,183.4l-26.3-26.4s23.9-114,67.6-156.9Z"/>
        <path class="st31" d="M994.1,1539.3l-38.4,32.2s9.8,59.3-54.5,113.4c0,0,105.9-42.6,92.9-145.5Z"/>
        <g>
          <path class="st4" d="M728.8,1100.1c-15.4-8.1-33.4-28.1-49.9-55.9-19.6-32.8-36.6-75.3-48-119.5-16.3-63.4-20.9-128.3-13.3-187.6,4.1-31.6,11.5-61.3,22.1-88.9-11.4,80.2-28.1,300.8,104.8,436.3-5.4,5.1-10.6,10.3-15.7,15.6Z"/>
          <path class="st4" d="M824.4,721.9c18.7,121,80.2,202.6,119.5,243.7-8.3,2.7-16.5,5.5-24.6,8.6-67.6-86.8-92.7-173.6-94.9-252.3Z"/>
          <path class="st4" d="M607.9,1300.8c-5-2.8-13.4-9.3-25.2-22.3-61-67.2-151.8-235.9-135.6-402.2,0-.5.1-1,.2-1.6,7.2,71.1,38.6,268.3,171,397.6-.5,1.3-1,2.5-1.5,3.8-3.1,8-6,16.2-8.7,24.6Z"/>
          <path class="st4" d="M532.5,1515c-2.4,0-4.7-.2-7-.5-9.7-1.4-23.3-6.4-33.3-22-3.1-4.8-6.3-10-10-16-51.7-85.5-84.6-181.6-96.4-280.8,21.5,80.8,80,263.8,178.1,308.5-8.8,6.9-19.9,10.8-31.3,10.8h0Z"/>
        </g>
        <g>
          <g>
            <path d="M1388.2,1206.9c2.6-8.8,3.5-18.3,2.5-27.8-1.1-9.5-4-18.4-8.6-26.5l34.4-30.7h0s33.4-30.2,33.4-30.2l-8.9-9.7-9-8.8c-15-14.6-33.1-26.4-52.4-34-11.8-4.6-24.1-7.9-36.4-9.6-12.9-1.7-25.9-1.8-38.8-.4-86.5,9.7-148.9,88.3-139.1,175.1,3.8,33.4,17.7,64.2,40.3,89l9,9.9,11.2,8.7c32.7,25.4,73.2,36.8,114.2,32.2,13.1-1.5,25.8-4.5,37.8-9.1,12-4.6,23.2-10.4,33.4-17.4,20.5-14.1,37.5-32.9,49.3-54.5l7.1-12.7-79.2-43.7Z"/>
            <path d="M1334,1294.1c-58.8,6.6-112.1-36-118.9-95.1-2.1-19,.9-38.4,8.7-56.1l2.6-5.8,5.7,2.8c1.2.6,2.5.8,3.7.7,3.6-.4,6.3-3.7,5.8-7.4-.2-1.9-1.2-3.5-2.7-4.6l-5.1-3.7,3.9-4.9c17.8-22.7,43.5-37,72.2-40.2,17.2-1.9,34.9.4,51.2,6.8,15.7,6.2,29.9,16.2,41.1,28.7l5.6,6.2-29.2,26.1-5.6-6.2c-14.9-16.7-36.9-25.2-58.8-22.7-37.5,4.2-64.5,38.3-60.2,76,4.2,37.6,38.2,64.8,75.6,60.6,22-2.5,41.5-15.6,52.2-35.2l4.1-7.4,21.6,12-3.1,5.4c-.5.9-1.1,2.3-.9,4.1.3,2.4,1.8,4.4,4,5.4l6.7,3-4.2,6c-7.7,11-17,20.3-27.6,27.5-14.3,9.8-31,16.1-48.4,18Z"/>
            <path class="st7" d="M1333.4,1288c16.3-1.8,32.2-7.7,45.7-17,10.2-6.9,19-15.8,26.1-25.9-4-1.8-7-5.6-7.6-10.3-.3-2.9,2-4.7,3.3-7l-12.6-7-1.2,2.1c-11.7,21.3-33,35.6-56.8,38.3-40.8,4.6-77.7-25.1-82.3-65.9-4.6-41,24.9-78.1,65.6-82.7,23.9-2.7,47.7,6.5,63.9,24.7l1.6,1.7,20.1-18-1.6-1.7c-10.6-12-24-21.3-38.7-27.1-15.3-6-31.9-8.3-48.3-6.4-27.9,3.1-52,17.4-68.1,37.9,2.8,2,4.7,5.1,5.2,8.8.8,7-4.3,13.3-11.2,14.1-2.5.3-4.9-.2-7.1-1.2-7.1,16.1-10.3,34.2-8.2,52.9,6.4,55.8,56.6,96,112.2,89.8Z"/>
            <path d="M1339.1,1338.3c-39.4,4.4-78.4-6.6-109.8-31l-4.6-3.6,3.4-4.7c1.1-1.5,1.6-3.3,1.4-4.9-.4-3.7-3.7-6.3-7.3-5.9-1.4.2-2.7.7-3.8,1.7l-4.5,4-4-4.4c-21.7-23.8-35.1-53.4-38.7-85.6-9.4-83.5,50.6-159,133.7-168.4,12.4-1.4,24.9-1.3,37.3.4,11.9,1.7,23.6,4.7,35,9.2,18.5,7.3,36,18.6,50.4,32.7l4.5,4.4-4.5,4.4c-1.5,1.5-2.3,3.6-2.1,5.6s.7,2.7,1.7,3.8l4.3,4.5-19.7,17.6-5.6-6.2c-24.4-27.5-60.6-41.4-96.8-37.4-61.8,7-106.3,63.1-99.3,125.1,7,62,62.9,106.8,124.7,99.9,36.2-4.1,68.3-25.7,86.1-57.9l4.1-7.4,34.3,18.9-4.1,7.4c-11.3,20.7-27.7,38.9-47.4,52.4-9.7,6.7-20.5,12.4-32.1,16.8-11.6,4.4-23.8,7.4-36.3,8.8Z"/>
            <path class="st9" d="M1412.2,1109.4l10.6-9.4c-1.8-1.9-2.9-4.4-3.3-7.2-.5-4.1,1.1-8,3.9-10.7-13.9-13.5-30.4-24.3-48.4-31.4-10.8-4.2-22.1-7.2-33.6-8.8-11.8-1.6-23.8-1.7-35.8-.3-79.9,9-137.4,81.5-128.4,161.7,3.6,31.8,17.1,60.1,37.2,82.2,1.9-1.7,4.4-2.8,7.1-3.2,6.9-.8,13.3,4.3,14.1,11.3s-.6,6.6-2.5,9.2c29,22.5,66.3,34.2,105.4,29.7,12-1.4,23.7-4.2,34.9-8.4,10.8-4.1,21.2-9.4,30.8-16.1,18.8-12.9,34.6-30.3,45.6-50.4l1.2-2.1-23.6-13.1-1.2,2.1c-18.7,33.9-52.5,56.7-90.7,61-65.1,7.3-124-39.8-131.4-105.2-7.4-65.4,39.6-124.5,104.7-131.8,38.2-4.3,76.3,10.3,102,39.3l1.6,1.7Z"/>
            <path class="st6" d="M1320.5,1174.2c-6.9.8-12,7.1-11.2,14.1.8,7,7.1,12,14.1,11.3s12-7.1,11.2-14.1c-.8-7.1-7.1-12-14.1-11.3Z"/>
            <path d="M1298.1,1245.6c-21.5-8.8-36.4-28.6-39-51.7-1.9-16.8,2.9-33.3,13.4-46.6,10.5-13.2,25.5-21.6,42.3-23.5,16.7-1.9,33.2,2.9,46.4,13.5,13.2,10.6,21.5,25.6,23.4,42.4,2.6,23.2-7.6,45.8-26.6,59.1l-7.3,4.8-22.2-32,6.9-4.9c7.3-5.1,11.2-13.7,10.2-22.5-1.5-13.2-13.4-22.8-26.5-21.3-13.1,1.5-22.6,13.4-21.1,26.7,1,8.8,6.7,16.4,14.9,19.7l7.8,3.2-14.6,36.4-7.9-3.3Z"/>
            <path class="st8" d="M1354.5,1233.9c17.2-12,26.4-32.5,24-53.4-1.7-15.2-9.2-28.8-21.2-38.4-11.9-9.6-26.8-13.9-42-12.2-15.2,1.7-28.7,9.2-38.2,21.2-9.5,12-13.8,26.9-12.1,42.1,2.4,20.9,15.9,38.8,35.3,46.7l2.2.9,10.1-25.1-2.2-.9c-10.3-4.2-17.4-13.7-18.7-24.6-1.9-16.6,10-31.5,26.5-33.4,16.5-1.9,31.4,10.1,33.3,26.6,1.2,11-3.6,21.8-12.7,28.2l-2,1.4,15.4,22.2,2.2-1.4Z"/>
            <path class="st29" d="M1234.1,1125.2c-4.7.5-8.2,4.9-7.7,9.6.5,4.8,4.9,8.2,9.6,7.7s8.2-4.9,7.7-9.6c-.5-4.9-4.9-8.2-9.6-7.7Z"/>
          </g>
          <path d="M1230.2,1155.5c-.9,0-1.8,0-2.7,0-6.7-.5-13-3.5-17.7-8.4-4.4-4.7-6.9-10.9-7.1-17.3s.5-7.4,2-10.9c4-9.7,13.3-16.2,23.8-16.5,14.7-.5,27,11.1,27.4,25.8.2,5.9-1.5,11.5-4.9,16.3-4.9,6.8-12.5,10.9-20.8,11.2Z"/>
          <path class="st5" d="M1228.8,1113.2c-6.4.2-11.7,4.2-14,9.7-.8,2-1.2,4.1-1.2,6.4.1,3.9,1.7,7.5,4.2,10.1,2.6,2.8,6.3,4.7,10.4,5,.5,0,1,0,1.6,0,5.1-.2,9.5-2.7,12.2-6.6,1.9-2.7,3-6,2.9-9.6-.3-8.6-7.5-15.4-16.1-15.1Z"/>
          <path d="M1413,1277.3c-.9,0-1.8,0-2.7,0-6.7-.5-13-3.5-17.7-8.4-4.4-4.7-6.9-10.9-7.1-17.3-.1-3.8.5-7.4,2-10.9,4-9.7,13.3-16.2,23.8-16.5,14.7-.5,27,11.1,27.4,25.8.2,5.9-1.5,11.5-4.9,16.3-4.9,6.8-12.5,10.9-20.8,11.2Z"/>
          <path class="st5" d="M1411.7,1235.1c-6.4.2-11.7,4.2-14,9.7-.8,2-1.2,4.1-1.2,6.4.1,3.9,1.7,7.5,4.2,10.1,2.6,2.8,6.3,4.7,10.4,5,.5,0,1,0,1.6,0,5.1-.2,9.5-2.7,12.2-6.6,1.9-2.7,3-6,2.9-9.6-.3-8.6-7.5-15.4-16.1-15.1Z"/>
          <path d="M1233.2,1309.9c-.9,0-1.8,0-2.7,0-6.7-.5-13-3.5-17.7-8.4-4.4-4.7-6.9-10.9-7.1-17.3s.5-7.4,2-10.9c4-9.7,13.3-16.2,23.8-16.5,14.7-.5,27,11.1,27.4,25.8.2,5.9-1.5,11.5-4.9,16.3-4.9,6.8-12.5,10.9-20.8,11.2Z"/>
          <path class="st5" d="M1231.9,1267.7c-6.4.2-11.7,4.2-14,9.7-.8,2-1.2,4.1-1.2,6.4.1,3.9,1.7,7.5,4.2,10.1,2.6,2.8,6.3,4.7,10.4,5,.5,0,1,0,1.6,0,5.1-.2,9.5-2.7,12.2-6.6,1.9-2.7,3-6,2.9-9.6-.3-8.6-7.5-15.4-16.1-15.1Z"/>
          <path d="M1411.2,1117.7c-.9,0-1.8,0-2.7,0-6.7-.5-13-3.5-17.7-8.4-4.4-4.7-6.9-10.9-7.1-17.3-.1-3.8.5-7.4,2-10.9,4-9.7,13.3-16.2,23.8-16.5,14.7-.5,27,11.1,27.4,25.8.2,5.9-1.5,11.5-4.9,16.3-4.9,6.8-12.5,10.9-20.8,11.2Z"/>
          <path class="st5" d="M1409.9,1075.4c-6.4.2-11.7,4.2-14,9.7-.8,2-1.2,4.1-1.2,6.4.1,3.9,1.7,7.5,4.2,10.1,2.6,2.8,6.3,4.7,10.4,5,.5,0,1,0,1.6,0,5.1-.2,9.5-2.7,12.2-6.6,1.9-2.7,3-6,2.9-9.6-.3-8.6-7.5-15.4-16.1-15.1Z"/>
        </g>
      </g>
    </g>
  </g>
</svg>