<?xml version="1.0" encoding="UTF-8"?>
<svg id="Layer_1" xmlns="http://www.w3.org/2000/svg" width="790" height="321" version="1.1" viewBox="0 0 790 321">
  <!-- Generator: Adobe Illustrator 29.0.0, SVG Export Plug-In . SVG Version: 2.1.0 Build 186)  -->
  <defs>
    <style>
      .st0 {
        fill: #757575;
      }

      .st1, .st2, .st3, .st4, .st5, .st6, .st7 {
        fill-rule: evenodd;
      }

      .st1, .st8 {
        fill: #19aac0;
      }

      .st2 {
        fill: #fff;
      }

      .st3 {
        fill: #ed8592;
      }

      .st4 {
        fill: #aadae3;
      }

      .st5 {
        fill: #5bc4d4;
      }

      .st7 {
        fill: #dbdbdb;
      }
    </style>
  </defs>
  <g>
    <path class="st5" d="M85.7,55.5c-2.6,10.3-4.4,24.1-4.4,49.8,0,2.4-1.5,7.8-4.7,7.4-7.2-.7-14.3-5.6-16.5-20.2C51.4,36.7-1,56.8,11.6,101c8.5,29.9,32.4,44.4,53.9,45.8-8.8,21.1-17.6,43-13.6,65h0s0,.3,0,.3c.4,2,.9,4.1,1.5,6.1,1.3,7.9-1.1,13.2-12.9,16.2-14.7,3.7-38.1,0-39.7,25-1.6,25,15.3,57.3,42.6,60.5,27.4,3.2,66.3-11,62.6-32.6-2.2-13.1-10.1-21-11.9-28.1-2.2-8.5,3.4-11.6,10.3-12.5,27.4-3.9,40.3-11.2,63.5-28.2,52.8-38.7,76.5-135.3,39.9-189.2C194.2,9.1,172.1-.2,150.2.8c-32.3,1.3-55.7,19.8-64.5,54.8Z"/>
    <path class="st1" d="M117.3,87.6c.5,18.4,19.5,19.7,27.6,11,8.2-8.7,9.5-4.7,20.8,3.2,17,11.9,37.3-16.7,9.7-37.2-7.2-5.4-16.4-8.4-25.2-7.7-17,1.2-33.4,13.3-32.9,30.7Z"/>
    <path class="st1" d="M16.8,66.6c-6.3,7.4-9.4,19.6-5.2,34.4,8.5,29.9,32.4,44.4,53.9,45.8l-.2.6c3.7-5.9-9.5-5.9-24.2-16.9-13.8-10.3-29.4-30.5-24.2-63.9Z"/>
    <path class="st1" d="M53.7,221.5c0,4.9-1.9,8.5-7.8,11.1,38.7,24.9,34.2,63.9,11.3,87.5,24.9-1.8,51.9-14.7,48.8-32.8-2.2-13.1-10.1-21-11.9-28.1-2.2-8.5,3.4-11.6,10.3-12.5,27.4-3.9,40.3-11.2,63.5-28.2,7.5-5.5,14.4-12.1,20.6-19.7-11.5-1.3-21-1.6-21-1.6-15.8,19.1-32.5,31.8-48.3,38.3-10.4,4.3-22.1,8-32.7,6.9-12.9-1.3-24.5-8.9-32.8-20.8Z"/>
    <path class="st6" d="M86.3,55.7c-1.4,5.6-2.6,12.2-3.4,21.3-.7,7.8-1.1,17.4-1,29.6,0,9.9-10.7,6.9-15.3,2.5-3.4-3.2-6.1-8.4-7.3-16.4-1.4-9.3-4.4-18.8-9.2-25.2-7.7-10.2-23.5-9.6-32.3-1.3-3.1,2.9-5.6,6.8-6.9,12.2-1.4,5.8-1.3,13.2,1.4,22.5,3.9,13.7,11.1,24.2,19.8,31.6,10,8.5,22.1,13,33.5,13.7h1c0,0-.4,1-.4,1-4.4,10.5-8.8,21.2-11.5,32-2.3,8.8-3.5,17.7-2.8,26.7.2,3.1.7,6.2,1.4,9.2.2,1,.5,2,.8,3h0s0,0,0,0c.7,4.1.4,7.6-1.6,10.5-2,2.8-5.7,5-11.7,6.5-3.2.8-6.7,1.2-10.3,1.7-13.2,1.7-27.6,3.5-28.8,22.6-.8,13.2,3.5,28.4,11.9,40.3,7.3,10.3,17.6,18,30.1,19.5,6.9.8,14.6.5,22.2-.8,9.9-1.7,19.5-5,26.8-9.6,7.2-4.5,12.2-10.3,13-16.9.2-1.5.1-3-.1-4.5-1.3-7.8-4.7-13.8-7.6-18.8-1.9-3.4-3.6-6.3-4.3-9.2-1.2-4.5-.2-7.6,1.9-9.8,2.1-2.1,5.4-3.1,9-3.6,13.7-1.9,23.7-4.7,33.1-9.1,9.5-4.4,18.5-10.5,30.1-19,26.7-19.6,46-54.1,53.6-90.4,7.4-35,4-71.5-13.9-97.8-6.5-9.6-15-16.7-24.5-21.4-10.1-5-21.4-7.2-32.6-6.7-16.2.7-30.1,5.7-41.1,15-10.7,9.1-18.5,22.2-22.8,39.3h0ZM81.6,76.8c.8-9.1,2-15.8,3.4-21.5,4.4-17.4,12.4-30.7,23.3-40C119.4,5.9,133.7.8,150.2,0c11.4-.5,22.9,1.8,33.3,6.9,9.7,4.8,18.4,12,25,21.9,18.1,26.6,21.5,63.6,14.1,98.9-7.7,36.6-27.1,71.4-54.2,91.2-11.7,8.6-20.7,14.7-30.3,19.1-9.6,4.5-19.7,7.3-33.5,9.2-3.3.5-6.3,1.4-8.2,3.3-1.8,1.8-2.6,4.4-1.6,8.4.7,2.7,2.3,5.6,4.2,8.9,2.9,5.1,6.4,11.2,7.7,19.3.3,1.7.3,3.3.1,4.9-.8,7.1-6.1,13.2-13.6,17.9-7.5,4.7-17.3,8.1-27.3,9.8-7.7,1.3-15.5,1.6-22.6.8-13-1.5-23.6-9.5-31.1-20.1C3.7,288.4-.7,272.8.1,259.3c1.3-20.3,16.4-22.2,30.1-23.9,3.6-.5,7.1-.9,10.2-1.7,5.7-1.4,9.1-3.4,10.9-6,1.8-2.5,2-5.6,1.4-9.4-.3-1-.6-2.1-.8-3.1-.8-3.4-1.2-5.8-1.5-9.3-.7-9.1.5-18.2,2.8-27.2,2.7-10.6,7-21.1,11.2-31.3-11.4-.9-23.3-5.5-33.3-14-8.9-7.6-16.2-18.2-20.2-32.2-2.7-9.6-2.8-17.2-1.4-23.2,1.4-5.6,4.1-9.8,7.3-12.9,9.6-9,26-9.6,34.4,1.5,4.9,6.5,8,16.3,9.4,25.8,1.2,7.7,3.7,12.6,6.9,15.6,2.1,2,4.6,3.2,7.1,3.7,3.3.7,5.9-1.7,5.9-4.6,0-12.6.4-22.3,1-30.3Z"/>
    <path class="st6" d="M140.9,90.6c1.7,17.2,10.4,22.8,16.9,18.7,6.5-4.1,8.7-21.7,8.7-21.7,0,0-14.3-19.3-25.6,3Z"/>
    <path class="st6" d="M141.6,90.8c.6,6.1,2.1,10.7,4.1,13.8,1.2,1.9,2.6,3.3,4.1,4.2,1.4.8,2.9,1.2,4.4,1,1.1-.1,2.2-.5,3.2-1.1,5.7-3.6,8-18.7,8.4-20.9-1.6-2-14.1-16.7-24.1,3h0ZM144.5,105.4c-2.1-3.4-3.7-8.2-4.3-14.7v-.2s0-.2,0-.2c11.8-23.4,26.7-3.2,26.8-3.1l.2.2v.3c0,0-2.3,18-9.1,22.2-1.2.8-2.5,1.2-3.8,1.3-1.7.2-3.5-.2-5.2-1.2-1.6-1-3.2-2.5-4.5-4.7Z"/>
    <path class="st7" d="M119.3,66.7c11.8,0,21.4-9.6,21.4-21.4s-9.6-21.4-21.4-21.4-21.4,9.6-21.4,21.4,9.6,21.4,21.4,21.4Z"/>
    <path class="st2" d="M119.3,23.8c-10.8,0-19.8,8.1-21.2,18.5,1.4,10.5,10.4,18.5,21.2,18.5s19.8-8.1,21.2-18.5c-1.4-10.5-10.4-18.5-21.2-18.5Z"/>
    <path class="st6" d="M119.3,24.5c-5.7,0-10.9,2.3-14.7,6.1-3.7,3.7-6.1,8.9-6.1,14.7s2.3,10.9,6.1,14.7c3.7,3.7,8.9,6.1,14.7,6.1s10.9-2.3,14.7-6.1c3.7-3.7,6.1-8.9,6.1-14.7s-2.3-10.9-6.1-14.7c-3.7-3.7-8.9-6.1-14.7-6.1h0ZM103.6,29.6c4-4,9.5-6.5,15.6-6.5s11.6,2.5,15.6,6.5c4,4,6.5,9.5,6.5,15.6s-2.5,11.6-6.5,15.6c-4,4-9.5,6.5-15.6,6.5s-11.6-2.5-15.6-6.5c-4-4-6.5-9.5-6.5-15.6s2.5-11.6,6.5-15.6Z"/>
    <path class="st6" d="M119.3,52.5c4,0,7.3-3.3,7.3-7.3s-3.3-7.3-7.3-7.3-7.3,3.3-7.3,7.3,3.3,7.3,7.3,7.3Z"/>
    <path class="st6" d="M119.3,38.7c-1.8,0-3.5.7-4.6,1.9-1.2,1.2-1.9,2.8-1.9,4.6s.7,3.5,1.9,4.6c1.2,1.2,2.8,1.9,4.6,1.9s3.5-.7,4.6-1.9c1.2-1.2,1.9-2.8,1.9-4.6s-.7-3.5-1.9-4.6c-1.2-1.2-2.8-1.9-4.6-1.9h0ZM113.6,39.6c1.4-1.4,3.4-2.3,5.6-2.3s4.2.9,5.6,2.3c1.4,1.4,2.3,3.4,2.3,5.6s-.9,4.2-2.3,5.6c-1.4,1.4-3.4,2.3-5.6,2.3s-4.2-.9-5.6-2.3c-1.4-1.4-2.3-3.4-2.3-5.6s.9-4.2,2.3-5.6Z"/>
    <path class="st2" d="M121.6,48.5c1.1,0,1.9-.9,1.9-1.9s-.9-1.9-1.9-1.9-1.9.9-1.9,1.9.9,1.9,1.9,1.9Z"/>
    <path class="st7" d="M184.5,66.7c11.8,0,21.4-9.6,21.4-21.4s-9.6-21.4-21.4-21.4-21.4,9.6-21.4,21.4,9.6,21.4,21.4,21.4Z"/>
    <path class="st2" d="M184.5,23.8c-10.8,0-19.8,8.1-21.2,18.5,1.4,10.5,10.4,18.5,21.2,18.5s19.8-8.1,21.2-18.5c-1.4-10.5-10.4-18.5-21.2-18.5Z"/>
    <path class="st6" d="M184.5,24.5c-5.7,0-10.9,2.3-14.7,6.1-3.7,3.7-6.1,8.9-6.1,14.7s2.3,10.9,6.1,14.7c3.7,3.7,8.9,6.1,14.7,6.1s10.9-2.3,14.7-6.1c3.7-3.7,6.1-8.9,6.1-14.7s-2.3-10.9-6.1-14.7c-3.7-3.7-8.9-6.1-14.7-6.1h0ZM168.9,29.6c4-4,9.5-6.5,15.6-6.5s11.6,2.5,15.6,6.5c4,4,6.5,9.5,6.5,15.6s-2.5,11.6-6.5,15.6c-4,4-9.5,6.5-15.6,6.5s-11.6-2.5-15.6-6.5c-4-4-6.5-9.5-6.5-15.6s2.5-11.6,6.5-15.6Z"/>
    <path class="st6" d="M184.5,52.5c4,0,7.3-3.3,7.3-7.3s-3.3-7.3-7.3-7.3-7.3,3.3-7.3,7.3,3.3,7.3,7.3,7.3Z"/>
    <path class="st6" d="M184.5,38.7c-1.8,0-3.5.7-4.6,1.9-1.2,1.2-1.9,2.8-1.9,4.6s.7,3.5,1.9,4.6c1.2,1.2,2.8,1.9,4.6,1.9s3.5-.7,4.6-1.9c1.2-1.2,1.9-2.8,1.9-4.6s-.7-3.5-1.9-4.6c-1.2-1.2-2.8-1.9-4.6-1.9h0ZM178.9,39.6c1.4-1.4,3.4-2.3,5.6-2.3s4.2.9,5.6,2.3c1.4,1.4,2.3,3.4,2.3,5.6s-.9,4.2-2.3,5.6c-1.4,1.4-3.4,2.3-5.6,2.3s-4.2-.9-5.6-2.3c-1.4-1.4-2.3-3.4-2.3-5.6s.9-4.2,2.3-5.6Z"/>
    <path class="st2" d="M186.8,48.5c1.1,0,1.9-.9,1.9-1.9s-.9-1.9-1.9-1.9-1.9.9-1.9,1.9.9,1.9,1.9,1.9Z"/>
    <path class="st5" d="M117.3,82.1c.5,18.4,19.5,19.7,27.6,11,8.2-8.7,9.5-4.7,20.8,3.2,17,11.9,37.3-16.7,9.7-37.2-7.2-5.4-16.4-8.4-25.2-7.7-17,1.2-33.4,13.3-32.9,30.7Z"/>
    <path class="st5" d="M188.5,77.3c-1.3-6-5.3-12.4-13.1-18.2-7.2-5.4-16.4-8.4-25.2-7.7-15.2,1.1-29.9,10.9-32.5,25.4,2,10.8,12.3,15.3,20,12.5,11.5-4.2,14.9-8.9,26.9-.5,9.7,6.7,21.6-1,24-11.4Z"/>
    <path class="st6" d="M118,82c.2,5.5,2,9.4,4.7,11.9,1.4,1.3,3,2.3,4.8,2.9,1.8.6,3.6.9,5.5.8,4.3-.1,8.6-1.9,11.5-4.9,7.2-7.7,9.4-6.1,16.8-.5,1.4,1.1,3,2.3,4.9,3.6,5,3.5,10.3,3.3,14.5.8,1.9-1.2,3.6-2.8,4.9-4.9,1.3-2,2.2-4.5,2.6-7.1,1.1-7.5-2.2-16.8-13.1-24.9-3.6-2.7-7.7-4.8-12-6.1-4.2-1.3-8.5-1.8-12.8-1.5-8.7.6-17.3,4.2-23.5,9.9-5.5,5.1-9,12-8.8,20.1h0ZM121.7,94.9c-2.9-2.8-4.9-7-5.1-12.8-.2-8.5,3.4-15.7,9.2-21.1,6.4-5.9,15.3-9.6,24.3-10.3,4.4-.3,9,.3,13.3,1.6,4.4,1.4,8.7,3.5,12.4,6.3,11.4,8.4,14.8,18.3,13.6,26.2-.4,2.8-1.4,5.4-2.8,7.7-1.4,2.2-3.3,4-5.4,5.3-4.6,2.8-10.5,3-16-.9-1.9-1.3-3.5-2.5-4.9-3.6-6.7-5-8.6-6.4-15,.3-3.1,3.3-7.8,5.3-12.4,5.4-2,0-4.1-.2-6-.9-1.9-.7-3.7-1.7-5.3-3.2Z"/>
    <path class="st6" d="M143.5,57.3c-1.7.7-2.3,3.1-1.4,5.2.9,2.2,3,3.3,4.7,2.6,1.7-.7,2.3-3.1,1.4-5.2-.9-2.2-3-3.3-4.7-2.6Z"/>
    <path class="st6" d="M162.8,57.3c1.7.7,2.3,3.1,1.4,5.2-.9,2.2-3,3.3-4.7,2.6-1.7-.7-2.3-3.1-1.4-5.2.9-2.2,3-3.3,4.7-2.6Z"/>
    <path class="st4" d="M98,126.3c-13.3,8.6-25.9,30-31,59.2-8.4,48.4,27.4,68.4,75.8,30.5,34.6-27.1,36.8-46.6,30.5-63.7-10.6-28.9-53.2-40.5-75.3-26.1Z"/>
    <path class="st5" d="M191.7,216c31.8-18.1,37.8-52.1,28.3-74.2-9.5-22-31.3-.4-31.7,4.3-.5,4.7-.4,18.2-16.3,24.9-52.2,21.7-20.2,67.7,19.8,45Z"/>
    <path class="st1" d="M191.7,216c23.6-13.4,33-35.6,32.4-55.1-3.7,27.7-24.5,44.5-43.3,48.8-16.4,3.7-30.7-2.8-35.5-13.8-4.6,19,19,35.7,46.4,20.1Z"/>
    <path class="st6" d="M191.4,215.4c14.5-8.3,23.6-19.8,28.2-32,5.5-14.3,4.9-29.5-.2-41.3-2-4.6-4.5-7.2-7.1-8.4-2.5-1.2-5.3-1.1-8-.4-2.7.8-5.4,2.3-7.8,4.1-4.3,3.2-7.3,7.2-7.5,8.8,0,.2,0,.6,0,1.1-.4,5.6-1.4,18-16.7,24.4-17.4,7.2-25.3,17.1-26.6,26.2-.6,4,.1,7.9,1.8,11.3,1.7,3.4,4.5,6.3,8.1,8.5,8.6,5.2,21.7,5.9,35.8-2.2h0ZM220.9,183.9c-4.8,12.5-14,24.3-28.8,32.7-14.6,8.3-28.2,7.6-37.2,2.2-3.8-2.3-6.8-5.4-8.6-9-1.9-3.6-2.6-7.8-2-12.1,1.4-9.5,9.5-19.8,27.4-27.3,14.5-6,15.4-17.9,15.8-23.2,0-.4,0-.7,0-1.1.2-1.9,3.5-6.3,8.1-9.8,2.5-1.9,5.3-3.5,8.2-4.3,3-.8,6.1-.9,8.9.4,3,1.4,5.7,4.2,7.9,9.1,5.2,12.1,5.8,27.6.2,42.3Z"/>
    <path class="st3" d="M143.9,102.6c4.2-5.1,10-6.2,14.7-3.7,1.5.8,2.8,2.1,4,3.7-1.2,2.9-2.8,5.4-4.8,6.7-4.6,2.9-10.4.9-13.9-6.6Z"/>
    <path class="st6" d="M143.3,102.2c2.2-2.6,4.7-4.2,7.4-4.9,2.8-.7,5.7-.3,8.2,1,.8.4,1.6,1,2.3,1.6.7.7,1.3,1.4,1.9,2.2l.2.3-.2.4c-.6,1.5-1.4,2.9-2.2,4.1-.9,1.2-1.8,2.2-2.9,2.9-.3.2-.7.4-1.1.6h0c-2.1,1-4.4,1.1-6.6.2-2.2-.8-4.2-2.6-5.9-5.3-.5-.7-.9-1.5-1.3-2.4l-.2-.4.3-.3h0ZM151,98.7c-2.2.6-4.4,1.9-6.3,4.1.3.7.7,1.3,1,1.8,1.5,2.5,3.4,4,5.3,4.8,1.8.7,3.7.6,5.5-.2h0c.3-.1.6-.3.9-.5.9-.6,1.7-1.4,2.5-2.5.7-1,1.3-2.2,1.9-3.5-.5-.6-1-1.2-1.5-1.7h0c-.6-.6-1.3-1.1-2-1.4-2.3-1.2-4.8-1.5-7.3-.9Z"/>
    <path class="st6" d="M143.8,46.6c-.2,0-.4,0-.4-.3,0-.2,0-.4.3-.4,2.3-.6,5.4-1.1,8.7-1.1s5.3.3,7.9,1.1c.2,0,.3.3.2.4,0,.2-.3.3-.4.2-2.6-.8-5.2-1.1-7.7-1.1s-6.2.5-8.5,1.1Z"/>
    <path class="st6" d="M148,42.3c-.2,0-.4,0-.4-.3,0-.2,0-.4.3-.4,2.3-.4,6.3-.6,8.5,0,.2,0,.3.2.3.4,0,.2-.2.3-.4.3-2.1-.5-6.1-.3-8.3,0Z"/>
    <path class="st5" d="M183.8,143.1c4.7-.8,8.7,4.2,8.7,4.2l23.9-8.4-.8-10.3s-21-18.4-31.8,14.5Z"/>
    <path class="st6" d="M148.8,113.3c-.2,0-.4,0-.4.3,0,.2.1.4.3.4,2.3.4,6.3.6,8.5,0,.2,0,.3-.2.3-.4,0-.2-.2-.3-.4-.3-2.1.5-6.1.3-8.3,0Z"/>
    <path class="st6" d="M123.9,81.7c.5-.4,1.3-.3,1.7.2.4.5.3,1.3-.2,1.7-.5.4-1.3.3-1.7-.2-.4-.5-.3-1.3.2-1.7Z"/>
    <path class="st6" d="M127.7,86.8c.5-.4,1.3-.3,1.7.2.4.5.3,1.3-.2,1.7-.5.4-1.3.3-1.7-.2-.4-.5-.3-1.3.2-1.7Z"/>
    <path class="st6" d="M129.3,81.8c.5-.4,1.3-.3,1.7.2.4.5.3,1.3-.2,1.7-.5.4-1.3.3-1.7-.2-.4-.5-.3-1.3.2-1.7Z"/>
    <path class="st6" d="M181.3,81.7c-.5-.4-1.3-.3-1.7.2-.4.5-.3,1.3.2,1.7.5.4,1.3.3,1.7-.2.4-.5.3-1.3-.2-1.7Z"/>
    <path class="st6" d="M177.4,86.8c-.5-.4-1.3-.3-1.7.2-.4.5-.3,1.3.2,1.7.5.4,1.3.3,1.7-.2.4-.5.3-1.3-.2-1.7Z"/>
    <path class="st6" d="M175.8,81.8c-.5-.4-1.3-.3-1.7.2-.4.5-.3,1.3.2,1.7.5.4,1.3.3,1.7-.2.4-.5.3-1.3-.2-1.7Z"/>
    <path class="st6" d="M194.6,133.6c-.2.2-.5.2-.7,0-.2-.2-.2-.5,0-.7,1.9-1.9,4.8-3.3,7.9-3.7,2.8-.4,5.7,0,8.2,1.5.2.1.3.4.2.7-.1.2-.4.3-.7.2-2.3-1.4-5-1.8-7.6-1.4-2.9.4-5.6,1.7-7.3,3.4Z"/>
    <path class="st6" d="M71.9,114.3c-.2-.2-.2-.5,0-.7.2-.2.5-.2.7,0,1.5,1.5,2.8,4.1,3.5,6.8.6,2.5.7,5.1,0,7.2,0,.3-.4.4-.6.3-.3,0-.4-.4-.3-.6.6-1.9.5-4.4,0-6.7-.6-2.6-1.9-5-3.2-6.4Z"/>
    <path class="st6" d="M70.4,111.4c-.3-.1-.4-.4-.3-.7.1-.3.4-.4.7-.3,2.1.9,3.9,1.7,5.4,2.7,1.6,1,2.9,2.1,4.1,3.7.2.2.1.5,0,.7-.2.2-.5.1-.7,0-1.2-1.5-2.4-2.6-3.8-3.5-1.5-.9-3.2-1.7-5.3-2.6Z"/>
    <path class="st6" d="M71,144c.2-.2.5-.1.7,0,.2.2.1.5,0,.7-1.3,1.1-2.7,1.6-4.3,1.9-1.5.3-3.2.3-4.9.2-.3,0-.5-.2-.5-.5,0-.3.2-.5.5-.5,1.6,0,3.2,0,4.7-.2,1.4-.3,2.7-.8,3.9-1.7Z"/>
    <path class="st1" d="M46.9,304.4c-.4,10.4,9.2,10.2,13.2,5.9,2.8-3,3.6-9.1-3.7-10.8-4.4-1.1-9.3,0-9.5,4.9Z"/>
    <path class="st1" d="M33.3,310c5.2,6.4,14.9-7,2.7-6.4-4.5.2-4.8,3-2.7,6.4Z"/>
    <path class="st1" d="M32.3,282.2c-.6-5.3-6.9-5-9.5-2.5-1.9,1.8-3.8,5.2,1.3,7.8,4.4,2.2,8.6-.9,8.2-5.3Z"/>
    <path class="st1" d="M18.3,297.4c5.2,6.4,14.9-7,2.7-6.4-4.5.2-4.8,3-2.7,6.4Z"/>
    <path class="st1" d="M7.2,273.6c-.8,8.2,9.9,7,11.2,2.2.4-1.7,1.1-4.5-2-6.5-4-2.7-8.7-.3-9.2,4.3Z"/>
    <path class="st1" d="M7.2,259.9c-.8,3.8,4.6,5.3,6.3,3.4.8-.9,2.3-2.7.3-5.3-2.3-3-5.9-1.3-6.6,1.9Z"/>
    <path class="st1" d="M33.2,291.9c-.8,4.2,5.7,5.6,6.7,2.8,1.9-6-5.4-9.2-6.7-2.8Z"/>
    <path class="st2" d="M105.4,71.1c-.3,0-.5-.2-.5-.5,0-.3.2-.5.5-.5,11.3-.1,20.3,4.4,20.3,4.4.2.1.3.4.2.7-.1.2-.4.3-.7.2,0,0-8.8-4.4-19.9-4.3Z"/>
    <path class="st2" d="M201.8,70.1c.3,0,.5.2.5.5,0,.3-.2.5-.5.5-11.1-.1-19.9,4.3-19.9,4.3-.2.1-.5,0-.7-.2-.1-.2,0-.5.2-.7,0,0,9-4.5,20.3-4.4Z"/>
    <path class="st2" d="M203.5,81.2c.3,0,.4.4.3.6,0,.3-.4.4-.6.3-10.5-3.8-20.4-2.6-20.4-2.6-.3,0-.5-.2-.6-.4,0-.3.2-.5.4-.6,0,0,10.1-1.3,20.8,2.6Z"/>
    <path class="st2" d="M104.4,82.1c-.3,0-.5,0-.6-.3,0-.3,0-.5.3-.6,10.7-3.9,20.8-2.6,20.8-2.6.3,0,.5.3.4.6,0,.3-.3.5-.6.4,0,0-9.9-1.2-20.4,2.6Z"/>
    <path class="st2" d="M196.9,93.5c.2.2.2.5,0,.7-.2.2-.5.2-.7,0-6.6-5.9-14.3-7.9-14.3-7.9-.3,0-.4-.3-.4-.6,0-.3.3-.4.6-.4,0,0,7.9,2.1,14.7,8.2Z"/>
    <path class="st2" d="M109.7,94.2c-.2.2-.5.2-.7,0-.2-.2-.2-.5,0-.7,6.8-6.1,14.7-8.2,14.7-8.2.3,0,.5,0,.6.4,0,.3,0,.5-.4.6,0,0-7.7,2-14.3,7.9Z"/>
    <path class="st2" d="M126.7,63.6c-.2.2-.5.2-.7,0-.2-.2-.2-.5,0-.7.2-.2.4-.4.6-.6,7.4-6.9,16.9-10.3,26.4-10.2,9.5.1,18.8,3.7,25.8,10.8.2.2.4.4.6.6.2.2.2.5,0,.7-.2.2-.5.2-.7,0-.2-.2-.4-.4-.6-.6-6.8-6.9-15.9-10.4-25.1-10.5-9.2-.1-18.5,3.2-25.7,10-.2.2-.4.4-.6.6Z"/>
    <path class="st6" d="M57.9,227.2c-.2-.2-.1-.5.1-.7.2-.2.5-.1.7.1,3.2,4.6,8.4,8.5,14.1,11.2,6.1,3,12.7,4.6,18,4.3.3,0,.5.2.5.5,0,.3-.2.5-.5.5-5.4.3-12.2-1.4-18.4-4.4-5.8-2.8-11.2-6.8-14.5-11.6Z"/>
    <path class="st6" d="M57.6,233.5c-.2-.2-.1-.5.1-.7.2-.2.5-.1.7.1,1.5,2.1,3.4,4.1,5.6,5.9,2.3,1.9,5,3.6,7.8,5,.2.1.3.4.2.7-.1.2-.4.3-.7.2-2.9-1.4-5.6-3.2-8-5.1-2.3-1.8-4.2-3.9-5.8-6.1Z"/>
  </g>
  <g>
    <path class="st8" d="M287.3,214.5c-6.2,0-9.3-1.7-9.3-5.1v-98.6c0-3.4,3.1-5.1,9.3-5.1h4.6c3.8,0,6.5.3,8,.9,1.5.6,2.6,1.8,3.3,3.4l15.5,34.9c.8,2,1.5,3.8,2,5.6s1,3.4,1.4,4.8c.3-1.4.7-3,1.2-4.8.5-1.8,1.2-3.6,2.1-5.6l15.6-34.9c.7-1.6,1.8-2.8,3.3-3.4,1.5-.6,4.2-.9,8-.9h4.6c6.2,0,9.3,1.7,9.3,5.1v98.6c0,3.4-3.1,5.1-9.3,5.1h-3.7c-6.2,0-9.3-1.7-9.3-5.1v-45.6c0-1.4,0-2.9.2-4.3.1-1.4.3-2.8.6-4.2l-.6-.2c-.4,1.2-.9,2.5-1.5,3.6-.6,1.2-1.1,2.4-1.6,3.6l-8.7,19.8c-1.1,2.5-4.1,3.7-9,3.7h-2.6c-5.1,0-8.1-1.2-9.3-3.7l-8.2-19.8c-.4-1.1-.9-2.3-1.4-3.6-.5-1.2-1-2.5-1.5-3.7l-.6.2c.2,1.3.4,2.7.5,4.2.1,1.4.2,2.9.2,4.3v45.6c0,3.4-3.1,5.1-9.3,5.1h-3.7Z"/>
    <path class="st8" d="M400.6,215.4c-7.3,0-12.9-2.2-16.7-6.6-3.8-4.4-5.7-10.3-5.7-17.6s.4-6.1,1.2-9.4c.8-3.3,2.5-6.4,5.1-9.4s6.4-5.3,11.6-7.2c5.2-1.9,12-2.8,20.6-2.8v-2.5c0-3.3-.7-5.7-2.2-7.3-1.5-1.6-3.9-2.4-7.2-2.4s-6.9.4-9.8,1.2c-2.9.8-5.4,1.7-7.3,2.5-2,.8-3.4,1.2-4.3,1.2s-1.9-.8-2.5-2.4c-.6-1.6-1.1-3.4-1.3-5.5-.3-2.1-.4-3.7-.4-4.9s1.3-3.1,4-4.6,6.1-2.9,10.4-3.9,8.6-1.6,13-1.6c7.6,0,13.7,1.1,18.2,3.4,4.5,2.3,7.7,5.4,9.7,9.4,2,4,3,8.7,3,13.9v28.6c0,4.5.1,8.1.4,10.8.3,2.7.5,4.8.8,6.4.3,1.6.4,3,.4,4.1s-.7,2.1-2.2,2.8c-1.5.7-3.3,1.3-5.3,1.7-2.1.4-4,.7-5.8.9-1.8.2-3,.2-3.6.2-2,0-3.3-.5-4-1.6s-1.4-3.2-2-6.3c-1.1,1.8-3.2,3.7-6.1,5.8s-6.8,3.2-11.7,3.2ZM408.8,198.8c3.6,0,6.2-1.7,7.9-5.1v-18.1c-5.7,0-9.7,1.3-12,3.9-2.3,2.6-3.5,5.9-3.5,9.9s.6,5.1,1.9,6.8c1.3,1.8,3.2,2.6,5.6,2.6Z"/>
    <path class="st8" d="M461.4,214.5c-3.3,0-5.7-.4-7.2-1.3s-2.2-2.1-2.2-3.8v-49.2c0-4.5-.1-8.2-.4-10.9-.3-2.7-.5-4.9-.8-6.4s-.4-2.9-.4-4,.7-2.1,2.2-2.8c1.5-.7,3.3-1.3,5.4-1.6,2.1-.4,4.1-.6,6-.8,1.9-.2,3.3-.2,4.1-.2,1.9,0,3.1.7,3.7,2,.6,1.3,1.3,4.1,2.2,8.4,2.3-2.9,5.2-5.6,8.9-8,3.7-2.5,7.9-3.7,12.8-3.7s10.9,1.8,14.2,5.5c3.3,3.7,5,9,5,16v55.8c0,1.7-.8,2.9-2.2,3.8s-3.9,1.3-7.2,1.3h-4.3c-3.3,0-5.7-.4-7.2-1.3s-2.2-2.1-2.2-3.8v-51.2c0-2.4-.5-4.2-1.5-5.4-1-1.2-2.9-1.9-5.6-1.9s-3.4.5-5.1,1.4c-1.8.9-3.2,2.1-4.3,3.6v53.5c0,1.7-.8,2.9-2.2,3.8s-3.9,1.3-7.2,1.3h-4.3Z"/>
    <path class="st8" d="M547.5,215.4c-7.3,0-12.9-2.2-16.7-6.6-3.8-4.4-5.7-10.3-5.7-17.6s.4-6.1,1.2-9.4c.8-3.3,2.5-6.4,5.1-9.4,2.6-2.9,6.4-5.3,11.6-7.2s12-2.8,20.6-2.8v-2.5c0-3.3-.8-5.7-2.2-7.3-1.5-1.6-3.9-2.4-7.2-2.4s-6.9.4-9.8,1.2c-2.9.8-5.4,1.7-7.3,2.5-2,.8-3.4,1.2-4.3,1.2s-1.9-.8-2.5-2.4c-.6-1.6-1.1-3.4-1.3-5.5-.3-2.1-.4-3.7-.4-4.9s1.3-3.1,4-4.6c2.7-1.5,6.1-2.9,10.4-3.9,4.2-1.1,8.6-1.6,13-1.6,7.6,0,13.7,1.1,18.2,3.4,4.5,2.3,7.7,5.4,9.7,9.4,2,4,3,8.7,3,13.9v28.6c0,4.5.1,8.1.4,10.8.3,2.7.5,4.8.8,6.4.3,1.6.4,3,.4,4.1s-.8,2.1-2.2,2.8c-1.5.7-3.3,1.3-5.3,1.7-2.1.4-4,.7-5.8.9-1.8.2-3,.2-3.6.2-2,0-3.3-.5-4-1.6-.7-1.1-1.4-3.2-2-6.3-1.1,1.8-3.2,3.7-6.1,5.8s-6.8,3.2-11.7,3.2ZM555.7,198.8c3.6,0,6.2-1.7,7.9-5.1v-18.1c-5.7,0-9.7,1.3-12,3.9-2.3,2.6-3.5,5.9-3.5,9.9s.6,5.1,1.9,6.8c1.3,1.8,3.2,2.6,5.6,2.6Z"/>
    <path class="st0" d="M623.9,214.5c-6.2,0-9.3-1.7-9.3-5.1v-83.2h-17.3c-3.1,0-4.6-2.6-4.6-7.7v-4.8c0-5.2,1.5-7.7,4.6-7.7h58.6c3.1,0,4.6,2.6,4.6,7.7v4.8c0,5.2-1.5,7.7-4.6,7.7h-17.3v83.2c0,3.4-3.1,5.1-9.3,5.1h-5.4Z"/>
    <path class="st0" d="M674,214.1c-3.8,0-5.7-2.1-5.7-6.2v-95.9c0-4.1,1.9-6.2,5.7-6.2h45.5c3.1,0,4.6,2.6,4.6,7.7v4.8c0,5.2-1.5,7.7-4.6,7.7h-27.2v22.4h24.3c3,0,4.5,2.6,4.5,7.7v4.8c0,5.2-1.5,7.7-4.5,7.7h-24.3v25h27.2c3.1,0,4.6,2.6,4.6,7.7v4.8c0,5.2-1.5,7.7-4.6,7.7h-45.5Z"/>
    <path class="st0" d="M739.9,214.1c-3.8,0-5.7-2.1-5.7-6.2v-95.9c0-4.1,1.9-6.2,5.7-6.2h45.5c3.1,0,4.6,2.6,4.6,7.7v4.8c0,5.2-1.5,7.7-4.6,7.7h-27.2v22.4h24.3c3,0,4.5,2.6,4.5,7.7v4.8c0,5.2-1.5,7.7-4.5,7.7h-24.3v25h27.2c3.1,0,4.6,2.6,4.6,7.7v4.8c0,5.2-1.5,7.7-4.6,7.7h-45.5Z"/>
  </g>
</svg>