<?xml version="1.0" encoding="UTF-8" standalone="no"?>

<svg
   version="1.1"
   id="svg2"
   width="422.10666"
   height="403.13333"
   viewBox="0 0 422.10666 403.13333"
   sodipodi:docname="islet_logo_with_title.eps"
   xmlns:inkscape="http://www.inkscape.org/namespaces/inkscape"
   xmlns:sodipodi="http://sodipodi.sourceforge.net/DTD/sodipodi-0.dtd"
   xmlns="http://www.w3.org/2000/svg"
   xmlns:svg="http://www.w3.org/2000/svg">
  <defs
     id="defs6" />
  <sodipodi:namedview
     id="namedview4"
     pagecolor="#ffffff"
     bordercolor="#000000"
     borderopacity="0.25"
     inkscape:showpageshadow="2"
     inkscape:pageopacity="0.0"
     inkscape:pagecheckerboard="0"
     inkscape:deskcolor="#d1d1d1" />
  <g
     id="g8"
     inkscape:groupmode="layer"
     inkscape:label="ink_ext_XXXXXX"
     transform="matrix(1.3333333,0,0,-1.3333333,0,403.13333)">
    <g
       id="g10"
       transform="scale(0.1)">
      <path
         d="M 85.2773,954.602 C -158.621,1615.62 138.543,2424.67 748.613,2787.13 1352.93,3173.98 2208.16,3077.1 2708.03,2561.91 c 332.22,-328.69 505.48,-812.28 446.39,-1274.37 35.1,949.11 -779.8,1735.92 -1729.28,1628.89 C 480.762,2821.57 -154.621,1872.83 85.2773,954.602 v 0"
         style="fill:#f2ad23;fill-opacity:1;fill-rule:nonzero;stroke:none"
         id="path12" />
      <path
         d="m 902.313,0 h -92.856 v 463.93 h 92.856 V 0"
         style="fill:#304fa1;fill-opacity:1;fill-rule:nonzero;stroke:none"
         id="path14" />
      <path
         d="m 961.199,324.832 c 0,19.18 3.668,37.199 11.004,54.02 7.317,16.828 17.301,31.539 29.927,44.16 12.62,12.617 27.32,22.59 44.16,29.918 16.81,7.34 34.83,11 54.03,11 h 212.87 v -92.848 h -212.87 c -6.47,0 -12.52,-1.191 -18.13,-3.562 -5.6,-2.36 -10.51,-5.661 -14.71,-9.872 -4.21,-4.187 -7.5,-9.097 -9.87,-14.707 -2.37,-5.621 -3.56,-11.64 -3.56,-18.109 0,-6.492 1.19,-12.582 3.56,-18.281 2.37,-5.723 5.66,-10.68 9.87,-14.903 4.2,-4.187 9.11,-7.476 14.71,-9.847 5.61,-2.391 11.66,-3.582 18.13,-3.582 h 92.84 c 19.2,0 37.26,-3.61 54.2,-10.828 16.93,-7.219 31.71,-17.129 44.31,-29.75 12.62,-12.621 22.55,-27.411 29.78,-44.332 7.22,-16.93 10.83,-35 10.83,-54.188 0,-19.199 -3.61,-37.199 -10.83,-54.0312 -7.23,-16.8203 -17.16,-31.539 -29.78,-44.1679 C 1279.07,28.3008 1264.29,18.3398 1247.36,11 1230.42,3.67188 1212.36,0 1193.16,0 H 987.078 v 92.8516 h 206.082 c 6.49,0 12.5,1.1875 18.13,3.5586 5.6,2.3711 10.51,5.6598 14.71,9.8708 4.21,4.199 7.5,9.11 9.87,14.711 2.37,5.617 3.55,11.656 3.55,18.129 0,6.469 -1.18,12.508 -3.55,18.109 -2.37,5.61 -5.66,10.52 -9.87,14.731 -4.2,4.187 -9.11,7.488 -14.71,9.859 -5.63,2.36 -11.64,3.571 -18.13,3.571 h -92.84 c -19.2,0 -37.22,3.648 -54.03,10.98 -16.84,7.34 -31.54,17.32 -44.16,29.938 -12.626,12.613 -22.61,27.39 -29.927,44.32 -7.336,16.922 -11.004,35 -11.004,54.203"
         style="fill:#304fa1;fill-opacity:1;fill-rule:nonzero;stroke:none"
         id="path16" />
      <path
         d="M 1717.92,0 H 1393.1 v 463.93 h 92.86 V 92.8516 h 231.96 V 0"
         style="fill:#304fa1;fill-opacity:1;fill-rule:nonzero;stroke:none"
         id="path18" />
      <path
         d="m 2084.15,0 h -318.03 v 463.93 h 318.03 v -92.848 h -225.17 v -92.863 h 152.38 V 185.391 H 1858.98 V 92.8516 h 225.17 V 0"
         style="fill:#304fa1;fill-opacity:1;fill-rule:nonzero;stroke:none"
         id="path20" />
      <path
         d="m 2343.94,0 h -92.52 v 371.082 h -139.44 v 92.848 h 371.08 V 371.082 H 2343.94 V 0"
         style="fill:#304fa1;fill-opacity:1;fill-rule:nonzero;stroke:none"
         id="path22" />
      <path
         d="m 2986.36,813.109 c -7.38,1.782 -14.76,3.411 -22.13,5.2 -86.02,20.781 -172.19,44.531 -259.77,59.82 -211.42,36.672 -425.04,36.23 -635.52,0.891 C 1822.2,837.75 1578.29,779.262 1332.18,733.691 1088.27,688.41 842.785,659.012 595.574,714.391 471.578,742 334.555,815.93 250.426,897.281 c -18.051,17.219 -33.434,34.739 -45.832,52.258 9.886,-3.41 19.621,-6.828 29.508,-10.391 62.468,-22.566 125.093,-48.097 190.234,-63.386 166.687,-38.903 335.418,-40.383 503.047,-20.043 32.176,3.863 64.355,8.461 96.377,13.801 237.47,39.64 471.97,96.8 709.45,135.84 139.53,22.86 279.38,38.89 419.07,42.31 175.17,4.16 350.18,-11.73 524.4,-59.381 126.82,-34.738 231.04,-91.148 293.67,-157.219 5.81,-5.941 10.99,-11.871 16.01,-17.961"
         style="fill:#304fa1;fill-opacity:1;fill-rule:nonzero;stroke:none"
         id="path24" />
      <path
         d="m 1375.2,1241.09 -151.79,737.25 363.2,592.7 377.67,-592.7 -157.2,-737.25 H 1375.2"
         style="fill:#f2ad23;fill-opacity:1;fill-rule:nonzero;stroke:none"
         id="path26" />
      <path
         d="M 1048.59,1845.53 644.723,1997.32 986.242,1241.09 H 1186.82"
         style="fill:#f2ad23;fill-opacity:1;fill-rule:nonzero;stroke:none"
         id="path28" />
      <path
         d="m 2102.52,1845.53 403.86,151.79 -341.52,-756.23 h -200.58"
         style="fill:#f2ad23;fill-opacity:1;fill-rule:nonzero;stroke:none"
         id="path30" />
    </g>
  </g>
</svg>
