<?xml version="1.0" encoding="UTF-8"?>
<svg id="Layer_1" data-name="Layer 1" xmlns="http://www.w3.org/2000/svg" xmlns:xlink="http://www.w3.org/1999/xlink" version="1.1" viewBox="0 0 950 325">
  <defs>
    <style>
      .cls-1 {
        fill: url(#New_Gradient_Swatch-8);
      }

      .cls-1, .cls-2, .cls-3, .cls-4, .cls-5, .cls-6, .cls-7, .cls-8, .cls-9, .cls-10, .cls-11, .cls-12, .cls-13, .cls-14, .cls-15, .cls-16, .cls-17, .cls-18, .cls-19, .cls-20, .cls-21, .cls-22, .cls-23, .cls-24, .cls-25, .cls-26, .cls-27, .cls-28, .cls-29, .cls-30, .cls-31 {
        stroke-width: 0px;
      }

      .cls-2 {
        fill: url(#New_Gradient_Swatch-6);
      }

      .cls-3 {
        fill: url(#New_Gradient_Swatch-7);
      }

      .cls-4 {
        fill: url(#New_Gradient_Swatch-4);
      }

      .cls-5 {
        fill: url(#New_Gradient_Swatch-5);
      }

      .cls-6 {
        fill: url(#New_Gradient_Swatch-9);
      }

      .cls-7 {
        fill: url(#New_Gradient_Swatch-2);
      }

      .cls-8 {
        fill: url(#New_Gradient_Swatch-3);
      }

      .cls-9 {
        fill: #959595;
      }

      .cls-10 {
        fill: url(#New_Gradient_Swatch);
      }

      .cls-11 {
        fill: url(#New_Gradient_Swatch-13);
      }

      .cls-12 {
        fill: url(#New_Gradient_Swatch-10);
      }

      .cls-13 {
        fill: url(#New_Gradient_Swatch-19);
      }

      .cls-14 {
        fill: url(#New_Gradient_Swatch-12);
      }

      .cls-15 {
        fill: url(#New_Gradient_Swatch-11);
      }

      .cls-16 {
        fill: url(#New_Gradient_Swatch-14);
      }

      .cls-17 {
        fill: url(#New_Gradient_Swatch-18);
      }

      .cls-18 {
        fill: url(#New_Gradient_Swatch-17);
      }

      .cls-19 {
        fill: url(#New_Gradient_Swatch-16);
      }

      .cls-20 {
        fill: url(#New_Gradient_Swatch-15);
      }

      .cls-21 {
        fill: url(#New_Gradient_Swatch-29);
      }

      .cls-22 {
        fill: url(#New_Gradient_Swatch-26);
      }

      .cls-23 {
        fill: url(#New_Gradient_Swatch-21);
      }

      .cls-24 {
        fill: url(#New_Gradient_Swatch-24);
      }

      .cls-25 {
        fill: url(#New_Gradient_Swatch-25);
      }

      .cls-26 {
        fill: url(#New_Gradient_Swatch-27);
      }

      .cls-27 {
        fill: url(#New_Gradient_Swatch-23);
      }

      .cls-28 {
        fill: url(#New_Gradient_Swatch-28);
      }

      .cls-29 {
        fill: url(#New_Gradient_Swatch-22);
      }

      .cls-30 {
        fill: url(#New_Gradient_Swatch-20);
      }

      .cls-31 {
        fill: url(#New_Gradient_Swatch-30);
      }
    </style>
    <linearGradient id="New_Gradient_Swatch" data-name="New Gradient Swatch" x1="-13.1270183" y1="201.8076787" x2="722.0125958" y2="201.8076787" gradientUnits="userSpaceOnUse">
      <stop offset="0" stop-color="#ed1846"/>
      <stop offset=".0870934" stop-color="#e4274c"/>
      <stop offset=".2431" stop-color="#cf3e59"/>
      <stop offset=".4499" stop-color="#ab556f"/>
      <stop offset=".6999" stop-color="#75678f"/>
      <stop offset=".9837" stop-color="#0075b8"/>
      <stop offset="1" stop-color="#0076bb"/>
    </linearGradient>
    <linearGradient id="New_Gradient_Swatch-2" data-name="New Gradient Swatch" x1="-13.1270183" y1="207.2373961" x2="722.0125958" y2="207.2373961" xlink:href="#New_Gradient_Swatch"/>
    <linearGradient id="New_Gradient_Swatch-3" data-name="New Gradient Swatch" x1="-13.1270183" y1="203.2027133" x2="722.0125958" y2="203.2027133" xlink:href="#New_Gradient_Swatch"/>
    <linearGradient id="New_Gradient_Swatch-4" data-name="New Gradient Swatch" x1="-13.1270183" y1="206.2669372" x2="722.0125958" y2="206.2669372" xlink:href="#New_Gradient_Swatch"/>
    <linearGradient id="New_Gradient_Swatch-5" data-name="New Gradient Swatch" x1="-13.1270183" y1="206.7218398" x2="722.0125958" y2="206.7218398" xlink:href="#New_Gradient_Swatch"/>
    <linearGradient id="New_Gradient_Swatch-6" data-name="New Gradient Swatch" x1="-13.1270183" y1="206.7218398" x2="722.0125958" y2="206.7218398" xlink:href="#New_Gradient_Swatch"/>
    <linearGradient id="New_Gradient_Swatch-7" data-name="New Gradient Swatch" x1="-13.1270183" y1="206.7218398" x2="722.0125958" y2="206.7218398" xlink:href="#New_Gradient_Swatch"/>
    <linearGradient id="New_Gradient_Swatch-8" data-name="New Gradient Swatch" x1="-13.1270183" y1="199.8364341" x2="722.0125958" y2="199.8364341" xlink:href="#New_Gradient_Swatch"/>
    <linearGradient id="New_Gradient_Swatch-9" data-name="New Gradient Swatch" x1="-13.1270183" x2="722.0125958" xlink:href="#New_Gradient_Swatch"/>
    <linearGradient id="New_Gradient_Swatch-10" data-name="New Gradient Swatch" x1="-13.1270183" y1="206.7218398" x2="722.0125958" y2="206.7218398" xlink:href="#New_Gradient_Swatch"/>
    <linearGradient id="New_Gradient_Swatch-11" data-name="New Gradient Swatch" x1="-13.1270183" y1="206.2062835" x2="722.0125958" y2="206.2062835" xlink:href="#New_Gradient_Swatch"/>
    <linearGradient id="New_Gradient_Swatch-12" data-name="New Gradient Swatch" x1="-13.1270183" y1="206.2062835" x2="722.0125958" y2="206.2062835" xlink:href="#New_Gradient_Swatch"/>
    <linearGradient id="New_Gradient_Swatch-13" data-name="New Gradient Swatch" x1="-13.1270183" y1="198.2278985" x2="722.0125958" y2="198.2278985" xlink:href="#New_Gradient_Swatch"/>
    <linearGradient id="New_Gradient_Swatch-14" data-name="New Gradient Swatch" x1="-13.1270183" y1="203.2027133" x2="722.0125958" y2="203.2027133" xlink:href="#New_Gradient_Swatch"/>
    <linearGradient id="New_Gradient_Swatch-15" data-name="New Gradient Swatch" x1="-13.1270183" y1="203.2027133" x2="722.0125958" y2="203.2027133" xlink:href="#New_Gradient_Swatch"/>
    <linearGradient id="New_Gradient_Swatch-16" data-name="New Gradient Swatch" x1="-13.1270183" y1="206.7218398" x2="722.0125958" y2="206.7218398" xlink:href="#New_Gradient_Swatch"/>
    <linearGradient id="New_Gradient_Swatch-17" data-name="New Gradient Swatch" x1="-13.1270183" y1="206.7218398" x2="722.0125958" y2="206.7218398" xlink:href="#New_Gradient_Swatch"/>
    <linearGradient id="New_Gradient_Swatch-18" data-name="New Gradient Swatch" x1="-3.3064509" y1="162.5" x2="703.7869254" y2="162.5" xlink:href="#New_Gradient_Swatch"/>
    <linearGradient id="New_Gradient_Swatch-19" data-name="New Gradient Swatch" x1="-9.7578254" y1="94.1199512" x2="865.8045745" y2="94.1199512" xlink:href="#New_Gradient_Swatch"/>
    <linearGradient id="New_Gradient_Swatch-20" data-name="New Gradient Swatch" x1="-3.3064509" y1="96.2850601" x2="703.7869254" y2="96.2850601" xlink:href="#New_Gradient_Swatch"/>
    <linearGradient id="New_Gradient_Swatch-21" data-name="New Gradient Swatch" x1="-9.7578254" y1="96.2850601" x2="865.8045745" y2="96.2850601" xlink:href="#New_Gradient_Swatch"/>
    <linearGradient id="New_Gradient_Swatch-22" data-name="New Gradient Swatch" x1="-66.3246979" y1="30.6004608" x2="809.2838108" y2="30.6004608" xlink:href="#New_Gradient_Swatch"/>
    <linearGradient id="New_Gradient_Swatch-23" data-name="New Gradient Swatch" x1="-3.3064509" y1="38.5435909" x2="703.7869254" y2="38.5435909" xlink:href="#New_Gradient_Swatch"/>
    <linearGradient id="New_Gradient_Swatch-24" data-name="New Gradient Swatch" x1="-66.3246979" y1="38.5435909" x2="809.2838108" y2="38.5435909" xlink:href="#New_Gradient_Swatch"/>
    <linearGradient id="New_Gradient_Swatch-25" data-name="New Gradient Swatch" x1="-72.5689875" y1="265.6271015" x2="802.9934123" y2="265.6271015" xlink:href="#New_Gradient_Swatch"/>
    <linearGradient id="New_Gradient_Swatch-26" data-name="New Gradient Swatch" x1="-3.3064509" y1="261.1896783" x2="703.7869254" y2="261.1896783" xlink:href="#New_Gradient_Swatch"/>
    <linearGradient id="New_Gradient_Swatch-27" data-name="New Gradient Swatch" x1="-72.5689875" y1="261.1896783" x2="802.9934123" y2="261.1896783" xlink:href="#New_Gradient_Swatch"/>
    <linearGradient id="New_Gradient_Swatch-28" data-name="New Gradient Swatch" x1="-20.0563778" y1="286.9767419" x2="855.5060221" y2="286.9767419" xlink:href="#New_Gradient_Swatch"/>
    <linearGradient id="New_Gradient_Swatch-29" data-name="New Gradient Swatch" x1="-3.3064509" y1="280.085195" x2="703.7869254" y2="280.085195" xlink:href="#New_Gradient_Swatch"/>
    <linearGradient id="New_Gradient_Swatch-30" data-name="New Gradient Swatch" x1="-20.0563778" y1="280.085195" x2="855.5060221" y2="280.085195" xlink:href="#New_Gradient_Swatch"/>
  </defs>
  <g>
    <g>
      <path class="cls-9" d="M389.9465029,105.0099847h1.7172269c3.8776015,0,6.8688908-2.9359,6.8688908-6.8135015v-1.2186731l-4.2653685-.3877585v1.6064358c0,1.5510423-1.1632838,2.7697154-2.7143177,2.7697154h-1.5510339c-1.5510339,0-2.7143177-1.2186731-2.7143177-2.7697154v-10.6910989c0-1.5510423,1.1632838-2.7697154,2.7143177-2.7697154h1.5510339c1.5510339,0,2.7143177,1.2186731,2.7143177,2.7697154v1.6064358l4.2653685-.3877585v-1.2186731c0-3.8776015-2.9912892-6.8135015-6.8688908-6.8135015h-1.7172269c-3.8776015,0-6.8688908,2.9359-6.8688908,6.8135015v10.6910989c0,3.8776015,2.9912892,6.8135015,6.8688908,6.8135015v-.0000085Z"/>
      <path class="cls-9" d="M411.5502829,80.6918827h-1.7172269c-3.8776015,0-6.8688908,2.9359-6.8688908,6.8135015v10.6910989c0,3.8776015,2.9912892,6.8135015,6.8688908,6.8135015h1.7172269c3.8776015,0,6.8688908-2.9359,6.8688908-6.8135015v-10.6911031c0-3.8776015-2.9912892-6.8135015-6.8688908-6.8134973ZM414.1538052,98.1964831c0,1.5510423-1.1632838,2.7697154-2.7143177,2.7697154h-1.5510339c-1.5510339,0-2.7143177-1.2186731-2.7143177-2.7697154v-10.6911031c0-1.5510423,1.1632838-2.7697154,2.7143177-2.7697154h1.5510339c1.5510339,0,2.7143177,1.2186731,2.7143177,2.7697154v10.6911031Z"/>
      <polygon class="cls-9" points="427.3376606 88.3916923 427.5592345 89.4441808 436.8100907 105.0653781 440.6876922 105.0653781 440.6876922 80.6918827 436.3115284 80.6918827 436.3115284 97.3655685 436.0899545 96.3130758 426.7837176 80.6918827 422.9615137 80.6918827 422.9615137 105.0653781 427.3376606 105.0653781 427.3376606 88.3916923"/>
      <polygon class="cls-9" points="444.4544984 105.0653781 448.886043 105.0653781 448.886043 94.9836116 457.8599276 94.9836116 457.8599276 90.773645 448.886043 90.773645 448.886043 84.8464558 460.0203022 84.8464558 460.0203022 80.6918827 444.4544984 80.6918827 444.4544984 105.0653781"/>
      <rect class="cls-9" x="463.9533015" y="80.6918827" width="4.3761469" height="24.3734954"/>
      <path class="cls-9" d="M488.6037684,98.0302985v-10.3033404c0-3.9883885-3.1020846-7.0350754-7.0904646-7.0350754h-8.8630892v24.3734954h8.8630892c3.9883969,0,7.0904646-3.0466869,7.0904646-7.0350796ZM477.0263446,100.910805v-16.0643493h4.3761469c1.6064315,0,2.7697154,1.2740708,2.7697154,2.8805023v10.3033404c0,1.6064358-1.1632838,2.8805023-2.7697154,2.8805023l-4.3761469.0000042Z"/>
      <polygon class="cls-9" points="492.6475461 105.0653781 508.21335 105.0653781 508.21335 100.910805 497.0236931 100.910805 497.0236931 94.9836116 505.9975777 94.9836116 505.9975777 90.773645 497.0236931 90.773645 497.0236931 84.8464558 508.21335 84.8464558 508.21335 80.6918827 492.6475461 80.6918827 492.6475461 105.0653781"/>
      <polygon class="cls-9" points="516.74407 88.3916923 516.9656608 89.3887873 526.2164831 105.0099847 530.0940847 105.0099847 530.0940847 80.6918827 525.7179547 80.6918827 525.7179547 97.310175 525.4963639 96.3130758 516.190127 80.6918827 512.3679062 80.6918827 512.3679062 105.0099847 516.74407 105.0099847 516.74407 88.3916923"/>
      <polygon class="cls-9" points="534.6918393 84.8464558 540.3974462 84.8464558 540.3974462 105.0099847 544.7735763 105.0099847 544.7735763 84.8464558 550.5345978 84.8464558 550.5345978 80.6918827 534.6918393 80.6918827 534.6918393 84.8464558"/>
      <rect class="cls-9" x="555.1323186" y="80.6918827" width="4.3761638" height="24.318102"/>
      <path class="cls-9" d="M571.1412871,80.6918827l-6.7581123,24.318102h4.7085162l1.2740623-4.8193031h7.4782316l1.2740623,4.8193031h4.7085162l-6.8134931-24.318102h-5.8717831ZM571.2520824,96.423867l2.7697154-10.5803119v-.9417015l.1107954.8863081,2.7143346,10.5803119h-5.5948116l-.0000338.0553935Z"/>
      <polygon class="cls-9" points="592.6896525 80.6918827 588.3135225 80.6918827 588.3135225 105.0099847 601.6635371 105.0099847 601.6635371 100.8554116 592.6896525 100.8554116 592.6896525 80.6918827"/>
      <path class="cls-9" d="M616.9523864,80.6918827h-1.71721c-3.8776015,0-6.8689077,2.9359-6.8689077,6.8135015v10.6910989c0,3.8776015,2.9913061,6.8135015,6.8689077,6.8135015h1.71721c3.8776015,0,6.8689077-2.9359,6.8689077-6.8135015v-1.2186731l-4.2653685-.3877585v1.6064358c0,1.5510423-1.1632669,2.7697154-2.7143346,2.7697154h-1.5510339c-1.5510339,0-2.7143346-1.2186731-2.7143346-2.7697154v-10.6910989c0-1.5510423,1.1632669-2.7697154,2.7143346-2.7697154h1.5510339c1.5510339,0,2.7143346,1.2186731,2.7143346,2.7697154v1.6064358l4.2653685-.3877585v-1.2186731c0-3.8776015-2.9913061-6.8135015-6.8689077-6.8135015v-.0000085Z"/>
      <path class="cls-9" d="M643.7078303,98.1964831v-10.6911031c0-3.8776015-2.9913061-6.8135015-6.8689077-6.8135015h-1.71721c-3.8776015,0-6.8689077,2.9359-6.8689077,6.8135015v10.6911031c0,3.8776015,2.9913061,6.8135015,6.8689077,6.8135015h1.71721c3.8776015,0,6.8689077-2.9359,6.8689077-6.8135015ZM639.4424618,98.1964831c0,1.5510423-1.1632669,2.7697154-2.7143346,2.7697154h-1.5510339c-1.5510339,0-2.7143346-1.2186731-2.7143346-2.7697154v-10.6911031c0-1.5510423,1.1632669-2.7697154,2.7143346-2.7697154h1.5510339c1.5510339,0,2.7143346,1.2186731,2.7143346,2.7697154v10.6911031Z"/>
      <polygon class="cls-9" points="660.0491511 99.2489758 659.9383557 100.1352839 659.8829749 99.2489758 654.5097203 80.6918827 648.1393749 80.6918827 648.1393749 105.0653781 652.5155049 105.0653781 652.5155049 86.0651289 652.6263003 87.1176216 657.8333788 105.0653781 662.0987472 105.0653781 667.2504111 87.1176216 667.4165872 86.0651289 667.4165872 105.0653781 671.7927511 105.0653781 671.7927511 80.6918827 665.3669911 80.6918827 660.0491511 99.2489758"/>
      <path class="cls-9" d="M685.1427657,80.6918827h-9.08468v24.3734954h4.3761638v-7.9767812h4.6531354c3.9883969,0,7.0904646-3.0466869,7.0904646-7.0350754v-2.3265592c0-3.9883885-3.0466869-7.0350754-7.0350839-7.0350796ZM687.8571003,90.0535216c0,1.6064358-1.1632669,2.8805023-2.7697154,2.8805023h-4.5977208v-8.0875681h4.5977208c1.6064485,0,2.7697154,1.2740708,2.7697154,2.8805023v2.3265635Z"/>
      <path class="cls-9" d="M712.009005,98.1410896v-17.449207h-4.3207492v17.449207c0,1.6064358-1.1632669,2.8251089-2.7697154,2.8251089h-1.6064485c-1.6064485,0-2.7697154-1.2186731-2.7697154-2.8251089v-17.449207h-4.3207492v17.449207c0,3.932995,3.0466869,6.9242885,6.9796693,6.9242885h1.71721c3.9883969,0,7.0904646-2.9912935,7.0904646-6.9242885h.0000338Z"/>
      <polygon class="cls-9" points="716.3851689 84.8464558 722.1461566 84.8464558 722.1461566 105.0653781 726.5223204 105.0653781 726.5223204 84.8464558 732.2833082 84.8464558 732.2833082 80.6918827 716.3851689 80.6918827 716.3851689 84.8464558"/>
      <rect class="cls-9" x="736.4378812" y="80.6918827" width="4.3761638" height="24.318102"/>
      <polygon class="cls-9" points="749.5109582 88.3916923 749.7325151 89.4441808 759.0387859 105.0653781 762.8609728 105.0653781 762.8609728 80.6918827 758.4848428 80.6918827 758.4848428 97.3655685 758.263252 96.3130758 749.0123959 80.6918827 745.1347943 80.6918827 745.1347943 105.0653781 749.5109582 105.0653781 749.5109582 88.3916923"/>
      <path class="cls-9" d="M780.8087421,88.7240573v-1.2186731c0-3.8776015-2.9913061-6.8135015-6.8689077-6.8135015h-1.71721c-3.8776015,0-6.8689077,2.9359-6.8689077,6.8135015v10.6910989c0,3.8776015,2.9913061,6.8135015,6.8689077,6.8135015h.9970908c1.9388008,0,3.60063-.8309146,4.7085162-2.2157723l1.2186815,1.8834073h1.6618292v-13.1284535h-7.7552031v4.0437862h3.4898346v2.5481373c0,1.5510423-1.1632669,2.7697154-2.7143346,2.7697154h-1.5510339c-1.5510339,0-2.7143346-1.2186731-2.7143346-2.7697154v-10.6357096c0-1.5510423,1.1632669-2.7697154,2.7143346-2.7697154h1.5510339c1.5510339,0,2.7143346,1.2186731,2.7143346,2.7697154v1.6064358l4.2653685-.3877585Z"/>
    </g>
    <g>
      <path class="cls-9" d="M395.8183029,113.2637331h-2.4927439c-5.7610046,0-10.2479469,4.3761469-10.2479469,10.13716v15.8427754c0,5.7610046,4.4869423,10.13716,10.2479469,10.13716h2.4927439c5.7610046,0,10.2479469-4.3761469,10.2479469-10.13716v-1.8280138l-6.3149477-.6093408v2.3819569c0,2.3265592-1.7172269,4.0991754-3.9883969,4.0991754h-2.3265677c-2.3265677,0-3.9883969-1.8280138-3.9883969-4.0991754v-15.8427754c0-2.3265592,1.7172269-4.0991754,3.9883969-4.0991754h2.3265677c2.3265677,0,3.9883969,1.8280138,3.9883969,4.0991754v2.3819569l6.3149477-.6093408v-1.8280138c-.0553977-5.6502177-4.4869423-10.0263731-10.2479469-10.0263731v.0000085Z"/>
      <path class="cls-9" d="M437.8071814,113.2637331h-2.4927439c-5.7610046,0-10.2479469,4.3761469-10.2479469,10.13716v15.8427754c0,5.7610046,4.4869423,10.13716,10.2479469,10.13716h2.4927439c5.7610046,0,10.2479469-4.3761469,10.2479469-10.13716v-15.8427754c0-5.7610046-4.4869423-10.13716-10.2479469-10.13716ZM441.7401807,139.2436686c0,2.3265592-1.7172269,4.0991754-3.9883969,4.0991754h-2.3265677c-2.3265677,0-3.9883969-1.8280138-3.9883969-4.0991754v-15.8427754c0-2.3265592,1.7172269-4.0991754,3.9883969-4.0991754h2.3265677c2.3265677,0,3.9883969,1.8280138,3.9883969,4.0991754v15.8427754Z"/>
      <polygon class="cls-9" points="486.8311438 137.9695978 486.4987746 136.4739532 472.7055953 113.2637331 466.9999884 113.2637331 466.9999884 149.3808201 473.4811123 149.3808201 473.4811123 124.6749639 473.8134815 126.2260062 487.6066608 149.3808201 493.3122846 149.3808201 493.3122846 113.2637331 486.8311438 113.2637331 486.8311438 137.9695978"/>
      <path class="cls-9" d="M518.1843085,123.7332624v-.2769715c0-2.3265592,1.71721-4.0991754,3.9883969-4.0991754h1.5510339c2.3265677,0,3.9883969,1.8280138,3.9883969,4.0991754v1.7726162l6.3149646-.6093408v-1.1632838c0-5.7610046-4.4869254-10.13716-10.2479469-10.13716h-1.7726246c-5.7610215,0-10.2479469,4.3761469-10.2479469,10.13716v.2769715c0,13.5162077,16.1751446,7.6444162,16.1751446,15.1226477v.4431562c0,2.3265592-1.71721,4.0991754-3.9883969,4.0991754h-2.0495962c-2.3265677,0-3.9883969-1.8280138-3.9883969-4.0991754v-1.7726162l-6.3149477.6093408v1.1632838c0,5.7610046,4.4869423,10.13716,10.24793,10.13716h2.2711531c5.7610215,0,10.2479469-4.3761469,10.2479469-10.13716v-.4431562c0-13.07306-16.1751446-8.0875723-16.1751446-15.1226477h.0000338Z"/>
      <path class="cls-9" d="M566.4327709,113.2637331h-2.4927439c-5.7610215,0-10.2479469,4.3761469-10.2479469,10.13716v15.8427754c0,5.7610046,4.4869254,10.13716,10.2479469,10.13716h2.4927439c5.7610215,0,10.2479469-4.3761469,10.2479469-10.13716v-15.8427754c-.0553808-5.7610046-4.4869254-10.13716-10.2479469-10.13716ZM570.3103724,139.2436686c0,2.3265592-1.71721,4.0991754-3.9883969,4.0991754h-2.3265677c-2.3265677,0-3.9883969-1.8280138-3.9883969-4.0991754v-15.8427754c0-2.3265592,1.71721-4.0991754,3.9883969-4.0991754h2.3265677c2.3265677,0,3.9883969,1.8280138,3.9883969,4.0991754v15.8427754Z"/>
      <path class="cls-9" d="M620.1098349,125.6166655v-1.9388008c0-5.9271892-4.5977208-10.4141316-10.5249185-10.4141316h-13.4054292v36.117087h6.4811408v-13.3500316h4.2099539l6.8689077,13.3500316h7.1458792l-7.3674362-14.0701508c3.9329823-1.4956446,6.5919362-5.1516723,6.5919362-9.6940039h-.0000338ZM609.5295356,129.8266362h-6.8134931v-10.3587339h6.8134931c2.3819485,0,4.1545731,1.8834031,4.1545731,4.2099708v1.8834031c0,2.4373462-1.8280054,4.26536-4.1545731,4.26536Z"/>
      <polygon class="cls-9" points="635.8418318 119.4678939 644.3171541 119.4678939 644.3171541 149.3808201 650.8536757 149.3808201 650.8536757 119.4678939 659.3290318 119.4678939 659.3290318 113.2637331 635.8418318 113.2637331 635.8418318 119.4678939"/>
      <rect class="cls-9" x="677.8861249" y="113.2637331" width="6.4811408" height="36.117087"/>
      <path class="cls-9" d="M720.5951227,139.1328732c0,2.3265592-1.71721,4.1545731-4.0437777,4.1545731h-2.3265677c-2.3265677,0-4.0437777-1.8280138-4.0437777-4.1545731v-25.8137508h-6.4257262v25.8137508c0,5.8718,4.54234,10.2479469,10.3587423,10.2479469h2.5481246c5.8717831,0,10.3587423-4.4315446,10.3587423-10.2479469v-25.8137508h-6.4257262v25.8137508h-.0000338Z"/>
      <polygon class="cls-9" points="763.3041205 140.7947024 763.193359 142.1241709 763.0825636 140.7947024 755.1611843 113.2637331 745.6333566 113.2637331 745.6333566 149.3808201 752.1698782 149.3808201 752.1698782 121.2959078 752.3360543 122.8469501 760.0358766 149.3808201 766.3508074 149.3808201 773.995249 122.8469501 774.2168059 121.2959078 774.2168059 149.3808201 780.7533275 149.3808201 780.7533275 113.2637331 771.2255336 113.2637331 763.3041205 140.7947024"/>
    </g>
  </g>
  <g>
    <path class="cls-10" d="M412.7793323,185.5185264c3.3359524,3.8430172,5.0051417,9.26303,5.0051417,16.2600385,0,4.5708613-.7593841,8.5133505-2.2757261,11.8298937s-3.6998745,5.8542932-6.5505974,7.615676c-2.8531491,1.7589567-6.2400506,2.637222-10.1631306,2.637222s-7.3027031-.8685607-10.1315907-2.6081082c-2.8337399-1.7395475-5.0075678-4.2554622-6.5239098-7.5525962s-2.2757261-7.2711631-2.2757261-11.9220873c0-4.5296168.7593841-8.455123,2.2757261-11.7716662s3.6901699-5.8542932,6.5239098-7.6132499c2.8288876-1.7589567,6.2085107-2.6396481,10.1315907-2.6396481,5.9853051,0,10.64836,1.9215086,13.9843124,5.7645257ZM392.3948436,190.5236681c-1.3974608,2.3266752-2.093765,6.0774987-2.093765,11.2548968s.7060088,8.9379263,2.1228788,11.2840106c1.4144438,2.3460843,3.5397488,3.5179134,6.3710625,3.5179134,2.9113766,0,5.0657953-1.1621245,6.46083-3.4863735,1.3950346-2.3266752,2.093765-6.099334,2.093765-11.3155505,0-5.2186426-.708435-8.9791708-2.1228788-11.2864367-1.41687-2.3048398-3.5615841-3.4572598-6.4317162-3.4572598-2.8725583,0-5.0051417,1.1621245-6.4001763,3.4887997Z"/>
    <path class="cls-7" d="M450.7291267,222.8302441h-8.3119803l-.4245758-4.0637965c-2.3460843,3.3966061-5.6019739,5.0949091-9.7676686,5.0949091-2.9526211,0-5.1871027-.890396-6.7058708-2.6687619-1.516342-1.7783659-2.2732999-4.2675929-2.2732999-7.4628288v-23.1163305h9.5857076v21.9032569c0,1.5769957.2523193,2.6808926.7569579,3.3068386.5070648.6283721,1.2834319.9413451,2.3363797.9413451,2.0234068,0,3.7629543-1.2543181,5.2186426-3.7629543v-22.3884863h9.5857076v32.2168086Z"/>
    <path class="cls-8" d="M478.4551369,221.3139021c-1.1742552.8103332-2.53775,1.4362791-4.0953365,1.8802641-1.5575865.4464111-3.1054684.6671905-4.6412196.6671905-7.038253-.0388184-10.5561664-3.92308-10.5561664-11.6479327v-14.9256575h-4.5514521v-6.6743309h4.5514521v-6.9751732l9.5857076-1.0941924v8.0693656h7.4021751l-1.0311126,6.6743309h-6.3710625v14.8043502c0,1.4969328.2426147,2.5692899.7278442,3.214645.4852294.6477813,1.2543181.9704589,2.3048398.9704589,1.0917662,0,2.2466123-.3420868,3.4596859-1.0311126l3.214645,6.0677941Z"/>
    <path class="cls-4" d="M502.3599652,190.1282061l-1.516342,9.2824392c-1.2154997-.2814331-2.1859586-.4245758-2.9138028-.4245758-1.9020994,0-3.3480831.659912-4.3379512,1.9724577-.9922942,1.3149718-1.7686613,3.2874294-2.3363797,5.9149469v15.9567701h-9.5857076v-32.2168086h8.372634l.7884978,6.2497552c.7278442-2.224777,1.829315-3.9740291,3.3068386-5.2477564s3.1442868-1.911804,5.0051417-1.911804c1.1742552,0,2.2466123.1431427,3.2170712.4245758Z"/>
    <path class="cls-5" d="M532.0875467,209.5446621h-19.959913c.3226776,2.7100064,1.0917662,4.6096797,2.3048398,5.7014459,1.2130736,1.0917662,2.8919675,1.6400755,5.0366816,1.6400755,1.2931365,0,2.5474546-.2329101,3.7605281-.6987304s2.5280454-1.1839598,3.9424892-2.1544187l3.9449153,5.33995c-3.7605281,2.9938656-7.9480582,4.4883723-12.560164,4.4883723-5.2162165,0-9.2217855-1.5357512-12.0118548-4.6096797-2.7900693-3.0739285-4.1875301-7.1983787-4.1875301-12.378203,0-3.2752987.5871276-6.2182153,1.7613829-8.8263235,1.1718291-2.6105344,2.8895413-4.6727595,5.1555628-6.1891015s4.9760279-2.2757261,8.1300192-2.2757261c4.6509242,0,8.2925711,1.4556883,10.9225147,4.3694911,2.6275174,2.9113766,3.9424892,6.955764,3.9424892,12.1331621,0,1.334381-.0606537,2.489227-.181961,3.4596859ZM522.8657612,203.3555606c-.082489-4.9347834-1.8196104-7.4021751-5.2186426-7.4021751-1.6570585,0-2.9429165.6065368-3.8527217,1.8196104s-1.4653929,3.2170712-1.6667631,6.0071405h10.7381275v-.4245758Z"/>
    <path class="cls-2" d="M563.1810492,216.1559132c.3420868.5677184.9001006.9922942,1.6691893,1.2761534l-2.0039976,6.247329c-1.9821623-.1601257-3.6004024-.5968322-4.8522944-1.302841-1.2543181-.708435-2.224777-1.829315-2.9138028-3.3674923-2.1034696,3.2364804-5.3375238,4.8522944-9.7070149,4.8522944-3.1952359,0-5.7426904-.9292144-7.6447898-2.7900693s-2.850723-4.2870021-2.850723-7.2808677c0-3.5179134,1.2931365-6.2085107,3.8818355-8.0693656,2.5886991-1.8584288,6.329818-2.7900693,11.2257831-2.7900693h3.2752987v-1.3950346c0-1.9020994-.4051666-3.2049404-1.2130736-3.9133754-.8103332-.708435-2.224777-1.0626525-4.2457576-1.0626525-1.0529479,0-2.3266752.1528473-3.823608.4561157s-3.032684.7181396-4.6121058,1.2421874l-2.1835325-6.3079827c2.0234068-.7690887,4.0953365-1.3562163,6.2182153-1.7613829,2.1253049-.4027404,4.0953365-.6065368,5.917373-.6065368,4.6096797,0,7.9868766.9510497,10.1315907,2.8531491,2.142288,1.8996733,3.214645,4.7528224,3.214645,8.554595v12.4970842c0,1.2130736.1722565,2.1034696.5167694,2.6687619ZM553.2605333,213.911727v-5.7038721h-2.3654935c-2.1835325,0-3.8139034.3857574-4.8838343,1.1548461-1.0723571.7690887-1.6085356,1.9603269-1.6085356,3.5785671,0,1.2955626.3348083,2.2951352,1.0019988,3.0035702s1.5867003,1.0626525,2.7609555,1.0626525c2.1835325,0,3.8818355-1.0335387,5.0949091-3.0957638Z"/>
    <path class="cls-3" d="M590.2714087,190.5527818c1.7783659.6477813,3.4572598,1.6400755,5.0342554,2.9744565l-4.1244502,5.7014459c-2.0234068-1.5357512-4.0662227-2.3048398-6.1284478-2.3048398-2.1447141,0-3.7605281.7884978-4.8547205,2.3654935-1.0917662,1.5794218-1.6376494,4.1268764-1.6376494,7.6447898,0,3.3990322.5458831,5.8057702,1.6376494,7.220214,1.0941924,1.41687,2.6711881,2.1228788,4.7334132,2.1228788,1.0917662,0,2.0816343-.1698303,2.9720303-.5143432s1.9627531-.9001006,3.2170712-1.6691893l4.1851039,5.9464868c-3.1952359,2.5474546-6.8150475,3.8211818-10.8594348,3.8211818-3.2752987,0-6.1090386-.6963042-8.4939413-2.0913389-2.3873288-1.3974608-4.2263484-3.3577877-5.521911-5.8858331s-1.9409178-5.4903711-1.9409178-8.8894033c0-3.3966061.6453552-6.4098809,1.9409178-9.0398244,1.2955626-2.6275174,3.1345822-4.6800379,5.521911-6.1575616,2.3849027-1.4750975,5.1579889-2.2150724,8.3119803-2.2150724,2.224777,0,4.2263484.3251037,6.0071405.9704589Z"/>
    <path class="cls-1" d="M624.790631,192.1322036c1.5769957,1.698303,2.3679197,4.0856319,2.3679197,7.1571342v23.5409062h-9.5881337v-21.9008307c0-1.6182402-.2620239-2.7415463-.7884978-3.3674923-.5264739-.6283721-1.2737273-.9413451-2.2441862-.9413451-1.9409178,0-3.8017727,1.3756255-5.5825647,4.1268764v22.0827918h-9.5857076v-45.0171612l9.5857076-.9704589v17.2304974c1.3368071-1.4969328,2.7512509-2.6178128,4.2481837-3.3674923,1.4945067-.7472533,3.1734005-1.1233062,5.0342554-1.1233062,2.7924954,0,4.9760279.8491515,6.5530236,2.5498807Z"/>
    <path class="cls-6" d="M673.1170569,180.9064206c2.0403898.7690887,3.9740291,1.9215086,5.7936395,3.4596859l-4.7334132,5.6407922c-1.2543181-.9704589-2.4868009-1.698303-3.6998745-2.1835325s-2.5086362-.7278442-3.8842617-.7278442c-2.8313138,0-5.0657953,1.1936644-6.7034447,3.5785671-1.6376494,2.3873288-2.4576871,6.0677941-2.4576871,11.043822,0,4.8935389.8200378,8.5230551,2.4576871,10.8909748,1.6376494,2.3654935,3.9133754,3.5470272,6.8247521,3.5470272,1.5381773,0,2.933212-.2911377,4.1875301-.8782653,1.251892-.5871276,2.6081082-1.4265745,4.0637965-2.5183408l4.4301448,5.7038721c-1.5769957,1.5769957-3.4887997,2.8725583-5.7329858,3.8818355-2.2466123,1.0117034-4.7237086,1.516342-7.433715,1.516342-3.8818355,0-7.2590324-.8491515-10.1315907-2.5474546-2.8725583-1.698303-5.1070398-4.2166438-6.7034447-7.5525962-1.598831-3.3383785-2.3970334-7.351226-2.3970334-12.0433947,0-4.5708613.8200378-8.5157766,2.4576871-11.8323199s3.9012447-5.8324579,6.7956383-7.5525962c2.8895413-1.7201384,6.1769708-2.5789945,9.857436-2.5789945,2.6299436,0,4.9663233.3857574,7.0091392,1.1524199Z"/>
    <path class="cls-12" d="M707.9735137,194.1022352c2.7900693,3.0132748,4.1851039,7.2299186,4.1851039,12.6499315,0,3.4402767-.6380767,6.4414208-1.911804,9.0107107s-3.0933377,4.5611567-5.4612573,5.9756005c-2.3654935,1.4144438-5.1676935,2.1228788-8.4017477,2.1228788-4.8935389,0-8.7462606-1.5066374-11.5581652-4.5199122-2.8119046-3.0108487-4.2166438-7.2274925-4.2166438-12.6499315,0-3.4378506.6380767-6.4389947,1.911804-9.0082845s3.0933377-4.5611567,5.4588312-5.9780267c2.3679197-1.4144438,5.1676935-2.1228788,8.4041739-2.1228788,4.9347834,0,8.7972097,1.5090636,11.5897051,4.5199122ZM692.0143174,199.0782631c-.9704589,1.6376494-1.4556883,4.1753993-1.4556883,7.6132499,0,3.5203396.4755248,6.0896295,1.4265745,7.7054435.9486236,1.6182402,2.4164426,2.4285733,4.3986049,2.4285733,1.9409178,0,3.3966061-.8200378,4.3670649-2.4576871.972885-1.6376494,1.4581145-4.1753993,1.4581145-7.615676,0-3.5179134-.477951-6.0872033-1.4265745-7.7054435-.9510497-1.615814-2.4164426-2.4261472-4.3986049-2.4261472-1.9409178,0-3.3990322.8200378-4.3694911,2.4576871Z"/>
    <path class="cls-15" d="M759.6043521,192.1613174c1.5357512,1.7201384,2.3048398,4.0953365,2.3048398,7.1280205v23.5409062h-9.5857076v-21.9008307c0-2.8725583-.9098052-4.3088374-2.7318417-4.3088374-1.0117034,0-1.9020994.3445129-2.6687619,1.0311126-.7690887.6890258-1.516342,1.7395475-2.2441862,3.1564175v22.0221381h-9.5857076v-21.9008307c0-2.8725583-.9122313-4.3088374-2.7318417-4.3088374-.9704589,0-1.8511503.3542175-2.6396481,1.0626525s-1.5454558,1.7492521-2.2732999,3.1248776v22.0221381h-9.5881337v-32.2168086h8.372634l.6696166,3.7629543c1.251892-1.6182402,2.637222-2.8216092,4.1559901-3.610107,1.516342-.7884978,3.2437588-1.1839598,5.1871027-1.1839598,1.8196104,0,3.3869015.4464111,4.7018733,1.334381,1.3125456.890396,2.2757261,2.1447141,2.8822629,3.7629543,1.2931365-1.7395475,2.719711-3.0229794,4.2772975-3.8527217,1.5551604-.8297423,3.345657-1.2446135,5.3690637-1.2446135,2.5474546,0,4.5902705.8612823,6.1284478,2.5789945Z"/>
    <path class="cls-14" d="M810.8712684,192.1613174c1.5357512,1.7201384,2.3048398,4.0953365,2.3048398,7.1280205v23.5409062h-9.5857076v-21.9008307c0-2.8725583-.9098052-4.3088374-2.7318417-4.3088374-1.0117034,0-1.9020994.3445129-2.6687619,1.0311126-.7690887.6890258-1.516342,1.7395475-2.2441862,3.1564175v22.0221381h-9.5857076v-21.9008307c0-2.8725583-.9122313-4.3088374-2.7318417-4.3088374-.9704589,0-1.8511503.3542175-2.6396481,1.0626525s-1.5454558,1.7492521-2.2732999,3.1248776v22.0221381h-9.5881337v-32.2168086h8.372634l.6696166,3.7629543c1.251892-1.6182402,2.637222-2.8216092,4.1559901-3.610107,1.516342-.7884978,3.2437588-1.1839598,5.1871027-1.1839598,1.8196104,0,3.3869015.4464111,4.7018733,1.334381,1.3125456.890396,2.2757261,2.1447141,2.8822629,3.7629543,1.2931365-1.7395475,2.719711-3.0229794,4.2772975-3.8527217,1.5551604-.8297423,3.345657-1.2446135,5.3690637-1.2446135,2.5474546,0,4.5902705.8612823,6.1284478,2.5789945Z"/>
    <path class="cls-11" d="M829.2226458,175.1734348c1.0723571,1.0311126,1.6085356,2.3363797,1.6085356,3.9133754s-.5361785,2.8822629-1.6085356,3.9133754-2.4382779,1.5478819-4.0953365,1.5478819c-1.6594847,0-3.0132748-.5167694-4.0637965-1.5478819-1.0529479-1.0311126-1.5794218-2.3363797-1.5794218-3.9133754s.5264739-2.8822629,1.5794218-3.9133754c1.0505217-1.0311126,2.4043119-1.5478819,4.0637965-1.5478819,1.6570585,0,3.0229794.5167694,4.0953365,1.5478819ZM829.9820299,190.6134355v32.2168086h-9.5881337v-32.2168086h9.5881337Z"/>
    <path class="cls-16" d="M857.70804,221.3139021c-1.1742552.8103332-2.5401761,1.4362791-4.0953365,1.8802641-1.5575865.4464111-3.1054684.6671905-4.6412196.6671905-7.038253-.0388184-10.5561664-3.92308-10.5561664-11.6479327v-14.9256575h-4.5514521v-6.6743309h4.5514521v-6.9751732l9.5857076-1.0941924v8.0693656h7.4021751l-1.0335387,6.6743309h-6.3686364v14.8043502c0,1.4969328.2426147,2.5692899.7278442,3.214645.4852294.6477813,1.251892.9704589,2.3048398.9704589,1.0917662,0,2.2441862-.3420868,3.4596859-1.0311126l3.214645,6.0677941Z"/>
    <path class="cls-20" d="M881.1276389,221.3139021c-1.1742552.8103332-2.5401761,1.4362791-4.0953365,1.8802641-1.5575865.4464111-3.1054684.6671905-4.6412196.6671905-7.038253-.0388184-10.5561664-3.92308-10.5561664-11.6479327v-14.9256575h-4.5514521v-6.6743309h4.5514521v-6.9751732l9.5857076-1.0941924v8.0693656h7.4021751l-1.0335387,6.6743309h-6.3686364v14.8043502c0,1.4969328.2426147,2.5692899.7278442,3.214645.4852294.6477813,1.251892.9704589,2.3048398.9704589,1.0917662,0,2.2441862-.3420868,3.4596859-1.0311126l3.214645,6.0677941Z"/>
    <path class="cls-19" d="M911.1584888,209.5446621h-19.9623391c.3251037,2.7100064,1.0941924,4.6096797,2.307266,5.7014459s2.8895413,1.6400755,5.0342554,1.6400755c1.2955626,0,2.5498807-.2329101,3.7629543-.6987304s2.5256192-1.1839598,3.9424892-2.1544187l3.9449153,5.33995c-3.7629543,2.9938656-7.9480582,4.4883723-12.560164,4.4883723-5.2162165,0-9.2217855-1.5357512-12.0118548-4.6096797-2.7924954-3.0739285-4.1875301-7.1983787-4.1875301-12.378203,0-3.2752987.5871276-6.2182153,1.7589567-8.8263235,1.1742552-2.6105344,2.8919675-4.6727595,5.1579889-6.1891015s4.9760279-2.2757261,8.1300192-2.2757261c4.6509242,0,8.290145,1.4556883,10.9200885,4.3694911,2.6299436,2.9113766,3.9449153,6.955764,3.9449153,12.1331621,0,1.334381-.0606537,2.489227-.181961,3.4596859ZM901.9367033,203.3555606c-.082489-4.9347834-1.8220365-7.4021751-5.2186426-7.4021751-1.6594847,0-2.9429165.6065368-3.8527217,1.8196104s-1.4653929,3.2170712-1.6691893,6.0071405h10.7405536v-.4245758Z"/>
    <path class="cls-18" d="M944.6490247,209.5446621h-19.9623391c.3251037,2.7100064,1.0941924,4.6096797,2.307266,5.7014459s2.8895413,1.6400755,5.0342554,1.6400755c1.2955626,0,2.5498807-.2329101,3.7629543-.6987304s2.5256192-1.1839598,3.9424892-2.1544187l3.9449153,5.33995c-3.7629543,2.9938656-7.9480582,4.4883723-12.560164,4.4883723-5.2162165,0-9.2217855-1.5357512-12.0118548-4.6096797-2.7924954-3.0739285-4.1875301-7.1983787-4.1875301-12.378203,0-3.2752987.5871276-6.2182153,1.7589567-8.8263235,1.1742552-2.6105344,2.8919675-4.6727595,5.1579889-6.1891015s4.9760279-2.2757261,8.1300192-2.2757261c4.6509242,0,8.290145,1.4556883,10.9200885,4.3694911,2.6299436,2.9113766,3.9449153,6.955764,3.9449153,12.1331621,0,1.334381-.0606537,2.489227-.181961,3.4596859ZM935.4272392,203.3555606c-.082489-4.9347834-1.8220365-7.4021751-5.2186426-7.4021751-1.6594847,0-2.9429165.6065368-3.8527217,1.8196104s-1.4653929,3.2170712-1.6691893,6.0071405h10.7405536v-.4245758Z"/>
  </g>
  <g>
    <path class="cls-17" d="M259.9335755,263.5434201c0-15.1461337,12.3220983-27.4683836,27.468232-27.4683836,6.1675694,0,11.8474833,2.0679872,16.4374505,5.5132679,13.5846047-23.2277816,21.4046836-50.2374718,21.4046836-79.0883044,0-42.7309723-17.1010018-81.4513717-44.8048733-109.7510141-4.9663233,4.9214396-11.7925917,7.9694386-19.3203199,7.9694386-15.1461337,0-27.468232-12.32225-27.468232-27.4683836,0-4.3553891,1.0459727-8.4617949,2.8580014-12.1243673-20.6225544-9.9663094-43.7555646-15.5567591-68.1956617-15.5567591-53.0480117,0-99.9135937,26.3481102-128.3189251,66.6430791,1.1002578.8063907,2.1647298,1.6716154,3.1500489,2.6487462,5.2210688,5.1770948,8.0963565,12.1060196,8.0960532,19.5100143,0,15.1461337-12.3220983,27.4683836-27.468232,27.4683836-2.3466909,0-4.6130156-.3275299-6.7889664-.8838757-3.6261802,13.2370591-5.6010641,27.1567753-5.6010641,41.544738,0,38.7763524,14.0931858,74.242227,37.3981492,101.6266053,4.8535075-4.3155093,11.2221438-6.9622843,18.2124804-6.9622843,15.1461337,0,27.468232,12.3220983,27.468232,27.468232,0,5.1707262-1.4626635,9.9945134-3.9567428,14.1291231,22.9392217,13.1277308,49.4855178,20.6694094,77.8089666,20.6694094,38.0535122,0,72.9378696-13.5506386,100.1067757-36.0813578-5.2177328-5.0028671-8.4860563-12.0238339-8.4860563-19.8063075ZM226.1512954,199.0251911c-2.88014,4.1007953-6.7389271,6.3508952-11.4708239,6.6888878-3.2731758.2339716-5.8727926,3.0642239-5.6780942,6.3427069.2174434,3.661511-1.251892,7.3212024-4.030437,10.0403069-2.8470837,2.7862784-6.6067021,4.2104268-10.3190106,3.9057937-2.4046151-.1954565-4.7734446,1.0720538-5.8982671,3.3912989-.4121418.8497581-.5962257,1.79823-.5777263,2.7426078.1255531,6.4490025-3.9346042,10.695215-7.7809573,12.5201326-4.8368277,2.2958934-10.2568405,1.5289276-14.532925-2.0450904l-96.325322-96.3830946c-2.2860372-2.2877052-2.2863405-5.9965261,0-8.2842312l28.4223144-28.4415719c2.2930124-2.294832,6.0138124-2.2864921,8.2965136.0188026l8.7262449,8.8117666c4.1878333,4.2292295,10.6098449,5.0171208,15.6152899,1.9155948,8.637084-5.3502611,19.2839277-5.1720909,27.5980309.0184994l-27.0767125,27.0955151c-2.3391092,2.3403222-2.3391092,6.1351197-.0006065,8.4757452l2.0337179,2.0358408c6.7932121,6.7983677,15.8257581,10.5428226,25.433301,10.5428226h.0006065c9.5390042,0,18.6873988-3.7919164,25.4326945-10.5420645l7.8719378-7.8780032,38.2288013,38.2559438c-.4212398,3.842259-1.8365934,7.7362252-3.9685703,10.7717903ZM196.1268141,137.283081c-1.1694029-1.1701611-2.7021214-1.7554691-4.2348399-1.7554691-1.5330218,0-3.0660435.585308-4.2354465,1.7554691l-12.107081,12.1154209c-4.5308299,4.5346207-10.5555599,7.0315811-16.9636212,7.0315811-5.3587526,0-10.4485062-1.7460678-14.6217826-4.9695076l27.2668618-27.2859677c8.6601324-8.6818161,22.6617311-9.7613,32.5682967-2.5110623,5.0200018,3.6737934,11.8775069,3.123058,16.3064386-1.3092097l10.2434967-10.2507752c2.2857339-2.2874019,5.9922803-2.2874019,8.2780142,0l28.461436,28.4820582c2.2860372,2.2872503,2.2860372,5.9960712.0009098,8.2837763l-30.8135857,30.5911383-40.1490968-40.1774524Z"/>
    <path class="cls-13" d="M5.1690143,94.3707541c0,8.7652149,6.1945603,16.1757299,14.4058555,18.1011809,3.9091297-11.6265523,9.127469-22.6453546,15.5067198-32.8755075-3.1442868-2.4006726-7.0643341-3.8284603-11.3097884-3.8284603-10.2086209,0-18.6027869,8.3940144-18.6027869,18.6027869Z"/>
    <path class="cls-30" d="M23.7718012,112.9736926c10.2089241,0,18.6027869-8.3940144,18.6027869-18.6029385,0-6.0958465-2.8758942-11.4022853-7.2929985-14.7743266-6.3792508,10.2301529-11.5975901,21.2489553-15.5067198,32.8755075,1.3522738.3170671,2.7530705.5017576,4.1969314.5017576Z"/>
    <path class="cls-23" d="M23.7718012,112.9736926c10.2089241,0,18.6027869-8.3940144,18.6027869-18.6029385,0-6.0958465-2.8758942-11.4022853-7.2929985-14.7743266-6.3792508,10.2301529-11.5975901,21.2489553-15.5067198,32.8755075,1.3522738.3170671,2.7530705.5017576,4.1969314.5017576Z"/>
    <path class="cls-29" d="M244.3756034,25.2342023c10.7238739,5.9552816,20.6871506,13.1116576,29.681788,21.3194652,3.4818245-3.3884178,5.6641439-8.1071225,5.6641439-13.3036265,0-10.4356172-8.3938628-18.6027869-18.6027869-18.6027869-7.3418247,0-13.7256245,4.3517499-16.7431451,10.5869482Z"/>
    <path class="cls-27" d="M242.5159615,33.250041c0,10.2089241,8.3938628,18.6029385,18.6027869,18.6029385,5.0124201,0,9.5799455-2.0309885,12.938643-5.299312-8.9946375-8.2078076-18.9579142-15.3641836-29.681788-21.3194652-1.178501,2.4352452-1.8596418,5.1485876-1.8596418,8.0158387Z"/>
    <path class="cls-24" d="M242.5159615,33.250041c0,10.2089241,8.3938628,18.6029385,18.6027869,18.6029385,5.0124201,0,9.5799455-2.0309885,12.938643-5.299312-8.9946375-8.2078076-18.9579142-15.3641836-29.681788-21.3194652-1.178501,2.4352452-1.8596418,5.1485876-1.8596418,8.0158387Z"/>
    <path class="cls-25" d="M299.1695312,249.107996c-6.8829796,10.3784512-14.9681151,19.8828828-24.0555527,28.3308789,3.2883393,2.9147126,7.5892917,4.7073321,12.287829,4.7073321,10.2089241,0,18.6027869-8.3940144,18.6027869-18.6027869,0-5.8875011-2.6730077-11.0512521-6.8350632-14.4354242Z"/>
    <path class="cls-22" d="M299.1695312,249.107996c-3.2152516-2.6143252-7.318473-4.1675143-11.7677237-4.1675143-10.2089241,0-18.6027869,8.3940144-18.6027869,18.6029385,0,5.5102352,2.4585969,10.477165,6.3149579,13.8954548,9.0874376-8.4479962,17.1725731-17.9524278,24.0555527-28.3308789Z"/>
    <path class="cls-26" d="M299.1695312,249.107996c-3.2152516-2.6143252-7.318473-4.1675143-11.7677237-4.1675143-10.2089241,0-18.6027869,8.3940144-18.6027869,18.6029385,0,5.5102352,2.4585969,10.477165,6.3149579,13.8954548,9.0874376-8.4479962,17.1725731-17.9524278,24.0555527-28.3308789Z"/>
    <path class="cls-28" d="M82.9282449,294.1406238c-10.3020275-6.695863-19.7612722-14.5646165-28.2030513-23.4224799-3.8681884,3.4187447-6.3355801,8.394166-6.3355801,13.9144091,0,10.2089241,8.3938628,18.6027869,18.6027869,18.6027869,6.7401402,0,12.6711603-3.6704574,15.9358446-9.094716Z"/>
    <path class="cls-21" d="M82.9282449,294.1406238c1.6801069-2.7915856,2.6669423-6.0391353,2.6669423-9.5080709,0-10.4357689-8.3938628-18.6027869-18.6027869-18.6027869-4.6888327,0-8.9815969,1.7847345-12.2672067,4.6883778,8.4417792,8.8578634,17.9010238,16.7266169,28.2030513,23.4224799Z"/>
    <path class="cls-31" d="M82.9282449,294.1406238c1.6801069-2.7915856,2.6669423-6.0391353,2.6669423-9.5080709,0-10.4357689-8.3938628-18.6027869-18.6027869-18.6027869-4.6888327,0-8.9815969,1.7847345-12.2672067,4.6883778,8.4417792,8.8578634,17.9010238,16.7266169,28.2030513,23.4224799Z"/>
  </g>
</svg>