<?xml version="1.0" encoding="UTF-8"?>
<svg id="Layer_1" data-name="Layer 1" xmlns="http://www.w3.org/2000/svg" xmlns:xlink="http://www.w3.org/1999/xlink" version="1.1" viewBox="0 0 1000 325">
  <defs>
    <style>
      .cls-1 {
        fill: url(#New_Gradient_Swatch-8);
      }

      .cls-1, .cls-2, .cls-3, .cls-4, .cls-5, .cls-6, .cls-7, .cls-8, .cls-9, .cls-10, .cls-11, .cls-12, .cls-13, .cls-14, .cls-15, .cls-16, .cls-17, .cls-18, .cls-19, .cls-20, .cls-21, .cls-22, .cls-23, .cls-24, .cls-25, .cls-26, .cls-27, .cls-28, .cls-29, .cls-30, .cls-31, .cls-32, .cls-33, .cls-34, .cls-35, .cls-36, .cls-37, .cls-38, .cls-39, .cls-40, .cls-41, .cls-42, .cls-43, .cls-44, .cls-45, .cls-46, .cls-47, .cls-48, .cls-49 {
        stroke-width: 0px;
      }

      .cls-2 {
        fill: url(#New_Gradient_Swatch-6);
      }

      .cls-3 {
        fill: url(#New_Gradient_Swatch-7);
      }

      .cls-4 {
        fill: url(#New_Gradient_Swatch-4);
      }

      .cls-5 {
        fill: url(#New_Gradient_Swatch-5);
      }

      .cls-6 {
        fill: url(#New_Gradient_Swatch-9);
      }

      .cls-7 {
        fill: url(#New_Gradient_Swatch-2);
      }

      .cls-8 {
        fill: url(#New_Gradient_Swatch-3);
      }

      .cls-9 {
        fill: #959595;
      }

      .cls-10 {
        fill: url(#New_Gradient_Swatch);
      }

      .cls-11 {
        fill: url(#New_Gradient_Swatch-13);
      }

      .cls-12 {
        fill: url(#New_Gradient_Swatch-10);
      }

      .cls-13 {
        fill: url(#New_Gradient_Swatch-19);
      }

      .cls-14 {
        fill: url(#New_Gradient_Swatch-12);
      }

      .cls-15 {
        fill: url(#New_Gradient_Swatch-11);
      }

      .cls-16 {
        fill: url(#New_Gradient_Swatch-14);
      }

      .cls-17 {
        fill: url(#New_Gradient_Swatch-18);
      }

      .cls-18 {
        fill: url(#New_Gradient_Swatch-17);
      }

      .cls-19 {
        fill: url(#New_Gradient_Swatch-16);
      }

      .cls-20 {
        fill: url(#New_Gradient_Swatch-15);
      }

      .cls-21 {
        fill: url(#New_Gradient_Swatch-29);
      }

      .cls-22 {
        fill: url(#New_Gradient_Swatch-26);
      }

      .cls-23 {
        fill: url(#New_Gradient_Swatch-21);
      }

      .cls-24 {
        fill: url(#New_Gradient_Swatch-24);
      }

      .cls-25 {
        fill: url(#New_Gradient_Swatch-25);
      }

      .cls-26 {
        fill: url(#New_Gradient_Swatch-27);
      }

      .cls-27 {
        fill: url(#New_Gradient_Swatch-23);
      }

      .cls-28 {
        fill: url(#New_Gradient_Swatch-28);
      }

      .cls-29 {
        fill: url(#New_Gradient_Swatch-22);
      }

      .cls-30 {
        fill: url(#New_Gradient_Swatch-20);
      }

      .cls-31 {
        fill: url(#New_Gradient_Swatch-33);
      }

      .cls-32 {
        fill: url(#New_Gradient_Swatch-32);
      }

      .cls-33 {
        fill: url(#New_Gradient_Swatch-35);
      }

      .cls-34 {
        fill: url(#New_Gradient_Swatch-31);
      }

      .cls-35 {
        fill: url(#New_Gradient_Swatch-46);
      }

      .cls-36 {
        fill: url(#New_Gradient_Swatch-47);
      }

      .cls-37 {
        fill: url(#New_Gradient_Swatch-34);
      }

      .cls-38 {
        fill: url(#New_Gradient_Swatch-37);
      }

      .cls-39 {
        fill: url(#New_Gradient_Swatch-30);
      }

      .cls-40 {
        fill: url(#New_Gradient_Swatch-38);
      }

      .cls-41 {
        fill: url(#New_Gradient_Swatch-39);
      }

      .cls-42 {
        fill: url(#New_Gradient_Swatch-36);
      }

      .cls-43 {
        fill: url(#New_Gradient_Swatch-40);
      }

      .cls-44 {
        fill: url(#New_Gradient_Swatch-41);
      }

      .cls-45 {
        fill: url(#New_Gradient_Swatch-42);
      }

      .cls-46 {
        fill: url(#New_Gradient_Swatch-48);
      }

      .cls-47 {
        fill: url(#New_Gradient_Swatch-44);
      }

      .cls-48 {
        fill: url(#New_Gradient_Swatch-45);
      }

      .cls-49 {
        fill: url(#New_Gradient_Swatch-43);
      }
    </style>
    <linearGradient id="New_Gradient_Swatch" data-name="New Gradient Swatch" x1="-53.2684148" y1="167.6805824" x2="754.9993337" y2="167.6805824" gradientUnits="userSpaceOnUse">
      <stop offset="0" stop-color="#ed1846"/>
      <stop offset=".0870934" stop-color="#e4274c"/>
      <stop offset=".2431" stop-color="#cf3e59"/>
      <stop offset=".4499" stop-color="#ab556f"/>
      <stop offset=".6999" stop-color="#75678f"/>
      <stop offset=".9837" stop-color="#0075b8"/>
      <stop offset="1" stop-color="#0076bb"/>
    </linearGradient>
    <linearGradient id="New_Gradient_Swatch-2" data-name="New Gradient Swatch" x1="-53.2684148" y1="169.0756171" x2="754.9993337" y2="169.0756171" xlink:href="#New_Gradient_Swatch"/>
    <linearGradient id="New_Gradient_Swatch-3" data-name="New Gradient Swatch" x1="-53.2684148" y1="169.0756171" x2="754.9993337" y2="169.0756171" xlink:href="#New_Gradient_Swatch"/>
    <linearGradient id="New_Gradient_Swatch-4" data-name="New Gradient Swatch" x1="-53.2684148" y1="172.5947436" x2="754.9993337" y2="172.5947436" xlink:href="#New_Gradient_Swatch"/>
    <linearGradient id="New_Gradient_Swatch-5" data-name="New Gradient Swatch" x1="-53.2684148" y1="172.5947436" x2="754.9993337" y2="172.5947436" xlink:href="#New_Gradient_Swatch"/>
    <linearGradient id="New_Gradient_Swatch-6" data-name="New Gradient Swatch" x1="-53.2684148" y1="169.0756171" x2="754.9993337" y2="169.0756171" xlink:href="#New_Gradient_Swatch"/>
    <linearGradient id="New_Gradient_Swatch-7" data-name="New Gradient Swatch" x1="-53.2684148" y1="172.5947436" x2="754.9993337" y2="172.5947436" xlink:href="#New_Gradient_Swatch"/>
    <linearGradient id="New_Gradient_Swatch-8" data-name="New Gradient Swatch" x1="-53.2684148" y1="169.0756171" x2="754.9993337" y2="169.0756171" xlink:href="#New_Gradient_Swatch"/>
    <linearGradient id="New_Gradient_Swatch-9" data-name="New Gradient Swatch" x1="-53.2684148" y1="164.1008022" x2="754.9993337" y2="164.1008022" xlink:href="#New_Gradient_Swatch"/>
    <linearGradient id="New_Gradient_Swatch-10" data-name="New Gradient Swatch" x1="-53.2684148" y1="172.5947436" x2="754.9993337" y2="172.5947436" xlink:href="#New_Gradient_Swatch"/>
    <linearGradient id="New_Gradient_Swatch-11" data-name="New Gradient Swatch" x1="-53.2684148" y1="172.0791873" x2="754.9993337" y2="172.0791873" xlink:href="#New_Gradient_Swatch"/>
    <linearGradient id="New_Gradient_Swatch-12" data-name="New Gradient Swatch" x1="-53.2684148" y1="235.9353814" x2="754.9993337" y2="235.9353814" xlink:href="#New_Gradient_Swatch"/>
    <linearGradient id="New_Gradient_Swatch-13" data-name="New Gradient Swatch" x1="-53.2684148" y1="247.0689709" x2="754.9993337" y2="247.0689709" xlink:href="#New_Gradient_Swatch"/>
    <linearGradient id="New_Gradient_Swatch-14" data-name="New Gradient Swatch" x1="-53.2684148" y1="240.8495426" x2="754.9993337" y2="240.8495426" xlink:href="#New_Gradient_Swatch"/>
    <linearGradient id="New_Gradient_Swatch-15" data-name="New Gradient Swatch" x1="-53.2684148" y1="240.8495426" x2="754.9993337" y2="240.8495426" xlink:href="#New_Gradient_Swatch"/>
    <linearGradient id="New_Gradient_Swatch-16" data-name="New Gradient Swatch" x1="-53.2684148" y1="232.3556012" x2="754.9993337" y2="232.3556012" xlink:href="#New_Gradient_Swatch"/>
    <linearGradient id="New_Gradient_Swatch-17" data-name="New Gradient Swatch" y1="240.8495426" y2="240.8495426" xlink:href="#New_Gradient_Swatch"/>
    <linearGradient id="New_Gradient_Swatch-18" data-name="New Gradient Swatch" x1="-53.2684148" y1="234.4481532" x2="754.9993337" y2="234.4481532" xlink:href="#New_Gradient_Swatch"/>
    <linearGradient id="New_Gradient_Swatch-19" data-name="New Gradient Swatch" x1="-53.2684148" y1="235.9353814" x2="754.9993337" y2="235.9353814" xlink:href="#New_Gradient_Swatch"/>
    <linearGradient id="New_Gradient_Swatch-20" data-name="New Gradient Swatch" x1="-53.2684148" y1="240.3339863" x2="754.9993337" y2="240.3339863" xlink:href="#New_Gradient_Swatch"/>
    <linearGradient id="New_Gradient_Swatch-21" data-name="New Gradient Swatch" x1="-53.2684148" y1="237.3304161" x2="754.9993337" y2="237.3304161" xlink:href="#New_Gradient_Swatch"/>
    <linearGradient id="New_Gradient_Swatch-22" data-name="New Gradient Swatch" x1="-53.2684148" y1="240.8495426" x2="754.9993337" y2="240.8495426" xlink:href="#New_Gradient_Swatch"/>
    <linearGradient id="New_Gradient_Swatch-23" data-name="New Gradient Swatch" x1="-53.2684148" y1="240.39464" x2="754.9993337" y2="240.39464" xlink:href="#New_Gradient_Swatch"/>
    <linearGradient id="New_Gradient_Swatch-24" data-name="New Gradient Swatch" y1="240.8495426" x2="754.9993337" y2="240.8495426" xlink:href="#New_Gradient_Swatch"/>
    <linearGradient id="New_Gradient_Swatch-25" data-name="New Gradient Swatch" x1="-53.2684148" y1="240.8495426" x2="754.9993337" y2="240.8495426" xlink:href="#New_Gradient_Swatch"/>
    <linearGradient id="New_Gradient_Swatch-26" data-name="New Gradient Swatch" x1="-53.2684148" y1="237.3304161" x2="754.9993337" y2="237.3304161" xlink:href="#New_Gradient_Swatch"/>
    <linearGradient id="New_Gradient_Swatch-27" data-name="New Gradient Swatch" x1="-53.2684148" y1="235.9353814" x2="754.9993337" y2="235.9353814" xlink:href="#New_Gradient_Swatch"/>
    <linearGradient id="New_Gradient_Swatch-28" data-name="New Gradient Swatch" x1="-53.2684148" y1="240.39464" x2="754.9993337" y2="240.39464" xlink:href="#New_Gradient_Swatch"/>
    <linearGradient id="New_Gradient_Swatch-29" data-name="New Gradient Swatch" x1="-53.2684148" y1="240.8495426" x2="754.9993337" y2="240.8495426" xlink:href="#New_Gradient_Swatch"/>
    <linearGradient id="New_Gradient_Swatch-30" data-name="New Gradient Swatch" x1="-53.2684148" y1="241.3650988" x2="754.9993337" y2="241.3650988" xlink:href="#New_Gradient_Swatch"/>
    <linearGradient id="New_Gradient_Swatch-31" data-name="New Gradient Swatch" x1="-53.2684148" y1="247.0689709" x2="754.9993337" y2="247.0689709" xlink:href="#New_Gradient_Swatch"/>
    <linearGradient id="New_Gradient_Swatch-32" data-name="New Gradient Swatch" x1="-1.3597016" y1="132.550426" x2="705.7336748" y2="132.550426" xlink:href="#New_Gradient_Swatch"/>
    <linearGradient id="New_Gradient_Swatch-33" data-name="New Gradient Swatch" x1="-1.3597016" y1="188.186228" x2="705.7336748" y2="188.186228" xlink:href="#New_Gradient_Swatch"/>
    <linearGradient id="New_Gradient_Swatch-34" data-name="New Gradient Swatch" x1="-1.3597016" y1="155.8297632" x2="705.7336748" y2="155.8297632" xlink:href="#New_Gradient_Swatch"/>
    <linearGradient id="New_Gradient_Swatch-35" data-name="New Gradient Swatch" x1="-1.3597016" y1="162.5" x2="705.7336748" y2="162.5" xlink:href="#New_Gradient_Swatch"/>
    <linearGradient id="New_Gradient_Swatch-36" data-name="New Gradient Swatch" x1="-1.3597016" y1="109.2710887" x2="705.7336748" y2="109.2710887" xlink:href="#New_Gradient_Swatch"/>
    <linearGradient id="New_Gradient_Swatch-37" data-name="New Gradient Swatch" x1="-7.811076" y1="94.1202544" x2="867.7513238" y2="94.1202544" xlink:href="#New_Gradient_Swatch"/>
    <linearGradient id="New_Gradient_Swatch-38" data-name="New Gradient Swatch" x1="-1.3597016" y1="96.2852875" x2="705.7336748" y2="96.2852875" xlink:href="#New_Gradient_Swatch"/>
    <linearGradient id="New_Gradient_Swatch-39" data-name="New Gradient Swatch" x1="-7.811076" y1="96.2852875" x2="867.7513238" y2="96.2852875" xlink:href="#New_Gradient_Swatch"/>
    <linearGradient id="New_Gradient_Swatch-40" data-name="New Gradient Swatch" x1="-64.3779486" y1="30.6006882" x2="811.2305602" y2="30.6006882" xlink:href="#New_Gradient_Swatch"/>
    <linearGradient id="New_Gradient_Swatch-41" data-name="New Gradient Swatch" x1="-1.3597016" y1="38.5437425" x2="705.7336748" y2="38.5437425" xlink:href="#New_Gradient_Swatch"/>
    <linearGradient id="New_Gradient_Swatch-42" data-name="New Gradient Swatch" x1="-64.3779486" y1="38.5437425" x2="811.2305602" y2="38.5437425" xlink:href="#New_Gradient_Swatch"/>
    <linearGradient id="New_Gradient_Swatch-43" data-name="New Gradient Swatch" x1="-70.6222381" y1="265.6271773" x2="804.9401617" y2="265.6271773" xlink:href="#New_Gradient_Swatch"/>
    <linearGradient id="New_Gradient_Swatch-44" data-name="New Gradient Swatch" x1="-1.3597016" y1="261.1897541" x2="705.7336748" y2="261.1897541" xlink:href="#New_Gradient_Swatch"/>
    <linearGradient id="New_Gradient_Swatch-45" data-name="New Gradient Swatch" x1="-70.6222381" y1="261.1897541" x2="804.9401617" y2="261.1897541" xlink:href="#New_Gradient_Swatch"/>
    <linearGradient id="New_Gradient_Swatch-46" data-name="New Gradient Swatch" x1="-18.1096284" y1="286.9768177" x2="857.4527714" y2="286.9768177" xlink:href="#New_Gradient_Swatch"/>
    <linearGradient id="New_Gradient_Swatch-47" data-name="New Gradient Swatch" x1="-1.3597016" y1="280.0853466" x2="705.7336748" y2="280.0853466" xlink:href="#New_Gradient_Swatch"/>
    <linearGradient id="New_Gradient_Swatch-48" data-name="New Gradient Swatch" x1="-18.1096284" y1="280.0853466" x2="857.4527714" y2="280.0853466" xlink:href="#New_Gradient_Swatch"/>
  </defs>
  <g>
    <g>
      <path class="cls-9" d="M391.8932522,70.8820284h1.7172269c3.8776015,0,6.8688908-2.9359,6.8688908-6.8135015v-1.2186731l-4.2653685-.3877585v1.6064358c0,1.5510423-1.1632838,2.7697154-2.7143177,2.7697154h-1.5510339c-1.5510339,0-2.7143177-1.2186731-2.7143177-2.7697154v-10.6910989c0-1.5510423,1.1632838-2.7697154,2.7143177-2.7697154h1.5510339c1.5510339,0,2.7143177,1.2186731,2.7143177,2.7697154v1.6064358l4.2653685-.3877585v-1.2186731c0-3.8776015-2.9912892-6.8135015-6.8688908-6.8135015h-1.7172269c-3.8776015,0-6.8688908,2.9359-6.8688908,6.8135015v10.6910989c0,3.8776015,2.9912892,6.8135015,6.8688908,6.8135015v-.0000085Z"/>
      <path class="cls-9" d="M413.4970323,46.5639265h-1.7172269c-3.8776015,0-6.8688908,2.9359-6.8688908,6.8135015v10.6910989c0,3.8776015,2.9912892,6.8135015,6.8688908,6.8135015h1.7172269c3.8776015,0,6.8688908-2.9359,6.8688908-6.8135015v-10.6911031c0-3.8776015-2.9912892-6.8135015-6.8688908-6.8134973ZM416.1005546,64.0685269c0,1.5510423-1.1632838,2.7697154-2.7143177,2.7697154h-1.5510339c-1.5510339,0-2.7143177-1.2186731-2.7143177-2.7697154v-10.6911031c0-1.5510423,1.1632838-2.7697154,2.7143177-2.7697154h1.5510339c1.5510339,0,2.7143177,1.2186731,2.7143177,2.7697154v10.6911031Z"/>
      <polygon class="cls-9" points="429.28441 54.2637361 429.5059839 55.3162246 438.75684 70.9374219 442.6344416 70.9374219 442.6344416 46.5639265 438.2582777 46.5639265 438.2582777 63.2376123 438.0367039 62.1851196 428.7304669 46.5639265 424.9082631 46.5639265 424.9082631 70.9374219 429.28441 70.9374219 429.28441 54.2637361"/>
      <polygon class="cls-9" points="446.4012477 70.9374219 450.8327924 70.9374219 450.8327924 60.8556553 459.806677 60.8556553 459.806677 56.6456888 450.8327924 56.6456888 450.8327924 50.7184996 461.9670516 50.7184996 461.9670516 46.5639265 446.4012477 46.5639265 446.4012477 70.9374219"/>
      <rect class="cls-9" x="465.9000508" y="46.5639265" width="4.3761469" height="24.3734954"/>
      <path class="cls-9" d="M490.5505178,63.9023423v-10.3033404c0-3.9883885-3.1020846-7.0350754-7.0904646-7.0350754h-8.8630892v24.3734954h8.8630892c3.9883969,0,7.0904646-3.0466869,7.0904646-7.0350796ZM478.973094,66.7828488v-16.0643493h4.3761469c1.6064315,0,2.7697154,1.2740708,2.7697154,2.8805023v10.3033404c0,1.6064358-1.1632838,2.8805023-2.7697154,2.8805023l-4.3761469.0000042Z"/>
      <polygon class="cls-9" points="494.5942955 70.9374219 510.1600994 70.9374219 510.1600994 66.7828488 498.9704425 66.7828488 498.9704425 60.8556553 507.9443271 60.8556553 507.9443271 56.6456888 498.9704425 56.6456888 498.9704425 50.7184996 510.1600994 50.7184996 510.1600994 46.5639265 494.5942955 46.5639265 494.5942955 70.9374219"/>
      <polygon class="cls-9" points="518.6908194 54.2637361 518.9124102 55.2608311 528.1632325 70.8820284 532.0408341 70.8820284 532.0408341 46.5639265 527.664704 46.5639265 527.664704 63.1822188 527.4431133 62.1851196 518.1368763 46.5639265 514.3146556 46.5639265 514.3146556 70.8820284 518.6908194 70.8820284 518.6908194 54.2637361"/>
      <polygon class="cls-9" points="536.6385887 50.7184996 542.3441956 50.7184996 542.3441956 70.8820284 546.7203256 70.8820284 546.7203256 50.7184996 552.4813472 50.7184996 552.4813472 46.5639265 536.6385887 46.5639265 536.6385887 50.7184996"/>
      <rect class="cls-9" x="557.0790679" y="46.5639265" width="4.3761638" height="24.318102"/>
      <path class="cls-9" d="M573.0880364,46.5639265l-6.7581123,24.318102h4.7085162l1.2740623-4.8193031h7.4782316l1.2740623,4.8193031h4.7085162l-6.8134931-24.318102h-5.8717831ZM573.1988318,62.2959107l2.7697154-10.5803119v-.9417015l.1107954.8863081,2.7143346,10.5803119h-5.5948116l-.0000338.0553935Z"/>
      <polygon class="cls-9" points="594.6364019 46.5639265 590.2602718 46.5639265 590.2602718 70.8820284 603.6102865 70.8820284 603.6102865 66.7274554 594.6364019 66.7274554 594.6364019 46.5639265"/>
      <path class="cls-9" d="M618.8991357,46.5639265h-1.71721c-3.8776015,0-6.8689077,2.9359-6.8689077,6.8135015v10.6910989c0,3.8776015,2.9913061,6.8135015,6.8689077,6.8135015h1.71721c3.8776015,0,6.8689077-2.9359,6.8689077-6.8135015v-1.2186731l-4.2653685-.3877585v1.6064358c0,1.5510423-1.1632669,2.7697154-2.7143346,2.7697154h-1.5510339c-1.5510339,0-2.7143346-1.2186731-2.7143346-2.7697154v-10.6910989c0-1.5510423,1.1632669-2.7697154,2.7143346-2.7697154h1.5510339c1.5510339,0,2.7143346,1.2186731,2.7143346,2.7697154v1.6064358l4.2653685-.3877585v-1.2186731c0-3.8776015-2.9913061-6.8135015-6.8689077-6.8135015v-.0000085Z"/>
      <path class="cls-9" d="M645.6545796,64.0685269v-10.6911031c0-3.8776015-2.9913061-6.8135015-6.8689077-6.8135015h-1.71721c-3.8776015,0-6.8689077,2.9359-6.8689077,6.8135015v10.6911031c0,3.8776015,2.9913061,6.8135015,6.8689077,6.8135015h1.71721c3.8776015,0,6.8689077-2.9359,6.8689077-6.8135015ZM641.3892112,64.0685269c0,1.5510423-1.1632669,2.7697154-2.7143346,2.7697154h-1.5510339c-1.5510339,0-2.7143346-1.2186731-2.7143346-2.7697154v-10.6911031c0-1.5510423,1.1632669-2.7697154,2.7143346-2.7697154h1.5510339c1.5510339,0,2.7143346,1.2186731,2.7143346,2.7697154v10.6911031Z"/>
      <polygon class="cls-9" points="661.9959004 65.1210196 661.8851051 66.0073277 661.8297243 65.1210196 656.4564697 46.5639265 650.0861243 46.5639265 650.0861243 70.9374219 654.4622543 70.9374219 654.4622543 51.9371726 654.5730497 52.9896653 659.7801281 70.9374219 664.0454966 70.9374219 669.1971605 52.9896653 669.3633366 51.9371726 669.3633366 70.9374219 673.7395005 70.9374219 673.7395005 46.5639265 667.3137405 46.5639265 661.9959004 65.1210196"/>
      <path class="cls-9" d="M687.0895151,46.5639265h-9.08468v24.3734954h4.3761638v-7.9767812h4.6531354c3.9883969,0,7.0904646-3.0466869,7.0904646-7.0350754v-2.3265592c0-3.9883885-3.0466869-7.0350754-7.0350839-7.0350796ZM689.8038497,55.9255653c0,1.6064358-1.1632669,2.8805023-2.7697154,2.8805023h-4.5977208v-8.0875681h4.5977208c1.6064485,0,2.7697154,1.2740708,2.7697154,2.8805023v2.3265635Z"/>
      <path class="cls-9" d="M713.9557544,64.0131334v-17.449207h-4.3207492v17.449207c0,1.6064358-1.1632669,2.8251089-2.7697154,2.8251089h-1.6064485c-1.6064485,0-2.7697154-1.2186731-2.7697154-2.8251089v-17.449207h-4.3207492v17.449207c0,3.932995,3.0466869,6.9242885,6.9796693,6.9242885h1.71721c3.9883969,0,7.0904646-2.9912935,7.0904646-6.9242885h.0000338Z"/>
      <polygon class="cls-9" points="718.3319182 50.7184996 724.092906 50.7184996 724.092906 70.9374219 728.4690698 70.9374219 728.4690698 50.7184996 734.2300575 50.7184996 734.2300575 46.5639265 718.3319182 46.5639265 718.3319182 50.7184996"/>
      <rect class="cls-9" x="738.3846306" y="46.5639265" width="4.3761638" height="24.318102"/>
      <polygon class="cls-9" points="751.4577075 54.2637361 751.6792645 55.3162246 760.9855352 70.9374219 764.8077222 70.9374219 764.8077222 46.5639265 760.4315922 46.5639265 760.4315922 63.2376123 760.2100014 62.1851196 750.9591452 46.5639265 747.0815437 46.5639265 747.0815437 70.9374219 751.4577075 70.9374219 751.4577075 54.2637361"/>
      <path class="cls-9" d="M782.7554914,54.5961011v-1.2186731c0-3.8776015-2.9913061-6.8135015-6.8689077-6.8135015h-1.71721c-3.8776015,0-6.8689077,2.9359-6.8689077,6.8135015v10.6910989c0,3.8776015,2.9913061,6.8135015,6.8689077,6.8135015h.9970908c1.9388008,0,3.60063-.8309146,4.7085162-2.2157723l1.2186815,1.8834073h1.6618292v-13.1284535h-7.7552031v4.0437862h3.4898346v2.5481373c0,1.5510423-1.1632669,2.7697154-2.7143346,2.7697154h-1.5510339c-1.5510339,0-2.7143346-1.2186731-2.7143346-2.7697154v-10.6357096c0-1.5510423,1.1632669-2.7697154,2.7143346-2.7697154h1.5510339c1.5510339,0,2.7143346,1.2186731,2.7143346,2.7697154v1.6064358l4.2653685-.3877585Z"/>
    </g>
    <g>
      <path class="cls-9" d="M397.7650523,79.1357769h-2.4927439c-5.7610046,0-10.2479469,4.3761469-10.2479469,10.13716v15.8427754c0,5.7610046,4.4869423,10.13716,10.2479469,10.13716h2.4927439c5.7610046,0,10.2479469-4.3761469,10.2479469-10.13716v-1.8280138l-6.3149477-.6093408v2.3819569c0,2.3265592-1.7172269,4.0991754-3.9883969,4.0991754h-2.3265677c-2.3265677,0-3.9883969-1.8280138-3.9883969-4.0991754v-15.8427754c0-2.3265592,1.7172269-4.0991754,3.9883969-4.0991754h2.3265677c2.3265677,0,3.9883969,1.8280138,3.9883969,4.0991754v2.3819569l6.3149477-.6093408v-1.8280138c-.0553977-5.6502177-4.4869423-10.0263731-10.2479469-10.0263731v.0000085Z"/>
      <path class="cls-9" d="M439.7539308,79.1357769h-2.4927439c-5.7610046,0-10.2479469,4.3761469-10.2479469,10.13716v15.8427754c0,5.7610046,4.4869423,10.13716,10.2479469,10.13716h2.4927439c5.7610046,0,10.2479469-4.3761469,10.2479469-10.13716v-15.8427754c0-5.7610046-4.4869423-10.13716-10.2479469-10.13716ZM443.68693,105.1157123c0,2.3265592-1.7172269,4.0991754-3.9883969,4.0991754h-2.3265677c-2.3265677,0-3.9883969-1.8280138-3.9883969-4.0991754v-15.8427754c0-2.3265592,1.7172269-4.0991754,3.9883969-4.0991754h2.3265677c2.3265677,0,3.9883969,1.8280138,3.9883969,4.0991754v15.8427754Z"/>
      <polygon class="cls-9" points="488.7778932 103.8416416 488.445524 102.345997 474.6523447 79.1357769 468.9467378 79.1357769 468.9467378 115.2528639 475.4278616 115.2528639 475.4278616 90.5470077 475.7602309 92.09805 489.5534101 115.2528639 495.259034 115.2528639 495.259034 79.1357769 488.7778932 79.1357769 488.7778932 103.8416416"/>
      <path class="cls-9" d="M520.1310579,89.6053062v-.2769715c0-2.3265592,1.71721-4.0991754,3.9883969-4.0991754h1.5510339c2.3265677,0,3.9883969,1.8280138,3.9883969,4.0991754v1.7726162l6.3149646-.6093408v-1.1632838c0-5.7610046-4.4869254-10.13716-10.2479469-10.13716h-1.7726246c-5.7610215,0-10.2479469,4.3761469-10.2479469,10.13716v.2769715c0,13.5162077,16.1751446,7.6444162,16.1751446,15.1226477v.4431562c0,2.3265592-1.71721,4.0991754-3.9883969,4.0991754h-2.0495962c-2.3265677,0-3.9883969-1.8280138-3.9883969-4.0991754v-1.7726162l-6.3149477.6093408v1.1632838c0,5.7610046,4.4869423,10.13716,10.24793,10.13716h2.2711531c5.7610215,0,10.2479469-4.3761469,10.2479469-10.13716v-.4431562c0-13.07306-16.1751446-8.0875723-16.1751446-15.1226477h.0000338Z"/>
      <path class="cls-9" d="M568.3795203,79.1357769h-2.4927439c-5.7610215,0-10.2479469,4.3761469-10.2479469,10.13716v15.8427754c0,5.7610046,4.4869254,10.13716,10.2479469,10.13716h2.4927439c5.7610215,0,10.2479469-4.3761469,10.2479469-10.13716v-15.8427754c-.0553808-5.7610046-4.4869254-10.13716-10.2479469-10.13716ZM572.2571218,105.1157123c0,2.3265592-1.71721,4.0991754-3.9883969,4.0991754h-2.3265677c-2.3265677,0-3.9883969-1.8280138-3.9883969-4.0991754v-15.8427754c0-2.3265592,1.71721-4.0991754,3.9883969-4.0991754h2.3265677c2.3265677,0,3.9883969,1.8280138,3.9883969,4.0991754v15.8427754Z"/>
      <path class="cls-9" d="M622.0565842,91.4887092v-1.9388008c0-5.9271892-4.5977208-10.4141316-10.5249185-10.4141316h-13.4054292v36.117087h6.4811408v-13.3500316h4.2099539l6.8689077,13.3500316h7.1458792l-7.3674362-14.0701508c3.9329823-1.4956446,6.5919362-5.1516723,6.5919362-9.6940039h-.0000338ZM611.476285,95.69868h-6.8134931v-10.3587339h6.8134931c2.3819485,0,4.1545731,1.8834031,4.1545731,4.2099708v1.8834031c0,2.4373462-1.8280054,4.26536-4.1545731,4.26536Z"/>
      <polygon class="cls-9" points="637.7885812 85.3399377 646.2639035 85.3399377 646.2639035 115.2528639 652.8004251 115.2528639 652.8004251 85.3399377 661.2757812 85.3399377 661.2757812 79.1357769 637.7885812 79.1357769 637.7885812 85.3399377"/>
      <rect class="cls-9" x="679.8328743" y="79.1357769" width="6.4811408" height="36.117087"/>
      <path class="cls-9" d="M722.5418721,105.004917c0,2.3265592-1.71721,4.1545731-4.0437777,4.1545731h-2.3265677c-2.3265677,0-4.0437777-1.8280138-4.0437777-4.1545731v-25.8137508h-6.4257262v25.8137508c0,5.8718,4.54234,10.2479469,10.3587423,10.2479469h2.5481246c5.8717831,0,10.3587423-4.4315446,10.3587423-10.2479469v-25.8137508h-6.4257262v25.8137508h-.0000338Z"/>
      <polygon class="cls-9" points="765.2508699 106.6667462 765.1401083 107.9962147 765.0293129 106.6667462 757.1079337 79.1357769 747.580106 79.1357769 747.580106 115.2528639 754.1166275 115.2528639 754.1166275 87.1679515 754.2828037 88.7189939 761.982626 115.2528639 768.2975568 115.2528639 775.9419983 88.7189939 776.1635553 87.1679515 776.1635553 115.2528639 782.7000768 115.2528639 782.7000768 79.1357769 773.172283 79.1357769 765.2508699 106.6667462"/>
    </g>
  </g>
  <g>
    <path class="cls-10" d="M405.8973321,188.7031479l-2.1835325-9.0398244h-12.2544695l-2.1253049,9.0398244h-10.3135517l12.6814714-42.0451309h12.0725084l12.6814714,42.0451309h-10.5585926ZM393.1576332,172.4431094h8.8578634l-4.4301448-18.5648783-4.4277186,18.5648783Z"/>
    <path class="cls-7" d="M439.569829,187.1868059c-1.1742552.807907-2.53775,1.4362791-4.0953365,1.8802641-1.5575865.4464111-3.1054684.6671905-4.6412196.6671905-7.038253-.0412445-10.5561664-3.92308-10.5561664-11.6479327v-14.9256575h-4.5514521v-6.6743309h4.5514521v-6.9751732l9.5857076-1.0941924v8.0693656h7.4021751l-1.0311126,6.6743309h-6.3710625v14.8043502c0,1.4945067.2426147,2.5668637.7278442,3.214645s1.2543181.9704589,2.3048398.9704589c1.0917662,0,2.2466123-.3420868,3.4596859-1.0311126l3.214645,6.0677941Z"/>
    <path class="cls-8" d="M462.9894278,187.1868059c-1.1742552.807907-2.5401761,1.4362791-4.0953365,1.8802641-1.5575865.4464111-3.1054684.6671905-4.6412196.6671905-7.038253-.0412445-10.5585926-3.92308-10.5585926-11.6479327v-14.9256575h-4.549026v-6.6743309h4.549026v-6.9751732l9.5857076-1.0941924v8.0693656h7.4021751l-1.0311126,6.6743309h-6.3710625v14.8043502c0,1.4945067.2450409,2.5668637.7302703,3.214645s1.251892.9704589,2.3048398.9704589c1.0917662,0,2.2441862-.3420868,3.4572598-1.0311126l3.2170712,6.0677941Z"/>
    <path class="cls-4" d="M493.0227039,175.4175658h-19.9623391c.3226776,2.7075803,1.0917662,4.6096797,2.3048398,5.7014459,1.2154997,1.0917662,2.8919675,1.6400755,5.0366816,1.6400755,1.2931365,0,2.5474546-.2329101,3.7629543-.6987304,1.2130736-.4658203,2.5256192-1.1839598,3.9424892-2.1544187l3.9424892,5.3375238c-3.7605281,2.9938656-7.9456321,4.4907985-12.5577379,4.4907985-5.2186426,0-9.2217855-1.5357512-12.0142809-4.6121058-2.7900693-3.0715023-4.1851039-7.1959526-4.1851039-12.3757768,0-3.2777249.5847015-6.2182153,1.7589567-8.8287496,1.1742552-2.6081082,2.8919675-4.6703333,5.1579889-6.1866753,2.2635953-1.5187681,4.9736017-2.2757261,8.1300192-2.2757261,4.6509242,0,8.290145,1.4556883,10.9200885,4.3670649,2.6299436,2.9138028,3.9449153,6.9581902,3.9449153,12.1355883,0,1.334381-.0606537,2.489227-.181961,3.4596859ZM483.7984923,169.2260382c-.0800629-4.9323572-1.8196104-7.3997489-5.2162165-7.3997489-1.6594847,0-2.9429165.6065368-3.8527217,1.8196104s-1.4678191,3.2170712-1.6691893,6.0071405h10.7381275v-.4270019Z"/>
    <path class="cls-5" d="M516.4398767,156.4863393c2.0209806.6890258,3.8017727,1.6594847,5.33995,2.9138028l-3.5203396,5.3981775c-2.6299436-1.6570585-5.2792963-2.4868009-7.9480582-2.4868009-1.2543181,0-2.2150724.213501-2.8822629.6356506-.6671905.4270019-.9995726,1.0238341-.9995726,1.7904966,0,.6065368.1504211,1.1014708.4536895,1.4872282s.9195098.7787932,1.8511503,1.1815337c.9292144.4075927,2.3654935.8928222,4.3064113,1.4556883,3.3577877.9704589,5.8567193,2.2369077,7.4943687,3.7944942s2.4576871,3.7120052,2.4576871,6.46083c0,2.1835325-.6283721,4.0735011-1.8826902,5.6723321s-2.9720303,2.8216092-5.1555628,3.6707607c-2.1835325.8491515-4.6121058,1.2737273-7.2808677,1.2737273-2.7100064,0-5.2283472-.4245758-7.5525962-1.2737273-2.3266752-.8491515-4.2991328-2.0234068-5.917373-3.5179134l4.6727595-5.2186426c2.7100064,2.1034696,5.5607294,3.1564175,8.554595,3.1564175,1.4556883,0,2.5984036-.26445,3.428146-.790924.8273162-.5240478,1.2421874-1.2737273,1.2421874-2.2441862,0-.7690887-.1601257-1.3756255-.4852294-1.8220365-.3226776-.4415588-.9510497-.8588561-1.8802641-1.2421874-.9316405-.3833313-2.406738-.8588561-4.4277186-1.4265745-3.197662-.9292144-5.5825647-2.2223508-7.1595604-3.8818355-1.5769957-1.6594847-2.3679197-3.7217098-2.3679197-6.1891015,0-1.8608549.5361785-3.527618,1.6085356-5.0051417,1.0723571-1.4750975,2.6081082-2.6493527,4.6121058-3.5179134,2.0015714-.8685607,4.3161159-1.3052672,6.9460594-1.3052672,2.3048398,0,4.4689631.3445129,6.4923699,1.0311126Z"/>
    <path class="cls-2" d="M548.1108021,187.1868059c-1.1742552.807907-2.5401761,1.4362791-4.0953365,1.8802641-1.5575865.4464111-3.1054684.6671905-4.6412196.6671905-7.038253-.0412445-10.5585926-3.92308-10.5585926-11.6479327v-14.9256575h-4.549026v-6.6743309h4.549026v-6.9751732l9.5857076-1.0941924v8.0693656h7.4021751l-1.0311126,6.6743309h-6.3710625v14.8043502c0,1.4945067.2450409,2.5668637.7302703,3.214645s1.251892.9704589,2.3048398.9704589c1.0917662,0,2.2441862-.3420868,3.4572598-1.0311126l3.2170712,6.0677941Z"/>
    <path class="cls-3" d="M576.7150775,182.0288169c.3445129.5677184.9001006.9922942,1.6691893,1.2737273l-2.0015714,6.2497552c-1.9821623-.1601257-3.6004024-.5968322-4.8547205-1.3052672-1.2543181-.7060088-2.224777-1.829315-2.9113766-3.3674923-2.1034696,3.2364804-5.33995,4.8547205-9.7070149,4.8547205-3.1952359,0-5.7451166-.9292144-7.6447898-2.7900693-1.9020994-1.8608549-2.8531491-4.2870021-2.8531491-7.2808677,0-3.5179134,1.2955626-6.2085107,3.8842617-8.0693656,2.5886991-1.8584288,6.329818-2.7900693,11.2233569-2.7900693h3.2777249v-1.3974608c0-1.8996733-.4051666-3.2025143-1.2130736-3.9109493-.8103332-.708435-2.2272031-1.0626525-4.2481837-1.0626525-1.0529479,0-2.3266752.1504211-3.8211818.4561157-1.4969328.3008423-3.0351101.7181396-4.6121058,1.2421874l-2.1835325-6.3079827c2.0209806-.7690887,4.0953365-1.3562163,6.2182153-1.7613829,2.1228788-.4027404,4.0953365-.6065368,5.9149469-.6065368,4.6121058,0,7.9893027.9510497,10.1315907,2.8531491,2.1447141,1.8996733,3.2170712,4.7503962,3.2170712,8.554595v12.4970842c0,1.2130736.1722565,2.1034696.5143432,2.6687619ZM566.7969878,179.7846308v-5.7038721h-2.3679197c-2.1835325,0-3.8114772.3857574-4.8838343,1.1524199-1.0723571.7715148-1.6061094,1.9627531-1.6061094,3.5809933,0,1.2955626.3323822,2.2951352.9995726,3.0035702s1.5867003,1.0626525,2.7609555,1.0626525c2.1835325,0,3.8842617-1.0335387,5.0973353-3.0957638Z"/>
    <path class="cls-1" d="M604.0480518,187.1868059c-1.1742552.807907-2.5401761,1.4362791-4.0953365,1.8802641-1.5575865.4464111-3.1054684.6671905-4.6412196.6671905-7.038253-.0412445-10.5585926-3.92308-10.5585926-11.6479327v-14.9256575h-4.549026v-6.6743309h4.549026v-6.9751732l9.5857076-1.0941924v8.0693656h7.4021751l-1.0311126,6.6743309h-6.3710625v14.8043502c0,1.4945067.2450409,2.5668637.7302703,3.214645s1.251892.9704589,2.3048398.9704589c1.0917662,0,2.2441862-.3420868,3.4572598-1.0311126l3.2170712,6.0677941Z"/>
    <path class="cls-6" d="M616.0890203,141.0439124c1.0723571,1.0335387,1.6085356,2.3388059,1.6085356,3.9158016s-.5361785,2.8822629-1.6085356,3.9109493c-1.0723571,1.0335387-2.4358518,1.5478819-4.0953365,1.5478819s-3.0132748-.5143432-4.0637965-1.5478819c-1.0529479-1.0286864-1.5769957-2.3339536-1.5769957-3.9109493s.5240478-2.8822629,1.5769957-3.9158016c1.0505217-1.0286864,2.4043119-1.5454558,4.0637965-1.5454558s3.0229794.5167694,4.0953365,1.5454558ZM616.8484044,156.4863393v32.2168086h-9.5857076v-32.2168086h9.5857076Z"/>
    <path class="cls-12" d="M649.9143645,159.9751389c2.7900693,3.0132748,4.1851039,7.2299186,4.1851039,12.6499315,0,3.4378506-.6356506,6.4414208-1.9093778,9.0082845-1.2761534,2.571716-3.0957638,4.5611567-5.4612573,5.9780267-2.3654935,1.4144438-5.1676935,2.1228788-8.4041739,2.1228788-4.8935389,0-8.7462606-1.5066374-11.5581652-4.5199122-2.8094784-3.0132748-4.2166438-7.2299186-4.2166438-12.6499315,0-3.4378506.6380767-6.4389947,1.911804-9.0107107,1.2737273-2.5668637,3.0957638-4.5587306,5.4612573-5.9756005,2.3654935-1.4144438,5.1652674-2.1228788,8.4017477-2.1228788,4.9347834,0,8.7972097,1.5090636,11.5897051,4.5199122ZM633.9575944,164.9511668c-.9704589,1.6376494-1.4556883,4.1753993-1.4556883,7.6132499,0,3.5179134.4730987,6.0896295,1.4241484,7.7054435.9510497,1.6182402,2.4164426,2.4261472,4.3986049,2.4261472,1.9433439,0,3.3990322-.8200378,4.3694911-2.455261.9704589-1.6400755,1.4556883-4.1778255,1.4556883-7.615676,0-3.5203396-.4755248-6.0872033-1.4265745-7.7054435-.9486236-1.6182402-2.4164426-2.4261472-4.3986049-2.4261472-1.9409178,0-3.3966061.8176116-4.3670649,2.4576871Z"/>
    <path class="cls-15" d="M685.2245107,158.0026813c1.5769957,1.698303,2.3679197,4.0856319,2.3679197,7.1595604v23.5409062h-9.5881337v-21.9032569c0-1.615814-.2523193-2.7391202-.7569579-3.3674923-.5070648-.625946-1.2640227-.938919-2.2757261-.938919-1.9409178,0-3.8017727,1.3950346-5.5825647,4.1851039v22.0245642h-9.5857076v-32.2168086h8.372634l.6671905,3.8211818c1.3756255-1.615814,2.8628537-2.8288876,4.4592585-3.6392208,1.598831-.807907,3.3869015-1.2130736,5.3690637-1.2130736,2.7924954,0,4.9760279.8491515,6.5530236,2.5474546Z"/>
    <path class="cls-14" d="M405.5042962,215.2160844c2.324249.890396,4.4374232,2.2441862,6.3395226,4.0637965l-4.6096797,5.4006037c-2.8725583-2.3460843-5.9464868-3.5179134-9.2242116-3.5179134-1.7395475,0-3.115173.3542175-4.1244502,1.0602263-1.0117034.708435-1.516342,1.7298429-1.516342,3.0642239,0,.9316405.2207794,1.6885984.6671905,2.2757261.4439849.5871276,1.2324828,1.1427153,2.3654935,1.6691893s2.8313138,1.1524199,5.0973353,1.8802641c4.2870021,1.3756255,7.4409934,3.0642239,9.4644002,5.0657953,2.0209806,2.0015714,3.032684,4.8450159,3.032684,8.5254812,0,2.6275174-.6671905,4.944488-2.0015714,6.9460594s-3.2558895,3.5591579-5.7645257,4.6703333c-2.5086362,1.1136016-5.4806665,1.6691893-8.9185171,1.6691893s-6.4826653-.5458831-9.1295919-1.6376494c-2.6493527-1.0917662-4.9250788-2.5474546-6.8271782-4.3694911l5.0366816-5.5194849c1.6182402,1.3756255,3.2850033,2.406738,5.0051417,3.0933377,1.7177122.6890258,3.5882717,1.0311126,5.6116785,1.0311126,2.0622251,0,3.6901699-.4536895,4.8838343-1.3634947,1.1936644-.9122313,1.7904966-2.1738279,1.7904966-3.7920681,0-1.0529479-.2232055-1.9312132-.6671905-2.6396481-.4464111-.708435-1.2130736-1.3440855-2.3048398-1.911804-1.0917662-.5652923-2.6711881-1.1718291-4.7334132-1.8196104-4.6509242-1.41687-7.9577628-3.1564175-9.9205159-5.2186426-1.9603269-2.0622251-2.9404904-4.6703333-2.9404904-7.8267508,0-2.4261472.6453552-4.5587306,1.9409178-6.4001763,1.2931365-1.8390196,3.0933377-3.2558895,5.3981775-4.2457576,2.307266-.9922942,4.9153742-1.4872282,7.8267508-1.4872282,3.1564175,0,5.8955377.4464111,8.2222128,1.334381Z"/>
    <path class="cls-11" d="M445.5163157,228.2008242c1.9821623,2.9914395,2.9720303,7.1789695,2.9720303,12.5577379,0,3.3165432-.5143432,6.2788689-1.5454558,8.8894033-1.0311126,2.6081082-2.5183408,4.6509242-4.4592585,6.1260217-1.9433439,1.4775236-4.2069392,2.2150724-6.7956383,2.2150724-3.2364804,0-5.8445886-1.1111754-7.8267508-3.3359524v14.7436965l-9.5857076,1.0311126v-45.6867778h8.4332876l.4852294,3.5809933c1.251892-1.5794218,2.6881711-2.7415463,4.3064113-3.4887997,1.6182402-.7496795,3.2777249-1.1233062,4.9760279-1.1233062,4.0443874,0,7.0576622,1.4969328,9.0398244,4.4907985ZM438.5387164,240.8798694c0-3.8017727-.4245758-6.4414208-1.2737273-7.9165183-.8491515-1.4775236-2.1228788-2.2150724-3.8211818-2.2150724-1.0941924,0-2.1156004.3226776-3.0642239.9704589-.9510497.6477813-1.7904966,1.5769957-2.5183408,2.7900693v13.5912766c1.2931365,1.9020994,2.9307858,2.850723,4.9129481,2.850723,3.8430172,0,5.7645257-3.3553616,5.7645257-10.070937Z"/>
    <path class="cls-16" d="M482.4034577,243.6699387h-19.959913c.3226776,2.7124326,1.0917662,4.6121058,2.3048398,5.7038721s2.8919675,1.6376494,5.0366816,1.6376494c1.2931365,0,2.5474546-.230484,3.7605281-.6963042s2.5280454-1.1839598,3.9424892-2.1544187l3.9449153,5.33995c-3.7605281,2.9938656-7.9480582,4.4883723-12.560164,4.4883723-5.2162165,0-9.2217855-1.5357512-12.0118548-4.6096797s-4.1875301-7.2008049-4.1875301-12.378203c0-3.2752987.5871276-6.2182153,1.7613829-8.8263235,1.1718291-2.6105344,2.8895413-4.6727595,5.1555628-6.1891015s4.9760279-2.2757261,8.1300192-2.2757261c4.6509242,0,8.2925711,1.4556883,10.9225147,4.3694911,2.6275174,2.9113766,3.9424892,6.955764,3.9424892,12.1331621,0,1.334381-.0606537,2.4868009-.181961,3.4572598ZM473.1816722,237.4832633c-.082489-4.9347834-1.8196104-7.4021751-5.2186426-7.4021751-1.6570585,0-2.9429165.6065368-3.8527217,1.8196104s-1.4653929,3.214645-1.6667631,6.0071405h10.7381275v-.4245758Z"/>
    <path class="cls-20" d="M507.9459353,224.6804846c1.7783659.6477813,3.4572598,1.6376494,5.0342554,2.9720303l-4.1244502,5.7038721c-2.0234068-1.5357512-4.0662227-2.3048398-6.1284478-2.3048398-2.1447141,0-3.7605281.7884978-4.8547205,2.3654935-1.0917662,1.5769957-1.6376494,4.1268764-1.6376494,7.6447898,0,3.3966061.5458831,5.8057702,1.6376494,7.220214,1.0941924,1.41687,2.6711881,2.1228788,4.7334132,2.1228788,1.0917662,0,2.0816343-.1722565,2.9720303-.5143432.890396-.3445129,1.9627531-.9001006,3.2170712-1.6691893l4.1851039,5.9464868c-3.1952359,2.5474546-6.8150475,3.8211818-10.8594348,3.8211818-3.2752987,0-6.1090386-.6963042-8.4939413-2.093765-2.3873288-1.3950346-4.2263484-3.3553616-5.521911-5.8834069s-1.9409178-5.4927972-1.9409178-8.8894033.6453552-6.4098809,1.9409178-9.0398244,3.1345822-4.6800379,5.521911-6.1575616c2.3849027-1.4775236,5.1579889-2.2150724,8.3119803-2.2150724,2.224777,0,4.2263484.3251037,6.0071405.9704589Z"/>
    <path class="cls-19" d="M525.8727369,209.3011375c1.0723571,1.0311126,1.6085356,2.3339536,1.6085356,3.9109493,0,1.5794218-.5361785,2.884689-1.6085356,3.9133754-1.0723571,1.0335387-2.4358518,1.5478819-4.0953365,1.5478819s-3.0132748-.5143432-4.0637965-1.5478819c-1.0529479-1.0286864-1.5769957-2.3339536-1.5769957-3.9133754,0-1.5769957.5240478-2.8798367,1.5769957-3.9109493,1.0505217-1.0335387,2.4043119-1.5478819,4.0637965-1.5478819s3.0229794.5143432,4.0953365,1.5478819ZM526.632121,224.7411383v32.2168086h-9.5857076v-32.2168086h9.5857076Z"/>
    <path class="cls-18" d="M560.273078,250.2836159c.3445129.5677184.9001006.9922942,1.6691893,1.2737273l-2.0015714,6.2497552c-1.9821623-.1625519-3.6004024-.5968322-4.8547205-1.3052672-1.2543181-.7060088-2.224777-1.829315-2.9113766-3.3650662-2.1034696,3.2364804-5.33995,4.8522944-9.7070149,4.8522944-3.1952359,0-5.7451166-.9316405-7.6447898-2.7900693-1.9020994-1.8608549-2.8531491-4.2870021-2.8531491-7.2808677,0-3.5203396,1.2955626-6.2085107,3.8842617-8.0693656,2.5886991-1.8608549,6.329818-2.7900693,11.2233569-2.7900693h3.2777249v-1.3974608c0-1.8996733-.4051666-3.2049404-1.2130736-3.9133754-.8103332-.7060088-2.2272031-1.0602263-4.2481837-1.0602263-1.0529479,0-2.3266752.1504211-3.8211818.4536895-1.4969328.3032684-3.0351101.7205657-4.6121058,1.2446135l-2.1835325-6.3104089c2.0209806-.7666625,4.0953365-1.3537901,6.2182153-1.7589567,2.1228788-.4027404,4.0953365-.6065368,5.9149469-.6065368,4.6121058,0,7.9893027.9510497,10.1315907,2.850723,2.1447141,1.9020994,3.2170712,4.7528224,3.2170712,8.554595v12.4995103c0,1.2130736.1722565,2.1034696.5143432,2.6687619ZM550.3549883,248.0394298v-5.7038721h-2.3679197c-2.1835325,0-3.8114772.3857574-4.8838343,1.1524199-1.0723571.7690887-1.6061094,1.9627531-1.6061094,3.5809933,0,1.2955626.3323822,2.2951352.9995726,3.0035702s1.5867003,1.0602263,2.7609555,1.0602263c2.1835325,0,3.8842617-1.0311126,5.0973353-3.0933377Z"/>
    <path class="cls-17" d="M568.827673,255.592026c-1.5575865-1.5964049-2.3363797-3.8721309-2.3363797-6.8247521v-36.8264882l9.5857076-1.0335387v37.4961049c0,1.334381.5458831,2.0015714,1.6400755,2.0015714.5652923,0,1.0917662-.099472,1.5769957-.3032684l1.8802641,6.7956383c-1.7395475.7278442-3.6804653,1.0917662-5.8251794,1.0917662-2.7900693,0-4.9638972-.7982024-6.5214837-2.3970334Z"/>
    <path class="cls-13" d="M609.324922,214.912816v42.0451309h-9.9496296v-42.0451309h9.9496296Z"/>
    <path class="cls-30" d="M642.390882,226.2574803c1.5769957,1.698303,2.3679197,4.0856319,2.3679197,7.1595604v23.5409062h-9.5881337v-21.9032569c0-1.615814-.2523193-2.7391202-.7569579-3.3674923-.5070648-.625946-1.2640227-.938919-2.2757261-.938919-1.9409178,0-3.8017727,1.3950346-5.5825647,4.1851039v22.0245642h-9.5857076v-32.2168086h8.372634l.6671905,3.823608c1.3756255-1.6182402,2.8628537-2.8313138,4.4592585-3.6416469,1.598831-.807907,3.3869015-1.2130736,5.3690637-1.2130736,2.7924954,0,4.9760279.8491515,6.5530236,2.5474546Z"/>
    <path class="cls-23" d="M672.1815434,255.4416049c-1.1742552.8103332-2.53775,1.4362791-4.0953365,1.8802641s-3.1054684.6671905-4.6412196.6671905c-7.038253-.0412445-10.5561664-3.92308-10.5561664-11.6479327v-14.9256575h-4.5514521v-6.6743309h4.5514521v-6.9775993l9.5857076-1.0917662v8.0693656h7.4021751l-1.0311126,6.6743309h-6.3710625v14.8043502c0,1.4969328.2426147,2.5692899.7278442,3.214645.4852294.6477813,1.2543181.9704589,2.3048398.9704589,1.0917662,0,2.2466123-.3420868,3.4596859-1.0311126l3.214645,6.0677941Z"/>
    <path class="cls-29" d="M702.2148195,243.6699387h-19.9623391c.3226776,2.7124326,1.0917662,4.6121058,2.3048398,5.7038721,1.2154997,1.0917662,2.8919675,1.6376494,5.0366816,1.6376494,1.2931365,0,2.5474546-.230484,3.7629543-.6963042,1.2130736-.4658203,2.5256192-1.1839598,3.9424892-2.1544187l3.9424892,5.33995c-3.7605281,2.9938656-7.9456321,4.4883723-12.5577379,4.4883723-5.2186426,0-9.2217855-1.5357512-12.0142809-4.6096797-2.7900693-3.0739285-4.1851039-7.2008049-4.1851039-12.378203,0-3.2752987.5847015-6.2182153,1.7589567-8.8263235,1.1742552-2.6105344,2.8919675-4.6727595,5.1579889-6.1891015,2.2635953-1.516342,4.9736017-2.2757261,8.1300192-2.2757261,4.6509242,0,8.290145,1.4556883,10.9200885,4.3694911,2.6299436,2.9113766,3.9449153,6.955764,3.9449153,12.1331621,0,1.334381-.0606537,2.4868009-.181961,3.4572598ZM692.9906079,237.4832633c-.0800629-4.9347834-1.8196104-7.4021751-5.2162165-7.4021751-1.6594847,0-2.9429165.6065368-3.8527217,1.8196104s-1.4678191,3.214645-1.6691893,6.0071405h10.7381275v-.4245758Z"/>
    <path class="cls-27" d="M728.4851414,224.2559088l-1.5187681,9.2824392c-1.2130736-.2814331-2.1835325-.4245758-2.9113766-.4245758-1.9020994,0-3.3480831.6574859-4.3379512,1.9724577s-1.7710875,3.2874294-2.3339536,5.9149469v15.9567701h-9.5881337v-32.2168086h8.3702078l.790924,6.2497552c.7278442-2.224777,1.829315-3.9740291,3.3044125-5.2477564,1.4799498-1.2737273,3.1491391-1.911804,5.0075678-1.911804,1.1742552,0,2.2466123.1431427,3.2170712.4245758Z"/>
    <path class="cls-24" d="M758.2127229,243.6699387h-19.9623391c.3251037,2.7124326,1.0941924,4.6121058,2.307266,5.7038721s2.8895413,1.6376494,5.0342554,1.6376494c1.2955626,0,2.5498807-.230484,3.7629543-.6963042s2.5256192-1.1839598,3.9424892-2.1544187l3.9449153,5.33995c-3.7629543,2.9938656-7.9480582,4.4883723-12.560164,4.4883723-5.2162165,0-9.2217855-1.5357512-12.0118548-4.6096797-2.7924954-3.0739285-4.1875301-7.2008049-4.1875301-12.378203,0-3.2752987.5871276-6.2182153,1.7589567-8.8263235,1.1742552-2.6105344,2.8919675-4.6727595,5.1579889-6.1891015s4.9760279-2.2757261,8.1300192-2.2757261c4.6509242,0,8.290145,1.4556883,10.9200885,4.3694911,2.6299436,2.9113766,3.9449153,6.955764,3.9449153,12.1331621,0,1.334381-.0606537,2.4868009-.181961,3.4572598ZM748.9909374,237.4832633c-.082489-4.9347834-1.8220365-7.4021751-5.2186426-7.4021751-1.6594847,0-2.9429165.6065368-3.8527217,1.8196104s-1.4653929,3.214645-1.6691893,6.0071405h10.7405536v-.4245758Z"/>
    <path class="cls-25" d="M781.6323218,224.7411383c2.0209806.6890258,3.7993465,1.6594847,5.3375238,2.9113766l-3.5179134,5.4006037c-2.6299436-1.6570585-5.2792963-2.4868009-7.9480582-2.4868009-1.2543181,0-2.2150724.2110748-2.8822629.6356506s-1.0019988,1.0238341-1.0019988,1.7904966c0,.6065368.1528473,1.103897.4561157,1.4872282s.9195098.7787932,1.8511503,1.1815337c.9292144.4051666,2.3654935.890396,4.3064113,1.4581145,3.3577877.9704589,5.8542932,2.2344816,7.4943687,3.7920681,1.6376494,1.5575865,2.455261,3.7095791,2.455261,6.46083,0,2.1835325-.625946,4.0759273-1.8802641,5.6723321-1.2543181,1.598831-2.9720303,2.8216092-5.1555628,3.6707607-2.1859586.8491515-4.6121058,1.2737273-7.2808677,1.2737273-2.7100064,0-5.2283472-.4245758-7.5550224-1.2737273s-4.2967067-2.0209806-5.9149469-3.5179134l4.6727595-5.2186426c2.7075803,2.1034696,5.5607294,3.1539914,8.554595,3.1539914,1.4556883,0,2.5984036-.2620239,3.428146-.7884978.8273162-.5240478,1.2421874-1.2737273,1.2421874-2.2441862,0-.7690887-.1625519-1.3756255-.4852294-1.8196104-.3226776-.4464111-.9510497-.8588561-1.8802641-1.2446135-.9316405-.3833313-2.406738-.8588561-4.4301448-1.4265745-3.1952359-.9292144-5.5801385-2.2223508-7.1571342-3.8818355-1.5794218-1.6570585-2.3679197-3.7217098-2.3679197-6.1891015,0-1.8584288.5361785-3.527618,1.6085356-5.0051417,1.0699309-1.4750975,2.6081082-2.6493527,4.6096797-3.5179134,2.0039976-.8709868,4.318542-1.3052672,6.9484856-1.3052672,2.3048398,0,4.4689631.3445129,6.4923699,1.0311126Z"/>
    <path class="cls-22" d="M813.3008211,255.4416049c-1.1742552.8103332-2.5401761,1.4362791-4.0953365,1.8802641-1.5575865.4439849-3.1054684.6671905-4.6412196.6671905-7.038253-.0412445-10.5561664-3.92308-10.5561664-11.6479327v-14.9256575h-4.5514521v-6.6743309h4.5514521v-6.9775993l9.5857076-1.0917662v8.0693656h7.4021751l-1.0335387,6.6743309h-6.3686364v14.8043502c0,1.4969328.2426147,2.5692899.7278442,3.214645.4852294.6477813,1.251892.9704589,2.3048398.9704589,1.0917662,0,2.2441862-.3420868,3.4596859-1.0311126l3.214645,6.0677941Z"/>
    <path class="cls-26" d="M863.291584,219.0372662l-5.0342554,5.2792963c-1.4969328-1.1305846-2.8822629-1.9506223-4.1559901-2.4576871-1.2737273-.5046386-2.7415463-.7569579-4.3986049-.7569579-3.115173,0-5.6044,1.2227782-7.4628288,3.6707607-1.8608549,2.4455564-2.7924954,6.1575616-2.7924954,11.1311633,0,5.3811945.708435,9.1926717,2.1253049,11.4368579,1.4144438,2.2466123,3.6198116,3.3674923,6.6136772,3.3674923,2.1010435,0,4.0031429-.4633941,5.7014459-1.3950346v-9.5250539h-5.4588312l-.972885-7.038253h16.0780775v20.8114906c-2.1835325,1.4144438-4.5902705,2.5062101-7.2177879,3.2752987-2.6299436.7666625-5.2598871,1.1524199-7.8874045,1.1524199-6.3928979,0-11.2063739-1.8705595-14.4404281-5.6116785-3.2364804-3.741119-4.8547205-9.2314901-4.8547205-16.4735394,0-4.6096797.8806914-8.5740042,2.6396481-11.8905474s4.1656947-5.834884,7.220214-7.5525962c3.0545193-1.7201384,6.4802392-2.5789945,10.284438-2.5789945,5.4200128,0,10.0903462,1.7201384,14.0134262,5.1555628Z"/>
    <path class="cls-28" d="M890.7167519,224.2559088l-1.516342,9.2824392c-1.2130736-.2814331-2.1835325-.4245758-2.9138028-.4245758-1.8996733,0-3.345657.6574859-4.3379512,1.9724577-.9898681,1.3149718-1.7686613,3.2874294-2.3339536,5.9149469v15.9567701h-9.5881337v-32.2168086h8.372634l.790924,6.2497552c.7278442-2.224777,1.829315-3.9740291,3.3044125-5.2477564,1.4775236-1.2737273,3.1467129-1.911804,5.0075678-1.911804,1.1718291,0,2.2441862.1431427,3.214645.4245758Z"/>
    <path class="cls-21" d="M918.0788399,228.2299379c2.7900693,3.0132748,4.1851039,7.2299186,4.1851039,12.6499315,0,3.4378506-.6380767,6.4414208-1.911804,9.0107107s-3.0933377,4.5587306-5.4588312,5.9756005c-2.3679197,1.4144438-5.1676935,2.1228788-8.4041739,2.1228788-4.8935389,0-8.7462606-1.5066374-11.5581652-4.5199122s-4.2166438-7.2299186-4.2166438-12.6499315c0-3.4378506.6380767-6.4414208,1.911804-9.0107107,1.2737273-2.5668637,3.0933377-4.5587306,5.4612573-5.9756005,2.3654935-1.4144438,5.1652674-2.1228788,8.4017477-2.1228788,4.9347834,0,8.7972097,1.5066374,11.5897051,4.5199122ZM902.1220698,233.2059658c-.972885,1.6376494-1.4581145,4.1753993-1.4581145,7.6132499,0,3.5179134.4755248,6.0872033,1.4265745,7.7054435s2.4164426,2.4261472,4.3986049,2.4261472c1.9409178,0,3.3990322-.8176116,4.3694911-2.4576871.9704589-1.6376494,1.4556883-4.1753993,1.4556883-7.6132499,0-3.5179134-.4755248-6.0872033-1.4265745-7.7054435-.9510497-1.615814-2.4164426-2.4261472-4.3986049-2.4261472-1.9409178,0-3.3966061.8176116-4.3670649,2.4576871Z"/>
    <path class="cls-39" d="M955.1479429,256.9579469h-8.3119803l-.4245758-4.0637965c-2.3460843,3.3966061-5.6044,5.0949091-9.7676686,5.0949091-2.9550473,0-5.1895288-.890396-6.7058708-2.6687619-1.516342-1.780792-2.2757261-4.2675929-2.2757261-7.4628288v-23.1163305h9.5881337v21.9032569c0,1.5769957.2523193,2.6784665.7569579,3.3068386.5046386.625946,1.2834319.938919,2.3363797.938919,2.0209806,0,3.7605281-1.251892,5.2186426-3.7605281v-22.3884863h9.5857076v32.2168086Z"/>
    <path class="cls-34" d="M989.912206,228.2008242c1.9797361,2.9914395,2.9720303,7.1789695,2.9720303,12.5577379,0,3.3165432-.5143432,6.2788689-1.5478819,8.8894033-1.0311126,2.6081082-2.5159146,4.6509242-4.4592585,6.1260217-1.9409178,1.4775236-4.2069392,2.2150724-6.7932121,2.2150724-3.2364804,0-5.8470147-1.1111754-7.8267508-3.3359524v14.7436965l-9.5881337,1.0311126v-45.6867778h8.4332876l.4876556,3.5809933c1.251892-1.5794218,2.6881711-2.7415463,4.3064113-3.4887997,1.6182402-.7496795,3.2752987-1.1233062,4.9760279-1.1233062,4.0443874,0,7.0576622,1.4969328,9.0398244,4.4907985ZM982.9346067,240.8798694c0-3.8017727-.4245758-6.4414208-1.2737273-7.9165183-.8491515-1.4775236-2.1253049-2.2150724-3.823608-2.2150724-1.0917662,0-2.1131742.3226776-3.0642239.9704589-.9486236.6477813-1.7880705,1.5769957-2.5159146,2.7900693v13.5912766c1.2931365,1.9020994,2.9307858,2.850723,4.9129481,2.850723,3.8430172,0,5.7645257-3.3553616,5.7645257-10.070937Z"/>
  </g>
  <g>
    <path class="cls-32" d="M133.462231,138.3701466h49.4685347c3.2155548,0,5.8197206-2.604469,5.8197206-5.8197206,0-3.2155548-2.6041657-5.8197206-5.8197206-5.8197206h-49.4685347c-3.2152516,0-5.8197206,2.6041657-5.8197206,5.8197206,0,3.2152516,2.604469,5.8197206,5.8197206,5.8197206Z"/>
    <path class="cls-31" d="M220.7598594,174.4348246c-1.5618323.890396-1.0629557.5052452-10.3450916,14.4258712l-3.8845649-2.5896089c-2.6769502-1.7823084-6.2888768-1.0623492-8.0714884,1.611265-1.7820051,2.6772534-1.0620459,6.2891801,1.6115683,8.0711852l8.7298841,5.8200238c2.6681554,1.7786692,6.2849343,1.067808,8.0711852-1.611265,4.9736017-7.4579765,2.3348634-3.5003239,11.6394412-17.4597683,3.4066139-5.1161379-2.4504087-11.3337466-7.7509337-8.2677031Z"/>
    <path class="cls-37" d="M162.5614405,150.009891h-29.0992094c-3.2152516,0-5.8197206,2.6041657-5.8197206,5.8200238,0,3.2152516,2.604469,5.8197206,5.8197206,5.8197206h29.0992094c3.2155548,0,5.8197206-2.604469,5.8197206-5.8197206,0-3.2158581-2.6041657-5.8200238-5.8197206-5.8200238Z"/>
    <path class="cls-33" d="M289.3485569,236.0753398c6.1675694,0,11.8474833,2.0676839,16.4374505,5.5131162,13.5846047-23.22763,21.4046836-50.2373201,21.4046836-79.088456,0-42.7308207-17.1010018-81.4512201-44.8048733-109.7510141-4.9663233,4.9214396-11.7925917,7.9695903-19.3203199,7.9695903-15.1461337,0-27.468232-12.3220983-27.468232-27.4685353,0-4.3552375,1.0459727-8.4617949,2.8580014-12.1240641-20.6225544-9.9666127-43.7555646-15.5570623-68.1956617-15.5570623-53.0480117,0-99.9135937,26.3482618-128.3189251,66.6432307,1.1002578.8063907,2.1647298,1.6716154,3.1500489,2.6487462,5.2210688,5.1770948,8.0963565,12.105868,8.0960532,19.5098627,0,15.1464369-12.3220983,27.4685353-27.468232,27.4685353-2.3466909,0-4.6130156-.3275299-6.7889664-.8840274-3.6261802,13.2370591-5.6010641,27.1570786-5.6010641,41.544738,0,38.7765041,14.0931858,74.2425303,37.3981492,101.6267569,4.8535075-4.3155093,11.2221438-6.9621326,18.2124804-6.9621326,15.1461337,0,27.468232,12.3217951,27.468232,27.468232,0,5.1707262-1.4626635,9.9945134-3.9567428,14.1289714,22.9392217,13.1275792,49.4855178,20.6692577,77.8089666,20.6692577,38.0535122,0,72.9378696-13.5506386,100.1067757-36.0810545-5.2177328-5.0030188-8.4860563-12.0239855-8.4860563-19.8064592,0-15.1461337,12.3220983-27.468232,27.468232-27.468232ZM177.1110452,234.3973557h-65.9275173c-6.9694111,0-12.6402269-5.6708158-12.6402269-12.6399236V86.992234c0-6.9694111,5.6708158-12.6402269,12.6402269-12.6402269h102.7561284c6.9694111,0,12.6399236,5.6708158,12.6399236,12.6402269v58.7764484c-37.8372818-10.5076435-68.8601227,30.5806756-49.3775542,63.9817472-.1297989,1.1524199-.0909805-.3975849-.0909805,24.6469261ZM241.1291847,254.766681c0,4.4716925-4.8456225,7.2660076-8.7080488,5.0524515l-17.4813003-9.9881447-17.4813003,9.9881447c-3.8781963,2.216892-8.7080488-.5934963-8.7080488-5.0524515v-32.0309051c15.5279486,11.6825053,36.8731916,11.6661288,52.3786983,0v32.0309051ZM214.9398355,219.847751c-17.6487045,0-32.0090697-14.3603652-32.0090697-32.0090697,0-17.6484012,14.3603652-32.0087665,32.0090697-32.0087665s32.0090697,14.3603652,32.0090697,32.0087665c0,17.6487045-14.3603652,32.0090697-32.0090697,32.0090697Z"/>
    <path class="cls-42" d="M133.462231,115.090961h49.4685347c3.2155548,0,5.8197206-2.604469,5.8197206-5.8200238,0-3.2152516-2.6041657-5.8197206-5.8197206-5.8197206h-49.4685347c-3.2152516,0-5.8197206,2.604469-5.8197206,5.8197206,0,3.2155548,2.604469,5.8200238,5.8197206,5.8200238Z"/>
    <path class="cls-38" d="M25.7185505,75.7682705c-10.2086209,0-18.6027869,8.3938628-18.6027869,18.6024836,0,8.7653665,6.1945603,16.1757299,14.4058555,18.1014842,3.9091297-11.6267039,9.127469-22.6456579,15.5067198-32.8755075-3.1442868-2.4006726-7.0643341-3.8284603-11.3097884-3.8284603Z"/>
    <path class="cls-40" d="M44.3213374,94.3707541c0-6.0956948-2.8758942-11.4022853-7.2929985-14.7740233-6.3792508,10.2298496-11.5975901,21.2488037-15.5067198,32.8755075,1.3522738.3169155,2.7530705.5016059,4.1969314.5016059,10.2089241,0,18.6027869-8.3938628,18.6027869-18.6030901Z"/>
    <path class="cls-41" d="M44.3213374,94.3707541c0-6.0956948-2.8758942-11.4022853-7.2929985-14.7740233-6.3792508,10.2298496-11.5975901,21.2488037-15.5067198,32.8755075,1.3522738.3169155,2.7530705.5016059,4.1969314.5016059,10.2089241,0,18.6027869-8.3938628,18.6027869-18.6030901Z"/>
    <path class="cls-43" d="M281.6682846,33.250041c0-10.4354656-8.3938628-18.6024836-18.6027869-18.6024836-7.3418247,0-13.7256245,4.3515983-16.7431451,10.5867965,10.7238739,5.9552816,20.6871506,13.1118092,29.681788,21.3194652,3.4818245-3.3884178,5.6641439-8.1069708,5.6641439-13.3037781Z"/>
    <path class="cls-44" d="M263.0654978,51.8531311c5.0124201,0,9.5799455-2.0309885,12.938643-5.299312-8.9946375-8.207656-18.9579142-15.3641836-29.681788-21.3194652-1.178501,2.4352452-1.8596418,5.1485876-1.8596418,8.0156871,0,10.2092274,8.3938628,18.6030901,18.6027869,18.6030901Z"/>
    <path class="cls-45" d="M263.0654978,51.8531311c5.0124201,0,9.5799455-2.0309885,12.938643-5.299312-8.9946375-8.207656-18.9579142-15.3641836-29.681788-21.3194652-1.178501,2.4352452-1.8596418,5.1485876-1.8596418,8.0156871,0,10.2092274,8.3938628,18.6030901,18.6027869,18.6030901Z"/>
    <path class="cls-49" d="M301.1162806,249.107996c-6.8829796,10.3784512-14.9681151,19.8828828-24.0555527,28.3310306,3.2883393,2.9147126,7.5892917,4.7073321,12.287829,4.7073321,10.2089241,0,18.6027869-8.394166,18.6027869-18.6027869,0-5.8876527-2.6730077-11.0511005-6.8350632-14.4355758Z"/>
    <path class="cls-47" d="M301.1162806,249.107996c-3.2152516-2.6141736-7.318473-4.1675143-11.7677237-4.1675143-10.2089241,0-18.6027869,8.394166-18.6027869,18.6030901,0,5.5103868,2.4585969,10.4773167,6.3149579,13.8954548,9.0874376-8.4481478,17.1725731-17.9525794,24.0555527-28.3310306Z"/>
    <path class="cls-48" d="M301.1162806,249.107996c-3.2152516-2.6141736-7.318473-4.1675143-11.7677237-4.1675143-10.2089241,0-18.6027869,8.394166-18.6027869,18.6030901,0,5.5103868,2.4585969,10.4773167,6.3149579,13.8954548,9.0874376-8.4481478,17.1725731-17.9525794,24.0555527-28.3310306Z"/>
    <path class="cls-35" d="M50.3363628,284.6328563c0,10.2086209,8.3938628,18.6024836,18.6027869,18.6024836,6.7401402,0,12.6711603-3.6701542,15.9358446-9.0944128-10.3020275-6.6961663-19.7612722-14.5647681-28.2030513-23.4226315-3.8681884,3.4187447-6.3355801,8.394166-6.3355801,13.9145607Z"/>
    <path class="cls-36" d="M68.9391497,266.0297661c-4.6888327,0-8.9815969,1.7850378-12.2672067,4.6885295,8.4417792,8.8578634,17.9010238,16.7264653,28.2030513,23.4226315,1.6801069-2.7918889,2.6669423-6.0392869,2.6669423-9.5080709,0-10.4360722-8.3938628-18.6030901-18.6027869-18.6030901Z"/>
    <path class="cls-46" d="M68.9391497,266.0297661c-4.6888327,0-8.9815969,1.7850378-12.2672067,4.6885295,8.4417792,8.8578634,17.9010238,16.7264653,28.2030513,23.4226315,1.6801069-2.7918889,2.6669423-6.0392869,2.6669423-9.5080709,0-10.4360722-8.3938628-18.6030901-18.6027869-18.6030901Z"/>
  </g>
</svg>