<?xml version="1.0" encoding="UTF-8"?>
<svg id="Layer_1" data-name="Layer 1" xmlns="http://www.w3.org/2000/svg" xmlns:xlink="http://www.w3.org/1999/xlink" version="1.1" viewBox="0 0 1000 325">
  <defs>
    <style>
      .cls-1 {
        fill: url(#New_Gradient_Swatch-8);
      }

      .cls-1, .cls-2, .cls-3, .cls-4, .cls-5, .cls-6, .cls-7, .cls-8, .cls-9, .cls-10, .cls-11, .cls-12, .cls-13, .cls-14, .cls-15, .cls-16, .cls-17, .cls-18, .cls-19, .cls-20, .cls-21, .cls-22, .cls-23, .cls-24, .cls-25, .cls-26, .cls-27, .cls-28, .cls-29, .cls-30, .cls-31, .cls-32, .cls-33, .cls-34, .cls-35, .cls-36, .cls-37, .cls-38, .cls-39, .cls-40, .cls-41, .cls-42, .cls-43, .cls-44, .cls-45, .cls-46, .cls-47 {
        stroke-width: 0px;
      }

      .cls-2 {
        fill: url(#New_Gradient_Swatch-6);
      }

      .cls-3 {
        fill: url(#New_Gradient_Swatch-7);
      }

      .cls-4 {
        fill: url(#New_Gradient_Swatch-4);
      }

      .cls-5 {
        fill: url(#New_Gradient_Swatch-5);
      }

      .cls-6 {
        fill: url(#New_Gradient_Swatch-9);
      }

      .cls-7 {
        fill: url(#New_Gradient_Swatch-2);
      }

      .cls-8 {
        fill: url(#New_Gradient_Swatch-3);
      }

      .cls-9 {
        fill: #959595;
      }

      .cls-10 {
        fill: url(#New_Gradient_Swatch);
      }

      .cls-11 {
        fill: url(#New_Gradient_Swatch-13);
      }

      .cls-12 {
        fill: url(#New_Gradient_Swatch-10);
      }

      .cls-13 {
        fill: url(#New_Gradient_Swatch-19);
      }

      .cls-14 {
        fill: url(#New_Gradient_Swatch-12);
      }

      .cls-15 {
        fill: url(#New_Gradient_Swatch-11);
      }

      .cls-16 {
        fill: url(#New_Gradient_Swatch-14);
      }

      .cls-17 {
        fill: url(#New_Gradient_Swatch-18);
      }

      .cls-18 {
        fill: url(#New_Gradient_Swatch-17);
      }

      .cls-19 {
        fill: url(#New_Gradient_Swatch-16);
      }

      .cls-20 {
        fill: url(#New_Gradient_Swatch-15);
      }

      .cls-21 {
        fill: url(#New_Gradient_Swatch-29);
      }

      .cls-22 {
        fill: url(#New_Gradient_Swatch-26);
      }

      .cls-23 {
        fill: url(#New_Gradient_Swatch-21);
      }

      .cls-24 {
        fill: url(#New_Gradient_Swatch-24);
      }

      .cls-25 {
        fill: url(#New_Gradient_Swatch-25);
      }

      .cls-26 {
        fill: url(#New_Gradient_Swatch-27);
      }

      .cls-27 {
        fill: url(#New_Gradient_Swatch-23);
      }

      .cls-28 {
        fill: url(#New_Gradient_Swatch-28);
      }

      .cls-29 {
        fill: url(#New_Gradient_Swatch-22);
      }

      .cls-30 {
        fill: url(#New_Gradient_Swatch-20);
      }

      .cls-31 {
        fill: url(#New_Gradient_Swatch-33);
      }

      .cls-32 {
        fill: url(#New_Gradient_Swatch-32);
      }

      .cls-33 {
        fill: url(#New_Gradient_Swatch-35);
      }

      .cls-34 {
        fill: url(#New_Gradient_Swatch-31);
      }

      .cls-35 {
        fill: url(#New_Gradient_Swatch-46);
      }

      .cls-36 {
        fill: url(#New_Gradient_Swatch-34);
      }

      .cls-37 {
        fill: url(#New_Gradient_Swatch-37);
      }

      .cls-38 {
        fill: url(#New_Gradient_Swatch-30);
      }

      .cls-39 {
        fill: url(#New_Gradient_Swatch-38);
      }

      .cls-40 {
        fill: url(#New_Gradient_Swatch-39);
      }

      .cls-41 {
        fill: url(#New_Gradient_Swatch-36);
      }

      .cls-42 {
        fill: url(#New_Gradient_Swatch-40);
      }

      .cls-43 {
        fill: url(#New_Gradient_Swatch-41);
      }

      .cls-44 {
        fill: url(#New_Gradient_Swatch-42);
      }

      .cls-45 {
        fill: url(#New_Gradient_Swatch-44);
      }

      .cls-46 {
        fill: url(#New_Gradient_Swatch-45);
      }

      .cls-47 {
        fill: url(#New_Gradient_Swatch-43);
      }
    </style>
    <linearGradient id="New_Gradient_Swatch" data-name="New Gradient Swatch" x1="-42.0449092" y1="167.6787628" x2="752.0379383" y2="167.6787628" gradientUnits="userSpaceOnUse">
      <stop offset="0" stop-color="#ed1846"/>
      <stop offset=".0870934" stop-color="#e4274c"/>
      <stop offset=".2431" stop-color="#cf3e59"/>
      <stop offset=".4499" stop-color="#ab556f"/>
      <stop offset=".6999" stop-color="#75678f"/>
      <stop offset=".9837" stop-color="#0075b8"/>
      <stop offset="1" stop-color="#0076bb"/>
    </linearGradient>
    <linearGradient id="New_Gradient_Swatch-2" data-name="New Gradient Swatch" x1="-42.0449092" y1="164.1001957" x2="752.0379383" y2="164.1001957" xlink:href="#New_Gradient_Swatch"/>
    <linearGradient id="New_Gradient_Swatch-3" data-name="New Gradient Swatch" x1="-42.0449092" y1="172.0773677" x2="752.0379383" y2="172.0773677" xlink:href="#New_Gradient_Swatch"/>
    <linearGradient id="New_Gradient_Swatch-4" data-name="New Gradient Swatch" x1="-42.0449092" y1="173.1109064" x2="752.0379383" y2="173.1109064" xlink:href="#New_Gradient_Swatch"/>
    <linearGradient id="New_Gradient_Swatch-5" data-name="New Gradient Swatch" x1="-42.0449092" y1="172.594137" x2="752.0379383" y2="172.594137" xlink:href="#New_Gradient_Swatch"/>
    <linearGradient id="New_Gradient_Swatch-6" data-name="New Gradient Swatch" x1="-42.0449092" x2="752.0379383" xlink:href="#New_Gradient_Swatch"/>
    <linearGradient id="New_Gradient_Swatch-7" data-name="New Gradient Swatch" x1="-42.0449092" y1="172.594137" x2="752.0379383" y2="172.594137" xlink:href="#New_Gradient_Swatch"/>
    <linearGradient id="New_Gradient_Swatch-8" data-name="New Gradient Swatch" x1="-42.0449092" y1="172.1380214" x2="752.0379383" y2="172.1380214" xlink:href="#New_Gradient_Swatch"/>
    <linearGradient id="New_Gradient_Swatch-9" data-name="New Gradient Swatch" x1="-42.0449092" y1="172.0773677" x2="752.0379383" y2="172.0773677" xlink:href="#New_Gradient_Swatch"/>
    <linearGradient id="New_Gradient_Swatch-10" data-name="New Gradient Swatch" x1="-42.0449092" y1="172.594137" x2="752.0379383" y2="172.594137" xlink:href="#New_Gradient_Swatch"/>
    <linearGradient id="New_Gradient_Swatch-11" data-name="New Gradient Swatch" x1="-42.0449092" y1="166.1939607" x2="752.0379383" y2="166.1939607" xlink:href="#New_Gradient_Swatch"/>
    <linearGradient id="New_Gradient_Swatch-12" data-name="New Gradient Swatch" x1="-42.0449092" y1="235.9335618" x2="752.0379383" y2="235.9335618" xlink:href="#New_Gradient_Swatch"/>
    <linearGradient id="New_Gradient_Swatch-13" data-name="New Gradient Swatch" x1="-42.0449092" y1="247.0695774" x2="752.0379383" y2="247.0695774" xlink:href="#New_Gradient_Swatch"/>
    <linearGradient id="New_Gradient_Swatch-14" data-name="New Gradient Swatch" x1="-42.0449092" y1="240.848936" x2="752.0379383" y2="240.848936" xlink:href="#New_Gradient_Swatch"/>
    <linearGradient id="New_Gradient_Swatch-15" data-name="New Gradient Swatch" x1="-42.0449092" y1="240.848936" x2="752.0379383" y2="240.848936" xlink:href="#New_Gradient_Swatch"/>
    <linearGradient id="New_Gradient_Swatch-16" data-name="New Gradient Swatch" x1="-42.0449092" y1="232.3549947" x2="752.0379383" y2="232.3549947" xlink:href="#New_Gradient_Swatch"/>
    <linearGradient id="New_Gradient_Swatch-17" data-name="New Gradient Swatch" x1="-42.0449092" y1="240.848936" x2="752.0379383" y2="240.848936" xlink:href="#New_Gradient_Swatch"/>
    <linearGradient id="New_Gradient_Swatch-18" data-name="New Gradient Swatch" x1="-42.0449092" y1="234.4475467" x2="752.0379383" y2="234.4475467" xlink:href="#New_Gradient_Swatch"/>
    <linearGradient id="New_Gradient_Swatch-19" data-name="New Gradient Swatch" x1="-42.0449092" y1="235.935988" x2="752.0379383" y2="235.935988" xlink:href="#New_Gradient_Swatch"/>
    <linearGradient id="New_Gradient_Swatch-20" data-name="New Gradient Swatch" x1="-42.0449092" y1="240.3345928" x2="752.0379383" y2="240.3345928" xlink:href="#New_Gradient_Swatch"/>
    <linearGradient id="New_Gradient_Swatch-21" data-name="New Gradient Swatch" x1="-42.0449092" y1="237.3285964" x2="752.0379383" y2="237.3285964" xlink:href="#New_Gradient_Swatch"/>
    <linearGradient id="New_Gradient_Swatch-22" data-name="New Gradient Swatch" x1="-42.0449092" y1="240.848936" x2="752.0379383" y2="240.848936" xlink:href="#New_Gradient_Swatch"/>
    <linearGradient id="New_Gradient_Swatch-23" data-name="New Gradient Swatch" x1="-42.0449092" y1="240.3952465" x2="752.0379383" y2="240.3952465" xlink:href="#New_Gradient_Swatch"/>
    <linearGradient id="New_Gradient_Swatch-24" data-name="New Gradient Swatch" x1="-42.0449092" y1="240.848936" x2="752.0379383" y2="240.848936" xlink:href="#New_Gradient_Swatch"/>
    <linearGradient id="New_Gradient_Swatch-25" data-name="New Gradient Swatch" x1="-42.0449092" y1="240.848936" x2="752.0379383" y2="240.848936" xlink:href="#New_Gradient_Swatch"/>
    <linearGradient id="New_Gradient_Swatch-26" data-name="New Gradient Swatch" x1="-42.0449092" y1="237.3285964" x2="752.0379383" y2="237.3285964" xlink:href="#New_Gradient_Swatch"/>
    <linearGradient id="New_Gradient_Swatch-27" data-name="New Gradient Swatch" x1="-42.0449092" y1="235.9335618" x2="752.0379383" y2="235.9335618" xlink:href="#New_Gradient_Swatch"/>
    <linearGradient id="New_Gradient_Swatch-28" data-name="New Gradient Swatch" x1="-42.0449092" y1="240.3952465" x2="752.0379383" y2="240.3952465" xlink:href="#New_Gradient_Swatch"/>
    <linearGradient id="New_Gradient_Swatch-29" data-name="New Gradient Swatch" x1="-42.0449092" y1="240.848936" x2="752.0379383" y2="240.848936" xlink:href="#New_Gradient_Swatch"/>
    <linearGradient id="New_Gradient_Swatch-30" data-name="New Gradient Swatch" x1="-42.0449092" y1="241.3632792" x2="752.0379383" y2="241.3632792" xlink:href="#New_Gradient_Swatch"/>
    <linearGradient id="New_Gradient_Swatch-31" data-name="New Gradient Swatch" x1="-42.0449092" y1="247.0695774" x2="752.0379383" y2="247.0695774" xlink:href="#New_Gradient_Swatch"/>
    <linearGradient id="New_Gradient_Swatch-32" data-name="New Gradient Swatch" x1="-1.3597016" y1="162.500121" x2="705.7336748" y2="162.500121" xlink:href="#New_Gradient_Swatch"/>
    <linearGradient id="New_Gradient_Swatch-33" data-name="New Gradient Swatch" x1="-1.3597016" y1="162.5" x2="705.7336748" y2="162.5" xlink:href="#New_Gradient_Swatch"/>
    <linearGradient id="New_Gradient_Swatch-34" data-name="New Gradient Swatch" x1="-1.3597016" y1="184.8593725" x2="705.7336748" y2="184.8593725" xlink:href="#New_Gradient_Swatch"/>
    <linearGradient id="New_Gradient_Swatch-35" data-name="New Gradient Swatch" x1="-7.811076" y1="94.1199512" x2="867.7513238" y2="94.1199512" xlink:href="#New_Gradient_Swatch"/>
    <linearGradient id="New_Gradient_Swatch-36" data-name="New Gradient Swatch" x1="-1.3597016" y1="96.2849843" x2="705.7336748" y2="96.2849843" xlink:href="#New_Gradient_Swatch"/>
    <linearGradient id="New_Gradient_Swatch-37" data-name="New Gradient Swatch" x1="-7.811076" y1="96.2849843" x2="867.7513238" y2="96.2849843" xlink:href="#New_Gradient_Swatch"/>
    <linearGradient id="New_Gradient_Swatch-38" data-name="New Gradient Swatch" x1="-64.3779486" y1="30.600385" x2="811.2305602" y2="30.600385" xlink:href="#New_Gradient_Swatch"/>
    <linearGradient id="New_Gradient_Swatch-39" data-name="New Gradient Swatch" x1="-1.3597016" y1="38.5435909" x2="705.7336748" y2="38.5435909" xlink:href="#New_Gradient_Swatch"/>
    <linearGradient id="New_Gradient_Swatch-40" data-name="New Gradient Swatch" x1="-64.3779486" y1="38.5435909" x2="811.2305602" y2="38.5435909" xlink:href="#New_Gradient_Swatch"/>
    <linearGradient id="New_Gradient_Swatch-41" data-name="New Gradient Swatch" x1="-70.6222381" y1="265.6270257" x2="804.9401617" y2="265.6270257" xlink:href="#New_Gradient_Swatch"/>
    <linearGradient id="New_Gradient_Swatch-42" data-name="New Gradient Swatch" x1="-1.3597016" y1="261.1896025" x2="705.7336748" y2="261.1896025" xlink:href="#New_Gradient_Swatch"/>
    <linearGradient id="New_Gradient_Swatch-43" data-name="New Gradient Swatch" x1="-70.6222381" y1="261.1896025" x2="804.9401617" y2="261.1896025" xlink:href="#New_Gradient_Swatch"/>
    <linearGradient id="New_Gradient_Swatch-44" data-name="New Gradient Swatch" x1="-18.1096284" y1="286.9765144" x2="857.4527714" y2="286.9765144" xlink:href="#New_Gradient_Swatch"/>
    <linearGradient id="New_Gradient_Swatch-45" data-name="New Gradient Swatch" x1="-1.3597016" y1="280.0850433" x2="705.7336748" y2="280.0850433" xlink:href="#New_Gradient_Swatch"/>
    <linearGradient id="New_Gradient_Swatch-46" data-name="New Gradient Swatch" x1="-18.1096284" y1="280.0850433" x2="857.4527714" y2="280.0850433" xlink:href="#New_Gradient_Swatch"/>
  </defs>
  <g>
    <g>
      <path class="cls-9" d="M391.8932522,70.8813197h1.7172269c3.8776015,0,6.8688908-2.9359,6.8688908-6.8135015v-1.2186731l-4.2653685-.3877585v1.6064358c0,1.5510423-1.1632838,2.7697154-2.7143177,2.7697154h-1.5510339c-1.5510339,0-2.7143177-1.2186731-2.7143177-2.7697154v-10.6910989c0-1.5510423,1.1632838-2.7697154,2.7143177-2.7697154h1.5510339c1.5510339,0,2.7143177,1.2186731,2.7143177,2.7697154v1.6064358l4.2653685-.3877585v-1.2186731c0-3.8776015-2.9912892-6.8135015-6.8688908-6.8135015h-1.7172269c-3.8776015,0-6.8688908,2.9359-6.8688908,6.8135015v10.6910989c0,3.8776015,2.9912892,6.8135015,6.8688908,6.8135015v-.0000085Z"/>
      <path class="cls-9" d="M413.4970323,46.5632178h-1.7172269c-3.8776015,0-6.8688908,2.9359-6.8688908,6.8135015v10.6910989c0,3.8776015,2.9912892,6.8135015,6.8688908,6.8135015h1.7172269c3.8776015,0,6.8688908-2.9359,6.8688908-6.8135015v-10.6911031c0-3.8776015-2.9912892-6.8135015-6.8688908-6.8134973ZM416.1005546,64.0678182c0,1.5510423-1.1632838,2.7697154-2.7143177,2.7697154h-1.5510339c-1.5510339,0-2.7143177-1.2186731-2.7143177-2.7697154v-10.6911031c0-1.5510423,1.1632838-2.7697154,2.7143177-2.7697154h1.5510339c1.5510339,0,2.7143177,1.2186731,2.7143177,2.7697154v10.6911031Z"/>
      <polygon class="cls-9" points="429.28441 54.2630274 429.5059839 55.3155159 438.75684 70.9367132 442.6344416 70.9367132 442.6344416 46.5632178 438.2582777 46.5632178 438.2582777 63.2369036 438.0367039 62.1844109 428.7304669 46.5632178 424.9082631 46.5632178 424.9082631 70.9367132 429.28441 70.9367132 429.28441 54.2630274"/>
      <polygon class="cls-9" points="446.4012477 70.9367132 450.8327924 70.9367132 450.8327924 60.8549466 459.806677 60.8549466 459.806677 56.6449801 450.8327924 56.6449801 450.8327924 50.7177908 461.9670516 50.7177908 461.9670516 46.5632178 446.4012477 46.5632178 446.4012477 70.9367132"/>
      <rect class="cls-9" x="465.9000508" y="46.5632178" width="4.3761469" height="24.3734954"/>
      <path class="cls-9" d="M490.5505178,63.9016336v-10.3033404c0-3.9883885-3.1020846-7.0350754-7.0904646-7.0350754h-8.8630892v24.3734954h8.8630892c3.9883969,0,7.0904646-3.0466869,7.0904646-7.0350796ZM478.973094,66.7821401v-16.0643493h4.3761469c1.6064315,0,2.7697154,1.2740708,2.7697154,2.8805023v10.3033404c0,1.6064358-1.1632838,2.8805023-2.7697154,2.8805023l-4.3761469.0000042Z"/>
      <polygon class="cls-9" points="494.5942955 70.9367132 510.1600994 70.9367132 510.1600994 66.7821401 498.9704425 66.7821401 498.9704425 60.8549466 507.9443271 60.8549466 507.9443271 56.6449801 498.9704425 56.6449801 498.9704425 50.7177908 510.1600994 50.7177908 510.1600994 46.5632178 494.5942955 46.5632178 494.5942955 70.9367132"/>
      <polygon class="cls-9" points="518.6908194 54.2630274 518.9124102 55.2601224 528.1632325 70.8813197 532.0408341 70.8813197 532.0408341 46.5632178 527.664704 46.5632178 527.664704 63.1815101 527.4431133 62.1844109 518.1368763 46.5632178 514.3146556 46.5632178 514.3146556 70.8813197 518.6908194 70.8813197 518.6908194 54.2630274"/>
      <polygon class="cls-9" points="536.6385887 50.7177908 542.3441956 50.7177908 542.3441956 70.8813197 546.7203256 70.8813197 546.7203256 50.7177908 552.4813472 50.7177908 552.4813472 46.5632178 536.6385887 46.5632178 536.6385887 50.7177908"/>
      <rect class="cls-9" x="557.0790679" y="46.5632178" width="4.3761638" height="24.318102"/>
      <path class="cls-9" d="M573.0880364,46.5632178l-6.7581123,24.318102h4.7085162l1.2740623-4.8193031h7.4782316l1.2740623,4.8193031h4.7085162l-6.8134931-24.318102h-5.8717831ZM573.1988318,62.295202l2.7697154-10.5803119v-.9417015l.1107954.8863081,2.7143346,10.5803119h-5.5948116l-.0000338.0553935Z"/>
      <polygon class="cls-9" points="594.6364019 46.5632178 590.2602718 46.5632178 590.2602718 70.8813197 603.6102865 70.8813197 603.6102865 66.7267466 594.6364019 66.7267466 594.6364019 46.5632178"/>
      <path class="cls-9" d="M618.8991357,46.5632178h-1.71721c-3.8776015,0-6.8689077,2.9359-6.8689077,6.8135015v10.6910989c0,3.8776015,2.9913061,6.8135015,6.8689077,6.8135015h1.71721c3.8776015,0,6.8689077-2.9359,6.8689077-6.8135015v-1.2186731l-4.2653685-.3877585v1.6064358c0,1.5510423-1.1632669,2.7697154-2.7143346,2.7697154h-1.5510339c-1.5510339,0-2.7143346-1.2186731-2.7143346-2.7697154v-10.6910989c0-1.5510423,1.1632669-2.7697154,2.7143346-2.7697154h1.5510339c1.5510339,0,2.7143346,1.2186731,2.7143346,2.7697154v1.6064358l4.2653685-.3877585v-1.2186731c0-3.8776015-2.9913061-6.8135015-6.8689077-6.8135015v-.0000085Z"/>
      <path class="cls-9" d="M645.6545796,64.0678182v-10.6911031c0-3.8776015-2.9913061-6.8135015-6.8689077-6.8135015h-1.71721c-3.8776015,0-6.8689077,2.9359-6.8689077,6.8135015v10.6911031c0,3.8776015,2.9913061,6.8135015,6.8689077,6.8135015h1.71721c3.8776015,0,6.8689077-2.9359,6.8689077-6.8135015ZM641.3892112,64.0678182c0,1.5510423-1.1632669,2.7697154-2.7143346,2.7697154h-1.5510339c-1.5510339,0-2.7143346-1.2186731-2.7143346-2.7697154v-10.6911031c0-1.5510423,1.1632669-2.7697154,2.7143346-2.7697154h1.5510339c1.5510339,0,2.7143346,1.2186731,2.7143346,2.7697154v10.6911031Z"/>
      <polygon class="cls-9" points="661.9959004 65.1203109 661.8851051 66.006619 661.8297243 65.1203109 656.4564697 46.5632178 650.0861243 46.5632178 650.0861243 70.9367132 654.4622543 70.9367132 654.4622543 51.9364639 654.5730497 52.9889566 659.7801281 70.9367132 664.0454966 70.9367132 669.1971605 52.9889566 669.3633366 51.9364639 669.3633366 70.9367132 673.7395005 70.9367132 673.7395005 46.5632178 667.3137405 46.5632178 661.9959004 65.1203109"/>
      <path class="cls-9" d="M687.0895151,46.5632178h-9.08468v24.3734954h4.3761638v-7.9767812h4.6531354c3.9883969,0,7.0904646-3.0466869,7.0904646-7.0350754v-2.3265592c0-3.9883885-3.0466869-7.0350754-7.0350839-7.0350796ZM689.8038497,55.9248566c0,1.6064358-1.1632669,2.8805023-2.7697154,2.8805023h-4.5977208v-8.0875681h4.5977208c1.6064485,0,2.7697154,1.2740708,2.7697154,2.8805023v2.3265635Z"/>
      <path class="cls-9" d="M713.9557544,64.0124247v-17.449207h-4.3207492v17.449207c0,1.6064358-1.1632669,2.8251089-2.7697154,2.8251089h-1.6064485c-1.6064485,0-2.7697154-1.2186731-2.7697154-2.8251089v-17.449207h-4.3207492v17.449207c0,3.932995,3.0466869,6.9242885,6.9796693,6.9242885h1.71721c3.9883969,0,7.0904646-2.9912935,7.0904646-6.9242885h.0000338Z"/>
      <polygon class="cls-9" points="718.3319182 50.7177908 724.092906 50.7177908 724.092906 70.9367132 728.4690698 70.9367132 728.4690698 50.7177908 734.2300575 50.7177908 734.2300575 46.5632178 718.3319182 46.5632178 718.3319182 50.7177908"/>
      <rect class="cls-9" x="738.3846306" y="46.5632178" width="4.3761638" height="24.318102"/>
      <polygon class="cls-9" points="751.4577075 54.2630274 751.6792645 55.3155159 760.9855352 70.9367132 764.8077222 70.9367132 764.8077222 46.5632178 760.4315922 46.5632178 760.4315922 63.2369036 760.2100014 62.1844109 750.9591452 46.5632178 747.0815437 46.5632178 747.0815437 70.9367132 751.4577075 70.9367132 751.4577075 54.2630274"/>
      <path class="cls-9" d="M782.7554914,54.5953924v-1.2186731c0-3.8776015-2.9913061-6.8135015-6.8689077-6.8135015h-1.71721c-3.8776015,0-6.8689077,2.9359-6.8689077,6.8135015v10.6910989c0,3.8776015,2.9913061,6.8135015,6.8689077,6.8135015h.9970908c1.9388008,0,3.60063-.8309146,4.7085162-2.2157723l1.2186815,1.8834073h1.6618292v-13.1284535h-7.7552031v4.0437862h3.4898346v2.5481373c0,1.5510423-1.1632669,2.7697154-2.7143346,2.7697154h-1.5510339c-1.5510339,0-2.7143346-1.2186731-2.7143346-2.7697154v-10.6357096c0-1.5510423,1.1632669-2.7697154,2.7143346-2.7697154h1.5510339c1.5510339,0,2.7143346,1.2186731,2.7143346,2.7697154v1.6064358l4.2653685-.3877585Z"/>
    </g>
    <g>
      <path class="cls-9" d="M397.7650523,79.1350682h-2.4927439c-5.7610046,0-10.2479469,4.3761469-10.2479469,10.13716v15.8427754c0,5.7610046,4.4869423,10.13716,10.2479469,10.13716h2.4927439c5.7610046,0,10.2479469-4.3761469,10.2479469-10.13716v-1.8280138l-6.3149477-.6093408v2.3819569c0,2.3265592-1.7172269,4.0991754-3.9883969,4.0991754h-2.3265677c-2.3265677,0-3.9883969-1.8280138-3.9883969-4.0991754v-15.8427754c0-2.3265592,1.7172269-4.0991754,3.9883969-4.0991754h2.3265677c2.3265677,0,3.9883969,1.8280138,3.9883969,4.0991754v2.3819569l6.3149477-.6093408v-1.8280138c-.0553977-5.6502177-4.4869423-10.0263731-10.2479469-10.0263731v.0000085Z"/>
      <path class="cls-9" d="M439.7539308,79.1350682h-2.4927439c-5.7610046,0-10.2479469,4.3761469-10.2479469,10.13716v15.8427754c0,5.7610046,4.4869423,10.13716,10.2479469,10.13716h2.4927439c5.7610046,0,10.2479469-4.3761469,10.2479469-10.13716v-15.8427754c0-5.7610046-4.4869423-10.13716-10.2479469-10.13716ZM443.68693,105.1150036c0,2.3265592-1.7172269,4.0991754-3.9883969,4.0991754h-2.3265677c-2.3265677,0-3.9883969-1.8280138-3.9883969-4.0991754v-15.8427754c0-2.3265592,1.7172269-4.0991754,3.9883969-4.0991754h2.3265677c2.3265677,0,3.9883969,1.8280138,3.9883969,4.0991754v15.8427754Z"/>
      <polygon class="cls-9" points="488.7778932 103.8409329 488.445524 102.3452883 474.6523447 79.1350682 468.9467378 79.1350682 468.9467378 115.2521552 475.4278616 115.2521552 475.4278616 90.546299 475.7602309 92.0973413 489.5534101 115.2521552 495.259034 115.2521552 495.259034 79.1350682 488.7778932 79.1350682 488.7778932 103.8409329"/>
      <path class="cls-9" d="M520.1310579,89.6045975v-.2769715c0-2.3265592,1.71721-4.0991754,3.9883969-4.0991754h1.5510339c2.3265677,0,3.9883969,1.8280138,3.9883969,4.0991754v1.7726162l6.3149646-.6093408v-1.1632838c0-5.7610046-4.4869254-10.13716-10.2479469-10.13716h-1.7726246c-5.7610215,0-10.2479469,4.3761469-10.2479469,10.13716v.2769715c0,13.5162077,16.1751446,7.6444162,16.1751446,15.1226477v.4431562c0,2.3265592-1.71721,4.0991754-3.9883969,4.0991754h-2.0495962c-2.3265677,0-3.9883969-1.8280138-3.9883969-4.0991754v-1.7726162l-6.3149477.6093408v1.1632838c0,5.7610046,4.4869423,10.13716,10.24793,10.13716h2.2711531c5.7610215,0,10.2479469-4.3761469,10.2479469-10.13716v-.4431562c0-13.07306-16.1751446-8.0875723-16.1751446-15.1226477h.0000338Z"/>
      <path class="cls-9" d="M568.3795203,79.1350682h-2.4927439c-5.7610215,0-10.2479469,4.3761469-10.2479469,10.13716v15.8427754c0,5.7610046,4.4869254,10.13716,10.2479469,10.13716h2.4927439c5.7610215,0,10.2479469-4.3761469,10.2479469-10.13716v-15.8427754c-.0553808-5.7610046-4.4869254-10.13716-10.2479469-10.13716ZM572.2571218,105.1150036c0,2.3265592-1.71721,4.0991754-3.9883969,4.0991754h-2.3265677c-2.3265677,0-3.9883969-1.8280138-3.9883969-4.0991754v-15.8427754c0-2.3265592,1.71721-4.0991754,3.9883969-4.0991754h2.3265677c2.3265677,0,3.9883969,1.8280138,3.9883969,4.0991754v15.8427754Z"/>
      <path class="cls-9" d="M622.0565842,91.4880005v-1.9388008c0-5.9271892-4.5977208-10.4141316-10.5249185-10.4141316h-13.4054292v36.117087h6.4811408v-13.3500316h4.2099539l6.8689077,13.3500316h7.1458792l-7.3674362-14.0701508c3.9329823-1.4956446,6.5919362-5.1516723,6.5919362-9.6940039h-.0000338ZM611.476285,95.6979713h-6.8134931v-10.3587339h6.8134931c2.3819485,0,4.1545731,1.8834031,4.1545731,4.2099708v1.8834031c0,2.4373462-1.8280054,4.26536-4.1545731,4.26536Z"/>
      <polygon class="cls-9" points="637.7885812 85.339229 646.2639035 85.339229 646.2639035 115.2521552 652.8004251 115.2521552 652.8004251 85.339229 661.2757812 85.339229 661.2757812 79.1350682 637.7885812 79.1350682 637.7885812 85.339229"/>
      <rect class="cls-9" x="679.8328743" y="79.1350682" width="6.4811408" height="36.117087"/>
      <path class="cls-9" d="M722.5418721,105.0042083c0,2.3265592-1.71721,4.1545731-4.0437777,4.1545731h-2.3265677c-2.3265677,0-4.0437777-1.8280138-4.0437777-4.1545731v-25.8137508h-6.4257262v25.8137508c0,5.8718,4.54234,10.2479469,10.3587423,10.2479469h2.5481246c5.8717831,0,10.3587423-4.4315446,10.3587423-10.2479469v-25.8137508h-6.4257262v25.8137508h-.0000338Z"/>
      <polygon class="cls-9" points="765.2508699 106.6660375 765.1401083 107.995506 765.0293129 106.6660375 757.1079337 79.1350682 747.580106 79.1350682 747.580106 115.2521552 754.1166275 115.2521552 754.1166275 87.1672428 754.2828037 88.7182852 761.982626 115.2521552 768.2975568 115.2521552 775.9419983 88.7182852 776.1635553 87.1672428 776.1635553 115.2521552 782.7000768 115.2521552 782.7000768 79.1350682 773.172283 79.1350682 765.2508699 106.6660375"/>
    </g>
  </g>
  <g>
    <path class="cls-10" d="M393.7035163,146.6561974v34.1601525h16.3813458l-1.0311126,7.8849784h-25.2998629v-42.0451309h9.9496296Z"/>
    <path class="cls-7" d="M423.5232914,141.0445189c1.0699309,1.0311126,1.6061094,2.3363797,1.6061094,3.9133754s-.5361785,2.8822629-1.6061094,3.9133754c-1.0723571,1.0311126-2.4382779,1.5478819-4.0953365,1.5478819-1.6594847,0-3.0132748-.5167694-4.0662227-1.5478819-1.0505217-1.0311126-1.5769957-2.3363797-1.5769957-3.9133754s.5264739-2.8822629,1.5769957-3.9133754c1.0529479-1.0311126,2.406738-1.5454558,4.0662227-1.5454558,1.6570585,0,3.0229794.5143432,4.0953365,1.5454558ZM424.2802494,156.4869458v32.2143824h-9.5857076v-32.2143824h9.5857076Z"/>
    <path class="cls-8" d="M457.2249021,158.0032878c1.5769957,1.698303,2.3679197,4.0856319,2.3679197,7.1595604v23.5384801h-9.5881337v-21.9008307c0-1.6182402-.2523193-2.7391202-.7569579-3.3674923-.5070648-.6283721-1.2640227-.938919-2.2757261-.938919-1.9409178,0-3.8017727,1.3926085-5.5825647,4.1851039v22.0221381h-9.5857076v-32.2143824h8.372634l.6671905,3.8211818c1.3756255-1.6182402,2.8628537-2.8313138,4.4592585-3.6416469,1.598831-.8054809,3.3869015-1.2130736,5.3690637-1.2130736,2.7924954,0,4.9760279.8491515,6.5530236,2.5498807Z"/>
    <path class="cls-4" d="M493.9907367,188.7013282h-8.3119803l-.4245758-4.0637965c-2.3460843,3.3990322-5.6019739,5.0973353-9.7676686,5.0973353-2.9526211,0-5.1871027-.8928222-6.7034447-2.6687619-1.516342-1.780792-2.2757261-4.2700191-2.2757261-7.4628288v-23.1163305h9.5857076v21.9032569c0,1.5769957.2523193,2.6784665.7593841,3.3044125.5046386.6283721,1.2834319.9413451,2.3363797.9413451,2.0209806,0,3.7605281-1.2543181,5.2162165-3.7605281v-22.3884863h9.5857076v32.2143824Z"/>
    <path class="cls-5" d="M519.0479849,171.4708309l10.3766315,17.2304974h-10.861861l-5.5801385-12.0725084-5.4612573,12.0725084h-10.4348591l10.3742054-16.9248028-9.3430928-15.2895796h10.7381275l4.4907985,10.3135517,4.3064113-10.3135517h10.1922444l-8.7972097,14.9838851Z"/>
    <path class="cls-2" d="M557.0899729,146.6561974v42.0451309h-9.9496296v-42.0451309h9.9496296ZM581.2374159,146.6561974l-13.4093155,18.8705729,14.5010818,23.174558h-11.5266253l-13.4093155-22.4467138,13.3486619-19.598417h10.4955128Z"/>
    <path class="cls-3" d="M612.1804972,175.4157462h-19.9623391c.3226776,2.7100064,1.0917662,4.6096797,2.3048398,5.7014459,1.2154997,1.0917662,2.8919675,1.6400755,5.0366816,1.6400755,1.2931365,0,2.5474546-.2329101,3.7629543-.6987304,1.2130736-.4658203,2.5256192-1.1839598,3.9424892-2.1544187l3.9424892,5.33995c-3.7605281,2.9938656-7.9456321,4.4907985-12.5577379,4.4907985-5.2186426,0-9.2217855-1.5381773-12.0142809-4.6121058-2.7900693-3.0739285-4.1851039-7.1983787-4.1851039-12.3757768,0-3.2777249.5847015-6.2206414,1.7589567-8.8287496s2.8919675-4.6703333,5.1579889-6.1891015c2.2635953-1.516342,4.9736017-2.2757261,8.1300192-2.2757261,4.6509242,0,8.290145,1.4556883,10.9200885,4.3694911,2.6299436,2.9138028,3.9449153,6.955764,3.9449153,12.1331621,0,1.334381-.0606537,2.489227-.181961,3.4596859ZM602.9562856,169.2266447c-.0800629-4.9323572-1.8196104-7.4021751-5.2162165-7.4021751-1.6594847,0-2.9429165.6065368-3.8527217,1.8196104s-1.4678191,3.2170712-1.6691893,6.0071405h10.7381275v-.4245758Z"/>
    <path class="cls-1" d="M638.4483929,156.0017164l-1.516342,9.2824392c-1.2130736-.2838592-2.1835325-.4270019-2.9113766-.4270019-1.9020994,0-3.3480831.659912-4.3379512,1.9748838-.9922942,1.3149718-1.7710875,3.2850033-2.3363797,5.9149469v15.9543439h-9.5857076v-32.2143824h8.372634l.7884978,6.2497552c.7278442-2.2272031,1.829315-3.9740291,3.3068386-5.2501825,1.4750975-1.2737273,3.1442868-1.911804,5.0051417-1.911804,1.1718291,0,2.2441862.1431427,3.214645.4270019Z"/>
    <path class="cls-6" d="M667.5087839,158.0032878c1.5769957,1.698303,2.3679197,4.0856319,2.3679197,7.1595604v23.5384801h-9.5881337v-21.9008307c0-1.6182402-.2523193-2.7391202-.7569579-3.3674923-.5070648-.6283721-1.2640227-.938919-2.2757261-.938919-1.9409178,0-3.8017727,1.3926085-5.5825647,4.1851039v22.0221381h-9.5857076v-32.2143824h8.372634l.6671905,3.8211818c1.3756255-1.6182402,2.8628537-2.8313138,4.4592585-3.6416469,1.598831-.8054809,3.3869015-1.2130736,5.3690637-1.2130736,2.7924954,0,4.9760279.8491515,6.5530236,2.5498807Z"/>
    <path class="cls-12" d="M705.0048888,175.4157462h-19.959913c.3226776,2.7100064,1.0917662,4.6096797,2.3048398,5.7014459s2.8919675,1.6400755,5.0366816,1.6400755c1.2931365,0,2.5474546-.2329101,3.7605281-.6987304s2.5280454-1.1839598,3.9424892-2.1544187l3.9449153,5.33995c-3.7605281,2.9938656-7.9480582,4.4907985-12.560164,4.4907985-5.2162165,0-9.2217855-1.5381773-12.0118548-4.6121058-2.7900693-3.0739285-4.1875301-7.1983787-4.1875301-12.3757768,0-3.2777249.5871276-6.2206414,1.7613829-8.8287496,1.1718291-2.6081082,2.8895413-4.6703333,5.1555628-6.1891015,2.2660215-1.516342,4.9760279-2.2757261,8.1300192-2.2757261,4.6509242,0,8.2925711,1.4556883,10.9225147,4.3694911,2.6275174,2.9138028,3.9424892,6.955764,3.9424892,12.1331621,0,1.334381-.0606537,2.489227-.181961,3.4596859ZM695.7831033,169.2266447c-.082489-4.9323572-1.8196104-7.4021751-5.2186426-7.4021751-1.6570585,0-2.9429165.6065368-3.8527217,1.8196104s-1.4653929,3.2170712-1.6667631,6.0071405h10.7381275v-.4245758Z"/>
    <path class="cls-15" d="M712.6181387,187.3378335c-1.5575865-1.5964049-2.3363797-3.8721309-2.3363797-6.8271782v-36.8264882l9.5881337-1.0311126v37.4936787c0,1.334381.5458831,2.0039976,1.6376494,2.0039976.5652923,0,1.0917662-.1018982,1.5769957-.3056945l1.8802641,6.7980644c-1.7395475.7278442-3.6804653,1.0917662-5.8251794,1.0917662-2.7900693,0-4.9638972-.8006286-6.5214837-2.3970334Z"/>
    <path class="cls-14" d="M405.5042962,215.2142648c2.324249.8928222,4.4374232,2.2466123,6.3395226,4.0662227l-4.6096797,5.4006037c-2.8725583-2.3485105-5.9464868-3.5179134-9.2242116-3.5179134-1.7395475,0-3.115173.3542175-4.1244502,1.0578002-1.0117034.708435-1.516342,1.7322691-1.516342,3.0666501,0,.9316405.2207794,1.6885984.6671905,2.2757261.4439849.5871276,1.2324828,1.1402892,2.3654935,1.6691893,1.1330107.5240478,2.8313138,1.1499938,5.0973353,1.8778379,4.2870021,1.3780516,7.4409934,3.0666501,9.4644002,5.0657953,2.0209806,2.0039976,3.032684,4.8474421,3.032684,8.5254812,0,2.6299436-.6671905,4.944488-2.0015714,6.9484856-1.334381,1.9991453-3.2558895,3.5567318-5.7645257,4.6679072-2.5086362,1.1160277-5.4806665,1.6691893-8.9185171,1.6691893s-6.4826653-.543457-9.1295919-1.6352232c-2.6493527-1.0917662-4.9250788-2.5474546-6.8271782-4.3719172l5.0366816-5.5170587c1.6182402,1.3731993,3.2850033,2.406738,5.0051417,3.0909115,1.7177122.6890258,3.5882717,1.0335387,5.6116785,1.0335387,2.0622251,0,3.6901699-.4561157,4.8838343-1.3634947,1.1936644-.9122313,1.7904966-2.1738279,1.7904966-3.7944942,0-1.0529479-.2232055-1.9312132-.6671905-2.6396481-.4464111-.708435-1.2130736-1.3440855-2.3048398-1.911804-1.0917662-.5628661-2.6711881-1.1694029-4.7334132-1.8196104-4.6509242-1.41687-7.9577628-3.1539914-9.9205159-5.2162165-1.9603269-2.0622251-2.9404904-4.6727595-2.9404904-7.8267508,0-2.4261472.6453552-4.5611567,1.9409178-6.4001763,1.2931365-1.8390196,3.0933377-3.2558895,5.3981775-4.2457576,2.307266-.9947203,4.9153742-1.4896544,7.8267508-1.4896544,3.1564175,0,5.8955377.4464111,8.2222128,1.334381Z"/>
    <path class="cls-11" d="M445.5163157,228.1990046c1.9821623,2.9938656,2.9720303,7.1813957,2.9720303,12.5577379,0,3.3189694-.5143432,6.2788689-1.5454558,8.8894033s-2.5183408,4.6533503-4.4592585,6.1284478c-1.9433439,1.4750975-4.2069392,2.2126462-6.7956383,2.2126462-3.2364804,0-5.8445886-1.1111754-7.8267508-3.3335262v14.7412703l-9.5857076,1.0335387v-45.6892039h8.4332876l.4852294,3.5809933c1.251892-1.5769957,2.6881711-2.7415463,4.3064113-3.4887997s3.2777249-1.12088,4.9760279-1.12088c4.0443874,0,7.0576622,1.4945067,9.0398244,4.4883723ZM438.5387164,240.8780498c0-3.7993465-.4245758-6.4389947-1.2737273-7.9140921-.8491515-1.4799498-2.1228788-2.2174985-3.8211818-2.2174985-1.0941924,0-2.1156004.3251037-3.0642239.9704589-.9510497.6502074-1.7904966,1.5769957-2.5183408,2.7900693v13.5912766c1.2931365,1.9020994,2.9307858,2.8531491,4.9129481,2.8531491,3.8430172,0,5.7645257-3.3577877,5.7645257-10.0733631Z"/>
    <path class="cls-16" d="M482.4034577,243.6681191h-19.959913c.3226776,2.7124326,1.0917662,4.614532,2.3048398,5.7062982,1.2130736,1.0917662,2.8919675,1.6352232,5.0366816,1.6352232,1.2931365,0,2.5474546-.2280578,3.7605281-.6938781s2.5280454-1.1839598,3.9424892-2.1544187l3.9449153,5.3375238c-3.7605281,2.9938656-7.9480582,4.4883723-12.560164,4.4883723-5.2162165,0-9.2217855-1.533325-12.0118548-4.6096797-2.7900693-3.0715023-4.1875301-7.2008049-4.1875301-12.378203,0-3.2752987.5871276-6.2157891,1.7613829-8.8263235,1.1718291-2.6105344,2.8895413-4.6727595,5.1555628-6.1866753,2.2660215-1.5187681,4.9760279-2.2757261,8.1300192-2.2757261,4.6509242,0,8.2925711,1.4556883,10.9225147,4.3670649,2.6275174,2.9113766,3.9424892,6.9581902,3.9424892,12.1355883,0,1.334381-.0606537,2.4843747-.181961,3.4548336ZM473.1816722,237.4814437c-.082489-4.9347834-1.8196104-7.3997489-5.2186426-7.3997489-1.6570585,0-2.9429165.6065368-3.8527217,1.8196104s-1.4653929,3.2122189-1.6667631,6.0071405h10.7381275v-.4270019Z"/>
    <path class="cls-20" d="M507.9459353,224.6810911c1.7783659.6453552,3.4572598,1.6352232,5.0342554,2.9696042l-4.1244502,5.7062982c-2.0234068-1.5381773-4.0662227-2.3048398-6.1284478-2.3048398-2.1447141,0-3.7605281.7860717-4.8547205,2.3630674-1.0917662,1.5769957-1.6376494,4.1293025-1.6376494,7.647216,0,3.3966061.5458831,5.8033441,1.6376494,7.220214,1.0941924,1.41687,2.6711881,2.1204526,4.7334132,2.1204526,1.0917662,0,2.0816343-.1698303,2.9720303-.5143432.890396-.3445129,1.9627531-.8976745,3.2170712-1.6691893l4.1851039,5.9489129c-3.1952359,2.5474546-6.8150475,3.8187557-10.8594348,3.8187557-3.2752987,0-6.1090386-.6938781-8.4939413-2.0913389-2.3873288-1.3974608-4.2263484-3.3577877-5.521911-5.8858331s-1.9409178-5.4927972-1.9409178-8.8894033.6453552-6.4098809,1.9409178-9.0398244,3.1345822-4.6776118,5.521911-6.1575616c2.3849027-1.4750975,5.1579889-2.2126462,8.3119803-2.2126462,2.224777,0,4.2263484.3251037,6.0071405.9704589Z"/>
    <path class="cls-19" d="M525.8727369,209.2993179c1.0723571,1.0335387,1.6085356,2.3363797,1.6085356,3.9133754,0,1.5794218-.5361785,2.884689-1.6085356,3.9133754-1.0723571,1.0335387-2.4358518,1.5478819-4.0953365,1.5478819s-3.0132748-.5143432-4.0637965-1.5478819c-1.0529479-1.0286864-1.5769957-2.3339536-1.5769957-3.9133754,0-1.5769957.5240478-2.8798367,1.5769957-3.9133754,1.0505217-1.0311126,2.4043119-1.5478819,4.0637965-1.5478819s3.0229794.5167694,4.0953365,1.5478819ZM526.632121,224.7393187v32.2192347h-9.5857076v-32.2192347h9.5857076Z"/>
    <path class="cls-18" d="M560.273078,250.2817963c.3445129.5677184.9001006.9947203,1.6691893,1.2761534l-2.0015714,6.2497552c-1.9821623-.164978-3.6004024-.5968322-4.8547205-1.3052672s-2.224777-1.829315-2.9113766-3.3674923c-2.1034696,3.2364804-5.33995,4.8522944-9.7070149,4.8522944-3.1952359,0-5.7451166-.9316405-7.6447898-2.7900693-1.9020994-1.8584288-2.8531491-4.2845759-2.8531491-7.2784416,0-3.5227657,1.2955626-6.2109368,3.8842617-8.0693656,2.5886991-1.863281,6.329818-2.7900693,11.2233569-2.7900693h3.2777249v-1.3974608c0-1.9020994-.4051666-3.2073666-1.2130736-3.9158016-.8103332-.7035827-2.2272031-1.0578002-4.2481837-1.0578002-1.0529479,0-2.3266752.1504211-3.8211818.4512634-1.4969328.3056945-3.0351101.7229919-4.6121058,1.2470397l-2.1835325-6.312835c2.0209806-.7666625,4.0953365-1.3537901,6.2182153-1.7565306,2.1228788-.4027404,4.0953365-.6065368,5.9149469-.6065368,4.6121058,0,7.9893027.9510497,10.1315907,2.8482968,2.1447141,1.9020994,3.2170712,4.7552485,3.2170712,8.554595v12.4995103c0,1.2130736.1722565,2.1058958.5143432,2.6687619ZM550.3549883,248.0400363v-5.7062982h-2.3679197c-2.1835325,0-3.8114772.3881836-4.8838343,1.1548461s-1.6061094,1.9603269-1.6061094,3.5809933c0,1.2955626.3323822,2.2951352.9995726,3.0035702s1.5867003,1.0578002,2.7609555,1.0578002c2.1835325,0,3.8842617-1.0286864,5.0973353-3.0909115Z"/>
    <path class="cls-17" d="M568.827673,255.5902064c-1.5575865-1.5964049-2.3363797-3.8721309-2.3363797-6.8223259v-36.8289144l9.5857076-1.0311126v37.4961049c0,1.334381.5458831,1.9991453,1.6400755,1.9991453.5652923,0,1.0917662-.0970459,1.5769957-.3008423l1.8802641,6.7932121c-1.7395475.7278442-3.6804653,1.0917662-5.8251794,1.0917662-2.7900693,0-4.9638972-.7957763-6.5214837-2.3970334Z"/>
    <path class="cls-13" d="M609.324922,214.9134225v42.0451309h-9.9496296v-42.0451309h9.9496296Z"/>
    <path class="cls-30" d="M642.390882,226.2580868c1.5769957,1.698303,2.3679197,4.0856319,2.3679197,7.1571342v23.5433324h-9.5881337v-21.9032569c0-1.615814-.2523193-2.7415463-.7569579-3.3674923-.5070648-.625946-1.2640227-.9413451-2.2757261-.9413451-1.9409178,0-3.8017727,1.3974608-5.5825647,4.1875301v22.0245642h-9.5857076v-32.2192347h8.372634l.6671905,3.823608c1.3756255-1.615814,2.8628537-2.8288876,4.4592585-3.6392208,1.598831-.8103332,3.3869015-1.2130736,5.3690637-1.2130736,2.7924954,0,4.9760279.8491515,6.5530236,2.5474546Z"/>
    <path class="cls-23" d="M672.1815434,255.4397852c-1.1742552.8103332-2.53775,1.4362791-4.0953365,1.8826902-1.5575865.4415588-3.1054684.6647643-4.6412196.6647643-7.038253-.0388184-10.5561664-3.9206539-10.5561664-11.6455065v-14.9256575h-4.5514521v-6.6767571h4.5514521v-6.9775993l9.5857076-1.0917662v8.0693656h7.4021751l-1.0311126,6.6767571h-6.3710625v14.8043502c0,1.4945067.2426147,2.5668637.7278442,3.2122189.4852294.6502074,1.2543181.9704589,2.3048398.9704589,1.0917662,0,2.2466123-.3396606,3.4596859-1.0286864l3.214645,6.065368Z"/>
    <path class="cls-29" d="M702.2148195,243.6681191h-19.9623391c.3226776,2.7124326,1.0917662,4.614532,2.3048398,5.7062982,1.2154997,1.0917662,2.8919675,1.6352232,5.0366816,1.6352232,1.2931365,0,2.5474546-.2280578,3.7629543-.6938781,1.2130736-.4658203,2.5256192-1.1839598,3.9424892-2.1544187l3.9424892,5.3375238c-3.7605281,2.9938656-7.9456321,4.4883723-12.5577379,4.4883723-5.2186426,0-9.2217855-1.533325-12.0142809-4.6096797-2.7900693-3.0715023-4.1851039-7.2008049-4.1851039-12.378203,0-3.2752987.5847015-6.2157891,1.7589567-8.8263235s2.8919675-4.6727595,5.1579889-6.1866753c2.2635953-1.5187681,4.9736017-2.2757261,8.1300192-2.2757261,4.6509242,0,8.290145,1.4556883,10.9200885,4.3670649s3.9449153,6.9581902,3.9449153,12.1355883c0,1.334381-.0606537,2.4843747-.181961,3.4548336ZM692.9906079,237.4814437c-.0800629-4.9347834-1.8196104-7.3997489-5.2162165-7.3997489-1.6594847,0-2.9429165.6065368-3.8527217,1.8196104s-1.4678191,3.2122189-1.6691893,6.0071405h10.7381275v-.4270019Z"/>
    <path class="cls-27" d="M728.4851414,224.2540892l-1.5187681,9.2824392c-1.2130736-.2814331-2.1835325-.4221496-2.9113766-.4221496-1.9020994,0-3.3480831.6550597-4.3379512,1.9700315-.9898681,1.3149718-1.7710875,3.2898556-2.3339536,5.9149469v15.9591962h-9.5881337v-32.2192347h8.3702078l.790924,6.2497552c.7278442-2.2223508,1.829315-3.9740291,3.3044125-5.2453302,1.4799498-1.2761534,3.1491391-1.911804,5.0075678-1.911804,1.1742552,0,2.2466123.1407165,3.2170712.4221496Z"/>
    <path class="cls-24" d="M758.2127229,243.6681191h-19.9623391c.3251037,2.7124326,1.0941924,4.614532,2.307266,5.7062982s2.8895413,1.6352232,5.0342554,1.6352232c1.2955626,0,2.5498807-.2280578,3.7629543-.6938781s2.5256192-1.1839598,3.9424892-2.1544187l3.9449153,5.3375238c-3.7629543,2.9938656-7.9480582,4.4883723-12.560164,4.4883723-5.2162165,0-9.2217855-1.533325-12.0118548-4.6096797-2.7924954-3.0715023-4.1875301-7.2008049-4.1875301-12.378203,0-3.2752987.5871276-6.2157891,1.7589567-8.8263235,1.1742552-2.6105344,2.8919675-4.6727595,5.1579889-6.1866753,2.2660215-1.5187681,4.9760279-2.2757261,8.1300192-2.2757261,4.6509242,0,8.290145,1.4556883,10.9200885,4.3670649s3.9449153,6.9581902,3.9449153,12.1355883c0,1.334381-.0606537,2.4843747-.181961,3.4548336ZM748.9909374,237.4814437c-.082489-4.9347834-1.8220365-7.3997489-5.2186426-7.3997489-1.6594847,0-2.9429165.6065368-3.8527217,1.8196104s-1.4653929,3.2122189-1.6691893,6.0071405h10.7405536v-.4270019Z"/>
    <path class="cls-25" d="M781.6323218,224.7393187c2.0209806.6890258,3.7993465,1.6594847,5.3375238,2.9113766l-3.5179134,5.4006037c-2.6299436-1.6546324-5.2792963-2.4843747-7.9480582-2.4843747-1.2543181,0-2.2150724.2086487-2.8822629.6356506-.6671905.4221496-1.0019988,1.0238341-1.0019988,1.7904966,0,.6065368.1528473,1.1014708.4561157,1.4848021s.9195098.7812194,1.8511503,1.1839598c.9292144.4027404,2.3654935.8879699,4.3064113,1.4556883,3.3577877.9704589,5.8542932,2.2369077,7.4943687,3.7944942,1.6376494,1.5575865,2.455261,3.7071529,2.455261,6.4584038,0,2.1835325-.625946,4.0759273-1.8802641,5.6723321-1.2543181,1.6012571-2.9720303,2.8240353-5.1555628,3.6731869-2.1859586.8491515-4.6121058,1.2713011-7.2808677,1.2713011-2.7100064,0-5.2283472-.4221496-7.5550224-1.2713011-2.3266752-.8491515-4.2967067-2.0234068-5.9149469-3.5179134l4.6727595-5.2210688c2.7075803,2.1058958,5.5607294,3.1539914,8.554595,3.1539914,1.4556883,0,2.5984036-.2620239,3.428146-.7860717.8273162-.5240478,1.2421874-1.2761534,1.2421874-2.2466123,0-.7666625-.1625519-1.3731993-.4852294-1.8196104s-.9510497-.8588561-1.8802641-1.2421874c-.9316405-.3833313-2.406738-.8588561-4.4301448-1.4265745-3.1952359-.9316405-5.5801385-2.2223508-7.1571342-3.8818355-1.5794218-1.6594847-2.3679197-3.7217098-2.3679197-6.1915276,0-1.8584288.5361785-3.527618,1.6085356-5.0027155,1.0699309-1.4750975,2.6081082-2.6493527,4.6096797-3.5179134,2.0039976-.873413,4.318542-1.3052672,6.9484856-1.3052672,2.3048398,0,4.4689631.3445129,6.4923699,1.0286864Z"/>
    <path class="cls-22" d="M813.3008211,255.4397852c-1.1742552.8103332-2.5401761,1.4362791-4.0953365,1.8826902-1.5575865.4415588-3.1054684.6647643-4.6412196.6647643-7.038253-.0388184-10.5561664-3.9206539-10.5561664-11.6455065v-14.9256575h-4.5514521v-6.6767571h4.5514521v-6.9775993l9.5857076-1.0917662v8.0693656h7.4021751l-1.0335387,6.6767571h-6.3686364v14.8043502c0,1.4945067.2426147,2.5668637.7278442,3.2122189.4852294.6502074,1.251892.9704589,2.3048398.9704589,1.0917662,0,2.2441862-.3396606,3.4596859-1.0286864l3.214645,6.065368Z"/>
    <path class="cls-26" d="M863.291584,219.0378728l-5.0342554,5.2792963c-1.4969328-1.1305846-2.8822629-1.9506223-4.1559901-2.4601133-1.2737273-.5046386-2.7415463-.7569579-4.3986049-.7569579-3.115173,0-5.6044,1.2227782-7.4628288,3.6731869-1.8608549,2.4455564-2.7924954,6.1575616-2.7924954,11.1311633,0,5.3811945.708435,9.1902456,2.1253049,11.4368579,1.4144438,2.2466123,3.6198116,3.3674923,6.6136772,3.3674923,2.1010435,0,4.0031429-.4658203,5.7014459-1.3974608v-9.5250539h-5.4588312l-.972885-7.0358269h16.0780775v20.8114906c-2.1835325,1.4120177-4.5902705,2.5037839-7.2177879,3.2752987-2.6299436.7666625-5.2598871,1.1499938-7.8874045,1.1499938-6.3928979,0-11.2063739-1.8681333-14.4404281-5.6092523-3.2364804-3.741119-4.8547205-9.2339162-4.8547205-16.4735394,0-4.6096797.8806914-8.5740042,2.6396481-11.8929735,1.7589567-3.3141171,4.1656947-5.8324579,7.220214-7.5501701,3.0545193-1.7225645,6.4802392-2.5814206,10.284438-2.5814206,5.4200128,0,10.0903462,1.7225645,14.0134262,5.1579889Z"/>
    <path class="cls-28" d="M890.7167519,224.2540892l-1.516342,9.2824392c-1.2130736-.2814331-2.1835325-.4221496-2.9138028-.4221496-1.8996733,0-3.345657.6550597-4.3379512,1.9700315-.9898681,1.3149718-1.7686613,3.2898556-2.3339536,5.9149469v15.9591962h-9.5881337v-32.2192347h8.372634l.790924,6.2497552c.7278442-2.2223508,1.829315-3.9740291,3.3044125-5.2453302,1.4775236-1.2761534,3.1467129-1.911804,5.0075678-1.911804,1.1718291,0,2.2441862.1407165,3.214645.4221496Z"/>
    <path class="cls-21" d="M918.0788399,228.2281183c2.7900693,3.0132748,4.1851039,7.2299186,4.1851039,12.6499315,0,3.4402767-.6380767,6.4438469-1.911804,9.0107107-1.2737273,2.571716-3.0933377,4.5611567-5.4588312,5.9780267-2.3679197,1.4120177-5.1676935,2.1204526-8.4041739,2.1204526-4.8935389,0-8.7462606-1.5042113-11.5581652-4.5174861s-4.2166438-7.2299186-4.2166438-12.6499315c0-3.4402767.6380767-6.4438469,1.911804-9.0107107s3.0933377-4.5611567,5.4612573-5.9780267c2.3654935-1.4120177,5.1652674-2.1204526,8.4017477-2.1204526,4.9347834,0,8.7972097,1.5042113,11.5897051,4.5174861ZM902.1220698,233.2065724c-.972885,1.6352232-1.4581145,4.1729732-1.4581145,7.6132499,0,3.5179134.4755248,6.0847772,1.4265745,7.7054435.9510497,1.615814,2.4164426,2.4261472,4.3986049,2.4261472,1.9409178,0,3.3990322-.8200378,4.3694911-2.4601133.9704589-1.6352232,1.4556883-4.1729732,1.4556883-7.6132499,0-3.5179134-.4755248-6.0847772-1.4265745-7.7054435-.9510497-1.615814-2.4164426-2.4261472-4.3986049-2.4261472-1.9409178,0-3.3966061.8200378-4.3670649,2.4601133Z"/>
    <path class="cls-38" d="M955.1479429,256.9585534h-8.3119803l-.4245758-4.0662227c-2.3460843,3.3966061-5.6044,5.0949091-9.7676686,5.0949091-2.9550473,0-5.1895288-.8879699-6.7058708-2.6687619s-2.2757261-4.2651668-2.2757261-7.4628288v-23.1163305h9.5881337v21.9032569c0,1.5769957.2523193,2.6784665.7569579,3.3092648.5046386.625946,1.2834319.9364928,2.3363797.9364928,2.0209806,0,3.7605281-1.251892,5.2186426-3.7605281v-22.3884863h9.5857076v32.2192347Z"/>
    <path class="cls-34" d="M989.912206,228.1990046c1.9797361,2.9938656,2.9720303,7.1813957,2.9720303,12.5577379,0,3.3189694-.5143432,6.2788689-1.5478819,8.8894033-1.0311126,2.6105344-2.5159146,4.6533503-4.4592585,6.1284478-1.9409178,1.4750975-4.2069392,2.2126462-6.7932121,2.2126462-3.2364804,0-5.8470147-1.1111754-7.8267508-3.3335262v14.7412703l-9.5881337,1.0335387v-45.6892039h8.4332876l.4876556,3.5809933c1.251892-1.5769957,2.6881711-2.7415463,4.3064113-3.4887997s3.2752987-1.12088,4.9760279-1.12088c4.0443874,0,7.0576622,1.4945067,9.0398244,4.4883723ZM982.9346067,240.8780498c0-3.7993465-.4245758-6.4389947-1.2737273-7.9140921-.8491515-1.4799498-2.1253049-2.2174985-3.823608-2.2174985-1.0917662,0-2.1131742.3251037-3.0642239.9704589-.9486236.6502074-1.7880705,1.5769957-2.5159146,2.7900693v13.5912766c1.2931365,1.9020994,2.9307858,2.8531491,4.9129481,2.8531491,3.8430172,0,5.7645257-3.3577877,5.7645257-10.0733631Z"/>
  </g>
  <g>
    <path class="cls-32" d="M133.8334316,136.4474249c-2.03948-1.8353804-5.1813406-1.6704023-7.0170242.3693809-1.8356836,2.0397833-1.6704023,5.1816439.3693809,7.0170242l20.7399193,18.66617-20.7399193,18.66617c-2.0397833,1.8353804-2.2050645,4.977241-.3693809,7.0170242,1.8356836,2.0397833,4.9775442,2.2053678,7.0170242.3693809l24.8437473-22.3593725c1.0474891-.9419516,1.6449278-2.2842176,1.6449278-3.6932026,0-1.4083784-.5974387-2.7506444-1.6449278-3.6932026l-24.8437473-22.3593725Z"/>
    <path class="cls-31" d="M261.8803249,263.5429652c0-15.1458304,12.3220983-27.468232,27.468232-27.468232,6.1675694,0,11.8477866,2.0682905,16.4374505,5.5134195,13.5846047-23.2279332,21.4046836-50.2376234,21.4046836-79.0881527,0-42.731124-17.1010018-81.4512201-44.8048733-109.7510141-4.9663233,4.9214396-11.7925917,7.969287-19.3203199,7.969287-15.1461337,0-27.468232-12.3224016-27.468232-27.468232,0-4.3555407,1.0459727-8.4617949,2.8580014-12.1246706-20.6225544-9.9660061-43.7555646-15.5564558-68.1956617-15.5564558-53.0480117,0-99.9135937,26.3479585-128.3189251,66.6426242,1.1002578.8066939,2.1647298,1.672222,3.1500489,2.6493527,5.2210688,5.1767916,8.0963565,12.105868,8.0960532,19.5098627,0,15.1458304-12.3220983,27.468232-27.468232,27.468232-2.3469941,0-4.6133189-.3275299-6.7892697-.8837241-3.625877,13.2370591-5.6007608,27.1564721-5.6007608,41.544738,0,38.7765041,14.0931858,74.2419237,37.3981492,101.6264536,4.8535075-4.3155093,11.2221438-6.9624359,18.2124804-6.9624359,15.1461337,0,27.468232,12.3224016,27.468232,27.468232,0,5.1707262-1.4626635,9.9945134-3.9567428,14.1292747,22.9392217,13.1278825,49.4855178,20.669561,77.8089666,20.669561,38.0535122,0,72.9378696-13.5506386,100.1067757-36.0816611-5.2177328-5.0027155-8.4860563-12.0239855-8.4860563-19.8064592ZM244.7908473,197.2812462c0,21.9535994-17.7963962,39.7499956-39.7499956,39.7499956h-69.5624923c-21.9529929,0-39.7499956-17.7963962-39.7499956-39.7499956v-69.5624923c0-21.9529929,17.7966995-39.7499956,39.7499956-39.7499956h69.5624923c21.9535994,0,39.7499956,17.7970027,39.7499956,39.7499956v69.5624923Z"/>
    <path class="cls-36" d="M210.0096011,179.8906231h-39.7499956c-2.7439725,0-4.9687495,2.224777-4.9687495,4.9687495,0,2.744579,2.224777,4.9687495,4.9687495,4.9687495h39.7499956c2.7442757,0,4.9687495-2.2241704,4.9687495-4.9687495,0-2.7439725-2.2244737-4.9687495-4.9687495-4.9687495Z"/>
    <path class="cls-33" d="M7.1157637,94.3707541c0,8.7650633,6.1945603,16.1757299,14.4058555,18.1014842,3.9091297-11.6267039,9.127469-22.6456579,15.5067198-32.8761141-3.1442868-2.4006726-7.0643341-3.8284603-11.3097884-3.8284603-10.2086209,0-18.6027869,8.3944693-18.6027869,18.6030901Z"/>
    <path class="cls-41" d="M25.7185505,112.9738443c10.2089241,0,18.6027869-8.3944693,18.6027869-18.6030901,0-6.0956948-2.8758942-11.4022853-7.2929985-14.7746299-6.3792508,10.2304562-11.5975901,21.2494102-15.5067198,32.8761141,1.3522738.3166122,2.7530705.5016059,4.1969314.5016059Z"/>
    <path class="cls-37" d="M25.7185505,112.9738443c10.2089241,0,18.6027869-8.3944693,18.6027869-18.6030901,0-6.0956948-2.8758942-11.4022853-7.2929985-14.7746299-6.3792508,10.2304562-11.5975901,21.2494102-15.5067198,32.8761141,1.3522738.3166122,2.7530705.5016059,4.1969314.5016059Z"/>
    <path class="cls-39" d="M246.322656,25.2340506c10.7238739,5.9549783,20.6868473,13.111506,29.6814848,21.3197685,3.4818245-3.3887211,5.6641439-8.1075774,5.6641439-13.3037781,0-10.4354656-8.3938628-18.6030901-18.6027869-18.6030901-7.3415214,0-13.7250179,4.3519015-16.7428418,10.5870998Z"/>
    <path class="cls-40" d="M244.4627109,33.250041c0,10.2086209,8.3938628,18.6030901,18.6027869,18.6030901,5.0124201,0,9.5799455-2.0312917,12.938643-5.299312-8.9946375-8.2082625-18.9576109-15.3647902-29.6814848-21.3197685-1.178501,2.4352452-1.8599451,5.1482843-1.8599451,8.0159903Z"/>
    <path class="cls-42" d="M244.4627109,33.250041c0,10.2086209,8.3938628,18.6030901,18.6027869,18.6030901,5.0124201,0,9.5799455-2.0312917,12.938643-5.299312-8.9946375-8.2082625-18.9576109-15.3647902-29.6814848-21.3197685-1.178501,2.4352452-1.8599451,5.1482843-1.8599451,8.0159903Z"/>
    <path class="cls-43" d="M301.1162806,249.107996c-6.8829796,10.3784512-14.9681151,19.8828828-24.0555527,28.3307273,3.2883393,2.9150159,7.5892917,4.7073321,12.287829,4.7073321,10.2089241,0,18.6027869-8.3938628,18.6027869-18.6030901,0-5.8870462-2.6730077-11.0504939-6.8350632-14.4349693Z"/>
    <path class="cls-44" d="M301.1162806,249.107996c-3.2152516-2.6141736-7.318473-4.1675143-11.7677237-4.1675143-10.2089241,0-18.6027869,8.3938628-18.6027869,18.6024836,0,5.5103868,2.4589002,10.4779232,6.3149579,13.8957581,9.0874376-8.4478445,17.1725731-17.9522762,24.0555527-28.3307273Z"/>
    <path class="cls-47" d="M301.1162806,249.107996c-3.2152516-2.6141736-7.318473-4.1675143-11.7677237-4.1675143-10.2089241,0-18.6027869,8.3938628-18.6027869,18.6024836,0,5.5103868,2.4589002,10.4779232,6.3149579,13.8957581,9.0874376-8.4478445,17.1725731-17.9522762,24.0555527-28.3307273Z"/>
    <path class="cls-45" d="M84.8749943,294.1403206c-10.3020275-6.6955597-19.7612722-14.5647681-28.2030513-23.4226315-3.8681884,3.4190479-6.3355801,8.3944693-6.3355801,13.9145607,0,10.2092274,8.3938628,18.6030901,18.6027869,18.6030901,6.7401402,0,12.6711603-3.6707607,15.9358446-9.0950193Z"/>
    <path class="cls-46" d="M84.8749943,294.1403206c1.6801069-2.7912823,2.6669423-6.0392869,2.6669423-9.5080709,0-10.4354656-8.3938628-18.6024836-18.6027869-18.6024836-4.6888327,0-8.9815969,1.7844313-12.2672067,4.6879229,8.4417792,8.8578634,17.9010238,16.7270718,28.2030513,23.4226315Z"/>
    <path class="cls-35" d="M84.8749943,294.1403206c1.6801069-2.7912823,2.6669423-6.0392869,2.6669423-9.5080709,0-10.4354656-8.3938628-18.6024836-18.6027869-18.6024836-4.6888327,0-8.9815969,1.7844313-12.2672067,4.6879229,8.4417792,8.8578634,17.9010238,16.7270718,28.2030513,23.4226315Z"/>
  </g>
</svg>