<svg width="221" height="213" viewBox="0 0 221 213" fill="none" xmlns="http://www.w3.org/2000/svg">
<g clip-path="url(#clip0_1943_3)">
<path d="M180.905 23.4225C187.885 29.0825 190.03 38.7975 186.1 46.8775C171.84 76.1925 140.82 96.4075 126.555 100.677C117.19 103.477 107.565 102.172 100.73 100.402C96.24 99.2375 94.34 93.9025 97.06 90.1475C105.82 78.0574 120.38 50.3075 110.995 7.93746C110.195 4.32246 112.91 0.882456 116.615 0.822456C125.37 0.682456 135.31 1.76746 146.025 4.57246C158.875 8.66746 170.67 15.1225 180.905 23.4225Z" fill="black"/>
<path d="M220.625 106.718C220.625 122.878 217.05 138.198 210.645 151.938C208.485 156.568 202.225 157.278 199.035 153.288C183.315 133.623 161.8 124.723 149.14 120.133C144.24 118.358 140.34 116.318 137.305 114.373C133.13 111.703 133.83 105.413 138.45 103.628C152.765 98.0925 179.15 83.5725 195.57 48.3775C196.99 45.3325 201.205 45.0725 203.055 47.8825C214.165 64.7725 220.625 84.9875 220.625 106.718Z" fill="black"/>
<path d="M95.205 72.0726C95.815 57.6476 92.99 35.3476 72.605 22.7376C69.48 20.8027 69.355 16.3127 72.395 14.2477C77.32 10.9026 84.645 6.87765 94.275 4.10765C98.47 2.89765 102.79 5.48265 103.74 9.74265C109.93 37.5976 104.655 59.9026 99.645 72.9827C98.715 75.4127 95.1 74.6676 95.21 72.0676L95.205 72.0726Z" fill="black"/>
<path d="M193.33 178.173C181.71 191.163 166.965 201.298 150.275 207.403C143.66 209.823 136.685 204.638 137.175 197.608C137.705 190.058 139.66 183.758 139.04 173.188C138.34 161.213 133.18 148.763 129.535 141.313C127.34 136.833 129.59 131.443 134.32 129.843C138.62 128.393 144.505 127.478 151.845 128.818C165.03 131.228 183.39 141.823 194.73 159.213C198.58 165.123 198.035 172.908 193.33 178.163V178.173Z" fill="black"/>
<path d="M125.105 212.423C42.645 212.243 21.255 149.138 16.005 124.028C15.605 122.118 18.16 121.073 19.21 122.718C28.195 136.793 51.03 163.678 98.25 172.918C103 173.848 107.37 176.168 110.775 179.608C116.7 185.593 125.635 195.588 129.865 205.183C131.37 208.598 128.83 212.428 125.095 212.418L125.105 212.423Z" fill="black"/>
<path d="M129.265 117.147C131.375 118.397 131.57 121.397 129.62 122.887C124.99 126.432 116.51 130.817 107.63 124.907C96.985 117.812 85.58 119.032 81.505 119.792C80.51 119.977 79.705 120.697 79.405 121.667C78.605 124.267 77.35 129.967 78.775 137.112C78.945 137.967 78.1 138.672 77.28 138.362C71.86 136.287 57.11 129.342 60.19 116.047C63.81 100.387 92.575 95.3625 129.26 117.147H129.265Z" fill="black"/>
<path d="M128.555 191.918C121.83 185.063 117.04 178.458 114.825 175.198C113.94 173.893 113.425 172.378 113.335 170.803C113.03 165.398 111.95 152.178 108.685 150.893C105.495 149.638 96.85 152.878 93.145 154.388C91.995 154.858 90.685 154.388 90.07 153.303C86.84 147.633 88.565 137.523 102.83 133.073C118.79 128.098 126.14 140.793 131.02 159.273C134.3 171.683 133.735 183.778 133.01 190.383C132.77 192.568 130.09 193.488 128.555 191.918Z" fill="black"/>
<path d="M68.65 29.2726C44.615 16.3276 18.795 30.2276 9.24502 36.4476C8.29502 37.0676 8.84002 38.5476 9.96502 38.4126C23.48 36.7826 30.88 40.8526 33.485 42.7227C34.085 43.1576 34.19 44.0177 33.705 44.5777C24.46 55.2127 18.925 68.9676 17.26 81.9776C15.79 93.4576 4.54002 104.348 0.480019 107.248C-0.109981 107.668 -0.164981 108.518 0.355019 109.023C4.19002 112.803 10.775 115.828 13.435 116.958C13.92 117.168 14.455 117.188 14.95 117.038C14.96 117.038 14.97 117.038 14.98 117.028C15 117.023 15.025 117.018 15.065 117.003C15.095 116.988 15.135 116.978 15.18 116.963C17.655 116.153 39.905 108.643 64.74 93.2826C72.875 88.2576 81.29 82.3826 89.375 75.6276C91.025 65.5576 92.03 41.8676 68.65 29.2726Z" fill="black"/>
<path d="M14.95 117.038C14.95 117.038 14.96 117.038 14.98 117.028C15 117.028 15.025 117.018 15.065 117.003C15.095 116.988 15.135 116.978 15.18 116.963" stroke="black" stroke-width="0.5" stroke-miterlimit="10"/>
<path d="M64.74 93.2824C72.875 88.2574 81.29 82.3824 89.375 75.6274L64.74 93.2824Z" fill="black"/>
<path d="M35.0901 79.2775C38.2077 79.2775 40.7351 76.7502 40.7351 73.6325C40.7351 70.5149 38.2077 67.9875 35.0901 67.9875C31.9724 67.9875 29.4451 70.5149 29.4451 73.6325C29.4451 76.7502 31.9724 79.2775 35.0901 79.2775Z" fill="white"/>
</g>
<defs>
<clipPath id="clip0_1943_3">
<rect width="220.625" height="211.615" fill="white" transform="translate(0 0.807617)"/>
</clipPath>
</defs>
</svg>
