<svg width="274" height="308" viewBox="0 0 274 308" fill="none" xmlns="http://www.w3.org/2000/svg">
<g clip-path="url(#clip0_1943_77)">
<path d="M200.905 22.6148C207.885 28.2748 210.03 37.9898 206.1 46.0698C191.84 75.3848 160.82 95.5998 146.555 99.8698C137.19 102.67 127.565 101.365 120.73 99.5948C116.24 98.4298 114.34 93.0948 117.06 89.3398C125.82 77.2498 140.38 49.4998 130.995 7.12984C130.195 3.51484 132.91 0.0748389 136.615 0.0148389C145.37 -0.125161 155.31 0.959839 166.025 3.76484C178.875 7.85984 190.67 14.3148 200.905 22.6148Z" fill="#1A1A1A"/>
<path d="M240.625 105.91C240.625 122.07 237.05 137.39 230.645 151.13C228.485 155.76 222.225 156.47 219.035 152.48C203.315 132.815 181.8 123.915 169.14 119.325C164.24 117.55 160.34 115.51 157.305 113.565C153.13 110.895 153.83 104.605 158.45 102.82C172.765 97.2849 199.15 82.7649 215.57 47.5699C216.99 44.5249 221.205 44.2649 223.055 47.0749C234.165 63.9649 240.625 84.1799 240.625 105.91Z" fill="#1A1A1A"/>
<path d="M115.205 71.265C115.815 56.84 112.99 34.54 92.605 21.93C89.48 19.995 89.355 15.505 92.395 13.44C97.32 10.095 104.645 6.07003 114.275 3.30003C118.47 2.09003 122.79 4.67503 123.74 8.93503C129.93 36.79 124.655 59.095 119.645 72.175C118.715 74.605 115.1 73.86 115.21 71.26L115.205 71.265Z" fill="#1A1A1A"/>
<path d="M213.33 177.365C201.71 190.355 186.965 200.49 170.275 206.595C163.66 209.015 156.685 203.83 157.175 196.8C157.705 189.25 159.66 182.95 159.04 172.38C158.34 160.405 153.18 147.955 149.535 140.505C147.34 136.025 149.59 130.635 154.32 129.035C158.62 127.585 164.505 126.67 171.845 128.01C185.03 130.42 203.39 141.015 214.73 158.405C218.58 164.315 218.035 172.1 213.33 177.355V177.365Z" fill="#1A1A1A"/>
<path d="M145.105 211.615C62.645 211.435 41.255 148.33 36.005 123.22C35.605 121.31 38.16 120.265 39.21 121.91C48.195 135.985 71.03 162.87 118.25 172.11C123 173.04 127.37 175.36 130.775 178.8C136.7 184.785 145.635 194.78 149.865 204.375C151.37 207.79 148.83 211.62 145.095 211.61L145.105 211.615Z" fill="#1A1A1A"/>
<path d="M149.265 116.34C151.375 117.59 151.57 120.59 149.62 122.08C144.99 125.625 136.51 130.01 127.63 124.1C116.985 117.005 105.58 118.225 101.505 118.985C100.51 119.17 99.705 119.89 99.405 120.86C98.605 123.46 97.35 129.16 98.775 136.305C98.945 137.16 98.1 137.865 97.28 137.555C91.86 135.48 77.11 128.535 80.19 115.24C83.81 99.5799 112.575 94.5549 149.26 116.34H149.265Z" fill="#1A1A1A"/>
<path d="M148.555 191.11C141.83 184.255 137.04 177.65 134.825 174.39C133.94 173.085 133.425 171.57 133.335 169.995C133.03 164.59 131.95 151.37 128.685 150.085C125.495 148.83 116.85 152.07 113.145 153.58C111.995 154.05 110.685 153.58 110.07 152.495C106.84 146.825 108.565 136.715 122.83 132.265C138.79 127.29 146.14 139.985 151.02 158.465C154.3 170.875 153.735 182.97 153.01 189.575C152.77 191.76 150.09 192.68 148.555 191.11Z" fill="#1A1A1A"/>
<path d="M88.65 28.465C64.615 15.52 38.795 29.42 29.245 35.64C28.295 36.26 28.84 37.74 29.965 37.605C43.48 35.975 50.88 40.045 53.485 41.915C54.085 42.35 54.19 43.21 53.705 43.77C44.46 54.405 38.925 68.16 37.26 81.17C35.79 92.65 24.54 103.54 20.48 106.44C19.89 106.86 19.835 107.71 20.355 108.215C24.19 111.995 30.775 115.02 33.435 116.15C33.92 116.36 34.455 116.38 34.95 116.23C34.96 116.23 34.97 116.23 34.98 116.22C35 116.215 35.025 116.21 35.065 116.195C35.095 116.18 35.135 116.17 35.18 116.155C37.655 115.345 59.905 107.835 84.74 92.475C92.875 87.45 101.29 81.575 109.375 74.82C111.025 64.75 112.03 41.06 88.65 28.465Z" fill="#1A1A1A"/>
<path d="M34.95 116.23C34.95 116.23 34.96 116.23 34.98 116.22C35 116.22 35.025 116.21 35.065 116.195C35.095 116.18 35.135 116.17 35.18 116.155" stroke="#1A1A1A" stroke-width="0.5" stroke-miterlimit="10"/>
<path d="M84.74 92.4748C92.875 87.4498 101.29 81.5748 109.375 74.8198L84.74 92.4748Z" fill="#1A1A1A"/>
<path d="M55.09 78.4699C58.2077 78.4699 60.735 75.9426 60.735 72.8249C60.735 69.7073 58.2077 67.1799 55.09 67.1799C51.9724 67.1799 49.445 69.7073 49.445 72.8249C49.445 75.9426 51.9724 78.4699 55.09 78.4699Z" fill="white"/>
</g>
<path d="M235.364 297.677L235.697 281.898L256.541 262.134H271.987L251.973 282.479L245.247 287.96L235.364 297.677ZM224.652 306.812V245.192H237.607V306.812H224.652ZM257.953 306.812L242.838 288.043L250.977 277.995L273.648 306.812H257.953Z" fill="#1A1A1A"/>
<path d="M200.744 307.476C195.927 307.476 191.637 306.507 187.872 304.569C184.107 302.576 181.145 299.836 178.986 296.348C176.882 292.86 175.83 288.902 175.83 284.473C175.83 279.988 176.882 276.03 178.986 272.597C181.145 269.109 184.107 266.397 187.872 264.459C191.637 262.466 195.927 261.469 200.744 261.469C205.45 261.469 209.547 262.466 213.034 264.459C216.522 266.397 219.097 269.192 220.758 272.846L210.709 278.244C209.547 276.14 208.079 274.59 206.308 273.594C204.592 272.597 202.709 272.099 200.661 272.099C198.446 272.099 196.453 272.597 194.682 273.594C192.91 274.59 191.498 276.002 190.446 277.829C189.45 279.656 188.951 281.871 188.951 284.473C188.951 287.075 189.45 289.289 190.446 291.116C191.498 292.943 192.91 294.355 194.682 295.351C196.453 296.348 198.446 296.846 200.661 296.846C202.709 296.846 204.592 296.376 206.308 295.435C208.079 294.438 209.547 292.86 210.709 290.701L220.758 296.182C219.097 299.781 216.522 302.576 213.034 304.569C209.547 306.507 205.45 307.476 200.744 307.476Z" fill="#1A1A1A"/>
<path d="M158.3 306.812V298.092L157.47 296.182V280.57C157.47 277.801 156.612 275.642 154.895 274.092C153.234 272.542 150.66 271.767 147.172 271.767C144.792 271.767 142.439 272.154 140.113 272.929C137.843 273.649 135.906 274.646 134.3 275.919L129.65 266.867C132.086 265.151 135.02 263.822 138.452 262.881C141.885 261.94 145.373 261.469 148.916 261.469C155.726 261.469 161.013 263.075 164.778 266.286C168.542 269.497 170.425 274.507 170.425 281.317V306.812H158.3ZM144.681 307.476C141.193 307.476 138.203 306.895 135.712 305.732C133.221 304.514 131.311 302.881 129.982 300.832C128.653 298.784 127.989 296.486 127.989 293.94C127.989 291.282 128.626 288.957 129.899 286.964C131.228 284.971 133.304 283.421 136.127 282.313C138.951 281.151 142.632 280.57 147.172 280.57H159.048V288.127H148.584C145.539 288.127 143.435 288.625 142.273 289.621C141.165 290.618 140.612 291.864 140.612 293.358C140.612 295.019 141.248 296.348 142.522 297.345C143.85 298.286 145.65 298.756 147.92 298.756C150.079 298.756 152.016 298.258 153.733 297.262C155.449 296.21 156.695 294.687 157.47 292.694L159.463 298.673C158.522 301.552 156.805 303.739 154.314 305.234C151.823 306.729 148.612 307.476 144.681 307.476Z" fill="#1A1A1A"/>
<path d="M116.398 307.476C111.139 307.476 107.042 306.147 104.108 303.49C101.173 300.777 99.7062 296.763 99.7062 291.448V252.251H112.661V291.282C112.661 293.165 113.159 294.632 114.156 295.684C115.153 296.68 116.509 297.178 118.225 297.178C120.274 297.178 122.018 296.625 123.457 295.518L126.945 304.652C125.616 305.594 124.011 306.313 122.128 306.812C120.301 307.255 118.391 307.476 116.398 307.476ZM92.8135 273.095V263.13H123.789V273.095H92.8135Z" fill="#1A1A1A"/>
<path d="M72.3638 307.476C68.5437 307.476 64.8621 307.033 61.3188 306.147C57.8309 305.206 55.0628 304.044 53.0143 302.659L57.3327 293.358C59.3811 294.632 61.7894 295.684 64.5576 296.514C67.3811 297.289 70.1492 297.677 72.862 297.677C75.8517 297.677 77.9555 297.317 79.1734 296.597C80.4468 295.877 81.0835 294.881 81.0835 293.608C81.0835 292.556 80.5852 291.781 79.5887 291.282C78.6475 290.729 77.3741 290.313 75.7686 290.037C74.1631 289.76 72.3915 289.483 70.4537 289.206C68.5714 288.929 66.6614 288.57 64.7237 288.127C62.7859 287.628 61.0143 286.909 59.4088 285.967C57.8033 285.026 56.5022 283.753 55.5057 282.147C54.5645 280.542 54.0939 278.466 54.0939 275.919C54.0939 273.096 54.8967 270.604 56.5022 268.445C58.1631 266.286 60.5437 264.597 63.6441 263.379C66.7444 262.106 70.4537 261.469 74.7721 261.469C77.817 261.469 80.9174 261.801 84.0731 262.466C87.2288 263.13 89.8585 264.099 91.9623 265.372L87.644 274.59C85.4848 273.317 83.298 272.459 81.0835 272.016C78.9243 271.518 76.8205 271.269 74.7721 271.269C71.8932 271.269 69.7894 271.656 68.4607 272.431C67.132 273.206 66.4676 274.203 66.4676 275.421C66.4676 276.528 66.9382 277.358 67.8794 277.912C68.8759 278.466 70.1769 278.909 71.7825 279.241C73.388 279.573 75.1319 279.877 77.0143 280.154C78.952 280.376 80.8897 280.736 82.8274 281.234C84.7651 281.732 86.5091 282.452 88.0592 283.393C89.6648 284.279 90.9658 285.525 91.9623 287.13C92.9589 288.68 93.4571 290.729 93.4571 293.275C93.4571 296.044 92.6267 298.507 90.9658 300.666C89.3049 302.77 86.8966 304.431 83.7409 305.649C80.6406 306.867 76.8482 307.476 72.3638 307.476Z" fill="#1A1A1A"/>
<path d="M22.339 307.476C18.1314 307.476 14.3391 306.535 10.9619 304.652C7.58475 302.715 4.89964 300.03 2.90657 296.597C0.968856 293.165 0 289.123 0 284.473C0 279.767 0.968856 275.697 2.90657 272.265C4.89964 268.832 7.58475 266.175 10.9619 264.293C14.3391 262.41 18.1314 261.469 22.339 261.469C26.1037 261.469 29.3978 262.3 32.2214 263.96C35.0449 265.621 37.2317 268.14 38.7819 271.518C40.3321 274.895 41.1072 279.213 41.1072 284.473C41.1072 289.677 40.3598 293.995 38.8649 297.428C37.3701 300.805 35.211 303.324 32.3875 304.985C29.6193 306.646 26.2698 307.476 22.339 307.476ZM24.5812 296.846C26.685 296.846 28.5951 296.348 30.3113 295.351C32.0276 294.355 33.384 292.943 34.3805 291.116C35.4324 289.234 35.9584 287.019 35.9584 284.473C35.9584 281.87 35.4324 279.656 34.3805 277.829C33.384 276.002 32.0276 274.59 30.3113 273.594C28.5951 272.597 26.685 272.099 24.5812 272.099C22.4221 272.099 20.4844 272.597 18.7681 273.594C17.0519 274.59 15.6678 276.002 14.6159 277.829C13.6193 279.656 13.1211 281.87 13.1211 284.473C13.1211 287.019 13.6193 289.234 14.6159 291.116C15.6678 292.943 17.0519 294.355 18.7681 295.351C20.4844 296.348 22.4221 296.846 24.5812 296.846ZM36.2906 306.812V297.677L36.5397 284.39L35.7092 271.185V245.192H48.6642V306.812H36.2906Z" fill="#1A1A1A"/>
<defs>
<clipPath id="clip0_1943_77">
<rect width="220.625" height="211.615" fill="white" transform="translate(20)"/>
</clipPath>
</defs>
</svg>
