<svg width="222" height="213" viewBox="0 0 222 213" fill="none" xmlns="http://www.w3.org/2000/svg">
<g clip-path="url(#clip0_1943_16)">
<path d="M181.53 23.4225C188.51 29.0825 190.655 38.7975 186.725 46.8775C172.465 76.1925 141.445 96.4075 127.18 100.677C117.815 103.477 108.19 102.172 101.355 100.402C96.865 99.2375 94.965 93.9025 97.685 90.1475C106.445 78.0574 121.005 50.3075 111.62 7.93746C110.82 4.32246 113.535 0.882456 117.24 0.822456C125.995 0.682456 135.935 1.76746 146.65 4.57246C159.5 8.66746 171.295 15.1225 181.53 23.4225Z" fill="#C6EB3D"/>
<path d="M221.25 106.718C221.25 122.878 217.675 138.198 211.27 151.938C209.11 156.568 202.85 157.278 199.66 153.288C183.94 133.623 162.425 124.723 149.765 120.133C144.865 118.358 140.965 116.318 137.93 114.373C133.755 111.703 134.455 105.413 139.075 103.628C153.39 98.0925 179.775 83.5725 196.195 48.3775C197.615 45.3325 201.83 45.0725 203.68 47.8825C214.79 64.7725 221.25 84.9875 221.25 106.718Z" fill="#C6EB3D"/>
<path d="M95.83 72.0726C96.44 57.6476 93.615 35.3476 73.23 22.7376C70.105 20.8027 69.98 16.3127 73.02 14.2477C77.945 10.9026 85.27 6.87765 94.9 4.10765C99.095 2.89765 103.415 5.48265 104.365 9.74265C110.555 37.5976 105.28 59.9026 100.27 72.9827C99.34 75.4127 95.725 74.6676 95.835 72.0676L95.83 72.0726Z" fill="#C6EB3D"/>
<path d="M193.955 178.173C182.335 191.163 167.59 201.298 150.9 207.403C144.285 209.823 137.31 204.638 137.8 197.608C138.33 190.058 140.285 183.758 139.665 173.188C138.965 161.213 133.805 148.763 130.16 141.313C127.965 136.833 130.215 131.443 134.945 129.843C139.245 128.393 145.13 127.478 152.47 128.818C165.655 131.228 184.015 141.823 195.355 159.213C199.205 165.123 198.66 172.908 193.955 178.163V178.173Z" fill="#C6EB3D"/>
<path d="M125.73 212.423C43.27 212.243 21.88 149.138 16.63 124.028C16.23 122.118 18.785 121.073 19.835 122.718C28.82 136.793 51.655 163.678 98.875 172.918C103.625 173.848 107.995 176.168 111.4 179.608C117.325 185.593 126.26 195.588 130.49 205.183C131.995 208.598 129.455 212.428 125.72 212.418L125.73 212.423Z" fill="#C6EB3D"/>
<path d="M129.89 117.147C132 118.397 132.195 121.397 130.245 122.887C125.615 126.432 117.135 130.817 108.255 124.907C97.61 117.812 86.205 119.032 82.13 119.792C81.135 119.977 80.33 120.697 80.03 121.667C79.23 124.267 77.975 129.967 79.4 137.112C79.57 137.967 78.725 138.672 77.905 138.362C72.485 136.287 57.735 129.342 60.815 116.047C64.435 100.387 93.2 95.3625 129.885 117.147H129.89Z" fill="#C6EB3D"/>
<path d="M129.18 191.918C122.455 185.063 117.665 178.458 115.45 175.198C114.565 173.893 114.05 172.378 113.96 170.803C113.655 165.398 112.575 152.178 109.31 150.893C106.12 149.638 97.475 152.878 93.77 154.388C92.62 154.858 91.31 154.388 90.695 153.303C87.465 147.633 89.19 137.523 103.455 133.073C119.415 128.098 126.765 140.793 131.645 159.273C134.925 171.683 134.36 183.778 133.635 190.383C133.395 192.568 130.715 193.488 129.18 191.918Z" fill="#C6EB3D"/>
<path d="M69.275 29.2726C45.24 16.3276 19.42 30.2276 9.87002 36.4476C8.92002 37.0676 9.46502 38.5476 10.59 38.4126C24.105 36.7826 31.505 40.8526 34.11 42.7227C34.71 43.1576 34.815 44.0177 34.33 44.5777C25.085 55.2127 19.55 68.9676 17.885 81.9776C16.415 93.4576 5.16502 104.348 1.10502 107.248C0.515019 107.668 0.460019 108.518 0.980019 109.023C4.81502 112.803 11.4 115.828 14.06 116.958C14.545 117.168 15.08 117.188 15.575 117.038C15.585 117.038 15.595 117.038 15.605 117.028C15.625 117.023 15.65 117.018 15.69 117.003C15.72 116.988 15.76 116.978 15.805 116.963C18.28 116.153 40.53 108.643 65.365 93.2826C73.5 88.2576 81.915 82.3826 90 75.6276C91.65 65.5576 92.655 41.8676 69.275 29.2726Z" fill="#C6EB3D"/>
<path d="M15.575 117.038C15.575 117.038 15.585 117.038 15.605 117.028C15.625 117.028 15.65 117.018 15.69 117.003C15.72 116.988 15.76 116.978 15.805 116.963" stroke="#C6EB3D" stroke-width="0.5" stroke-miterlimit="10"/>
<path d="M65.365 93.2824C73.5 88.2574 81.915 82.3824 90 75.6274L65.365 93.2824Z" fill="#C6EB3D"/>
<path d="M35.715 79.2775C38.8327 79.2775 41.36 76.7502 41.36 73.6325C41.36 70.5149 38.8327 67.9875 35.715 67.9875C32.5974 67.9875 30.07 70.5149 30.07 73.6325C30.07 76.7502 32.5974 79.2775 35.715 79.2775Z" fill="white"/>
</g>
<defs>
<clipPath id="clip0_1943_16">
<rect width="220.625" height="211.615" fill="white" transform="translate(0.625 0.807617)"/>
</clipPath>
</defs>
</svg>
