<svg width="274" height="308" viewBox="0 0 274 308" fill="none" xmlns="http://www.w3.org/2000/svg">
<g clip-path="url(#clip0_1943_78)">
<path d="M197.53 22.6148C204.51 28.2748 206.655 37.9898 202.725 46.0698C188.465 75.3848 157.445 95.5998 143.18 99.8698C133.815 102.67 124.19 101.365 117.355 99.5948C112.865 98.4298 110.965 93.0948 113.685 89.3398C122.445 77.2498 137.005 49.4998 127.62 7.12984C126.82 3.51484 129.535 0.0748389 133.24 0.0148389C141.995 -0.125161 151.935 0.959839 162.65 3.76484C175.5 7.85984 187.295 14.3148 197.53 22.6148Z" fill="#C4F142"/>
<path d="M237.25 105.91C237.25 122.07 233.675 137.39 227.27 151.13C225.11 155.76 218.85 156.47 215.66 152.48C199.94 132.815 178.425 123.915 165.765 119.325C160.865 117.55 156.965 115.51 153.93 113.565C149.755 110.895 150.455 104.605 155.075 102.82C169.39 97.2849 195.775 82.7649 212.195 47.5699C213.615 44.5249 217.83 44.2649 219.68 47.0749C230.79 63.9649 237.25 84.1799 237.25 105.91Z" fill="#C4F142"/>
<path d="M111.83 71.265C112.44 56.84 109.615 34.54 89.23 21.93C86.105 19.995 85.98 15.505 89.02 13.44C93.945 10.095 101.27 6.07003 110.9 3.30003C115.095 2.09003 119.415 4.67503 120.365 8.93503C126.555 36.79 121.28 59.095 116.27 72.175C115.34 74.605 111.725 73.86 111.835 71.26L111.83 71.265Z" fill="#C4F142"/>
<path d="M209.955 177.365C198.335 190.355 183.59 200.49 166.9 206.595C160.285 209.015 153.31 203.83 153.8 196.8C154.33 189.25 156.285 182.95 155.665 172.38C154.965 160.405 149.805 147.955 146.16 140.505C143.965 136.025 146.215 130.635 150.945 129.035C155.245 127.585 161.13 126.67 168.47 128.01C181.655 130.42 200.015 141.015 211.355 158.405C215.205 164.315 214.66 172.1 209.955 177.355V177.365Z" fill="#C4F142"/>
<path d="M141.73 211.615C59.27 211.435 37.88 148.33 32.63 123.22C32.23 121.31 34.785 120.265 35.835 121.91C44.82 135.985 67.655 162.87 114.875 172.11C119.625 173.04 123.995 175.36 127.4 178.8C133.325 184.785 142.26 194.78 146.49 204.375C147.995 207.79 145.455 211.62 141.72 211.61L141.73 211.615Z" fill="#C4F142"/>
<path d="M145.89 116.34C148 117.59 148.195 120.59 146.245 122.08C141.615 125.625 133.135 130.01 124.255 124.1C113.61 117.005 102.205 118.225 98.13 118.985C97.135 119.17 96.33 119.89 96.03 120.86C95.23 123.46 93.975 129.16 95.4 136.305C95.57 137.16 94.725 137.865 93.905 137.555C88.485 135.48 73.735 128.535 76.815 115.24C80.435 99.5799 109.2 94.5549 145.885 116.34H145.89Z" fill="#C4F142"/>
<path d="M145.18 191.11C138.455 184.255 133.665 177.65 131.45 174.39C130.565 173.085 130.05 171.57 129.96 169.995C129.655 164.59 128.575 151.37 125.31 150.085C122.12 148.83 113.475 152.07 109.77 153.58C108.62 154.05 107.31 153.58 106.695 152.495C103.465 146.825 105.19 136.715 119.455 132.265C135.415 127.29 142.765 139.985 147.645 158.465C150.925 170.875 150.36 182.97 149.635 189.575C149.395 191.76 146.715 192.68 145.18 191.11Z" fill="#C4F142"/>
<path d="M85.275 28.465C61.24 15.52 35.42 29.42 25.87 35.64C24.92 36.26 25.465 37.74 26.59 37.605C40.105 35.975 47.505 40.045 50.11 41.915C50.71 42.35 50.815 43.21 50.33 43.77C41.085 54.405 35.55 68.16 33.885 81.17C32.415 92.65 21.165 103.54 17.105 106.44C16.515 106.86 16.46 107.71 16.98 108.215C20.815 111.995 27.4 115.02 30.06 116.15C30.545 116.36 31.08 116.38 31.575 116.23C31.585 116.23 31.595 116.23 31.605 116.22C31.625 116.215 31.65 116.21 31.69 116.195C31.72 116.18 31.76 116.17 31.805 116.155C34.28 115.345 56.53 107.835 81.365 92.475C89.5 87.45 97.915 81.575 106 74.82C107.65 64.75 108.655 41.06 85.275 28.465Z" fill="#C4F142"/>
<path d="M31.575 116.23C31.575 116.23 31.585 116.23 31.605 116.22C31.625 116.22 31.65 116.21 31.69 116.195C31.72 116.18 31.76 116.17 31.805 116.155" stroke="#C4F142" stroke-width="0.5" stroke-miterlimit="10"/>
<path d="M81.365 92.4748C89.5 87.4498 97.915 81.5748 106 74.8198L81.365 92.4748Z" fill="#C4F142"/>
<path d="M51.7151 78.4699C54.8327 78.4699 57.3601 75.9426 57.3601 72.8249C57.3601 69.7073 54.8327 67.1799 51.7151 67.1799C48.5974 67.1799 46.0701 69.7073 46.0701 72.8249C46.0701 75.9426 48.5974 78.4699 51.7151 78.4699Z" fill="white"/>
</g>
<path d="M235.364 297.677L235.697 281.898L256.541 262.134H271.987L251.973 282.479L245.247 287.96L235.364 297.677ZM224.652 306.812V245.192H237.607V306.812H224.652ZM257.953 306.812L242.838 288.043L250.977 277.995L273.648 306.812H257.953Z" fill="#1A1A1A"/>
<path d="M200.744 307.476C195.927 307.476 191.637 306.507 187.872 304.569C184.107 302.576 181.145 299.836 178.986 296.348C176.882 292.86 175.83 288.902 175.83 284.473C175.83 279.988 176.882 276.03 178.986 272.597C181.145 269.109 184.107 266.397 187.872 264.459C191.637 262.466 195.927 261.469 200.744 261.469C205.45 261.469 209.546 262.466 213.034 264.459C216.522 266.397 219.097 269.192 220.758 272.846L210.709 278.244C209.546 276.14 208.079 274.59 206.308 273.594C204.591 272.597 202.709 272.099 200.661 272.099C198.446 272.099 196.453 272.597 194.681 273.594C192.91 274.59 191.498 276.002 190.446 277.829C189.45 279.656 188.951 281.871 188.951 284.473C188.951 287.075 189.45 289.289 190.446 291.116C191.498 292.943 192.91 294.355 194.681 295.351C196.453 296.348 198.446 296.846 200.661 296.846C202.709 296.846 204.591 296.376 206.308 295.435C208.079 294.438 209.546 292.86 210.709 290.701L220.758 296.182C219.097 299.781 216.522 302.576 213.034 304.569C209.546 306.507 205.45 307.476 200.744 307.476Z" fill="#1A1A1A"/>
<path d="M158.3 306.812V298.092L157.47 296.182V280.57C157.47 277.801 156.612 275.642 154.895 274.092C153.234 272.542 150.66 271.767 147.172 271.767C144.791 271.767 142.439 272.154 140.113 272.929C137.843 273.649 135.906 274.646 134.3 275.919L129.65 266.867C132.086 265.151 135.02 263.822 138.452 262.881C141.885 261.94 145.373 261.469 148.916 261.469C155.726 261.469 161.013 263.075 164.778 266.286C168.542 269.497 170.425 274.507 170.425 281.317V306.812H158.3ZM144.681 307.476C141.193 307.476 138.203 306.895 135.712 305.732C133.221 304.514 131.311 302.881 129.982 300.832C128.653 298.784 127.989 296.486 127.989 293.94C127.989 291.282 128.625 288.957 129.899 286.964C131.228 284.971 133.304 283.421 136.127 282.313C138.951 281.151 142.632 280.57 147.172 280.57H159.048V288.127H148.584C145.539 288.127 143.435 288.625 142.272 289.621C141.165 290.618 140.612 291.864 140.612 293.358C140.612 295.019 141.248 296.348 142.522 297.345C143.85 298.286 145.65 298.756 147.92 298.756C150.079 298.756 152.016 298.258 153.733 297.262C155.449 296.21 156.695 294.687 157.47 292.694L159.463 298.673C158.522 301.552 156.805 303.739 154.314 305.234C151.823 306.729 148.612 307.476 144.681 307.476Z" fill="#1A1A1A"/>
<path d="M116.398 307.476C111.139 307.476 107.042 306.147 104.108 303.49C101.173 300.777 99.7063 296.763 99.7063 291.448V252.251H112.661V291.282C112.661 293.165 113.16 294.632 114.156 295.684C115.153 296.68 116.509 297.178 118.225 297.178C120.274 297.178 122.018 296.625 123.457 295.518L126.945 304.652C125.616 305.594 124.011 306.313 122.128 306.812C120.301 307.255 118.391 307.476 116.398 307.476ZM92.8136 273.095V263.13H123.789V273.095H92.8136Z" fill="#1A1A1A"/>
<path d="M72.3638 307.476C68.5438 307.476 64.8621 307.033 61.3189 306.147C57.831 305.206 55.0628 304.044 53.0144 302.659L57.3327 293.358C59.3812 294.632 61.7895 295.684 64.5576 296.514C67.3811 297.289 70.1493 297.677 72.8621 297.677C75.8517 297.677 77.9555 297.317 79.1735 296.597C80.4469 295.877 81.0835 294.881 81.0835 293.608C81.0835 292.556 80.5853 291.781 79.5887 291.282C78.6476 290.729 77.3742 290.313 75.7687 290.037C74.1631 289.76 72.3915 289.483 70.4538 289.206C68.5715 288.929 66.6614 288.57 64.7237 288.127C62.786 287.628 61.0144 286.909 59.4089 285.967C57.8033 285.026 56.5023 283.753 55.5057 282.147C54.5646 280.542 54.094 278.466 54.094 275.919C54.094 273.096 54.8968 270.604 56.5023 268.445C58.1632 266.286 60.5438 264.597 63.6441 263.379C66.7445 262.106 70.4538 261.469 74.7721 261.469C77.8171 261.469 80.9174 261.801 84.0731 262.466C87.2288 263.13 89.8586 264.099 91.9624 265.372L87.6441 274.59C85.4849 273.317 83.2981 272.459 81.0835 272.016C78.9244 271.518 76.8206 271.269 74.7721 271.269C71.8932 271.269 69.7894 271.656 68.4607 272.431C67.132 273.206 66.4677 274.203 66.4677 275.421C66.4677 276.528 66.9382 277.358 67.8794 277.912C68.876 278.466 70.177 278.909 71.7825 279.241C73.3881 279.573 75.132 279.877 77.0143 280.154C78.9521 280.376 80.8898 280.736 82.8275 281.234C84.7652 281.732 86.5091 282.452 88.0593 283.393C89.6648 284.279 90.9659 285.525 91.9624 287.13C92.9589 288.68 93.4572 290.729 93.4572 293.275C93.4572 296.044 92.6268 298.507 90.9659 300.666C89.305 302.77 86.8967 304.431 83.741 305.649C80.6406 306.867 76.8483 307.476 72.3638 307.476Z" fill="#1A1A1A"/>
<path d="M22.339 307.476C18.1314 307.476 14.3391 306.535 10.9619 304.652C7.58475 302.715 4.89964 300.03 2.90657 296.597C0.968856 293.165 0 289.123 0 284.473C0 279.767 0.968856 275.697 2.90657 272.265C4.89964 268.832 7.58475 266.175 10.9619 264.293C14.3391 262.41 18.1314 261.469 22.339 261.469C26.1037 261.469 29.3978 262.3 32.2214 263.96C35.0449 265.621 37.2317 268.14 38.7819 271.518C40.3321 274.895 41.1072 279.213 41.1072 284.473C41.1072 289.677 40.3598 293.995 38.8649 297.428C37.3701 300.805 35.211 303.324 32.3875 304.985C29.6193 306.646 26.2698 307.476 22.339 307.476ZM24.5812 296.846C26.685 296.846 28.5951 296.348 30.3113 295.351C32.0276 294.355 33.384 292.943 34.3805 291.116C35.4324 289.234 35.9584 287.019 35.9584 284.473C35.9584 281.87 35.4324 279.656 34.3805 277.829C33.384 276.002 32.0276 274.59 30.3113 273.594C28.5951 272.597 26.685 272.099 24.5812 272.099C22.4221 272.099 20.4844 272.597 18.7681 273.594C17.0519 274.59 15.6678 276.002 14.6159 277.829C13.6193 279.656 13.1211 281.87 13.1211 284.473C13.1211 287.019 13.6193 289.234 14.6159 291.116C15.6678 292.943 17.0519 294.355 18.7681 295.351C20.4844 296.348 22.4221 296.846 24.5812 296.846ZM36.2906 306.812V297.677L36.5397 284.39L35.7092 271.185V245.192H48.6642V306.812H36.2906Z" fill="#1A1A1A"/>
<defs>
<clipPath id="clip0_1943_78">
<rect width="220.625" height="211.615" fill="white" transform="translate(16.625)"/>
</clipPath>
</defs>
</svg>
