<?xml version="1.0" encoding="UTF-8"?>
<!DOCTYPE svg PUBLIC "-//W3C//DTD SVG 1.1//EN" "http://www.w3.org/Graphics/SVG/1.1/DTD/svg11.dtd">
<svg version="1.1" xmlns="http://www.w3.org/2000/svg" xmlns:xlink="http://www.w3.org/1999/xlink" x="0" y="0" width="492.48" height="623.48" viewBox="0, 0, 123.12, 155.87">
  <g id="Background">
    <rect x="0" y="0" width="123.12" height="155.87" fill="#000000" fill-opacity="0"/>
  </g>
  <defs>
    <linearGradient id="Gradient_1" gradientUnits="userSpaceOnUse" x1="285.554" y1="1510.142" x2="330.942" y2="1447.532" gradientTransform="matrix(1, 0, 0, 1, -229.667, -1429.931)">
      <stop offset="0" stop-color="#000000" stop-opacity="0"/>
      <stop offset="1" stop-color="#000000"/>
    </linearGradient>
  </defs>
  <g id="Layer_1">
    <path d="M61.579,9.634 L61.49,9.656 L61.497,111.746 L61.587,111.772 C80.633,106.393 104.912,89.14 104.91,57.78 C104.91,46.649 104.925,36.091 104.924,22.761 C92.922,18.755 79.709,13.971 61.579,9.634 z" fill="url(#Gradient_1)"/>
    <path d="M101.948,21.962 Q99.615,21.156 97.198,20.308 C87.83,17.033 76.427,13.321 62.618,9.913 L61.487,9.634 L60.358,9.914 C46.554,13.327 35.309,16.985 26.08,20.213 L25.737,20.333 Q23.34,21.171 21.031,21.972 L18.649,22.794 C18.175,22.958 17.857,23.405 17.857,23.906 L17.857,26.426 C17.857,32.757 17.857,38.401 17.867,43.79 C17.867,48.712 17.874,53.423 17.874,58.251 C17.874,82.771 32.187,96.797 41.942,103.508 C42.302,103.755 42.769,103.782 43.156,103.579 C43.542,103.376 43.784,102.976 43.785,102.539 L43.808,93.864 C43.809,93.4 43.605,92.96 43.25,92.66 C32.986,84.206 27.118,71.547 27.297,58.251 C27.297,53.42 27.297,48.704 27.289,43.783 C27.289,39.612 27.283,35.289 27.281,30.613 C27.28,30.113 27.597,29.666 28.07,29.501 L28.847,29.228 L29.19,29.108 C37.967,26.04 48.667,22.571 61.487,19.344 C74.322,22.573 85.173,26.093 94.084,29.209 L94.906,29.497 C95.379,29.662 95.696,30.108 95.696,30.609 C95.696,35.285 95.696,39.608 95.69,43.778 C95.69,48.703 95.685,53.416 95.685,58.247 C95.868,71.339 90.179,83.826 80.18,92.279 C79.835,92.577 79.637,93.01 79.637,93.466 L79.637,102.234 C79.637,102.672 79.881,103.074 80.27,103.277 C80.659,103.48 81.128,103.45 81.488,103.199 C91.238,96.364 105.108,82.391 105.107,58.247 C105.107,53.417 105.107,48.708 105.113,43.785 C105.113,38.395 105.12,32.753 105.119,26.42 L105.119,23.901 C105.119,23.399 104.801,22.952 104.327,22.788 z" fill="#000000"/>
    <path d="M67.799,77.408 C67.761,75.379 66.633,73.528 64.847,72.565 C64.336,72.291 64.012,71.765 63.998,71.186 L63.998,71.174 C63.998,69.597 63.54,13.803 63.386,4.783 C63.357,3.782 62.532,2.989 61.53,3 C60.528,2.989 59.702,3.783 59.674,4.784 C59.521,13.801 59.067,69.596 59.067,71.174 L59.067,71.186 C59.054,71.741 58.737,72.245 58.243,72.499 C56.396,73.445 55.218,75.33 55.178,77.405 C55.206,79.281 56.178,81.017 57.763,82.021 C58.341,82.38 58.656,83.044 58.567,83.718 C57.86,88.392 57.309,89.546 57.309,90.554 C57.308,91.253 57.491,91.941 57.84,92.548 C58.15,93.081 58.162,93.738 57.871,94.282 C57.593,94.797 57.447,95.372 57.447,95.957 L57.447,108.77 C57.455,109.832 58.147,110.767 59.159,111.086 C59.926,111.335 60.725,111.58 61.175,111.718 C61.417,111.789 61.675,111.789 61.917,111.718 Q62.917,111.428 63.933,111.081 C64.929,110.753 65.605,109.824 65.61,108.775 L65.61,95.954 C65.61,95.369 65.464,94.793 65.185,94.279 C64.894,93.734 64.906,93.077 65.217,92.544 C65.565,91.937 65.748,91.249 65.747,90.549 C65.747,89.537 65.192,88.328 64.475,83.661 C64.386,82.994 64.693,82.337 65.26,81.975 C66.814,80.971 67.767,79.258 67.799,77.408 z" fill="#000000"/>
    <path d="M78.327,137.027 L78.341,152.999 L93.823,152.999 L93.811,137.014 L88.655,137.027 L88.67,148.832 L83.479,148.832 L83.479,137.016 z M120.235,152.987 L120.221,137.014 L97.727,137.014 L97.74,153 L102.895,152.987 L102.881,141.182 L106.38,141.182 L106.389,152.999 L111.251,152.988 L111.586,152.988 L111.575,141.182 L115.08,141.182 L115.08,152.998 z M3.006,152.999 L24.933,152.988 L24.92,128.492 L3.005,128.505 z M8.2,132.714 L19.729,132.714 L19.729,148.778 L8.2,148.778 z M48.67,137.055 L48.684,152.999 L64.459,152.999 L64.448,148.825 L53.815,148.839 L53.815,141.215 L64.459,141.215 L64.448,137.039 z M29.033,137.055 L29.047,152.999 L44.823,152.999 L44.812,148.825 L34.179,148.839 L34.179,141.215 L44.823,141.215 L44.812,137.039 z M68.947,131.641 L73.928,131.641 L73.928,152.999 L68.947,152.999 z" fill="#000000"/>
  </g>
</svg>
