<?xml version="1.0" encoding="UTF-8"?>
<!DOCTYPE svg PUBLIC "-//W3C//DTD SVG 1.1//EN" "http://www.w3.org/Graphics/SVG/1.1/DTD/svg11.dtd">
<svg version="1.1" xmlns="http://www.w3.org/2000/svg" xmlns:xlink="http://www.w3.org/1999/xlink" x="0" y="0" width="1097.46" height="349.71" viewBox="0, 0, 365.82, 116.57">
  <g id="Background">
    <rect x="0" y="0" width="365.82" height="116.57" fill="#000000" fill-opacity="0"/>
  </g>
  <defs>
    <linearGradient id="Gradient_1" gradientUnits="userSpaceOnUse" x1="268.534" y1="1505.908" x2="311.323" y2="1446.883" gradientTransform="matrix(1, 0, 0, 1, -225.507, -1425.901)">
      <stop offset="0" stop-color="#FFFFFF" stop-opacity="0"/>
      <stop offset="1" stop-color="#FFFFFF"/>
    </linearGradient>
  </defs>
  <g id="Layer_1">
    <path d="M48.393,13.471 L48.309,13.492 L48.316,109.736 L48.401,109.76 C66.356,104.689 89.245,88.424 89.243,58.86 C89.243,48.366 89.257,38.413 89.256,25.846 C77.941,22.07 65.485,17.56 48.393,13.471 z" fill="url(#Gradient_1)"/>
    <path d="M86.449,24.042 Q84.249,23.282 81.971,22.483 C73.139,19.395 62.389,15.896 49.371,12.683 L48.305,12.42 L47.24,12.684 C34.227,15.901 23.626,19.35 14.925,22.393 L14.602,22.506 Q12.342,23.296 10.165,24.051 L7.92,24.826 C7.473,24.981 7.173,25.402 7.173,25.875 L7.173,28.25 C7.173,34.219 7.173,39.54 7.182,44.62 C7.182,49.26 7.189,53.701 7.189,58.253 C7.189,81.369 20.682,94.592 29.879,100.918 C30.218,101.151 30.659,101.177 31.023,100.986 C31.387,100.794 31.616,100.417 31.616,100.005 L31.638,91.827 C31.639,91.39 31.446,90.974 31.112,90.692 C21.436,82.721 15.903,70.788 16.072,58.253 C16.072,53.699 16.072,49.253 16.065,44.613 C16.065,40.681 16.059,36.606 16.057,32.198 C16.057,31.726 16.355,31.305 16.801,31.149 L17.534,30.892 L17.857,30.779 C26.131,27.886 36.219,24.616 48.305,21.574 C60.405,24.618 70.634,27.936 79.035,30.874 L79.81,31.145 C80.256,31.301 80.555,31.722 80.555,32.194 C80.555,36.602 80.555,40.677 80.549,44.609 C80.549,49.252 80.544,53.695 80.544,58.249 C80.717,70.592 75.354,82.363 65.927,90.332 C65.602,90.613 65.415,91.021 65.415,91.451 L65.415,99.717 C65.415,100.13 65.645,100.51 66.012,100.701 C66.378,100.892 66.821,100.864 67.16,100.627 C76.352,94.183 89.428,81.011 89.427,58.249 C89.427,53.696 89.427,49.256 89.432,44.615 C89.432,39.534 89.439,34.215 89.438,28.245 L89.438,25.87 C89.438,25.397 89.138,24.975 88.691,24.821 z" fill="#FFFFFF"/>
    <path d="M54.257,77.364 C54.221,75.451 53.158,73.706 51.474,72.798 C50.993,72.54 50.687,72.044 50.674,71.498 L50.674,71.487 C50.674,70 50.242,17.401 50.097,8.898 C50.07,7.954 49.291,7.206 48.347,7.217 C47.402,7.206 46.624,7.955 46.597,8.899 C46.453,17.399 46.025,69.999 46.025,71.487 L46.025,71.498 C46.012,72.022 45.714,72.497 45.248,72.736 C43.507,73.628 42.397,75.405 42.359,77.361 C42.385,79.13 43.302,80.766 44.796,81.713 C45.341,82.051 45.637,82.677 45.554,83.313 C44.887,87.719 44.368,88.807 44.368,89.757 C44.367,90.417 44.54,91.065 44.868,91.637 C45.161,92.14 45.172,92.759 44.898,93.272 C44.636,93.757 44.498,94.3 44.498,94.851 L44.498,106.93 C44.505,107.931 45.157,108.813 46.112,109.114 C46.835,109.348 47.588,109.579 48.012,109.709 C48.241,109.776 48.483,109.776 48.712,109.709 Q49.655,109.436 50.612,109.109 C51.552,108.8 52.188,107.924 52.193,106.935 L52.193,94.848 C52.193,94.297 52.056,93.754 51.793,93.269 C51.519,92.755 51.53,92.136 51.823,91.633 C52.151,91.061 52.323,90.413 52.323,89.753 C52.323,88.799 51.799,87.659 51.123,83.259 C51.04,82.631 51.328,82.011 51.863,81.67 C53.329,80.723 54.226,79.109 54.257,77.364 z" fill="#FFFFFF"/>
    <path d="M276.054,57.726 L276.082,89.295 L306.682,89.295 L306.657,57.701 L296.468,57.726 L296.496,81.059 L286.238,81.059 L286.238,57.705 z M358.883,89.271 L358.855,57.702 L314.397,57.702 L314.422,89.296 L324.611,89.271 L324.583,65.938 L331.499,65.938 L331.517,89.295 L341.126,89.272 L341.788,89.272 L341.767,65.939 L348.694,65.939 L348.694,89.293 z M127.19,89.295 L170.526,89.273 L170.501,40.858 L127.187,40.883 z M137.455,49.203 L160.241,49.203 L160.241,80.952 L137.455,80.952 z M217.44,57.783 L217.468,89.295 L248.647,89.295 L248.625,81.045 L227.61,81.073 L227.61,66.004 L248.647,66.004 L248.625,57.751 z M178.63,57.783 L178.658,89.295 L209.837,89.295 L209.815,81.045 L188.8,81.073 L188.8,66.004 L209.837,66.004 L209.815,57.751 z M257.516,47.081 L267.361,47.081 L267.361,89.295 L257.516,89.295 z" fill="#FFFFFF"/>
  </g>
</svg>
