<?xml version="1.0" encoding="UTF-8"?>
<!DOCTYPE svg PUBLIC "-//W3C//DTD SVG 1.1//EN" "http://www.w3.org/Graphics/SVG/1.1/DTD/svg11.dtd">
<svg version="1.1" xmlns="http://www.w3.org/2000/svg" xmlns:xlink="http://www.w3.org/1999/xlink" x="0" y="0" width="492.48" height="623.48" viewBox="0, 0, 492.48, 623.48">
  <g id="Background">
    <rect x="0" y="0" width="492.48" height="623.48" fill="#FFFFFF"/>
  </g>
  <defs>
    <linearGradient id="Gradient_1" gradientUnits="userSpaceOnUse" x1="285.554" y1="1510.142" x2="330.942" y2="1447.532" gradientTransform="matrix(4, 0, 0, 4, -918.668, -5719.724)">
      <stop offset="0" stop-color="#FFFFFF" stop-opacity="0"/>
      <stop offset="1" stop-color="#FFFFFF"/>
    </linearGradient>
  </defs>
  <g id="Background">
    <path d="M-0,-0 L492.48,-0 L492.48,623.48 L-0,623.48 z" fill="#000000"/>
  </g>
  <g id="Layer_1">
    <path d="M246.316,38.536 L245.96,38.624 L245.988,446.984 L246.348,447.088 C322.532,425.572 419.648,356.56 419.64,231.12 C419.64,186.596 419.7,144.364 419.696,91.044 C371.688,75.02 318.836,55.884 246.316,38.536 z" fill="url(#Gradient_1)"/>
    <path d="M407.784,83.388 Q398.452,80.164 388.784,76.772 C351.312,63.672 305.7,48.824 250.464,35.192 L245.94,34.076 L241.424,35.196 C186.208,48.848 141.228,63.48 104.312,76.392 L102.94,76.872 Q93.352,80.224 84.116,83.428 L74.588,86.716 C72.692,87.372 71.42,89.16 71.42,91.164 L71.42,101.244 C71.42,126.568 71.42,149.144 71.46,170.7 C71.46,190.388 71.488,209.232 71.488,228.544 C71.488,326.624 128.74,382.728 167.76,409.572 C169.2,410.56 171.068,410.668 172.616,409.856 C174.16,409.044 175.128,407.444 175.132,405.696 L175.224,370.996 C175.228,369.14 174.412,367.38 172.992,366.18 C131.936,332.364 108.464,281.728 109.18,228.544 C109.18,209.22 109.18,190.356 109.148,170.672 C109.148,153.988 109.124,136.696 109.116,117.992 C109.112,115.992 110.38,114.204 112.272,113.544 L115.38,112.452 L116.752,111.972 C151.86,99.7 194.66,85.824 245.94,72.916 C297.28,85.832 340.684,99.912 376.328,112.376 L379.616,113.528 C381.508,114.188 382.776,115.972 382.776,117.976 C382.776,136.68 382.776,153.972 382.752,170.652 C382.752,190.352 382.732,209.204 382.732,228.528 C383.464,280.896 360.708,330.844 320.712,364.656 C319.332,365.848 318.54,367.58 318.54,369.404 L318.54,404.476 C318.54,406.228 319.516,407.836 321.072,408.648 C322.628,409.46 324.504,409.34 325.944,408.336 C364.944,380.996 420.424,325.104 420.42,228.528 C420.42,209.208 420.42,190.372 420.444,170.68 C420.444,149.12 420.472,126.552 420.468,101.22 L420.468,91.144 C420.468,89.136 419.196,87.348 417.3,86.692 z" fill="#FFFFFF"/>
    <path d="M271.196,309.632 C271.044,301.516 266.532,294.112 259.388,290.26 C257.344,289.164 256.048,287.06 255.992,284.744 L255.992,284.696 C255.992,278.388 254.16,55.212 253.544,19.132 C253.428,15.128 250.128,11.956 246.12,12 C242.112,11.956 238.808,15.132 238.696,19.136 C238.084,55.204 236.268,278.384 236.268,284.696 L236.268,284.744 C236.216,286.964 234.948,288.98 232.972,289.996 C225.584,293.78 220.872,301.32 220.712,309.62 C220.824,317.124 224.712,324.068 231.052,328.084 C233.364,329.52 234.624,332.176 234.268,334.872 C231.44,353.568 229.236,358.184 229.236,362.216 C229.232,365.012 229.964,367.764 231.36,370.192 C232.6,372.324 232.648,374.952 231.484,377.128 C230.372,379.188 229.788,381.488 229.788,383.828 L229.788,435.08 C229.82,439.328 232.588,443.068 236.636,444.344 C239.704,445.34 242.9,446.32 244.7,446.872 C245.668,447.156 246.7,447.156 247.668,446.872 Q251.668,445.712 255.732,444.324 C259.716,443.012 262.42,439.296 262.44,435.1 L262.44,383.816 C262.44,381.476 261.856,379.172 260.74,377.116 C259.576,374.936 259.624,372.308 260.868,370.176 C262.26,367.748 262.992,364.996 262.988,362.196 C262.988,358.148 260.768,353.312 257.9,334.644 C257.544,331.976 258.772,329.348 261.04,327.9 C267.256,323.884 271.068,317.032 271.196,309.632 z" fill="#FFFFFF"/>
    <path d="M313.308,548.108 L313.364,611.996 L375.292,611.996 L375.244,548.056 L354.62,548.108 L354.68,595.328 L333.916,595.328 L333.916,548.064 z M480.94,611.948 L480.884,548.056 L390.908,548.056 L390.96,612 L411.58,611.948 L411.524,564.728 L425.52,564.728 L425.556,611.996 L445.004,611.952 L446.344,611.952 L446.3,564.728 L460.32,564.728 L460.32,611.992 z M12.024,611.996 L99.732,611.952 L99.68,513.968 L12.02,514.02 z M32.8,530.856 L78.916,530.856 L78.916,595.112 L32.8,595.112 z M194.68,548.22 L194.736,611.996 L257.836,611.996 L257.792,595.3 L215.26,595.356 L215.26,564.86 L257.836,564.86 L257.792,548.156 z M116.132,548.22 L116.188,611.996 L179.292,611.996 L179.248,595.3 L136.716,595.356 L136.716,564.86 L179.292,564.86 L179.248,548.156 z M275.788,526.564 L295.712,526.564 L295.712,611.996 L275.788,611.996 z" fill="#FFFFFF"/>
  </g>
</svg>
