<?xml version="1.0" encoding="UTF-8"?>
<!DOCTYPE svg PUBLIC "-//W3C//DTD SVG 1.1//EN" "http://www.w3.org/Graphics/SVG/1.1/DTD/svg11.dtd">
<svg version="1.1" xmlns="http://www.w3.org/2000/svg" xmlns:xlink="http://www.w3.org/1999/xlink" x="0" y="0" width="1097.46" height="349.71" viewBox="0, 0, 1097.46, 349.71">
  <g id="Background">
    <rect x="0" y="0" width="1097.46" height="349.71" fill="#000000" fill-opacity="0"/>
  </g>
  <defs>
    <linearGradient id="Gradient_1" gradientUnits="userSpaceOnUse" x1="268.534" y1="1505.908" x2="311.323" y2="1446.883" gradientTransform="matrix(3, 0, 0, 3, -676.521, -4277.703)">
      <stop offset="0" stop-color="#FFFFFF" stop-opacity="0"/>
      <stop offset="1" stop-color="#FFFFFF"/>
    </linearGradient>
  </defs>
  <g id="Background">
    <path d="M0,0 L1097.46,0 L1097.46,349.71 L0,349.71 z" fill="#000000"/>
  </g>
  <g id="Layer_1">
    <path d="M145.179,40.413 L144.927,40.476 L144.948,329.208 L145.203,329.28 C199.068,314.067 267.735,265.272 267.729,176.58 C267.729,145.098 267.771,115.239 267.768,77.538 C233.823,66.21 196.455,52.68 145.179,40.413 z" fill="url(#Gradient_1)"/>
    <path d="M259.347,72.126 Q252.747,69.846 245.913,67.449 C219.417,58.185 187.167,47.688 148.113,38.049 L144.915,37.26 L141.72,38.052 C102.681,47.703 70.878,58.05 44.775,67.179 L43.806,67.518 Q37.026,69.888 30.495,72.153 L23.76,74.478 C22.419,74.943 21.519,76.206 21.519,77.625 L21.519,84.75 C21.519,102.657 21.519,118.62 21.546,133.86 C21.546,147.78 21.567,161.103 21.567,174.759 C21.567,244.107 62.046,283.776 89.637,302.754 C90.654,303.453 91.977,303.531 93.069,302.958 C94.161,302.382 94.848,301.251 94.848,300.015 L94.914,275.481 C94.917,274.17 94.338,272.922 93.336,272.076 C64.308,248.163 47.709,212.364 48.216,174.759 C48.216,161.097 48.216,147.759 48.195,133.839 C48.195,122.043 48.177,109.818 48.171,96.594 C48.171,95.178 49.065,93.915 50.403,93.447 L52.602,92.676 L53.571,92.337 C78.393,83.658 108.657,73.848 144.915,64.722 C181.215,73.854 211.902,83.808 237.105,92.622 L239.43,93.435 C240.768,93.903 241.665,95.166 241.665,96.582 C241.665,109.806 241.665,122.031 241.647,133.827 C241.647,147.756 241.632,161.085 241.632,174.747 C242.151,211.776 226.062,247.089 197.781,270.996 C196.806,271.839 196.245,273.063 196.245,274.353 L196.245,299.151 C196.245,300.39 196.935,301.53 198.036,302.103 C199.134,302.676 200.463,302.592 201.48,301.881 C229.056,282.549 268.284,243.033 268.281,174.747 C268.281,161.088 268.281,147.768 268.296,133.845 C268.296,118.602 268.317,102.645 268.314,84.735 L268.314,77.61 C268.314,76.191 267.414,74.925 266.073,74.463 z" fill="#FFFFFF"/>
    <path d="M162.771,232.092 C162.663,226.353 159.474,221.118 154.422,218.394 C152.979,217.62 152.061,216.132 152.022,214.494 L152.022,214.461 C152.022,210 150.726,52.203 150.291,26.694 C150.21,23.862 147.873,21.618 145.041,21.651 C142.206,21.618 139.872,23.865 139.791,26.697 C139.359,52.197 138.075,209.997 138.075,214.461 L138.075,214.494 C138.036,216.066 137.142,217.491 135.744,218.208 C130.521,220.884 127.191,226.215 127.077,232.083 C127.155,237.39 129.906,242.298 134.388,245.139 C136.023,246.153 136.911,248.031 136.662,249.939 C134.661,263.157 133.104,266.421 133.104,269.271 C133.101,271.251 133.62,273.195 134.604,274.911 C135.483,276.42 135.516,278.277 134.694,279.816 C133.908,281.271 133.494,282.9 133.494,284.553 L133.494,320.79 C133.515,323.793 135.471,326.439 138.336,327.342 C140.505,328.044 142.764,328.737 144.036,329.127 C144.723,329.328 145.449,329.328 146.136,329.127 Q148.965,328.308 151.836,327.327 C154.656,326.4 156.564,323.772 156.579,320.805 L156.579,284.544 C156.579,282.891 156.168,281.262 155.379,279.807 C154.557,278.265 154.59,276.408 155.469,274.899 C156.453,273.183 156.969,271.239 156.969,269.259 C156.969,266.397 155.397,262.977 153.369,249.777 C153.12,247.893 153.984,246.033 155.589,245.01 C159.987,242.169 162.678,237.327 162.771,232.092 z" fill="#FFFFFF"/>
    <path d="M828.162,173.178 L828.246,267.885 L920.046,267.885 L919.971,173.103 L889.404,173.178 L889.488,243.177 L858.714,243.177 L858.714,173.115 z M1076.649,267.813 L1076.565,173.106 L943.191,173.106 L943.266,267.888 L973.833,267.813 L973.749,197.814 L994.497,197.814 L994.551,267.885 L1023.378,267.816 L1025.364,267.816 L1025.301,197.817 L1046.082,197.817 L1046.082,267.879 z M381.57,267.885 L511.578,267.819 L511.503,122.574 L381.561,122.649 z M412.365,147.609 L480.723,147.609 L480.723,242.856 L412.365,242.856 z M652.32,173.349 L652.404,267.885 L745.941,267.885 L745.875,243.135 L682.83,243.219 L682.83,198.012 L745.941,198.012 L745.875,173.253 z M535.89,173.349 L535.974,267.885 L629.511,267.885 L629.445,243.135 L566.4,243.219 L566.4,198.012 L629.511,198.012 L629.445,173.253 z M772.548,141.243 L802.083,141.243 L802.083,267.885 L772.548,267.885 z" fill="#FFFFFF"/>
  </g>
</svg>
