<svg xmlns="http://www.w3.org/2000/svg" role="img" viewBox="-2.62 -3.00 123.12 155.87"><path fill-opacity="0" d="M0 0h118v150H0z"/><defs><linearGradient id="a" x1="285.554" x2="330.942" y1="1510.142" y2="1447.532" gradientTransform="translate(-232.287 -1432.931)" gradientUnits="userSpaceOnUse"><stop offset="0" stop-color="#0074E5" stop-opacity="0"/><stop offset="1" stop-color="#0074E5"/></linearGradient></defs><path fill="url(#a)" d="M58.959 6.634l-.089.022.007 102.09.09.026c19.046-5.379 43.325-22.632 43.323-53.992 0-11.131.015-21.689.014-35.019-12.002-4.006-25.215-8.79-43.345-13.127z"/><path d="M99.326 17.847q-2.333-.806-4.75-1.654c-9.368-3.275-20.771-6.987-34.58-10.395l-1.131-.279-1.129.28C43.932 9.212 32.687 12.87 23.458 16.098l-.343.12q-2.397.838-4.706 1.639l-2.382.822c-.474.164-.792.611-.792 1.112v2.52c0 6.331 0 11.975.01 17.364 0 4.922.007 9.633.007 14.461 0 24.52 14.313 38.546 24.068 45.257.36.247.827.274 1.214.071.386-.203.628-.603.629-1.04l.023-8.675c.001-.464-.203-.904-.558-1.204-10.264-8.454-16.132-21.113-15.953-34.409 0-4.831 0-9.547-.008-14.468 0-4.171-.006-8.494-.008-13.17-.001-.5.316-.947.789-1.112l.777-.273.343-.12c8.777-3.068 19.477-6.537 32.297-9.764 12.835 3.229 23.686 6.749 32.597 9.865l.822.288c.473.165.79.611.79 1.112 0 4.676 0 8.999-.006 13.169 0 4.925-.005 9.638-.005 14.469.183 13.092-5.506 25.579-15.505 34.032-.345.298-.543.731-.543 1.187v8.768c0 .438.244.84.633 1.043.389.203.858.173 1.218-.078 9.75-6.835 23.62-20.808 23.619-44.952 0-4.83 0-9.539.006-14.462 0-5.39.007-11.032.006-17.365v-2.519c0-.502-.318-.949-.792-1.113z"/><path d="M65.179 74.408c-.038-2.029-1.166-3.88-2.952-4.843-.511-.274-.835-.8-.849-1.379v-.012c0-1.577-.458-57.371-.612-66.391C60.737.782 59.912-.011 58.91 0c-1.002-.011-1.828.783-1.856 1.784-.153 9.017-.607 64.812-.607 66.39v.012c-.013.555-.33 1.059-.824 1.313-1.847.946-3.025 2.831-3.065 4.906.028 1.876 1 3.612 2.585 4.616.578.359.893 1.023.804 1.697-.707 4.674-1.258 5.828-1.258 6.836-.001.699.182 1.387.531 1.994.31.533.322 1.19.031 1.734-.278.515-.424 1.09-.424 1.675v12.813c.008 1.062.7 1.997 1.712 2.316.767.249 1.566.494 2.016.632.242.071.5.071.742 0q1-.29 2.016-.637c.996-.328 1.672-1.257 1.677-2.306V92.954c0-.585-.146-1.161-.425-1.675-.291-.545-.279-1.202.032-1.735.348-.607.531-1.295.53-1.995 0-1.012-.555-2.221-1.272-6.888-.089-.667.218-1.324.785-1.686 1.554-1.004 2.507-2.717 2.539-4.567z"/><path d="M75.707 134.027l.014 15.972h15.482l-.012-15.985-5.156.013.015 11.805h-5.191v-11.816zm41.908 15.96l-.014-15.973H95.107L95.12 150l5.155-.013-.014-11.805h3.499l.009 11.817 4.862-.011h.335l-.011-11.806h3.505v11.816zm-117.229.012l21.927-.011-.013-24.496-21.915.013zm5.194-20.285h11.529v16.064H5.58zm40.47 4.341l.014 15.944h15.775l-.011-4.174-10.633.014v-7.624h10.644l-.011-4.176zm-19.637 0l.014 15.944h15.776l-.011-4.174-10.633.014v-7.624h10.644l-.011-4.176zm39.914-5.414h4.981v21.358h-4.981z"/></svg>