<?xml version="1.0" encoding="UTF-8"?>
<!DOCTYPE svg PUBLIC "-//W3C//DTD SVG 1.1//EN" "http://www.w3.org/Graphics/SVG/1.1/DTD/svg11.dtd">
<svg version="1.1" xmlns="http://www.w3.org/2000/svg" xmlns:xlink="http://www.w3.org/1999/xlink" x="0" y="0" width="481.86" height="594.36" viewBox="0, 0, 481.86, 594.36">
  <g id="Background">
    <rect x="0" y="0" width="481.86" height="594.36" fill="#000000" fill-opacity="0"/>
  </g>
  <defs>
    <linearGradient id="Gradient_1" gradientUnits="userSpaceOnUse" x1="263.992" y1="1563.114" x2="343.572" y2="1453.34" gradientTransform="matrix(3, 0, 0, 3, -579.765, -4271.814)">
      <stop offset="0" stop-color="#0074E5" stop-opacity="0"/>
      <stop offset="1" stop-color="#0074E5"/>
    </linearGradient>
  </defs>
  <g id="Background"/>
  <g id="Layer_1">
    <path d="M242.154,46.302 L241.683,46.416 L241.722,583.398 L242.196,583.533 C342.375,555.24 470.079,464.493 470.07,299.556 C470.07,241.008 470.151,185.475 470.142,115.356 C407.007,94.278 337.512,69.114 242.154,46.302 z" fill="url(#Gradient_1)"/>
    <path d="M454.476,105.282 Q442.197,101.043 429.489,96.582 C380.211,79.356 320.235,59.832 247.623,41.886 L241.674,40.416 L235.728,41.889 C163.128,59.838 103.977,79.089 55.428,96.063 L53.628,96.693 Q41.028,101.103 28.875,105.312 L16.347,109.635 C13.851,110.499 12.177,112.848 12.177,115.488 L12.177,128.739 C12.177,162.039 12.204,191.739 12.225,220.074 C12.243,245.964 12.267,270.735 12.267,296.136 C12.267,425.106 87.552,498.885 138.867,534.177 C140.76,535.476 143.217,535.62 145.251,534.549 C147.282,533.481 148.557,531.375 148.557,529.077 L148.683,483.447 C148.689,481.008 147.615,478.689 145.752,477.114 C106.254,443.652 61.845,386.028 61.839,296.124 C61.839,270.711 61.815,245.928 61.797,220.023 C61.782,198.087 61.764,175.35 61.755,150.753 C61.752,148.116 63.42,145.77 65.907,144.9 L69.999,143.469 L71.799,142.839 C117.966,126.696 174.246,108.456 241.683,91.479 C309.183,108.462 366.261,126.975 413.139,143.361 L417.462,144.876 C419.949,145.746 421.617,148.092 421.617,150.729 C421.617,175.329 421.599,198.06 421.584,219.996 C421.569,245.901 421.554,270.696 421.554,296.1 C421.554,384.222 378.912,441.336 340.002,475.101 C338.19,476.67 337.146,478.947 337.146,481.344 L337.146,527.466 C337.143,529.773 338.427,531.891 340.473,532.959 C342.519,534.027 344.988,533.868 346.881,532.545 C398.181,496.59 471.123,423.099 471.114,296.103 C471.114,270.699 471.129,245.925 471.144,220.032 C471.162,191.685 471.183,162 471.177,128.7 L471.177,115.446 C471.177,112.806 469.503,110.454 467.007,109.593 z" fill="#FFFFFF"/>
    <path d="M274.857,402.786 C274.665,392.112 268.728,382.371 259.329,377.31 C256.65,375.876 254.946,373.113 254.865,370.074 L254.865,370.014 C254.865,361.719 252.465,68.25 251.649,20.814 C251.496,15.549 247.155,11.376 241.887,11.436 C236.619,11.376 232.275,15.552 232.125,20.817 C231.324,68.256 228.933,361.725 228.933,370.017 L228.933,370.077 C228.861,372.999 227.196,375.645 224.595,376.977 C214.881,381.954 208.689,391.866 208.479,402.777 C208.623,412.647 213.735,421.776 222.072,427.059 C225.111,428.946 226.764,432.438 226.302,435.984 C222.582,460.563 219.684,466.638 219.684,471.936 C219.678,475.62 220.641,479.241 222.477,482.436 C224.112,485.241 224.175,488.694 222.645,491.559 C221.184,494.265 220.419,497.295 220.422,500.37 L220.422,567.738 C220.461,573.321 224.097,578.244 229.422,579.924 C233.457,581.232 237.657,582.522 240.03,583.245 C241.305,583.626 242.664,583.632 243.945,583.263 Q249.204,581.742 254.574,579.936 C259.815,578.208 263.367,573.324 263.397,567.807 L263.397,500.37 C263.4,497.295 262.638,494.265 261.174,491.559 C259.644,488.694 259.707,485.241 261.342,482.433 C263.172,479.238 264.135,475.617 264.129,471.933 C264.129,466.611 261.204,460.233 257.46,435.699 C256.998,432.192 258.606,428.736 261.588,426.834 C269.739,421.527 274.713,412.512 274.857,402.786 z" fill="#FFFFFF"/>
  </g>
</svg>
