<svg xmlns="http://www.w3.org/2000/svg" role="img" viewBox="-6.78 -7.03 365.82 116.57"><path fill-opacity="0" d="M0 0h352v103H0z"/><defs><linearGradient id="a" x1="268.534" x2="311.323" y1="1505.908" y2="1446.883" gradientTransform="translate(-232.287 -1432.931)" gradientUnits="userSpaceOnUse"><stop offset="0" stop-color="#0074E5" stop-opacity="0"/><stop offset="1" stop-color="#0074E5"/></linearGradient></defs><path fill="url(#a)" d="M41.613 6.441l-.084.021.007 96.244.085.024c17.955-5.071 40.844-21.336 40.842-50.9 0-10.494.014-20.447.013-33.014C71.161 15.04 58.705 10.53 41.613 6.441z"/><path d="M79.669 17.012q-2.2-.76-4.478-1.559c-8.832-3.088-19.582-6.587-32.6-9.8l-1.066-.263-1.065.264C27.447 8.871 16.846 12.32 8.145 15.363l-.323.113q-2.26.79-4.437 1.545l-2.245.775c-.447.155-.747.576-.747 1.049v2.375c0 5.969 0 11.29.009 16.37 0 4.64.007 9.081.007 13.633 0 23.116 13.493 36.339 22.69 42.665.339.233.78.259 1.144.068.364-.192.593-.569.593-.981l.022-8.178c.001-.437-.192-.853-.526-1.135-9.676-7.971-15.209-19.904-15.04-32.439 0-4.554 0-9-.007-13.64 0-3.932-.006-8.007-.008-12.415 0-.472.298-.893.744-1.049l.733-.257.323-.113c8.274-2.893 18.362-6.163 30.448-9.205 12.1 3.044 22.329 6.362 30.73 9.3l.775.271c.446.156.745.577.745 1.049 0 4.408 0 8.483-.006 12.415 0 4.643-.005 9.086-.005 13.64.173 12.343-5.19 24.114-14.617 32.083-.325.281-.512.689-.512 1.119v8.266c0 .413.23.793.597.984.366.191.809.163 1.148-.074 9.192-6.444 22.268-19.616 22.267-42.378 0-4.553 0-8.993.005-13.634 0-5.081.007-10.4.006-16.37V18.84c0-.473-.3-.895-.747-1.049z"/><path d="M47.477 70.334c-.036-1.913-1.099-3.658-2.783-4.566-.481-.258-.787-.754-.8-1.3v-.011c0-1.487-.432-54.086-.577-62.589-.027-.944-.806-1.692-1.75-1.681-.945-.011-1.723.738-1.75 1.682-.144 8.5-.572 61.1-.572 62.588v.011c-.013.524-.311.999-.777 1.238-1.741.892-2.851 2.669-2.889 4.625.026 1.769.943 3.405 2.437 4.352.545.338.841.964.758 1.6-.667 4.406-1.186 5.494-1.186 6.444-.001.66.172 1.308.5 1.88.293.503.304 1.122.03 1.635-.262.485-.4 1.028-.4 1.579V99.9c.007 1.001.659 1.883 1.614 2.184.723.234 1.476.465 1.9.595.229.067.471.067.7 0q.943-.273 1.9-.6c.94-.309 1.576-1.185 1.581-2.174V87.818c0-.551-.137-1.094-.4-1.579-.274-.514-.263-1.133.03-1.636.328-.572.5-1.22.5-1.88 0-.954-.524-2.094-1.2-6.494-.083-.628.205-1.248.74-1.589 1.466-.947 2.363-2.561 2.394-4.306z"/><path d="M269.274 50.696l.028 31.569h30.6l-.025-31.594-10.189.025.028 23.333h-10.258V50.675zm82.829 31.545l-.028-31.569h-44.458l.025 31.594 10.189-.025-.028-23.333h6.916l.018 23.357 9.609-.023h.662l-.021-23.333h6.927v23.354zm-231.693.024l43.336-.022-.025-48.415-43.314.025zm10.265-40.092h22.786v31.749h-22.786zm79.985 8.58l.028 31.512h31.179l-.022-8.25-21.015.028V58.974h21.037l-.022-8.253zm-38.81 0l.028 31.512h31.179l-.022-8.25-21.015.028V58.974h21.037l-.022-8.253zm78.886-10.702h9.845v42.214h-9.845z"/></svg>