<?xml version="1.0" encoding="UTF-8"?>
<!DOCTYPE svg PUBLIC "-//W3C//DTD SVG 1.1//EN" "http://www.w3.org/Graphics/SVG/1.1/DTD/svg11.dtd">
<svg version="1.1" xmlns="http://www.w3.org/2000/svg" xmlns:xlink="http://www.w3.org/1999/xlink" x="0" y="0" width="1097.46" height="349.71" viewBox="0, 0, 365.82, 116.57">
  <g id="Background">
    <rect x="0" y="0" width="365.82" height="116.57" fill="#000000" fill-opacity="0"/>
  </g>
  <defs>
    <linearGradient id="Gradient_1" gradientUnits="userSpaceOnUse" x1="268.534" y1="1505.908" x2="311.323" y2="1446.883" gradientTransform="matrix(1, 0, 0, 1, -225.507, -1425.901)">
      <stop offset="0" stop-color="#0074E5" stop-opacity="0"/>
      <stop offset="1" stop-color="#0074E5"/>
    </linearGradient>
  </defs>
  <g id="Layer_1">
    <path d="M48.393,13.471 L48.309,13.492 L48.316,109.736 L48.401,109.76 C66.356,104.689 89.245,88.424 89.243,58.86 C89.243,48.366 89.257,38.413 89.256,25.846 C77.941,22.07 65.485,17.56 48.393,13.471 z" fill="url(#Gradient_1)"/>
    <path d="M86.451,25.093 Q84.251,24.333 81.973,23.534 C73.141,20.446 62.391,16.947 49.373,13.734 L48.307,13.471 L47.242,13.735 C34.229,16.952 23.628,20.401 14.927,23.444 L14.604,23.557 Q12.344,24.347 10.167,25.102 L7.922,25.877 C7.475,26.032 7.175,26.453 7.175,26.926 L7.175,29.301 C7.175,35.27 7.175,40.591 7.184,45.671 C7.184,50.311 7.191,54.752 7.191,59.304 C7.191,82.42 20.684,95.643 29.881,101.969 C30.22,102.202 30.661,102.228 31.025,102.037 C31.389,101.845 31.618,101.468 31.618,101.056 L31.64,92.878 C31.641,92.441 31.448,92.025 31.114,91.743 C21.438,83.772 15.905,71.839 16.074,59.304 C16.074,54.75 16.074,50.304 16.067,45.664 C16.067,41.732 16.061,37.657 16.059,33.249 C16.059,32.777 16.357,32.356 16.803,32.2 L17.536,31.943 L17.859,31.83 C26.133,28.937 36.221,25.667 48.307,22.625 C60.407,25.669 70.636,28.987 79.037,31.925 L79.812,32.196 C80.258,32.352 80.557,32.773 80.557,33.245 C80.557,37.653 80.557,41.728 80.551,45.66 C80.551,50.303 80.546,54.746 80.546,59.3 C80.719,71.643 75.356,83.414 65.929,91.383 C65.604,91.664 65.417,92.072 65.417,92.502 L65.417,100.768 C65.417,101.181 65.647,101.561 66.014,101.752 C66.38,101.943 66.823,101.915 67.162,101.678 C76.354,95.234 89.43,82.062 89.429,59.3 C89.429,54.747 89.429,50.307 89.434,45.666 C89.434,40.585 89.441,35.266 89.44,29.296 L89.44,26.921 C89.44,26.448 89.14,26.026 88.693,25.872 z" fill="#FFFFFF"/>
    <path d="M54.257,77.364 C54.221,75.451 53.158,73.706 51.474,72.798 C50.993,72.54 50.687,72.044 50.674,71.498 L50.674,71.487 C50.674,70 50.242,17.401 50.097,8.898 C50.07,7.954 49.291,7.206 48.347,7.217 C47.402,7.206 46.624,7.955 46.597,8.899 C46.453,17.399 46.025,69.999 46.025,71.487 L46.025,71.498 C46.012,72.022 45.714,72.497 45.248,72.736 C43.507,73.628 42.397,75.405 42.359,77.361 C42.385,79.13 43.302,80.766 44.796,81.713 C45.341,82.051 45.637,82.677 45.554,83.313 C44.887,87.719 44.368,88.807 44.368,89.757 C44.367,90.417 44.54,91.065 44.868,91.637 C45.161,92.14 45.172,92.759 44.898,93.272 C44.636,93.757 44.498,94.3 44.498,94.851 L44.498,106.93 C44.505,107.931 45.157,108.813 46.112,109.114 C46.835,109.348 47.588,109.579 48.012,109.709 C48.241,109.776 48.483,109.776 48.712,109.709 Q49.655,109.436 50.612,109.109 C51.552,108.8 52.188,107.924 52.193,106.935 L52.193,94.848 C52.193,94.297 52.056,93.754 51.793,93.269 C51.519,92.755 51.53,92.136 51.823,91.633 C52.151,91.061 52.323,90.413 52.323,89.753 C52.323,88.799 51.799,87.659 51.123,83.259 C51.04,82.631 51.328,82.011 51.863,81.67 C53.329,80.723 54.226,79.109 54.257,77.364 z" fill="#FFFFFF"/>
    <path d="M276.054,57.726 L276.082,89.295 L306.682,89.295 L306.657,57.701 L296.468,57.726 L296.496,81.059 L286.238,81.059 L286.238,57.705 z M358.883,89.271 L358.855,57.702 L314.397,57.702 L314.422,89.296 L324.611,89.271 L324.583,65.938 L331.499,65.938 L331.517,89.295 L341.126,89.272 L341.788,89.272 L341.767,65.939 L348.694,65.939 L348.694,89.293 z M127.19,89.295 L170.526,89.273 L170.501,40.858 L127.187,40.883 z M137.455,49.203 L160.241,49.203 L160.241,80.952 L137.455,80.952 z M217.44,57.783 L217.468,89.295 L248.647,89.295 L248.625,81.045 L227.61,81.073 L227.61,66.004 L248.647,66.004 L248.625,57.751 z M178.63,57.783 L178.658,89.295 L209.837,89.295 L209.815,81.045 L188.8,81.073 L188.8,66.004 L209.837,66.004 L209.815,57.751 z M257.516,47.081 L267.361,47.081 L267.361,89.295 L257.516,89.295 z" fill="#FFFFFF"/>
  </g>
</svg>
