<?xml version="1.0" encoding="UTF-8"?>
<!DOCTYPE svg PUBLIC "-//W3C//DTD SVG 1.1//EN" "http://www.w3.org/Graphics/SVG/1.1/DTD/svg11.dtd">
<svg version="1.1" xmlns="http://www.w3.org/2000/svg" xmlns:xlink="http://www.w3.org/1999/xlink" x="0" y="0" width="369.36" height="467.61" viewBox="0, 0, 123.12, 155.87">
  <g id="Background">
    <rect x="0" y="0" width="123.12" height="155.87" fill="#000000" fill-opacity="0"/>
  </g>
  <defs>
    <linearGradient id="Gradient_1" gradientUnits="userSpaceOnUse" x1="285.554" y1="1510.142" x2="330.942" y2="1447.532" gradientTransform="matrix(1, 0, 0, 1, -229.667, -1429.931)">
      <stop offset="0" stop-color="#0074E5" stop-opacity="0"/>
      <stop offset="1" stop-color="#0074E5"/>
    </linearGradient>
  </defs>
  <g id="Layer_1">
    <path d="M61.579,9.634 L61.49,9.656 L61.497,111.746 L61.587,111.772 C80.633,106.393 104.912,89.14 104.91,57.78 C104.91,46.649 104.925,36.091 104.924,22.761 C92.922,18.755 79.709,13.971 61.579,9.634 z" fill="url(#Gradient_1)"/>
    <path d="M101.946,20.847 Q99.613,20.041 97.196,19.193 C87.828,15.918 76.425,12.206 62.616,8.798 L61.485,8.519 L60.356,8.799 C46.552,12.212 35.307,15.87 26.078,19.098 L25.735,19.218 Q23.338,20.056 21.029,20.857 L18.647,21.679 C18.173,21.843 17.855,22.29 17.855,22.791 L17.855,25.311 C17.855,31.642 17.855,37.286 17.865,42.675 C17.865,47.597 17.872,52.308 17.872,57.136 C17.872,81.656 32.185,95.682 41.94,102.393 C42.3,102.64 42.767,102.667 43.154,102.464 C43.54,102.261 43.782,101.861 43.783,101.424 L43.806,92.749 C43.807,92.285 43.603,91.845 43.248,91.545 C32.984,83.091 27.116,70.432 27.295,57.136 C27.295,52.305 27.295,47.589 27.287,42.668 C27.287,38.497 27.281,34.174 27.279,29.498 C27.278,28.998 27.595,28.551 28.068,28.386 L28.845,28.113 L29.188,27.993 C37.965,24.925 48.665,21.456 61.485,18.229 C74.32,21.458 85.171,24.978 94.082,28.094 L94.904,28.382 C95.377,28.547 95.694,28.993 95.694,29.494 C95.694,34.17 95.694,38.493 95.688,42.663 C95.688,47.588 95.683,52.301 95.683,57.132 C95.866,70.224 90.177,82.711 80.178,91.164 C79.833,91.462 79.635,91.895 79.635,92.351 L79.635,101.119 C79.635,101.557 79.879,101.959 80.268,102.162 C80.657,102.365 81.126,102.335 81.486,102.084 C91.236,95.249 105.106,81.276 105.105,57.132 C105.105,52.302 105.105,47.593 105.111,42.67 C105.111,37.28 105.118,31.638 105.117,25.305 L105.117,22.786 C105.117,22.284 104.799,21.837 104.325,21.673 z" fill="#FFFFFF"/>
    <path d="M67.799,77.408 C67.761,75.379 66.633,73.528 64.847,72.565 C64.336,72.291 64.012,71.765 63.998,71.186 L63.998,71.174 C63.998,69.597 63.54,13.803 63.386,4.783 C63.357,3.782 62.532,2.989 61.53,3 C60.528,2.989 59.702,3.783 59.674,4.784 C59.521,13.801 59.067,69.596 59.067,71.174 L59.067,71.186 C59.054,71.741 58.737,72.245 58.243,72.499 C56.396,73.445 55.218,75.33 55.178,77.405 C55.206,79.281 56.178,81.017 57.763,82.021 C58.341,82.38 58.656,83.044 58.567,83.718 C57.86,88.392 57.309,89.546 57.309,90.554 C57.308,91.253 57.491,91.941 57.84,92.548 C58.15,93.081 58.162,93.738 57.871,94.282 C57.593,94.797 57.447,95.372 57.447,95.957 L57.447,108.77 C57.455,109.832 58.147,110.767 59.159,111.086 C59.926,111.335 60.725,111.58 61.175,111.718 C61.417,111.789 61.675,111.789 61.917,111.718 Q62.917,111.428 63.933,111.081 C64.929,110.753 65.605,109.824 65.61,108.775 L65.61,95.954 C65.61,95.369 65.464,94.793 65.185,94.279 C64.894,93.734 64.906,93.077 65.217,92.544 C65.565,91.937 65.748,91.249 65.747,90.549 C65.747,89.537 65.192,88.328 64.475,83.661 C64.386,82.994 64.693,82.337 65.26,81.975 C66.814,80.971 67.767,79.258 67.799,77.408 z" fill="#FFFFFF"/>
    <path d="M78.327,137.027 L78.341,152.999 L93.823,152.999 L93.811,137.014 L88.655,137.027 L88.67,148.832 L83.479,148.832 L83.479,137.016 z M120.235,152.987 L120.221,137.014 L97.727,137.014 L97.74,153 L102.895,152.987 L102.881,141.182 L106.38,141.182 L106.389,152.999 L111.251,152.988 L111.586,152.988 L111.575,141.182 L115.08,141.182 L115.08,152.998 z M3.006,152.999 L24.933,152.988 L24.92,128.492 L3.005,128.505 z M8.2,132.714 L19.729,132.714 L19.729,148.778 L8.2,148.778 z M48.67,137.055 L48.684,152.999 L64.459,152.999 L64.448,148.825 L53.815,148.839 L53.815,141.215 L64.459,141.215 L64.448,137.039 z M29.033,137.055 L29.047,152.999 L44.823,152.999 L44.812,148.825 L34.179,148.839 L34.179,141.215 L44.823,141.215 L44.812,137.039 z M68.947,131.641 L73.928,131.641 L73.928,152.999 L68.947,152.999 z" fill="#FFFFFF"/>
  </g>
</svg>
