<?xml version="1.0" encoding="UTF-8" standalone="no"?>
<!-- Created with Inkscape (http://www.inkscape.org/) -->

<svg
   version="1.1"
   id="svg18"
   width="184.38463"
   height="208.06665"
   viewBox="0 0 184.38463 208.06665"
   sodipodi:docname="logo.ai"
   xmlns:inkscape="http://www.inkscape.org/namespaces/inkscape"
   xmlns:sodipodi="http://sodipodi.sourceforge.net/DTD/sodipodi-0.dtd"
   xmlns="http://www.w3.org/2000/svg"
   xmlns:svg="http://www.w3.org/2000/svg">
  <defs
     id="defs22">
    <linearGradient
       x1="0"
       y1="0"
       x2="1"
       y2="0"
       gradientUnits="userSpaceOnUse"
       gradientTransform="matrix(0.3217655,0,0,-0.3217655,191.7845,540)"
       spreadMethod="pad"
       id="linearGradient44">
      <stop
         style="stop-opacity:1;stop-color:#e7194a"
         offset="0"
         id="stop40" />
      <stop
         style="stop-opacity:1;stop-color:#0973bd"
         offset="1"
         id="stop42" />
    </linearGradient>
    <linearGradient
       x1="0"
       y1="0"
       x2="1"
       y2="0"
       gradientUnits="userSpaceOnUse"
       gradientTransform="matrix(138.28862,0,0,-138.28862,141,540)"
       spreadMethod="pad"
       id="linearGradient64">
      <stop
         style="stop-opacity:1;stop-color:#e7194a"
         offset="0"
         id="stop60" />
      <stop
         style="stop-opacity:1;stop-color:#0973bd"
         offset="1"
         id="stop62" />
    </linearGradient>
  </defs>
  <sodipodi:namedview
     id="namedview20"
     pagecolor="#ffffff"
     bordercolor="#000000"
     borderopacity="0.25"
     inkscape:showpageshadow="2"
     inkscape:pageopacity="0.0"
     inkscape:pagecheckerboard="0"
     inkscape:deskcolor="#d1d1d1"
     showgrid="false" />
  <g
     id="g26"
     inkscape:groupmode="layer"
     inkscape:label="Page 1"
     transform="matrix(1.3333333,0,0,-1.3333333,-187.99977,824.03333)"
     style="display:inline">
    <g
       id="g28">
      <g
         id="g30">
        <g
           id="g36">
          <g
             id="g38">
            <path
               d="m 191.785,539.683 h 0.321 c -0.049,0.214 -0.107,0.42 -0.156,0.634 v 0 c -0.058,-0.214 -0.117,-0.42 -0.165,-0.634"
               style="fill:url(#linearGradient44);stroke:none"
               id="path46" />
          </g>
        </g>
      </g>
    </g>
    <g
       id="g48">
      <g
         id="g50">
        <g
           id="g56">
          <g
             id="g58">
            <path
               d="m 141.145,607.03 c -1.209,-46.309 5.531,-72.119 5.531,-72.119 v 0 c 12.126,-51.058 63.465,-72.936 63.465,-72.936 v 0 c 0,0 51.347,21.878 63.473,72.936 v 0 c 0,0 6.731,25.81 5.531,72.119 v 0 c 0,0 -34.25,-0.638 -69.004,10.995 v 0 C 175.396,606.392 141.145,607.03 141.145,607.03 m 90.559,-17.232 c 6.272,1.915 20.262,3.243 20.262,3.243 v 0 L 221.833,562.9 c 0.527,0.348 9.888,6.441 21.572,5.301 v 0 c 0,0 11.701,-0.74 26.38,-15.105 v 0 h -46.063 c 0,0 27.129,-2.868 27.98,-39.783 v 0 l -37.017,37.017 3.293,-72.97 -7.837,-4.253 -7.837,4.253 3.301,72.97 -37.016,-37.017 c 0.85,36.915 27.971,39.783 27.971,39.783 v 0 h -46.055 c 14.68,14.365 26.38,15.105 26.38,15.105 v 0 c 12.016,1.174 21.589,-5.318 21.589,-5.318 v 0 l -30.15,30.158 c 0,0 13.982,-1.328 20.262,-3.243 v 0 c 6.204,-1.897 17.215,-8.995 21.564,-26.363 v 0 c 4.34,17.368 15.342,24.466 21.554,26.363"
               style="fill:url(#linearGradient64);stroke:none"
               id="path66" />
          </g>
        </g>
      </g>
    </g>
  </g>
</svg>
