<?xml version="1.0" encoding="UTF-8" standalone="no"?>
<!-- Created with Inkscape (http://www.inkscape.org/) -->

<svg
   version="1.1"
   id="svg18"
   width="1440"
   height="1440"
   viewBox="0 0 1440 1440"
   sodipodi:docname="logo.ai"
   xmlns:inkscape="http://www.inkscape.org/namespaces/inkscape"
   xmlns:sodipodi="http://sodipodi.sourceforge.net/DTD/sodipodi-0.dtd"
   xmlns="http://www.w3.org/2000/svg"
   xmlns:svg="http://www.w3.org/2000/svg">
  <defs
     id="defs22">
    <linearGradient
       x1="0"
       y1="0"
       x2="1"
       y2="0"
       gradientUnits="userSpaceOnUse"
       gradientTransform="matrix(796.60339,0,0,-796.60339,141,540)"
       spreadMethod="pad"
       id="linearGradient528">
      <stop
         style="stop-opacity:1;stop-color:#e7194a"
         offset="0"
         id="stop524" />
      <stop
         style="stop-opacity:1;stop-color:#0973bd"
         offset="1"
         id="stop526" />
    </linearGradient>
    <linearGradient
       x1="0"
       y1="0"
       x2="1"
       y2="0"
       gradientUnits="userSpaceOnUse"
       gradientTransform="matrix(796.60339,0,0,-796.60339,141,540)"
       spreadMethod="pad"
       id="linearGradient548">
      <stop
         style="stop-opacity:1;stop-color:#e7194a"
         offset="0"
         id="stop544" />
      <stop
         style="stop-opacity:1;stop-color:#0973bd"
         offset="1"
         id="stop546" />
    </linearGradient>
    <linearGradient
       x1="0"
       y1="0"
       x2="1"
       y2="0"
       gradientUnits="userSpaceOnUse"
       gradientTransform="matrix(796.60339,0,0,-796.60339,141,540)"
       spreadMethod="pad"
       id="linearGradient568">
      <stop
         style="stop-opacity:1;stop-color:#e7194a"
         offset="0"
         id="stop564" />
      <stop
         style="stop-opacity:1;stop-color:#0973bd"
         offset="1"
         id="stop566" />
    </linearGradient>
    <linearGradient
       x1="0"
       y1="0"
       x2="1"
       y2="0"
       gradientUnits="userSpaceOnUse"
       gradientTransform="matrix(796.60339,0,0,-796.60339,141,540)"
       spreadMethod="pad"
       id="linearGradient588">
      <stop
         style="stop-opacity:1;stop-color:#e7194a"
         offset="0"
         id="stop584" />
      <stop
         style="stop-opacity:1;stop-color:#0973bd"
         offset="1"
         id="stop586" />
    </linearGradient>
    <linearGradient
       x1="0"
       y1="0"
       x2="1"
       y2="0"
       gradientUnits="userSpaceOnUse"
       gradientTransform="matrix(796.60339,0,0,-796.60339,141,540)"
       spreadMethod="pad"
       id="linearGradient608">
      <stop
         style="stop-opacity:1;stop-color:#e7194a"
         offset="0"
         id="stop604" />
      <stop
         style="stop-opacity:1;stop-color:#0973bd"
         offset="1"
         id="stop606" />
    </linearGradient>
    <linearGradient
       x1="0"
       y1="0"
       x2="1"
       y2="0"
       gradientUnits="userSpaceOnUse"
       gradientTransform="matrix(796.60339,0,0,-796.60339,141,540)"
       spreadMethod="pad"
       id="linearGradient628">
      <stop
         style="stop-opacity:1;stop-color:#e7194a"
         offset="0"
         id="stop624" />
      <stop
         style="stop-opacity:1;stop-color:#0973bd"
         offset="1"
         id="stop626" />
    </linearGradient>
    <linearGradient
       x1="0"
       y1="0"
       x2="1"
       y2="0"
       gradientUnits="userSpaceOnUse"
       gradientTransform="matrix(796.60339,0,0,-796.60339,141,540.00024)"
       spreadMethod="pad"
       id="linearGradient648">
      <stop
         style="stop-opacity:1;stop-color:#e7194a"
         offset="0"
         id="stop644" />
      <stop
         style="stop-opacity:1;stop-color:#0973bd"
         offset="1"
         id="stop646" />
    </linearGradient>
    <linearGradient
       x1="0"
       y1="0"
       x2="1"
       y2="0"
       gradientUnits="userSpaceOnUse"
       gradientTransform="matrix(796.60339,0,0,-796.60339,141,539.59082)"
       spreadMethod="pad"
       id="linearGradient668">
      <stop
         style="stop-opacity:1;stop-color:#e7194a"
         offset="0"
         id="stop664" />
      <stop
         style="stop-opacity:1;stop-color:#0973bd"
         offset="1"
         id="stop666" />
    </linearGradient>
    <linearGradient
       x1="0"
       y1="0"
       x2="1"
       y2="0"
       gradientUnits="userSpaceOnUse"
       gradientTransform="matrix(796.60339,0,0,-796.60339,141,540.00024)"
       spreadMethod="pad"
       id="linearGradient688">
      <stop
         style="stop-opacity:1;stop-color:#e7194a"
         offset="0"
         id="stop684" />
      <stop
         style="stop-opacity:1;stop-color:#0973bd"
         offset="1"
         id="stop686" />
    </linearGradient>
    <linearGradient
       x1="0"
       y1="0"
       x2="1"
       y2="0"
       gradientUnits="userSpaceOnUse"
       gradientTransform="matrix(796.60339,0,0,-796.60339,141,543.62585)"
       spreadMethod="pad"
       id="linearGradient708">
      <stop
         style="stop-opacity:1;stop-color:#e7194a"
         offset="0"
         id="stop704" />
      <stop
         style="stop-opacity:1;stop-color:#0973bd"
         offset="1"
         id="stop706" />
    </linearGradient>
    <linearGradient
       x1="0"
       y1="0"
       x2="1"
       y2="0"
       gradientUnits="userSpaceOnUse"
       gradientTransform="matrix(796.60339,0,0,-796.60339,141,540)"
       spreadMethod="pad"
       id="linearGradient728">
      <stop
         style="stop-opacity:1;stop-color:#e7194a"
         offset="0"
         id="stop724" />
      <stop
         style="stop-opacity:1;stop-color:#0973bd"
         offset="1"
         id="stop726" />
    </linearGradient>
    <linearGradient
       x1="0"
       y1="0"
       x2="1"
       y2="0"
       gradientUnits="userSpaceOnUse"
       gradientTransform="matrix(796.60339,0,0,-796.60339,141,540.00024)"
       spreadMethod="pad"
       id="linearGradient748">
      <stop
         style="stop-opacity:1;stop-color:#e7194a"
         offset="0"
         id="stop744" />
      <stop
         style="stop-opacity:1;stop-color:#0973bd"
         offset="1"
         id="stop746" />
    </linearGradient>
    <linearGradient
       x1="0"
       y1="0"
       x2="1"
       y2="0"
       gradientUnits="userSpaceOnUse"
       gradientTransform="matrix(796.60339,0,0,-796.60339,141,540)"
       spreadMethod="pad"
       id="linearGradient768">
      <stop
         style="stop-opacity:1;stop-color:#e7194a"
         offset="0"
         id="stop764" />
      <stop
         style="stop-opacity:1;stop-color:#0973bd"
         offset="1"
         id="stop766" />
    </linearGradient>
    <linearGradient
       x1="0"
       y1="0"
       x2="1"
       y2="0"
       gradientUnits="userSpaceOnUse"
       gradientTransform="matrix(796.60339,0,0,-796.60339,141,540.00024)"
       spreadMethod="pad"
       id="linearGradient788">
      <stop
         style="stop-opacity:1;stop-color:#e7194a"
         offset="0"
         id="stop784" />
      <stop
         style="stop-opacity:1;stop-color:#0973bd"
         offset="1"
         id="stop786" />
    </linearGradient>
  </defs>
  <sodipodi:namedview
     id="namedview20"
     pagecolor="#ffffff"
     bordercolor="#000000"
     borderopacity="0.25"
     inkscape:showpageshadow="2"
     inkscape:pageopacity="0.0"
     inkscape:pagecheckerboard="0"
     inkscape:deskcolor="#d1d1d1"
     showgrid="false" />
  <g
     id="g508"
     inkscape:groupmode="layer"
     inkscape:label="Page 4"
     transform="matrix(1.3333333,0,0,-1.3333333,0,1440)"
     style="display:inline">
    <path
       d="M 0,0 H 1080 V 1080 H 0 Z"
       style="fill:#211f20;fill-opacity:1;fill-rule:nonzero;stroke:none"
       id="path510" />
    <g
       id="g512">
      <g
         id="g514">
        <g
           id="g520">
          <g
             id="g522">
            <path
               d="m 191.785,539.683 h 0.321 c -0.049,0.214 -0.107,0.42 -0.156,0.634 v 0 c -0.058,-0.214 -0.116,-0.42 -0.165,-0.634"
               style="fill:url(#linearGradient528);stroke:none"
               id="path530" />
          </g>
        </g>
      </g>
    </g>
    <g
       id="g532">
      <g
         id="g534">
        <g
           id="g540">
          <g
             id="g542">
            <path
               d="m 141.145,607.03 c -1.209,-46.309 5.532,-72.119 5.532,-72.119 v 0 c 12.125,-51.058 63.464,-72.936 63.464,-72.936 v 0 c 0,0 51.347,21.878 63.473,72.936 v 0 c 0,0 6.731,25.81 5.531,72.119 v 0 c 0,0 -34.25,-0.638 -69.004,10.995 v 0 C 175.396,606.392 141.145,607.03 141.145,607.03 m 90.559,-17.232 c 6.272,1.915 20.262,3.243 20.262,3.243 v 0 L 221.833,562.9 c 0.528,0.348 9.888,6.441 21.572,5.301 v 0 c 0,0 11.701,-0.74 26.38,-15.105 v 0 h -46.063 c 0,0 27.13,-2.868 27.98,-39.783 v 0 l -37.017,37.017 3.293,-72.97 -7.837,-4.253 -7.837,4.253 3.301,72.97 -37.016,-37.017 c 0.85,36.915 27.97,39.783 27.97,39.783 v 0 h -46.054 c 14.679,14.365 26.38,15.105 26.38,15.105 v 0 c 12.016,1.174 21.589,-5.318 21.589,-5.318 v 0 l -30.149,30.158 c 0,0 13.982,-1.328 20.261,-3.243 v 0 c 6.204,-1.897 17.215,-8.995 21.563,-26.363 v 0 c 4.34,17.368 15.343,24.466 21.555,26.363"
               style="fill:url(#linearGradient548);stroke:none"
               id="path550" />
          </g>
        </g>
      </g>
    </g>
    <g
       id="g552">
      <g
         id="g554">
        <g
           id="g560">
          <g
             id="g562">
            <path
               d="m 304.873,564.151 v -49.804 c 0,-8.096 1.637,-14.054 4.911,-17.875 v 0 c 3.638,-4.365 9.597,-6.549 17.876,-6.549 v 0 c 13.372,0 20.059,6.094 20.059,18.285 v 0 10.915 h -12.828 v -6.822 c 0,-7.824 -2.775,-11.735 -8.323,-11.735 v 0 c -5.368,0 -8.051,4.548 -8.051,13.645 v 0 48.303 c 0,5.275 0.274,8.914 0.819,10.916 v 0 c 1.181,4.002 3.729,6.003 7.641,6.003 v 0 c 5.276,0 7.914,-3.411 7.914,-10.232 v 0 -6.823 h 12.828 v 9.824 c 0,11.916 -6.597,17.875 -19.786,17.875 v 0 c -15.375,0 -23.06,-8.644 -23.06,-25.926"
               style="fill:url(#linearGradient568);stroke:none"
               id="path570" />
          </g>
        </g>
      </g>
    </g>
    <g
       id="g572">
      <g
         id="g574">
        <g
           id="g580">
          <g
             id="g582">
            <path
               d="m 353.992,564.151 v -49.804 c 0,-8.096 1.684,-14.054 5.05,-17.875 v 0 c 3.637,-4.365 9.64,-6.549 18.011,-6.549 v 0 c 15.463,0 23.197,8.641 23.197,25.926 v 0 49.804 c 0,8.095 -1.685,14.099 -5.049,18.011 v 0 c -3.64,4.274 -9.689,6.413 -18.148,6.413 v 0 c -15.375,0 -23.061,-8.644 -23.061,-25.926 m 13.645,-50.622 v 51.714 c 0,9.46 3.139,14.19 9.416,14.19 v 0 c 6.366,0 9.551,-4.73 9.551,-14.19 v 0 -51.714 c 0,-8.643 -3.185,-12.963 -9.551,-12.963 v 0 c -6.277,0 -9.416,4.32 -9.416,12.963"
               style="fill:url(#linearGradient588);stroke:none"
               id="path590" />
          </g>
        </g>
      </g>
    </g>
    <g
       id="g592">
      <g
         id="g594">
        <g
           id="g600">
          <g
             id="g602">
            <path
               d="m 408.436,564.151 v -49.804 c 0,-8.096 1.638,-14.054 4.912,-17.875 v 0 c 3.638,-4.365 9.597,-6.549 17.875,-6.549 v 0 c 13.372,0 20.058,6.094 20.058,18.285 v 0 10.915 h -12.826 v -6.822 c 0,-7.824 -2.776,-11.735 -8.323,-11.735 v 0 c -5.369,0 -8.051,4.548 -8.051,13.645 v 0 48.303 c 0,5.275 0.273,8.914 0.819,10.916 v 0 c 1.181,4.002 3.729,6.003 7.641,6.003 v 0 c 5.275,0 7.914,-3.411 7.914,-10.232 v 0 -6.823 h 12.826 v 9.824 c 0,11.916 -6.596,17.875 -19.785,17.875 v 0 c -15.374,0 -23.06,-8.644 -23.06,-25.926"
               style="fill:url(#linearGradient608);stroke:none"
               id="path610" />
          </g>
        </g>
      </g>
    </g>
    <g
       id="g612">
      <g
         id="g614">
        <g
           id="g620">
          <g
             id="g622">
            <path
               d="m 457.556,564.151 v -49.804 c 0,-8.096 1.682,-14.054 5.049,-17.875 v 0 c 3.638,-4.365 9.641,-6.549 18.012,-6.549 v 0 c 15.463,0 23.195,8.641 23.195,25.926 v 0 49.804 c 0,8.095 -1.683,14.099 -5.048,18.011 v 0 c -3.639,4.274 -9.688,6.413 -18.147,6.413 v 0 c -15.376,0 -23.061,-8.644 -23.061,-25.926 m 13.645,-50.622 v 51.714 c 0,9.46 3.139,14.19 9.416,14.19 v 0 c 6.365,0 9.551,-4.73 9.551,-14.19 v 0 -51.714 c 0,-8.643 -3.186,-12.963 -9.551,-12.963 v 0 c -6.277,0 -9.416,4.32 -9.416,12.963"
               style="fill:url(#linearGradient628);stroke:none"
               id="path630" />
          </g>
        </g>
      </g>
    </g>
    <g
       id="g632">
      <g
         id="g634">
        <g
           id="g640">
          <g
             id="g642">
            <path
               d="m 548.704,589.258 v -81.87 l -16.227,81.87 H 513.5 v -98.516 h 12.007 v 84.052 l 16.225,-84.052 h 19.798 v 98.516 z"
               style="fill:url(#linearGradient648);stroke:none"
               id="path650" />
          </g>
        </g>
      </g>
    </g>
    <g
       id="g652">
      <g
         id="g654">
        <g
           id="g660">
          <g
             id="g662">
            <path
               d="m 603.829,589.258 v -78.594 c 0,-6.733 -3.138,-10.098 -9.415,-10.098 v 0 c -6.369,0 -9.552,3.365 -9.552,10.098 v 0 78.594 h -13.645 v -76.274 c 0,-15.375 7.731,-23.061 23.197,-23.061 v 0 c 15.372,0 23.06,7.686 23.06,23.061 v 0 76.274 z"
               style="fill:url(#linearGradient668);stroke:none"
               id="path670" />
          </g>
        </g>
      </g>
    </g>
    <g
       id="g672">
      <g
         id="g674">
        <g
           id="g680">
          <g
             id="g682">
            <path
               d="m 622.931,589.258 v -11.462 h 16.374 v -87.054 h 13.646 v 87.054 h 16.374 v 11.462 z"
               style="fill:url(#linearGradient688);stroke:none"
               id="path690" />
          </g>
        </g>
      </g>
    </g>
    <g
       id="g692">
      <g
         id="g694">
        <g
           id="g700">
          <g
             id="g702">
            <path
               d="m 673.826,537.26 h 27.577 v 12.731 h -27.577 z"
               style="fill:url(#linearGradient708);stroke:none"
               id="path710" />
          </g>
        </g>
      </g>
    </g>
    <g
       id="g712">
      <g
         id="g714">
        <g
           id="g720">
          <g
             id="g722">
            <path
               d="m 710.177,567.017 c 0,-6.004 1.546,-11.598 4.639,-16.783 v 0 c 2.183,-3.458 5.956,-7.87 11.326,-13.236 v 0 c 6.73,-6.641 10.916,-11.554 12.552,-14.736 v 0 c 1.365,-2.456 2.048,-5.914 2.048,-10.371 v 0 c 0,-7.551 -3.003,-11.325 -9.006,-11.325 v 0 c -5.278,0 -7.915,3.548 -7.915,10.643 v 0 8.05 h -13.644 v -11.734 c 0,-11.734 7.048,-17.602 21.149,-17.602 v 0 c 14.827,0 22.241,8.096 22.241,24.288 v 0 c 0,5.912 -0.978,10.733 -2.934,14.463 v 0 c -1.956,3.729 -6.255,9.096 -12.894,16.102 v 0 c -5.914,6.185 -9.824,10.961 -11.734,14.327 v 0 c -1.456,2.729 -2.184,5.913 -2.184,9.552 v 0 c 0,7.184 2.729,10.778 8.188,10.778 v 0 c 5.094,0 7.641,-2.956 7.641,-8.869 v 0 -7.777 h 12.826 v 9.278 c 0,5.913 -1.32,10.098 -3.957,12.554 v 0 c -3.912,3.637 -9.234,5.458 -15.965,5.458 v 0 c -14.919,0 -22.377,-7.688 -22.377,-23.06"
               style="fill:url(#linearGradient728);stroke:none"
               id="path730" />
          </g>
        </g>
      </g>
    </g>
    <g
       id="g732">
      <g
         id="g734">
        <g
           id="g740">
          <g
             id="g742">
            <path
               d="m 800.506,589.258 -14.192,-78.322 h -0.272 l -14.19,78.322 h -13.646 l 20.058,-98.516 h 15.828 l 20.058,98.516 z"
               style="fill:url(#linearGradient748);stroke:none"
               id="path750" />
          </g>
        </g>
      </g>
    </g>
    <g
       id="g752">
      <g
         id="g754">
        <g
           id="g760">
          <g
             id="g762">
            <path
               d="m 818.789,567.017 c 0,-6.004 1.546,-11.598 4.639,-16.783 v 0 c 2.183,-3.458 5.956,-7.87 11.326,-13.236 v 0 c 6.73,-6.641 10.916,-11.554 12.553,-14.736 v 0 c 1.363,-2.456 2.046,-5.914 2.046,-10.371 v 0 c 0,-7.551 -3.002,-11.325 -9.006,-11.325 v 0 c -5.276,0 -7.914,3.548 -7.914,10.643 v 0 8.05 h -13.644 v -11.734 c 0,-11.734 7.047,-17.602 21.149,-17.602 v 0 c 14.826,0 22.241,8.096 22.241,24.288 v 0 c 0,5.912 -0.978,10.733 -2.933,14.463 v 0 c -1.957,3.729 -6.255,9.096 -12.895,16.102 v 0 c -5.914,6.185 -9.824,10.961 -11.734,14.327 v 0 c -1.456,2.729 -2.184,5.913 -2.184,9.552 v 0 c 0,7.184 2.73,10.778 8.188,10.778 v 0 c 5.093,0 7.642,-2.956 7.642,-8.869 v 0 -7.777 h 12.825 v 9.278 c 0,5.913 -1.32,10.098 -3.957,12.554 v 0 c -3.912,3.637 -9.234,5.458 -15.964,5.458 v 0 c -14.92,0 -22.378,-7.688 -22.378,-23.06"
               style="fill:url(#linearGradient768);stroke:none"
               id="path770" />
          </g>
        </g>
      </g>
    </g>
    <g
       id="g772">
      <g
         id="g774">
        <g
           id="g780">
          <g
             id="g782">
            <path
               d="m 917.851,589.258 -12.554,-75.047 h -0.273 l -12.553,75.047 h -21.696 v -98.516 h 12.008 v 88.691 l 15.476,-88.691 h 13.82 l 14.095,88.691 V 490.742 H 939 v 98.516 z"
               style="fill:url(#linearGradient788);stroke:none"
               id="path790" />
          </g>
        </g>
      </g>
    </g>
  </g>
</svg>
