<?xml version="1.0" encoding="UTF-8" standalone="no"?>
<!-- Created with Inkscape (http://www.inkscape.org/) -->

<svg
   version="1.1"
   id="svg18"
   width="1440"
   height="1440"
   viewBox="0 0 1440 1440"
   sodipodi:docname="logo.ai"
   xmlns:inkscape="http://www.inkscape.org/namespaces/inkscape"
   xmlns:sodipodi="http://sodipodi.sourceforge.net/DTD/sodipodi-0.dtd"
   xmlns="http://www.w3.org/2000/svg"
   xmlns:svg="http://www.w3.org/2000/svg">
  <defs
     id="defs22">
    <linearGradient
       x1="0"
       y1="0"
       x2="1"
       y2="0"
       gradientUnits="userSpaceOnUse"
       gradientTransform="matrix(796.60339,0,0,-796.60339,141,540)"
       spreadMethod="pad"
       id="linearGradient242">
      <stop
         style="stop-opacity:1;stop-color:#e7194a"
         offset="0"
         id="stop238" />
      <stop
         style="stop-opacity:1;stop-color:#0973bd"
         offset="1"
         id="stop240" />
    </linearGradient>
    <linearGradient
       x1="0"
       y1="0"
       x2="1"
       y2="0"
       gradientUnits="userSpaceOnUse"
       gradientTransform="matrix(796.60339,0,0,-796.60339,141,540)"
       spreadMethod="pad"
       id="linearGradient262">
      <stop
         style="stop-opacity:1;stop-color:#e7194a"
         offset="0"
         id="stop258" />
      <stop
         style="stop-opacity:1;stop-color:#0973bd"
         offset="1"
         id="stop260" />
    </linearGradient>
    <linearGradient
       x1="0"
       y1="0"
       x2="1"
       y2="0"
       gradientUnits="userSpaceOnUse"
       gradientTransform="matrix(796.60339,0,0,-796.60339,141,540)"
       spreadMethod="pad"
       id="linearGradient282">
      <stop
         style="stop-opacity:1;stop-color:#e7194a"
         offset="0"
         id="stop278" />
      <stop
         style="stop-opacity:1;stop-color:#0973bd"
         offset="1"
         id="stop280" />
    </linearGradient>
    <linearGradient
       x1="0"
       y1="0"
       x2="1"
       y2="0"
       gradientUnits="userSpaceOnUse"
       gradientTransform="matrix(796.60339,0,0,-796.60339,141,540)"
       spreadMethod="pad"
       id="linearGradient302">
      <stop
         style="stop-opacity:1;stop-color:#e7194a"
         offset="0"
         id="stop298" />
      <stop
         style="stop-opacity:1;stop-color:#0973bd"
         offset="1"
         id="stop300" />
    </linearGradient>
    <linearGradient
       x1="0"
       y1="0"
       x2="1"
       y2="0"
       gradientUnits="userSpaceOnUse"
       gradientTransform="matrix(796.60339,0,0,-796.60339,141,540)"
       spreadMethod="pad"
       id="linearGradient322">
      <stop
         style="stop-opacity:1;stop-color:#e7194a"
         offset="0"
         id="stop318" />
      <stop
         style="stop-opacity:1;stop-color:#0973bd"
         offset="1"
         id="stop320" />
    </linearGradient>
    <linearGradient
       x1="0"
       y1="0"
       x2="1"
       y2="0"
       gradientUnits="userSpaceOnUse"
       gradientTransform="matrix(796.60339,0,0,-796.60339,141,540)"
       spreadMethod="pad"
       id="linearGradient342">
      <stop
         style="stop-opacity:1;stop-color:#e7194a"
         offset="0"
         id="stop338" />
      <stop
         style="stop-opacity:1;stop-color:#0973bd"
         offset="1"
         id="stop340" />
    </linearGradient>
    <linearGradient
       x1="0"
       y1="0"
       x2="1"
       y2="0"
       gradientUnits="userSpaceOnUse"
       gradientTransform="matrix(796.60339,0,0,-796.60339,141,540.00024)"
       spreadMethod="pad"
       id="linearGradient362">
      <stop
         style="stop-opacity:1;stop-color:#e7194a"
         offset="0"
         id="stop358" />
      <stop
         style="stop-opacity:1;stop-color:#0973bd"
         offset="1"
         id="stop360" />
    </linearGradient>
    <linearGradient
       x1="0"
       y1="0"
       x2="1"
       y2="0"
       gradientUnits="userSpaceOnUse"
       gradientTransform="matrix(796.60339,0,0,-796.60339,141,539.59082)"
       spreadMethod="pad"
       id="linearGradient382">
      <stop
         style="stop-opacity:1;stop-color:#e7194a"
         offset="0"
         id="stop378" />
      <stop
         style="stop-opacity:1;stop-color:#0973bd"
         offset="1"
         id="stop380" />
    </linearGradient>
    <linearGradient
       x1="0"
       y1="0"
       x2="1"
       y2="0"
       gradientUnits="userSpaceOnUse"
       gradientTransform="matrix(796.60339,0,0,-796.60339,141,540.00024)"
       spreadMethod="pad"
       id="linearGradient402">
      <stop
         style="stop-opacity:1;stop-color:#e7194a"
         offset="0"
         id="stop398" />
      <stop
         style="stop-opacity:1;stop-color:#0973bd"
         offset="1"
         id="stop400" />
    </linearGradient>
    <linearGradient
       x1="0"
       y1="0"
       x2="1"
       y2="0"
       gradientUnits="userSpaceOnUse"
       gradientTransform="matrix(796.60339,0,0,-796.60339,141,543.62585)"
       spreadMethod="pad"
       id="linearGradient422">
      <stop
         style="stop-opacity:1;stop-color:#e7194a"
         offset="0"
         id="stop418" />
      <stop
         style="stop-opacity:1;stop-color:#0973bd"
         offset="1"
         id="stop420" />
    </linearGradient>
    <linearGradient
       x1="0"
       y1="0"
       x2="1"
       y2="0"
       gradientUnits="userSpaceOnUse"
       gradientTransform="matrix(796.60339,0,0,-796.60339,141,540)"
       spreadMethod="pad"
       id="linearGradient442">
      <stop
         style="stop-opacity:1;stop-color:#e7194a"
         offset="0"
         id="stop438" />
      <stop
         style="stop-opacity:1;stop-color:#0973bd"
         offset="1"
         id="stop440" />
    </linearGradient>
    <linearGradient
       x1="0"
       y1="0"
       x2="1"
       y2="0"
       gradientUnits="userSpaceOnUse"
       gradientTransform="matrix(796.60339,0,0,-796.60339,141,540.00024)"
       spreadMethod="pad"
       id="linearGradient462">
      <stop
         style="stop-opacity:1;stop-color:#e7194a"
         offset="0"
         id="stop458" />
      <stop
         style="stop-opacity:1;stop-color:#0973bd"
         offset="1"
         id="stop460" />
    </linearGradient>
    <linearGradient
       x1="0"
       y1="0"
       x2="1"
       y2="0"
       gradientUnits="userSpaceOnUse"
       gradientTransform="matrix(796.60339,0,0,-796.60339,141,540)"
       spreadMethod="pad"
       id="linearGradient482">
      <stop
         style="stop-opacity:1;stop-color:#e7194a"
         offset="0"
         id="stop478" />
      <stop
         style="stop-opacity:1;stop-color:#0973bd"
         offset="1"
         id="stop480" />
    </linearGradient>
    <linearGradient
       x1="0"
       y1="0"
       x2="1"
       y2="0"
       gradientUnits="userSpaceOnUse"
       gradientTransform="matrix(796.60339,0,0,-796.60339,141,540.00024)"
       spreadMethod="pad"
       id="linearGradient502">
      <stop
         style="stop-opacity:1;stop-color:#e7194a"
         offset="0"
         id="stop498" />
      <stop
         style="stop-opacity:1;stop-color:#0973bd"
         offset="1"
         id="stop500" />
    </linearGradient>
  </defs>
  <sodipodi:namedview
     id="namedview20"
     pagecolor="#ffffff"
     bordercolor="#000000"
     borderopacity="0.25"
     inkscape:showpageshadow="2"
     inkscape:pageopacity="0.0"
     inkscape:pagecheckerboard="0"
     inkscape:deskcolor="#d1d1d1"
     showgrid="false" />
  <g
     id="g224"
     inkscape:groupmode="layer"
     inkscape:label="Page 3"
     transform="matrix(1.3333333,0,0,-1.3333333,0,1440)"
     style="display:inline">
    <g
       id="g226">
      <g
         id="g228">
        <g
           id="g234">
          <g
             id="g236">
            <path
               d="m 191.785,539.683 h 0.321 c -0.049,0.214 -0.107,0.42 -0.156,0.634 v 0 c -0.057,-0.214 -0.117,-0.42 -0.165,-0.634"
               style="fill:url(#linearGradient242);stroke:none"
               id="path244" />
          </g>
        </g>
      </g>
    </g>
    <g
       id="g246">
      <g
         id="g248">
        <g
           id="g254">
          <g
             id="g256">
            <path
               d="m 141.145,607.03 c -1.208,-46.309 5.532,-72.119 5.532,-72.119 v 0 c 12.125,-51.058 63.464,-72.936 63.464,-72.936 v 0 c 0,0 51.347,21.878 63.472,72.936 v 0 c 0,0 6.732,25.81 5.532,72.119 v 0 c 0,0 -34.25,-0.638 -69.004,10.995 v 0 C 175.396,606.392 141.145,607.03 141.145,607.03 m 90.56,-17.232 c 6.271,1.915 20.261,3.243 20.261,3.243 v 0 L 221.834,562.9 c 0.527,0.348 9.887,6.441 21.571,5.301 v 0 c 0,0 11.701,-0.74 26.38,-15.105 v 0 h -46.063 c 0,0 27.13,-2.868 27.98,-39.783 v 0 l -37.017,37.017 3.293,-72.97 -7.837,-4.253 -7.837,4.253 3.301,72.97 -37.016,-37.017 c 0.85,36.915 27.97,39.783 27.97,39.783 v 0 h -46.054 c 14.679,14.365 26.38,15.105 26.38,15.105 v 0 c 12.016,1.174 21.589,-5.318 21.589,-5.318 v 0 l -30.149,30.158 c 0,0 13.982,-1.328 20.262,-3.243 v 0 c 6.203,-1.897 17.214,-8.995 21.562,-26.363 v 0 c 4.34,17.368 15.342,24.466 21.556,26.363"
               style="fill:url(#linearGradient262);stroke:none"
               id="path264" />
          </g>
        </g>
      </g>
    </g>
    <g
       id="g266">
      <g
         id="g268">
        <g
           id="g274">
          <g
             id="g276">
            <path
               d="m 304.872,564.151 v -49.804 c 0,-8.096 1.638,-14.054 4.912,-17.875 v 0 c 3.638,-4.365 9.597,-6.549 17.875,-6.549 v 0 c 13.373,0 20.06,6.094 20.06,18.285 v 0 10.915 h -12.828 v -6.822 c 0,-7.824 -2.775,-11.735 -8.323,-11.735 v 0 c -5.368,0 -8.051,4.548 -8.051,13.645 v 0 48.303 c 0,5.275 0.274,8.914 0.819,10.916 v 0 c 1.181,4.002 3.729,6.003 7.641,6.003 v 0 c 5.276,0 7.914,-3.411 7.914,-10.232 v 0 -6.823 h 12.828 v 9.824 c 0,11.916 -6.597,17.875 -19.786,17.875 v 0 c -15.375,0 -23.061,-8.644 -23.061,-25.926"
               style="fill:url(#linearGradient282);stroke:none"
               id="path284" />
          </g>
        </g>
      </g>
    </g>
    <g
       id="g286">
      <g
         id="g288">
        <g
           id="g294">
          <g
             id="g296">
            <path
               d="m 353.992,564.151 v -49.804 c 0,-8.096 1.684,-14.054 5.05,-17.875 v 0 c 3.637,-4.365 9.641,-6.549 18.011,-6.549 v 0 c 15.463,0 23.197,8.641 23.197,25.926 v 0 49.804 c 0,8.095 -1.685,14.099 -5.049,18.011 v 0 c -3.64,4.274 -9.688,6.413 -18.148,6.413 v 0 c -15.375,0 -23.061,-8.644 -23.061,-25.926 m 13.645,-50.622 v 51.714 c 0,9.46 3.139,14.19 9.416,14.19 v 0 c 6.367,0 9.551,-4.73 9.551,-14.19 v 0 -51.714 c 0,-8.643 -3.184,-12.963 -9.551,-12.963 v 0 c -6.277,0 -9.416,4.32 -9.416,12.963"
               style="fill:url(#linearGradient302);stroke:none"
               id="path304" />
          </g>
        </g>
      </g>
    </g>
    <g
       id="g306">
      <g
         id="g308">
        <g
           id="g314">
          <g
             id="g316">
            <path
               d="m 408.436,564.151 v -49.804 c 0,-8.096 1.638,-14.054 4.912,-17.875 v 0 c 3.638,-4.365 9.597,-6.549 17.875,-6.549 v 0 c 13.372,0 20.058,6.094 20.058,18.285 v 0 10.915 h -12.826 v -6.822 c 0,-7.824 -2.776,-11.735 -8.323,-11.735 v 0 c -5.369,0 -8.051,4.548 -8.051,13.645 v 0 48.303 c 0,5.275 0.273,8.914 0.819,10.916 v 0 c 1.181,4.002 3.729,6.003 7.64,6.003 v 0 c 5.276,0 7.915,-3.411 7.915,-10.232 v 0 -6.823 h 12.826 v 9.824 c 0,11.916 -6.596,17.875 -19.784,17.875 v 0 c -15.376,0 -23.061,-8.644 -23.061,-25.926"
               style="fill:url(#linearGradient322);stroke:none"
               id="path324" />
          </g>
        </g>
      </g>
    </g>
    <g
       id="g326">
      <g
         id="g328">
        <g
           id="g334">
          <g
             id="g336">
            <path
               d="m 457.556,564.151 v -49.804 c 0,-8.096 1.682,-14.054 5.049,-17.875 v 0 c 3.638,-4.365 9.64,-6.549 18.012,-6.549 v 0 c 15.463,0 23.195,8.641 23.195,25.926 v 0 49.804 c 0,8.095 -1.683,14.099 -5.047,18.011 v 0 c -3.641,4.274 -9.689,6.413 -18.148,6.413 v 0 c -15.376,0 -23.061,-8.644 -23.061,-25.926 M 471.2,513.529 v 51.714 c 0,9.46 3.14,14.19 9.417,14.19 v 0 c 6.365,0 9.551,-4.73 9.551,-14.19 v 0 -51.714 c 0,-8.643 -3.186,-12.963 -9.551,-12.963 v 0 c -6.277,0 -9.417,4.32 -9.417,12.963"
               style="fill:url(#linearGradient342);stroke:none"
               id="path344" />
          </g>
        </g>
      </g>
    </g>
    <g
       id="g346">
      <g
         id="g348">
        <g
           id="g354">
          <g
             id="g356">
            <path
               d="m 548.704,589.258 v -81.87 l -16.227,81.87 H 513.5 v -98.516 h 12.007 v 84.052 l 16.225,-84.052 h 19.798 v 98.516 z"
               style="fill:url(#linearGradient362);stroke:none"
               id="path364" />
          </g>
        </g>
      </g>
    </g>
    <g
       id="g366">
      <g
         id="g368">
        <g
           id="g374">
          <g
             id="g376">
            <path
               d="m 603.829,589.258 v -78.594 c 0,-6.733 -3.139,-10.098 -9.415,-10.098 v 0 c -6.368,0 -9.552,3.365 -9.552,10.098 v 0 78.594 h -13.645 v -76.274 c 0,-15.375 7.731,-23.061 23.197,-23.061 v 0 c 15.372,0 23.059,7.686 23.059,23.061 v 0 76.274 z"
               style="fill:url(#linearGradient382);stroke:none"
               id="path384" />
          </g>
        </g>
      </g>
    </g>
    <g
       id="g386">
      <g
         id="g388">
        <g
           id="g394">
          <g
             id="g396">
            <path
               d="m 622.931,589.258 v -11.462 h 16.374 v -87.054 h 13.646 v 87.054 h 16.374 v 11.462 z"
               style="fill:url(#linearGradient402);stroke:none"
               id="path404" />
          </g>
        </g>
      </g>
    </g>
    <g
       id="g406">
      <g
         id="g408">
        <g
           id="g414">
          <g
             id="g416">
            <path
               d="m 673.826,537.26 h 27.577 v 12.731 h -27.577 z"
               style="fill:url(#linearGradient422);stroke:none"
               id="path424" />
          </g>
        </g>
      </g>
    </g>
    <g
       id="g426">
      <g
         id="g428">
        <g
           id="g434">
          <g
             id="g436">
            <path
               d="m 710.177,567.017 c 0,-6.004 1.546,-11.598 4.639,-16.783 v 0 c 2.183,-3.458 5.957,-7.87 11.326,-13.236 v 0 c 6.73,-6.641 10.915,-11.554 12.552,-14.736 v 0 c 1.365,-2.456 2.047,-5.914 2.047,-10.371 v 0 c 0,-7.551 -3.001,-11.325 -9.005,-11.325 v 0 c -5.278,0 -7.914,3.548 -7.914,10.643 v 0 8.05 h -13.645 v -11.734 c 0,-11.734 7.048,-17.602 21.149,-17.602 v 0 c 14.827,0 22.241,8.096 22.241,24.288 v 0 c 0,5.912 -0.977,10.733 -2.934,14.463 v 0 c -1.956,3.729 -6.255,9.096 -12.893,16.102 v 0 c -5.915,6.185 -9.825,10.961 -11.735,14.327 v 0 c -1.456,2.729 -2.183,5.913 -2.183,9.552 v 0 c 0,7.184 2.728,10.778 8.187,10.778 v 0 c 5.093,0 7.641,-2.956 7.641,-8.869 v 0 -7.777 h 12.827 v 9.278 c 0,5.913 -1.321,10.098 -3.958,12.554 v 0 c -3.912,3.637 -9.234,5.458 -15.965,5.458 v 0 c -14.919,0 -22.377,-7.688 -22.377,-23.06"
               style="fill:url(#linearGradient442);stroke:none"
               id="path444" />
          </g>
        </g>
      </g>
    </g>
    <g
       id="g446">
      <g
         id="g448">
        <g
           id="g454">
          <g
             id="g456">
            <path
               d="m 800.506,589.258 -14.192,-78.322 h -0.272 l -14.191,78.322 h -13.644 l 20.057,-98.516 h 15.828 l 20.058,98.516 z"
               style="fill:url(#linearGradient462);stroke:none"
               id="path464" />
          </g>
        </g>
      </g>
    </g>
    <g
       id="g466">
      <g
         id="g468">
        <g
           id="g474">
          <g
             id="g476">
            <path
               d="m 818.789,567.017 c 0,-6.004 1.546,-11.598 4.639,-16.783 v 0 c 2.182,-3.458 5.956,-7.87 11.326,-13.236 v 0 c 6.73,-6.641 10.916,-11.554 12.552,-14.736 v 0 c 1.364,-2.456 2.048,-5.914 2.048,-10.371 v 0 c 0,-7.551 -3.003,-11.325 -9.007,-11.325 v 0 c -5.276,0 -7.914,3.548 -7.914,10.643 v 0 8.05 h -13.644 v -11.734 c 0,-11.734 7.048,-17.602 21.149,-17.602 v 0 c 14.826,0 22.241,8.096 22.241,24.288 v 0 c 0,5.912 -0.978,10.733 -2.934,14.463 v 0 c -1.956,3.729 -6.254,9.096 -12.894,16.102 v 0 c -5.914,6.185 -9.824,10.961 -11.734,14.327 v 0 c -1.456,2.729 -2.184,5.913 -2.184,9.552 v 0 c 0,7.184 2.73,10.778 8.188,10.778 v 0 c 5.094,0 7.642,-2.956 7.642,-8.869 v 0 -7.777 h 12.825 v 9.278 c 0,5.913 -1.32,10.098 -3.957,12.554 v 0 c -3.913,3.637 -9.234,5.458 -15.964,5.458 v 0 c -14.92,0 -22.378,-7.688 -22.378,-23.06"
               style="fill:url(#linearGradient482);stroke:none"
               id="path484" />
          </g>
        </g>
      </g>
    </g>
    <g
       id="g486">
      <g
         id="g488">
        <g
           id="g494">
          <g
             id="g496">
            <path
               d="m 917.851,589.258 -12.554,-75.047 h -0.273 l -12.553,75.047 h -21.696 v -98.516 h 12.008 v 88.691 l 15.476,-88.691 h 13.82 l 14.095,88.691 V 490.742 H 939 v 98.516 z"
               style="fill:url(#linearGradient502);stroke:none"
               id="path504" />
          </g>
        </g>
      </g>
    </g>
  </g>
</svg>
