<?xml version="1.0" encoding="UTF-8" standalone="no"?>
<!-- Created with Inkscape (http://www.inkscape.org/) -->

<svg
   version="1.1"
   id="svg18"
   width="1440"
   height="1440"
   viewBox="0 0 1440 1440"
   sodipodi:docname="logo.ai"
   xmlns:inkscape="http://www.inkscape.org/namespaces/inkscape"
   xmlns:sodipodi="http://sodipodi.sourceforge.net/DTD/sodipodi-0.dtd"
   xmlns="http://www.w3.org/2000/svg"
   xmlns:svg="http://www.w3.org/2000/svg">
  <defs
     id="defs22">
    <linearGradient
       x1="0"
       y1="0"
       x2="1"
       y2="0"
       gradientUnits="userSpaceOnUse"
       gradientTransform="matrix(0.3217655,0,0,-0.3217655,191.7845,540)"
       spreadMethod="pad"
       id="linearGradient44">
      <stop
         style="stop-opacity:1;stop-color:#e7194a"
         offset="0"
         id="stop40" />
      <stop
         style="stop-opacity:1;stop-color:#0973bd"
         offset="1"
         id="stop42" />
    </linearGradient>
    <linearGradient
       x1="0"
       y1="0"
       x2="1"
       y2="0"
       gradientUnits="userSpaceOnUse"
       gradientTransform="matrix(138.28862,0,0,-138.28862,141,540)"
       spreadMethod="pad"
       id="linearGradient64">
      <stop
         style="stop-opacity:1;stop-color:#e7194a"
         offset="0"
         id="stop60" />
      <stop
         style="stop-opacity:1;stop-color:#0973bd"
         offset="1"
         id="stop62" />
    </linearGradient>
    <clipPath
       clipPathUnits="userSpaceOnUse"
       id="clipPath74">
      <path
         d="M 0,1080 H 1080 V 0 H 0 Z"
         id="path72" />
    </clipPath>
  </defs>
  <sodipodi:namedview
     id="namedview20"
     pagecolor="#ffffff"
     bordercolor="#000000"
     borderopacity="0.25"
     inkscape:showpageshadow="2"
     inkscape:pageopacity="0.0"
     inkscape:pagecheckerboard="0"
     inkscape:deskcolor="#d1d1d1"
     showgrid="false" />
  <g
     id="g26"
     inkscape:groupmode="layer"
     inkscape:label="Page 1"
     transform="matrix(1.3333333,0,0,-1.3333333,0,1440)"
     style="display:inline">
    <g
       id="g28">
      <g
         id="g30">
        <g
           id="g36">
          <g
             id="g38">
            <path
               d="m 191.785,539.683 h 0.321 c -0.049,0.214 -0.107,0.42 -0.156,0.634 v 0 c -0.058,-0.214 -0.117,-0.42 -0.165,-0.634"
               style="fill:url(#linearGradient44);stroke:none"
               id="path46" />
          </g>
        </g>
      </g>
    </g>
    <g
       id="g48">
      <g
         id="g50">
        <g
           id="g56">
          <g
             id="g58">
            <path
               d="m 141.145,607.03 c -1.209,-46.309 5.531,-72.119 5.531,-72.119 v 0 c 12.126,-51.058 63.465,-72.936 63.465,-72.936 v 0 c 0,0 51.347,21.878 63.473,72.936 v 0 c 0,0 6.731,25.81 5.531,72.119 v 0 c 0,0 -34.25,-0.638 -69.004,10.995 v 0 C 175.396,606.392 141.145,607.03 141.145,607.03 m 90.559,-17.232 c 6.272,1.915 20.262,3.243 20.262,3.243 v 0 L 221.833,562.9 c 0.527,0.348 9.888,6.441 21.572,5.301 v 0 c 0,0 11.701,-0.74 26.38,-15.105 v 0 h -46.063 c 0,0 27.129,-2.868 27.98,-39.783 v 0 l -37.017,37.017 3.293,-72.97 -7.837,-4.253 -7.837,4.253 3.301,72.97 -37.016,-37.017 c 0.85,36.915 27.971,39.783 27.971,39.783 v 0 h -46.055 c 14.68,14.365 26.38,15.105 26.38,15.105 v 0 c 12.016,1.174 21.589,-5.318 21.589,-5.318 v 0 l -30.15,30.158 c 0,0 13.982,-1.328 20.262,-3.243 v 0 c 6.204,-1.897 17.215,-8.995 21.564,-26.363 v 0 c 4.34,17.368 15.342,24.466 21.554,26.363"
               style="fill:url(#linearGradient64);stroke:none"
               id="path66" />
          </g>
        </g>
      </g>
    </g>
    <g
       id="g68">
      <g
         id="g70"
         clip-path="url(#clipPath74)">
        <g
           id="g76"
           transform="translate(304.8728,514.3477)">
          <path
             d="m 0,0 v 49.804 c 0,17.282 7.686,25.925 23.06,25.925 13.189,0 19.785,-5.959 19.785,-17.875 V 48.03 H 30.019 v 6.823 c 0,6.822 -2.64,10.233 -7.915,10.233 -3.911,0 -6.459,-2.002 -7.64,-6.003 -0.546,-2.002 -0.819,-5.642 -0.819,-10.916 V -0.137 c 0,-9.096 2.682,-13.644 8.051,-13.644 5.547,0 8.323,3.91 8.323,11.734 V 4.775 H 42.845 V -6.14 c 0,-12.191 -6.686,-18.285 -20.058,-18.285 -8.279,0 -14.238,2.184 -17.875,6.55 C 1.637,-14.055 0,-8.097 0,0"
             style="fill:#211f20;fill-opacity:1;fill-rule:nonzero;stroke:none"
             id="path78" />
        </g>
        <g
           id="g80"
           transform="translate(367.638,565.2432)">
          <path
             d="m 0,0 v -51.714 c 0,-8.643 3.138,-12.963 9.415,-12.963 6.366,0 9.552,4.32 9.552,12.963 V 0 c 0,9.46 -3.186,14.19 -9.552,14.19 C 3.138,14.19 0,9.46 0,0 m -13.645,-50.896 v 49.804 c 0,17.282 7.686,25.925 23.06,25.925 8.46,0 14.508,-2.138 18.147,-6.413 3.365,-3.911 5.049,-9.915 5.049,-18.011 v -49.804 c 0,-17.284 -7.733,-25.925 -23.196,-25.925 -8.37,0 -14.374,2.183 -18.011,6.549 -3.367,3.821 -5.049,9.779 -5.049,17.875"
             style="fill:#211f20;fill-opacity:1;fill-rule:nonzero;stroke:none"
             id="path82" />
        </g>
        <g
           id="g84"
           transform="translate(408.4363,514.3477)">
          <path
             d="m 0,0 v 49.804 c 0,17.282 7.686,25.925 23.06,25.925 13.189,0 19.785,-5.959 19.785,-17.875 V 48.03 H 30.019 v 6.823 c 0,6.822 -2.64,10.233 -7.915,10.233 -3.912,0 -6.459,-2.002 -7.641,-6.003 -0.545,-2.002 -0.818,-5.642 -0.818,-10.916 V -0.137 c 0,-9.096 2.682,-13.644 8.05,-13.644 5.548,0 8.324,3.91 8.324,11.734 V 4.775 H 42.845 V -6.14 c 0,-12.191 -6.686,-18.285 -20.058,-18.285 -8.279,0 -14.238,2.184 -17.875,6.55 C 1.637,-14.055 0,-8.097 0,0"
             style="fill:#211f20;fill-opacity:1;fill-rule:nonzero;stroke:none"
             id="path86" />
        </g>
        <g
           id="g88"
           transform="translate(471.201,565.2432)">
          <path
             d="m 0,0 v -51.714 c 0,-8.643 3.139,-12.963 9.416,-12.963 6.366,0 9.551,4.32 9.551,12.963 V 0 c 0,9.46 -3.185,14.19 -9.551,14.19 C 3.139,14.19 0,9.46 0,0 m -13.645,-50.896 v 49.804 c 0,17.282 7.686,25.925 23.061,25.925 8.459,0 14.508,-2.138 18.147,-6.413 3.364,-3.911 5.049,-9.915 5.049,-18.011 v -49.804 c 0,-17.284 -7.733,-25.925 -23.196,-25.925 -8.371,0 -14.374,2.183 -18.012,6.549 -3.366,3.821 -5.049,9.779 -5.049,17.875"
             style="fill:#211f20;fill-opacity:1;fill-rule:nonzero;stroke:none"
             id="path90" />
        </g>
        <g
           id="g92"
           transform="translate(513.5002,490.7422)">
          <path
             d="m 0,0 v 98.516 h 18.977 l 16.227,-81.87 v 81.87 H 48.03 V 0 H 28.232 L 12.007,84.052 V 0 Z"
             style="fill:#211f20;fill-opacity:1;fill-rule:nonzero;stroke:none"
             id="path94" />
        </g>
        <g
           id="g96"
           transform="translate(617.4734,589.2583)">
          <path
             d="m 0,0 v -76.275 c 0,-15.374 -7.688,-23.06 -23.06,-23.06 -15.465,0 -23.196,7.686 -23.196,23.06 V 0 h 13.645 v -78.594 c 0,-6.734 3.183,-10.098 9.551,-10.098 6.277,0 9.415,3.364 9.415,10.098 V 0 Z"
             style="fill:#211f20;fill-opacity:1;fill-rule:nonzero;stroke:none"
             id="path98" />
        </g>
        <g
           id="g100"
           transform="translate(622.9319,577.7964)">
          <path
             d="M 0,0 V 11.462 H 46.393 V 0 H 30.019 V -87.054 H 16.374 V 0 Z"
             style="fill:#211f20;fill-opacity:1;fill-rule:nonzero;stroke:none"
             id="path102" />
        </g>
        <path
           d="m 673.826,549.991 h 27.576 v -12.73 h -27.576 z"
           style="fill:#211f20;fill-opacity:1;fill-rule:nonzero;stroke:none"
           id="path104" />
        <g
           id="g106"
           transform="translate(710.1765,507.5254)">
          <path
             d="m 0,0 v 11.734 h 13.645 v -8.05 c 0,-7.095 2.637,-10.643 7.914,-10.643 6.004,0 9.006,3.773 9.006,11.325 0,4.456 -0.683,7.914 -2.047,10.37 -1.637,3.183 -5.823,8.095 -12.553,14.737 C 10.596,34.839 6.823,39.25 4.64,42.708 1.546,47.894 0,53.488 0,59.492 c 0,15.371 7.458,23.059 22.378,23.059 6.731,0 12.052,-1.82 15.965,-5.457 2.636,-2.456 3.956,-6.641 3.956,-12.554 V 55.262 H 29.473 v 7.777 c 0,5.913 -2.548,8.869 -7.641,8.869 -5.458,0 -8.187,-3.594 -8.187,-10.779 0,-3.639 0.728,-6.822 2.183,-9.551 1.911,-3.367 5.82,-8.142 11.735,-14.328 6.639,-7.006 10.937,-12.372 12.895,-16.101 1.955,-3.73 2.933,-8.551 2.933,-14.463 0,-16.193 -7.415,-24.289 -22.241,-24.289 C 7.048,-17.603 0,-11.734 0,0"
             style="fill:#211f20;fill-opacity:1;fill-rule:nonzero;stroke:none"
             id="path108" />
        </g>
        <g
           id="g110"
           transform="translate(778.2639,490.7422)">
          <path
             d="M 0,0 -20.058,98.516 H -6.413 L 7.778,20.194 h 0.273 l 14.19,78.322 H 35.887 L 15.828,0 Z"
             style="fill:#211f20;fill-opacity:1;fill-rule:nonzero;stroke:none"
             id="path112" />
        </g>
        <g
           id="g114"
           transform="translate(818.7888,507.5254)">
          <path
             d="m 0,0 v 11.734 h 13.645 v -8.05 c 0,-7.095 2.637,-10.643 7.914,-10.643 6.003,0 9.006,3.773 9.006,11.325 0,4.456 -0.683,7.914 -2.047,10.37 C 26.88,17.919 22.695,22.831 15.965,29.473 10.596,34.839 6.823,39.25 4.639,42.708 1.546,47.894 0,53.488 0,59.492 c 0,15.371 7.458,23.059 22.378,23.059 6.73,0 12.052,-1.82 15.964,-5.457 2.637,-2.456 3.957,-6.641 3.957,-12.554 V 55.262 H 29.473 v 7.777 c 0,5.913 -2.548,8.869 -7.641,8.869 -5.458,0 -8.187,-3.594 -8.187,-10.779 0,-3.639 0.727,-6.822 2.183,-9.551 1.91,-3.367 5.82,-8.142 11.734,-14.328 6.64,-7.006 10.938,-12.372 12.895,-16.101 1.955,-3.73 2.934,-8.551 2.934,-14.463 0,-16.193 -7.415,-24.289 -22.242,-24.289 C 7.048,-17.603 0,-11.734 0,0"
             style="fill:#211f20;fill-opacity:1;fill-rule:nonzero;stroke:none"
             id="path116" />
        </g>
        <g
           id="g118"
           transform="translate(870.7756,490.7422)">
          <path
             d="M 0,0 V 98.516 H 21.695 L 34.249,23.469 h 0.272 L 47.075,98.516 H 68.224 V 0 H 55.398 V 88.691 L 41.303,0 H 27.483 L 12.007,88.691 V 0 Z"
             style="fill:#211f20;fill-opacity:1;fill-rule:nonzero;stroke:none"
             id="path120" />
        </g>
      </g>
    </g>
  </g>
</svg>
