<?xml version="1.0" encoding="UTF-8"?>
<svg id="Layer_1" data-name="Layer 1" xmlns="http://www.w3.org/2000/svg" xmlns:xlink="http://www.w3.org/1999/xlink" version="1.1" viewBox="0 0 1000 325">
  <defs>
    <style>
      .cls-1 {
        fill: url(#New_Gradient_Swatch-8);
      }

      .cls-1, .cls-2, .cls-3, .cls-4, .cls-5, .cls-6, .cls-7, .cls-8, .cls-9, .cls-10, .cls-11, .cls-12, .cls-13, .cls-14, .cls-15, .cls-16, .cls-17, .cls-18, .cls-19, .cls-20, .cls-21, .cls-22, .cls-23, .cls-24, .cls-25, .cls-26, .cls-27, .cls-28, .cls-29, .cls-30, .cls-31, .cls-32, .cls-33, .cls-34, .cls-35, .cls-36, .cls-37, .cls-38, .cls-39, .cls-40, .cls-41, .cls-42, .cls-43, .cls-44, .cls-45, .cls-46, .cls-47, .cls-48, .cls-49, .cls-50, .cls-51, .cls-52, .cls-53, .cls-54, .cls-55, .cls-56, .cls-57, .cls-58, .cls-59, .cls-60 {
        stroke-width: 0px;
      }

      .cls-2 {
        fill: url(#New_Gradient_Swatch-6);
      }

      .cls-3 {
        fill: url(#New_Gradient_Swatch-7);
      }

      .cls-4 {
        fill: url(#New_Gradient_Swatch-4);
      }

      .cls-5 {
        fill: url(#New_Gradient_Swatch-5);
      }

      .cls-6 {
        fill: url(#New_Gradient_Swatch-9);
      }

      .cls-7 {
        fill: url(#New_Gradient_Swatch-2);
      }

      .cls-8 {
        fill: url(#New_Gradient_Swatch-3);
      }

      .cls-9 {
        fill: #959595;
      }

      .cls-10 {
        fill: url(#New_Gradient_Swatch);
      }

      .cls-11 {
        fill: url(#New_Gradient_Swatch-13);
      }

      .cls-12 {
        fill: url(#New_Gradient_Swatch-10);
      }

      .cls-13 {
        fill: url(#New_Gradient_Swatch-19);
      }

      .cls-14 {
        fill: url(#New_Gradient_Swatch-12);
      }

      .cls-15 {
        fill: url(#New_Gradient_Swatch-11);
      }

      .cls-16 {
        fill: url(#New_Gradient_Swatch-14);
      }

      .cls-17 {
        fill: url(#New_Gradient_Swatch-18);
      }

      .cls-18 {
        fill: url(#New_Gradient_Swatch-17);
      }

      .cls-19 {
        fill: url(#New_Gradient_Swatch-16);
      }

      .cls-20 {
        fill: url(#New_Gradient_Swatch-15);
      }

      .cls-21 {
        fill: url(#New_Gradient_Swatch-56);
      }

      .cls-22 {
        fill: url(#New_Gradient_Swatch-58);
      }

      .cls-23 {
        fill: url(#New_Gradient_Swatch-57);
      }

      .cls-24 {
        fill: url(#New_Gradient_Swatch-53);
      }

      .cls-25 {
        fill: url(#New_Gradient_Swatch-54);
      }

      .cls-26 {
        fill: url(#New_Gradient_Swatch-51);
      }

      .cls-27 {
        fill: url(#New_Gradient_Swatch-59);
      }

      .cls-28 {
        fill: url(#New_Gradient_Swatch-52);
      }

      .cls-29 {
        fill: url(#New_Gradient_Swatch-55);
      }

      .cls-30 {
        fill: url(#New_Gradient_Swatch-50);
      }

      .cls-31 {
        fill: url(#New_Gradient_Swatch-29);
      }

      .cls-32 {
        fill: url(#New_Gradient_Swatch-26);
      }

      .cls-33 {
        fill: url(#New_Gradient_Swatch-21);
      }

      .cls-34 {
        fill: url(#New_Gradient_Swatch-24);
      }

      .cls-35 {
        fill: url(#New_Gradient_Swatch-25);
      }

      .cls-36 {
        fill: url(#New_Gradient_Swatch-27);
      }

      .cls-37 {
        fill: url(#New_Gradient_Swatch-23);
      }

      .cls-38 {
        fill: url(#New_Gradient_Swatch-28);
      }

      .cls-39 {
        fill: url(#New_Gradient_Swatch-22);
      }

      .cls-40 {
        fill: url(#New_Gradient_Swatch-20);
      }

      .cls-41 {
        fill: url(#New_Gradient_Swatch-33);
      }

      .cls-42 {
        fill: url(#New_Gradient_Swatch-32);
      }

      .cls-43 {
        fill: url(#New_Gradient_Swatch-35);
      }

      .cls-44 {
        fill: url(#New_Gradient_Swatch-31);
      }

      .cls-45 {
        fill: url(#New_Gradient_Swatch-46);
      }

      .cls-46 {
        fill: url(#New_Gradient_Swatch-47);
      }

      .cls-47 {
        fill: url(#New_Gradient_Swatch-34);
      }

      .cls-48 {
        fill: url(#New_Gradient_Swatch-37);
      }

      .cls-49 {
        fill: url(#New_Gradient_Swatch-30);
      }

      .cls-50 {
        fill: url(#New_Gradient_Swatch-38);
      }

      .cls-51 {
        fill: url(#New_Gradient_Swatch-39);
      }

      .cls-52 {
        fill: url(#New_Gradient_Swatch-36);
      }

      .cls-53 {
        fill: url(#New_Gradient_Swatch-40);
      }

      .cls-54 {
        fill: url(#New_Gradient_Swatch-41);
      }

      .cls-55 {
        fill: url(#New_Gradient_Swatch-42);
      }

      .cls-56 {
        fill: url(#New_Gradient_Swatch-48);
      }

      .cls-57 {
        fill: url(#New_Gradient_Swatch-49);
      }

      .cls-58 {
        fill: url(#New_Gradient_Swatch-44);
      }

      .cls-59 {
        fill: url(#New_Gradient_Swatch-45);
      }

      .cls-60 {
        fill: url(#New_Gradient_Swatch-43);
      }
    </style>
    <linearGradient id="New_Gradient_Swatch" data-name="New Gradient Swatch" x1="-.54209" y1="162.5" x2="706.5512864" y2="162.5" gradientUnits="userSpaceOnUse">
      <stop offset="0" stop-color="#ed1846"/>
      <stop offset=".0870934" stop-color="#e4274c"/>
      <stop offset=".2431" stop-color="#cf3e59"/>
      <stop offset=".4499" stop-color="#ab556f"/>
      <stop offset=".6999" stop-color="#75678f"/>
      <stop offset=".9837" stop-color="#0075b8"/>
      <stop offset="1" stop-color="#0076bb"/>
    </linearGradient>
    <linearGradient id="New_Gradient_Swatch-2" data-name="New Gradient Swatch" x1="-.54209" y1="178.996545" x2="706.5512864" y2="178.996545" xlink:href="#New_Gradient_Swatch"/>
    <linearGradient id="New_Gradient_Swatch-3" data-name="New Gradient Swatch" x1="-6.9934644" y1="94.1199512" x2="868.5689354" y2="94.1199512" xlink:href="#New_Gradient_Swatch"/>
    <linearGradient id="New_Gradient_Swatch-4" data-name="New Gradient Swatch" x1="-.54209" y1="96.2849843" x2="706.5512864" y2="96.2849843" xlink:href="#New_Gradient_Swatch"/>
    <linearGradient id="New_Gradient_Swatch-5" data-name="New Gradient Swatch" x1="-6.9934644" y1="96.2849843" x2="868.5689354" y2="96.2849843" xlink:href="#New_Gradient_Swatch"/>
    <linearGradient id="New_Gradient_Swatch-6" data-name="New Gradient Swatch" x1="-63.560337" y1="30.6004608" x2="812.0481718" y2="30.6004608" xlink:href="#New_Gradient_Swatch"/>
    <linearGradient id="New_Gradient_Swatch-7" data-name="New Gradient Swatch" x1="-.54209" y1="38.5435909" x2="706.5512864" y2="38.5435909" xlink:href="#New_Gradient_Swatch"/>
    <linearGradient id="New_Gradient_Swatch-8" data-name="New Gradient Swatch" x1="-63.560337" y1="38.5435909" x2="812.0481718" y2="38.5435909" xlink:href="#New_Gradient_Swatch"/>
    <linearGradient id="New_Gradient_Swatch-9" data-name="New Gradient Swatch" x1="-69.8046265" y1="265.6270257" x2="805.7577733" y2="265.6270257" xlink:href="#New_Gradient_Swatch"/>
    <linearGradient id="New_Gradient_Swatch-10" data-name="New Gradient Swatch" x1="-.54209" y1="261.1897541" x2="706.5512864" y2="261.1897541" xlink:href="#New_Gradient_Swatch"/>
    <linearGradient id="New_Gradient_Swatch-11" data-name="New Gradient Swatch" x1="-69.8046265" y1="261.1897541" x2="805.7577733" y2="261.1897541" xlink:href="#New_Gradient_Swatch"/>
    <linearGradient id="New_Gradient_Swatch-12" data-name="New Gradient Swatch" x1="-17.2920168" y1="286.9768177" x2="858.270383" y2="286.9768177" xlink:href="#New_Gradient_Swatch"/>
    <linearGradient id="New_Gradient_Swatch-13" data-name="New Gradient Swatch" x1="-.54209" y1="280.0851192" x2="706.5512864" y2="280.0851192" xlink:href="#New_Gradient_Swatch"/>
    <linearGradient id="New_Gradient_Swatch-14" data-name="New Gradient Swatch" x1="-17.2920168" y1="280.0851192" x2="858.270383" y2="280.0851192" xlink:href="#New_Gradient_Swatch"/>
    <linearGradient id="New_Gradient_Swatch-15" data-name="New Gradient Swatch" x1="-.54209" y1="130.7160312" x2="706.5512864" y2="130.7160312" xlink:href="#New_Gradient_Swatch"/>
    <linearGradient id="New_Gradient_Swatch-16" data-name="New Gradient Swatch" x1="-.54209" y1="135.6301924" x2="706.5512864" y2="135.6301924" xlink:href="#New_Gradient_Swatch"/>
    <linearGradient id="New_Gradient_Swatch-17" data-name="New Gradient Swatch" x1="-.54209" y1="135.6301924" x2="706.5512864" y2="135.6301924" xlink:href="#New_Gradient_Swatch"/>
    <linearGradient id="New_Gradient_Swatch-18" data-name="New Gradient Swatch" x1="-.54209" y1="135.6301924" x2="706.5512864" y2="135.6301924" xlink:href="#New_Gradient_Swatch"/>
    <linearGradient id="New_Gradient_Swatch-19" data-name="New Gradient Swatch" x1="-.54209" y1="135.2056166" x2="706.5512864" y2="135.2056166" xlink:href="#New_Gradient_Swatch"/>
    <linearGradient id="New_Gradient_Swatch-20" data-name="New Gradient Swatch" x1="-.54209" y1="135.1752898" x2="706.5512864" y2="135.1752898" xlink:href="#New_Gradient_Swatch"/>
    <linearGradient id="New_Gradient_Swatch-21" data-name="New Gradient Swatch" x1="-.54209" y1="135.6301924" x2="706.5512864" y2="135.6301924" xlink:href="#New_Gradient_Swatch"/>
    <linearGradient id="New_Gradient_Swatch-22" data-name="New Gradient Swatch" x1="-.54209" y1="135.1752898" x2="706.5512864" y2="135.1752898" xlink:href="#New_Gradient_Swatch"/>
    <linearGradient id="New_Gradient_Swatch-23" data-name="New Gradient Swatch" x1="-.54209" y1="135.6301924" x2="706.5512864" y2="135.6301924" xlink:href="#New_Gradient_Swatch"/>
    <linearGradient id="New_Gradient_Swatch-24" data-name="New Gradient Swatch" x1="-.54209" y1="135.6301924" x2="706.5512864" y2="135.6301924" xlink:href="#New_Gradient_Swatch"/>
    <linearGradient id="New_Gradient_Swatch-25" data-name="New Gradient Swatch" x1="-.54209" y1="130.7160312" x2="706.5512864" y2="130.7160312" xlink:href="#New_Gradient_Swatch"/>
    <linearGradient id="New_Gradient_Swatch-26" data-name="New Gradient Swatch" x1="-.54209" y1="127.5001731" x2="706.5512864" y2="127.5001731" xlink:href="#New_Gradient_Swatch"/>
    <linearGradient id="New_Gradient_Swatch-27" data-name="New Gradient Swatch" x1="-.54209" y1="135.6301924" x2="706.5512864" y2="135.6301924" xlink:href="#New_Gradient_Swatch"/>
    <linearGradient id="New_Gradient_Swatch-28" data-name="New Gradient Swatch" x1="-.54209" y1="128.7745069" x2="706.5512864" y2="128.7745069" xlink:href="#New_Gradient_Swatch"/>
    <linearGradient id="New_Gradient_Swatch-29" data-name="New Gradient Swatch" x1="-.54209" y1="198.9708302" x2="706.5512864" y2="198.9708302" xlink:href="#New_Gradient_Swatch"/>
    <linearGradient id="New_Gradient_Swatch-30" data-name="New Gradient Swatch" x1="-.54209" y1="198.9708302" x2="706.5512864" y2="198.9708302" xlink:href="#New_Gradient_Swatch"/>
    <linearGradient id="New_Gradient_Swatch-31" data-name="New Gradient Swatch" x1="-.54209" y1="203.8849914" x2="706.5512864" y2="203.8849914" xlink:href="#New_Gradient_Swatch"/>
    <linearGradient id="New_Gradient_Swatch-32" data-name="New Gradient Swatch" x1="-.54209" y1="203.4300888" x2="706.5512864" y2="203.4300888" xlink:href="#New_Gradient_Swatch"/>
    <linearGradient id="New_Gradient_Swatch-33" data-name="New Gradient Swatch" x1="-.54209" y1="210.043766" x2="706.5512864" y2="210.043766" xlink:href="#New_Gradient_Swatch"/>
    <linearGradient id="New_Gradient_Swatch-34" data-name="New Gradient Swatch" x1="-.54209" y1="197.4848151" x2="706.5512864" y2="197.4848151" xlink:href="#New_Gradient_Swatch"/>
    <linearGradient id="New_Gradient_Swatch-35" data-name="New Gradient Swatch" x1="-.54209" y1="195.7549721" x2="706.5512864" y2="195.7549721" xlink:href="#New_Gradient_Swatch"/>
    <linearGradient id="New_Gradient_Swatch-36" data-name="New Gradient Swatch" x1="-.54209" y1="203.8849914" x2="706.5512864" y2="203.8849914" xlink:href="#New_Gradient_Swatch"/>
    <linearGradient id="New_Gradient_Swatch-37" data-name="New Gradient Swatch" x1="-.54209" y1="203.4300888" x2="706.5512864" y2="203.4300888" xlink:href="#New_Gradient_Swatch"/>
    <linearGradient id="New_Gradient_Swatch-38" data-name="New Gradient Swatch" x1="-.54209" y1="203.8849914" x2="706.5512864" y2="203.8849914" xlink:href="#New_Gradient_Swatch"/>
    <linearGradient id="New_Gradient_Swatch-39" data-name="New Gradient Swatch" x1="-.54209" y1="203.8849914" x2="706.5512864" y2="203.8849914" xlink:href="#New_Gradient_Swatch"/>
    <linearGradient id="New_Gradient_Swatch-40" data-name="New Gradient Swatch" x1="-.54209" y1="267.2280554" x2="706.5512864" y2="267.2280554" xlink:href="#New_Gradient_Swatch"/>
    <linearGradient id="New_Gradient_Swatch-41" data-name="New Gradient Swatch" x1="-.54209" y1="278.3009912" x2="706.5512864" y2="278.3009912" xlink:href="#New_Gradient_Swatch"/>
    <linearGradient id="New_Gradient_Swatch-42" data-name="New Gradient Swatch" x1="-.54209" y1="272.1422165" x2="706.5512864" y2="272.1422165" xlink:href="#New_Gradient_Swatch"/>
    <linearGradient id="New_Gradient_Swatch-43" data-name="New Gradient Swatch" x1="-.54209" y1="272.1422165" x2="706.5512864" y2="272.1422165" xlink:href="#New_Gradient_Swatch"/>
    <linearGradient id="New_Gradient_Swatch-44" data-name="New Gradient Swatch" x1="-.54209" y1="264.0121973" x2="706.5512864" y2="264.0121973" xlink:href="#New_Gradient_Swatch"/>
    <linearGradient id="New_Gradient_Swatch-45" data-name="New Gradient Swatch" x1="-.54209" y1="272.1422165" x2="706.5512864" y2="272.1422165" xlink:href="#New_Gradient_Swatch"/>
    <linearGradient id="New_Gradient_Swatch-46" data-name="New Gradient Swatch" x1="-.54209" y1="265.7408271" x2="706.5512864" y2="265.7408271" xlink:href="#New_Gradient_Swatch"/>
    <linearGradient id="New_Gradient_Swatch-47" data-name="New Gradient Swatch" x1="-.54209" y1="267.2280554" x2="706.5512864" y2="267.2280554" xlink:href="#New_Gradient_Swatch"/>
    <linearGradient id="New_Gradient_Swatch-48" data-name="New Gradient Swatch" x1="-.54209" y1="271.6873139" x2="706.5512864" y2="271.6873139" xlink:href="#New_Gradient_Swatch"/>
    <linearGradient id="New_Gradient_Swatch-49" data-name="New Gradient Swatch" x1="-.54209" y1="268.5927632" x2="706.5512864" y2="268.5927632" xlink:href="#New_Gradient_Swatch"/>
    <linearGradient id="New_Gradient_Swatch-50" data-name="New Gradient Swatch" x1="-.54209" y1="272.1422165" x2="706.5512864" y2="272.1422165" xlink:href="#New_Gradient_Swatch"/>
    <linearGradient id="New_Gradient_Swatch-51" data-name="New Gradient Swatch" x1="-.54209" y1="271.7176408" x2="706.5512864" y2="271.7176408" xlink:href="#New_Gradient_Swatch"/>
    <linearGradient id="New_Gradient_Swatch-52" data-name="New Gradient Swatch" x1="-.54209" y1="272.1422165" x2="706.5512864" y2="272.1422165" xlink:href="#New_Gradient_Swatch"/>
    <linearGradient id="New_Gradient_Swatch-53" data-name="New Gradient Swatch" x1="-.54209" y1="272.1422165" x2="706.5512864" y2="272.1422165" xlink:href="#New_Gradient_Swatch"/>
    <linearGradient id="New_Gradient_Swatch-54" data-name="New Gradient Swatch" x1="-.54209" y1="268.5927632" x2="706.5512864" y2="268.5927632" xlink:href="#New_Gradient_Swatch"/>
    <linearGradient id="New_Gradient_Swatch-55" data-name="New Gradient Swatch" x1="-.54209" y1="267.2280554" x2="706.5512864" y2="267.2280554" xlink:href="#New_Gradient_Swatch"/>
    <linearGradient id="New_Gradient_Swatch-56" data-name="New Gradient Swatch" x1="-.54209" y1="271.7176408" x2="706.5512864" y2="271.7176408" xlink:href="#New_Gradient_Swatch"/>
    <linearGradient id="New_Gradient_Swatch-57" data-name="New Gradient Swatch" x1="-.54209" y1="272.1422165" x2="706.5512864" y2="272.1422165" xlink:href="#New_Gradient_Swatch"/>
    <linearGradient id="New_Gradient_Swatch-58" data-name="New Gradient Swatch" x1="-.54209" y1="272.5971191" x2="706.5512864" y2="272.5971191" xlink:href="#New_Gradient_Swatch"/>
    <linearGradient id="New_Gradient_Swatch-59" data-name="New Gradient Swatch" x1="-.54209" y1="278.3009912" x2="706.5512864" y2="278.3009912" xlink:href="#New_Gradient_Swatch"/>
  </defs>
  <g>
    <path class="cls-10" d="M262.6979365,263.5433443c0-15.1461337,12.3220983-27.4683836,27.468232-27.4683836,6.1675694,0,11.8474833,2.0679872,16.4374505,5.5132679,13.5846047-23.2277816,21.4046836-50.2374718,21.4046836-79.0883044,0-42.731124-17.1010018-81.4515234-44.8048733-109.7510141-4.9663233,4.9214396-11.7925917,7.9694386-19.3203199,7.9694386-15.1461337,0-27.468232-12.3220983-27.468232-27.468232,0-4.3553891,1.0459727-8.4619465,2.8580014-12.124519-20.6225544-9.9661578-43.7555646-15.5566074-68.1956617-15.5566074-53.0480117,0-99.9135937,26.3479585-128.3189251,66.6429275,1.1002578.8063907,2.1647298,1.6717671,3.1500489,2.6488978,5.2210688,5.1770948,8.0963565,12.1060196,8.0960532,19.5100143,0,15.1461337-12.3220983,27.468232-27.468232,27.468232-2.3466909,0-4.6130156-.3275299-6.7889664-.8838757-3.6261802,13.2370591-5.6010641,27.1567753-5.6010641,41.544738,0,38.7765041,14.0931858,74.242227,37.3981492,101.6266053,4.8535075-4.315661,11.2221438-6.9622843,18.2124804-6.9622843,15.1461337,0,27.468232,12.32225,27.468232,27.468232,0,5.1707262-1.4626635,9.9945134-3.9567428,14.1291231,22.9392217,13.1275792,49.4855178,20.6694094,77.8089666,20.6694094,38.0535122,0,72.9378696-13.550487,100.1067757-36.0812062-5.2180361-5.0028671-8.4860563-12.0239855-8.4860563-19.8064592ZM138.0985983,92.4265762c0-6.8302109,5.5367712-12.3671337,12.366982-12.3671337h41.2235768c6.8302109,0,12.3672853,5.5369228,12.3672853,12.3671337v8.2448063c0,6.8302109-5.5370744,12.3671337-12.3672853,12.3671337h-41.2235768c-6.8302109,0-12.366982-5.5369228-12.366982-12.3671337v-8.2448063ZM245.2803225,195.4720227c0,23.3193687,0,34.9791288-7.2447788,42.2239076-7.2447788,7.2446272-18.9042357,7.2446272-42.2237559,7.2446272h-49.4685347c-23.3198236,0-34.9795837,0-42.2240592-7.2446272-7.2444755-7.2447788-7.2444755-18.9045389-7.2444755-42.2239076v-49.468838c0-23.3196719,0-34.9795837,7.2444755-42.2240592,4.693685-4.693685,11.2409465-6.3463462,21.6121192-6.9281666v3.8204237c0,13.6602701,11.0738456,24.7342674,24.7342674,24.7342674h41.2235768c13.6610283,0,24.7345706-11.0739972,24.7345706-24.7342674v-3.8204237c10.3708694.5818204,16.9181309,2.2344816,21.6118159,6.9281666,7.2447788,7.2444755,7.2447788,18.9043873,7.2447788,42.2240592v49.468838Z"/>
    <path class="cls-7" d="M191.5927178,157.9863806l-31.115641,29.0412852-9.9147538-9.2537803c-2.4965055-2.3300111-6.4092743-2.1947534-8.7395887.3017521s-2.1953599,6.409426.3014488,8.7394371l14.1332172,13.1915688c2.3761079,2.2170436,6.0632451,2.2170436,8.4384432,0l35.334711-32.9790737c2.4974153-2.3300111,2.6314599-6.2429316.3017521-8.7394371-2.3300111-2.4965055-6.2430833-2.6316115-8.7395887-.3017521Z"/>
    <path class="cls-8" d="M7.9333753,94.3708299c0,8.7652149,6.1945603,16.1755782,14.4058555,18.1010293,3.9091297-11.6264006,9.1271657-22.6453546,15.5067198-32.8755075-3.14459-2.4006726-7.0643341-3.8283086-11.3097884-3.8283086-10.2086209,0-18.6027869,8.3938628-18.6027869,18.6027869Z"/>
    <path class="cls-4" d="M26.5361621,112.9736168c10.2089241,0,18.6027869-8.3938628,18.6027869-18.6027869,0-6.0958465-2.8761975-11.4024369-7.2929985-14.7744782-6.379554,10.2301529-11.5975901,21.2491069-15.5067198,32.8755075,1.3522738.3170671,2.7530705.5017576,4.1969314.5017576Z"/>
    <path class="cls-5" d="M26.5361621,112.9736168c10.2089241,0,18.6027869-8.3938628,18.6027869-18.6027869,0-6.0958465-2.8761975-11.4024369-7.2929985-14.7744782-6.379554,10.2301529-11.5975901,21.2491069-15.5067198,32.8755075,1.3522738.3170671,2.7530705.5017576,4.1969314.5017576Z"/>
    <path class="cls-2" d="M247.1399643,25.2342781c10.7238739,5.9551299,20.6871506,13.1116576,29.681788,21.3193136,3.4818245-3.3884178,5.6641439-8.1069708,5.6641439-13.3034749,0-10.4357689-8.3938628-18.6027869-18.6027869-18.6027869-7.3418247,0-13.7256245,4.3517499-16.7431451,10.5869482Z"/>
    <path class="cls-3" d="M245.2803225,33.2501168c0,10.2089241,8.3938628,18.6027869,18.6027869,18.6027869,5.0124201,0,9.5799455-2.0311401,12.938643-5.299312-8.9946375-8.207656-18.9579142-15.3641836-29.681788-21.3193136-1.178501,2.4352452-1.8596418,5.1485876-1.8596418,8.0158387Z"/>
    <path class="cls-1" d="M245.2803225,33.2501168c0,10.2089241,8.3938628,18.6027869,18.6027869,18.6027869,5.0124201,0,9.5799455-2.0311401,12.938643-5.299312-8.9946375-8.207656-18.9579142-15.3641836-29.681788-21.3193136-1.178501,2.4352452-1.8596418,5.1485876-1.8596418,8.0158387Z"/>
    <path class="cls-6" d="M301.9338922,249.1079202c-6.8829796,10.3786028-14.9681151,19.8830344-24.0555527,28.3310306,3.2883393,2.9147126,7.5892917,4.7071805,12.287829,4.7071805,10.2089241,0,18.6027869-8.3938628,18.6027869-18.6027869,0-5.8875011-2.6730077-11.0512521-6.8350632-14.4354242Z"/>
    <path class="cls-12" d="M301.9338922,249.1079202c-3.2152516-2.6143252-7.318473-4.1673627-11.7677237-4.1673627-10.2089241,0-18.6027869,8.3938628-18.6027869,18.6027869,0,5.5103868,2.4585969,10.4774683,6.3149579,13.8956064,9.0874376-8.4479962,17.1725731-17.9524278,24.0555527-28.3310306Z"/>
    <path class="cls-15" d="M301.9338922,249.1079202c-3.2152516-2.6143252-7.318473-4.1673627-11.7677237-4.1673627-10.2089241,0-18.6027869,8.3938628-18.6027869,18.6027869,0,5.5103868,2.4585969,10.4774683,6.3149579,13.8956064,9.0874376-8.4479962,17.1725731-17.9524278,24.0555527-28.3310306Z"/>
    <path class="cls-14" d="M85.6926059,294.140548c-10.3020275-6.695863-19.7612722-14.5644649-28.2030513-23.4223283-3.8681884,3.4187447-6.3355801,8.3940144-6.3355801,13.9142574,0,10.2089241,8.3938628,18.6029385,18.6027869,18.6029385,6.7401402,0,12.6714635-3.6706091,15.9358446-9.0948677Z"/>
    <path class="cls-11" d="M85.6926059,294.140548c1.6801069-2.7915856,2.6669423-6.0391353,2.6669423-9.5080709,0-10.4356172-8.3938628-18.6027869-18.6027869-18.6027869-4.6888327,0-8.9815969,1.7847345-12.2672067,4.6885295,8.4417792,8.8578634,17.9010238,16.7264653,28.2030513,23.4223283Z"/>
    <path class="cls-16" d="M85.6926059,294.140548c1.6801069-2.7915856,2.6669423-6.0391353,2.6669423-9.5080709,0-10.4356172-8.3938628-18.6027869-18.6027869-18.6027869-4.6888327,0-8.9815969,1.7847345-12.2672067,4.6885295,8.4417792,8.8578634,17.9010238,16.7264653,28.2030513,23.4223283Z"/>
  </g>
  <g>
    <g>
      <path class="cls-20" d="M411.3537371,110.0877147c2.1253049.8297423,4.136581,2.0537336,6.0386804,3.6707607l-4.3088374,4.4895854c-1.4969328-1.1730422-2.901672-2.0221937-4.2166438-2.5486676-1.3149718-.5252609-2.8410184-.7884978-4.5805659-.7884978-3.2364804,0-5.8858331,1.2955626-7.9480582,3.8830486-2.0622251,2.5886991-3.0933377,6.5530236-3.0933377,11.8917605,0,5.5813516.8176116,9.6063298,2.455261,12.0737215,1.6400755,2.4673917,4.136581,3.7010875,7.4943687,3.7010875,2.5474546,0,4.7722315-.5458831,6.6743309-1.6388624v-10.9200885h-6.3104089l-.8491515-5.9464868h15.0469649v20.5070092c-4.532043,2.7512509-9.345519,4.1256633-14.4404281,4.1256633-5.9877313,0-10.5682972-1.8596418-13.7416977-5.5813516-3.1758267-3.7204967-4.7625269-9.1611318-4.7625269-16.3206922,0-4.5708613.8588561-8.5036459,2.5765683-11.8007799,1.7201384-3.295921,4.0346828-5.7936395,6.9484856-7.4931556,2.9113766-1.698303,6.147857-2.5474546,9.7070149-2.5474546,2.7488248,0,5.1871027.4148712,7.3099815,1.2434004Z"/>
      <path class="cls-19" d="M449.7596472,123.1925488c2.6469266,3.0132748,3.9740291,7.1498558,3.9740291,12.4073167,0,3.3577877-.6065368,6.3201134-1.8196104,8.8881902-1.2154997,2.5692899-2.9550473,4.5611567-5.2186426,5.9768136-2.2660215,1.4144438-4.9566187,2.1228788-8.0693656,2.1228788-4.7334132,0-8.4332876-1.5066374-11.1020496-4.5199122-2.6711881-3.0120617-4.005569-7.1680519-4.005569-12.4679704,0-3.3565746.6065368-6.3091958,1.8196104-8.8578634s2.9623257-4.5296168,5.2477564-5.9452737,4.9857325-2.1240919,8.1009055-2.1240919c4.730987,0,8.4235831,1.5078505,11.0729358,4.5199122ZM431.7091121,135.5998655c0,3.8029857.577423,6.6039727,1.7298429,8.4029608,1.1524199,1.8002012,2.8822629,2.7003018,5.1871027,2.7003018s4.0346828-.9098052,5.1871027-2.7306287c1.1524199-1.8196104,1.7298429-4.6108927,1.7298429-8.372634s-.577423-6.5421059-1.7298429-8.3423071c-1.1524199-1.7989881-2.8628537-2.7003018-5.126449-2.7003018-4.6509242,0-6.9775993,3.6816784-6.9775993,11.042609Z"/>
      <path class="cls-18" d="M486.4332882,119.5824418l-10.4348591,32.0955012h-9.2824392l-10.6168201-32.0955012h8.4332876l6.856292,25.8457461,7.0358269-25.8457461h8.0087119Z"/>
      <path class="cls-17" d="M517.0124474,138.0272258h-20.141874c.2426147,3.115173,1.0505217,5.3387369,2.4261472,6.6731179,1.3756255,1.335594,3.1952359,2.0027845,5.4612573,2.0027845,1.4144438,0,2.7512509-.2329101,4.0031429-.6975173,1.2543181-.4646072,2.5886991-1.1839598,4.005569-2.1544187l3.214645,4.4289317c-3.5591579,2.8725583-7.5234824,4.3076243-11.8905474,4.3076243-4.8935389,0-8.6661978-1.4957197-11.3155505-4.4895854-2.6493527-2.9926526-3.9740291-7.0770714-3.9740291-12.2556825,0-3.2765118.5652923-6.2182153,1.698303-8.8275366,1.1330107-2.6093213,2.7706601-4.6509242,4.9153742-6.1272347,2.142288-1.4763106,4.6921687-2.2150724,7.6447898-2.2150724,4.4883723,0,7.9674674,1.4253615,10.4348591,4.2772975s3.7023006,6.8259651,3.7023006,11.9220873c0,.4051666-.0630798,1.4556883-.1843872,3.1552044ZM509.4913911,132.6266222c0-5.621383-2.0840604-8.4332876-6.2497552-8.4332876-1.9020994,0-3.3893276.6987304-4.4592585,2.093765-1.0723571,1.3950346-1.7104338,3.6307293-1.911804,6.7034447h12.6208177v-.3639221Z"/>
      <path class="cls-13" d="M543.2221155,119.157866l-1.334381,7.5234824c-.9704589-.2426147-1.9215086-.3639221-2.850723-.3639221-1.9020994,0-3.3990322.6781081-4.4907985,2.0318983-1.0917662,1.3562163-1.9627531,3.428146-2.6081082,6.2194283v17.10919h-7.7660972v-32.0955012h6.7349846l.7278442,6.3104089c.7666625-2.3060529,1.8802641-4.0747142,3.3359524-5.3096231,1.4556883-1.2324828,3.1345822-1.8499372,5.0366816-1.8499372,1.1718291,0,2.2441862.1419296,3.214645.4245758Z"/>
      <path class="cls-40" d="M571.8894708,121.251631c1.598831,1.7189253,2.3970334,4.1159587,2.3970334,7.1886741v23.2376378h-7.7660972v-22.0233511c0-1.9008863-.3323822-3.2364804-1.0019988-4.0043559-.6671905-.7678756-1.6473539-1.153633-2.9404904-1.153633-1.3368071,0-2.5401761.4160842-3.610107,1.2446135-1.0723571.8297423-2.1156004,2.0318983-3.1248776,3.610107v22.3266195h-7.7660972v-32.0955012h6.7349846l.6065368,4.186317c2.6275174-3.3978191,5.8834069-5.0961222,9.7676686-5.0961222,2.8701321,0,5.1046137.8600692,6.7034447,2.5789945Z"/>
      <path class="cls-33" d="M607.6241928,145.9449572c.3857574.5859145,1.0019988,1.0408171,1.8511503,1.3647078l-1.6376494,5.1567759c-1.8196104-.1613388-3.3068386-.6065368-4.4592585-1.334381s-2.0331113-1.8402326-2.6396481-3.3371655c-1.0917662,1.6182402-2.4576871,2.8216092-4.0953365,3.610107s-3.4693905,1.1827468-5.4903711,1.1827468c-3.1952359,0-5.7257074-.9098052-7.5841361-2.7294156-1.8608549-1.8208235-2.7900693-4.2069392-2.7900693-7.1595604,0-3.477882,1.2615965-6.1369393,3.7896419-7.978385,2.5280454-1.8402326,6.1381524-2.7609555,10.8303211-2.7609555h4.005569v-1.8196104c0-2.0634382-.4755248-3.5082088-1.4265745-4.3379512-.9510497-.8285293-2.4770963-1.2446135-4.5805659-1.2446135-2.3460843,0-5.1773981.5677184-8.4939413,1.6995161l-1.8196104-5.2780832c4.0031429-1.5369642,7.8874045-2.3060529,11.6479327-2.3060529,8.2100821,0,12.3175493,3.6804653,12.3175493,11.042609v13.4687561c0,1.2543181.1916656,2.175041.5749969,2.7609555ZM599.4044061,143.0020406v-6.4923699h-3.2170712c-5.0148462,0-7.5234824,1.8608549-7.5234824,5.5825647,0,1.5369642.3857574,2.7294156,1.1548461,3.5797802.7666625.8491515,1.8996733,1.2737273,3.3966061,1.2737273,2.6299436,0,4.6921687-1.3137587,6.1891015-3.9437023Z"/>
      <path class="cls-39" d="M640.2655771,121.251631c1.598831,1.7189253,2.3970334,4.1159587,2.3970334,7.1886741v23.2376378h-7.7660972v-22.0233511c0-1.9008863-.3323822-3.2364804-1.0019988-4.0043559-.6671905-.7678756-1.6473539-1.153633-2.9404904-1.153633-1.3368071,0-2.5401761.4160842-3.610107,1.2446135-1.0723571.8297423-2.1156004,2.0318983-3.1248776,3.610107v22.3266195h-7.7660972v-32.0955012h6.7349846l.6065368,4.186317c2.6275174-3.3978191,5.8834069-5.0961222,9.7676686-5.0961222,2.8701321,0,5.1046137.8600692,6.7034447,2.5789945Z"/>
      <path class="cls-37" d="M670.2988532,119.5824418c1.6764677.6065368,3.2655941,1.5575865,4.7625269,2.851936l-3.4596859,4.6715464c-1.0917662-.8091201-2.1447141-1.3950346-3.1539914-1.7589567-1.0117034-.3639221-2.1228788-.5470962-3.3383785-.5470962-4.813476,0-7.2177879,3.6622692-7.2177879,10.9819553,0,3.7217098.625946,6.4013894,1.8802641,8.0390387,1.251892,1.6376494,3.032684,2.4576871,5.3375238,2.4576871,1.1330107,0,2.1738279-.181961,3.1248776-.5458831.9510497-.3651352,2.0719297-.9498366,3.3674923-1.7601698l3.4596859,4.9141611c-3.0351101,2.4686048-6.4923699,3.7010875-10.3766315,3.7010875-3.0739285,0-5.7426904-.6781081-8.0087119-2.0318983-2.2635953-1.3550032-4.0031429-3.2862164-5.2162165-5.7948526-1.2130736-2.5074231-1.8196104-5.4600443-1.8196104-8.8578634s.6065368-6.4001763,1.8196104-9.0094976c1.2130736-2.6093213,2.9526211-4.631515,5.2162165-6.0665811,2.2660215-1.4362791,4.9153742-2.1544187,7.9480582-2.1544187,2.1034696,0,3.9958644.3032684,5.6747583.9098052Z"/>
      <path class="cls-34" d="M705.6381132,138.0272258h-20.141874c.2426147,3.115173,1.0505217,5.3387369,2.4261472,6.6731179,1.3756255,1.335594,3.1952359,2.0027845,5.4612573,2.0027845,1.4144438,0,2.7512509-.2329101,4.0031429-.6975173,1.2543181-.4646072,2.5886991-1.1839598,4.005569-2.1544187l3.214645,4.4289317c-3.5591579,2.8725583-7.5234824,4.3076243-11.8905474,4.3076243-4.8935389,0-8.6661978-1.4957197-11.3155505-4.4895854-2.6493527-2.9926526-3.9740291-7.0770714-3.9740291-12.2556825,0-3.2765118.5652923-6.2182153,1.698303-8.8275366s2.7706601-4.6509242,4.9153742-6.1272347c2.142288-1.4763106,4.6921687-2.2150724,7.6447898-2.2150724,4.4883723,0,7.9674674,1.4253615,10.4348591,4.2772975s3.7023006,6.8259651,3.7023006,11.9220873c0,.4051666-.0630798,1.4556883-.1843872,3.1552044ZM698.1170569,132.6266222c0-5.621383-2.0840604-8.4332876-6.2497552-8.4332876-1.9020994,0-3.3893276.6987304-4.4592585,2.093765-1.0723571,1.3950346-1.7104338,3.6307293-1.911804,6.7034447h12.6208177v-.3639221Z"/>
      <path class="cls-35" d="M741.3146077,134.8720214h-5.0949091v16.8059216h-8.0087119v-41.9238235h12.4970842c11.0826404,0,16.6239606,4.1050411,16.6239606,12.3163362,0,2.7912823-.6890258,5.0961222-2.0622251,6.9169456-1.3756255,1.8196104-3.5203396,3.295921-6.4317162,4.4289317l10.9807422,18.2616099h-9.2217855l-9.2824392-16.8059216ZM736.2196986,129.1087087h4.9736017c2.5474546,0,4.4786677-.5555877,5.7936395-1.6691893,1.3149718-1.1123885,1.9724577-2.901672,1.9724577-5.3690637,0-2.2648084-.6768951-3.9133754-2.0331113-4.944488-1.3537901-1.0323256-3.4887997-1.5478819-6.4001763-1.5478819h-4.3064113v13.5306229Z"/>
      <path class="cls-32" d="M772.4081101,104.6883242c.9098052.9098052,1.3659209,2.0318983,1.3659209,3.3662792,0,1.335594-.4561157,2.4479825-1.3659209,3.3371655-.9098052.890396-2.093765,1.335594-3.5494533,1.335594-1.41687,0-2.5789945-.445198-3.4887997-1.335594-.9098052-.8891829-1.3659209-2.0015714-1.3659209-3.3371655,0-1.334381.4561157-2.456474,1.3659209-3.3662792.9098052-.9110183,2.0719297-1.3659209,3.4887997-1.3659209,1.4556883,0,2.6396481.4549026,3.5494533,1.3659209ZM772.8035721,119.5824418v32.0955012h-7.7660972v-32.0955012h7.7660972Z"/>
      <path class="cls-36" d="M803.6835736,122.4950315l-3.032684,4.5502391c-2.7512509-1.7383345-5.4418482-2.6093213-8.0693656-2.6093213-1.5381773,0-2.7318417.2947769-3.5809933.8806914s-1.2737273,1.3647078-1.2737273,2.3351667c0,.7278442.181961,1.335594.5458831,1.8208235s1.021408.940132,1.9724577,1.3647078,2.3557889.9001006,4.2166438,1.4253615c3.4790951.9316405,6.0556634,2.1641233,7.7345573,3.7010875,1.6788939,1.5381773,2.5183408,3.6816784,2.5183408,6.4317162,0,3.1952359-1.2931365,5.6929544-3.8818355,7.4931556-2.5886991,1.7989881-5.8057702,2.6990888-9.6463612,2.6990888-2.6299436,0-5.026977-.4039535-7.1911003-1.2130736s-4.0346828-1.9202955-5.6116785-3.3371655l3.8842617-4.368278c2.7900693,2.1034696,5.7014459,3.1552044,8.736556,3.1552044,1.7371214,0,3.1248776-.3432998,4.1559901-1.0311126s1.5454558-1.6388624,1.5454558-2.851936c0-.9304274-.1916656-1.6691893-.5749969-2.2150724-.3857574-.5458831-1.0723571-1.0311126-2.0622251-1.4556883-.9922942-.4245758-2.5401761-.940132-4.6436457-1.5466688-3.2752987-.8891829-5.6820367-2.1337965-7.2177879-3.7314144-1.5381773-1.5976179-2.307266-3.5894848-2.307266-5.9768136,0-1.779579.5167694-3.3759838,1.5478819-4.7928538,1.0311126-1.4156569,2.4868009-2.5268323,4.3694911-3.3371655,1.8802641-.807907,4.0322566-1.2130736,6.46083-1.2130736,4.3282466,0,8.1300192,1.2737273,11.405318,3.8223949Z"/>
      <path class="cls-38" d="M818.7936183,105.8710709v45.8068721h-7.7660972v-44.9577206l7.7660972-.8491515ZM838.0256871,119.5824418l-10.6774738,14.1371597,11.7085864,17.9583415h-8.9185171l-11.0413959-17.5337658,10.7381275-14.5617355h8.1906729Z"/>
      <path class="cls-31" d="M407.2899406,178.3121869c1.8390196.807907,3.2558895,1.9312132,4.2457576,3.3674923.9922942,1.4362791,1.4872282,3.0642239,1.4872282,4.8838343,0,2.3873288-.7181396,4.4592585-2.1544187,6.2182153s-3.4669643,3.4693905-6.0969079,5.126449l9.3430928,8.7972097c1.334381-2.9113766,2.406738-6.065368,3.2170712-9.4644002l6.7325585,2.0015714c-1.4969328,4.532043-3.3359524,8.3944693-5.5194849,11.5897051l7.0989067,6.4317162-6.2497552,3.5785671-5.2792963-5.0973353c-3.6392208,3.3990322-8.0887747,5.0973353-13.3486619,5.0973353-2.8313138,0-5.3278192-.4755248-7.4919425-1.4265745-2.1641233-.9486236-3.8527217-2.3048398-5.0657953-4.0637965s-1.8196104-3.7920681-1.8196104-6.0969079c0-2.4673917.6865997-4.6218104,2.0622251-6.4632561,1.3756255-1.8390196,3.4790951-3.6707607,6.3104089-5.4903711-2.1034696-2.0622251-3.610107-3.840591-4.5199122-5.3375238s-1.3659209-3.1952359-1.3659209-5.0973353c0-1.7783659.4561157-3.4063107,1.3659209-4.8838343.9098052-1.4750975,2.2635953-2.6590573,4.0637965-3.5494533,1.8002012-.8879699,3.9934383-1.334381,6.5845635-1.334381,2.4261472,0,4.5587306.4051666,6.4001763,1.2130736ZM395.6395817,204.8857771c-.7472533,1.1742552-1.12088,2.5086362-1.12088,4.005569,0,1.8996733.6768951,3.4063107,2.0306852,4.5199122,1.3562163,1.1111754,3.1661221,1.6667631,5.4321436,1.6667631,1.5769957,0,3.0035702-.2717285,4.2772975-.8176116s2.5159146-1.3440855,3.7314144-2.3970334l-10.8012073-10.3742054c-1.6182402,1.0917662-2.7997739,2.224777-3.5494533,3.3966061ZM397.6120394,183.5914832c-.8103332.807907-1.2130736,1.8996733-1.2130736,3.2752987,0,1.2130736.312973,2.3169706.9413451,3.3068386.625946.9922942,1.6667631,2.1932371,3.1224514,3.610107,1.7007292-1.0917662,2.9744565-2.1738279,3.823608-3.2461849s1.2737273-2.2951352,1.2737273-3.6707607-.4148712-2.4673917-1.2446135-3.2752987c-.8273162-.8103332-1.9506223-1.2154997-3.3650662-1.2154997-1.41687,0-2.5304715.4051666-3.3383785,1.2154997Z"/>
      <path class="cls-49" d="M470.2363295,178.1908795c1.8996733.7278442,3.7605281,1.8414457,5.5801385,3.3359524l-4.0637965,4.7334132c-2.4673917-1.9821623-5.0560908-2.9720303-7.7660972-2.9720303-3.115173,0-5.6116785,1.2543181-7.4943687,3.7605281-1.8802641,2.5086362-2.819183,6.4511254-2.819183,11.8298937,0,5.2598871.9292144,9.1635579,2.7900693,11.7110125,1.8608549,2.5474546,4.3670649,3.8211818,7.5234824,3.8211818,1.6570585,0,3.1345822-.2911377,4.4277186-.8782653,1.2955626-.5871276,2.6711881-1.4265745,4.1268764-2.5183408l3.7605281,4.730987c-1.4144438,1.4581145-3.2049404,2.6711881-5.3690637,3.6416469s-4.5805659,1.4556883-7.2493278,1.4556883c-3.6416469,0-6.856292-.8491515-9.6463612-2.5474546-2.7924954-1.698303-4.9566187-4.1972346-6.4923699-7.4943687-1.5381773-3.2947079-2.3048398-7.268737-2.3048398-11.9220873,0-4.5684352.7982024-8.4939413,2.3946073-11.76924,1.598831-3.2752987,3.7823635-5.7645257,6.5530236-7.4628288s5.8955377-2.5474546,9.3746328-2.5474546c2.5474546,0,4.7722315.3639221,6.6743309,1.0917662Z"/>
      <path class="cls-44" d="M504.726438,191.4473478c2.6493527,3.0132748,3.9740291,7.1498558,3.9740291,12.4073167,0,3.3577877-.6065368,6.3201134-1.8196104,8.8894033-1.2130736,2.5692899-2.9526211,4.5587306-5.2186426,5.9756005-2.2635953,1.4144438-4.9541926,2.1228788-8.0693656,2.1228788-4.730987,0-8.4332876-1.5066374-11.1020496-4.5199122s-4.0031429-7.169265-4.0031429-12.4679704c0-3.3577877.6065368-6.3104089,1.8196104-8.8578634,1.2130736-2.5474546,2.9623257-4.5296168,5.2477564-5.9464868,2.2854307-1.4144438,4.9833063-2.1228788,8.0984793-2.1228788,4.7334132,0,8.4235831,1.5066374,11.0729358,4.5199122ZM486.678329,203.8546645c0,3.8017727.5749969,6.6039727,1.7274168,8.4041739s2.8822629,2.6978757,5.1871027,2.6978757c2.307266,0,4.0346828-.9098052,5.1895288-2.7294156,1.1524199-1.8196104,1.7274168-4.6096797,1.7274168-8.372634,0-3.7605281-.5749969-6.5408928-1.7274168-8.3410941-1.1548461-1.8002012-2.8628537-2.7003018-5.1288752-2.7003018-4.6509242,0-6.9751732,3.6804653-6.9751732,11.0413959Z"/>
      <path class="cls-42" d="M556.2068553,189.5670837c1.5381773,1.7589567,2.3048398,4.136581,2.3048398,7.1280205v23.2376378h-7.763671v-22.0245642c0-3.4354244-1.1742552-5.1555628-3.5203396-5.1555628-1.2543181,0-2.3363797.3930358-3.2461849,1.1815337s-1.8511503,2.0137022-2.8216092,3.6707607v22.3278326h-7.7660972v-22.0245642c0-3.4354244-1.1718291-5.1555628-3.5179134-5.1555628-1.2955626,0-2.3970334.3930358-3.3068386,1.1815337s-1.8511503,2.0137022-2.8216092,3.6707607v22.3278326h-7.7660972v-32.0955012h6.7349846l.6065368,4.1875301c2.4261472-3.3990322,5.521911-5.0973353,9.2824392-5.0973353,1.8608549,0,3.4693905.4755248,4.8231806,1.4265745,1.3562163.9510497,2.3363797,2.2732999,2.9429165,3.9740291,1.2955626-1.7395475,2.719711-3.0739285,4.2772975-4.005569,1.5575865-.9292144,3.3480831-1.3950346,5.3690637-1.3950346,2.5886991,0,4.6509242.8806914,6.1891015,2.6396481Z"/>
      <path class="cls-41" d="M593.1546509,191.3575803c1.9433439,2.9526211,2.9138028,7.0964805,2.9138028,12.4364305,0,3.3165432-.4973602,6.2594598-1.4872282,8.8287496-.9922942,2.5692899-2.4479825,4.5805659-4.3670649,6.0362542-1.9215086,1.4556883-4.1972346,2.1835325-6.8271782,2.1835325-3.3966061,0-6.0872033-1.1718291-8.0693656-3.5179134v14.9838851l-7.7660972.8515777v-45.3228557h6.7956383l.4245758,3.9449153c1.2543181-1.6182402,2.6905972-2.8313138,4.3088374-3.6416469,1.615814-.807907,3.3165432-1.2130736,5.0949091-1.2130736,4.0443874,0,7.038253,1.4775236,8.9791708,4.4301448ZM587.9384344,203.8546645c0-3.92308-.5070648-6.7543938-1.516342-8.4939413-1.0117034-1.7395475-2.5304715-2.6081082-4.5514521-2.6081082-1.2955626,0-2.5086362.3930358-3.6392208,1.1815337-1.1330107.7884978-2.1034696,1.8511503-2.9138028,3.1855313v14.4404281c1.4969328,2.224777,3.4596859,3.3359524,5.8858331,3.3359524,4.4907985,0,6.7349846-3.6780391,6.7349846-11.0413959Z"/>
      <path class="cls-47" d="M605.501314,218.6881285c-1.3950346-1.433853-2.093765-3.4669643-2.093765-6.0969079v-37.6149861l7.7660972-.8491515v38.2215229c0,1.4969328.6065368,2.2441862,1.8196104,2.2441862.6089629,0,1.2154997-.099472,1.8220365-.3032684l1.6376494,5.4612573c-1.6182402.7278442-3.3383785,1.0917662-5.1579889,1.0917662-2.4673917,0-4.3986049-.7181396-5.7936395-2.1544187Z"/>
      <path class="cls-43" d="M628.9815665,172.9431231c.9098052.9098052,1.3634947,2.0331113,1.3634947,3.3674923s-.4536895,2.4455564-1.3634947,3.3359524-2.093765,1.334381-3.5494533,1.334381c-1.41687,0-2.5789945-.4439849-3.4887997-1.334381s-1.3659209-2.0015714-1.3659209-3.3359524.4561157-2.4576871,1.3659209-3.3674923,2.0719297-1.3659209,3.4887997-1.3659209c1.4556883,0,2.6396481.4561157,3.5494533,1.3659209ZM629.3746024,187.8372408v32.0955012h-7.7660972v-32.0955012h7.7660972Z"/>
      <path class="cls-52" d="M663.0179855,214.1997562c.3833313.5871276.9995726,1.0408171,1.8487242,1.3634947l-1.6376494,5.1579889c-1.8196104-.1625519-3.3068386-.6065368-4.4592585-1.334381s-2.0331113-1.8390196-2.6396481-3.3359524c-1.0917662,1.6182402-2.455261,2.819183-4.0953365,3.6076809-1.6376494.790924-3.4669643,1.1839598-5.4903711,1.1839598-3.1952359,0-5.7232812-.9098052-7.5841361-2.7294156-1.8608549-1.8196104-2.7900693-4.2069392-2.7900693-7.1595604,0-3.4790951,1.2640227-6.1381524,3.7920681-7.9795981,2.5280454-1.8390196,6.1381524-2.7585294,10.8303211-2.7585294h4.0031429v-1.8220365c0-2.0622251-.4755248-3.5082088-1.4241484-4.3379512-.9510497-.8273162-2.4795224-1.2421874-4.5805659-1.2421874-2.3485105,0-5.1798243.5652923-8.4939413,1.698303l-1.8220365-5.2792963c4.005569-1.5357512,7.8874045-2.3048398,11.6503588-2.3048398,8.2100821,0,12.3151232,3.6804653,12.3151232,11.0413959v13.4699692c0,1.2543181.1916656,2.1738279.577423,2.7609555ZM654.7957726,211.2568396v-6.4923699h-3.214645c-5.0172724,0-7.5234824,1.8608549-7.5234824,5.5825647,0,1.5381773.3833313,2.7294156,1.1524199,3.5785671s1.9020994,1.2737273,3.3990322,1.2737273c2.6275174,0,4.6897425-1.3125456,6.1866753-3.9424892Z"/>
      <path class="cls-48" d="M695.6593698,189.50643c1.5964049,1.7201384,2.3946073,4.1147456,2.3946073,7.1886741v23.2376378h-7.763671v-22.0245642c0-1.8996733-.3348083-3.2340542-1.0019988-4.0031429s-1.6497801-1.1524199-2.9429165-1.1524199c-1.334381,0-2.53775.4148712-3.610107,1.2421874-1.0723571.8297423-2.1131742,2.0331113-3.1248776,3.610107v22.3278326h-7.7660972v-32.0955012h6.7349846l.6065368,4.1875301c2.6299436-3.3990322,5.8858331-5.0973353,9.7676686-5.0973353,2.8725583,0,5.1070398.8588561,6.7058708,2.5789945Z"/>
      <path class="cls-50" d="M725.6902198,187.8372408c1.6788939.6065368,3.2655941,1.5575865,4.7625269,2.850723l-3.4572598,4.6727595c-1.0917662-.807907-2.1447141-1.3950346-3.1539914-1.7589567-1.0117034-.3639221-2.1253049-.5458831-3.3383785-.5458831-4.813476,0-7.220214,3.6610561-7.220214,10.9807422,0,3.7217098.6283721,6.4001763,1.8826902,8.0402518,1.251892,1.6376494,3.032684,2.455261,5.3375238,2.455261,1.1330107,0,2.1738279-.181961,3.1248776-.5458831s2.0719297-.9486236,3.3674923-1.7589567l3.4572598,4.9153742c-3.032684,2.4673917-6.4899437,3.6998745-10.3742054,3.6998745-3.0739285,0-5.7426904-.6768951-8.0087119-2.0331113-2.2660215-1.3537901-4.0031429-3.2850033-5.2186426-5.7936395-1.2130736-2.5062101-1.8196104-5.4588312-1.8196104-8.8578634,0-3.3966061.6065368-6.4001763,1.8196104-9.0107107,1.2154997-2.6081082,2.9526211-4.6290888,5.2186426-6.065368s4.9153742-2.1544187,7.9480582-2.1544187c2.1034696,0,3.9934383.3032684,5.6723321.9098052Z"/>
      <path class="cls-51" d="M761.0343321,206.2808117h-20.1443001c.2426147,3.115173,1.0529479,5.33995,2.4285733,6.6743309,1.3731993,1.334381,3.1928097,2.0015714,5.4588312,2.0015714,1.41687,0,2.7512509-.230484,4.005569-.6963042,1.251892-.4658203,2.5862729-1.1839598,4.0031429-2.1544187l3.2170712,4.4301448c-3.5615841,2.8725583-7.5234824,4.3064113-11.8929735,4.3064113-4.8935389,0-8.6661978-1.4945067-11.3155505-4.4883723s-3.9740291-7.0794975-3.9740291-12.2568956c0-3.2752987.5677184-6.2182153,1.7007292-8.8263235,1.1305846-2.6105344,2.7682339-4.6509242,4.9129481-6.1284478s4.6921687-2.2150724,7.6447898-2.2150724c4.4907985,0,7.9674674,1.4265745,10.4348591,4.2772975s3.7023006,6.8247521,3.7023006,11.9220873c0,.4051666-.0606537,1.4556883-.181961,3.1539914ZM753.5108497,200.8826342c0-5.621383-2.0840604-8.4332876-6.2497552-8.4332876-1.9020994,0-3.3869015.6963042-4.4592585,2.0913389-1.0723571,1.3974608-1.7080076,3.6319423-1.911804,6.7058708h12.6208177v-.3639221Z"/>
      <path class="cls-53" d="M406.8944786,246.6300657c2.1859586.8491515,4.2263484,2.1447141,6.1284478,3.8818355l-3.9424892,4.5514521c-1.4969328-1.2543181-3.0035702-2.1641233-4.5223384-2.7294156-1.516342-.5677184-3.1442868-.8491515-4.8838343-.8491515-1.9409178,0-3.5082088.4342803-4.7018733,1.302841-1.1936644.8709868-1.7880705,2.093765-1.7880705,3.6707607,0,1.0529479.230484,1.9215086.6963042,2.6081082.4658203.6890258,1.3052672,1.3368071,2.5183408,1.9433439s3.0132748,1.2737273,5.4006037,2.0015714c4.1244502,1.2955626,7.2274925,2.901672,9.3115529,4.8231806s3.1248776,4.7237086,3.1248776,8.4041739c0,2.5062101-.6356506,4.730987-1.911804,6.6719048-1.2737273,1.9433439-3.1030423,3.4596859-5.4903711,4.5514521s-5.2162165,1.6376494-8.4939413,1.6376494c-3.1952359,0-6.0580895-.5143432-8.5837088-1.5478819-2.5280454-1.0311126-4.7018733-2.4358518-6.5239098-4.2166438l4.1268764-4.6096797c1.615814,1.3756255,3.2947079,2.4164426,5.0342554,3.1248776s3.6610561,1.0602263,5.7645257,1.0602263c2.3048398,0,4.1656947-.5458831,5.5825647-1.6376494,1.4144438-1.0917662,2.1228788-2.6275174,2.1228788-4.6096797,0-1.2154997-.2426147-2.2150724-.7278442-3.0035702s-1.3149718-1.4969328-2.4868009-2.1253049c-1.1742552-.625946-2.8725583-1.2834319-5.0973353-1.9700315-4.449554-1.3756255-7.664199-3.0351101-9.6463612-4.9760279s-2.9720303-4.4883723-2.9720303-7.6447898c0-2.3048398.6065368-4.3282466,1.8196104-6.0677941,1.2130736-1.7371214,2.901672-3.0933377,5.0657953-4.0637965s4.6193843-1.4556883,7.3706352-1.4556883c2.9526211,0,5.521911.4245758,7.7054435,1.2737273Z"/>
      <path class="cls-54" d="M446.4528086,259.6148055c1.9409178,2.9526211,2.9113766,7.0964805,2.9113766,12.4364305,0,3.3165432-.494934,6.2594598-1.4848021,8.8287496-.9922942,2.5692899-2.4479825,4.5805659-4.3694911,6.0362542s-4.1972346,2.1835325-6.8247521,2.1835325c-3.3990322,0-6.0896295-1.1718291-8.0693656-3.5179134v14.9838851l-7.7660972.8515777v-45.3228557h6.7956383l.4245758,3.9449153c1.251892-1.6182402,2.6881711-2.8313138,4.3064113-3.6416469,1.6182402-.807907,3.3165432-1.2130736,5.0973353-1.2130736,4.0443874,0,7.038253,1.4775236,8.9791708,4.4301448ZM441.2341659,272.1118897c0-3.92308-.5046386-6.7543938-1.516342-8.4939413s-2.5280454-2.6081082-4.549026-2.6081082c-1.2955626,0-2.5086362.3930358-3.6416469,1.1815337s-2.1034696,1.8511503-2.9113766,3.1855313v14.4404281c1.4945067,2.224777,3.4572598,3.3359524,5.8834069,3.3359524,4.4907985,0,6.7349846-3.6780391,6.7349846-11.0413959Z"/>
      <path class="cls-55" d="M483.1579895,274.5380369h-20.141874c.2426147,3.115173,1.0505217,5.33995,2.4261472,6.6743309s3.1952359,2.0015714,5.4612573,2.0015714c1.4144438,0,2.7512509-.230484,4.0031429-.6963042,1.2543181-.4658203,2.5886991-1.1839598,4.005569-2.1544187l3.214645,4.4301448c-3.5591579,2.8725583-7.5234824,4.3064113-11.8905474,4.3064113-4.8935389,0-8.6661978-1.4945067-11.3155505-4.4883723s-3.9740291-7.0794975-3.9740291-12.2568956c0-3.2752987.5652923-6.2182153,1.698303-8.8263235,1.1330107-2.6105344,2.7706601-4.6509242,4.9153742-6.1284478,2.142288-1.4775236,4.6921687-2.2150724,7.6447898-2.2150724,4.4883723,0,7.9674674,1.4265745,10.4348591,4.2772975,2.4673917,2.850723,3.7023006,6.8247521,3.7023006,11.9220873,0,.4051666-.0630798,1.4556883-.1843872,3.1539914ZM475.6369332,269.1398594c0-5.621383-2.0840604-8.4332876-6.2497552-8.4332876-1.9020994,0-3.3893276.6963042-4.4592585,2.0913389-1.0723571,1.3974608-1.7104338,3.6319423-1.911804,6.7058708h12.6208177v-.3639221Z"/>
      <path class="cls-60" d="M508.9139681,256.0944659c1.6764677.6065368,3.2655941,1.5575865,4.7625269,2.850723l-3.4596859,4.6727595c-1.0917662-.807907-2.1447141-1.3950346-3.1539914-1.7589567-1.0117034-.3639221-2.1228788-.5458831-3.3383785-.5458831-4.813476,0-7.2177879,3.6610561-7.2177879,10.9807422,0,3.7217098.625946,6.4001763,1.8802641,8.0402518,1.251892,1.6376494,3.032684,2.455261,5.3375238,2.455261,1.1330107,0,2.1738279-.181961,3.1248776-.5458831s2.0719297-.9486236,3.3674923-1.7589567l3.4596859,4.9153742c-3.0351101,2.4673917-6.4923699,3.6998745-10.3766315,3.6998745-3.0739285,0-5.7426904-.6768951-8.0087119-2.0331113-2.2635953-1.3537901-4.0031429-3.2850033-5.2162165-5.7936395-1.2130736-2.5062101-1.8196104-5.4588312-1.8196104-8.8578634,0-3.3966061.6065368-6.4001763,1.8196104-9.0107107,1.2130736-2.6081082,2.9526211-4.6290888,5.2162165-6.065368,2.2660215-1.4362791,4.9153742-2.1544187,7.9480582-2.1544187,2.1034696,0,3.9958644.3032684,5.6747583.9098052Z"/>
      <path class="cls-58" d="M526.6903485,241.2003483c.9098052.9098052,1.3634947,2.0331113,1.3634947,3.3674923s-.4536895,2.4479825-1.3634947,3.3359524c-.9098052.890396-2.093765,1.334381-3.5494533,1.334381-1.41687,0-2.5789945-.4439849-3.4887997-1.334381-.9098052-.8879699-1.3659209-2.0015714-1.3659209-3.3359524s.4561157-2.4576871,1.3659209-3.3674923,2.0719297-1.3659209,3.4887997-1.3659209c1.4556883,0,2.6396481.4561157,3.5494533,1.3659209ZM527.0833844,256.0944659v32.0955012h-7.7660972v-32.0955012h7.7660972Z"/>
      <path class="cls-59" d="M560.7267675,282.4569813c.3833313.5871276.9995726,1.0408171,1.8487242,1.3634947l-1.6376494,5.1579889c-1.8196104-.1625519-3.3068386-.6065368-4.4592585-1.334381s-2.0331113-1.8390196-2.6396481-3.3359524c-1.0917662,1.6182402-2.455261,2.819183-4.0953365,3.6076809-1.6376494.790924-3.4669643,1.1839598-5.4903711,1.1839598-3.1952359,0-5.7232812-.9098052-7.5841361-2.7294156s-2.7900693-4.2069392-2.7900693-7.1595604c0-3.4790951,1.2640227-6.1381524,3.7920681-7.9795981,2.5280454-1.8390196,6.1381524-2.7585294,10.8303211-2.7585294h4.0031429v-1.8220365c0-2.0622251-.4755248-3.5082088-1.4241484-4.3379512-.9510497-.8273162-2.4795224-1.2421874-4.5805659-1.2421874-2.3485105,0-5.1798243.5652923-8.4939413,1.698303l-1.8220365-5.2792963c4.005569-1.5357512,7.8874045-2.3048398,11.6503588-2.3048398,8.2100821,0,12.3151232,3.6804653,12.3151232,11.0413959v13.4699692c0,1.2543181.1916656,2.1738279.577423,2.7609555ZM552.5045547,279.5140648v-6.4923699h-3.214645c-5.0172724,0-7.5234824,1.8608549-7.5234824,5.5825647,0,1.5381773.3833313,2.7294156,1.1524199,3.5785671s1.9020994,1.2737273,3.3990322,1.2737273c2.6275174,0,4.6897425-1.3125456,6.1866753-3.9424892Z"/>
      <path class="cls-45" d="M570.7370508,286.9453536c-1.3950346-1.433853-2.093765-3.4669643-2.093765-6.0969079v-37.6149861l7.7660972-.8515777v38.223949c0,1.4969328.6065368,2.2441862,1.8196104,2.2441862.6089629,0,1.2154997-.099472,1.8220365-.3032684l1.6376494,5.4612573c-1.6182402.7278442-3.3383785,1.0917662-5.1579889,1.0917662-2.4673917,0-4.3986049-.7181396-5.7936395-2.1544187Z"/>
      <path class="cls-46" d="M610.2638409,246.2661436v41.9238235h-8.0087119v-41.9238235h8.0087119Z"/>
      <path class="cls-56" d="M643.6646093,257.7636552c1.5964049,1.7201384,2.3946073,4.1147456,2.3946073,7.1886741v23.2376378h-7.763671v-22.0245642c0-1.8996733-.3348083-3.2340542-1.0019988-4.0031429s-1.6497801-1.1524199-2.9429165-1.1524199c-1.334381,0-2.53775.4148712-3.610107,1.2421874-1.0723571.8297423-2.1131742,2.0331113-3.1248776,3.610107v22.3278326h-7.7660972v-32.0955012h6.7349846l.6065368,4.1875301c2.6299436-3.3990322,5.8858331-5.0973353,9.7676686-5.0973353,2.8725583,0,5.1070398.8588561,6.7058708,2.5789945Z"/>
      <path class="cls-57" d="M673.4843845,286.6736251c-1.1330107.8103332-2.3970334,1.41687-3.7920681,1.8196104-1.3974608.4027404-2.8216092.6065368-4.2772975.6065368-3.1564175-.0412445-5.5534509-.9413451-7.1911003-2.7003018s-2.4576871-4.3573604-2.4576871-7.7952109v-16.927229h-5.0342554v-5.5825647h5.0342554v-7.0989067l7.7660972-.9098052v8.0087119h7.4628288l-.7884978,5.5825647h-6.6743309v16.7452679c0,1.5769957.2741546,2.7100064.8200378,3.3966061.5458831.6890258,1.4047392,1.0311126,2.5789945,1.0311126,1.1718291,0,2.4455564-.3833313,3.8211818-1.1524199l2.7318417,4.9760279Z"/>
      <path class="cls-30" d="M702.9693513,274.5380369h-20.141874c.2426147,3.115173,1.0505217,5.33995,2.4261472,6.6743309,1.3731993,1.334381,3.1952359,2.0015714,5.4588312,2.0015714,1.41687,0,2.7512509-.230484,4.005569-.6963042s2.5886991-1.1839598,4.0031429-2.1544187l3.2170712,4.4301448c-3.5591579,2.8725583-7.5234824,4.3064113-11.8929735,4.3064113-4.8935389,0-8.6661978-1.4945067-11.3131244-4.4883723-2.6517789-2.9938656-3.9740291-7.0794975-3.9740291-12.2568956,0-3.2752987.5652923-6.2182153,1.698303-8.8263235,1.1305846-2.6105344,2.7706601-4.6509242,4.9129481-6.1284478,2.1447141-1.4775236,4.6921687-2.2150724,7.6447898-2.2150724,4.4907985,0,7.9674674,1.4265745,10.4372852,4.2772975,2.4649655,2.850723,3.6998745,6.8247521,3.6998745,11.9220873,0,.4051666-.0606537,1.4556883-.181961,3.1539914ZM695.4458689,269.1398594c0-5.621383-2.0840604-8.4332876-6.2497552-8.4332876-1.9020994,0-3.3869015.6963042-4.4592585,2.0913389-1.0723571,1.3974608-1.7080076,3.6319423-1.9093778,6.7058708h12.6183916v-.3639221Z"/>
      <path class="cls-26" d="M729.1790195,255.6698901l-1.334381,7.5234824c-.9704589-.2426147-1.9215086-.3639221-2.8531491-.3639221-1.8972471,0-3.3966061.6768951-4.4883723,2.0331113-1.0917662,1.3537901-1.9603269,3.428146-2.6056821,6.2182153v17.10919h-7.7685233v-32.0955012h6.7349846l.7278442,6.3104089c.7666625-2.3048398,1.8826902-4.0759273,3.3383785-5.3084101,1.4556883-1.2349089,3.1345822-1.8511503,5.0318293-1.8511503,1.1742552,0,2.2466123.1431427,3.2170712.4245758Z"/>
      <path class="cls-28" d="M758.363144,274.5380369h-20.1443001c.2426147,3.115173,1.0529479,5.33995,2.4285733,6.6743309,1.3731993,1.334381,3.1928097,2.0015714,5.4588312,2.0015714,1.41687,0,2.7512509-.230484,4.005569-.6963042,1.251892-.4658203,2.5862729-1.1839598,4.0031429-2.1544187l3.2170712,4.4301448c-3.5615841,2.8725583-7.5234824,4.3064113-11.8929735,4.3064113-4.8935389,0-8.6661978-1.4945067-11.3155505-4.4883723s-3.9740291-7.0794975-3.9740291-12.2568956c0-3.2752987.5677184-6.2182153,1.7007292-8.8263235,1.1305846-2.6105344,2.7682339-4.6509242,4.9129481-6.1284478s4.6921687-2.2150724,7.6447898-2.2150724c4.4907985,0,7.9674674,1.4265745,10.4348591,4.2772975,2.4673917,2.850723,3.7023006,6.8247521,3.7023006,11.9220873,0,.4051666-.0606537,1.4556883-.181961,3.1539914ZM750.8396616,269.1398594c0-5.621383-2.0840604-8.4332876-6.2497552-8.4332876-1.9020994,0-3.3869015.6963042-4.4592585,2.0913389-1.0723571,1.3974608-1.7080076,3.6319423-1.911804,6.7058708h12.6208177v-.3639221Z"/>
      <path class="cls-24" d="M787.059613,259.0058425l-3.032684,4.5514521c-2.7512509-1.7395475-5.4418482-2.6081082-8.0693656-2.6081082-1.5381773,0-2.7318417.2935638-3.5809933.8782653-.8491515.5871276-1.2737273,1.3659209-1.2737273,2.3363797,0,.7278442.181961,1.334381.5458831,1.8196104s1.021408.9413451,1.9724577,1.3659209,2.3557889.9001006,4.2166438,1.4265745c3.4790951.9292144,6.0556634,2.1641233,7.7345573,3.6998745,1.6788939,1.5381773,2.5183408,3.6804653,2.5183408,6.4317162,0,3.1952359-1.2931365,5.6941675-3.8818355,7.4919425-2.5886991,1.8002012-5.8057702,2.7003018-9.6463612,2.7003018-2.6299436,0-5.026977-.4051666-7.1911003-1.2130736s-4.0346828-1.9215086-5.6116785-3.3359524l3.8842617-4.3694911c2.7900693,2.1034696,5.7014459,3.1539914,8.736556,3.1539914,1.7371214,0,3.1248776-.3420868,4.1559901-1.0311126,1.0311126-.6865997,1.5454558-1.6376494,1.5454558-2.850723,0-.9292144-.1916656-1.6691893-.5749969-2.2150724-.3857574-.5458831-1.0723571-1.0311126-2.0622251-1.4556883-.9922942-.4245758-2.5401761-.9413451-4.6436457-1.5478819-3.2752987-.8879699-5.6820367-2.1325834-7.2177879-3.7314144-1.5381773-1.5964049-2.307266-3.5882717-2.307266-5.9756005,0-1.7783659.5167694-3.3771969,1.5478819-4.7916407,1.0311126-1.41687,2.4868009-2.5280454,4.3694911-3.3383785,1.8802641-.807907,4.0322566-1.2130736,6.46083-1.2130736,4.3282466,0,8.1300192,1.2737273,11.405318,3.8211818Z"/>
      <path class="cls-25" d="M812.7840517,286.6736251c-1.1330107.8103332-2.3970334,1.41687-3.7920681,1.8196104s-2.8216092.6065368-4.2772975.6065368c-3.1564175-.0412445-5.5510248-.9413451-7.1911003-2.7003018-1.6376494-1.7589567-2.455261-4.3573604-2.455261-7.7952109v-16.927229h-5.0366816v-5.5825647h5.0366816v-7.0989067l7.7660972-.9098052v8.0087119h7.4604026l-.7884978,5.5825647h-6.6719048v16.7452679c0,1.5769957.2717285,2.7100064.8176116,3.3966061.5458831.6890258,1.4047392,1.0311126,2.5789945,1.0311126,1.1718291,0,2.4455564-.3833313,3.8211818-1.1524199l2.7318417,4.9760279Z"/>
      <path class="cls-29" d="M856.8016403,246.5985258c2.1228788.8297423,4.1341548,2.0549467,6.0362542,3.6707607l-4.3064113,4.4907985c-1.4969328-1.1718291-2.9040982-2.0209806-4.2166438-2.5474546-1.3149718-.5264739-2.8434445-.7884978-4.5805659-.7884978-3.2364804,0-5.8858331,1.2931365-7.9480582,3.8818355-2.0646513,2.5886991-3.0957638,6.5530236-3.0957638,11.8905474,0,5.5825647.8200378,9.6075429,2.4576871,12.0749346s4.136581,3.6998745,7.4943687,3.6998745c2.5474546,0,4.7722315-.5458831,6.6719048-1.6376494v-10.9200885h-6.3079827l-.8515777-5.9464868h15.0469649v20.5082222c-4.5296168,2.7512509-9.3430928,4.1244502-14.4380019,4.1244502-5.9877313,0-10.5682972-1.8608549-13.7441239-5.5825647-3.1758267-3.7192836-4.7625269-9.1611318-4.7625269-16.3206922,0-4.5684352.8588561-8.5012198,2.5789945-11.7983538s4.0346828-5.7960656,6.9460594-7.4943687c2.9138028-1.698303,6.147857-2.5474546,9.7094411-2.5474546,2.7488248,0,5.1871027.4148712,7.3099815,1.2421874Z"/>
      <path class="cls-21" d="M890.0786752,255.6698901l-1.334381,7.5234824c-.9704589-.2426147-1.9215086-.3639221-2.8531491-.3639221-1.8996733,0-3.3966061.6768951-4.4883723,2.0331113-1.0917662,1.3537901-1.9627531,3.428146-2.6081082,6.2182153v17.10919h-7.7660972v-32.0955012h6.7325585l.7278442,6.3104089c.7690887-2.3048398,1.8826902-4.0759273,3.3383785-5.3084101,1.4556883-1.2349089,3.1345822-1.8511503,5.0342554-1.8511503,1.1742552,0,2.2466123.1431427,3.2170712.4245758Z"/>
      <path class="cls-23" d="M917.2903421,259.7045729c2.6493527,3.0132748,3.9740291,7.1498558,3.9740291,12.4073167,0,3.3577877-.6065368,6.3201134-1.8196104,8.8894033s-2.9526211,4.5587306-5.2186426,5.9756005c-2.2660215,1.4144438-4.9541926,2.1228788-8.0693656,2.1228788-4.730987,0-8.4332876-1.5066374-11.1020496-4.5199122-2.6711881-3.0132748-4.005569-7.169265-4.005569-12.4679704,0-3.3577877.6065368-6.3104089,1.8220365-8.8578634,1.2130736-2.5474546,2.9623257-4.5296168,5.2477564-5.9464868,2.2830045-1.4144438,4.9833063-2.1228788,8.0984793-2.1228788,4.7334132,0,8.4235831,1.5066374,11.0729358,4.5199122ZM899.239807,272.1118897c0,3.8017727.577423,6.6039727,1.7298429,8.4041739,1.1524199,1.8002012,2.8822629,2.6978757,5.1871027,2.6978757s4.0346828-.9098052,5.1871027-2.7294156c1.1524199-1.8196104,1.7298429-4.6096797,1.7298429-8.372634,0-3.7605281-.577423-6.5408928-1.7298429-8.3410941s-2.8604275-2.7003018-5.126449-2.7003018c-4.6509242,0-6.9775993,3.6804653-6.9775993,11.0413959Z"/>
      <path class="cls-22" d="M954.2090239,288.1899671h-6.7349846l-.4245758-4.4907985c-1.1742552,1.8220365-2.5595853,3.1758267-4.1559901,4.0662227-1.598831.8879699-3.4887997,1.334381-5.6723321,1.334381-2.8725583,0-5.0876307-.8782653-6.6452172-2.6396481-1.5575865-1.7589567-2.3339536-4.1948085-2.3339536-7.3099815v-23.0556768h7.763671v22.0852179c0,1.8196104.312973,3.115173.9413451,3.8818355.625946.7690887,1.6279448,1.1524199,3.0035702,1.1524199,2.4673917,0,4.631515-1.516342,6.4923699-4.549026v-22.5704473h7.7660972v32.0955012Z"/>
      <path class="cls-27" d="M989.1552481,259.6148055c1.9409178,2.9526211,2.9113766,7.0964805,2.9113766,12.4364305,0,3.3165432-.494934,6.2594598-1.4872282,8.8287496-.9898681,2.5692899-2.4479825,4.5805659-4.3670649,6.0362542-1.9215086,1.4556883-4.1972346,2.1835325-6.8271782,2.1835325-3.3966061,0-6.0872033-1.1718291-8.0669394-3.5179134v14.9838851l-7.7660972.8515777v-45.3228557h6.7932121l.4245758,3.9449153c1.2543181-1.6182402,2.6905972-2.8313138,4.3088374-3.6416469,1.6182402-.807907,3.3165432-1.2130736,5.0973353-1.2130736,4.0419612,0,7.0358269,1.4775236,8.9791708,4.4301448ZM983.9366055,272.1118897c0-3.92308-.5070648-6.7543938-1.516342-8.4939413-1.0117034-1.7395475-2.5280454-2.6081082-4.5514521-2.6081082-1.2931365,0-2.5086362.3930358-3.6392208,1.1815337-1.1330107.7884978-2.1034696,1.8511503-2.9113766,3.1855313v14.4404281c1.4945067,2.224777,3.4572598,3.3359524,5.8834069,3.3359524,4.4907985,0,6.7349846-3.6780391,6.7349846-11.0413959Z"/>
    </g>
    <g>
      <g>
        <path class="cls-9" d="M392.7108638,33.2501212h1.7172269c3.8776015,0,6.8688908-2.9359,6.8688908-6.8135015v-1.2186731l-4.2653685-.3877585v1.6064358c0,1.5510423-1.1632838,2.7697154-2.7143177,2.7697154h-1.5510339c-1.5510339,0-2.7143177-1.2186731-2.7143177-2.7697154v-10.6910989c0-1.5510423,1.1632838-2.7697154,2.7143177-2.7697154h1.5510339c1.5510339,0,2.7143177,1.2186731,2.7143177,2.7697154v1.6064358l4.2653685-.3877585v-1.2186731c0-3.8776015-2.9912892-6.8135015-6.8688908-6.8135015h-1.7172269c-3.8776015,0-6.8688908,2.9359-6.8688908,6.8135015v10.6910989c0,3.8776015,2.9912892,6.8135015,6.8688908,6.8135015v-.0000085Z"/>
        <path class="cls-9" d="M414.3146439,8.9320192h-1.7172269c-3.8776015,0-6.8688908,2.9359-6.8688908,6.8135015v10.6910989c0,3.8776015,2.9912892,6.8135015,6.8688908,6.8135015h1.7172269c3.8776015,0,6.8688908-2.9359,6.8688908-6.8135015v-10.6911031c0-3.8776015-2.9912892-6.8135015-6.8688908-6.8134973ZM416.9181662,26.4366196c0,1.5510423-1.1632838,2.7697154-2.7143177,2.7697154h-1.5510339c-1.5510339,0-2.7143177-1.2186731-2.7143177-2.7697154v-10.6911031c0-1.5510423,1.1632838-2.7697154,2.7143177-2.7697154h1.5510339c1.5510339,0,2.7143177,1.2186731,2.7143177,2.7697154v10.6911031Z"/>
        <polygon class="cls-9" points="430.1020216 16.6318288 430.3235955 17.6843173 439.5744516 33.3055146 443.4520532 33.3055146 443.4520532 8.9320192 439.0758893 8.9320192 439.0758893 25.605705 438.8543155 24.5532123 429.5480785 8.9320192 425.7258747 8.9320192 425.7258747 33.3055146 430.1020216 33.3055146 430.1020216 16.6318288"/>
        <polygon class="cls-9" points="447.2188593 33.3055146 451.650404 33.3055146 451.650404 23.2237481 460.6242886 23.2237481 460.6242886 19.0137815 451.650404 19.0137815 451.650404 13.0865923 462.7846632 13.0865923 462.7846632 8.9320192 447.2188593 8.9320192 447.2188593 33.3055146"/>
        <rect class="cls-9" x="466.7176624" y="8.9320192" width="4.3761469" height="24.3734954"/>
        <path class="cls-9" d="M491.3681294,26.270435v-10.3033404c0-3.9883885-3.1020846-7.0350754-7.0904646-7.0350754h-8.8630892v24.3734954h8.8630892c3.9883969,0,7.0904646-3.0466869,7.0904646-7.0350796ZM479.7907056,29.1509415V13.0865923h4.3761469c1.6064315,0,2.7697154,1.2740708,2.7697154,2.8805023v10.3033404c0,1.6064358-1.1632838,2.8805023-2.7697154,2.8805023,0,0-4.3761469,0-4.3761469.0000042Z"/>
        <polygon class="cls-9" points="495.4119071 33.3055146 510.977711 33.3055146 510.977711 29.1509415 499.7880541 29.1509415 499.7880541 23.2237481 508.7619387 23.2237481 508.7619387 19.0137815 499.7880541 19.0137815 499.7880541 13.0865923 510.977711 13.0865923 510.977711 8.9320192 495.4119071 8.9320192 495.4119071 33.3055146"/>
        <polygon class="cls-9" points="519.508431 16.6318288 519.7300218 17.6289238 528.9808441 33.2501212 532.8584457 33.2501212 532.8584457 8.9320192 528.4823156 8.9320192 528.4823156 25.5503115 528.2607249 24.5532123 518.9544879 8.9320192 515.1322672 8.9320192 515.1322672 33.2501212 519.508431 33.2501212 519.508431 16.6318288"/>
        <polygon class="cls-9" points="537.4562003 13.0865923 543.1618072 13.0865923 543.1618072 33.2501212 547.5379372 33.2501212 547.5379372 13.0865923 553.2989588 13.0865923 553.2989588 8.9320192 537.4562003 8.9320192 537.4562003 13.0865923"/>
        <rect class="cls-9" x="557.8966796" y="8.9320192" width="4.3761638" height="24.318102"/>
        <path class="cls-9" d="M573.905648,8.9320192l-6.7581123,24.318102h4.7085162l1.2740623-4.8193031h7.4782316l1.2740623,4.8193031h4.7085162l-6.8134931-24.318102h-5.8717831ZM574.0164434,24.6640035l2.7697154-10.5803119v-.9417015l.1107954.8863081,2.7143346,10.5803119h-5.5948116l-.0000338.0553935Z"/>
        <polygon class="cls-9" points="595.4540135 8.9320192 591.0778834 8.9320192 591.0778834 33.2501212 604.4278981 33.2501212 604.4278981 29.0955481 595.4540135 29.0955481 595.4540135 8.9320192"/>
        <path class="cls-9" d="M619.7167473,8.9320192h-1.71721c-3.8776015,0-6.8689077,2.9359-6.8689077,6.8135015v10.6910989c0,3.8776015,2.9913061,6.8135015,6.8689077,6.8135015h1.71721c3.8776015,0,6.8689077-2.9359,6.8689077-6.8135015v-1.2186731l-4.2653685-.3877585v1.6064358c0,1.5510423-1.1632669,2.7697154-2.7143346,2.7697154h-1.5510339c-1.5510339,0-2.7143346-1.2186731-2.7143346-2.7697154v-10.6910989c0-1.5510423,1.1632669-2.7697154,2.7143346-2.7697154h1.5510339c1.5510339,0,2.7143346,1.2186731,2.7143346,2.7697154v1.6064358l4.2653685-.3877585v-1.2186731c0-3.8776015-2.9913061-6.8135015-6.8689077-6.8135015v-.0000085Z"/>
        <path class="cls-9" d="M646.4721912,26.4366196v-10.6911031c0-3.8776015-2.9913061-6.8135015-6.8689077-6.8135015h-1.71721c-3.8776015,0-6.8689077,2.9359-6.8689077,6.8135015v10.6911031c0,3.8776015,2.9913061,6.8135015,6.8689077,6.8135015h1.71721c3.8776015,0,6.8689077-2.9359,6.8689077-6.8135015ZM642.2068228,26.4366196c0,1.5510423-1.1632669,2.7697154-2.7143346,2.7697154h-1.5510339c-1.5510339,0-2.7143346-1.2186731-2.7143346-2.7697154v-10.6911031c0-1.5510423,1.1632669-2.7697154,2.7143346-2.7697154h1.5510339c1.5510339,0,2.7143346,1.2186731,2.7143346,2.7697154v10.6911031Z"/>
        <polygon class="cls-9" points="662.813512 27.4891123 662.7027167 28.3754204 662.6473359 27.4891123 657.2740813 8.9320192 650.9037359 8.9320192 650.9037359 33.3055146 655.2798659 33.3055146 655.2798659 14.3052654 655.3906613 15.3577581 660.5977397 33.3055146 664.8631082 33.3055146 670.0147721 15.3577581 670.1809482 14.3052654 670.1809482 33.3055146 674.5571121 33.3055146 674.5571121 8.9320192 668.1313521 8.9320192 662.813512 27.4891123"/>
        <path class="cls-9" d="M687.9071267,8.9320192h-9.08468v24.3734954h4.3761638v-7.9767812h4.6531354c3.9883969,0,7.0904646-3.0466869,7.0904646-7.0350754v-2.3265592c0-3.9883885-3.0466869-7.0350754-7.0350839-7.0350796ZM690.6214613,18.2936581c0,1.6064358-1.1632669,2.8805023-2.7697154,2.8805023h-4.5977208v-8.0875681h4.5977208c1.6064485,0,2.7697154,1.2740708,2.7697154,2.8805023v2.3265635Z"/>
        <path class="cls-9" d="M714.773366,26.3812261V8.9320192h-4.3207492v17.449207c0,1.6064358-1.1632669,2.8251089-2.7697154,2.8251089h-1.6064485c-1.6064485,0-2.7697154-1.2186731-2.7697154-2.8251089V8.9320192h-4.3207492v17.449207c0,3.932995,3.0466869,6.9242885,6.9796693,6.9242885h1.71721c3.9883969,0,7.0904646-2.9912935,7.0904646-6.9242885h.0000338Z"/>
        <polygon class="cls-9" points="719.1495298 13.0865923 724.9105176 13.0865923 724.9105176 33.3055146 729.2866814 33.3055146 729.2866814 13.0865923 735.0476691 13.0865923 735.0476691 8.9320192 719.1495298 8.9320192 719.1495298 13.0865923"/>
        <rect class="cls-9" x="739.2022422" y="8.9320192" width="4.3761638" height="24.318102"/>
        <polygon class="cls-9" points="752.2753191 16.6318288 752.4968761 17.6843173 761.8031468 33.3055146 765.6253338 33.3055146 765.6253338 8.9320192 761.2492038 8.9320192 761.2492038 25.605705 761.027613 24.5532123 751.7767568 8.9320192 747.8991553 8.9320192 747.8991553 33.3055146 752.2753191 33.3055146 752.2753191 16.6318288"/>
        <path class="cls-9" d="M783.573103,16.9641938v-1.2186731c0-3.8776015-2.9913061-6.8135015-6.8689077-6.8135015h-1.71721c-3.8776015,0-6.8689077,2.9359-6.8689077,6.8135015v10.6910989c0,3.8776015,2.9913061,6.8135015,6.8689077,6.8135015h.9970908c1.9388008,0,3.60063-.8309146,4.7085162-2.2157723l1.2186815,1.8834073h1.6618292v-13.1284535h-7.7552031v4.0437862h3.4898346v2.5481373c0,1.5510423-1.1632669,2.7697154-2.7143346,2.7697154h-1.5510339c-1.5510339,0-2.7143346-1.2186731-2.7143346-2.7697154v-10.6357096c0-1.5510423,1.1632669-2.7697154,2.7143346-2.7697154h1.5510339c1.5510339,0,2.7143346,1.2186731,2.7143346,2.7697154v1.6064358l4.2653685-.3877585Z"/>
      </g>
      <g>
        <path class="cls-9" d="M398.5826639,41.5038696h-2.4927439c-5.7610046,0-10.2479469,4.3761469-10.2479469,10.13716v15.8427754c0,5.7610046,4.4869423,10.13716,10.2479469,10.13716h2.4927439c5.7610046,0,10.2479469-4.3761469,10.2479469-10.13716v-1.8280138l-6.3149477-.6093408v2.3819569c0,2.3265592-1.7172269,4.0991754-3.9883969,4.0991754h-2.3265677c-2.3265677,0-3.9883969-1.8280138-3.9883969-4.0991754v-15.8427754c0-2.3265592,1.7172269-4.0991754,3.9883969-4.0991754h2.3265677c2.3265677,0,3.9883969,1.8280138,3.9883969,4.0991754v2.3819569l6.3149477-.6093408v-1.8280138c-.0553977-5.6502177-4.4869423-10.0263731-10.2479469-10.0263731v.0000085Z"/>
        <path class="cls-9" d="M440.5715424,41.5038696h-2.4927439c-5.7610046,0-10.2479469,4.3761469-10.2479469,10.13716v15.8427754c0,5.7610046,4.4869423,10.13716,10.2479469,10.13716h2.4927439c5.7610046,0,10.2479469-4.3761469,10.2479469-10.13716v-15.8427754c0-5.7610046-4.4869423-10.13716-10.2479469-10.13716ZM444.5045416,67.4838051c0,2.3265592-1.7172269,4.0991754-3.9883969,4.0991754h-2.3265677c-2.3265677,0-3.9883969-1.8280138-3.9883969-4.0991754v-15.8427754c0-2.3265592,1.7172269-4.0991754,3.9883969-4.0991754h2.3265677c2.3265677,0,3.9883969,1.8280138,3.9883969,4.0991754v15.8427754Z"/>
        <polygon class="cls-9" points="489.5955048 66.2097343 489.2631356 64.7140897 475.4699563 41.5038696 469.7643494 41.5038696 469.7643494 77.6209566 476.2454732 77.6209566 476.2454732 52.9151004 476.5778425 54.4661427 490.3710217 77.6209566 496.0766456 77.6209566 496.0766456 41.5038696 489.5955048 41.5038696 489.5955048 66.2097343"/>
        <path class="cls-9" d="M520.9486695,51.9733989v-.2769715c0-2.3265592,1.71721-4.0991754,3.9883969-4.0991754h1.5510339c2.3265677,0,3.9883969,1.8280138,3.9883969,4.0991754v1.7726162l6.3149646-.6093408v-1.1632838c0-5.7610046-4.4869254-10.13716-10.2479469-10.13716h-1.7726246c-5.7610215,0-10.2479469,4.3761469-10.2479469,10.13716v.2769715c0,13.5162077,16.1751446,7.6444162,16.1751446,15.1226477v.4431562c0,2.3265592-1.71721,4.0991754-3.9883969,4.0991754h-2.0495962c-2.3265677,0-3.9883969-1.8280138-3.9883969-4.0991754v-1.7726162l-6.3149477.6093408v1.1632838c0,5.7610046,4.4869423,10.13716,10.24793,10.13716h2.2711531c5.7610215,0,10.2479469-4.3761469,10.2479469-10.13716v-.4431562c0-13.07306-16.1751446-8.0875723-16.1751446-15.1226477h.0000338Z"/>
        <path class="cls-9" d="M569.1971319,41.5038696h-2.4927439c-5.7610215,0-10.2479469,4.3761469-10.2479469,10.13716v15.8427754c0,5.7610046,4.4869254,10.13716,10.2479469,10.13716h2.4927439c5.7610215,0,10.2479469-4.3761469,10.2479469-10.13716v-15.8427754c-.0553808-5.7610046-4.4869254-10.13716-10.2479469-10.13716ZM573.0747334,67.4838051c0,2.3265592-1.71721,4.0991754-3.9883969,4.0991754h-2.3265677c-2.3265677,0-3.9883969-1.8280138-3.9883969-4.0991754v-15.8427754c0-2.3265592,1.71721-4.0991754,3.9883969-4.0991754h2.3265677c2.3265677,0,3.9883969,1.8280138,3.9883969,4.0991754v15.8427754Z"/>
        <path class="cls-9" d="M622.8741958,53.856802v-1.9388008c0-5.9271892-4.5977208-10.4141316-10.5249185-10.4141316h-13.4054292v36.117087h6.4811408v-13.3500316h4.2099539l6.8689077,13.3500316h7.1458792l-7.3674362-14.0701508c3.9329823-1.4956446,6.5919362-5.1516723,6.5919362-9.6940039h-.0000338ZM612.2938966,58.0667727h-6.8134931v-10.3587339h6.8134931c2.3819485,0,4.1545731,1.8834031,4.1545731,4.2099708v1.8834031c0,2.4373462-1.8280054,4.26536-4.1545731,4.26536Z"/>
        <polygon class="cls-9" points="638.6061928 47.7080304 647.0815151 47.7080304 647.0815151 77.6209566 653.6180367 77.6209566 653.6180367 47.7080304 662.0933928 47.7080304 662.0933928 41.5038696 638.6061928 41.5038696 638.6061928 47.7080304"/>
        <rect class="cls-9" x="680.6504859" y="41.5038696" width="6.4811408" height="36.117087"/>
        <path class="cls-9" d="M723.3594837,67.3730097c0,2.3265592-1.71721,4.1545731-4.0437777,4.1545731h-2.3265677c-2.3265677,0-4.0437777-1.8280138-4.0437777-4.1545731v-25.8137508h-6.4257262v25.8137508c0,5.8718,4.54234,10.2479469,10.3587423,10.2479469h2.5481246c5.8717831,0,10.3587423-4.4315446,10.3587423-10.2479469v-25.8137508h-6.4257262v25.8137508h-.0000338Z"/>
        <polygon class="cls-9" points="766.0684815 69.0348389 765.9577199 70.3643074 765.8469245 69.0348389 757.9255453 41.5038696 748.3977176 41.5038696 748.3977176 77.6209566 754.9342391 77.6209566 754.9342391 49.5360443 755.1004153 51.0870866 762.8002376 77.6209566 769.1151684 77.6209566 776.7596099 51.0870866 776.9811669 49.5360443 776.9811669 77.6209566 783.5176884 77.6209566 783.5176884 41.5038696 773.9898946 41.5038696 766.0684815 69.0348389"/>
      </g>
    </g>
  </g>
</svg>