<?xml version="1.0" encoding="UTF-8"?>
<svg id="Layer_1" data-name="Layer 1" xmlns="http://www.w3.org/2000/svg" xmlns:xlink="http://www.w3.org/1999/xlink" version="1.1" viewBox="0 0 850 325">
  <defs>
    <style>
      .cls-1 {
        fill: url(#New_Gradient_Swatch-8);
      }

      .cls-1, .cls-2, .cls-3, .cls-4, .cls-5, .cls-6, .cls-7, .cls-8, .cls-9, .cls-10, .cls-11, .cls-12, .cls-13, .cls-14, .cls-15, .cls-16, .cls-17, .cls-18, .cls-19, .cls-20, .cls-21, .cls-22, .cls-23, .cls-24, .cls-25, .cls-26, .cls-27, .cls-28, .cls-29, .cls-30, .cls-31, .cls-32, .cls-33, .cls-34, .cls-35, .cls-36, .cls-37, .cls-38, .cls-39 {
        stroke-width: 0px;
      }

      .cls-2 {
        fill: url(#New_Gradient_Swatch-6);
      }

      .cls-3 {
        fill: url(#New_Gradient_Swatch-7);
      }

      .cls-4 {
        fill: url(#New_Gradient_Swatch-4);
      }

      .cls-5 {
        fill: url(#New_Gradient_Swatch-5);
      }

      .cls-6 {
        fill: url(#New_Gradient_Swatch-9);
      }

      .cls-7 {
        fill: url(#New_Gradient_Swatch-2);
      }

      .cls-8 {
        fill: url(#New_Gradient_Swatch-3);
      }

      .cls-9 {
        fill: #959595;
      }

      .cls-10 {
        fill: url(#New_Gradient_Swatch);
      }

      .cls-11 {
        fill: url(#New_Gradient_Swatch-13);
      }

      .cls-12 {
        fill: url(#New_Gradient_Swatch-10);
      }

      .cls-13 {
        fill: url(#New_Gradient_Swatch-19);
      }

      .cls-14 {
        fill: url(#New_Gradient_Swatch-12);
      }

      .cls-15 {
        fill: url(#New_Gradient_Swatch-11);
      }

      .cls-16 {
        fill: url(#New_Gradient_Swatch-14);
      }

      .cls-17 {
        fill: url(#New_Gradient_Swatch-18);
      }

      .cls-18 {
        fill: url(#New_Gradient_Swatch-17);
      }

      .cls-19 {
        fill: url(#New_Gradient_Swatch-16);
      }

      .cls-20 {
        fill: url(#New_Gradient_Swatch-15);
      }

      .cls-21 {
        fill: url(#New_Gradient_Swatch-29);
      }

      .cls-22 {
        fill: url(#New_Gradient_Swatch-26);
      }

      .cls-23 {
        fill: url(#New_Gradient_Swatch-21);
      }

      .cls-24 {
        fill: url(#New_Gradient_Swatch-24);
      }

      .cls-25 {
        fill: url(#New_Gradient_Swatch-25);
      }

      .cls-26 {
        fill: url(#New_Gradient_Swatch-27);
      }

      .cls-27 {
        fill: url(#New_Gradient_Swatch-23);
      }

      .cls-28 {
        fill: url(#New_Gradient_Swatch-28);
      }

      .cls-29 {
        fill: url(#New_Gradient_Swatch-22);
      }

      .cls-30 {
        fill: url(#New_Gradient_Swatch-20);
      }

      .cls-31 {
        fill: url(#New_Gradient_Swatch-33);
      }

      .cls-32 {
        fill: url(#New_Gradient_Swatch-32);
      }

      .cls-33 {
        fill: url(#New_Gradient_Swatch-35);
      }

      .cls-34 {
        fill: url(#New_Gradient_Swatch-31);
      }

      .cls-35 {
        fill: url(#New_Gradient_Swatch-34);
      }

      .cls-36 {
        fill: url(#New_Gradient_Swatch-37);
      }

      .cls-37 {
        fill: url(#New_Gradient_Swatch-30);
      }

      .cls-38 {
        fill: url(#New_Gradient_Swatch-38);
      }

      .cls-39 {
        fill: url(#New_Gradient_Swatch-36);
      }
    </style>
    <linearGradient id="New_Gradient_Swatch" data-name="New Gradient Swatch" x1="-67.7799359" y1="167.6799759" x2="771.1771046" y2="167.6799759" gradientUnits="userSpaceOnUse">
      <stop offset="0" stop-color="#ed1846"/>
      <stop offset=".0870934" stop-color="#e4274c"/>
      <stop offset=".2431" stop-color="#cf3e59"/>
      <stop offset=".4499" stop-color="#ab556f"/>
      <stop offset=".6999" stop-color="#75678f"/>
      <stop offset=".9837" stop-color="#0075b8"/>
      <stop offset="1" stop-color="#0076bb"/>
    </linearGradient>
    <linearGradient id="New_Gradient_Swatch-2" data-name="New Gradient Swatch" x1="-67.7799359" y1="172.594137" x2="771.1771046" y2="172.594137" xlink:href="#New_Gradient_Swatch"/>
    <linearGradient id="New_Gradient_Swatch-3" data-name="New Gradient Swatch" x1="-67.7799359" y1="172.594137" x2="771.1771046" y2="172.594137" xlink:href="#New_Gradient_Swatch"/>
    <linearGradient id="New_Gradient_Swatch-4" data-name="New Gradient Swatch" x1="-67.7799359" y1="165.7087313" x2="771.1771046" y2="165.7087313" xlink:href="#New_Gradient_Swatch"/>
    <linearGradient id="New_Gradient_Swatch-5" data-name="New Gradient Swatch" x1="-67.7799359" y1="172.0785808" x2="771.1771046" y2="172.0785808" xlink:href="#New_Gradient_Swatch"/>
    <linearGradient id="New_Gradient_Swatch-6" data-name="New Gradient Swatch" x1="-67.7799359" y1="164.1001957" x2="771.1771046" y2="164.1001957" xlink:href="#New_Gradient_Swatch"/>
    <linearGradient id="New_Gradient_Swatch-7" data-name="New Gradient Swatch" x1="-67.7799359" y1="172.594137" x2="771.1771046" y2="172.594137" xlink:href="#New_Gradient_Swatch"/>
    <linearGradient id="New_Gradient_Swatch-8" data-name="New Gradient Swatch" x1="-67.7799359" y1="172.594137" x2="771.1771046" y2="172.594137" xlink:href="#New_Gradient_Swatch"/>
    <linearGradient id="New_Gradient_Swatch-9" data-name="New Gradient Swatch" x1="-67.7799359" y1="166.1939607" x2="771.1771046" y2="166.1939607" xlink:href="#New_Gradient_Swatch"/>
    <linearGradient id="New_Gradient_Swatch-10" data-name="New Gradient Swatch" x1="-67.7799359" y1="235.9347749" x2="771.1771046" y2="235.9347749" xlink:href="#New_Gradient_Swatch"/>
    <linearGradient id="New_Gradient_Swatch-11" data-name="New Gradient Swatch" x1="-67.7799359" y1="234.4487597" x2="771.1771046" y2="234.4487597" xlink:href="#New_Gradient_Swatch"/>
    <linearGradient id="New_Gradient_Swatch-12" data-name="New Gradient Swatch" x1="-67.7799359" y1="240.848936" x2="771.1771046" y2="240.848936" xlink:href="#New_Gradient_Swatch"/>
    <linearGradient id="New_Gradient_Swatch-13" data-name="New Gradient Swatch" x1="-67.7799359" y1="232.3549947" x2="771.1771046" y2="232.3549947" xlink:href="#New_Gradient_Swatch"/>
    <linearGradient id="New_Gradient_Swatch-14" data-name="New Gradient Swatch" x1="-67.7799359" y1="240.848936" x2="771.1771046" y2="240.848936" xlink:href="#New_Gradient_Swatch"/>
    <linearGradient id="New_Gradient_Swatch-15" data-name="New Gradient Swatch" x1="-67.7799359" y1="240.848936" x2="771.1771046" y2="240.848936" xlink:href="#New_Gradient_Swatch"/>
    <linearGradient id="New_Gradient_Swatch-16" data-name="New Gradient Swatch" x1="-67.7799359" y1="240.3940334" x2="771.1771046" y2="240.3940334" xlink:href="#New_Gradient_Swatch"/>
    <linearGradient id="New_Gradient_Swatch-17" data-name="New Gradient Swatch" x1="-67.7799359" y1="247.5839206" x2="771.1771046" y2="247.5839206" xlink:href="#New_Gradient_Swatch"/>
    <linearGradient id="New_Gradient_Swatch-18" data-name="New Gradient Swatch" x1="-67.7799359" y1="235.9347749" x2="771.1771046" y2="235.9347749" xlink:href="#New_Gradient_Swatch"/>
    <linearGradient id="New_Gradient_Swatch-19" data-name="New Gradient Swatch" x1="-67.7799359" y1="240.848936" x2="771.1771046" y2="240.848936" xlink:href="#New_Gradient_Swatch"/>
    <linearGradient id="New_Gradient_Swatch-20" data-name="New Gradient Swatch" x1="-67.7799359" y1="241.3644923" x2="771.1771046" y2="241.3644923" xlink:href="#New_Gradient_Swatch"/>
    <linearGradient id="New_Gradient_Swatch-21" data-name="New Gradient Swatch" x1="-67.7799359" y1="240.3333797" x2="771.1771046" y2="240.3333797" xlink:href="#New_Gradient_Swatch"/>
    <linearGradient id="New_Gradient_Swatch-22" data-name="New Gradient Swatch" x1="-67.7799359" y1="240.848936" x2="771.1771046" y2="240.848936" xlink:href="#New_Gradient_Swatch"/>
    <linearGradient id="New_Gradient_Swatch-23" data-name="New Gradient Swatch" x1="-67.7799359" y1="232.3549947" x2="771.1771046" y2="232.3549947" xlink:href="#New_Gradient_Swatch"/>
    <linearGradient id="New_Gradient_Swatch-24" data-name="New Gradient Swatch" x1="-67.7799359" y1="234.4487597" x2="771.1771046" y2="234.4487597" xlink:href="#New_Gradient_Swatch"/>
    <linearGradient id="New_Gradient_Swatch-25" data-name="New Gradient Swatch" x1=".9640356" y1="203.7857089" x2="708.057412" y2="203.7857089" xlink:href="#New_Gradient_Swatch"/>
    <linearGradient id="New_Gradient_Swatch-26" data-name="New Gradient Swatch" x1=".9640356" y1="162.5" x2="708.057412" y2="162.5" xlink:href="#New_Gradient_Swatch"/>
    <linearGradient id="New_Gradient_Swatch-27" data-name="New Gradient Swatch" x1="-5.4873388" y1="94.1201028" x2="870.075061" y2="94.1201028" xlink:href="#New_Gradient_Swatch"/>
    <linearGradient id="New_Gradient_Swatch-28" data-name="New Gradient Swatch" x1=".9640356" y1="96.2851359" x2="708.057412" y2="96.2851359" xlink:href="#New_Gradient_Swatch"/>
    <linearGradient id="New_Gradient_Swatch-29" data-name="New Gradient Swatch" x1="-5.4873388" y1="96.2851359" x2="870.075061" y2="96.2851359" xlink:href="#New_Gradient_Swatch"/>
    <linearGradient id="New_Gradient_Swatch-30" data-name="New Gradient Swatch" x1="-62.0542114" y1="30.6005366" x2="813.5542974" y2="30.6005366" xlink:href="#New_Gradient_Swatch"/>
    <linearGradient id="New_Gradient_Swatch-31" data-name="New Gradient Swatch" x1=".9640356" y1="38.5435909" x2="708.057412" y2="38.5435909" xlink:href="#New_Gradient_Swatch"/>
    <linearGradient id="New_Gradient_Swatch-32" data-name="New Gradient Swatch" x1="-62.0542114" y1="38.5435909" x2="813.5542974" y2="38.5435909" xlink:href="#New_Gradient_Swatch"/>
    <linearGradient id="New_Gradient_Swatch-33" data-name="New Gradient Swatch" x1="-68.2985009" y1="265.6271773" x2="807.2638989" y2="265.6271773" xlink:href="#New_Gradient_Swatch"/>
    <linearGradient id="New_Gradient_Swatch-34" data-name="New Gradient Swatch" x1=".9640356" y1="261.1897541" x2="708.057412" y2="261.1897541" xlink:href="#New_Gradient_Swatch"/>
    <linearGradient id="New_Gradient_Swatch-35" data-name="New Gradient Swatch" x1="-68.2985009" y1="261.1897541" x2="807.2638989" y2="261.1897541" xlink:href="#New_Gradient_Swatch"/>
    <linearGradient id="New_Gradient_Swatch-36" data-name="New Gradient Swatch" x1="-15.7858912" y1="286.9768177" x2="859.7765086" y2="286.9768177" xlink:href="#New_Gradient_Swatch"/>
    <linearGradient id="New_Gradient_Swatch-37" data-name="New Gradient Swatch" x1=".9640356" y1="280.085195" x2="708.057412" y2="280.085195" xlink:href="#New_Gradient_Swatch"/>
    <linearGradient id="New_Gradient_Swatch-38" data-name="New Gradient Swatch" x1="-15.7858912" y1="280.085195" x2="859.7765086" y2="280.085195" xlink:href="#New_Gradient_Swatch"/>
  </defs>
  <g>
    <g>
      <path class="cls-9" d="M394.2169894,70.8821797h1.7172269c3.8776015,0,6.8688908-2.9359,6.8688908-6.8135015v-1.2186731l-4.2653685-.3877585v1.6064358c0,1.5510423-1.1632838,2.7697154-2.7143177,2.7697154h-1.5510339c-1.5510339,0-2.7143177-1.2186731-2.7143177-2.7697154v-10.6910989c0-1.5510423,1.1632838-2.7697154,2.7143177-2.7697154h1.5510339c1.5510339,0,2.7143177,1.2186731,2.7143177,2.7697154v1.6064358l4.2653685-.3877585v-1.2186731c0-3.8776015-2.9912892-6.8135015-6.8688908-6.8135015h-1.7172269c-3.8776015,0-6.8688908,2.9359-6.8688908,6.8135015v10.6910989c0,3.8776015,2.9912892,6.8135015,6.8688908,6.8135015v-.0000085Z"/>
      <path class="cls-9" d="M415.8207695,46.5640778h-1.7172269c-3.8776015,0-6.8688908,2.9359-6.8688908,6.8135015v10.6910989c0,3.8776015,2.9912892,6.8135015,6.8688908,6.8135015h1.7172269c3.8776015,0,6.8688908-2.9359,6.8688908-6.8135015v-10.6911031c0-3.8776015-2.9912892-6.8135015-6.8688908-6.8134973ZM418.4242918,64.0686782c0,1.5510423-1.1632838,2.7697154-2.7143177,2.7697154h-1.5510339c-1.5510339,0-2.7143177-1.2186731-2.7143177-2.7697154v-10.6911031c0-1.5510423,1.1632838-2.7697154,2.7143177-2.7697154h1.5510339c1.5510339,0,2.7143177,1.2186731,2.7143177,2.7697154v10.6911031Z"/>
      <polygon class="cls-9" points="431.6081472 54.2638874 431.8297211 55.3163759 441.0805772 70.9375732 444.9581788 70.9375732 444.9581788 46.5640778 440.5820149 46.5640778 440.5820149 63.2377636 440.3604411 62.1852709 431.0542041 46.5640778 427.2320003 46.5640778 427.2320003 70.9375732 431.6081472 70.9375732 431.6081472 54.2638874"/>
      <polygon class="cls-9" points="448.7249849 70.9375732 453.1565296 70.9375732 453.1565296 60.8558066 462.1304142 60.8558066 462.1304142 56.6458401 453.1565296 56.6458401 453.1565296 50.7186508 464.2907888 50.7186508 464.2907888 46.5640778 448.7249849 46.5640778 448.7249849 70.9375732"/>
      <rect class="cls-9" x="468.223788" y="46.5640778" width="4.3761469" height="24.3734954"/>
      <path class="cls-9" d="M492.874255,63.9024936v-10.3033404c0-3.9883885-3.1020846-7.0350754-7.0904646-7.0350754h-8.8630892v24.3734954h8.8630892c3.9883969,0,7.0904646-3.0466869,7.0904646-7.0350796ZM481.2968312,66.7830001v-16.0643493h4.3761469c1.6064315,0,2.7697154,1.2740708,2.7697154,2.8805023v10.3033404c0,1.6064358-1.1632838,2.8805023-2.7697154,2.8805023l-4.3761469.0000042Z"/>
      <polygon class="cls-9" points="496.9180327 70.9375732 512.4838366 70.9375732 512.4838366 66.7830001 501.2941797 66.7830001 501.2941797 60.8558066 510.2680643 60.8558066 510.2680643 56.6458401 501.2941797 56.6458401 501.2941797 50.7186508 512.4838366 50.7186508 512.4838366 46.5640778 496.9180327 46.5640778 496.9180327 70.9375732"/>
      <polygon class="cls-9" points="521.0145566 54.2638874 521.2361474 55.2609824 530.4869697 70.8821797 534.3645713 70.8821797 534.3645713 46.5640778 529.9884412 46.5640778 529.9884412 63.1823701 529.7668505 62.1852709 520.4606135 46.5640778 516.6383928 46.5640778 516.6383928 70.8821797 521.0145566 70.8821797 521.0145566 54.2638874"/>
      <polygon class="cls-9" points="538.9623259 50.7186508 544.6679328 50.7186508 544.6679328 70.8821797 549.0440628 70.8821797 549.0440628 50.7186508 554.8050844 50.7186508 554.8050844 46.5640778 538.9623259 46.5640778 538.9623259 50.7186508"/>
      <rect class="cls-9" x="559.4028052" y="46.5640778" width="4.3761638" height="24.318102"/>
      <path class="cls-9" d="M575.4117736,46.5640778l-6.7581123,24.318102h4.7085162l1.2740623-4.8193031h7.4782316l1.2740623,4.8193031h4.7085162l-6.8134931-24.318102h-5.8717831ZM575.522569,62.296062l2.7697154-10.5803119v-.9417015l.1107954.8863081,2.7143346,10.5803119h-5.5948116l-.0000338.0553935Z"/>
      <polygon class="cls-9" points="596.9601391 46.5640778 592.584009 46.5640778 592.584009 70.8821797 605.9340237 70.8821797 605.9340237 66.7276066 596.9601391 66.7276066 596.9601391 46.5640778"/>
      <path class="cls-9" d="M621.2228729,46.5640778h-1.71721c-3.8776015,0-6.8689077,2.9359-6.8689077,6.8135015v10.6910989c0,3.8776015,2.9913061,6.8135015,6.8689077,6.8135015h1.71721c3.8776015,0,6.8689077-2.9359,6.8689077-6.8135015v-1.2186731l-4.2653685-.3877585v1.6064358c0,1.5510423-1.1632669,2.7697154-2.7143346,2.7697154h-1.5510339c-1.5510339,0-2.7143346-1.2186731-2.7143346-2.7697154v-10.6910989c0-1.5510423,1.1632669-2.7697154,2.7143346-2.7697154h1.5510339c1.5510339,0,2.7143346,1.2186731,2.7143346,2.7697154v1.6064358l4.2653685-.3877585v-1.2186731c0-3.8776015-2.9913061-6.8135015-6.8689077-6.8135015v-.0000085Z"/>
      <path class="cls-9" d="M647.9783168,64.0686782v-10.6911031c0-3.8776015-2.9913061-6.8135015-6.8689077-6.8135015h-1.71721c-3.8776015,0-6.8689077,2.9359-6.8689077,6.8135015v10.6911031c0,3.8776015,2.9913061,6.8135015,6.8689077,6.8135015h1.71721c3.8776015,0,6.8689077-2.9359,6.8689077-6.8135015ZM643.7129484,64.0686782c0,1.5510423-1.1632669,2.7697154-2.7143346,2.7697154h-1.5510339c-1.5510339,0-2.7143346-1.2186731-2.7143346-2.7697154v-10.6911031c0-1.5510423,1.1632669-2.7697154,2.7143346-2.7697154h1.5510339c1.5510339,0,2.7143346,1.2186731,2.7143346,2.7697154v10.6911031Z"/>
      <polygon class="cls-9" points="664.3196376 65.1211709 664.2088423 66.007479 664.1534615 65.1211709 658.7802069 46.5640778 652.4098615 46.5640778 652.4098615 70.9375732 656.7859915 70.9375732 656.7859915 51.9373239 656.8967869 52.9898166 662.1038653 70.9375732 666.3692338 70.9375732 671.5208977 52.9898166 671.6870738 51.9373239 671.6870738 70.9375732 676.0632377 70.9375732 676.0632377 46.5640778 669.6374777 46.5640778 664.3196376 65.1211709"/>
      <path class="cls-9" d="M689.4132523,46.5640778h-9.08468v24.3734954h4.3761638v-7.9767812h4.6531354c3.9883969,0,7.0904646-3.0466869,7.0904646-7.0350754v-2.3265592c0-3.9883885-3.0466869-7.0350754-7.0350839-7.0350796ZM692.1275869,55.9257166c0,1.6064358-1.1632669,2.8805023-2.7697154,2.8805023h-4.5977208v-8.0875681h4.5977208c1.6064485,0,2.7697154,1.2740708,2.7697154,2.8805023v2.3265635Z"/>
      <path class="cls-9" d="M716.2794916,64.0132847v-17.449207h-4.3207492v17.449207c0,1.6064358-1.1632669,2.8251089-2.7697154,2.8251089h-1.6064485c-1.6064485,0-2.7697154-1.2186731-2.7697154-2.8251089v-17.449207h-4.3207492v17.449207c0,3.932995,3.0466869,6.9242885,6.9796693,6.9242885h1.71721c3.9883969,0,7.0904646-2.9912935,7.0904646-6.9242885h.0000338Z"/>
      <polygon class="cls-9" points="720.6556554 50.7186508 726.4166432 50.7186508 726.4166432 70.9375732 730.792807 70.9375732 730.792807 50.7186508 736.5537947 50.7186508 736.5537947 46.5640778 720.6556554 46.5640778 720.6556554 50.7186508"/>
      <rect class="cls-9" x="740.7083678" y="46.5640778" width="4.3761638" height="24.318102"/>
      <polygon class="cls-9" points="753.7814447 54.2638874 754.0030017 55.3163759 763.3092724 70.9375732 767.1314594 70.9375732 767.1314594 46.5640778 762.7553294 46.5640778 762.7553294 63.2377636 762.5337386 62.1852709 753.2828824 46.5640778 749.4052809 46.5640778 749.4052809 70.9375732 753.7814447 70.9375732 753.7814447 54.2638874"/>
      <path class="cls-9" d="M785.0792286,54.5962524v-1.2186731c0-3.8776015-2.9913061-6.8135015-6.8689077-6.8135015h-1.71721c-3.8776015,0-6.8689077,2.9359-6.8689077,6.8135015v10.6910989c0,3.8776015,2.9913061,6.8135015,6.8689077,6.8135015h.9970908c1.9388008,0,3.60063-.8309146,4.7085162-2.2157723l1.2186815,1.8834073h1.6618292v-13.1284535h-7.7552031v4.0437862h3.4898346v2.5481373c0,1.5510423-1.1632669,2.7697154-2.7143346,2.7697154h-1.5510339c-1.5510339,0-2.7143346-1.2186731-2.7143346-2.7697154v-10.6357096c0-1.5510423,1.1632669-2.7697154,2.7143346-2.7697154h1.5510339c1.5510339,0,2.7143346,1.2186731,2.7143346,2.7697154v1.6064358l4.2653685-.3877585Z"/>
    </g>
    <g>
      <path class="cls-9" d="M400.0887895,79.1359282h-2.4927439c-5.7610046,0-10.2479469,4.3761469-10.2479469,10.13716v15.8427754c0,5.7610046,4.4869423,10.13716,10.2479469,10.13716h2.4927439c5.7610046,0,10.2479469-4.3761469,10.2479469-10.13716v-1.8280138l-6.3149477-.6093408v2.3819569c0,2.3265592-1.7172269,4.0991754-3.9883969,4.0991754h-2.3265677c-2.3265677,0-3.9883969-1.8280138-3.9883969-4.0991754v-15.8427754c0-2.3265592,1.7172269-4.0991754,3.9883969-4.0991754h2.3265677c2.3265677,0,3.9883969,1.8280138,3.9883969,4.0991754v2.3819569l6.3149477-.6093408v-1.8280138c-.0553977-5.6502177-4.4869423-10.0263731-10.2479469-10.0263731v.0000085Z"/>
      <path class="cls-9" d="M442.077668,79.1359282h-2.4927439c-5.7610046,0-10.2479469,4.3761469-10.2479469,10.13716v15.8427754c0,5.7610046,4.4869423,10.13716,10.2479469,10.13716h2.4927439c5.7610046,0,10.2479469-4.3761469,10.2479469-10.13716v-15.8427754c0-5.7610046-4.4869423-10.13716-10.2479469-10.13716ZM446.0106672,105.1158636c0,2.3265592-1.7172269,4.0991754-3.9883969,4.0991754h-2.3265677c-2.3265677,0-3.9883969-1.8280138-3.9883969-4.0991754v-15.8427754c0-2.3265592,1.7172269-4.0991754,3.9883969-4.0991754h2.3265677c2.3265677,0,3.9883969,1.8280138,3.9883969,4.0991754v15.8427754Z"/>
      <polygon class="cls-9" points="491.1016304 103.8417929 490.7692612 102.3461482 476.9760819 79.1359282 471.270475 79.1359282 471.270475 115.2530152 477.7515988 115.2530152 477.7515988 90.547159 478.0839681 92.0982013 491.8771473 115.2530152 497.5827712 115.2530152 497.5827712 79.1359282 491.1016304 79.1359282 491.1016304 103.8417929"/>
      <path class="cls-9" d="M522.4547951,89.6054575v-.2769715c0-2.3265592,1.71721-4.0991754,3.9883969-4.0991754h1.5510339c2.3265677,0,3.9883969,1.8280138,3.9883969,4.0991754v1.7726162l6.3149646-.6093408v-1.1632838c0-5.7610046-4.4869254-10.13716-10.2479469-10.13716h-1.7726246c-5.7610215,0-10.2479469,4.3761469-10.2479469,10.13716v.2769715c0,13.5162077,16.1751446,7.6444162,16.1751446,15.1226477v.4431562c0,2.3265592-1.71721,4.0991754-3.9883969,4.0991754h-2.0495962c-2.3265677,0-3.9883969-1.8280138-3.9883969-4.0991754v-1.7726162l-6.3149477.6093408v1.1632838c0,5.7610046,4.4869423,10.13716,10.24793,10.13716h2.2711531c5.7610215,0,10.2479469-4.3761469,10.2479469-10.13716v-.4431562c0-13.07306-16.1751446-8.0875723-16.1751446-15.1226477h.0000338Z"/>
      <path class="cls-9" d="M570.7032575,79.1359282h-2.4927439c-5.7610215,0-10.2479469,4.3761469-10.2479469,10.13716v15.8427754c0,5.7610046,4.4869254,10.13716,10.2479469,10.13716h2.4927439c5.7610215,0,10.2479469-4.3761469,10.2479469-10.13716v-15.8427754c-.0553808-5.7610046-4.4869254-10.13716-10.2479469-10.13716ZM574.580859,105.1158636c0,2.3265592-1.71721,4.0991754-3.9883969,4.0991754h-2.3265677c-2.3265677,0-3.9883969-1.8280138-3.9883969-4.0991754v-15.8427754c0-2.3265592,1.71721-4.0991754,3.9883969-4.0991754h2.3265677c2.3265677,0,3.9883969,1.8280138,3.9883969,4.0991754v15.8427754Z"/>
      <path class="cls-9" d="M624.3803214,91.4888605v-1.9388008c0-5.9271892-4.5977208-10.4141316-10.5249185-10.4141316h-13.4054292v36.117087h6.4811408v-13.3500316h4.2099539l6.8689077,13.3500316h7.1458792l-7.3674362-14.0701508c3.9329823-1.4956446,6.5919362-5.1516723,6.5919362-9.6940039h-.0000338ZM613.8000222,95.6988313h-6.8134931v-10.3587339h6.8134931c2.3819485,0,4.1545731,1.8834031,4.1545731,4.2099708v1.8834031c0,2.4373462-1.8280054,4.26536-4.1545731,4.26536Z"/>
      <polygon class="cls-9" points="640.1123184 85.340089 648.5876407 85.340089 648.5876407 115.2530152 655.1241623 115.2530152 655.1241623 85.340089 663.5995184 85.340089 663.5995184 79.1359282 640.1123184 79.1359282 640.1123184 85.340089"/>
      <rect class="cls-9" x="682.1566115" y="79.1359282" width="6.4811408" height="36.117087"/>
      <path class="cls-9" d="M724.8656093,105.0050683c0,2.3265592-1.71721,4.1545731-4.0437777,4.1545731h-2.3265677c-2.3265677,0-4.0437777-1.8280138-4.0437777-4.1545731v-25.8137508h-6.4257262v25.8137508c0,5.8718,4.54234,10.2479469,10.3587423,10.2479469h2.5481246c5.8717831,0,10.3587423-4.4315446,10.3587423-10.2479469v-25.8137508h-6.4257262v25.8137508h-.0000338Z"/>
      <polygon class="cls-9" points="767.5746071 106.6668975 767.4638455 107.996366 767.3530501 106.6668975 759.4316709 79.1359282 749.9038432 79.1359282 749.9038432 115.2530152 756.4403647 115.2530152 756.4403647 87.1681028 756.6065409 88.7191452 764.3063632 115.2530152 770.621294 115.2530152 778.2657355 88.7191452 778.4872925 87.1681028 778.4872925 115.2530152 785.023814 115.2530152 785.023814 79.1359282 775.4960202 79.1359282 767.5746071 106.6668975"/>
    </g>
  </g>
  <g>
    <path class="cls-10" d="M414.8347465,146.6574105l-.9704589,7.6447898h-10.3742054v34.4003411h-9.9496296v-34.4003411h-10.861861v-7.6447898h32.1561549Z"/>
    <path class="cls-7" d="M443.2303733,175.4169593h-19.9623391c.3226776,2.7100064,1.0917662,4.6096797,2.3048398,5.7014459,1.2154997,1.0917662,2.8919675,1.6400755,5.0366816,1.6400755,1.2931365,0,2.5474546-.2329101,3.7629543-.6987304,1.2130736-.4658203,2.5256192-1.1839598,3.9424892-2.1544187l3.9424892,5.33995c-3.7605281,2.9938656-7.9456321,4.4883723-12.5577379,4.4883723-5.2186426,0-9.2217855-1.5357512-12.0142809-4.6096797-2.7900693-3.0739285-4.1851039-7.1983787-4.1851039-12.378203,0-3.2752987.5847015-6.2182153,1.7589567-8.8263235,1.1742552-2.6105344,2.8919675-4.6727595,5.1579889-6.1891015,2.2635953-1.516342,4.9736017-2.2757261,8.1300192-2.2757261,4.6509242,0,8.290145,1.4556883,10.9200885,4.3694911,2.6299436,2.9113766,3.9449153,6.955764,3.9449153,12.1331621,0,1.334381-.0606537,2.489227-.181961,3.4596859ZM434.0061617,169.2278578c-.0800629-4.9347834-1.8196104-7.4021751-5.2162165-7.4021751-1.6594847,0-2.9429165.6065368-3.8527217,1.8196104s-1.4678191,3.2170712-1.6691893,6.0071405h10.7381275v-.4245758Z"/>
    <path class="cls-8" d="M468.7728509,156.4250791c1.7783659.6477813,3.4572598,1.6400755,5.0342554,2.9744565l-4.1244502,5.7014459c-2.0234068-1.5357512-4.0662227-2.3048398-6.1284478-2.3048398-2.1447141,0-3.7605281.7884978-4.8547205,2.3654935-1.0917662,1.5794218-1.6376494,4.1268764-1.6376494,7.6447898,0,3.3990322.5458831,5.8057702,1.6376494,7.220214,1.0941924,1.41687,2.6711881,2.1228788,4.7334132,2.1228788,1.0917662,0,2.0816343-.1698303,2.9720303-.5143432s1.9627531-.9001006,3.2170712-1.6691893l4.1851039,5.9464868c-3.1952359,2.5474546-6.8150475,3.8211818-10.8594348,3.8211818-3.2752987,0-6.1090386-.6963042-8.4939413-2.0913389-2.3873288-1.3974608-4.2263484-3.3577877-5.521911-5.8858331s-1.9409178-5.4903711-1.9409178-8.8894033c0-3.3966061.6453552-6.4098809,1.9409178-9.0398244,1.2955626-2.6275174,3.1345822-4.6800379,5.521911-6.1575616,2.3849027-1.4750975,5.1579889-2.2150724,8.3119803-2.2150724,2.224777,0,4.2263484.3251037,6.0071405.9704589Z"/>
    <path class="cls-4" d="M503.2920732,158.0045009c1.5769957,1.698303,2.3679197,4.0856319,2.3679197,7.1571342v23.5409062h-9.5881337v-21.9008307c0-1.6182402-.2620239-2.7415463-.7884978-3.3674923-.5264739-.6283721-1.2737273-.9413451-2.2441862-.9413451-1.9409178,0-3.8017727,1.3756255-5.5825647,4.1268764v22.0827918h-9.5857076v-45.0171612l9.5857076-.9704589v17.2304974c1.3368071-1.4969328,2.7512509-2.6178128,4.2481837-3.3674923,1.4945067-.7472533,3.1734005-1.1233062,5.0342554-1.1233062,2.7924954,0,4.9760279.8491515,6.5530236,2.5498807Z"/>
    <path class="cls-5" d="M538.2989511,158.0045009c1.5769957,1.698303,2.3679197,4.0856319,2.3679197,7.1571342v23.5409062h-9.5881337v-21.9008307c0-1.6182402-.2523193-2.7415463-.7569579-3.3674923-.5070648-.6283721-1.2640227-.9413451-2.2757261-.9413451-1.9409178,0-3.8017727,1.3950346-5.5825647,4.1875301v22.0221381h-9.5857076v-32.2168086h8.372634l.6671905,3.823608c1.3756255-1.6182402,2.8628537-2.8313138,4.4592585-3.6416469,1.598831-.807907,3.3869015-1.2130736,5.3690637-1.2130736,2.7924954,0,4.9760279.8491515,6.5530236,2.5498807Z"/>
    <path class="cls-2" d="M556.7134083,141.045732c1.0723571,1.0311126,1.6085356,2.3363797,1.6085356,3.9133754s-.5361785,2.8822629-1.6085356,3.9133754-2.4358518,1.5478819-4.0953365,1.5478819-3.0132748-.5167694-4.0637965-1.5478819c-1.0529479-1.0311126-1.5769957-2.3363797-1.5769957-3.9133754s.5240478-2.8822629,1.5769957-3.9133754c1.0505217-1.0311126,2.4043119-1.5478819,4.0637965-1.5478819s3.0229794.5167694,4.0953365,1.5478819ZM557.4727923,156.4857327v32.2168086h-9.5857076v-32.2168086h9.5857076Z"/>
    <path class="cls-3" d="M584.9561877,156.4250791c1.780792.6477813,3.4596859,1.6400755,5.0366816,2.9744565l-4.1268764,5.7014459c-2.0234068-1.5357512-4.0637965-2.3048398-6.1284478-2.3048398-2.142288,0-3.7605281.7884978-4.8522944,2.3654935-1.0917662,1.5794218-1.6376494,4.1268764-1.6376494,7.6447898,0,3.3990322.5458831,5.8057702,1.6376494,7.220214,1.0917662,1.41687,2.6687619,2.1228788,4.730987,2.1228788,1.0941924,0,2.0840604-.1698303,2.9744565-.5143432.8879699-.3445129,1.9603269-.9001006,3.214645-1.6691893l4.1875301,5.9464868c-3.1952359,2.5474546-6.8174736,3.8211818-10.861861,3.8211818-3.2752987,0-6.1066125-.6963042-8.4939413-2.0913389-2.3849027-1.3974608-4.2263484-3.3577877-5.5194849-5.8858331-1.2955626-2.5280454-1.9433439-5.4903711-1.9433439-8.8894033,0-3.3966061.6477813-6.4098809,1.9433439-9.0398244,1.2931365-2.6275174,3.1345822-4.6800379,5.5194849-6.1575616,2.3873288-1.4750975,5.1579889-2.2150724,8.3119803-2.2150724,2.224777,0,4.2263484.3251037,6.0071405.9704589Z"/>
    <path class="cls-1" d="M619.5676036,182.0282104c.3445129.5677184.9001006.9922942,1.6691893,1.2761534l-2.0015714,6.247329c-1.9821623-.1601257-3.6004024-.5968322-4.8547205-1.302841-1.2543181-.708435-2.224777-1.829315-2.9113766-3.3674923-2.1034696,3.2364804-5.33995,4.8522944-9.7070149,4.8522944-3.1952359,0-5.7451166-.9292144-7.6447898-2.7900693-1.9020994-1.8608549-2.8531491-4.2870021-2.8531491-7.2808677,0-3.5179134,1.2955626-6.2085107,3.8842617-8.0693656,2.5886991-1.8584288,6.329818-2.7900693,11.2233569-2.7900693h3.2777249v-1.3950346c0-1.9020994-.4051666-3.2049404-1.2130736-3.9133754-.8103332-.708435-2.2272031-1.0626525-4.2481837-1.0626525-1.0529479,0-2.3266752.1528473-3.8211818.4561157-1.4969328.3032684-3.0351101.7181396-4.6121058,1.2421874l-2.1835325-6.3079827c2.0209806-.7690887,4.0953365-1.3562163,6.2182153-1.7613829,2.1228788-.4027404,4.0953365-.6065368,5.9149469-.6065368,4.6121058,0,7.9893027.9510497,10.1315907,2.8531491,2.1447141,1.8996733,3.2170712,4.7528224,3.2170712,8.554595v12.4970842c0,1.2130736.1722565,2.1034696.5143432,2.6687619ZM609.6495139,179.7840242v-5.7038721h-2.3679197c-2.1835325,0-3.8114772.3857574-4.8838343,1.1548461s-1.6061094,1.9603269-1.6061094,3.5785671c0,1.2955626.3323822,2.2951352.9995726,3.0035702s1.5867003,1.0626525,2.7609555,1.0626525c2.1835325,0,3.8842617-1.0335387,5.0973353-3.0957638Z"/>
    <path class="cls-6" d="M628.1221986,187.3390466c-1.5575865-1.598831-2.3339536-3.8745571-2.3339536-6.8271782v-36.8264882l9.5857076-1.0311126v37.4936787c0,1.334381.5458831,2.0015714,1.6376494,2.0015714.5652923,0,1.0917662-.099472,1.5769957-.3032684l1.8802641,6.7956383c-1.7395475.7278442-3.6804653,1.0917662-5.8227533,1.0917662-2.7924954,0-4.9663233-.7982024-6.5239098-2.3946073Z"/>
    <path class="cls-12" d="M408.2210693,256.9573403l-2.1835325-9.0398244h-12.2544695l-2.1253049,9.0398244h-10.3135517l12.6814714-42.0451309h12.0725084l12.6814714,42.0451309h-10.5585926ZM395.4813704,240.6973018h8.8578634l-4.4301448-18.5648783-4.4277186,18.5648783Z"/>
    <path class="cls-15" d="M450.5694685,211.9401791v45.0171612h-8.4939413l-.4852294-3.7605281c-2.2660215,3.1952359-5.3181146,4.7916407-9.1611318,4.7916407-4.0031429,0-7.0479576-1.5357512-9.132018-4.6096797-2.0816343-3.0739285-3.1224514-7.2808677-3.1224514-12.6208177,0-3.2752987.5458831-6.2085107,1.6376494-8.7972097s2.6396481-4.6121058,4.6412196-6.0677941c2.0015714-1.4556883,4.2967067-2.1835325,6.8854057-2.1835325,3.0739285,0,5.621383,1.0117034,7.6447898,3.032684v-15.8330366l9.5857076,1.0311126ZM440.983761,247.3109791v-13.894545c-.7690887-.9292144-1.5478819-1.615814-2.3363797-2.0622251-.7884978-.4439849-1.6885984-.6671905-2.7003018-.6671905-1.7783659,0-3.1952359.8297423-4.2457576,2.4868009-1.0529479,1.6594847-1.5769957,4.2069392-1.5769957,7.6447898,0,3.7629543.4536895,6.3904717,1.3634947,7.8874045.9122313,1.4969328,2.2150724,2.2441862,3.9133754,2.2441862,2.224777,0,4.0856319-1.2130736,5.5825647-3.6392208Z"/>
    <path class="cls-14" d="M485.8213873,224.7405317l-10.1340168,32.2168086h-11.3446643l-10.3742054-32.2168086h10.4348591l5.7038721,24.9359409,5.9440606-24.9359409h9.7700947Z"/>
    <path class="cls-11" d="M498.0443168,209.300531c1.0723571,1.0311126,1.6085356,2.3363797,1.6085356,3.9133754s-.5361785,2.8822629-1.6085356,3.9109493c-1.0723571,1.0335387-2.4358518,1.5478819-4.0953365,1.5478819s-3.0132748-.5143432-4.0637965-1.5478819c-1.0529479-1.0286864-1.5769957-2.3339536-1.5769957-3.9109493s.5240478-2.8822629,1.5769957-3.9133754c1.0505217-1.0311126,2.4043119-1.5478819,4.0637965-1.5478819s3.0229794.5167694,4.0953365,1.5478819ZM498.8037009,224.7405317v32.2168086h-9.5857076v-32.2168086h9.5857076Z"/>
    <path class="cls-16" d="M524.1642175,224.7405317c2.0209806.6890258,3.8017727,1.6594847,5.33995,2.9113766l-3.5203396,5.4006037c-2.6299436-1.6570585-5.2792963-2.4868009-7.9480582-2.4868009-1.2543181,0-2.2150724.2110748-2.8822629.6356506s-.9995726,1.0238341-.9995726,1.7904966c0,.6065368.1504211,1.103897.4536895,1.4872282s.9195098.7787932,1.8511503,1.1815337c.9292144.4051666,2.3654935.890396,4.3064113,1.4581145,3.3577877.9704589,5.8567193,2.2344816,7.4943687,3.7920681s2.4576871,3.7095791,2.4576871,6.46083c0,2.1835325-.6283721,4.0759273-1.8826902,5.6723321-1.2543181,1.598831-2.9720303,2.8216092-5.1555628,3.6707607s-4.6121058,1.2737273-7.2808677,1.2737273c-2.7100064,0-5.2283472-.4245758-7.5525962-1.2737273-2.3266752-.8491515-4.2991328-2.0209806-5.917373-3.5179134l4.6727595-5.2186426c2.7100064,2.1034696,5.5607294,3.1539914,8.554595,3.1539914,1.4556883,0,2.5984036-.2620239,3.428146-.7884978.8273162-.5240478,1.2421874-1.2737273,1.2421874-2.2441862,0-.7690887-.1601257-1.3756255-.4852294-1.8196104-.3226776-.4464111-.9510497-.8588561-1.8802641-1.2446135-.9316405-.3833313-2.406738-.8588561-4.4277186-1.4265745-3.197662-.9292144-5.5825647-2.2223508-7.1595604-3.8818355-1.5769957-1.6570585-2.3679197-3.7217098-2.3679197-6.1891015,0-1.8584288.5361785-3.527618,1.6085356-5.0051417,1.0723571-1.4750975,2.6081082-2.6493527,4.6121058-3.5179134,2.0015714-.8709868,4.3161159-1.3052672,6.9460594-1.3052672,2.3048398,0,4.4689631.3445129,6.4923699,1.0311126Z"/>
    <path class="cls-20" d="M561.1726668,228.2293314c2.7900693,3.0132748,4.1851039,7.2299186,4.1851039,12.6499315,0,3.4378506-.6356506,6.4414208-1.9093778,9.0107107-1.2761534,2.5692899-3.0957638,4.5587306-5.4612573,5.9756005-2.3654935,1.4144438-5.1676935,2.1228788-8.4041739,2.1228788-4.8935389,0-8.7462606-1.5066374-11.5581652-4.5199122-2.8094784-3.0132748-4.2166438-7.2299186-4.2166438-12.6499315,0-3.4378506.6380767-6.4414208,1.911804-9.0107107,1.2737273-2.5668637,3.0957638-4.5587306,5.4612573-5.9756005,2.3654935-1.4144438,5.1652674-2.1228788,8.4017477-2.1228788,4.9347834,0,8.7972097,1.5066374,11.5897051,4.5199122ZM545.2158967,233.2053593c-.9704589,1.6376494-1.4556883,4.1753993-1.4556883,7.6132499,0,3.5179134.4730987,6.0872033,1.4241484,7.7054435s2.4164426,2.4261472,4.3986049,2.4261472c1.9433439,0,3.3990322-.8176116,4.3694911-2.4576871.9704589-1.6376494,1.4556883-4.1753993,1.4556883-7.6132499,0-3.5179134-.4755248-6.0872033-1.4265745-7.7054435-.9486236-1.615814-2.4164426-2.4261472-4.3986049-2.4261472-1.9409178,0-3.3966061.8176116-4.3670649,2.4576871Z"/>
    <path class="cls-19" d="M591.751826,224.2553023l-1.516342,9.2824392c-1.2154997-.2814331-2.1859586-.4245758-2.9138028-.4245758-1.9020994,0-3.3480831.6574859-4.3379512,1.9724577-.9922942,1.3149718-1.7686613,3.2874294-2.3363797,5.9149469v15.9567701h-9.5857076v-32.2168086h8.372634l.7884978,6.2497552c.7278442-2.224777,1.829315-3.9740291,3.3068386-5.2477564s3.1442868-1.911804,5.0051417-1.911804c1.1742552,0,2.2466123.1431427,3.2170712.4245758Z"/>
    <path class="cls-18" d="M613.1674273,257.017994c-1.2955626,4.1656947-3.4087368,7.3706352-6.3395226,9.6172475-2.933212,2.2441862-6.8684227,3.5082088-11.8007799,3.7920681l-1.0311126-6.7349846c3.0715023-.4051666,5.3472284-1.0917662,6.8247521-2.0622251,1.4750975-.972885,2.6590573-2.5304715,3.5494533-4.6727595h-3.2777249l-9.8283223-32.2168086h10.1922444l5.7645257,26.0883608,6.3104089-26.0883608h9.888976l-10.252898,32.2774623Z"/>
    <path class="cls-17" d="M665.5552236,215.0335168c2.0428159.7690887,3.9740291,1.9215086,5.7936395,3.4572598l-4.730987,5.6432184c-1.2543181-.9704589-2.489227-1.698303-3.7023006-2.1835325s-2.5086362-.7278442-3.8818355-.7278442c-2.8313138,0-5.0657953,1.1936644-6.7034447,3.5785671-1.6400755,2.3873288-2.4576871,6.0677941-2.4576871,11.0413959,0,4.895965.8176116,8.5254812,2.4576871,10.8909748,1.6376494,2.3679197,3.9133754,3.5494533,6.8247521,3.5494533,1.5357512,0,2.9307858-.2935638,4.1851039-.8782653,1.2543181-.5871276,2.6105344-1.4265745,4.0662227-2.5183408l4.4277186,5.7014459c-1.5769957,1.5794218-3.4887997,2.8725583-5.7329858,3.8842617-2.2441862,1.0092772-4.7212824,1.516342-7.4312889,1.516342-3.8842617,0-7.2614585-.8491515-10.1315907-2.5474546-2.8725583-1.698303-5.1070398-4.2166438-6.7058708-7.5550224-1.598831-3.3359524-2.3970334-7.3487998-2.3970334-12.0433947,0-4.5684352.8200378-8.5133505,2.4576871-11.8298937,1.6376494-3.3165432,3.9036708-5.834884,6.7956383-7.5525962,2.8919675-1.7201384,6.1793969-2.5789945,9.8598622-2.5789945,2.6275174,0,4.9638972.3857574,7.0067131,1.1524199Z"/>
    <path class="cls-13" d="M700.4116804,228.2293314c2.7924954,3.0132748,4.1875301,7.2299186,4.1875301,12.6499315,0,3.4378506-.6380767,6.4414208-1.911804,9.0107107s-3.0933377,4.5587306-5.4612573,5.9756005c-2.3654935,1.4144438-5.1676935,2.1228788-8.4017477,2.1228788-4.8935389,0-8.7462606-1.5066374-11.5581652-4.5199122-2.8119046-3.0132748-4.2166438-7.2299186-4.2166438-12.6499315,0-3.4378506.6380767-6.4414208,1.911804-9.0107107,1.2737273-2.5668637,3.0933377-4.5587306,5.4588312-5.9756005,2.3679197-1.4144438,5.1676935-2.1228788,8.4041739-2.1228788,4.9347834,0,8.7972097,1.5066374,11.587279,4.5199122ZM684.4549103,233.2053593c-.9704589,1.6376494-1.4556883,4.1753993-1.4556883,7.6132499,0,3.5179134.4755248,6.0872033,1.4265745,7.7054435.9486236,1.6182402,2.4164426,2.4261472,4.3986049,2.4261472,1.9409178,0,3.3966061-.8176116,4.3670649-2.4576871.972885-1.6376494,1.4581145-4.1753993,1.4581145-7.6132499,0-3.5179134-.477951-6.0872033-1.4265745-7.7054435-.9510497-1.615814-2.4164426-2.4261472-4.3986049-2.4261472-1.9409178,0-3.3990322.8176116-4.3694911,2.4576871Z"/>
    <path class="cls-30" d="M737.4832095,256.9573403h-8.3119803l-.4245758-4.0637965c-2.3460843,3.3966061-5.6044,5.0949091-9.7676686,5.0949091-2.9550473,0-5.1895288-.890396-6.7058708-2.6687619-1.516342-1.780792-2.2757261-4.2675929-2.2757261-7.4628288v-23.1163305h9.5881337v21.9032569c0,1.5769957.2523193,2.6784665.7569579,3.3068386.5046386.625946,1.2834319.938919,2.3363797.938919,2.0209806,0,3.7605281-1.251892,5.2186426-3.7605281v-22.3884863h9.5857076v32.2168086Z"/>
    <path class="cls-23" d="M770.4278622,226.2568737c1.5769957,1.698303,2.3654935,4.0856319,2.3654935,7.1595604v23.5409062h-9.5857076v-21.9032569c0-1.615814-.2547455-2.7391202-.7593841-3.3674923-.5070648-.625946-1.2640227-.938919-2.2757261-.938919-1.9409178,0-3.8017727,1.3950346-5.5801385,4.1851039v22.0245642h-9.5881337v-32.2168086h8.372634l.6696166,3.823608c1.3731993-1.6182402,2.8604275-2.8313138,4.4592585-3.6416469,1.5964049-.807907,3.3869015-1.2130736,5.3690637-1.2130736,2.7900693,0,4.9736017.8491515,6.5530236,2.5474546Z"/>
    <path class="cls-29" d="M799.9734827,224.6798781c1.7783659.6477813,3.4572598,1.6376494,5.0342554,2.9720303l-4.1244502,5.7038721c-2.0234068-1.5357512-4.0662227-2.3048398-6.1284478-2.3048398-2.1447141,0-3.7605281.7884978-4.8522944,2.3654935s-1.6400755,4.1268764-1.6400755,7.6447898c0,3.3966061.5483093,5.8057702,1.6400755,7.220214,1.0917662,1.41687,2.6687619,2.1228788,4.730987,2.1228788,1.0917662,0,2.0840604-.1722565,2.9744565-.5143432.8879699-.3445129,1.9603269-.9001006,3.214645-1.6691893l4.1851039,5.9464868c-3.1952359,2.5474546-6.8150475,3.8211818-10.8594348,3.8211818-3.2752987,0-6.1066125-.6963042-8.4939413-2.093765-2.3873288-1.3950346-4.2263484-3.3553616-5.521911-5.8834069-1.2931365-2.5280454-1.9409178-5.4927972-1.9409178-8.8894033s.6477813-6.4098809,1.9409178-9.0398244c1.2955626-2.6299436,3.1345822-4.6800379,5.521911-6.1575616s5.1579889-2.2150724,8.3119803-2.2150724c2.224777,0,4.2263484.3251037,6.0071405.9704589Z"/>
    <path class="cls-27" d="M817.9002844,209.300531c1.0723571,1.0311126,1.6085356,2.3363797,1.6085356,3.9133754s-.5361785,2.8822629-1.6085356,3.9109493c-1.0723571,1.0335387-2.4382779,1.5478819-4.0953365,1.5478819-1.6594847,0-3.0132748-.5143432-4.0637965-1.5478819-1.0529479-1.0286864-1.5794218-2.3339536-1.5794218-3.9109493s.5264739-2.8822629,1.5794218-3.9133754c1.0505217-1.0311126,2.4043119-1.5478819,4.0637965-1.5478819,1.6570585,0,3.0229794.5167694,4.0953365,1.5478819ZM818.6596684,224.7405317v32.2168086h-9.5881337v-32.2168086h9.5881337Z"/>
    <path class="cls-24" d="M828.2138361,255.5914194c-1.5575865-1.5964049-2.3363797-3.8721309-2.3363797-6.8247521v-36.8264882l9.5881337-1.0311126v37.4936787c0,1.334381.5458831,2.0015714,1.6376494,2.0015714.5652923,0,1.0917662-.099472,1.5769957-.3032684l1.8802641,6.7956383c-1.7395475.7278442-3.6804653,1.0917662-5.8251794,1.0917662-2.7900693,0-4.9638972-.7982024-6.5214837-2.3970334Z"/>
  </g>
  <g>
    <path class="cls-25" d="M115.1561354,214.3940754c-1.7813986,1.7813986-1.7813986,4.6673007,0,6.4486992,1.7817018,1.7813986,4.6669974,1.7813986,6.448396,0l27.6605042-27.665963c1.7813986-1.7810953,1.7813986-4.6669974,0-6.448396-1.780792-1.7810953-4.6669974-1.7810953-6.448396,0l-27.6605042,27.6656597Z"/>
    <path class="cls-22" d="M264.2040621,263.5432685c0-15.1461337,12.3220983-27.468232,27.468232-27.468232,6.1675694,0,11.8477866,2.0679872,16.4374505,5.5131162,13.5846047-23.2273267,21.4046836-50.2373201,21.4046836-79.0881527,0-42.731124-17.1010018-81.4512201-44.8048733-109.7510141-4.9663233,4.9214396-11.7925917,7.9695903-19.3203199,7.9695903-15.1461337,0-27.468232-12.3224016-27.468232-27.4685353,0-4.3555407,1.0459727-8.4617949,2.8580014-12.1243673-20.6225544-9.9663094-43.7555646-15.5567591-68.1956617-15.5567591-53.0480117,0-99.9135937,26.3479585-128.3189251,66.6432307,1.1002578.8060874,2.1647298,1.6716154,3.1500489,2.6487462,5.2210688,5.1770948,8.0963565,12.105868,8.0960532,19.5098627,0,15.1461337-12.3220983,27.4685353-27.468232,27.4685353-2.3469941,0-4.6133189-.3275299-6.7892697-.8840274-3.625877,13.2370591-5.6007608,27.1567753-5.6007608,41.544738,0,38.7765041,14.0931858,74.242227,37.3981492,101.6264536,4.8535075-4.3155093,11.2221438-6.9621326,18.2124804-6.9621326,15.1461337,0,27.468232,12.3220983,27.468232,27.468232,0,5.1707262-1.4626635,9.9945134-3.9567428,14.1289714,22.9392217,13.1278825,49.4855178,20.669561,77.8089666,20.669561,38.0535122,0,72.9378696-13.5506386,100.1067757-36.0813578-5.2177328-5.0030188-8.4860563-12.0239855-8.4860563-19.8064592ZM210.580447,106.9624581c-2.0980108-2.0980108-1.6661566-5.6086458.8788718-7.1352989l24.1844418-14.5089668c1.7944391-1.0759963,4.0907874-.7933501,5.570434.6862964l7.86193,7.86193c1.4799498,1.4796465,1.7625959,3.7759948.6865997,5.5707372l-14.5089668,24.1844418c-1.5260466,2.5450284-5.0372881,2.9765793-7.1352989.8788718l-2.711826-2.711826-30.7004666,30.5749135-12.9016442-12.901341,30.7010731-30.5752167-1.9251478-1.9245413ZM125.8891073,234.9957043c-7.1146766,7.1146766-18.6840628,7.1146766-25.7984362,0-7.1146766-7.1143734-7.1146766-18.6837595,0-25.7984362l43.473525-43.4792871,25.7975264,25.7996493-43.4726152,43.478074ZM249.2781013,216.6428106c-.4288215,1.5678976-1.6552389,2.789766-3.2261692,3.2070633-1.570627.4176006-3.2449719-.0333595-4.3940558-1.1821402l-12.2547727-12.2514368c-3.465448-3.4748493-9.3521909-3.5312572-12.9061933.004549-3.5379291,3.5467239-3.572805,9.2979059.0087948,12.8883004l12.2490106,12.2487074c1.1487807,1.1493872,1.6036833,2.819183,1.1882056,4.3901133-.4151744,1.5709303-1.6352232,2.8022-3.2019078,3.2322346-10.9619396,3.007816-22.5837911.0297203-30.765366-8.1579199-8.1148558-8.1148558-11.3904578-19.1180399-7.5932342-33.3825723l-50.885708-50.9336244c-14.277573,3.8324028-25.3741637.4254856-33.3780233-7.5844394-8.2103854-8.2100821-11.1357123-19.8986527-8.1621657-30.7641529.4288215-1.5678976,1.6552389-2.7906758,3.2264725-3.2076699,1.5709303-.4176006,3.2455784.0336628,4.3946624,1.18305l12.2538629,12.2547727c3.4960781,3.5051762,9.3958615,3.510635,12.90589-.0087948,3.5379291-3.5476337,3.5731083-9.2979059-.0087948-12.8883004l-12.2517401-12.2514368c-1.1481742-1.149084-1.6030768-2.8188798-1.1882056-4.3898101.4148712-1.5709303,1.6346167-2.8018967,3.2013012-3.2319313,10.9858978-3.0181271,22.6022905-.0175896,30.773251,8.1600428,8.0250884,8.0250884,11.191817,19.8443677,8.2610312,30.8396668l-.672346,2.5432088,50.8817655,50.9333211c14.2690814-3.8242145,25.3796225-.4294281,33.3871213,7.5838329,8.2061396,8.2103854,11.1311633,19.9019887,8.1573134,30.765366Z"/>
    <path class="cls-26" d="M9.4395009,94.3707541c0,8.7650633,6.1945603,16.1757299,14.4058555,18.1014842,3.9091297-11.6267039,9.127469-22.6456579,15.5067198-32.8758108-3.1442868-2.4006726-7.0643341-3.8284603-11.3097884-3.8284603-10.2086209,0-18.6027869,8.394166-18.6027869,18.6027869Z"/>
    <path class="cls-28" d="M28.0422877,112.9738443c10.2089241,0,18.6027869-8.394166,18.6027869-18.6030901,0-6.0956948-2.8758942-11.4022853-7.2929985-14.7743266-6.3792508,10.2301529-11.5975901,21.2491069-15.5067198,32.8758108,1.3522738.3169155,2.7530705.5016059,4.1969314.5016059Z"/>
    <path class="cls-21" d="M28.0422877,112.9738443c10.2089241,0,18.6027869-8.394166,18.6027869-18.6030901,0-6.0956948-2.8758942-11.4022853-7.2929985-14.7743266-6.3792508,10.2301529-11.5975901,21.2491069-15.5067198,32.8758108,1.3522738.3169155,2.7530705.5016059,4.1969314.5016059Z"/>
    <path class="cls-37" d="M248.6463932,25.2340506c10.7238739,5.9555848,20.6868473,13.1118092,29.6814848,21.3197685,3.4818245-3.3887211,5.6641439-8.1072741,5.6641439-13.3037781,0-10.4354656-8.3938628-18.6027869-18.6027869-18.6027869-7.3415214,0-13.7250179,4.3519015-16.7428418,10.5867965Z"/>
    <path class="cls-34" d="M246.7864481,33.250041c0,10.2089241,8.3938628,18.6030901,18.6027869,18.6030901,5.0124201,0,9.5799455-2.0312917,12.938643-5.299312-8.9946375-8.2079592-18.9576109-15.3641836-29.6814848-21.3197685-1.178501,2.4352452-1.8599451,5.1488909-1.8599451,8.0159903Z"/>
    <path class="cls-32" d="M246.7864481,33.250041c0,10.2089241,8.3938628,18.6030901,18.6027869,18.6030901,5.0124201,0,9.5799455-2.0312917,12.938643-5.299312-8.9946375-8.2079592-18.9576109-15.3641836-29.6814848-21.3197685-1.178501,2.4352452-1.8599451,5.1488909-1.8599451,8.0159903Z"/>
    <path class="cls-31" d="M303.4400178,249.107996c-6.8829796,10.3784512-14.9681151,19.8828828-24.0555527,28.3310306,3.2883393,2.9147126,7.5892917,4.7073321,12.287829,4.7073321,10.2089241,0,18.6027869-8.394166,18.6027869-18.6030901,0-5.8873494-2.6730077-11.0507972-6.8350632-14.4352725Z"/>
    <path class="cls-35" d="M303.4400178,249.107996c-3.2152516-2.6141736-7.318473-4.1675143-11.7677237-4.1675143-10.2089241,0-18.6027869,8.394166-18.6027869,18.6027869,0,5.5100835,2.4589002,10.4776199,6.3149579,13.8957581,9.0874376-8.4481478,17.1725731-17.9525794,24.0555527-28.3310306Z"/>
    <path class="cls-33" d="M303.4400178,249.107996c-3.2152516-2.6141736-7.318473-4.1675143-11.7677237-4.1675143-10.2089241,0-18.6027869,8.394166-18.6027869,18.6027869,0,5.5100835,2.4589002,10.4776199,6.3149579,13.8957581,9.0874376-8.4481478,17.1725731-17.9525794,24.0555527-28.3310306Z"/>
    <path class="cls-39" d="M87.1987315,294.1406238c-10.3020275-6.695863-19.7612722-14.5644649-28.2030513-23.4223283-3.8681884,3.4184414-6.3355801,8.3938628-6.3355801,13.9142574,0,10.2089241,8.3938628,18.6027869,18.6027869,18.6027869,6.7401402,0,12.6711603-3.6704574,15.9358446-9.094716Z"/>
    <path class="cls-36" d="M87.1987315,294.1406238c1.6801069-2.7915856,2.6669423-6.0389836,2.6669423-9.5080709,0-10.4357689-8.3938628-18.6027869-18.6027869-18.6027869-4.6888327,0-8.9815969,1.7847345-12.2672067,4.6885295,8.4417792,8.8578634,17.9010238,16.7264653,28.2030513,23.4223283Z"/>
    <path class="cls-38" d="M87.1987315,294.1406238c1.6801069-2.7915856,2.6669423-6.0389836,2.6669423-9.5080709,0-10.4357689-8.3938628-18.6027869-18.6027869-18.6027869-4.6888327,0-8.9815969,1.7847345-12.2672067,4.6885295,8.4417792,8.8578634,17.9010238,16.7264653,28.2030513,23.4223283Z"/>
  </g>
</svg>