<?xml version="1.0" encoding="UTF-8"?>
<!DOCTYPE svg PUBLIC "-//W3C//DTD SVG 1.1//EN" "http://www.w3.org/Graphics/SVG/1.1/DTD/svg11.dtd">
<svg version="1.1" xmlns="http://www.w3.org/2000/svg" xmlns:xlink="http://www.w3.org/1999/xlink" x="0" y="0" width="400" height="400" viewBox="0, 0, 400, 400">
  <g id="Background">
    <rect x="0" y="0" width="400" height="400" fill="#FFFFFF"/>
  </g>
  <g id="Layer_1">
    <path d="M0,-0.01 L400,-0.01 L400,400 L0,400 z" fill="#FFFFFF"/>
    <path d="M299.195,302.218 C297.905,303.401 297.095,305.088 297.095,306.968 C297.095,308.851 297.905,310.534 299.195,311.718 L295.185,318.621 C294.578,318.441 293.935,318.335 293.265,318.335 C290.172,318.335 287.585,320.488 286.932,323.371 L278.895,323.371 C278.342,320.365 275.695,318.078 272.505,318.078 C271.842,318.078 271.205,318.178 270.602,318.368 L266.682,311.621 C267.915,310.444 268.685,308.791 268.685,306.968 L268.685,306.838 L268.685,306.714 C268.685,304.888 267.922,303.238 266.692,302.061 L270.428,295.634 C271.082,295.857 271.785,295.981 272.505,295.981 C275.605,295.981 278.185,293.827 278.845,290.951 L286.932,290.951 C287.585,293.827 290.172,295.981 293.265,295.981 C294.002,295.981 294.712,295.857 295.375,295.634 L299.195,302.218 z M100.838,266 L104.858,259.08 C105.452,259.26 106.088,259.366 106.752,259.366 C109.842,259.366 112.432,257.216 113.085,254.33 L121.172,254.33 C121.825,257.216 124.412,259.366 127.505,259.366 C128.175,259.366 128.818,259.26 129.422,259.08 L133.432,265.983 C132.548,266.79 131.895,267.84 131.572,269.023 C131.375,269.64 131.265,270.297 131.265,270.98 C131.265,272.837 132.058,274.507 133.315,275.68 L129.422,282.387 C128.818,282.207 128.175,282.1 127.505,282.1 C124.518,282.1 121.998,284.12 121.245,286.857 C121.212,286.947 121.195,287.041 121.172,287.137 L113.085,287.137 C112.432,284.254 109.842,282.1 106.752,282.1 C106.088,282.1 105.452,282.197 104.858,282.38 L100.838,275.477 C102.122,274.294 102.932,272.607 102.932,270.733 C102.932,268.86 102.122,267.177 100.838,266 z M106.752,317.831 C106.088,317.831 105.452,317.941 104.858,318.121 L100.838,311.208 C102.122,310.024 102.932,308.341 102.932,306.468 C102.932,304.594 102.122,302.908 100.838,301.734 L104.858,294.821 C105.452,295.004 106.088,295.101 106.752,295.101 C109.842,295.101 112.432,292.947 113.085,290.064 L121.062,290.064 C121.652,293.031 124.288,295.274 127.445,295.274 C128.158,295.274 128.852,295.151 129.495,294.937 L133.432,301.718 C132.548,302.531 131.895,303.574 131.572,304.758 C131.375,305.374 131.265,306.031 131.265,306.714 C131.265,308.571 132.058,310.238 133.315,311.421 L129.422,318.128 C128.818,317.941 128.175,317.831 127.505,317.831 C124.512,317.831 121.998,319.855 121.245,322.591 C121.212,322.681 121.195,322.771 121.172,322.871 L113.085,322.871 C112.432,319.995 109.842,317.831 106.752,317.831 z M137.765,335.912 C137.105,335.912 136.468,336.012 135.872,336.192 L131.852,329.282 C132.728,328.475 133.382,327.432 133.705,326.248 C133.905,325.641 134.012,324.981 134.012,324.301 C134.012,322.451 133.225,320.785 131.968,319.608 L135.872,312.895 C136.468,313.074 137.105,313.174 137.765,313.174 C140.758,313.174 143.278,311.161 144.032,308.424 C144.058,308.331 144.082,308.234 144.105,308.144 L152.185,308.144 C152.845,311.021 155.425,313.174 158.525,313.174 C159.188,313.174 159.832,313.074 160.445,312.884 L164.455,319.788 C163.155,320.971 162.345,322.665 162.345,324.538 C162.345,326.422 163.155,328.115 164.455,329.288 L160.452,336.185 C159.858,336.012 159.238,335.912 158.592,335.912 L158.525,335.912 C155.425,335.912 152.838,338.065 152.185,340.942 L144.105,340.942 C143.445,338.065 140.865,335.912 137.765,335.912 z M189.672,353.746 C186.572,353.746 183.992,355.899 183.332,358.776 L175.252,358.776 C174.598,355.899 172.012,353.746 168.912,353.746 C168.258,353.746 167.612,353.846 167.018,354.026 L162.998,347.105 C164.288,345.932 165.092,344.245 165.092,342.372 C165.092,340.499 164.288,338.822 162.998,337.638 L167.008,330.735 C167.588,330.908 168.208,331.008 168.845,331.008 C168.862,331.008 168.868,330.998 168.878,330.998 C168.895,330.998 168.902,331.008 168.912,331.008 C172.012,331.008 174.598,328.855 175.252,325.978 L183.332,325.978 C183.992,328.855 186.572,331.008 189.672,331.008 C190.335,331.008 190.988,330.908 191.592,330.718 L195.602,337.622 C194.312,338.805 193.492,340.492 193.492,342.372 C193.492,344.255 194.312,345.949 195.602,347.122 L191.592,354.036 C190.988,353.846 190.335,353.746 189.672,353.746 z M231.105,353.746 C228.005,353.746 225.425,355.899 224.772,358.776 L216.685,358.776 C216.025,355.899 213.435,353.746 210.342,353.746 C209.682,353.746 209.045,353.846 208.448,354.026 L204.432,347.105 C205.712,345.932 206.525,344.245 206.525,342.372 C206.525,340.499 205.712,338.822 204.432,337.638 L208.448,330.728 C209.045,330.908 209.682,331.008 210.342,331.008 C213.435,331.008 216.025,328.855 216.685,325.978 L224.772,325.978 C225.425,328.855 228.005,331.008 231.105,331.008 C231.765,331.008 232.412,330.908 233.022,330.718 L237.025,337.622 C235.742,338.805 234.925,340.492 234.925,342.372 C234.925,344.255 235.742,345.949 237.025,347.122 L233.022,354.036 C232.412,353.846 231.765,353.746 231.105,353.746 z M262.185,335.912 C259.085,335.912 256.505,338.065 255.842,340.942 L247.765,340.942 C247.112,338.065 244.525,335.912 241.425,335.912 C240.772,335.912 240.125,336.012 239.532,336.192 L235.512,329.282 C236.802,328.098 237.605,326.411 237.605,324.538 C237.605,322.665 236.792,320.988 235.512,319.805 L239.532,312.895 C240.125,313.074 240.772,313.174 241.425,313.174 C244.525,313.174 247.112,311.021 247.765,308.144 L255.795,308.144 C256.348,311.151 259.002,313.428 262.185,313.428 C262.855,313.428 263.498,313.328 264.112,313.141 L268.022,319.871 C266.782,321.055 266.005,322.705 266.005,324.538 C266.005,324.588 266.012,324.628 266.012,324.671 C266.012,324.711 266.005,324.751 266.005,324.801 C266.005,326.635 266.782,328.285 268.015,329.462 L264.102,336.202 C263.498,336.012 262.845,335.912 262.185,335.912 z M293.265,104.649 C290.172,104.649 287.585,106.803 286.932,109.679 L278.845,109.679 C278.192,106.803 275.605,104.649 272.505,104.649 C271.852,104.649 271.215,104.749 270.612,104.929 L266.602,98.019 C267.875,96.836 268.685,95.159 268.685,93.286 C268.685,91.412 267.875,89.726 266.602,88.542 L270.612,81.632 C271.215,81.812 271.852,81.912 272.505,81.912 C275.605,81.912 278.192,79.759 278.845,76.882 L286.932,76.882 C287.585,79.759 290.172,81.912 293.265,81.912 C293.935,81.912 294.578,81.812 295.185,81.622 L299.195,88.536 C297.905,89.709 297.095,91.402 297.095,93.286 C297.095,95.159 297.905,96.852 299.195,98.026 L295.185,104.939 C294.578,104.749 293.935,104.649 293.265,104.649 z M262.168,193.812 C259.075,193.812 256.488,195.955 255.835,198.842 L247.748,198.842 C247.095,195.955 244.508,193.812 241.415,193.812 L241.408,193.812 C240.745,193.812 240.118,193.902 239.515,194.082 L235.505,187.171 C236.785,185.995 237.595,184.311 237.595,182.438 C237.595,180.565 236.785,178.878 235.505,177.704 L239.522,170.784 C240.118,170.971 240.755,171.061 241.415,171.061 C244.508,171.061 247.095,168.918 247.748,166.034 L255.835,166.034 C256.488,168.918 259.075,171.061 262.168,171.061 L262.185,171.061 C262.845,171.061 263.492,170.964 264.088,170.784 L268.098,177.688 C266.808,178.871 265.998,180.555 265.998,182.438 C265.998,184.318 266.808,186.005 268.098,187.188 L264.088,194.092 C263.482,193.908 262.838,193.812 262.168,193.812 z M262.185,64.078 C262.845,64.078 263.498,63.978 264.102,63.788 L268.112,70.702 C266.825,71.875 266.005,73.569 266.005,75.452 C266.005,77.332 266.815,79.019 268.112,80.202 L264.102,87.106 C263.498,86.916 262.845,86.816 262.185,86.816 C259.085,86.816 256.505,88.969 255.842,91.846 L247.765,91.846 C247.112,88.969 244.525,86.816 241.425,86.816 C240.772,86.816 240.125,86.916 239.532,87.096 L235.512,80.185 C236.802,79.002 237.605,77.325 237.605,75.452 C237.605,73.579 236.792,71.892 235.512,70.718 L239.532,63.798 C240.125,63.978 240.762,64.078 241.415,64.078 L241.425,64.078 C244.525,64.078 247.112,61.925 247.765,59.048 L255.842,59.048 C256.505,61.925 259.085,64.078 262.185,64.078 z M268.122,115.87 L264.112,122.773 C263.498,122.583 262.855,122.476 262.185,122.476 C258.595,122.476 255.685,125.37 255.685,128.943 C255.685,132.51 258.595,135.403 262.185,135.403 C262.855,135.403 263.498,135.303 264.112,135.117 L268.122,142.02 C266.825,143.194 266.005,144.887 266.005,146.77 C266.005,148.66 266.825,150.344 268.122,151.537 L264.112,158.431 C263.498,158.241 262.855,158.144 262.185,158.144 L262.168,158.144 C259.075,158.144 256.488,160.297 255.835,163.181 L247.748,163.181 C247.095,160.297 244.508,158.144 241.415,158.144 C237.828,158.144 234.915,161.037 234.915,164.604 C234.915,166.494 235.728,168.178 237.025,169.361 L233.015,176.264 C232.402,176.074 231.758,175.978 231.088,175.978 L231.078,175.978 C227.988,175.978 225.398,178.131 224.745,181.008 L216.662,181.008 C215.998,178.131 213.418,175.978 210.318,175.978 C206.732,175.978 203.818,178.871 203.818,182.438 C203.818,184.318 204.638,186.011 205.935,187.195 L201.925,194.092 C201.322,193.908 200.678,193.812 200.015,193.812 L199.998,193.812 C199.338,193.812 198.708,193.902 198.105,194.082 L194.105,187.178 C195.385,185.995 196.195,184.311 196.195,182.438 C196.195,178.871 193.285,175.978 189.688,175.978 C186.598,175.978 184.008,178.131 183.355,181.008 L175.268,181.008 C174.615,178.131 172.035,175.978 168.935,175.978 L168.928,175.978 C168.265,175.978 167.622,176.074 167.025,176.258 L163.008,169.354 C164.298,168.171 165.098,166.484 165.098,164.604 C165.098,161.037 162.188,158.144 158.602,158.144 C155.508,158.144 152.922,160.297 152.268,163.181 L144.182,163.181 C143.528,160.297 140.938,158.144 137.838,158.144 L137.822,158.144 C137.152,158.144 136.515,158.241 135.912,158.424 L131.902,151.52 C133.185,150.337 134.002,148.65 134.002,146.77 C134.002,144.897 133.185,143.21 131.902,142.037 L135.912,135.123 C136.515,135.303 137.152,135.403 137.822,135.403 C141.412,135.403 144.322,132.51 144.322,128.943 C144.322,125.37 141.412,122.476 137.822,122.476 C137.152,122.476 136.515,122.583 135.912,122.763 L131.902,115.853 C133.185,114.676 134.002,112.993 134.002,111.109 C134.002,109.236 133.185,107.553 131.902,106.369 L135.912,99.456 C136.515,99.646 137.152,99.746 137.822,99.746 L137.838,99.746 C140.938,99.746 143.528,97.592 144.182,94.706 L152.268,94.706 C152.922,97.592 155.508,99.746 158.602,99.746 C162.188,99.746 165.098,96.852 165.098,93.286 C165.098,91.402 164.298,89.719 163.008,88.536 L167.018,81.632 C167.622,81.812 168.258,81.912 168.912,81.912 L168.928,81.912 C172.022,81.912 174.608,79.759 175.262,76.882 L183.332,76.882 C183.992,79.759 186.572,81.912 189.672,81.912 C193.262,81.912 196.172,79.019 196.172,75.452 C196.172,73.569 195.362,71.885 194.078,70.708 L198.088,63.798 C198.695,63.978 199.332,64.078 199.992,64.078 L200.008,64.078 C200.678,64.078 201.322,63.978 201.935,63.788 L205.945,70.692 C204.645,71.875 203.828,73.562 203.828,75.452 C203.828,79.019 206.738,81.912 210.335,81.912 C213.428,81.912 216.015,79.759 216.668,76.882 L224.755,76.882 C225.408,79.759 227.995,81.912 231.088,81.912 L231.105,81.912 C231.775,81.912 232.418,81.812 233.032,81.622 L237.032,88.526 C235.742,89.709 234.925,91.396 234.925,93.286 C234.925,96.852 237.835,99.746 241.425,99.746 C244.525,99.746 247.112,97.592 247.765,94.706 L255.842,94.706 C256.505,97.592 259.085,99.746 262.185,99.746 C262.855,99.746 263.498,99.646 264.112,99.456 L268.122,106.353 C266.825,107.536 266.005,109.229 266.005,111.109 C266.005,112.999 266.825,114.686 268.122,115.87 z M189.688,211.635 C186.598,211.635 184.008,213.789 183.355,216.665 L175.268,216.665 C174.615,213.789 172.035,211.635 168.935,211.635 C168.275,211.635 167.638,211.735 167.042,211.915 L163.025,205.005 C164.305,203.822 165.115,202.145 165.115,200.272 C165.115,198.395 164.305,196.712 163.025,195.538 L167.042,188.618 C167.638,188.798 168.275,188.895 168.928,188.895 L168.935,188.895 C172.035,188.895 174.615,186.751 175.268,183.868 L183.355,183.868 C184.008,186.751 186.598,188.895 189.688,188.895 C190.358,188.895 191.005,188.798 191.608,188.618 L195.618,195.505 C194.312,196.688 193.492,198.382 193.492,200.272 C193.492,202.162 194.312,203.845 195.618,205.028 L191.608,211.925 C191.005,211.735 190.358,211.635 189.688,211.635 z M210.318,211.635 C209.665,211.635 209.028,211.735 208.425,211.915 L204.415,205.012 C205.705,203.838 206.525,202.152 206.525,200.272 C206.525,198.388 205.705,196.705 204.415,195.522 L208.425,188.618 C209.028,188.798 209.665,188.895 210.318,188.895 C213.418,188.895 215.998,186.751 216.662,183.868 L224.745,183.868 C225.398,186.751 227.988,188.895 231.078,188.895 L231.088,188.895 C231.758,188.895 232.395,188.798 232.998,188.618 L237.008,195.522 C235.718,196.705 234.908,198.388 234.908,200.272 C234.908,202.152 235.718,203.838 237.008,205.022 L232.998,211.925 C232.395,211.735 231.758,211.635 231.088,211.635 L231.078,211.635 C227.988,211.635 225.398,213.789 224.745,216.665 L216.662,216.665 C215.998,213.789 213.418,211.635 210.318,211.635 z M272.505,46.251 C275.605,46.251 278.192,44.098 278.845,41.214 L286.932,41.214 C287.585,44.098 290.172,46.251 293.265,46.251 C293.935,46.251 294.578,46.144 295.185,45.964 L299.195,52.868 C297.905,54.051 297.095,55.735 297.095,57.618 C297.095,59.498 297.905,61.185 299.195,62.368 L295.185,69.272 C294.578,69.092 293.935,68.992 293.265,68.992 C290.172,68.992 287.585,71.135 286.932,74.022 L278.845,74.022 C278.185,71.135 275.605,68.992 272.505,68.992 C271.852,68.992 271.215,69.082 270.612,69.272 L266.602,62.352 C267.875,61.175 268.685,59.491 268.685,57.618 C268.685,55.745 267.875,54.058 266.602,52.885 L270.612,45.964 C271.215,46.144 271.852,46.251 272.505,46.251 z M210.335,46.251 C213.428,46.251 216.015,44.098 216.668,41.214 L224.755,41.214 C225.408,44.098 227.995,46.251 231.088,46.251 C231.758,46.251 232.402,46.144 233.005,45.964 L237.015,52.868 C235.728,54.051 234.915,55.735 234.915,57.618 C234.915,59.498 235.728,61.185 237.015,62.368 L233.005,69.272 C232.402,69.082 231.765,68.992 231.105,68.992 L231.088,68.992 C227.995,68.992 225.408,71.135 224.755,74.022 L216.668,74.022 C216.015,71.135 213.428,68.992 210.335,68.992 C209.675,68.992 209.038,69.082 208.435,69.272 L204.422,62.352 C205.705,61.175 206.515,59.491 206.515,57.618 C206.515,55.745 205.705,54.058 204.422,52.885 L208.435,45.964 C209.038,46.144 209.675,46.251 210.335,46.251 z M168.912,46.251 C172.012,46.251 174.598,44.098 175.252,41.214 L183.338,41.214 C183.992,44.098 186.572,46.251 189.672,46.251 C190.335,46.251 190.988,46.144 191.592,45.964 L195.602,52.868 C194.312,54.051 193.492,55.735 193.492,57.618 C193.492,59.498 194.312,61.185 195.602,62.368 L191.592,69.272 C190.988,69.092 190.335,68.992 189.672,68.992 C186.572,68.992 183.992,71.135 183.338,74.022 L175.262,74.022 C174.608,71.135 172.022,68.992 168.928,68.992 L168.912,68.992 C168.258,68.992 167.622,69.082 167.018,69.262 L163.008,62.358 C164.298,61.175 165.098,59.491 165.098,57.618 C165.098,55.735 164.298,54.051 163.008,52.875 L167.018,45.964 C167.612,46.144 168.258,46.251 168.912,46.251 z M137.838,64.078 C140.938,64.078 143.528,61.925 144.182,59.048 L152.258,59.048 C152.912,61.925 155.492,64.078 158.592,64.078 L158.602,64.078 C159.272,64.078 159.908,63.978 160.518,63.798 L164.522,70.692 C163.232,71.875 162.412,73.562 162.412,75.452 C162.412,77.332 163.232,79.025 164.522,80.209 L160.518,87.106 C159.915,86.916 159.272,86.816 158.602,86.816 C155.508,86.816 152.922,88.969 152.258,91.846 L144.182,91.846 C143.528,88.969 140.938,86.816 137.838,86.816 L137.822,86.816 C137.168,86.816 136.542,86.916 135.945,87.096 L131.935,80.185 C133.218,79.002 134.018,77.325 134.018,75.452 C134.018,73.579 133.218,71.892 131.935,70.718 L135.945,63.798 C136.548,63.978 137.185,64.078 137.838,64.078 z M100.822,88.542 L104.842,81.632 C105.445,81.812 106.082,81.912 106.742,81.912 C109.835,81.912 112.422,79.759 113.075,76.882 L121.162,76.882 C121.815,79.759 124.395,81.912 127.495,81.912 L127.522,81.912 C128.182,81.912 128.818,81.812 129.415,81.632 L133.425,88.536 C132.135,89.709 131.315,91.402 131.315,93.286 C131.315,95.159 132.135,96.852 133.425,98.026 L129.415,104.939 C128.812,104.749 128.165,104.649 127.495,104.649 C124.395,104.649 121.815,106.803 121.162,109.679 L113.075,109.679 C112.422,106.803 109.835,104.649 106.742,104.649 C106.082,104.649 105.445,104.749 104.842,104.929 L100.822,98.019 C102.112,96.836 102.915,95.159 102.915,93.286 C102.915,91.412 102.112,89.726 100.822,88.542 z M100.822,124.203 L104.842,117.3 C105.445,117.47 106.082,117.58 106.742,117.58 C109.835,117.58 112.422,115.416 113.075,112.539 L121.162,112.539 C121.815,115.416 124.395,117.58 127.495,117.58 C128.165,117.58 128.812,117.47 129.415,117.29 L133.425,124.193 C132.135,125.37 131.315,127.063 131.315,128.943 C131.315,130.827 132.135,132.51 133.425,133.693 L129.415,140.597 C128.812,140.417 128.165,140.31 127.495,140.31 C124.395,140.31 121.815,142.464 121.162,145.347 L113.075,145.347 C112.422,142.464 109.835,140.31 106.742,140.31 C106.082,140.31 105.445,140.417 104.842,140.59 L100.822,133.677 C102.112,132.503 102.915,130.817 102.915,128.943 C102.915,127.07 102.112,125.386 100.822,124.203 z M106.742,175.978 C106.082,175.978 105.445,176.074 104.842,176.258 L100.822,169.344 C102.112,168.161 102.915,166.477 102.915,164.604 C102.915,162.731 102.112,161.054 100.822,159.871 L104.842,152.957 C105.445,153.137 106.082,153.237 106.742,153.237 C109.835,153.237 112.422,151.084 113.075,148.207 L121.162,148.207 C121.815,151.084 124.395,153.237 127.495,153.237 C128.165,153.237 128.812,153.137 129.415,152.951 L133.425,159.854 C132.135,161.037 131.315,162.721 131.315,164.604 C131.315,166.484 132.135,168.178 133.425,169.354 L129.415,176.258 C128.818,176.074 128.182,175.978 127.522,175.978 L127.495,175.978 C124.395,175.978 121.815,178.131 121.162,181.008 L113.075,181.008 C112.422,178.131 109.835,175.978 106.742,175.978 z M137.838,193.812 C137.185,193.812 136.548,193.908 135.945,194.092 L131.935,187.171 C133.218,185.995 134.018,184.311 134.018,182.438 C134.018,180.565 133.218,178.878 131.935,177.704 L135.945,170.791 C136.542,170.971 137.168,171.061 137.822,171.061 L137.838,171.061 C140.938,171.061 143.528,168.918 144.182,166.034 L152.258,166.034 C152.922,168.918 155.508,171.061 158.602,171.061 C159.272,171.061 159.915,170.964 160.518,170.784 L164.528,177.688 C163.238,178.871 162.422,180.555 162.422,182.438 C162.422,184.318 163.238,186.005 164.528,187.188 L160.518,194.092 C159.915,193.908 159.278,193.812 158.608,193.812 L158.602,193.812 C155.508,193.812 152.922,195.955 152.258,198.842 L144.182,198.842 C143.528,195.955 140.938,193.812 137.838,193.812 z M265.998,218.105 C265.998,218.202 266.005,218.309 266.012,218.409 C266.012,218.432 266.005,218.459 266.005,218.489 C266.005,220.289 266.758,221.926 267.955,223.102 L264.088,229.759 C263.482,229.569 262.838,229.469 262.168,229.469 C259.075,229.469 256.488,231.622 255.835,234.499 L247.748,234.499 C247.095,231.622 244.508,229.469 241.415,229.469 C240.755,229.469 240.118,229.569 239.522,229.749 L235.505,222.839 C236.785,221.656 237.595,219.979 237.595,218.105 C237.595,216.229 236.785,214.545 235.505,213.362 L239.515,206.452 C240.118,206.632 240.745,206.729 241.408,206.729 L241.415,206.729 C244.508,206.729 247.095,204.575 247.748,201.702 L255.835,201.702 C256.488,204.575 259.075,206.729 262.168,206.729 C262.838,206.729 263.482,206.632 264.088,206.442 L268.098,213.355 C266.808,214.529 265.998,216.222 265.998,218.105 z M299.195,276.437 L295.375,283.027 C294.712,282.797 294.002,282.674 293.265,282.674 C290.172,282.674 287.585,284.827 286.932,287.704 L278.845,287.704 C278.192,284.827 275.605,282.674 272.505,282.674 C271.785,282.674 271.082,282.797 270.428,283.02 L266.602,276.43 C267.875,275.247 268.685,273.56 268.685,271.687 C268.685,269.813 267.875,268.137 266.602,266.953 L270.468,260.28 C271.115,260.493 271.802,260.61 272.505,260.61 C275.605,260.61 278.185,258.456 278.845,255.58 L286.932,255.58 C287.585,258.456 290.172,260.61 293.265,260.61 C293.985,260.61 294.678,260.487 295.325,260.273 L299.195,266.937 C297.905,268.12 297.095,269.807 297.095,271.687 C297.095,273.57 297.905,275.264 299.195,276.437 z M293.265,224.949 C293.935,224.949 294.578,224.842 295.185,224.662 L299.085,231.376 C297.855,232.552 297.095,234.203 297.095,236.029 C297.095,236.076 297.095,236.126 297.102,236.169 C297.095,236.216 297.095,236.266 297.095,236.316 C297.095,238.149 297.855,239.793 299.085,240.966 L295.185,247.683 C294.578,247.493 293.935,247.393 293.265,247.393 C290.172,247.393 287.585,249.546 286.932,252.423 L278.845,252.423 C278.192,249.546 275.605,247.393 272.505,247.393 C271.852,247.393 271.215,247.493 270.612,247.673 L266.708,240.949 C267.922,239.776 268.685,238.139 268.685,236.316 L268.685,236.169 L268.685,236.029 C268.685,235.783 268.668,235.536 268.642,235.296 C268.495,233.753 267.792,232.362 266.742,231.336 L270.612,224.662 C271.215,224.842 271.852,224.949 272.505,224.949 C275.605,224.949 278.192,222.796 278.845,219.912 L286.932,219.912 C287.585,222.796 290.172,224.949 293.265,224.949 z M299.195,169.354 L295.185,176.264 C294.578,176.074 293.935,175.978 293.265,175.978 C290.172,175.978 287.585,178.131 286.932,181.008 L278.845,181.008 C278.192,178.131 275.605,175.978 272.505,175.978 L272.495,175.978 C271.842,175.978 271.205,176.074 270.612,176.258 L266.602,169.344 C267.875,168.161 268.685,166.477 268.685,164.604 C268.685,162.731 267.875,161.054 266.602,159.871 L270.612,152.957 C271.215,153.137 271.852,153.237 272.505,153.237 C275.605,153.237 278.192,151.084 278.845,148.207 L286.932,148.207 C287.585,151.084 290.172,153.237 293.265,153.237 C293.935,153.237 294.578,153.137 295.185,152.951 L299.195,159.854 C297.905,161.037 297.095,162.721 297.095,164.604 C297.095,166.484 297.905,168.178 299.195,169.354 z M299.195,133.693 L295.185,140.597 C294.578,140.417 293.935,140.31 293.265,140.31 C290.172,140.31 287.585,142.464 286.932,145.347 L278.845,145.347 C278.192,142.464 275.605,140.31 272.505,140.31 C271.852,140.31 271.215,140.417 270.612,140.59 L266.602,133.677 C267.875,132.503 268.685,130.817 268.685,128.943 C268.685,127.07 267.875,125.386 266.602,124.203 L270.612,117.3 C271.215,117.47 271.852,117.58 272.505,117.58 C275.605,117.58 278.192,115.416 278.845,112.539 L286.932,112.539 C287.585,115.416 290.172,117.58 293.265,117.58 C293.935,117.58 294.578,117.47 295.185,117.29 L299.195,124.193 C297.905,125.37 297.095,127.063 297.095,128.943 C297.095,130.827 297.905,132.51 299.195,133.693 z M303.592,99.746 C307.182,99.746 310.092,96.852 310.092,93.286 C310.092,89.709 307.182,86.816 303.592,86.816 C302.932,86.816 302.295,86.916 301.682,87.106 L297.672,80.192 C298.962,79.009 299.765,77.325 299.765,75.452 C299.765,73.569 298.962,71.885 297.672,70.708 L301.682,63.798 C302.295,63.978 302.932,64.078 303.592,64.078 C307.182,64.078 310.092,61.185 310.092,57.618 C310.092,54.051 307.182,51.158 303.592,51.158 C302.932,51.158 302.295,51.258 301.682,51.438 L297.672,44.534 C298.962,43.341 299.765,41.658 299.765,39.784 C299.765,36.218 296.855,33.324 293.265,33.324 C290.172,33.324 287.585,35.478 286.932,38.361 L278.845,38.361 C278.192,35.478 275.605,33.324 272.505,33.324 C268.915,33.324 266.005,36.218 266.005,39.784 C266.005,41.664 266.825,43.358 268.122,44.541 L264.112,51.445 C263.487,51.254 262.838,51.158 262.185,51.158 C259.085,51.158 256.505,53.301 255.842,56.188 L247.765,56.188 C247.112,53.301 244.525,51.158 241.425,51.158 L241.415,51.158 C240.755,51.158 240.108,51.258 239.515,51.438 L235.495,44.534 C236.785,43.341 237.595,41.664 237.595,39.784 C237.595,36.218 234.685,33.324 231.088,33.324 C227.995,33.324 225.408,35.478 224.755,38.361 L216.668,38.361 C216.015,35.478 213.428,33.324 210.335,33.324 C206.738,33.324 203.828,36.218 203.828,39.784 C203.828,41.664 204.645,43.358 205.945,44.541 L201.935,51.445 C201.311,51.254 200.661,51.158 200.008,51.158 L199.992,51.158 C199.332,51.158 198.695,51.258 198.088,51.438 L194.078,44.534 C195.362,43.341 196.172,41.664 196.172,39.784 C196.172,36.218 193.262,33.324 189.672,33.324 C186.572,33.324 183.992,35.478 183.332,38.361 L175.252,38.361 C174.598,35.478 172.012,33.324 168.912,33.324 C165.322,33.324 162.412,36.218 162.412,39.784 C162.412,41.664 163.232,43.358 164.522,44.541 L160.518,51.438 C159.908,51.258 159.272,51.158 158.602,51.158 L158.592,51.158 C155.492,51.158 152.912,53.301 152.258,56.188 L144.182,56.188 C143.528,53.301 140.938,51.158 137.838,51.158 C134.252,51.158 131.342,54.051 131.342,57.618 C131.342,59.498 132.158,61.192 133.458,62.375 L129.448,69.272 C128.835,69.092 128.192,68.992 127.522,68.992 L127.495,68.992 C124.395,68.992 121.815,71.135 121.162,74.022 L113.075,74.022 C112.422,71.135 109.835,68.992 106.742,68.992 C103.145,68.992 100.235,71.885 100.235,75.452 C100.235,77.332 101.055,79.025 102.345,80.202 L98.342,87.106 C97.732,86.916 97.085,86.816 96.415,86.816 C92.828,86.816 89.908,89.709 89.908,93.286 C89.908,96.852 92.828,99.746 96.415,99.746 C97.085,99.746 97.732,99.646 98.342,99.456 L102.345,106.353 C101.055,107.536 100.235,109.229 100.235,111.109 C100.235,112.999 101.055,114.686 102.345,115.87 L98.342,122.773 C97.732,122.583 97.085,122.476 96.415,122.476 C92.828,122.476 89.908,125.37 89.908,128.943 C89.908,132.51 92.828,135.403 96.415,135.403 C97.085,135.403 97.732,135.303 98.342,135.117 L102.345,142.02 C101.055,143.194 100.235,144.887 100.235,146.77 C100.235,148.66 101.055,150.344 102.345,151.537 L98.342,158.431 C97.732,158.241 97.085,158.144 96.415,158.144 C92.828,158.144 89.908,161.037 89.908,164.604 C89.908,168.171 92.828,171.061 96.415,171.061 C97.085,171.061 97.732,170.964 98.342,170.774 L102.345,177.678 C101.055,178.861 100.235,180.555 100.235,182.438 C100.235,186.005 103.145,188.895 106.742,188.895 C109.835,188.895 112.422,186.751 113.075,183.868 L121.162,183.868 C121.815,186.751 124.395,188.895 127.495,188.895 L127.522,188.895 C128.192,188.895 128.835,188.798 129.448,188.608 L133.458,195.512 C132.158,196.695 131.342,198.388 131.342,200.272 C131.342,203.838 134.252,206.729 137.838,206.729 C140.938,206.729 143.528,204.575 144.182,201.702 L152.268,201.702 C152.922,204.575 155.508,206.729 158.602,206.729 L158.608,206.729 C159.278,206.729 159.932,206.632 160.535,206.442 L164.545,213.345 C163.255,214.529 162.428,216.215 162.428,218.105 C162.428,221.672 165.348,224.562 168.935,224.562 C172.035,224.562 174.615,222.409 175.268,219.525 L183.355,219.525 C184.008,222.409 186.598,224.562 189.688,224.562 C193.285,224.562 196.195,221.672 196.195,218.105 C196.195,216.222 195.385,214.539 194.105,213.355 L198.105,206.452 C198.708,206.632 199.338,206.729 199.998,206.729 L200.015,206.729 C200.678,206.729 201.322,206.632 201.925,206.452 L205.935,213.345 C204.638,214.529 203.818,216.215 203.818,218.105 C203.818,221.672 206.732,224.562 210.318,224.562 C213.418,224.562 215.998,222.409 216.662,219.525 L224.745,219.525 C225.398,222.409 227.988,224.562 231.078,224.562 L231.088,224.562 C231.758,224.562 232.402,224.466 233.015,224.276 L237.025,231.172 C235.728,232.356 234.915,234.046 234.915,235.929 C234.915,239.506 237.828,242.396 241.415,242.396 C244.508,242.396 247.095,240.236 247.748,237.359 L255.778,237.359 C256.282,240.433 258.952,242.783 262.185,242.783 C262.855,242.783 263.498,242.676 264.112,242.486 L268.005,249.203 C266.782,250.376 266.005,252.03 266.005,253.863 C266.005,253.91 266.012,253.953 266.012,254.003 C266.012,254.05 266.005,254.1 266.005,254.15 C266.005,255.983 266.775,257.626 268.005,258.8 L264.112,265.517 C263.498,265.327 262.855,265.227 262.185,265.227 C258.595,265.227 255.685,268.12 255.685,271.687 C255.685,275.264 258.595,278.154 262.185,278.154 C262.855,278.154 263.498,278.047 264.112,277.867 L267.972,284.517 C266.765,285.684 266.005,287.327 266.005,289.134 C266.005,289.201 266.012,289.267 266.012,289.331 C266.012,289.391 266.005,289.454 266.005,289.521 C266.005,291.337 266.765,292.974 267.972,294.147 L264.228,300.584 C263.592,300.368 262.895,300.244 262.185,300.244 C259.085,300.244 256.505,302.398 255.842,305.284 L247.765,305.284 C247.112,302.398 244.525,300.244 241.425,300.244 C237.835,300.244 234.925,303.138 234.925,306.714 C234.925,308.594 235.742,310.288 237.032,311.464 L233.032,318.368 C232.418,318.178 231.775,318.078 231.105,318.078 C228.005,318.078 225.425,320.231 224.772,323.108 L216.685,323.108 C216.025,320.231 213.435,318.078 210.342,318.078 C206.755,318.078 203.845,320.971 203.845,324.538 C203.845,326.428 204.655,328.115 205.952,329.298 L201.942,336.202 C201.338,336.012 200.685,335.912 200.015,335.912 L199.992,335.912 C199.332,335.912 198.695,336.012 198.088,336.192 L194.078,329.282 C195.362,328.105 196.172,326.422 196.172,324.538 C196.172,320.971 193.262,318.078 189.672,318.078 C186.572,318.078 183.992,320.231 183.338,323.108 L175.252,323.108 C174.598,320.231 172.012,318.078 168.912,318.078 L168.845,318.078 C168.185,318.078 167.548,318.178 166.945,318.368 L162.932,311.454 C164.215,310.271 165.025,308.588 165.025,306.714 C165.025,303.138 162.115,300.244 158.525,300.244 C155.425,300.244 152.838,302.398 152.185,305.284 L144.222,305.284 C143.662,302.284 141.015,300.008 137.832,300.008 C137.168,300.008 136.532,300.108 135.928,300.288 L131.952,293.457 C132.622,292.817 133.142,292.044 133.482,291.181 C133.822,290.401 134.012,289.537 134.012,288.641 C134.012,288.624 134.002,288.617 134.002,288.601 C134.002,288.591 134.012,288.577 134.012,288.567 C134.012,286.687 133.202,285 131.918,283.827 L135.798,277.137 C136.418,277.334 137.078,277.44 137.765,277.44 C140.758,277.44 143.278,275.427 144.032,272.69 C144.222,272.073 144.338,271.417 144.338,270.733 C144.338,267.167 141.418,264.273 137.832,264.273 C137.168,264.273 136.532,264.373 135.928,264.553 L131.912,257.643 C133.202,256.466 134.012,254.783 134.012,252.91 C134.012,249.333 131.102,246.439 127.505,246.439 C124.412,246.439 121.825,248.593 121.172,251.47 L113.085,251.47 C112.432,248.593 109.842,246.439 106.752,246.439 C103.162,246.439 100.245,249.333 100.245,252.91 C100.245,254.79 101.062,256.483 102.362,257.66 L98.352,264.563 C97.738,264.373 97.095,264.273 96.425,264.273 C92.835,264.273 89.925,267.167 89.925,270.733 C89.925,274.31 92.835,277.2 96.425,277.2 C97.095,277.2 97.738,277.094 98.352,276.907 L102.362,283.81 C101.062,284.994 100.245,286.677 100.245,288.567 C100.245,288.577 100.252,288.591 100.252,288.601 C100.252,288.617 100.245,288.624 100.245,288.641 C100.245,290.524 101.062,292.207 102.362,293.391 L98.352,300.294 C97.727,300.104 97.078,300.007 96.425,300.008 C92.835,300.008 89.925,302.901 89.925,306.468 C89.925,310.041 92.835,312.935 96.425,312.935 C97.095,312.935 97.738,312.828 98.352,312.648 L102.362,319.541 C101.062,320.725 100.245,322.418 100.245,324.301 C100.245,327.868 103.162,330.762 106.752,330.762 C109.842,330.762 112.432,328.608 113.085,325.731 L121.055,325.731 C121.618,328.732 124.262,331.008 127.445,331.008 C128.115,331.008 128.762,330.908 129.365,330.718 L133.375,337.622 C132.085,338.798 131.265,340.492 131.265,342.372 C131.265,345.939 134.175,348.832 137.765,348.832 C140.865,348.832 143.445,346.689 144.105,343.802 L152.185,343.802 C152.838,346.689 155.425,348.832 158.525,348.832 L158.592,348.832 C159.262,348.832 159.908,348.732 160.518,348.545 L164.522,355.449 C163.232,356.632 162.412,358.326 162.412,360.206 C162.412,363.772 165.322,366.666 168.912,366.666 C172.012,366.666 174.598,364.522 175.252,361.636 L183.338,361.636 C183.992,364.522 186.572,366.666 189.672,366.666 C193.262,366.666 196.172,363.772 196.172,360.206 C196.172,358.332 195.362,356.649 194.078,355.466 L198.088,348.552 C198.695,348.732 199.332,348.832 199.992,348.832 L200.015,348.832 C200.685,348.832 201.338,348.732 201.942,348.545 L205.952,355.449 C204.655,356.632 203.845,358.326 203.845,360.206 C203.845,363.772 206.755,366.666 210.342,366.666 C213.435,366.666 216.025,364.522 216.685,361.636 L224.772,361.636 C225.425,364.522 228.005,366.666 231.105,366.666 C234.692,366.666 237.605,363.772 237.605,360.206 C237.605,358.332 236.792,356.649 235.505,355.466 L239.522,348.552 C240.125,348.732 240.762,348.832 241.425,348.832 C244.525,348.832 247.112,346.689 247.765,343.802 L255.842,343.802 C256.505,346.689 259.085,348.832 262.185,348.832 C265.775,348.832 268.685,345.939 268.685,342.372 C268.685,340.499 267.875,338.815 266.592,337.632 L270.478,330.932 C271.115,331.145 271.802,331.262 272.505,331.262 C275.605,331.262 278.192,329.108 278.845,326.225 L286.932,326.225 C287.585,329.108 290.172,331.262 293.265,331.262 C296.855,331.262 299.765,328.368 299.765,324.801 C299.765,322.921 298.962,321.235 297.672,320.051 L301.682,313.148 C302.295,313.328 302.932,313.428 303.592,313.428 C307.182,313.428 310.092,310.534 310.092,306.968 C310.092,303.401 307.182,300.508 303.592,300.508 C302.932,300.508 302.295,300.608 301.682,300.788 L297.822,294.131 C299.018,292.957 299.765,291.327 299.765,289.521 C299.765,289.454 299.755,289.391 299.755,289.331 C299.755,289.267 299.765,289.201 299.765,289.134 C299.765,287.327 299.018,285.7 297.822,284.524 L301.682,277.867 C302.295,278.057 302.932,278.154 303.592,278.154 C307.182,278.154 310.092,275.264 310.092,271.687 C310.092,268.12 307.182,265.227 303.592,265.227 C302.932,265.227 302.295,265.327 301.682,265.507 L297.788,258.793 C299.005,257.616 299.765,255.973 299.765,254.15 C299.765,254.1 299.765,254.05 299.755,254.003 C299.765,253.953 299.765,253.91 299.765,253.863 C299.765,252.036 299.005,250.393 297.788,249.22 L301.682,242.496 C302.295,242.676 302.932,242.783 303.592,242.783 C307.182,242.783 310.092,239.889 310.092,236.316 C310.092,236.266 310.082,236.216 310.082,236.169 C310.082,236.126 310.092,236.076 310.092,236.029 C310.092,232.462 307.182,229.569 303.592,229.569 C302.932,229.569 302.295,229.666 301.682,229.849 L297.788,223.126 C299.005,221.949 299.765,220.306 299.765,218.489 C299.765,218.442 299.765,218.392 299.755,218.342 C299.765,218.292 299.765,218.242 299.765,218.195 C299.765,214.629 296.855,211.735 293.265,211.735 C290.172,211.735 287.585,213.879 286.932,216.765 L278.862,216.765 C278.242,213.839 275.628,211.635 272.495,211.635 C271.835,211.635 271.198,211.735 270.595,211.925 L266.575,205.012 C267.865,203.828 268.675,202.145 268.675,200.272 C268.675,198.388 267.865,196.712 266.575,195.528 L270.595,188.618 C271.198,188.798 271.835,188.895 272.495,188.895 L272.505,188.895 C275.605,188.895 278.185,186.751 278.845,183.868 L286.932,183.868 C287.585,186.751 290.172,188.895 293.265,188.895 C296.855,188.895 299.765,186.005 299.765,182.438 C299.765,180.565 298.962,178.878 297.672,177.694 L301.682,170.784 C302.295,170.964 302.932,171.061 303.592,171.061 C307.182,171.061 310.092,168.171 310.092,164.604 C310.092,161.037 307.182,158.144 303.592,158.144 C302.932,158.144 302.295,158.241 301.682,158.424 L297.672,151.52 C298.962,150.337 299.765,148.65 299.765,146.77 C299.765,144.897 298.962,143.21 297.672,142.037 L301.682,135.123 C302.295,135.303 302.932,135.403 303.592,135.403 C307.182,135.403 310.092,132.51 310.092,128.943 C310.092,125.37 307.182,122.476 303.592,122.476 C302.932,122.476 302.295,122.583 301.682,122.763 L297.672,115.853 C298.962,114.676 299.765,112.993 299.765,111.109 C299.765,109.236 298.962,107.553 297.672,106.369 L301.682,99.456 C302.295,99.646 302.932,99.746 303.592,99.746 z" fill="#000000"/>
  </g>
</svg>
