<?xml version="1.0" encoding="UTF-8"?>
<!DOCTYPE svg PUBLIC "-//W3C//DTD SVG 1.1//EN" "http://www.w3.org/Graphics/SVG/1.1/DTD/svg11.dtd">
<svg version="1.1" xmlns="http://www.w3.org/2000/svg" xmlns:xlink="http://www.w3.org/1999/xlink" x="0" y="0" width="819.52" height="231.52" viewBox="0, 0, 409.76, 115.76">
  <g id="Background">
    <rect x="0" y="0" width="409.76" height="115.76" fill="#000000" fill-opacity="0"/>
  </g>
  <g id="Layer_1">
    <path d="M70.939,88.926 C70.552,89.281 70.309,89.787 70.309,90.351 C70.309,90.916 70.552,91.421 70.939,91.776 L69.736,93.847 C69.554,93.793 69.361,93.761 69.16,93.761 C68.232,93.761 67.456,94.407 67.26,95.272 L64.849,95.272 C64.683,94.37 63.889,93.684 62.932,93.684 C62.733,93.684 62.542,93.714 62.361,93.771 L61.185,91.747 C61.555,91.394 61.786,90.898 61.786,90.351 L61.786,90.275 C61.786,89.727 61.557,89.232 61.188,88.879 L62.309,86.951 C62.505,87.018 62.716,87.055 62.932,87.055 C63.862,87.055 64.636,86.409 64.834,85.546 L67.26,85.546 C67.456,86.409 68.232,87.055 69.16,87.055 C69.381,87.055 69.594,87.018 69.793,86.951 L70.939,88.926 z M11.432,78.061 L12.638,75.985 C12.816,76.039 13.007,76.071 13.206,76.071 C14.133,76.071 14.91,75.426 15.106,74.56 L17.532,74.56 C17.728,75.426 18.504,76.071 19.432,76.071 C19.633,76.071 19.826,76.039 20.007,75.985 L21.21,78.056 C20.945,78.298 20.749,78.613 20.652,78.968 C20.593,79.153 20.56,79.35 20.56,79.555 C20.56,80.112 20.798,80.613 21.175,80.965 L20.007,82.977 C19.826,82.923 19.633,82.891 19.432,82.891 C18.536,82.891 17.78,83.497 17.554,84.318 C17.544,84.345 17.539,84.373 17.532,84.402 L15.106,84.402 C14.91,83.537 14.133,82.891 13.206,82.891 C13.007,82.891 12.816,82.92 12.638,82.975 L11.432,80.904 C11.817,80.549 12.06,80.043 12.06,79.481 C12.06,78.919 11.817,78.414 11.432,78.061 z M13.206,93.61 C13.007,93.61 12.816,93.643 12.638,93.697 L11.432,91.623 C11.817,91.268 12.06,90.763 12.06,90.201 C12.06,89.639 11.817,89.133 11.432,88.781 L12.638,86.707 C12.816,86.762 13.007,86.791 13.206,86.791 C14.133,86.791 14.91,86.145 15.106,85.28 L17.499,85.28 C17.676,86.17 18.467,86.843 19.414,86.843 C19.628,86.843 19.836,86.806 20.029,86.742 L21.21,88.776 C20.945,89.02 20.749,89.333 20.652,89.688 C20.593,89.873 20.56,90.07 20.56,90.275 C20.56,90.832 20.798,91.332 21.175,91.687 L20.007,93.699 C19.826,93.643 19.633,93.61 19.432,93.61 C18.534,93.61 17.78,94.217 17.554,95.038 C17.544,95.065 17.539,95.092 17.532,95.122 L15.106,95.122 C14.91,94.259 14.133,93.61 13.206,93.61 z M22.51,99.034 C22.312,99.034 22.121,99.064 21.942,99.118 L20.736,97.045 C20.999,96.803 21.195,96.49 21.292,96.135 C21.352,95.953 21.384,95.755 21.384,95.551 C21.384,94.996 21.148,94.496 20.771,94.143 L21.942,92.129 C22.121,92.183 22.312,92.213 22.51,92.213 C23.408,92.213 24.164,91.609 24.39,90.788 C24.398,90.76 24.405,90.731 24.412,90.704 L26.836,90.704 C27.034,91.567 27.808,92.213 28.738,92.213 C28.937,92.213 29.13,92.183 29.314,92.126 L30.517,94.197 C30.127,94.552 29.884,95.06 29.884,95.622 C29.884,96.187 30.127,96.695 30.517,97.047 L29.316,99.116 C29.138,99.064 28.952,99.034 28.758,99.034 L28.738,99.034 C27.808,99.034 27.032,99.68 26.836,100.543 L24.412,100.543 C24.214,99.68 23.44,99.034 22.51,99.034 z M38.082,104.384 C37.152,104.384 36.378,105.03 36.18,105.893 L33.756,105.893 C33.56,105.03 32.784,104.384 31.854,104.384 C31.658,104.384 31.464,104.414 31.286,104.468 L30.08,102.392 C30.467,102.04 30.708,101.534 30.708,100.972 C30.708,100.41 30.467,99.907 30.08,99.552 L31.283,97.481 C31.457,97.533 31.643,97.563 31.834,97.563 C31.839,97.563 31.841,97.56 31.844,97.56 C31.849,97.56 31.851,97.563 31.854,97.563 C32.784,97.563 33.56,96.917 33.756,96.054 L36.18,96.054 C36.378,96.917 37.152,97.563 38.082,97.563 C38.281,97.563 38.477,97.533 38.658,97.476 L39.861,99.547 C39.474,99.902 39.228,100.408 39.228,100.972 C39.228,101.537 39.474,102.045 39.861,102.397 L38.658,104.471 C38.477,104.414 38.281,104.384 38.082,104.384 z M50.512,104.384 C49.582,104.384 48.808,105.03 48.612,105.893 L46.186,105.893 C45.988,105.03 45.211,104.384 44.283,104.384 C44.085,104.384 43.894,104.414 43.715,104.468 L42.51,102.392 C42.894,102.04 43.138,101.534 43.138,100.972 C43.138,100.41 42.894,99.907 42.51,99.552 L43.715,97.479 C43.894,97.533 44.085,97.563 44.283,97.563 C45.211,97.563 45.988,96.917 46.186,96.054 L48.612,96.054 C48.808,96.917 49.582,97.563 50.512,97.563 C50.71,97.563 50.904,97.533 51.087,97.476 L52.288,99.547 C51.903,99.902 51.658,100.408 51.658,100.972 C51.658,101.537 51.903,102.045 52.288,102.397 L51.087,104.471 C50.904,104.414 50.71,104.384 50.512,104.384 z M59.836,99.034 C58.906,99.034 58.132,99.68 57.933,100.543 L55.51,100.543 C55.314,99.68 54.538,99.034 53.608,99.034 C53.412,99.034 53.218,99.064 53.04,99.118 L51.834,97.045 C52.221,96.69 52.462,96.184 52.462,95.622 C52.462,95.06 52.218,94.557 51.834,94.202 L53.04,92.129 C53.218,92.183 53.412,92.213 53.608,92.213 C54.538,92.213 55.314,91.567 55.51,90.704 L57.919,90.704 C58.085,91.606 58.881,92.289 59.836,92.289 C60.037,92.289 60.23,92.259 60.414,92.203 L61.587,94.222 C61.215,94.577 60.982,95.072 60.982,95.622 C60.982,95.637 60.984,95.649 60.984,95.662 C60.984,95.674 60.982,95.686 60.982,95.701 C60.982,96.251 61.215,96.746 61.585,97.099 L60.411,99.121 C60.23,99.064 60.034,99.034 59.836,99.034 z M69.16,29.657 C68.232,29.657 67.456,30.303 67.26,31.166 L64.834,31.166 C64.638,30.303 63.862,29.657 62.932,29.657 C62.736,29.657 62.545,29.687 62.364,29.741 L61.161,27.668 C61.543,27.313 61.786,26.81 61.786,26.248 C61.786,25.686 61.543,25.18 61.161,24.825 L62.364,22.752 C62.545,22.806 62.736,22.836 62.932,22.836 C63.862,22.836 64.638,22.19 64.834,21.327 L67.26,21.327 C67.456,22.19 68.232,22.836 69.16,22.836 C69.361,22.836 69.554,22.806 69.736,22.749 L70.939,24.823 C70.552,25.175 70.309,25.683 70.309,26.248 C70.309,26.81 70.552,27.318 70.939,27.67 L69.736,29.744 C69.554,29.687 69.361,29.657 69.16,29.657 z M59.831,56.405 C58.903,56.405 58.127,57.048 57.931,57.914 L55.505,57.914 C55.309,57.048 54.533,56.405 53.605,56.405 L53.603,56.405 C53.404,56.405 53.216,56.432 53.035,56.486 L51.832,54.413 C52.216,54.06 52.459,53.555 52.459,52.993 C52.459,52.431 52.216,51.925 51.832,51.573 L53.037,49.497 C53.216,49.553 53.407,49.58 53.605,49.58 C54.533,49.58 55.309,48.937 55.505,48.072 L57.931,48.072 C58.127,48.937 58.903,49.58 59.831,49.58 L59.836,49.58 C60.034,49.58 60.228,49.551 60.407,49.497 L61.61,51.568 C61.223,51.923 60.98,52.428 60.98,52.993 C60.98,53.557 61.223,54.063 61.61,54.418 L60.407,56.489 C60.225,56.434 60.032,56.405 59.831,56.405 z M59.836,17.486 C60.034,17.486 60.23,17.456 60.411,17.399 L61.614,19.473 C61.228,19.825 60.982,20.333 60.982,20.898 C60.982,21.462 61.225,21.968 61.614,22.323 L60.411,24.394 C60.23,24.337 60.034,24.307 59.836,24.307 C58.906,24.307 58.132,24.953 57.933,25.816 L55.51,25.816 C55.314,24.953 54.538,24.307 53.608,24.307 C53.412,24.307 53.218,24.337 53.04,24.391 L51.834,22.318 C52.221,21.963 52.462,21.46 52.462,20.898 C52.462,20.336 52.218,19.83 51.834,19.478 L53.04,17.402 C53.218,17.456 53.409,17.486 53.605,17.486 L53.608,17.486 C54.538,17.486 55.314,16.84 55.51,15.977 L57.933,15.977 C58.132,16.84 58.906,17.486 59.836,17.486 z M61.617,33.023 L60.414,35.094 C60.23,35.037 60.037,35.005 59.836,35.005 C58.759,35.005 57.886,35.873 57.886,36.945 C57.886,38.015 58.759,38.883 59.836,38.883 C60.037,38.883 60.23,38.853 60.414,38.797 L61.617,40.868 C61.228,41.22 60.982,41.728 60.982,42.293 C60.982,42.86 61.228,43.365 61.617,43.723 L60.414,45.791 C60.23,45.734 60.037,45.705 59.836,45.705 L59.831,45.705 C58.903,45.705 58.127,46.351 57.931,47.216 L55.505,47.216 C55.309,46.351 54.533,45.705 53.605,45.705 C52.529,45.705 51.655,46.573 51.655,47.643 C51.655,48.21 51.899,48.715 52.288,49.07 L51.085,51.141 C50.901,51.084 50.708,51.055 50.507,51.055 L50.504,51.055 C49.577,51.055 48.8,51.701 48.604,52.564 L46.179,52.564 C45.98,51.701 45.206,51.055 44.276,51.055 C43.2,51.055 42.326,51.923 42.326,52.993 C42.326,53.557 42.572,54.065 42.961,54.42 L41.758,56.489 C41.577,56.434 41.384,56.405 41.185,56.405 L41.18,56.405 C40.982,56.405 40.793,56.432 40.612,56.486 L39.412,54.415 C39.796,54.06 40.039,53.555 40.039,52.993 C40.039,51.923 39.166,51.055 38.087,51.055 C37.16,51.055 36.383,51.701 36.187,52.564 L33.761,52.564 C33.565,51.701 32.791,51.055 31.861,51.055 L31.859,51.055 C31.66,51.055 31.467,51.084 31.288,51.139 L30.083,49.068 C30.47,48.713 30.71,48.207 30.71,47.643 C30.71,46.573 29.837,45.705 28.761,45.705 C27.833,45.705 27.057,46.351 26.861,47.216 L24.435,47.216 C24.239,46.351 23.462,45.705 22.532,45.705 L22.527,45.705 C22.326,45.705 22.135,45.734 21.954,45.789 L20.751,43.718 C21.136,43.363 21.381,42.857 21.381,42.293 C21.381,41.731 21.136,41.225 20.751,40.873 L21.954,38.799 C22.135,38.853 22.326,38.883 22.527,38.883 C23.604,38.883 24.477,38.015 24.477,36.945 C24.477,35.873 23.604,35.005 22.527,35.005 C22.326,35.005 22.135,35.037 21.954,35.091 L20.751,33.018 C21.136,32.665 21.381,32.16 21.381,31.595 C21.381,31.033 21.136,30.528 20.751,30.173 L21.954,28.099 C22.135,28.156 22.326,28.186 22.527,28.186 L22.532,28.186 C23.462,28.186 24.239,27.54 24.435,26.674 L26.861,26.674 C27.057,27.54 27.833,28.186 28.761,28.186 C29.837,28.186 30.71,27.318 30.71,26.248 C30.71,25.683 30.47,25.178 30.083,24.823 L31.286,22.752 C31.467,22.806 31.658,22.836 31.854,22.836 L31.859,22.836 C32.787,22.836 33.563,22.19 33.759,21.327 L36.18,21.327 C36.378,22.19 37.152,22.836 38.082,22.836 C39.159,22.836 40.032,21.968 40.032,20.898 C40.032,20.333 39.789,19.828 39.404,19.475 L40.607,17.402 C40.789,17.456 40.98,17.486 41.178,17.486 L41.183,17.486 C41.384,17.486 41.577,17.456 41.761,17.399 L42.964,19.47 C42.574,19.825 42.329,20.331 42.329,20.898 C42.329,21.968 43.202,22.836 44.281,22.836 C45.209,22.836 45.985,22.19 46.181,21.327 L48.607,21.327 C48.803,22.19 49.579,22.836 50.507,22.836 L50.512,22.836 C50.713,22.836 50.906,22.806 51.09,22.749 L52.29,24.82 C51.903,25.175 51.658,25.681 51.658,26.248 C51.658,27.318 52.531,28.186 53.608,28.186 C54.538,28.186 55.314,27.54 55.51,26.674 L57.933,26.674 C58.132,27.54 58.906,28.186 59.836,28.186 C60.037,28.186 60.23,28.156 60.414,28.099 L61.617,30.168 C61.228,30.523 60.982,31.031 60.982,31.595 C60.982,32.162 61.228,32.668 61.617,33.023 z M38.087,61.752 C37.16,61.752 36.383,62.398 36.187,63.261 L33.761,63.261 C33.565,62.398 32.791,61.752 31.861,61.752 C31.663,61.752 31.472,61.782 31.293,61.836 L30.088,59.763 C30.472,59.408 30.715,58.905 30.715,58.343 C30.715,57.78 30.472,57.275 30.088,56.923 L31.293,54.847 C31.472,54.901 31.663,54.93 31.859,54.93 L31.861,54.93 C32.791,54.93 33.565,54.287 33.761,53.422 L36.187,53.422 C36.383,54.287 37.16,54.93 38.087,54.93 C38.288,54.93 38.482,54.901 38.663,54.847 L39.866,56.913 C39.474,57.268 39.228,57.776 39.228,58.343 C39.228,58.91 39.474,59.415 39.866,59.77 L38.663,61.839 C38.482,61.782 38.288,61.752 38.087,61.752 z M44.276,61.752 C44.08,61.752 43.889,61.782 43.708,61.836 L42.505,59.765 C42.892,59.413 43.138,58.907 43.138,58.343 C43.138,57.778 42.892,57.273 42.505,56.918 L43.708,54.847 C43.889,54.901 44.08,54.93 44.276,54.93 C45.206,54.93 45.98,54.287 46.179,53.422 L48.604,53.422 C48.8,54.287 49.577,54.93 50.504,54.93 L50.507,54.93 C50.708,54.93 50.899,54.901 51.08,54.847 L52.283,56.918 C51.896,57.273 51.653,57.778 51.653,58.343 C51.653,58.907 51.896,59.413 52.283,59.768 L51.08,61.839 C50.899,61.782 50.708,61.752 50.507,61.752 L50.504,61.752 C49.577,61.752 48.8,62.398 48.604,63.261 L46.179,63.261 C45.98,62.398 45.206,61.752 44.276,61.752 z M62.932,12.138 C63.862,12.138 64.638,11.492 64.834,10.627 L67.26,10.627 C67.456,11.492 68.232,12.138 69.16,12.138 C69.361,12.138 69.554,12.106 69.736,12.052 L70.939,14.123 C70.552,14.478 70.309,14.983 70.309,15.548 C70.309,16.112 70.552,16.618 70.939,16.973 L69.736,19.044 C69.554,18.99 69.361,18.96 69.16,18.96 C68.232,18.96 67.456,19.603 67.26,20.469 L64.834,20.469 C64.636,19.603 63.862,18.96 62.932,18.96 C62.736,18.96 62.545,18.987 62.364,19.044 L61.161,16.968 C61.543,16.615 61.786,16.11 61.786,15.548 C61.786,14.986 61.543,14.48 61.161,14.128 L62.364,12.052 C62.545,12.106 62.736,12.138 62.932,12.138 z M44.281,12.138 C45.209,12.138 45.985,11.492 46.181,10.627 L48.607,10.627 C48.803,11.492 49.579,12.138 50.507,12.138 C50.708,12.138 50.901,12.106 51.082,12.052 L52.285,14.123 C51.899,14.478 51.655,14.983 51.655,15.548 C51.655,16.112 51.899,16.618 52.285,16.973 L51.082,19.044 C50.901,18.987 50.71,18.96 50.512,18.96 L50.507,18.96 C49.579,18.96 48.803,19.603 48.607,20.469 L46.181,20.469 C45.985,19.603 45.209,18.96 44.281,18.96 C44.083,18.96 43.892,18.987 43.711,19.044 L42.507,16.968 C42.892,16.615 43.135,16.11 43.135,15.548 C43.135,14.986 42.892,14.48 42.507,14.128 L43.711,12.052 C43.892,12.106 44.083,12.138 44.281,12.138 z M31.854,12.138 C32.784,12.138 33.56,11.492 33.756,10.627 L36.182,10.627 C36.378,11.492 37.152,12.138 38.082,12.138 C38.281,12.138 38.477,12.106 38.658,12.052 L39.861,14.123 C39.474,14.478 39.228,14.983 39.228,15.548 C39.228,16.112 39.474,16.618 39.861,16.973 L38.658,19.044 C38.477,18.99 38.281,18.96 38.082,18.96 C37.152,18.96 36.378,19.603 36.182,20.469 L33.759,20.469 C33.563,19.603 32.787,18.96 31.859,18.96 L31.854,18.96 C31.658,18.96 31.467,18.987 31.286,19.041 L30.083,16.97 C30.47,16.615 30.71,16.11 30.71,15.548 C30.71,14.983 30.47,14.478 30.083,14.125 L31.286,12.052 C31.464,12.106 31.658,12.138 31.854,12.138 z M22.532,17.486 C23.462,17.486 24.239,16.84 24.435,15.977 L26.858,15.977 C27.054,16.84 27.828,17.486 28.758,17.486 L28.761,17.486 C28.962,17.486 29.153,17.456 29.336,17.402 L30.537,19.47 C30.15,19.825 29.904,20.331 29.904,20.898 C29.904,21.462 30.15,21.97 30.537,22.325 L29.336,24.394 C29.155,24.337 28.962,24.307 28.761,24.307 C27.833,24.307 27.057,24.953 26.858,25.816 L24.435,25.816 C24.239,24.953 23.462,24.307 22.532,24.307 L22.527,24.307 C22.331,24.307 22.143,24.337 21.964,24.391 L20.761,22.318 C21.146,21.963 21.386,21.46 21.386,20.898 C21.386,20.336 21.146,19.83 20.761,19.478 L21.964,17.402 C22.145,17.456 22.336,17.486 22.532,17.486 z M11.427,24.825 L12.633,22.752 C12.814,22.806 13.005,22.836 13.203,22.836 C14.131,22.836 14.907,22.19 15.103,21.327 L17.529,21.327 C17.725,22.19 18.499,22.836 19.429,22.836 L19.437,22.836 C19.635,22.836 19.826,22.806 20.005,22.752 L21.208,24.823 C20.821,25.175 20.575,25.683 20.575,26.248 C20.575,26.81 20.821,27.318 21.208,27.67 L20.005,29.744 C19.824,29.687 19.63,29.657 19.429,29.657 C18.499,29.657 17.725,30.303 17.529,31.166 L15.103,31.166 C14.907,30.303 14.131,29.657 13.203,29.657 C13.005,29.657 12.814,29.687 12.633,29.741 L11.427,27.668 C11.814,27.313 12.055,26.81 12.055,26.248 C12.055,25.686 11.814,25.18 11.427,24.825 z M11.427,35.523 L12.633,33.452 C12.814,33.503 13.005,33.536 13.203,33.536 C14.131,33.536 14.907,32.887 15.103,32.024 L17.529,32.024 C17.725,32.887 18.499,33.536 19.429,33.536 C19.63,33.536 19.824,33.503 20.005,33.449 L21.208,35.52 C20.821,35.873 20.575,36.381 20.575,36.945 C20.575,37.51 20.821,38.015 21.208,38.37 L20.005,40.441 C19.824,40.387 19.63,40.355 19.429,40.355 C18.499,40.355 17.725,41.001 17.529,41.866 L15.103,41.866 C14.907,41.001 14.131,40.355 13.203,40.355 C13.005,40.355 12.814,40.387 12.633,40.439 L11.427,38.365 C11.814,38.013 12.055,37.507 12.055,36.945 C12.055,36.383 11.814,35.878 11.427,35.523 z M13.203,51.055 C13.005,51.055 12.814,51.084 12.633,51.139 L11.427,49.065 C11.814,48.71 12.055,48.205 12.055,47.643 C12.055,47.081 11.814,46.578 11.427,46.223 L12.633,44.149 C12.814,44.203 13.005,44.233 13.203,44.233 C14.131,44.233 14.907,43.587 15.103,42.724 L17.529,42.724 C17.725,43.587 18.499,44.233 19.429,44.233 C19.63,44.233 19.824,44.203 20.005,44.147 L21.208,46.218 C20.821,46.573 20.575,47.078 20.575,47.643 C20.575,48.207 20.821,48.715 21.208,49.068 L20.005,51.139 C19.826,51.084 19.635,51.055 19.437,51.055 L19.429,51.055 C18.499,51.055 17.725,51.701 17.529,52.564 L15.103,52.564 C14.907,51.701 14.131,51.055 13.203,51.055 z M22.532,56.405 C22.336,56.405 22.145,56.434 21.964,56.489 L20.761,54.413 C21.146,54.06 21.386,53.555 21.386,52.993 C21.386,52.431 21.146,51.925 20.761,51.573 L21.964,49.499 C22.143,49.553 22.331,49.58 22.527,49.58 L22.532,49.58 C23.462,49.58 24.239,48.937 24.435,48.072 L26.858,48.072 C27.057,48.937 27.833,49.58 28.761,49.58 C28.962,49.58 29.155,49.551 29.336,49.497 L30.539,51.568 C30.152,51.923 29.907,52.428 29.907,52.993 C29.907,53.557 30.152,54.063 30.539,54.418 L29.336,56.489 C29.155,56.434 28.964,56.405 28.763,56.405 L28.761,56.405 C27.833,56.405 27.057,57.048 26.858,57.914 L24.435,57.914 C24.239,57.048 23.462,56.405 22.532,56.405 z M60.98,63.693 C60.98,63.722 60.982,63.754 60.984,63.784 C60.984,63.791 60.982,63.799 60.982,63.808 C60.982,64.348 61.208,64.839 61.567,65.192 L60.407,67.189 C60.225,67.132 60.032,67.102 59.831,67.102 C58.903,67.102 58.127,67.748 57.931,68.611 L55.505,68.611 C55.309,67.748 54.533,67.102 53.605,67.102 C53.407,67.102 53.216,67.132 53.037,67.186 L51.832,65.113 C52.216,64.758 52.459,64.255 52.459,63.693 C52.459,63.13 52.216,62.625 51.832,62.27 L53.035,60.197 C53.216,60.251 53.404,60.28 53.603,60.28 L53.605,60.28 C54.533,60.28 55.309,59.634 55.505,58.772 L57.931,58.772 C58.127,59.634 58.903,60.28 59.831,60.28 C60.032,60.28 60.225,60.251 60.407,60.194 L61.61,62.268 C61.223,62.62 60.98,63.128 60.98,63.693 z M70.939,81.192 L69.793,83.169 C69.594,83.1 69.381,83.063 69.16,83.063 C68.232,83.063 67.456,83.709 67.26,84.572 L64.834,84.572 C64.638,83.709 63.862,83.063 62.932,83.063 C62.716,83.063 62.505,83.1 62.309,83.167 L61.161,81.19 C61.543,80.835 61.786,80.329 61.786,79.767 C61.786,79.205 61.543,78.702 61.161,78.347 L62.321,76.345 C62.515,76.409 62.721,76.444 62.932,76.444 C63.862,76.444 64.636,75.798 64.834,74.935 L67.26,74.935 C67.456,75.798 68.232,76.444 69.16,76.444 C69.376,76.444 69.584,76.407 69.778,76.343 L70.939,78.342 C70.552,78.697 70.309,79.203 70.309,79.767 C70.309,80.332 70.552,80.84 70.939,81.192 z M69.16,65.746 C69.361,65.746 69.554,65.714 69.736,65.66 L70.906,67.674 C70.537,68.027 70.309,68.522 70.309,69.07 C70.309,69.084 70.309,69.099 70.311,69.112 C70.309,69.126 70.309,69.141 70.309,69.156 C70.309,69.706 70.537,70.199 70.906,70.551 L69.736,72.566 C69.554,72.509 69.361,72.479 69.16,72.479 C68.232,72.479 67.456,73.125 67.26,73.988 L64.834,73.988 C64.638,73.125 63.862,72.479 62.932,72.479 C62.736,72.479 62.545,72.509 62.364,72.563 L61.193,70.546 C61.557,70.194 61.786,69.703 61.786,69.156 L61.786,69.07 C61.786,68.996 61.781,68.922 61.773,68.85 C61.729,68.387 61.518,67.97 61.203,67.662 L62.364,65.66 C62.545,65.714 62.736,65.746 62.932,65.746 C63.862,65.746 64.638,65.1 64.834,64.235 L67.26,64.235 C67.456,65.1 68.232,65.746 69.16,65.746 z M70.939,49.068 L69.736,51.141 C69.554,51.084 69.361,51.055 69.16,51.055 C68.232,51.055 67.456,51.701 67.26,52.564 L64.834,52.564 C64.638,51.701 63.862,51.055 62.932,51.055 L62.929,51.055 C62.733,51.055 62.542,51.084 62.364,51.139 L61.161,49.065 C61.543,48.71 61.786,48.205 61.786,47.643 C61.786,47.081 61.543,46.578 61.161,46.223 L62.364,44.149 C62.545,44.203 62.736,44.233 62.932,44.233 C63.862,44.233 64.638,43.587 64.834,42.724 L67.26,42.724 C67.456,43.587 68.232,44.233 69.16,44.233 C69.361,44.233 69.554,44.203 69.736,44.147 L70.939,46.218 C70.552,46.573 70.309,47.078 70.309,47.643 C70.309,48.207 70.552,48.715 70.939,49.068 z M70.939,38.37 L69.736,40.441 C69.554,40.387 69.361,40.355 69.16,40.355 C68.232,40.355 67.456,41.001 67.26,41.866 L64.834,41.866 C64.638,41.001 63.862,40.355 62.932,40.355 C62.736,40.355 62.545,40.387 62.364,40.439 L61.161,38.365 C61.543,38.013 61.786,37.507 61.786,36.945 C61.786,36.383 61.543,35.878 61.161,35.523 L62.364,33.452 C62.545,33.503 62.736,33.536 62.932,33.536 C63.862,33.536 64.638,32.887 64.834,32.024 L67.26,32.024 C67.456,32.887 68.232,33.536 69.16,33.536 C69.361,33.536 69.554,33.503 69.736,33.449 L70.939,35.52 C70.552,35.873 70.309,36.381 70.309,36.945 C70.309,37.51 70.552,38.015 70.939,38.37 z M72.258,28.186 C73.335,28.186 74.208,27.318 74.208,26.248 C74.208,25.175 73.335,24.307 72.258,24.307 C72.06,24.307 71.869,24.337 71.685,24.394 L70.482,22.32 C70.869,21.965 71.11,21.46 71.11,20.898 C71.11,20.333 70.869,19.828 70.482,19.475 L71.685,17.402 C71.869,17.456 72.06,17.486 72.258,17.486 C73.335,17.486 74.208,16.618 74.208,15.548 C74.208,14.478 73.335,13.61 72.258,13.61 C72.06,13.61 71.869,13.64 71.685,13.694 L70.482,11.623 C70.869,11.265 71.11,10.76 71.11,10.198 C71.11,9.128 70.237,8.26 69.16,8.26 C68.232,8.26 67.456,8.906 67.26,9.771 L64.834,9.771 C64.638,8.906 63.862,8.26 62.932,8.26 C61.855,8.26 60.982,9.128 60.982,10.198 C60.982,10.762 61.228,11.27 61.617,11.625 L60.414,13.696 C60.227,13.639 60.032,13.61 59.836,13.61 C58.906,13.61 58.132,14.253 57.933,15.119 L55.51,15.119 C55.314,14.253 54.538,13.61 53.608,13.61 L53.605,13.61 C53.407,13.61 53.213,13.64 53.035,13.694 L51.829,11.623 C52.216,11.265 52.459,10.762 52.459,10.198 C52.459,9.128 51.586,8.26 50.507,8.26 C49.579,8.26 48.803,8.906 48.607,9.771 L46.181,9.771 C45.985,8.906 45.209,8.26 44.281,8.26 C43.202,8.26 42.329,9.128 42.329,10.198 C42.329,10.762 42.574,11.27 42.964,11.625 L41.761,13.696 C41.574,13.639 41.379,13.61 41.183,13.61 L41.178,13.61 C40.98,13.61 40.789,13.64 40.607,13.694 L39.404,11.623 C39.789,11.265 40.032,10.762 40.032,10.198 C40.032,9.128 39.159,8.26 38.082,8.26 C37.152,8.26 36.378,8.906 36.18,9.771 L33.756,9.771 C33.56,8.906 32.784,8.26 31.854,8.26 C30.777,8.26 29.904,9.128 29.904,10.198 C29.904,10.762 30.15,11.27 30.537,11.625 L29.336,13.694 C29.153,13.64 28.962,13.61 28.761,13.61 L28.758,13.61 C27.828,13.61 27.054,14.253 26.858,15.119 L24.435,15.119 C24.239,14.253 23.462,13.61 22.532,13.61 C21.456,13.61 20.583,14.478 20.583,15.548 C20.583,16.112 20.828,16.62 21.218,16.975 L20.015,19.044 C19.831,18.99 19.638,18.96 19.437,18.96 L19.429,18.96 C18.499,18.96 17.725,19.603 17.529,20.469 L15.103,20.469 C14.907,19.603 14.131,18.96 13.203,18.96 C12.124,18.96 11.251,19.828 11.251,20.898 C11.251,21.462 11.497,21.97 11.884,22.323 L10.683,24.394 C10.5,24.337 10.306,24.307 10.105,24.307 C9.029,24.307 8.153,25.175 8.153,26.248 C8.153,27.318 9.029,28.186 10.105,28.186 C10.306,28.186 10.5,28.156 10.683,28.099 L11.884,30.168 C11.497,30.523 11.251,31.031 11.251,31.595 C11.251,32.162 11.497,32.668 11.884,33.023 L10.683,35.094 C10.5,35.037 10.306,35.005 10.105,35.005 C9.029,35.005 8.153,35.873 8.153,36.945 C8.153,38.015 9.029,38.883 10.105,38.883 C10.306,38.883 10.5,38.853 10.683,38.797 L11.884,40.868 C11.497,41.22 11.251,41.728 11.251,42.293 C11.251,42.86 11.497,43.365 11.884,43.723 L10.683,45.791 C10.5,45.734 10.306,45.705 10.105,45.705 C9.029,45.705 8.153,46.573 8.153,47.643 C8.153,48.713 9.029,49.58 10.105,49.58 C10.306,49.58 10.5,49.551 10.683,49.494 L11.884,51.565 C11.497,51.92 11.251,52.428 11.251,52.993 C11.251,54.063 12.124,54.93 13.203,54.93 C14.131,54.93 14.907,54.287 15.103,53.422 L17.529,53.422 C17.725,54.287 18.499,54.93 19.429,54.93 L19.437,54.93 C19.638,54.93 19.831,54.901 20.015,54.844 L21.218,56.915 C20.828,57.27 20.583,57.778 20.583,58.343 C20.583,59.413 21.456,60.28 22.532,60.28 C23.462,60.28 24.239,59.634 24.435,58.772 L26.861,58.772 C27.057,59.634 27.833,60.28 28.761,60.28 L28.763,60.28 C28.964,60.28 29.16,60.251 29.341,60.194 L30.544,62.265 C30.157,62.62 29.909,63.126 29.909,63.693 C29.909,64.763 30.785,65.63 31.861,65.63 C32.791,65.63 33.565,64.984 33.761,64.119 L36.187,64.119 C36.383,64.984 37.16,65.63 38.087,65.63 C39.166,65.63 40.039,64.763 40.039,63.693 C40.039,63.128 39.796,62.623 39.412,62.268 L40.612,60.197 C40.793,60.251 40.982,60.28 41.18,60.28 L41.185,60.28 C41.384,60.28 41.577,60.251 41.758,60.197 L42.961,62.265 C42.572,62.62 42.326,63.126 42.326,63.693 C42.326,64.763 43.2,65.63 44.276,65.63 C45.206,65.63 45.98,64.984 46.179,64.119 L48.604,64.119 C48.8,64.984 49.577,65.63 50.504,65.63 L50.507,65.63 C50.708,65.63 50.901,65.601 51.085,65.544 L52.288,67.613 C51.899,67.968 51.655,68.475 51.655,69.04 C51.655,70.113 52.529,70.98 53.605,70.98 C54.533,70.98 55.309,70.332 55.505,69.469 L57.914,69.469 C58.065,70.391 58.866,71.096 59.836,71.096 C60.037,71.096 60.23,71.064 60.414,71.007 L61.582,73.022 C61.215,73.374 60.982,73.87 60.982,74.42 C60.982,74.434 60.984,74.447 60.984,74.462 C60.984,74.476 60.982,74.491 60.982,74.506 C60.982,75.056 61.213,75.549 61.582,75.901 L60.414,77.916 C60.23,77.859 60.037,77.829 59.836,77.829 C58.759,77.829 57.886,78.697 57.886,79.767 C57.886,80.84 58.759,81.707 59.836,81.707 C60.037,81.707 60.23,81.675 60.414,81.621 L61.572,83.616 C61.21,83.966 60.982,84.459 60.982,85.001 C60.982,85.021 60.984,85.041 60.984,85.06 C60.984,85.078 60.982,85.097 60.982,85.117 C60.982,85.662 61.21,86.153 61.572,86.505 L60.449,88.436 C60.258,88.371 60.049,88.334 59.836,88.334 C58.906,88.334 58.132,88.98 57.933,89.846 L55.51,89.846 C55.314,88.98 54.538,88.334 53.608,88.334 C52.531,88.334 51.658,89.202 51.658,90.275 C51.658,90.839 51.903,91.347 52.29,91.7 L51.09,93.771 C50.906,93.714 50.713,93.684 50.512,93.684 C49.582,93.684 48.808,94.33 48.612,95.193 L46.186,95.193 C45.988,94.33 45.211,93.684 44.283,93.684 C43.207,93.684 42.334,94.552 42.334,95.622 C42.334,96.189 42.577,96.695 42.966,97.05 L41.763,99.121 C41.582,99.064 41.386,99.034 41.185,99.034 L41.178,99.034 C40.98,99.034 40.789,99.064 40.607,99.118 L39.404,97.045 C39.789,96.692 40.032,96.187 40.032,95.622 C40.032,94.552 39.159,93.684 38.082,93.684 C37.152,93.684 36.378,94.33 36.182,95.193 L33.756,95.193 C33.56,94.33 32.784,93.684 31.854,93.684 L31.834,93.684 C31.636,93.684 31.445,93.714 31.264,93.771 L30.06,91.697 C30.445,91.342 30.688,90.837 30.688,90.275 C30.688,89.202 29.815,88.334 28.738,88.334 C27.808,88.334 27.032,88.98 26.836,89.846 L24.447,89.846 C24.279,88.946 23.485,88.263 22.53,88.263 C22.331,88.263 22.14,88.293 21.959,88.347 L20.766,86.298 C20.967,86.106 21.123,85.874 21.225,85.615 C21.327,85.381 21.384,85.122 21.384,84.853 C21.384,84.848 21.381,84.846 21.381,84.841 C21.381,84.838 21.384,84.834 21.384,84.831 C21.384,84.267 21.141,83.761 20.756,83.409 L21.92,81.402 C22.106,81.461 22.304,81.493 22.51,81.493 C23.408,81.493 24.164,80.889 24.39,80.068 C24.447,79.883 24.482,79.686 24.482,79.481 C24.482,78.411 23.606,77.543 22.53,77.543 C22.331,77.543 22.14,77.573 21.959,77.627 L20.754,75.554 C21.141,75.201 21.384,74.696 21.384,74.134 C21.384,73.061 20.511,72.193 19.432,72.193 C18.504,72.193 17.728,72.839 17.532,73.702 L15.106,73.702 C14.91,72.839 14.133,72.193 13.206,72.193 C12.129,72.193 11.254,73.061 11.254,74.134 C11.254,74.698 11.499,75.206 11.889,75.559 L10.686,77.63 C10.502,77.573 10.309,77.543 10.108,77.543 C9.031,77.543 8.158,78.411 8.158,79.481 C8.158,80.554 9.031,81.421 10.108,81.421 C10.309,81.421 10.502,81.389 10.686,81.333 L11.889,83.404 C11.499,83.759 11.254,84.264 11.254,84.831 C11.254,84.834 11.256,84.838 11.256,84.841 C11.256,84.846 11.254,84.848 11.254,84.853 C11.254,85.418 11.499,85.923 11.889,86.278 L10.686,88.349 C10.499,88.292 10.304,88.263 10.108,88.263 C9.031,88.263 8.158,89.131 8.158,90.201 C8.158,91.273 9.031,92.141 10.108,92.141 C10.309,92.141 10.502,92.109 10.686,92.055 L11.889,94.123 C11.499,94.478 11.254,94.986 11.254,95.551 C11.254,96.621 12.129,97.489 13.206,97.489 C14.133,97.489 14.91,96.843 15.106,95.98 L17.497,95.98 C17.666,96.88 18.459,97.563 19.414,97.563 C19.615,97.563 19.809,97.533 19.99,97.476 L21.193,99.547 C20.806,99.9 20.56,100.408 20.56,100.972 C20.56,102.042 21.433,102.91 22.51,102.91 C23.44,102.91 24.214,102.267 24.412,101.401 L26.836,101.401 C27.032,102.267 27.808,102.91 28.738,102.91 L28.758,102.91 C28.959,102.91 29.153,102.88 29.336,102.824 L30.537,104.895 C30.15,105.25 29.904,105.758 29.904,106.322 C29.904,107.392 30.777,108.26 31.854,108.26 C32.784,108.26 33.56,107.617 33.756,106.751 L36.182,106.751 C36.378,107.617 37.152,108.26 38.082,108.26 C39.159,108.26 40.032,107.392 40.032,106.322 C40.032,105.76 39.789,105.255 39.404,104.9 L40.607,102.826 C40.789,102.88 40.98,102.91 41.178,102.91 L41.185,102.91 C41.386,102.91 41.582,102.88 41.763,102.824 L42.966,104.895 C42.577,105.25 42.334,105.758 42.334,106.322 C42.334,107.392 43.207,108.26 44.283,108.26 C45.211,108.26 45.988,107.617 46.186,106.751 L48.612,106.751 C48.808,107.617 49.582,108.26 50.512,108.26 C51.588,108.26 52.462,107.392 52.462,106.322 C52.462,105.76 52.218,105.255 51.832,104.9 L53.037,102.826 C53.218,102.88 53.409,102.91 53.608,102.91 C54.538,102.91 55.314,102.267 55.51,101.401 L57.933,101.401 C58.132,102.267 58.906,102.91 59.836,102.91 C60.913,102.91 61.786,102.042 61.786,100.972 C61.786,100.41 61.543,99.905 61.158,99.55 L62.324,97.54 C62.515,97.604 62.721,97.639 62.932,97.639 C63.862,97.639 64.638,96.993 64.834,96.128 L67.26,96.128 C67.456,96.993 68.232,97.639 69.16,97.639 C70.237,97.639 71.11,96.771 71.11,95.701 C71.11,95.137 70.869,94.631 70.482,94.276 L71.685,92.205 C71.869,92.259 72.06,92.289 72.258,92.289 C73.335,92.289 74.208,91.421 74.208,90.351 C74.208,89.281 73.335,88.413 72.258,88.413 C72.06,88.413 71.869,88.443 71.685,88.497 L70.527,86.5 C70.886,86.148 71.11,85.659 71.11,85.117 C71.11,85.097 71.107,85.078 71.107,85.06 C71.107,85.041 71.11,85.021 71.11,85.001 C71.11,84.459 70.886,83.971 70.527,83.618 L71.685,81.621 C71.869,81.678 72.06,81.707 72.258,81.707 C73.335,81.707 74.208,80.84 74.208,79.767 C74.208,78.697 73.335,77.829 72.258,77.829 C72.06,77.829 71.869,77.859 71.685,77.913 L70.517,75.899 C70.882,75.546 71.11,75.053 71.11,74.506 C71.11,74.491 71.11,74.476 71.107,74.462 C71.11,74.447 71.11,74.434 71.11,74.42 C71.11,73.872 70.882,73.379 70.517,73.027 L71.685,71.01 C71.869,71.064 72.06,71.096 72.258,71.096 C73.335,71.096 74.208,70.228 74.208,69.156 C74.208,69.141 74.205,69.126 74.205,69.112 C74.205,69.099 74.208,69.084 74.208,69.07 C74.208,68 73.335,67.132 72.258,67.132 C72.06,67.132 71.869,67.161 71.685,67.216 L70.517,65.199 C70.882,64.846 71.11,64.353 71.11,63.808 C71.11,63.794 71.11,63.779 71.107,63.764 C71.11,63.749 71.11,63.734 71.11,63.72 C71.11,62.65 70.237,61.782 69.16,61.782 C68.232,61.782 67.456,62.425 67.26,63.291 L64.839,63.291 C64.653,62.413 63.869,61.752 62.929,61.752 C62.731,61.752 62.54,61.782 62.359,61.839 L61.153,59.765 C61.54,59.41 61.783,58.905 61.783,58.343 C61.783,57.778 61.54,57.275 61.153,56.92 L62.359,54.847 C62.54,54.901 62.731,54.93 62.929,54.93 L62.932,54.93 C63.862,54.93 64.636,54.287 64.834,53.422 L67.26,53.422 C67.456,54.287 68.232,54.93 69.16,54.93 C70.237,54.93 71.11,54.063 71.11,52.993 C71.11,52.431 70.869,51.925 70.482,51.57 L71.685,49.497 C71.869,49.551 72.06,49.58 72.258,49.58 C73.335,49.58 74.208,48.713 74.208,47.643 C74.208,46.573 73.335,45.705 72.258,45.705 C72.06,45.705 71.869,45.734 71.685,45.789 L70.482,43.718 C70.869,43.363 71.11,42.857 71.11,42.293 C71.11,41.731 70.869,41.225 70.482,40.873 L71.685,38.799 C71.869,38.853 72.06,38.883 72.258,38.883 C73.335,38.883 74.208,38.015 74.208,36.945 C74.208,35.873 73.335,35.005 72.258,35.005 C72.06,35.005 71.869,35.037 71.685,35.091 L70.482,33.018 C70.869,32.665 71.11,32.16 71.11,31.595 C71.11,31.033 70.869,30.528 70.482,30.173 L71.685,28.099 C71.869,28.156 72.06,28.186 72.258,28.186 z" fill="#DD2A7C"/>
    <path d="M127.767,58.242 L140.878,58.242 L140.878,74.624 Q138.314,75.698 135.409,76.223 Q132.504,76.748 129.232,76.748 Q123.544,76.748 119.65,74.588 Q115.755,72.427 113.754,68.325 Q111.752,64.224 111.752,58.462 Q111.752,53.091 113.937,48.916 Q116.122,44.741 120.199,42.373 Q124.276,40.005 129.964,40.005 Q132.894,40.005 135.494,40.542 Q138.094,41.079 140.438,42.154 L139.437,44.4 Q137.118,43.325 134.713,42.788 Q132.308,42.251 129.842,42.251 Q125.008,42.251 121.529,44.314 Q118.05,46.377 116.207,50.027 Q114.364,53.677 114.364,58.438 Q114.364,63.833 116.146,67.398 Q117.928,70.962 121.359,72.744 Q124.789,74.527 129.696,74.527 Q132.381,74.527 134.518,74.136 Q136.654,73.745 138.387,73.111 L138.387,60.537 L127.767,60.537 z M172.005,40.567 Q176.253,40.567 179.097,41.494 Q181.941,42.422 183.381,44.546 Q184.822,46.67 184.822,50.283 Q184.822,52.993 183.833,54.934 Q182.844,56.875 181.111,58.12 Q179.378,59.365 177.107,60.025 L186.897,76.26 L183.919,76.26 L174.714,60.733 L165.852,60.733 L165.852,76.26 L163.338,76.26 L163.338,40.567 z M171.76,42.788 L165.852,42.788 L165.852,58.511 L172.957,58.511 Q177.327,58.511 179.78,56.411 Q182.234,54.312 182.234,50.381 Q182.234,46.06 179.646,44.424 Q177.058,42.788 171.76,42.788 z M228.888,76.26 L224.03,63.638 L209.04,63.638 L204.084,76.26 L201.52,76.26 L215.558,40.445 L217.853,40.445 L231.525,76.26 z M223.224,61.367 L218.293,47.989 Q218.097,47.476 217.817,46.67 Q217.536,45.864 217.231,44.961 Q216.925,44.058 216.632,43.252 Q216.388,44.107 216.095,44.961 Q215.802,45.816 215.534,46.609 Q215.265,47.403 215.021,48.037 L209.894,61.367 z M265.533,76.26 L252.422,43.301 L252.3,43.301 Q252.349,44.204 252.386,45.193 Q252.422,46.182 252.447,47.256 Q252.471,48.33 252.471,49.502 L252.471,76.26 L250.079,76.26 L250.079,40.567 L253.887,40.567 L266.534,72.354 L266.68,72.354 L279.424,40.567 L283.135,40.567 L283.135,76.26 L280.67,76.26 L280.67,49.209 Q280.67,48.257 280.694,47.256 Q280.718,46.255 280.755,45.266 Q280.792,44.278 280.84,43.35 L280.694,43.35 L267.535,76.26 z M306.743,76.26 L306.743,40.567 L309.257,40.567 L309.257,76.26 z M358.817,76.26 L356.254,76.26 L335.16,44.693 L335.038,44.693 Q335.087,46.011 335.123,47.366 Q335.16,48.721 335.196,50.149 Q335.233,51.577 335.233,53.091 L335.233,76.26 L332.84,76.26 L332.84,40.567 L335.428,40.567 L356.449,72.036 L356.571,72.036 Q356.547,70.962 356.51,69.546 Q356.473,68.13 356.437,66.641 Q356.4,65.152 356.4,63.833 L356.4,40.567 L358.817,40.567 z M401.907,76.26 L382.4,76.26 L382.4,40.567 L401.907,40.567 L401.907,42.837 L384.915,42.837 L384.915,56.363 L400.955,56.363 L400.955,58.633 L384.915,58.633 L384.915,73.989 L401.907,73.989 z" fill="#000000"/>
  </g>
</svg>
