<?xml version="1.0" encoding="UTF-8"?>
<!DOCTYPE svg PUBLIC "-//W3C//DTD SVG 1.1//EN" "http://www.w3.org/Graphics/SVG/1.1/DTD/svg11.dtd">
<svg version="1.1" xmlns="http://www.w3.org/2000/svg" xmlns:xlink="http://www.w3.org/1999/xlink" x="0" y="0" width="467.16" height="693.16" viewBox="0, 0, 233.58, 346.58">
  <g id="Background">
    <rect x="0" y="0" width="233.58" height="346.58" fill="#000000"/>
  </g>
  <g id="Layer_1">
    <path d="M216.115,275.638 C214.825,276.821 214.015,278.508 214.015,280.388 C214.015,282.271 214.825,283.954 216.115,285.138 L212.105,292.041 C211.498,291.861 210.855,291.755 210.185,291.755 C207.092,291.755 204.505,293.908 203.852,296.791 L195.815,296.791 C195.262,293.785 192.615,291.498 189.425,291.498 C188.762,291.498 188.125,291.598 187.522,291.788 L183.602,285.041 C184.835,283.864 185.605,282.211 185.605,280.388 L185.605,280.258 L185.605,280.134 C185.605,278.308 184.842,276.658 183.612,275.481 L187.348,269.054 C188.002,269.277 188.705,269.401 189.425,269.401 C192.525,269.401 195.105,267.247 195.765,264.371 L203.852,264.371 C204.505,267.247 207.092,269.401 210.185,269.401 C210.922,269.401 211.632,269.277 212.295,269.054 L216.115,275.638 z M17.758,239.42 L21.778,232.5 C22.372,232.68 23.008,232.786 23.672,232.786 C26.762,232.786 29.352,230.636 30.005,227.75 L38.092,227.75 C38.745,230.636 41.332,232.786 44.425,232.786 C45.095,232.786 45.738,232.68 46.342,232.5 L50.352,239.403 C49.468,240.21 48.815,241.26 48.492,242.443 C48.295,243.06 48.185,243.717 48.185,244.4 C48.185,246.257 48.978,247.927 50.235,249.1 L46.342,255.807 C45.738,255.627 45.095,255.52 44.425,255.52 C41.438,255.52 38.918,257.54 38.165,260.277 C38.132,260.367 38.115,260.461 38.092,260.557 L30.005,260.557 C29.352,257.674 26.762,255.52 23.672,255.52 C23.008,255.52 22.372,255.617 21.778,255.8 L17.758,248.897 C19.042,247.714 19.852,246.027 19.852,244.153 C19.852,242.28 19.042,240.597 17.758,239.42 z M23.672,291.251 C23.008,291.251 22.372,291.361 21.778,291.541 L17.758,284.628 C19.042,283.444 19.852,281.761 19.852,279.888 C19.852,278.014 19.042,276.328 17.758,275.154 L21.778,268.241 C22.372,268.424 23.008,268.521 23.672,268.521 C26.762,268.521 29.352,266.367 30.005,263.484 L37.982,263.484 C38.572,266.451 41.208,268.694 44.365,268.694 C45.078,268.694 45.772,268.571 46.415,268.357 L50.352,275.138 C49.468,275.951 48.815,276.994 48.492,278.178 C48.295,278.794 48.185,279.451 48.185,280.134 C48.185,281.991 48.978,283.658 50.235,284.841 L46.342,291.548 C45.738,291.361 45.095,291.251 44.425,291.251 C41.432,291.251 38.918,293.275 38.165,296.011 C38.132,296.101 38.115,296.191 38.092,296.291 L30.005,296.291 C29.352,293.415 26.762,291.251 23.672,291.251 z M54.685,309.332 C54.025,309.332 53.388,309.432 52.792,309.612 L48.772,302.702 C49.648,301.895 50.302,300.852 50.625,299.668 C50.825,299.061 50.932,298.401 50.932,297.721 C50.932,295.871 50.145,294.205 48.888,293.028 L52.792,286.315 C53.388,286.494 54.025,286.594 54.685,286.594 C57.678,286.594 60.198,284.581 60.952,281.844 C60.978,281.751 61.002,281.654 61.025,281.564 L69.105,281.564 C69.765,284.441 72.345,286.594 75.445,286.594 C76.108,286.594 76.752,286.494 77.365,286.304 L81.375,293.208 C80.075,294.391 79.265,296.085 79.265,297.958 C79.265,299.842 80.075,301.535 81.375,302.708 L77.372,309.605 C76.778,309.432 76.158,309.332 75.512,309.332 L75.445,309.332 C72.345,309.332 69.758,311.485 69.105,314.362 L61.025,314.362 C60.365,311.485 57.785,309.332 54.685,309.332 z M106.592,327.166 C103.492,327.166 100.912,329.319 100.252,332.196 L92.172,332.196 C91.518,329.319 88.932,327.166 85.832,327.166 C85.178,327.166 84.532,327.266 83.938,327.446 L79.918,320.525 C81.208,319.352 82.012,317.665 82.012,315.792 C82.012,313.919 81.208,312.242 79.918,311.058 L83.928,304.155 C84.508,304.328 85.128,304.428 85.765,304.428 C85.782,304.428 85.788,304.418 85.798,304.418 C85.815,304.418 85.822,304.428 85.832,304.428 C88.932,304.428 91.518,302.275 92.172,299.398 L100.252,299.398 C100.912,302.275 103.492,304.428 106.592,304.428 C107.255,304.428 107.908,304.328 108.512,304.138 L112.522,311.042 C111.232,312.225 110.412,313.912 110.412,315.792 C110.412,317.675 111.232,319.369 112.522,320.542 L108.512,327.456 C107.908,327.266 107.255,327.166 106.592,327.166 z M148.025,327.166 C144.925,327.166 142.345,329.319 141.692,332.196 L133.605,332.196 C132.945,329.319 130.355,327.166 127.262,327.166 C126.602,327.166 125.965,327.266 125.368,327.446 L121.352,320.525 C122.632,319.352 123.445,317.665 123.445,315.792 C123.445,313.919 122.632,312.242 121.352,311.058 L125.368,304.148 C125.965,304.328 126.602,304.428 127.262,304.428 C130.355,304.428 132.945,302.275 133.605,299.398 L141.692,299.398 C142.345,302.275 144.925,304.428 148.025,304.428 C148.685,304.428 149.332,304.328 149.942,304.138 L153.945,311.042 C152.662,312.225 151.845,313.912 151.845,315.792 C151.845,317.675 152.662,319.369 153.945,320.542 L149.942,327.456 C149.332,327.266 148.685,327.166 148.025,327.166 z M179.105,309.332 C176.005,309.332 173.425,311.485 172.762,314.362 L164.685,314.362 C164.032,311.485 161.445,309.332 158.345,309.332 C157.692,309.332 157.045,309.432 156.452,309.612 L152.432,302.702 C153.722,301.518 154.525,299.831 154.525,297.958 C154.525,296.085 153.712,294.408 152.432,293.225 L156.452,286.315 C157.045,286.494 157.692,286.594 158.345,286.594 C161.445,286.594 164.032,284.441 164.685,281.564 L172.715,281.564 C173.268,284.571 175.922,286.848 179.105,286.848 C179.775,286.848 180.418,286.748 181.032,286.561 L184.942,293.291 C183.702,294.475 182.925,296.125 182.925,297.958 C182.925,298.008 182.932,298.048 182.932,298.091 C182.932,298.131 182.925,298.171 182.925,298.221 C182.925,300.055 183.702,301.705 184.935,302.882 L181.022,309.622 C180.418,309.432 179.765,309.332 179.105,309.332 z M210.185,78.069 C207.092,78.069 204.505,80.223 203.852,83.099 L195.765,83.099 C195.112,80.223 192.525,78.069 189.425,78.069 C188.772,78.069 188.135,78.169 187.532,78.349 L183.522,71.439 C184.795,70.256 185.605,68.579 185.605,66.706 C185.605,64.832 184.795,63.146 183.522,61.962 L187.532,55.052 C188.135,55.232 188.772,55.332 189.425,55.332 C192.525,55.332 195.112,53.179 195.765,50.302 L203.852,50.302 C204.505,53.179 207.092,55.332 210.185,55.332 C210.855,55.332 211.498,55.232 212.105,55.042 L216.115,61.956 C214.825,63.129 214.015,64.822 214.015,66.706 C214.015,68.579 214.825,70.272 216.115,71.446 L212.105,78.359 C211.498,78.169 210.855,78.069 210.185,78.069 z M179.088,167.232 C175.995,167.232 173.408,169.375 172.755,172.262 L164.668,172.262 C164.015,169.375 161.428,167.232 158.335,167.232 L158.328,167.232 C157.665,167.232 157.038,167.322 156.435,167.502 L152.425,160.591 C153.705,159.415 154.515,157.731 154.515,155.858 C154.515,153.985 153.705,152.298 152.425,151.124 L156.442,144.204 C157.038,144.391 157.675,144.481 158.335,144.481 C161.428,144.481 164.015,142.338 164.668,139.454 L172.755,139.454 C173.408,142.338 175.995,144.481 179.088,144.481 L179.105,144.481 C179.765,144.481 180.412,144.384 181.008,144.204 L185.018,151.108 C183.728,152.291 182.918,153.975 182.918,155.858 C182.918,157.738 183.728,159.425 185.018,160.608 L181.008,167.512 C180.402,167.328 179.758,167.232 179.088,167.232 z M179.105,37.498 C179.765,37.498 180.418,37.398 181.022,37.208 L185.032,44.122 C183.745,45.295 182.925,46.989 182.925,48.872 C182.925,50.752 183.735,52.439 185.032,53.622 L181.022,60.526 C180.418,60.336 179.765,60.236 179.105,60.236 C176.005,60.236 173.425,62.389 172.762,65.266 L164.685,65.266 C164.032,62.389 161.445,60.236 158.345,60.236 C157.692,60.236 157.045,60.336 156.452,60.516 L152.432,53.605 C153.722,52.422 154.525,50.745 154.525,48.872 C154.525,46.999 153.712,45.312 152.432,44.138 L156.452,37.218 C157.045,37.398 157.682,37.498 158.335,37.498 L158.345,37.498 C161.445,37.498 164.032,35.345 164.685,32.468 L172.762,32.468 C173.425,35.345 176.005,37.498 179.105,37.498 z M185.042,89.29 L181.032,96.193 C180.418,96.003 179.775,95.896 179.105,95.896 C175.515,95.896 172.605,98.79 172.605,102.363 C172.605,105.93 175.515,108.823 179.105,108.823 C179.775,108.823 180.418,108.723 181.032,108.537 L185.042,115.44 C183.745,116.614 182.925,118.307 182.925,120.19 C182.925,122.08 183.745,123.764 185.042,124.957 L181.032,131.851 C180.418,131.661 179.775,131.564 179.105,131.564 L179.088,131.564 C175.995,131.564 173.408,133.717 172.755,136.601 L164.668,136.601 C164.015,133.717 161.428,131.564 158.335,131.564 C154.748,131.564 151.835,134.457 151.835,138.024 C151.835,139.914 152.648,141.598 153.945,142.781 L149.935,149.684 C149.322,149.494 148.678,149.398 148.008,149.398 L147.998,149.398 C144.908,149.398 142.318,151.551 141.665,154.428 L133.582,154.428 C132.918,151.551 130.338,149.398 127.238,149.398 C123.652,149.398 120.738,152.291 120.738,155.858 C120.738,157.738 121.558,159.431 122.855,160.615 L118.845,167.512 C118.242,167.328 117.598,167.232 116.935,167.232 L116.918,167.232 C116.258,167.232 115.628,167.322 115.025,167.502 L111.025,160.598 C112.305,159.415 113.115,157.731 113.115,155.858 C113.115,152.291 110.205,149.398 106.608,149.398 C103.518,149.398 100.928,151.551 100.275,154.428 L92.188,154.428 C91.535,151.551 88.955,149.398 85.855,149.398 L85.848,149.398 C85.185,149.398 84.542,149.494 83.945,149.678 L79.928,142.774 C81.218,141.591 82.018,139.904 82.018,138.024 C82.018,134.457 79.108,131.564 75.522,131.564 C72.428,131.564 69.842,133.717 69.188,136.601 L61.102,136.601 C60.448,133.717 57.858,131.564 54.758,131.564 L54.742,131.564 C54.072,131.564 53.435,131.661 52.832,131.844 L48.822,124.94 C50.105,123.757 50.922,122.07 50.922,120.19 C50.922,118.317 50.105,116.63 48.822,115.457 L52.832,108.543 C53.435,108.723 54.072,108.823 54.742,108.823 C58.332,108.823 61.242,105.93 61.242,102.363 C61.242,98.79 58.332,95.896 54.742,95.896 C54.072,95.896 53.435,96.003 52.832,96.183 L48.822,89.273 C50.105,88.096 50.922,86.413 50.922,84.529 C50.922,82.656 50.105,80.973 48.822,79.789 L52.832,72.876 C53.435,73.066 54.072,73.166 54.742,73.166 L54.758,73.166 C57.858,73.166 60.448,71.012 61.102,68.126 L69.188,68.126 C69.842,71.012 72.428,73.166 75.522,73.166 C79.108,73.166 82.018,70.272 82.018,66.706 C82.018,64.822 81.218,63.139 79.928,61.956 L83.938,55.052 C84.542,55.232 85.178,55.332 85.832,55.332 L85.848,55.332 C88.942,55.332 91.528,53.179 92.182,50.302 L100.252,50.302 C100.912,53.179 103.492,55.332 106.592,55.332 C110.182,55.332 113.092,52.439 113.092,48.872 C113.092,46.989 112.282,45.305 110.998,44.128 L115.008,37.218 C115.615,37.398 116.252,37.498 116.912,37.498 L116.928,37.498 C117.598,37.498 118.242,37.398 118.855,37.208 L122.865,44.112 C121.565,45.295 120.748,46.982 120.748,48.872 C120.748,52.439 123.658,55.332 127.255,55.332 C130.348,55.332 132.935,53.179 133.588,50.302 L141.675,50.302 C142.328,53.179 144.915,55.332 148.008,55.332 L148.025,55.332 C148.695,55.332 149.338,55.232 149.952,55.042 L153.952,61.946 C152.662,63.129 151.845,64.816 151.845,66.706 C151.845,70.272 154.755,73.166 158.345,73.166 C161.445,73.166 164.032,71.012 164.685,68.126 L172.762,68.126 C173.425,71.012 176.005,73.166 179.105,73.166 C179.775,73.166 180.418,73.066 181.032,72.876 L185.042,79.773 C183.745,80.956 182.925,82.649 182.925,84.529 C182.925,86.419 183.745,88.106 185.042,89.29 z M106.608,185.055 C103.518,185.055 100.928,187.209 100.275,190.085 L92.188,190.085 C91.535,187.209 88.955,185.055 85.855,185.055 C85.195,185.055 84.558,185.155 83.962,185.335 L79.945,178.425 C81.225,177.242 82.035,175.565 82.035,173.692 C82.035,171.815 81.225,170.132 79.945,168.958 L83.962,162.038 C84.558,162.218 85.195,162.315 85.848,162.315 L85.855,162.315 C88.955,162.315 91.535,160.171 92.188,157.288 L100.275,157.288 C100.928,160.171 103.518,162.315 106.608,162.315 C107.278,162.315 107.925,162.218 108.528,162.038 L112.538,168.925 C111.232,170.108 110.412,171.802 110.412,173.692 C110.412,175.582 111.232,177.265 112.538,178.448 L108.528,185.345 C107.925,185.155 107.278,185.055 106.608,185.055 z M127.238,185.055 C126.585,185.055 125.948,185.155 125.345,185.335 L121.335,178.432 C122.625,177.258 123.445,175.572 123.445,173.692 C123.445,171.808 122.625,170.125 121.335,168.942 L125.345,162.038 C125.948,162.218 126.585,162.315 127.238,162.315 C130.338,162.315 132.918,160.171 133.582,157.288 L141.665,157.288 C142.318,160.171 144.908,162.315 147.998,162.315 L148.008,162.315 C148.678,162.315 149.315,162.218 149.918,162.038 L153.928,168.942 C152.638,170.125 151.828,171.808 151.828,173.692 C151.828,175.572 152.638,177.258 153.928,178.442 L149.918,185.345 C149.315,185.155 148.678,185.055 148.008,185.055 L147.998,185.055 C144.908,185.055 142.318,187.209 141.665,190.085 L133.582,190.085 C132.918,187.209 130.338,185.055 127.238,185.055 z M189.425,19.671 C192.525,19.671 195.112,17.518 195.765,14.634 L203.852,14.634 C204.505,17.518 207.092,19.671 210.185,19.671 C210.855,19.671 211.498,19.564 212.105,19.384 L216.115,26.288 C214.825,27.471 214.015,29.155 214.015,31.038 C214.015,32.918 214.825,34.605 216.115,35.788 L212.105,42.692 C211.498,42.512 210.855,42.412 210.185,42.412 C207.092,42.412 204.505,44.555 203.852,47.442 L195.765,47.442 C195.105,44.555 192.525,42.412 189.425,42.412 C188.772,42.412 188.135,42.502 187.532,42.692 L183.522,35.772 C184.795,34.595 185.605,32.911 185.605,31.038 C185.605,29.165 184.795,27.478 183.522,26.305 L187.532,19.384 C188.135,19.564 188.772,19.671 189.425,19.671 z M127.255,19.671 C130.348,19.671 132.935,17.518 133.588,14.634 L141.675,14.634 C142.328,17.518 144.915,19.671 148.008,19.671 C148.678,19.671 149.322,19.564 149.925,19.384 L153.935,26.288 C152.648,27.471 151.835,29.155 151.835,31.038 C151.835,32.918 152.648,34.605 153.935,35.788 L149.925,42.692 C149.322,42.502 148.685,42.412 148.025,42.412 L148.008,42.412 C144.915,42.412 142.328,44.555 141.675,47.442 L133.588,47.442 C132.935,44.555 130.348,42.412 127.255,42.412 C126.595,42.412 125.958,42.502 125.355,42.692 L121.342,35.772 C122.625,34.595 123.435,32.911 123.435,31.038 C123.435,29.165 122.625,27.478 121.342,26.305 L125.355,19.384 C125.958,19.564 126.595,19.671 127.255,19.671 z M85.832,19.671 C88.932,19.671 91.518,17.518 92.172,14.634 L100.258,14.634 C100.912,17.518 103.492,19.671 106.592,19.671 C107.255,19.671 107.908,19.564 108.512,19.384 L112.522,26.288 C111.232,27.471 110.412,29.155 110.412,31.038 C110.412,32.918 111.232,34.605 112.522,35.788 L108.512,42.692 C107.908,42.512 107.255,42.412 106.592,42.412 C103.492,42.412 100.912,44.555 100.258,47.442 L92.182,47.442 C91.528,44.555 88.942,42.412 85.848,42.412 L85.832,42.412 C85.178,42.412 84.542,42.502 83.938,42.682 L79.928,35.778 C81.218,34.595 82.018,32.911 82.018,31.038 C82.018,29.155 81.218,27.471 79.928,26.295 L83.938,19.384 C84.532,19.564 85.178,19.671 85.832,19.671 z M54.758,37.498 C57.858,37.498 60.448,35.345 61.102,32.468 L69.178,32.468 C69.832,35.345 72.412,37.498 75.512,37.498 L75.522,37.498 C76.192,37.498 76.828,37.398 77.438,37.218 L81.442,44.112 C80.152,45.295 79.332,46.982 79.332,48.872 C79.332,50.752 80.152,52.445 81.442,53.629 L77.438,60.526 C76.835,60.336 76.192,60.236 75.522,60.236 C72.428,60.236 69.842,62.389 69.178,65.266 L61.102,65.266 C60.448,62.389 57.858,60.236 54.758,60.236 L54.742,60.236 C54.088,60.236 53.462,60.336 52.865,60.516 L48.855,53.605 C50.138,52.422 50.938,50.745 50.938,48.872 C50.938,46.999 50.138,45.312 48.855,44.138 L52.865,37.218 C53.468,37.398 54.105,37.498 54.758,37.498 z M17.742,61.962 L21.762,55.052 C22.365,55.232 23.002,55.332 23.662,55.332 C26.755,55.332 29.342,53.179 29.995,50.302 L38.082,50.302 C38.735,53.179 41.315,55.332 44.415,55.332 L44.442,55.332 C45.102,55.332 45.738,55.232 46.335,55.052 L50.345,61.956 C49.055,63.129 48.235,64.822 48.235,66.706 C48.235,68.579 49.055,70.272 50.345,71.446 L46.335,78.359 C45.732,78.169 45.085,78.069 44.415,78.069 C41.315,78.069 38.735,80.223 38.082,83.099 L29.995,83.099 C29.342,80.223 26.755,78.069 23.662,78.069 C23.002,78.069 22.365,78.169 21.762,78.349 L17.742,71.439 C19.032,70.256 19.835,68.579 19.835,66.706 C19.835,64.832 19.032,63.146 17.742,61.962 z M17.742,97.623 L21.762,90.72 C22.365,90.89 23.002,91 23.662,91 C26.755,91 29.342,88.836 29.995,85.959 L38.082,85.959 C38.735,88.836 41.315,91 44.415,91 C45.085,91 45.732,90.89 46.335,90.71 L50.345,97.613 C49.055,98.79 48.235,100.483 48.235,102.363 C48.235,104.247 49.055,105.93 50.345,107.113 L46.335,114.017 C45.732,113.837 45.085,113.73 44.415,113.73 C41.315,113.73 38.735,115.884 38.082,118.767 L29.995,118.767 C29.342,115.884 26.755,113.73 23.662,113.73 C23.002,113.73 22.365,113.837 21.762,114.01 L17.742,107.097 C19.032,105.923 19.835,104.237 19.835,102.363 C19.835,100.49 19.032,98.806 17.742,97.623 z M23.662,149.398 C23.002,149.398 22.365,149.494 21.762,149.678 L17.742,142.764 C19.032,141.581 19.835,139.897 19.835,138.024 C19.835,136.151 19.032,134.474 17.742,133.291 L21.762,126.377 C22.365,126.557 23.002,126.657 23.662,126.657 C26.755,126.657 29.342,124.504 29.995,121.627 L38.082,121.627 C38.735,124.504 41.315,126.657 44.415,126.657 C45.085,126.657 45.732,126.557 46.335,126.371 L50.345,133.274 C49.055,134.457 48.235,136.141 48.235,138.024 C48.235,139.904 49.055,141.598 50.345,142.774 L46.335,149.678 C45.738,149.494 45.102,149.398 44.442,149.398 L44.415,149.398 C41.315,149.398 38.735,151.551 38.082,154.428 L29.995,154.428 C29.342,151.551 26.755,149.398 23.662,149.398 z M54.758,167.232 C54.105,167.232 53.468,167.328 52.865,167.512 L48.855,160.591 C50.138,159.415 50.938,157.731 50.938,155.858 C50.938,153.985 50.138,152.298 48.855,151.124 L52.865,144.211 C53.462,144.391 54.088,144.481 54.742,144.481 L54.758,144.481 C57.858,144.481 60.448,142.338 61.102,139.454 L69.178,139.454 C69.842,142.338 72.428,144.481 75.522,144.481 C76.192,144.481 76.835,144.384 77.438,144.204 L81.448,151.108 C80.158,152.291 79.342,153.975 79.342,155.858 C79.342,157.738 80.158,159.425 81.448,160.608 L77.438,167.512 C76.835,167.328 76.198,167.232 75.528,167.232 L75.522,167.232 C72.428,167.232 69.842,169.375 69.178,172.262 L61.102,172.262 C60.448,169.375 57.858,167.232 54.758,167.232 z M182.918,191.525 C182.918,191.622 182.925,191.729 182.932,191.829 C182.932,191.852 182.925,191.879 182.925,191.909 C182.925,193.709 183.678,195.346 184.875,196.522 L181.008,203.179 C180.402,202.989 179.758,202.889 179.088,202.889 C175.995,202.889 173.408,205.042 172.755,207.919 L164.668,207.919 C164.015,205.042 161.428,202.889 158.335,202.889 C157.675,202.889 157.038,202.989 156.442,203.169 L152.425,196.259 C153.705,195.076 154.515,193.399 154.515,191.525 C154.515,189.649 153.705,187.965 152.425,186.782 L156.435,179.872 C157.038,180.052 157.665,180.149 158.328,180.149 L158.335,180.149 C161.428,180.149 164.015,177.995 164.668,175.122 L172.755,175.122 C173.408,177.995 175.995,180.149 179.088,180.149 C179.758,180.149 180.402,180.052 181.008,179.862 L185.018,186.775 C183.728,187.949 182.918,189.642 182.918,191.525 z M216.115,249.857 L212.295,256.447 C211.632,256.217 210.922,256.094 210.185,256.094 C207.092,256.094 204.505,258.247 203.852,261.124 L195.765,261.124 C195.112,258.247 192.525,256.094 189.425,256.094 C188.705,256.094 188.002,256.217 187.348,256.44 L183.522,249.85 C184.795,248.667 185.605,246.98 185.605,245.107 C185.605,243.233 184.795,241.557 183.522,240.373 L187.388,233.7 C188.035,233.913 188.722,234.03 189.425,234.03 C192.525,234.03 195.105,231.876 195.765,229 L203.852,229 C204.505,231.876 207.092,234.03 210.185,234.03 C210.905,234.03 211.598,233.907 212.245,233.693 L216.115,240.357 C214.825,241.54 214.015,243.227 214.015,245.107 C214.015,246.99 214.825,248.684 216.115,249.857 z M210.185,198.369 C210.855,198.369 211.498,198.262 212.105,198.082 L216.005,204.796 C214.775,205.972 214.015,207.623 214.015,209.449 C214.015,209.496 214.015,209.546 214.022,209.589 C214.015,209.636 214.015,209.686 214.015,209.736 C214.015,211.569 214.775,213.213 216.005,214.386 L212.105,221.103 C211.498,220.913 210.855,220.813 210.185,220.813 C207.092,220.813 204.505,222.966 203.852,225.843 L195.765,225.843 C195.112,222.966 192.525,220.813 189.425,220.813 C188.772,220.813 188.135,220.913 187.532,221.093 L183.628,214.369 C184.842,213.196 185.605,211.559 185.605,209.736 L185.605,209.589 L185.605,209.449 C185.605,209.203 185.588,208.956 185.562,208.716 C185.415,207.173 184.712,205.782 183.662,204.756 L187.532,198.082 C188.135,198.262 188.772,198.369 189.425,198.369 C192.525,198.369 195.112,196.216 195.765,193.332 L203.852,193.332 C204.505,196.216 207.092,198.369 210.185,198.369 z M216.115,142.774 L212.105,149.684 C211.498,149.494 210.855,149.398 210.185,149.398 C207.092,149.398 204.505,151.551 203.852,154.428 L195.765,154.428 C195.112,151.551 192.525,149.398 189.425,149.398 L189.415,149.398 C188.762,149.398 188.125,149.494 187.532,149.678 L183.522,142.764 C184.795,141.581 185.605,139.897 185.605,138.024 C185.605,136.151 184.795,134.474 183.522,133.291 L187.532,126.377 C188.135,126.557 188.772,126.657 189.425,126.657 C192.525,126.657 195.112,124.504 195.765,121.627 L203.852,121.627 C204.505,124.504 207.092,126.657 210.185,126.657 C210.855,126.657 211.498,126.557 212.105,126.371 L216.115,133.274 C214.825,134.457 214.015,136.141 214.015,138.024 C214.015,139.904 214.825,141.598 216.115,142.774 z M216.115,107.113 L212.105,114.017 C211.498,113.837 210.855,113.73 210.185,113.73 C207.092,113.73 204.505,115.884 203.852,118.767 L195.765,118.767 C195.112,115.884 192.525,113.73 189.425,113.73 C188.772,113.73 188.135,113.837 187.532,114.01 L183.522,107.097 C184.795,105.923 185.605,104.237 185.605,102.363 C185.605,100.49 184.795,98.806 183.522,97.623 L187.532,90.72 C188.135,90.89 188.772,91 189.425,91 C192.525,91 195.112,88.836 195.765,85.959 L203.852,85.959 C204.505,88.836 207.092,91 210.185,91 C210.855,91 211.498,90.89 212.105,90.71 L216.115,97.613 C214.825,98.79 214.015,100.483 214.015,102.363 C214.015,104.247 214.825,105.93 216.115,107.113 z M220.512,73.166 C224.102,73.166 227.012,70.272 227.012,66.706 C227.012,63.129 224.102,60.236 220.512,60.236 C219.852,60.236 219.215,60.336 218.602,60.526 L214.592,53.612 C215.882,52.429 216.685,50.745 216.685,48.872 C216.685,46.989 215.882,45.305 214.592,44.128 L218.602,37.218 C219.215,37.398 219.852,37.498 220.512,37.498 C224.102,37.498 227.012,34.605 227.012,31.038 C227.012,27.471 224.102,24.578 220.512,24.578 C219.852,24.578 219.215,24.678 218.602,24.858 L214.592,17.954 C215.882,16.761 216.685,15.078 216.685,13.204 C216.685,9.638 213.775,6.744 210.185,6.744 C207.092,6.744 204.505,8.898 203.852,11.781 L195.765,11.781 C195.112,8.898 192.525,6.744 189.425,6.744 C185.835,6.744 182.925,9.638 182.925,13.204 C182.925,15.084 183.745,16.778 185.042,17.961 L181.032,24.865 C180.407,24.674 179.758,24.578 179.105,24.578 C176.005,24.578 173.425,26.721 172.762,29.608 L164.685,29.608 C164.032,26.721 161.445,24.578 158.345,24.578 L158.335,24.578 C157.675,24.578 157.028,24.678 156.435,24.858 L152.415,17.954 C153.705,16.761 154.515,15.084 154.515,13.204 C154.515,9.638 151.605,6.744 148.008,6.744 C144.915,6.744 142.328,8.898 141.675,11.781 L133.588,11.781 C132.935,8.898 130.348,6.744 127.255,6.744 C123.658,6.744 120.748,9.638 120.748,13.204 C120.748,15.084 121.565,16.778 122.865,17.961 L118.855,24.865 C118.231,24.674 117.581,24.578 116.928,24.578 L116.912,24.578 C116.252,24.578 115.615,24.678 115.008,24.858 L110.998,17.954 C112.282,16.761 113.092,15.084 113.092,13.204 C113.092,9.638 110.182,6.744 106.592,6.744 C103.492,6.744 100.912,8.898 100.252,11.781 L92.172,11.781 C91.518,8.898 88.932,6.744 85.832,6.744 C82.242,6.744 79.332,9.638 79.332,13.204 C79.332,15.084 80.152,16.778 81.442,17.961 L77.438,24.858 C76.828,24.678 76.192,24.578 75.522,24.578 L75.512,24.578 C72.412,24.578 69.832,26.721 69.178,29.608 L61.102,29.608 C60.448,26.721 57.858,24.578 54.758,24.578 C51.172,24.578 48.262,27.471 48.262,31.038 C48.262,32.918 49.078,34.612 50.378,35.795 L46.368,42.692 C45.755,42.512 45.112,42.412 44.442,42.412 L44.415,42.412 C41.315,42.412 38.735,44.555 38.082,47.442 L29.995,47.442 C29.342,44.555 26.755,42.412 23.662,42.412 C20.065,42.412 17.155,45.305 17.155,48.872 C17.155,50.752 17.975,52.445 19.265,53.622 L15.262,60.526 C14.652,60.336 14.005,60.236 13.335,60.236 C9.748,60.236 6.828,63.129 6.828,66.706 C6.828,70.272 9.748,73.166 13.335,73.166 C14.005,73.166 14.652,73.066 15.262,72.876 L19.265,79.773 C17.975,80.956 17.155,82.649 17.155,84.529 C17.155,86.419 17.975,88.106 19.265,89.29 L15.262,96.193 C14.652,96.003 14.005,95.896 13.335,95.896 C9.748,95.896 6.828,98.79 6.828,102.363 C6.828,105.93 9.748,108.823 13.335,108.823 C14.005,108.823 14.652,108.723 15.262,108.537 L19.265,115.44 C17.975,116.614 17.155,118.307 17.155,120.19 C17.155,122.08 17.975,123.764 19.265,124.957 L15.262,131.851 C14.652,131.661 14.005,131.564 13.335,131.564 C9.748,131.564 6.828,134.457 6.828,138.024 C6.828,141.591 9.748,144.481 13.335,144.481 C14.005,144.481 14.652,144.384 15.262,144.194 L19.265,151.098 C17.975,152.281 17.155,153.975 17.155,155.858 C17.155,159.425 20.065,162.315 23.662,162.315 C26.755,162.315 29.342,160.171 29.995,157.288 L38.082,157.288 C38.735,160.171 41.315,162.315 44.415,162.315 L44.442,162.315 C45.112,162.315 45.755,162.218 46.368,162.028 L50.378,168.932 C49.078,170.115 48.262,171.808 48.262,173.692 C48.262,177.258 51.172,180.149 54.758,180.149 C57.858,180.149 60.448,177.995 61.102,175.122 L69.188,175.122 C69.842,177.995 72.428,180.149 75.522,180.149 L75.528,180.149 C76.198,180.149 76.852,180.052 77.455,179.862 L81.465,186.765 C80.175,187.949 79.348,189.635 79.348,191.525 C79.348,195.092 82.268,197.982 85.855,197.982 C88.955,197.982 91.535,195.829 92.188,192.945 L100.275,192.945 C100.928,195.829 103.518,197.982 106.608,197.982 C110.205,197.982 113.115,195.092 113.115,191.525 C113.115,189.642 112.305,187.959 111.025,186.775 L115.025,179.872 C115.628,180.052 116.258,180.149 116.918,180.149 L116.935,180.149 C117.598,180.149 118.242,180.052 118.845,179.872 L122.855,186.765 C121.558,187.949 120.738,189.635 120.738,191.525 C120.738,195.092 123.652,197.982 127.238,197.982 C130.338,197.982 132.918,195.829 133.582,192.945 L141.665,192.945 C142.318,195.829 144.908,197.982 147.998,197.982 L148.008,197.982 C148.678,197.982 149.322,197.886 149.935,197.696 L153.945,204.592 C152.648,205.776 151.835,207.466 151.835,209.349 C151.835,212.926 154.748,215.816 158.335,215.816 C161.428,215.816 164.015,213.656 164.668,210.779 L172.698,210.779 C173.202,213.853 175.872,216.203 179.105,216.203 C179.775,216.203 180.418,216.096 181.032,215.906 L184.925,222.623 C183.702,223.796 182.925,225.45 182.925,227.283 C182.925,227.33 182.932,227.373 182.932,227.423 C182.932,227.47 182.925,227.52 182.925,227.57 C182.925,229.403 183.695,231.046 184.925,232.22 L181.032,238.937 C180.418,238.747 179.775,238.647 179.105,238.647 C175.515,238.647 172.605,241.54 172.605,245.107 C172.605,248.684 175.515,251.574 179.105,251.574 C179.775,251.574 180.418,251.467 181.032,251.287 L184.892,257.937 C183.685,259.104 182.925,260.747 182.925,262.554 C182.925,262.621 182.932,262.687 182.932,262.751 C182.932,262.811 182.925,262.874 182.925,262.941 C182.925,264.757 183.685,266.394 184.892,267.567 L181.148,274.004 C180.512,273.788 179.815,273.664 179.105,273.664 C176.005,273.664 173.425,275.818 172.762,278.704 L164.685,278.704 C164.032,275.818 161.445,273.664 158.345,273.664 C154.755,273.664 151.845,276.558 151.845,280.134 C151.845,282.014 152.662,283.708 153.952,284.884 L149.952,291.788 C149.338,291.598 148.695,291.498 148.025,291.498 C144.925,291.498 142.345,293.651 141.692,296.528 L133.605,296.528 C132.945,293.651 130.355,291.498 127.262,291.498 C123.675,291.498 120.765,294.391 120.765,297.958 C120.765,299.848 121.575,301.535 122.872,302.718 L118.862,309.622 C118.258,309.432 117.605,309.332 116.935,309.332 L116.912,309.332 C116.252,309.332 115.615,309.432 115.008,309.612 L110.998,302.702 C112.282,301.525 113.092,299.842 113.092,297.958 C113.092,294.391 110.182,291.498 106.592,291.498 C103.492,291.498 100.912,293.651 100.258,296.528 L92.172,296.528 C91.518,293.651 88.932,291.498 85.832,291.498 L85.765,291.498 C85.105,291.498 84.468,291.598 83.865,291.788 L79.852,284.874 C81.135,283.691 81.945,282.008 81.945,280.134 C81.945,276.558 79.035,273.664 75.445,273.664 C72.345,273.664 69.758,275.818 69.105,278.704 L61.142,278.704 C60.582,275.704 57.935,273.428 54.752,273.428 C54.088,273.428 53.452,273.528 52.848,273.708 L48.872,266.877 C49.542,266.237 50.062,265.464 50.402,264.601 C50.742,263.821 50.932,262.957 50.932,262.061 C50.932,262.044 50.922,262.037 50.922,262.021 C50.922,262.011 50.932,261.997 50.932,261.987 C50.932,260.107 50.122,258.42 48.838,257.247 L52.718,250.557 C53.338,250.754 53.998,250.86 54.685,250.86 C57.678,250.86 60.198,248.847 60.952,246.11 C61.142,245.493 61.258,244.837 61.258,244.153 C61.258,240.587 58.338,237.693 54.752,237.693 C54.088,237.693 53.452,237.793 52.848,237.973 L48.832,231.063 C50.122,229.886 50.932,228.203 50.932,226.33 C50.932,222.753 48.022,219.859 44.425,219.859 C41.332,219.859 38.745,222.013 38.092,224.89 L30.005,224.89 C29.352,222.013 26.762,219.859 23.672,219.859 C20.082,219.859 17.165,222.753 17.165,226.33 C17.165,228.21 17.982,229.903 19.282,231.08 L15.272,237.983 C14.658,237.793 14.015,237.693 13.345,237.693 C9.755,237.693 6.845,240.587 6.845,244.153 C6.845,247.73 9.755,250.62 13.345,250.62 C14.015,250.62 14.658,250.514 15.272,250.327 L19.282,257.23 C17.982,258.414 17.165,260.097 17.165,261.987 C17.165,261.997 17.172,262.011 17.172,262.021 C17.172,262.037 17.165,262.044 17.165,262.061 C17.165,263.944 17.982,265.627 19.282,266.811 L15.272,273.714 C14.647,273.524 13.998,273.427 13.345,273.428 C9.755,273.428 6.845,276.321 6.845,279.888 C6.845,283.461 9.755,286.355 13.345,286.355 C14.015,286.355 14.658,286.248 15.272,286.068 L19.282,292.961 C17.982,294.145 17.165,295.838 17.165,297.721 C17.165,301.288 20.082,304.182 23.672,304.182 C26.762,304.182 29.352,302.028 30.005,299.151 L37.975,299.151 C38.538,302.152 41.182,304.428 44.365,304.428 C45.035,304.428 45.682,304.328 46.285,304.138 L50.295,311.042 C49.005,312.218 48.185,313.912 48.185,315.792 C48.185,319.359 51.095,322.252 54.685,322.252 C57.785,322.252 60.365,320.109 61.025,317.222 L69.105,317.222 C69.758,320.109 72.345,322.252 75.445,322.252 L75.512,322.252 C76.182,322.252 76.828,322.152 77.438,321.965 L81.442,328.869 C80.152,330.052 79.332,331.746 79.332,333.626 C79.332,337.192 82.242,340.086 85.832,340.086 C88.932,340.086 91.518,337.942 92.172,335.056 L100.258,335.056 C100.912,337.942 103.492,340.086 106.592,340.086 C110.182,340.086 113.092,337.192 113.092,333.626 C113.092,331.752 112.282,330.069 110.998,328.886 L115.008,321.972 C115.615,322.152 116.252,322.252 116.912,322.252 L116.935,322.252 C117.605,322.252 118.258,322.152 118.862,321.965 L122.872,328.869 C121.575,330.052 120.765,331.746 120.765,333.626 C120.765,337.192 123.675,340.086 127.262,340.086 C130.355,340.086 132.945,337.942 133.605,335.056 L141.692,335.056 C142.345,337.942 144.925,340.086 148.025,340.086 C151.612,340.086 154.525,337.192 154.525,333.626 C154.525,331.752 153.712,330.069 152.425,328.886 L156.442,321.972 C157.045,322.152 157.682,322.252 158.345,322.252 C161.445,322.252 164.032,320.109 164.685,317.222 L172.762,317.222 C173.425,320.109 176.005,322.252 179.105,322.252 C182.695,322.252 185.605,319.359 185.605,315.792 C185.605,313.919 184.795,312.235 183.512,311.052 L187.398,304.352 C188.035,304.565 188.722,304.682 189.425,304.682 C192.525,304.682 195.112,302.528 195.765,299.645 L203.852,299.645 C204.505,302.528 207.092,304.682 210.185,304.682 C213.775,304.682 216.685,301.788 216.685,298.221 C216.685,296.341 215.882,294.655 214.592,293.471 L218.602,286.568 C219.215,286.748 219.852,286.848 220.512,286.848 C224.102,286.848 227.012,283.954 227.012,280.388 C227.012,276.821 224.102,273.928 220.512,273.928 C219.852,273.928 219.215,274.028 218.602,274.208 L214.742,267.551 C215.938,266.377 216.685,264.747 216.685,262.941 C216.685,262.874 216.675,262.811 216.675,262.751 C216.675,262.687 216.685,262.621 216.685,262.554 C216.685,260.747 215.938,259.12 214.742,257.944 L218.602,251.287 C219.215,251.477 219.852,251.574 220.512,251.574 C224.102,251.574 227.012,248.684 227.012,245.107 C227.012,241.54 224.102,238.647 220.512,238.647 C219.852,238.647 219.215,238.747 218.602,238.927 L214.708,232.213 C215.925,231.036 216.685,229.393 216.685,227.57 C216.685,227.52 216.685,227.47 216.675,227.423 C216.685,227.373 216.685,227.33 216.685,227.283 C216.685,225.456 215.925,223.813 214.708,222.64 L218.602,215.916 C219.215,216.096 219.852,216.203 220.512,216.203 C224.102,216.203 227.012,213.309 227.012,209.736 C227.012,209.686 227.002,209.636 227.002,209.589 C227.002,209.546 227.012,209.496 227.012,209.449 C227.012,205.882 224.102,202.989 220.512,202.989 C219.852,202.989 219.215,203.086 218.602,203.269 L214.708,196.546 C215.925,195.369 216.685,193.726 216.685,191.909 C216.685,191.862 216.685,191.812 216.675,191.762 C216.685,191.712 216.685,191.662 216.685,191.615 C216.685,188.049 213.775,185.155 210.185,185.155 C207.092,185.155 204.505,187.299 203.852,190.185 L195.782,190.185 C195.162,187.259 192.548,185.055 189.415,185.055 C188.755,185.055 188.118,185.155 187.515,185.345 L183.495,178.432 C184.785,177.248 185.595,175.565 185.595,173.692 C185.595,171.808 184.785,170.132 183.495,168.948 L187.515,162.038 C188.118,162.218 188.755,162.315 189.415,162.315 L189.425,162.315 C192.525,162.315 195.105,160.171 195.765,157.288 L203.852,157.288 C204.505,160.171 207.092,162.315 210.185,162.315 C213.775,162.315 216.685,159.425 216.685,155.858 C216.685,153.985 215.882,152.298 214.592,151.114 L218.602,144.204 C219.215,144.384 219.852,144.481 220.512,144.481 C224.102,144.481 227.012,141.591 227.012,138.024 C227.012,134.457 224.102,131.564 220.512,131.564 C219.852,131.564 219.215,131.661 218.602,131.844 L214.592,124.94 C215.882,123.757 216.685,122.07 216.685,120.19 C216.685,118.317 215.882,116.63 214.592,115.457 L218.602,108.543 C219.215,108.723 219.852,108.823 220.512,108.823 C224.102,108.823 227.012,105.93 227.012,102.363 C227.012,98.79 224.102,95.896 220.512,95.896 C219.852,95.896 219.215,96.003 218.602,96.183 L214.592,89.273 C215.882,88.096 216.685,86.413 216.685,84.529 C216.685,82.656 215.882,80.973 214.592,79.789 L218.602,72.876 C219.215,73.066 219.852,73.166 220.512,73.166 z" fill="#FFFFFF"/>
  </g>
</svg>
