<?xml version="1.0" encoding="UTF-8"?>
<!DOCTYPE svg PUBLIC "-//W3C//DTD SVG 1.1//EN" "http://www.w3.org/Graphics/SVG/1.1/DTD/svg11.dtd">
<svg version="1.1" xmlns="http://www.w3.org/2000/svg" xmlns:xlink="http://www.w3.org/1999/xlink" x="0" y="0" width="702.48" height="766.48" viewBox="0, 0, 702.48, 766.48">
  <g id="Background">
    <rect x="0" y="0" width="702.48" height="766.48" fill="#000000"/>
  </g>
  <g id="Background"/>
  <g id="Layer_1">
    <path d="M478.326,609.946 C475.472,612.564 473.678,616.296 473.678,620.458 C473.678,624.624 475.472,628.35 478.326,630.968 L469.452,646.246 C468.11,645.846 466.686,645.61 465.204,645.61 C458.358,645.61 452.634,650.376 451.188,656.756 L433.404,656.756 C432.178,650.102 426.322,645.042 419.262,645.042 C417.794,645.042 416.386,645.264 415.05,645.684 L406.376,630.754 C409.106,628.15 410.81,624.492 410.81,620.458 L410.81,619.896 C410.81,615.854 409.12,612.202 406.398,609.6 L414.668,595.378 C416.112,595.872 417.67,596.144 419.262,596.144 C426.122,596.144 431.832,591.38 433.292,585.014 L451.188,585.014 C452.634,591.38 458.358,596.144 465.204,596.144 C466.834,596.144 468.404,595.872 469.872,595.378 L478.326,609.946 z M39.376,529.8 L48.272,514.488 C49.586,514.886 50.994,515.122 52.462,515.122 C59.3,515.122 65.032,510.364 66.478,503.976 L84.372,503.976 C85.818,510.364 91.542,515.122 98.388,515.122 C99.87,515.122 101.294,514.886 102.63,514.488 L111.504,529.764 C109.548,531.548 108.102,533.872 107.388,536.492 C106.952,537.856 106.708,539.308 106.708,540.822 C106.708,544.93 108.464,548.626 111.244,551.222 L102.63,566.064 C101.294,565.664 99.87,565.428 98.388,565.428 C91.778,565.428 86.202,569.9 84.534,575.956 C84.462,576.154 84.424,576.36 84.372,576.574 L66.478,576.574 C65.032,570.194 59.3,565.428 52.462,565.428 C50.994,565.428 49.586,565.642 48.272,566.048 L39.376,550.772 C42.216,548.154 44.008,544.42 44.008,540.276 C44.008,536.13 42.216,532.404 39.376,529.8 z M52.462,644.496 C50.994,644.496 49.586,644.74 48.272,645.138 L39.376,629.84 C42.216,627.222 44.008,623.496 44.008,619.35 C44.008,615.206 42.216,611.472 39.376,608.876 L48.272,593.578 C49.586,593.984 50.994,594.198 52.462,594.198 C59.3,594.198 65.032,589.432 66.478,583.052 L84.13,583.052 C85.434,589.616 91.27,594.58 98.256,594.58 C99.834,594.58 101.368,594.308 102.792,593.836 L111.504,608.84 C109.548,610.64 108.102,612.948 107.388,615.566 C106.952,616.932 106.708,618.384 106.708,619.896 C106.708,624.006 108.464,627.694 111.244,630.312 L102.63,645.154 C101.294,644.74 99.87,644.496 98.388,644.496 C91.764,644.496 86.202,648.974 84.534,655.03 C84.462,655.23 84.424,655.428 84.372,655.65 L66.478,655.65 C65.032,649.284 59.3,644.496 52.462,644.496 z M121.092,684.506 C119.632,684.506 118.224,684.728 116.902,685.126 L108.006,669.834 C109.946,668.05 111.392,665.742 112.108,663.122 C112.55,661.78 112.786,660.32 112.786,658.814 C112.786,654.72 111.046,651.032 108.264,648.428 L116.902,633.572 C118.224,633.97 119.632,634.192 121.092,634.192 C127.716,634.192 133.294,629.736 134.96,623.68 C135.02,623.474 135.07,623.26 135.122,623.06 L153.002,623.06 C154.464,629.426 160.172,634.192 167.032,634.192 C168.5,634.192 169.924,633.97 171.282,633.55 L180.156,648.826 C177.278,651.446 175.486,655.192 175.486,659.338 C175.486,663.506 177.278,667.254 180.156,669.85 L171.296,685.112 C169.984,684.728 168.612,684.506 167.18,684.506 L167.032,684.506 C160.172,684.506 154.448,689.272 153.002,695.638 L135.122,695.638 C133.662,689.272 127.952,684.506 121.092,684.506 z M235.958,723.97 C229.098,723.97 223.388,728.736 221.928,735.102 L204.048,735.102 C202.602,728.736 196.878,723.97 190.018,723.97 C188.572,723.97 187.142,724.192 185.828,724.59 L176.932,709.276 C179.786,706.68 181.564,702.948 181.564,698.802 C181.564,694.656 179.786,690.946 176.932,688.328 L185.806,673.052 C187.09,673.434 188.462,673.656 189.87,673.656 C189.908,673.656 189.922,673.634 189.944,673.634 C189.98,673.634 189.996,673.656 190.018,673.656 C196.878,673.656 202.602,668.89 204.048,662.524 L221.928,662.524 C223.388,668.89 229.098,673.656 235.958,673.656 C237.426,673.656 238.872,673.434 240.208,673.014 L249.08,688.29 C246.226,690.91 244.412,694.642 244.412,698.802 C244.412,702.97 246.226,706.718 249.08,709.314 L240.208,724.612 C238.872,724.192 237.426,723.97 235.958,723.97 z M327.648,723.97 C320.788,723.97 315.078,728.736 313.632,735.102 L295.736,735.102 C294.276,728.736 288.544,723.97 281.7,723.97 C280.24,723.97 278.83,724.192 277.51,724.59 L268.622,709.276 C271.454,706.68 273.254,702.948 273.254,698.802 C273.254,694.656 271.454,690.946 268.622,688.328 L277.51,673.036 C278.83,673.434 280.24,673.656 281.7,673.656 C288.544,673.656 294.276,668.89 295.736,662.524 L313.632,662.524 C315.078,668.89 320.788,673.656 327.648,673.656 C329.108,673.656 330.538,673.434 331.888,673.014 L340.748,688.29 C337.908,690.91 336.1,694.642 336.1,698.802 C336.1,702.97 337.908,706.718 340.748,709.314 L331.888,724.612 C330.538,724.192 329.108,723.97 327.648,723.97 z M396.426,684.506 C389.566,684.506 383.856,689.272 382.388,695.638 L364.514,695.638 C363.07,689.272 357.344,684.506 350.484,684.506 C349.04,684.506 347.608,684.728 346.294,685.126 L337.398,669.834 C340.254,667.216 342.032,663.484 342.032,659.338 C342.032,655.192 340.232,651.482 337.398,648.864 L346.294,633.572 C347.608,633.97 349.04,634.192 350.484,634.192 C357.344,634.192 363.07,629.426 364.514,623.06 L382.284,623.06 C383.51,629.714 389.38,634.752 396.426,634.752 C397.908,634.752 399.332,634.532 400.688,634.118 L409.342,649.012 C406.598,651.63 404.878,655.282 404.878,659.338 C404.878,659.448 404.894,659.538 404.894,659.634 C404.894,659.722 404.878,659.81 404.878,659.922 C404.878,663.978 406.598,667.63 409.326,670.234 L400.666,685.148 C399.332,684.728 397.886,684.506 396.426,684.506 z M465.204,172.752 C458.358,172.752 452.634,177.518 451.188,183.882 L433.292,183.882 C431.846,177.518 426.122,172.752 419.262,172.752 C417.816,172.752 416.408,172.974 415.072,173.372 L406.198,158.08 C409.016,155.462 410.81,151.752 410.81,147.606 C410.81,143.46 409.016,139.728 406.198,137.108 L415.072,121.818 C416.408,122.216 417.816,122.438 419.262,122.438 C426.122,122.438 431.846,117.672 433.292,111.306 L451.188,111.306 C452.634,117.672 458.358,122.438 465.204,122.438 C466.686,122.438 468.11,122.216 469.452,121.796 L478.326,137.094 C475.472,139.69 473.678,143.438 473.678,147.606 C473.678,151.752 475.472,155.498 478.326,158.094 L469.452,173.394 C468.11,172.974 466.686,172.752 465.204,172.752 z M396.388,370.056 C389.544,370.056 383.818,374.8 382.374,381.188 L364.478,381.188 C363.032,374.8 357.308,370.056 350.462,370.056 L350.448,370.056 C348.98,370.056 347.594,370.256 346.258,370.654 L337.384,355.362 C340.216,352.758 342.01,349.034 342.01,344.888 C342.01,340.742 340.216,337.01 337.384,334.414 L346.272,319.1 C347.594,319.514 349.002,319.712 350.462,319.712 C357.308,319.712 363.032,314.97 364.478,308.588 L382.374,308.588 C383.818,314.97 389.544,319.712 396.388,319.712 L396.426,319.712 C397.886,319.712 399.316,319.498 400.638,319.1 L409.51,334.376 C406.656,336.996 404.864,340.72 404.864,344.888 C404.864,349.048 406.656,352.782 409.51,355.4 L400.638,370.676 C399.294,370.27 397.87,370.056 396.388,370.056 z M396.426,82.974 C397.886,82.974 399.332,82.752 400.666,82.332 L409.54,97.63 C406.694,100.226 404.878,103.974 404.878,108.142 C404.878,112.302 406.672,116.034 409.54,118.654 L400.666,133.93 C399.332,133.51 397.886,133.288 396.426,133.288 C389.566,133.288 383.856,138.054 382.388,144.418 L364.514,144.418 C363.07,138.054 357.344,133.288 350.484,133.288 C349.04,133.288 347.608,133.51 346.294,133.908 L337.398,118.616 C340.254,115.998 342.032,112.288 342.032,108.142 C342.032,103.996 340.232,100.264 337.398,97.668 L346.294,82.354 C347.608,82.752 349.016,82.974 350.462,82.974 L350.484,82.974 C357.344,82.974 363.07,78.208 364.514,71.842 L382.388,71.842 C383.856,78.208 389.566,82.974 396.426,82.974 z M409.562,197.58 L400.688,212.858 C399.332,212.438 397.908,212.202 396.426,212.202 C388.48,212.202 382.042,218.604 382.042,226.512 C382.042,234.404 388.48,240.806 396.426,240.806 C397.908,240.806 399.332,240.586 400.688,240.172 L409.562,255.45 C406.694,258.046 404.878,261.792 404.878,265.96 C404.878,270.142 406.694,273.868 409.562,276.508 L400.688,291.764 C399.332,291.342 397.908,291.128 396.426,291.128 L396.388,291.128 C389.544,291.128 383.818,295.894 382.374,302.274 L364.478,302.274 C363.032,295.894 357.308,291.128 350.462,291.128 C342.526,291.128 336.078,297.532 336.078,305.424 C336.078,309.606 337.878,313.332 340.748,315.95 L331.874,331.228 C330.516,330.806 329.094,330.592 327.61,330.592 L327.588,330.592 C320.75,330.592 315.018,335.358 313.574,341.724 L295.686,341.724 C294.218,335.358 288.508,330.592 281.648,330.592 C273.71,330.592 267.264,336.996 267.264,344.888 C267.264,349.048 269.078,352.796 271.948,355.414 L263.074,370.676 C261.738,370.27 260.316,370.056 258.848,370.056 L258.81,370.056 C257.35,370.056 255.956,370.256 254.62,370.654 L245.768,355.378 C248.602,352.758 250.394,349.034 250.394,344.888 C250.394,336.996 243.954,330.592 235.996,330.592 C229.158,330.592 223.426,335.358 221.98,341.724 L204.084,341.724 C202.638,335.358 196.93,330.592 190.07,330.592 L190.054,330.592 C188.586,330.592 187.164,330.806 185.842,331.212 L176.954,315.936 C179.808,313.318 181.58,309.584 181.58,305.424 C181.58,297.532 175.14,291.128 167.202,291.128 C160.358,291.128 154.634,295.894 153.188,302.274 L135.292,302.274 C133.846,295.894 128.114,291.128 121.254,291.128 L121.218,291.128 C119.736,291.128 118.326,291.342 116.992,291.748 L108.118,276.472 C110.958,273.854 112.764,270.12 112.764,265.96 C112.764,261.814 110.958,258.082 108.118,255.486 L116.992,240.188 C118.326,240.586 119.736,240.806 121.218,240.806 C129.162,240.806 135.602,234.404 135.602,226.512 C135.602,218.604 129.162,212.202 121.218,212.202 C119.736,212.202 118.326,212.438 116.992,212.836 L108.118,197.544 C110.958,194.94 112.764,191.216 112.764,187.048 C112.764,182.902 110.958,179.176 108.118,176.558 L116.992,161.26 C118.326,161.68 119.736,161.902 121.218,161.902 L121.254,161.902 C128.114,161.902 133.846,157.136 135.292,150.748 L153.188,150.748 C154.634,157.136 160.358,161.902 167.202,161.902 C175.14,161.902 181.58,155.498 181.58,147.606 C181.58,143.438 179.808,139.712 176.954,137.094 L185.828,121.818 C187.164,122.216 188.572,122.438 190.018,122.438 L190.054,122.438 C196.9,122.438 202.624,117.672 204.07,111.306 L221.928,111.306 C223.388,117.672 229.098,122.438 235.958,122.438 C243.902,122.438 250.342,116.034 250.342,108.142 C250.342,103.974 248.55,100.248 245.71,97.646 L254.584,82.354 C255.926,82.752 257.336,82.974 258.796,82.974 L258.832,82.974 C260.316,82.974 261.738,82.752 263.096,82.332 L271.97,97.608 C269.094,100.226 267.286,103.96 267.286,108.142 C267.286,116.034 273.726,122.438 281.684,122.438 C288.53,122.438 294.254,117.672 295.7,111.306 L313.596,111.306 C315.042,117.672 320.766,122.438 327.61,122.438 L327.648,122.438 C329.13,122.438 330.554,122.216 331.91,121.796 L340.762,137.072 C337.908,139.69 336.1,143.424 336.1,147.606 C336.1,155.498 342.54,161.902 350.484,161.902 C357.344,161.902 363.07,157.136 364.514,150.748 L382.388,150.748 C383.856,157.136 389.566,161.902 396.426,161.902 C397.908,161.902 399.332,161.68 400.688,161.26 L409.562,176.522 C406.694,179.14 404.878,182.888 404.878,187.048 C404.878,191.23 406.694,194.962 409.562,197.58 z M235.996,409.498 C229.158,409.498 223.426,414.264 221.98,420.63 L204.084,420.63 C202.638,414.264 196.93,409.498 190.07,409.498 C188.608,409.498 187.2,409.72 185.88,410.118 L176.992,394.826 C179.824,392.208 181.616,388.498 181.616,384.352 C181.616,380.2 179.824,376.474 176.992,373.878 L185.88,358.564 C187.2,358.962 188.608,359.176 190.054,359.176 L190.07,359.176 C196.93,359.176 202.638,354.434 204.084,348.052 L221.98,348.052 C223.426,354.434 229.158,359.176 235.996,359.176 C237.478,359.176 238.908,358.962 240.244,358.564 L249.118,373.804 C246.226,376.422 244.412,380.17 244.412,384.352 C244.412,388.534 246.226,392.26 249.118,394.878 L240.244,410.14 C238.908,409.72 237.478,409.498 235.996,409.498 z M281.648,409.498 C280.202,409.498 278.794,409.72 277.458,410.118 L268.584,394.842 C271.438,392.246 273.254,388.512 273.254,384.352 C273.254,380.184 271.438,376.46 268.584,373.84 L277.458,358.564 C278.794,358.962 280.202,359.176 281.648,359.176 C288.508,359.176 294.218,354.434 295.686,348.052 L313.574,348.052 C315.018,354.434 320.75,359.176 327.588,359.176 L327.61,359.176 C329.094,359.176 330.502,358.962 331.838,358.564 L340.712,373.84 C337.856,376.46 336.064,380.184 336.064,384.352 C336.064,388.512 337.856,392.246 340.712,394.864 L331.838,410.14 C330.502,409.72 329.094,409.498 327.61,409.498 L327.588,409.498 C320.75,409.498 315.018,414.264 313.574,420.63 L295.686,420.63 C294.218,414.264 288.508,409.498 281.648,409.498 z M419.262,43.524 C426.122,43.524 431.846,38.758 433.292,32.378 L451.188,32.378 C452.634,38.758 458.358,43.524 465.204,43.524 C466.686,43.524 468.11,43.288 469.452,42.89 L478.326,58.166 C475.472,60.784 473.678,64.51 473.678,68.678 C473.678,72.838 475.472,76.57 478.326,79.19 L469.452,94.466 C468.11,94.068 466.686,93.846 465.204,93.846 C458.358,93.846 452.634,98.59 451.188,104.978 L433.292,104.978 C431.832,98.59 426.122,93.846 419.262,93.846 C417.816,93.846 416.408,94.046 415.072,94.466 L406.198,79.152 C409.016,76.548 410.81,72.824 410.81,68.678 C410.81,64.532 409.016,60.8 406.198,58.204 L415.072,42.89 C416.408,43.288 417.816,43.524 419.262,43.524 z M281.684,43.524 C288.53,43.524 294.254,38.758 295.7,32.378 L313.596,32.378 C315.042,38.758 320.766,43.524 327.61,43.524 C329.094,43.524 330.516,43.288 331.852,42.89 L340.726,58.166 C337.878,60.784 336.078,64.51 336.078,68.678 C336.078,72.838 337.878,76.57 340.726,79.19 L331.852,94.466 C330.516,94.046 329.108,93.846 327.648,93.846 L327.61,93.846 C320.766,93.846 315.042,98.59 313.596,104.978 L295.7,104.978 C294.254,98.59 288.53,93.846 281.684,93.846 C280.224,93.846 278.816,94.046 277.48,94.466 L268.6,79.152 C271.438,76.548 273.232,72.824 273.232,68.678 C273.232,64.532 271.438,60.8 268.6,58.204 L277.48,42.89 C278.816,43.288 280.224,43.524 281.684,43.524 z M190.018,43.524 C196.878,43.524 202.602,38.758 204.048,32.378 L221.944,32.378 C223.388,38.758 229.098,43.524 235.958,43.524 C237.426,43.524 238.872,43.288 240.208,42.89 L249.08,58.166 C246.226,60.784 244.412,64.51 244.412,68.678 C244.412,72.838 246.226,76.57 249.08,79.19 L240.208,94.466 C238.872,94.068 237.426,93.846 235.958,93.846 C229.098,93.846 223.388,98.59 221.944,104.978 L204.07,104.978 C202.624,98.59 196.9,93.846 190.054,93.846 L190.018,93.846 C188.572,93.846 187.164,94.046 185.828,94.444 L176.954,79.168 C179.808,76.548 181.58,72.824 181.58,68.678 C181.58,64.51 179.808,60.784 176.954,58.182 L185.828,42.89 C187.142,43.288 188.572,43.524 190.018,43.524 z M121.254,82.974 C128.114,82.974 133.846,78.208 135.292,71.842 L153.166,71.842 C154.612,78.208 160.32,82.974 167.18,82.974 L167.202,82.974 C168.686,82.974 170.094,82.752 171.444,82.354 L180.304,97.608 C177.448,100.226 175.634,103.96 175.634,108.142 C175.634,112.302 177.448,116.05 180.304,118.668 L171.444,133.93 C170.108,133.51 168.686,133.288 167.202,133.288 C160.358,133.288 154.634,138.054 153.166,144.418 L135.292,144.418 C133.846,138.054 128.114,133.288 121.254,133.288 L121.218,133.288 C119.772,133.288 118.386,133.51 117.064,133.908 L108.192,118.616 C111.032,115.998 112.802,112.288 112.802,108.142 C112.802,103.996 111.032,100.264 108.192,97.668 L117.064,82.354 C118.4,82.752 119.808,82.974 121.254,82.974 z M39.34,137.108 L48.236,121.818 C49.57,122.216 50.98,122.438 52.44,122.438 C59.286,122.438 65.01,117.672 66.456,111.306 L84.35,111.306 C85.796,117.672 91.506,122.438 98.366,122.438 L98.424,122.438 C99.886,122.438 101.294,122.216 102.614,121.818 L111.488,137.094 C108.634,139.69 106.82,143.438 106.82,147.606 C106.82,151.752 108.634,155.498 111.488,158.094 L102.614,173.394 C101.28,172.974 99.848,172.752 98.366,172.752 C91.506,172.752 85.796,177.518 84.35,183.882 L66.456,183.882 C65.01,177.518 59.286,172.752 52.44,172.752 C50.98,172.752 49.57,172.974 48.236,173.372 L39.34,158.08 C42.194,155.462 43.972,151.752 43.972,147.606 C43.972,143.46 42.194,139.728 39.34,137.108 z M39.34,216.022 L48.236,200.746 C49.57,201.122 50.98,201.366 52.44,201.366 C59.286,201.366 65.01,196.578 66.456,190.212 L84.35,190.212 C85.796,196.578 91.506,201.366 98.366,201.366 C99.848,201.366 101.28,201.122 102.614,200.724 L111.488,216 C108.634,218.604 106.82,222.35 106.82,226.512 C106.82,230.678 108.634,234.404 111.488,237.022 L102.614,252.3 C101.28,251.902 99.848,251.664 98.366,251.664 C91.506,251.664 85.796,256.43 84.35,262.81 L66.456,262.81 C65.01,256.43 59.286,251.664 52.44,251.664 C50.98,251.664 49.57,251.902 48.236,252.284 L39.34,236.986 C42.194,234.39 43.972,230.656 43.972,226.512 C43.972,222.366 42.194,218.64 39.34,216.022 z M52.44,330.592 C50.98,330.592 49.57,330.806 48.236,331.212 L39.34,315.914 C42.194,313.296 43.972,309.57 43.972,305.424 C43.972,301.278 42.194,297.568 39.34,294.95 L48.236,279.652 C49.57,280.05 50.98,280.27 52.44,280.27 C59.286,280.27 65.01,275.506 66.456,269.14 L84.35,269.14 C85.796,275.506 91.506,280.27 98.366,280.27 C99.848,280.27 101.28,280.05 102.614,279.636 L111.488,294.912 C108.634,297.532 106.82,301.256 106.82,305.424 C106.82,309.584 108.634,313.332 111.488,315.936 L102.614,331.212 C101.294,330.806 99.886,330.592 98.424,330.592 L98.366,330.592 C91.506,330.592 85.796,335.358 84.35,341.724 L66.456,341.724 C65.01,335.358 59.286,330.592 52.44,330.592 z M121.254,370.056 C119.808,370.056 118.4,370.27 117.064,370.676 L108.192,355.362 C111.032,352.758 112.802,349.034 112.802,344.888 C112.802,340.742 111.032,337.01 108.192,334.414 L117.064,319.116 C118.386,319.514 119.772,319.712 121.218,319.712 L121.254,319.712 C128.114,319.712 133.846,314.97 135.292,308.588 L153.166,308.588 C154.634,314.97 160.358,319.712 167.202,319.712 C168.686,319.712 170.108,319.498 171.444,319.1 L180.318,334.376 C177.464,336.996 175.656,340.72 175.656,344.888 C175.656,349.048 177.464,352.782 180.318,355.4 L171.444,370.676 C170.108,370.27 168.7,370.056 167.218,370.056 L167.202,370.056 C160.358,370.056 154.634,374.8 153.166,381.188 L135.292,381.188 C133.846,374.8 128.114,370.056 121.254,370.056 z M404.864,423.816 C404.864,424.03 404.878,424.266 404.894,424.488 C404.894,424.54 404.878,424.598 404.878,424.664 C404.878,428.648 406.546,432.27 409.194,434.874 L400.638,449.604 C399.294,449.184 397.87,448.962 396.388,448.962 C389.544,448.962 383.818,453.728 382.374,460.094 L364.478,460.094 C363.032,453.728 357.308,448.962 350.462,448.962 C349.002,448.962 347.594,449.184 346.272,449.582 L337.384,434.29 C340.216,431.672 342.01,427.962 342.01,423.816 C342.01,419.664 340.216,415.938 337.384,413.32 L346.258,398.028 C347.594,398.426 348.98,398.64 350.448,398.64 L350.462,398.64 C357.308,398.64 363.032,393.876 364.478,387.516 L382.374,387.516 C383.818,393.876 389.544,398.64 396.388,398.64 C397.87,398.64 399.294,398.426 400.638,398.006 L409.51,413.304 C406.656,415.902 404.864,419.648 404.864,423.816 z M478.326,552.896 L469.872,567.48 C468.404,566.97 466.834,566.698 465.204,566.698 C458.358,566.698 452.634,571.462 451.188,577.828 L433.292,577.828 C431.846,571.462 426.122,566.698 419.262,566.698 C417.67,566.698 416.112,566.97 414.668,567.464 L406.198,552.882 C409.016,550.262 410.81,546.53 410.81,542.384 C410.81,538.24 409.016,534.53 406.198,531.91 L414.756,517.142 C416.186,517.614 417.706,517.874 419.262,517.874 C426.122,517.874 431.832,513.108 433.292,506.742 L451.188,506.742 C452.634,513.108 458.358,517.874 465.204,517.874 C466.796,517.874 468.33,517.6 469.762,517.128 L478.326,531.874 C475.472,534.492 473.678,538.224 473.678,542.384 C473.678,546.552 475.472,550.3 478.326,552.896 z M465.204,438.96 C466.686,438.96 468.11,438.724 469.452,438.326 L478.082,453.182 C475.36,455.786 473.678,459.436 473.678,463.48 C473.678,463.582 473.678,463.694 473.694,463.79 C473.678,463.892 473.678,464.002 473.678,464.114 C473.678,468.17 475.36,471.808 478.082,474.404 L469.452,489.268 C468.11,488.846 466.686,488.626 465.204,488.626 C458.358,488.626 452.634,493.39 451.188,499.756 L433.292,499.756 C431.846,493.39 426.122,488.626 419.262,488.626 C417.816,488.626 416.408,488.846 415.072,489.246 L406.436,474.366 C409.12,471.77 410.81,468.148 410.81,464.114 L410.81,463.48 C410.81,462.934 410.772,462.388 410.714,461.856 C410.388,458.442 408.832,455.366 406.508,453.094 L415.072,438.326 C416.408,438.724 417.816,438.96 419.262,438.96 C426.122,438.96 431.846,434.194 433.292,427.814 L451.188,427.814 C452.634,434.194 458.358,438.96 465.204,438.96 z M478.326,315.936 L469.452,331.228 C468.11,330.806 466.686,330.592 465.204,330.592 C458.358,330.592 452.634,335.358 451.188,341.724 L433.292,341.724 C431.846,335.358 426.122,330.592 419.262,330.592 L419.24,330.592 C417.794,330.592 416.386,330.806 415.072,331.212 L406.198,315.914 C409.016,313.296 410.81,309.57 410.81,305.424 C410.81,301.278 409.016,297.568 406.198,294.95 L415.072,279.652 C416.408,280.05 417.816,280.27 419.262,280.27 C426.122,280.27 431.846,275.506 433.292,269.14 L451.188,269.14 C452.634,275.506 458.358,280.27 465.204,280.27 C466.686,280.27 468.11,280.05 469.452,279.636 L478.326,294.912 C475.472,297.532 473.678,301.256 473.678,305.424 C473.678,309.584 475.472,313.332 478.326,315.936 z M478.326,237.022 L469.452,252.3 C468.11,251.902 466.686,251.664 465.204,251.664 C458.358,251.664 452.634,256.43 451.188,262.81 L433.292,262.81 C431.846,256.43 426.122,251.664 419.262,251.664 C417.816,251.664 416.408,251.902 415.072,252.284 L406.198,236.986 C409.016,234.39 410.81,230.656 410.81,226.512 C410.81,222.366 409.016,218.64 406.198,216.022 L415.072,200.746 C416.408,201.122 417.816,201.366 419.262,201.366 C426.122,201.366 431.846,196.578 433.292,190.212 L451.188,190.212 C452.634,196.578 458.358,201.366 465.204,201.366 C466.686,201.366 468.11,201.122 469.452,200.724 L478.326,216 C475.472,218.604 473.678,222.35 473.678,226.512 C473.678,230.678 475.472,234.404 478.326,237.022 z M488.056,161.902 C496,161.902 502.44,155.498 502.44,147.606 C502.44,139.69 496,133.288 488.056,133.288 C486.594,133.288 485.186,133.51 483.828,133.93 L474.954,118.63 C477.81,116.012 479.588,112.288 479.588,108.142 C479.588,103.974 477.81,100.248 474.954,97.646 L483.828,82.354 C485.186,82.752 486.594,82.974 488.056,82.974 C496,82.974 502.44,76.57 502.44,68.678 C502.44,60.784 496,54.382 488.056,54.382 C486.594,54.382 485.186,54.604 483.828,55.002 L474.954,39.726 C477.81,37.084 479.588,33.36 479.588,29.214 C479.588,21.322 473.148,14.918 465.204,14.918 C458.358,14.918 452.634,19.684 451.188,26.064 L433.292,26.064 C431.846,19.684 426.122,14.918 419.262,14.918 C411.318,14.918 404.878,21.322 404.878,29.214 C404.878,33.374 406.694,37.122 409.562,39.74 L400.688,55.016 C399.31,54.596 397.87,54.382 396.426,54.382 C389.566,54.382 383.856,59.126 382.388,65.514 L364.514,65.514 C363.07,59.126 357.344,54.382 350.484,54.382 L350.462,54.382 C349.002,54.382 347.572,54.604 346.258,55.002 L337.362,39.726 C340.216,37.084 342.01,33.374 342.01,29.214 C342.01,21.322 335.57,14.918 327.61,14.918 C320.766,14.918 315.042,19.684 313.596,26.064 L295.7,26.064 C294.254,19.684 288.53,14.918 281.684,14.918 C273.726,14.918 267.286,21.322 267.286,29.214 C267.286,33.374 269.094,37.122 271.97,39.74 L263.096,55.016 C261.716,54.596 260.278,54.382 258.832,54.382 L258.796,54.382 C257.336,54.382 255.926,54.604 254.584,55.002 L245.71,39.726 C248.55,37.084 250.342,33.374 250.342,29.214 C250.342,21.322 243.902,14.918 235.958,14.918 C229.098,14.918 223.388,19.684 221.928,26.064 L204.048,26.064 C202.602,19.684 196.878,14.918 190.018,14.918 C182.074,14.918 175.634,21.322 175.634,29.214 C175.634,33.374 177.448,37.122 180.304,39.74 L171.444,55.002 C170.094,54.604 168.686,54.382 167.202,54.382 L167.18,54.382 C160.32,54.382 154.612,59.126 153.166,65.514 L135.292,65.514 C133.846,59.126 128.114,54.382 121.254,54.382 C113.318,54.382 106.878,60.784 106.878,68.678 C106.878,72.838 108.686,76.586 111.562,79.204 L102.688,94.466 C101.332,94.068 99.908,93.846 98.424,93.846 L98.366,93.846 C91.506,93.846 85.796,98.59 84.35,104.978 L66.456,104.978 C65.01,98.59 59.286,93.846 52.44,93.846 C44.48,93.846 38.042,100.248 38.042,108.142 C38.042,112.302 39.856,116.05 42.71,118.654 L33.852,133.93 C32.502,133.51 31.07,133.288 29.588,133.288 C21.65,133.288 15.19,139.69 15.19,147.606 C15.19,155.498 21.65,161.902 29.588,161.902 C31.07,161.902 32.502,161.68 33.852,161.26 L42.71,176.522 C39.856,179.14 38.042,182.888 38.042,187.048 C38.042,191.23 39.856,194.962 42.71,197.58 L33.852,212.858 C32.502,212.438 31.07,212.202 29.588,212.202 C21.65,212.202 15.19,218.604 15.19,226.512 C15.19,234.404 21.65,240.806 29.588,240.806 C31.07,240.806 32.502,240.586 33.852,240.172 L42.71,255.45 C39.856,258.046 38.042,261.792 38.042,265.96 C38.042,270.142 39.856,273.868 42.71,276.508 L33.852,291.764 C32.502,291.342 31.07,291.128 29.588,291.128 C21.65,291.128 15.19,297.532 15.19,305.424 C15.19,313.318 21.65,319.712 29.588,319.712 C31.07,319.712 32.502,319.498 33.852,319.078 L42.71,334.354 C39.856,336.974 38.042,340.72 38.042,344.888 C38.042,352.782 44.48,359.176 52.44,359.176 C59.286,359.176 65.01,354.434 66.456,348.052 L84.35,348.052 C85.796,354.434 91.506,359.176 98.366,359.176 L98.424,359.176 C99.908,359.176 101.332,358.962 102.688,358.542 L111.562,373.818 C108.686,376.438 106.878,380.184 106.878,384.352 C106.878,392.246 113.318,398.64 121.254,398.64 C128.114,398.64 133.846,393.876 135.292,387.516 L153.188,387.516 C154.634,393.876 160.358,398.64 167.202,398.64 L167.218,398.64 C168.7,398.64 170.146,398.426 171.48,398.006 L180.354,413.282 C177.5,415.902 175.67,419.634 175.67,423.816 C175.67,431.708 182.132,438.104 190.07,438.104 C196.93,438.104 202.638,433.34 204.084,426.958 L221.98,426.958 C223.426,433.34 229.158,438.104 235.996,438.104 C243.954,438.104 250.394,431.708 250.394,423.816 C250.394,419.648 248.602,415.924 245.768,413.304 L254.62,398.028 C255.956,398.426 257.35,398.64 258.81,398.64 L258.848,398.64 C260.316,398.64 261.738,398.426 263.074,398.028 L271.948,413.282 C269.078,415.902 267.264,419.634 267.264,423.816 C267.264,431.708 273.71,438.104 281.648,438.104 C288.508,438.104 294.218,433.34 295.686,426.958 L313.574,426.958 C315.018,433.34 320.75,438.104 327.588,438.104 L327.61,438.104 C329.094,438.104 330.516,437.89 331.874,437.47 L340.748,452.732 C337.878,455.35 336.078,459.09 336.078,463.258 C336.078,471.172 342.526,477.568 350.462,477.568 C357.308,477.568 363.032,472.788 364.478,466.422 L382.248,466.422 C383.362,473.224 389.27,478.424 396.426,478.424 C397.908,478.424 399.332,478.188 400.688,477.768 L409.304,492.63 C406.598,495.228 404.878,498.886 404.878,502.944 C404.878,503.046 404.894,503.142 404.894,503.252 C404.894,503.356 404.878,503.466 404.878,503.578 C404.878,507.634 406.582,511.272 409.304,513.868 L400.688,528.732 C399.332,528.31 397.908,528.09 396.426,528.09 C388.48,528.09 382.042,534.492 382.042,542.384 C382.042,550.3 388.48,556.696 396.426,556.696 C397.908,556.696 399.332,556.46 400.688,556.06 L409.23,570.776 C406.56,573.358 404.878,576.996 404.878,580.994 C404.878,581.14 404.894,581.288 404.894,581.428 C404.894,581.562 404.878,581.702 404.878,581.848 C404.878,585.87 406.56,589.49 409.23,592.088 L400.946,606.332 C399.538,605.852 397.996,605.578 396.426,605.578 C389.566,605.578 383.856,610.344 382.388,616.732 L364.514,616.732 C363.07,610.344 357.344,605.578 350.484,605.578 C342.54,605.578 336.1,611.982 336.1,619.896 C336.1,624.056 337.908,627.804 340.762,630.408 L331.91,645.684 C330.554,645.264 329.13,645.042 327.648,645.042 C320.788,645.042 315.078,649.808 313.632,656.174 L295.736,656.174 C294.276,649.808 288.544,645.042 281.7,645.042 C273.762,645.042 267.322,651.446 267.322,659.338 C267.322,663.52 269.116,667.254 271.984,669.872 L263.11,685.148 C261.776,684.728 260.33,684.506 258.848,684.506 L258.796,684.506 C257.336,684.506 255.926,684.728 254.584,685.126 L245.71,669.834 C248.55,667.232 250.342,663.506 250.342,659.338 C250.342,651.446 243.902,645.042 235.958,645.042 C229.098,645.042 223.388,649.808 221.944,656.174 L204.048,656.174 C202.602,649.808 196.878,645.042 190.018,645.042 L189.87,645.042 C188.41,645.042 187,645.264 185.666,645.684 L176.784,630.386 C179.624,627.768 181.416,624.042 181.416,619.896 C181.416,611.982 174.978,605.578 167.032,605.578 C160.172,605.578 154.448,610.344 153.002,616.732 L135.38,616.732 C134.142,610.094 128.284,605.056 121.24,605.056 C119.772,605.056 118.364,605.276 117.028,605.674 L108.228,590.56 C109.71,589.144 110.862,587.432 111.614,585.522 C112.366,583.796 112.786,581.886 112.786,579.902 C112.786,579.864 112.764,579.85 112.764,579.812 C112.764,579.79 112.786,579.762 112.786,579.74 C112.786,575.578 110.994,571.846 108.154,569.25 L116.74,554.446 C118.112,554.88 119.572,555.116 121.092,555.116 C127.716,555.116 133.294,550.662 134.96,544.606 C135.38,543.24 135.638,541.788 135.638,540.276 C135.638,532.382 129.178,525.98 121.24,525.98 C119.772,525.98 118.364,526.202 117.028,526.6 L108.14,511.308 C110.994,508.704 112.786,504.98 112.786,500.834 C112.786,492.918 106.346,486.516 98.388,486.516 C91.542,486.516 85.818,491.282 84.372,497.646 L66.478,497.646 C65.032,491.282 59.3,486.516 52.462,486.516 C44.518,486.516 38.064,492.918 38.064,500.834 C38.064,504.994 39.87,508.742 42.748,511.344 L33.874,526.622 C32.516,526.202 31.092,525.98 29.61,525.98 C21.666,525.98 15.226,532.382 15.226,540.276 C15.226,548.19 21.666,554.586 29.61,554.586 C31.092,554.586 32.516,554.35 33.874,553.936 L42.748,569.214 C39.87,571.832 38.064,575.556 38.064,579.74 C38.064,579.762 38.078,579.79 38.078,579.812 C38.078,579.85 38.064,579.864 38.064,579.902 C38.064,584.07 39.87,587.794 42.748,590.412 L33.874,605.69 C32.494,605.27 31.056,605.056 29.61,605.056 C21.666,605.056 15.226,611.458 15.226,619.35 C15.226,627.258 21.666,633.66 29.61,633.66 C31.092,633.66 32.516,633.424 33.874,633.026 L42.748,648.282 C39.87,650.9 38.064,654.646 38.064,658.814 C38.064,666.708 44.518,673.11 52.462,673.11 C59.3,673.11 65.032,668.344 66.478,661.98 L84.114,661.98 C85.362,668.618 91.21,673.656 98.256,673.656 C99.738,673.656 101.168,673.434 102.504,673.014 L111.378,688.29 C108.524,690.894 106.708,694.642 106.708,698.802 C106.708,706.696 113.148,713.098 121.092,713.098 C127.952,713.098 133.662,708.354 135.122,701.966 L153.002,701.966 C154.448,708.354 160.172,713.098 167.032,713.098 L167.18,713.098 C168.664,713.098 170.094,712.876 171.444,712.464 L180.304,727.74 C177.448,730.358 175.634,734.106 175.634,738.266 C175.634,746.158 182.074,752.562 190.018,752.562 C196.878,752.562 202.602,747.818 204.048,741.43 L221.944,741.43 C223.388,747.818 229.098,752.562 235.958,752.562 C243.902,752.562 250.342,746.158 250.342,738.266 C250.342,734.12 248.55,730.396 245.71,727.776 L254.584,712.478 C255.926,712.876 257.336,713.098 258.796,713.098 L258.848,713.098 C260.33,713.098 261.776,712.876 263.11,712.464 L271.984,727.74 C269.116,730.358 267.322,734.106 267.322,738.266 C267.322,746.158 273.762,752.562 281.7,752.562 C288.544,752.562 294.276,747.818 295.736,741.43 L313.632,741.43 C315.078,747.818 320.788,752.562 327.648,752.562 C335.584,752.562 342.032,746.158 342.032,738.266 C342.032,734.12 340.232,730.396 337.384,727.776 L346.272,712.478 C347.608,712.876 349.016,713.098 350.484,713.098 C357.344,713.098 363.07,708.354 364.514,701.966 L382.388,701.966 C383.856,708.354 389.566,713.098 396.426,713.098 C404.37,713.098 410.81,706.696 410.81,698.802 C410.81,694.656 409.016,690.932 406.176,688.312 L414.778,673.486 C416.186,673.958 417.706,674.216 419.262,674.216 C426.122,674.216 431.846,669.452 433.292,663.07 L451.188,663.07 C452.634,669.452 458.358,674.216 465.204,674.216 C473.148,674.216 479.588,667.814 479.588,659.922 C479.588,655.76 477.81,652.028 474.954,649.41 L483.828,634.134 C485.186,634.532 486.594,634.752 488.056,634.752 C496,634.752 502.44,628.35 502.44,620.458 C502.44,612.564 496,606.162 488.056,606.162 C486.594,606.162 485.186,606.382 483.828,606.782 L475.286,592.05 C477.934,589.454 479.588,585.846 479.588,581.848 C479.588,581.702 479.566,581.562 479.566,581.428 C479.566,581.288 479.588,581.14 479.588,580.994 C479.588,576.996 477.934,573.396 475.286,570.792 L483.828,556.06 C485.186,556.482 486.594,556.696 488.056,556.696 C496,556.696 502.44,550.3 502.44,542.384 C502.44,534.492 496,528.09 488.056,528.09 C486.594,528.09 485.186,528.31 483.828,528.71 L475.212,513.852 C477.906,511.25 479.588,507.612 479.588,503.578 C479.588,503.466 479.588,503.356 479.566,503.252 C479.588,503.142 479.588,503.046 479.588,502.944 C479.588,498.9 477.906,495.264 475.212,492.668 L483.828,477.79 C485.186,478.188 486.594,478.424 488.056,478.424 C496,478.424 502.44,472.022 502.44,464.114 C502.44,464.002 502.418,463.892 502.418,463.79 C502.418,463.694 502.44,463.582 502.44,463.48 C502.44,455.586 496,449.184 488.056,449.184 C486.594,449.184 485.186,449.398 483.828,449.804 L475.212,434.926 C477.906,432.322 479.588,428.684 479.588,424.664 C479.588,424.562 479.588,424.45 479.566,424.34 C479.588,424.23 479.588,424.118 479.588,424.016 C479.588,416.122 473.148,409.72 465.204,409.72 C458.358,409.72 452.634,414.462 451.188,420.85 L433.33,420.85 C431.958,414.374 426.174,409.498 419.24,409.498 C417.78,409.498 416.372,409.72 415.036,410.14 L406.14,394.842 C408.994,392.222 410.788,388.498 410.788,384.352 C410.788,380.184 408.994,376.474 406.14,373.856 L415.036,358.564 C416.372,358.962 417.78,359.176 419.24,359.176 L419.262,359.176 C426.122,359.176 431.832,354.434 433.292,348.052 L451.188,348.052 C452.634,354.434 458.358,359.176 465.204,359.176 C473.148,359.176 479.588,352.782 479.588,344.888 C479.588,340.742 477.81,337.01 474.954,334.392 L483.828,319.1 C485.186,319.498 486.594,319.712 488.056,319.712 C496,319.712 502.44,313.318 502.44,305.424 C502.44,297.532 496,291.128 488.056,291.128 C486.594,291.128 485.186,291.342 483.828,291.748 L474.954,276.472 C477.81,273.854 479.588,270.12 479.588,265.96 C479.588,261.814 477.81,258.082 474.954,255.486 L483.828,240.188 C485.186,240.586 486.594,240.806 488.056,240.806 C496,240.806 502.44,234.404 502.44,226.512 C502.44,218.604 496,212.202 488.056,212.202 C486.594,212.202 485.186,212.438 483.828,212.836 L474.954,197.544 C477.81,194.94 479.588,191.216 479.588,187.048 C479.588,182.902 477.81,179.176 474.954,176.558 L483.828,161.26 C485.186,161.68 486.594,161.902 488.056,161.902 z" fill="#DD2A7C"/>
    <path d="M641.244,711.848 L641.244,678.516 L682.892,678.516 Q685.622,685.034 686.956,692.42 Q688.29,699.806 688.29,708.124 Q688.29,722.584 682.8,732.484 Q677.306,742.386 666.878,747.472 Q656.452,752.562 641.804,752.562 Q628.15,752.562 617.536,747.006 Q606.922,741.452 600.902,731.088 Q594.882,720.722 594.882,706.262 Q594.882,698.814 596.246,692.204 Q597.612,685.594 600.344,679.636 L606.054,682.18 Q603.322,688.076 601.956,694.19 Q600.592,700.304 600.592,706.572 Q600.592,718.862 605.836,727.706 Q611.08,736.55 620.36,741.236 Q629.638,745.922 641.742,745.922 Q655.458,745.922 664.522,741.392 Q673.582,736.86 678.112,728.138 Q682.644,719.418 682.644,706.944 Q682.644,700.118 681.65,694.686 Q680.656,689.254 679.044,684.85 L647.078,684.85 L647.078,711.848 z M596.31,599.384 Q596.31,588.584 598.666,581.354 Q601.026,574.124 606.426,570.464 Q611.826,566.8 621.01,566.8 Q627.9,566.8 632.834,569.314 Q637.77,571.828 640.934,576.234 Q644.1,580.64 645.778,586.414 L687.05,561.526 L687.05,569.096 L647.578,592.498 L647.578,615.026 L687.05,615.026 L687.05,621.418 L596.31,621.418 z M601.956,600.006 L601.956,615.026 L641.928,615.026 L641.928,596.964 Q641.928,585.854 636.59,579.618 Q631.254,573.38 621.26,573.38 Q610.274,573.38 606.116,579.958 Q601.956,586.538 601.956,600.006 z M687.05,454.774 L654.962,467.124 L654.962,505.232 L687.05,517.832 L687.05,524.35 L596,488.662 L596,482.828 L687.05,448.07 z M649.188,469.174 L615.178,481.708 Q613.874,482.208 611.826,482.92 Q609.776,483.634 607.48,484.408 Q605.186,485.186 603.136,485.932 Q605.31,486.552 607.48,487.296 Q609.654,488.042 611.67,488.724 Q613.688,489.406 615.3,490.028 L649.188,503.062 z M687.05,361.614 L603.26,394.944 L603.26,395.256 Q605.556,395.13 608.07,395.036 Q610.584,394.944 613.316,394.882 Q616.046,394.82 619.026,394.82 L687.05,394.82 L687.05,400.902 L596.31,400.902 L596.31,391.22 L677.12,359.068 L677.12,358.698 L596.31,326.3 L596.31,316.866 L687.05,316.866 L687.05,323.132 L618.28,323.132 Q615.86,323.132 613.316,323.07 Q610.77,323.01 608.256,322.916 Q605.744,322.822 603.386,322.7 L603.386,323.07 L687.05,356.524 z M687.05,256.848 L596.31,256.848 L596.31,250.456 L687.05,250.456 z M687.05,124.464 L687.05,130.98 L606.8,184.606 L606.8,184.916 Q610.15,184.79 613.594,184.7 Q617.04,184.606 620.67,184.514 Q624.3,184.42 628.15,184.42 L687.05,184.42 L687.05,190.504 L596.31,190.504 L596.31,183.924 L676.312,130.484 L676.312,130.174 Q673.582,130.234 669.982,130.328 Q666.382,130.422 662.596,130.514 Q658.812,130.608 655.458,130.608 L596.31,130.608 L596.31,124.464 z M687.05,14.918 L687.05,64.51 L596.31,64.51 L596.31,14.918 L602.082,14.918 L602.082,58.116 L636.468,58.116 L636.468,17.338 L642.238,17.338 L642.238,58.116 L681.276,58.116 L681.276,14.918 z" fill="#FFFFFF"/>
  </g>
</svg>
