<?xml version="1.0" encoding="UTF-8"?>
<!DOCTYPE svg PUBLIC "-//W3C//DTD SVG 1.1//EN" "http://www.w3.org/Graphics/SVG/1.1/DTD/svg11.dtd">
<svg version="1.1" xmlns="http://www.w3.org/2000/svg" xmlns:xlink="http://www.w3.org/1999/xlink" x="0" y="0" width="500" height="500" viewBox="0, 0, 500, 500">
  <g id="Background">
    <rect x="0" y="0" width="500" height="500" fill="#000000" fill-opacity="0"/>
  </g>
  <g id="Layer_1">
    <path d="M0,0 L500,0 L500,500 L0,500 z" fill="#FFFFFF"/>
    <g>
      <path d="M313.293,363.103 C311.866,364.412 310.969,366.278 310.969,368.359 C310.969,370.442 311.866,372.305 313.293,373.614 L308.856,381.253 C308.185,381.053 307.473,380.935 306.732,380.935 C303.309,380.935 300.447,383.318 299.724,386.508 L290.832,386.508 C290.219,383.181 287.291,380.651 283.761,380.651 C283.027,380.651 282.323,380.762 281.655,380.972 L277.318,373.507 C278.683,372.205 279.535,370.376 279.535,368.359 L279.535,368.078 C279.535,366.057 278.69,364.231 277.329,362.93 L281.464,355.819 C282.186,356.066 282.965,356.202 283.761,356.202 C287.191,356.202 290.046,353.82 290.776,350.637 L299.724,350.637 C300.447,353.82 303.309,356.202 306.732,356.202 C307.547,356.202 308.332,356.066 309.066,355.819 L313.293,363.103 z M93.818,323.03 L98.266,315.374 C98.923,315.573 99.627,315.691 100.361,315.691 C103.78,315.691 106.646,313.312 107.369,310.118 L116.316,310.118 C117.039,313.312 119.901,315.691 123.324,315.691 C124.065,315.691 124.777,315.573 125.445,315.374 L129.882,323.012 C128.904,323.904 128.181,325.066 127.824,326.376 C127.606,327.058 127.484,327.784 127.484,328.541 C127.484,330.595 128.362,332.443 129.752,333.741 L125.445,341.162 C124.777,340.962 124.065,340.844 123.324,340.844 C120.019,340.844 117.231,343.08 116.397,346.108 C116.361,346.207 116.342,346.31 116.316,346.417 L107.369,346.417 C106.646,343.227 103.78,340.844 100.361,340.844 C99.627,340.844 98.923,340.951 98.266,341.154 L93.818,333.516 C95.238,332.207 96.134,330.34 96.134,328.268 C96.134,326.195 95.238,324.332 93.818,323.03 z M100.361,380.378 C99.627,380.378 98.923,380.5 98.266,380.699 L93.818,373.05 C95.238,371.741 96.134,369.878 96.134,367.805 C96.134,365.733 95.238,363.866 93.818,362.568 L98.266,354.919 C98.923,355.122 99.627,355.229 100.361,355.229 C103.78,355.229 106.646,352.846 107.369,349.656 L116.195,349.656 C116.847,352.938 119.765,355.42 123.258,355.42 C124.047,355.42 124.814,355.284 125.526,355.048 L129.882,362.55 C128.904,363.45 128.181,364.604 127.824,365.913 C127.606,366.596 127.484,367.322 127.484,368.078 C127.484,370.133 128.362,371.977 129.752,373.286 L125.445,380.707 C124.777,380.5 124.065,380.378 123.324,380.378 C120.012,380.378 117.231,382.617 116.397,385.645 C116.361,385.745 116.342,385.844 116.316,385.955 L107.369,385.955 C106.646,382.772 103.78,380.378 100.361,380.378 z M134.676,400.383 C133.946,400.383 133.242,400.494 132.581,400.693 L128.133,393.047 C129.103,392.155 129.826,391.001 130.184,389.691 C130.405,389.02 130.523,388.29 130.523,387.537 C130.523,385.49 129.653,383.646 128.262,382.344 L132.581,374.916 C133.242,375.115 133.946,375.226 134.676,375.226 C137.988,375.226 140.777,372.998 141.61,369.97 C141.64,369.867 141.665,369.76 141.691,369.66 L150.631,369.66 C151.362,372.843 154.216,375.226 157.646,375.226 C158.38,375.226 159.092,375.115 159.771,374.905 L164.208,382.543 C162.769,383.853 161.873,385.726 161.873,387.799 C161.873,389.883 162.769,391.757 164.208,393.055 L159.778,400.686 C159.122,400.494 158.436,400.383 157.72,400.383 L157.646,400.383 C154.216,400.383 151.354,402.766 150.631,405.949 L141.691,405.949 C140.961,402.766 138.106,400.383 134.676,400.383 z M192.109,420.115 C188.679,420.115 185.824,422.498 185.094,425.681 L176.154,425.681 C175.431,422.498 172.569,420.115 169.139,420.115 C168.416,420.115 167.701,420.226 167.044,420.425 L162.596,412.768 C164.023,411.47 164.912,409.604 164.912,407.531 C164.912,405.458 164.023,403.603 162.596,402.294 L167.033,394.656 C167.675,394.847 168.361,394.958 169.065,394.958 C169.084,394.958 169.091,394.947 169.102,394.947 C169.12,394.947 169.128,394.958 169.139,394.958 C172.569,394.958 175.431,392.575 176.154,389.392 L185.094,389.392 C185.824,392.575 188.679,394.958 192.109,394.958 C192.843,394.958 193.566,394.847 194.234,394.637 L198.67,402.275 C197.243,403.585 196.336,405.451 196.336,407.531 C196.336,409.615 197.243,411.489 198.67,412.787 L194.234,420.436 C193.566,420.226 192.843,420.115 192.109,420.115 z M237.954,420.115 C234.524,420.115 231.669,422.498 230.946,425.681 L221.998,425.681 C221.268,422.498 218.402,420.115 214.98,420.115 C214.25,420.115 213.545,420.226 212.885,420.425 L208.441,412.768 C209.857,411.47 210.757,409.604 210.757,407.531 C210.757,405.458 209.857,403.603 208.441,402.294 L212.885,394.648 C213.545,394.847 214.25,394.958 214.98,394.958 C218.402,394.958 221.268,392.575 221.998,389.392 L230.946,389.392 C231.669,392.575 234.524,394.958 237.954,394.958 C238.684,394.958 239.399,394.847 240.074,394.637 L244.504,402.275 C243.084,403.585 242.18,405.451 242.18,407.531 C242.18,409.615 243.084,411.489 244.504,412.787 L240.074,420.436 C239.399,420.226 238.684,420.115 237.954,420.115 z M272.343,400.383 C268.913,400.383 266.058,402.766 265.324,405.949 L256.387,405.949 C255.665,402.766 252.802,400.383 249.372,400.383 C248.65,400.383 247.934,400.494 247.277,400.693 L242.829,393.047 C244.257,391.738 245.146,389.872 245.146,387.799 C245.146,385.726 244.246,383.871 242.829,382.562 L247.277,374.916 C247.934,375.115 248.65,375.226 249.372,375.226 C252.802,375.226 255.665,372.843 256.387,369.66 L265.272,369.66 C265.885,372.987 268.82,375.506 272.343,375.506 C273.084,375.506 273.796,375.396 274.474,375.189 L278.801,382.636 C277.429,383.945 276.569,385.771 276.569,387.799 C276.569,387.854 276.577,387.899 276.577,387.947 C276.577,387.991 276.569,388.035 276.569,388.091 C276.569,390.119 277.429,391.945 278.793,393.247 L274.463,400.704 C273.796,400.494 273.073,400.383 272.343,400.383 z M306.732,144.506 C303.309,144.506 300.447,146.889 299.724,150.071 L290.776,150.071 C290.053,146.889 287.191,144.506 283.761,144.506 C283.038,144.506 282.334,144.617 281.666,144.816 L277.229,137.17 C278.638,135.861 279.535,134.006 279.535,131.933 C279.535,129.86 278.638,127.994 277.229,126.684 L281.666,119.039 C282.334,119.238 283.038,119.349 283.761,119.349 C287.191,119.349 290.053,116.966 290.776,113.783 L299.724,113.783 C300.447,116.966 303.309,119.349 306.732,119.349 C307.473,119.349 308.185,119.238 308.856,119.028 L313.293,126.677 C311.866,127.975 310.969,129.849 310.969,131.933 C310.969,134.006 311.866,135.879 313.293,137.177 L308.856,144.827 C308.185,144.617 307.473,144.506 306.732,144.506 z M272.324,243.158 C268.902,243.158 266.039,245.53 265.317,248.724 L256.369,248.724 C255.646,245.53 252.784,243.158 249.361,243.158 L249.354,243.158 C248.62,243.158 247.927,243.258 247.259,243.457 L242.822,235.811 C244.238,234.509 245.135,232.647 245.135,230.574 C245.135,228.501 244.238,226.635 242.822,225.337 L247.266,217.68 C247.927,217.887 248.631,217.986 249.361,217.986 C252.784,217.986 255.646,215.615 256.369,212.424 L265.317,212.424 C266.039,215.615 268.902,217.986 272.324,217.986 L272.343,217.986 C273.073,217.986 273.788,217.879 274.449,217.68 L278.885,225.318 C277.458,226.628 276.562,228.49 276.562,230.574 C276.562,232.654 277.458,234.521 278.885,235.83 L274.449,243.468 C273.777,243.265 273.065,243.158 272.324,243.158 z M272.343,99.617 C273.073,99.617 273.796,99.506 274.463,99.296 L278.9,106.945 C277.477,108.243 276.569,110.117 276.569,112.201 C276.569,114.281 277.466,116.147 278.9,117.457 L274.463,125.095 C273.796,124.885 273.073,124.774 272.343,124.774 C268.913,124.774 266.058,127.157 265.324,130.339 L256.387,130.339 C255.665,127.157 252.802,124.774 249.372,124.774 C248.65,124.774 247.934,124.885 247.277,125.084 L242.829,117.438 C244.257,116.129 245.146,114.274 245.146,112.201 C245.146,110.128 244.246,108.262 242.829,106.964 L247.277,99.307 C247.934,99.506 248.638,99.617 249.361,99.617 L249.372,99.617 C252.802,99.617 255.665,97.234 256.387,94.051 L265.324,94.051 C266.058,97.234 268.913,99.617 272.343,99.617 z M278.911,156.92 L274.474,164.559 C273.796,164.349 273.084,164.231 272.343,164.231 C268.37,164.231 265.151,167.432 265.151,171.386 C265.151,175.332 268.37,178.533 272.343,178.533 C273.084,178.533 273.796,178.423 274.474,178.216 L278.911,185.855 C277.477,187.153 276.569,189.026 276.569,191.11 C276.569,193.201 277.477,195.064 278.911,196.384 L274.474,204.012 C273.796,203.801 273.084,203.694 272.343,203.694 L272.324,203.694 C268.902,203.694 266.039,206.077 265.317,209.267 L256.369,209.267 C255.646,206.077 252.784,203.694 249.361,203.694 C245.393,203.694 242.169,206.896 242.169,210.842 C242.169,212.933 243.069,214.796 244.504,216.105 L240.067,223.744 C239.388,223.533 238.677,223.426 237.935,223.426 L237.924,223.426 C234.505,223.426 231.639,225.809 230.917,228.992 L221.973,228.992 C221.239,225.809 218.384,223.426 214.954,223.426 C210.985,223.426 207.762,226.628 207.762,230.574 C207.762,232.654 208.669,234.528 210.104,235.837 L205.667,243.468 C204.999,243.265 204.288,243.158 203.554,243.158 L203.535,243.158 C202.805,243.158 202.108,243.258 201.44,243.457 L197.014,235.819 C198.431,234.509 199.327,232.647 199.327,230.574 C199.327,226.628 196.107,223.426 192.128,223.426 C188.709,223.426 185.843,225.809 185.12,228.992 L176.172,228.992 C175.449,225.809 172.595,223.426 169.165,223.426 L169.157,223.426 C168.423,223.426 167.712,223.533 167.051,223.736 L162.607,216.098 C164.034,214.789 164.92,212.922 164.92,210.842 C164.92,206.896 161.7,203.694 157.731,203.694 C154.309,203.694 151.447,206.077 150.724,209.267 L141.776,209.267 C141.053,206.077 138.187,203.694 134.757,203.694 L134.739,203.694 C133.998,203.694 133.293,203.801 132.626,204.004 L128.189,196.366 C129.609,195.057 130.512,193.19 130.512,191.11 C130.512,189.037 129.609,187.171 128.189,185.873 L132.626,178.224 C133.293,178.423 133.998,178.533 134.739,178.533 C138.711,178.533 141.931,175.332 141.931,171.386 C141.931,167.432 138.711,164.231 134.739,164.231 C133.998,164.231 133.293,164.349 132.626,164.548 L128.189,156.902 C129.609,155.6 130.512,153.738 130.512,151.654 C130.512,149.581 129.609,147.718 128.189,146.409 L132.626,138.76 C133.293,138.97 133.998,139.081 134.739,139.081 L134.757,139.081 C138.187,139.081 141.053,136.698 141.776,133.504 L150.724,133.504 C151.447,136.698 154.309,139.081 157.731,139.081 C161.7,139.081 164.92,135.879 164.92,131.933 C164.92,129.849 164.034,127.986 162.607,126.677 L167.044,119.039 C167.712,119.238 168.416,119.349 169.139,119.349 L169.157,119.349 C172.58,119.349 175.442,116.966 176.165,113.783 L185.094,113.783 C185.824,116.966 188.679,119.349 192.109,119.349 C196.081,119.349 199.301,116.147 199.301,112.201 C199.301,110.117 198.405,108.254 196.985,106.953 L201.422,99.307 C202.093,99.506 202.798,99.617 203.528,99.617 L203.546,99.617 C204.288,99.617 204.999,99.506 205.678,99.296 L210.115,106.934 C208.677,108.243 207.773,110.11 207.773,112.201 C207.773,116.147 210.993,119.349 214.972,119.349 C218.395,119.349 221.257,116.966 221.98,113.783 L230.928,113.783 C231.651,116.966 234.513,119.349 237.935,119.349 L237.954,119.349 C238.695,119.349 239.407,119.238 240.085,119.028 L244.511,126.666 C243.084,127.975 242.18,129.842 242.18,131.933 C242.18,135.879 245.4,139.081 249.372,139.081 C252.802,139.081 255.665,136.698 256.387,133.504 L265.324,133.504 C266.058,136.698 268.913,139.081 272.343,139.081 C273.084,139.081 273.796,138.97 274.474,138.76 L278.911,146.391 C277.477,147.7 276.569,149.574 276.569,151.654 C276.569,153.745 277.477,155.611 278.911,156.92 z M192.128,262.879 C188.709,262.879 185.843,265.262 185.12,268.445 L176.172,268.445 C175.449,265.262 172.595,262.879 169.165,262.879 C168.434,262.879 167.73,262.99 167.07,263.189 L162.626,255.543 C164.042,254.234 164.938,252.379 164.938,250.306 C164.938,248.23 164.042,246.367 162.626,245.069 L167.07,237.412 C167.73,237.611 168.434,237.718 169.157,237.718 L169.165,237.718 C172.595,237.718 175.449,235.347 176.172,232.156 L185.12,232.156 C185.843,235.347 188.709,237.718 192.128,237.718 C192.869,237.718 193.584,237.611 194.252,237.412 L198.689,245.032 C197.243,246.341 196.336,248.215 196.336,250.306 C196.336,252.397 197.243,254.26 198.689,255.569 L194.252,263.2 C193.584,262.99 192.869,262.879 192.128,262.879 z M214.954,262.879 C214.231,262.879 213.527,262.99 212.859,263.189 L208.422,255.551 C209.849,254.253 210.757,252.386 210.757,250.306 C210.757,248.222 209.849,246.36 208.422,245.05 L212.859,237.412 C213.527,237.611 214.231,237.718 214.954,237.718 C218.384,237.718 221.239,235.347 221.973,232.156 L230.917,232.156 C231.639,235.347 234.505,237.718 237.924,237.718 L237.935,237.718 C238.677,237.718 239.381,237.611 240.049,237.412 L244.486,245.05 C243.058,246.36 242.162,248.222 242.162,250.306 C242.162,252.386 243.058,254.253 244.486,255.562 L240.049,263.2 C239.381,262.99 238.677,262.879 237.935,262.879 L237.924,262.879 C234.505,262.879 231.639,265.262 230.917,268.445 L221.973,268.445 C221.239,265.262 218.384,262.879 214.954,262.879 z M283.761,79.892 C287.191,79.892 290.053,77.509 290.776,74.319 L299.724,74.319 C300.447,77.509 303.309,79.892 306.732,79.892 C307.473,79.892 308.185,79.774 308.856,79.575 L313.293,87.213 C311.866,88.522 310.969,90.385 310.969,92.469 C310.969,94.549 311.866,96.415 313.293,97.725 L308.856,105.363 C308.185,105.164 307.473,105.053 306.732,105.053 C303.309,105.053 300.447,107.425 299.724,110.619 L290.776,110.619 C290.046,107.425 287.191,105.053 283.761,105.053 C283.038,105.053 282.334,105.153 281.666,105.363 L277.229,97.706 C278.638,96.404 279.535,94.542 279.535,92.469 C279.535,90.396 278.638,88.53 277.229,87.232 L281.666,79.575 C282.334,79.774 283.038,79.892 283.761,79.892 z M214.972,79.892 C218.395,79.892 221.257,77.509 221.98,74.319 L230.928,74.319 C231.651,77.509 234.513,79.892 237.935,79.892 C238.677,79.892 239.388,79.774 240.056,79.575 L244.493,87.213 C243.069,88.522 242.169,90.385 242.169,92.469 C242.169,94.549 243.069,96.415 244.493,97.725 L240.056,105.363 C239.388,105.153 238.684,105.053 237.954,105.053 L237.935,105.053 C234.513,105.053 231.651,107.425 230.928,110.619 L221.98,110.619 C221.257,107.425 218.395,105.053 214.972,105.053 C214.242,105.053 213.538,105.153 212.87,105.363 L208.43,97.706 C209.849,96.404 210.746,94.542 210.746,92.469 C210.746,90.396 209.849,88.53 208.43,87.232 L212.87,79.575 C213.538,79.774 214.242,79.892 214.972,79.892 z M169.139,79.892 C172.569,79.892 175.431,77.509 176.154,74.319 L185.102,74.319 C185.824,77.509 188.679,79.892 192.109,79.892 C192.843,79.892 193.566,79.774 194.234,79.575 L198.67,87.213 C197.243,88.522 196.336,90.385 196.336,92.469 C196.336,94.549 197.243,96.415 198.67,97.725 L194.234,105.363 C193.566,105.164 192.843,105.053 192.109,105.053 C188.679,105.053 185.824,107.425 185.102,110.619 L176.165,110.619 C175.442,107.425 172.58,105.053 169.157,105.053 L169.139,105.053 C168.416,105.053 167.712,105.153 167.044,105.352 L162.607,97.714 C164.034,96.404 164.92,94.542 164.92,92.469 C164.92,90.385 164.034,88.522 162.607,87.221 L167.044,79.575 C167.701,79.774 168.416,79.892 169.139,79.892 z M134.757,99.617 C138.187,99.617 141.053,97.234 141.776,94.051 L150.713,94.051 C151.436,97.234 154.29,99.617 157.72,99.617 L157.731,99.617 C158.473,99.617 159.177,99.506 159.852,99.307 L164.282,106.934 C162.854,108.243 161.947,110.11 161.947,112.201 C161.947,114.281 162.854,116.155 164.282,117.464 L159.852,125.095 C159.184,124.885 158.473,124.774 157.731,124.774 C154.309,124.774 151.447,127.157 150.713,130.339 L141.776,130.339 C141.053,127.157 138.187,124.774 134.757,124.774 L134.739,124.774 C134.016,124.774 133.323,124.885 132.662,125.084 L128.226,117.438 C129.646,116.129 130.531,114.274 130.531,112.201 C130.531,110.128 129.646,108.262 128.226,106.964 L132.662,99.307 C133.33,99.506 134.034,99.617 134.757,99.617 z M93.8,126.684 L98.248,119.039 C98.915,119.238 99.62,119.349 100.35,119.349 C103.773,119.349 106.635,116.966 107.358,113.783 L116.305,113.783 C117.028,116.966 119.883,119.349 123.313,119.349 L123.342,119.349 C124.073,119.349 124.777,119.238 125.437,119.039 L129.874,126.677 C128.447,127.975 127.54,129.849 127.54,131.933 C127.54,134.006 128.447,135.879 129.874,137.177 L125.437,144.827 C124.77,144.617 124.054,144.506 123.313,144.506 C119.883,144.506 117.028,146.889 116.305,150.071 L107.358,150.071 C106.635,146.889 103.773,144.506 100.35,144.506 C99.62,144.506 98.915,144.617 98.248,144.816 L93.8,137.17 C95.227,135.861 96.116,134.006 96.116,131.933 C96.116,129.86 95.227,127.994 93.8,126.684 z M93.8,166.141 L98.248,158.503 C98.915,158.691 99.62,158.813 100.35,158.813 C103.773,158.813 106.635,156.419 107.358,153.236 L116.305,153.236 C117.028,156.419 119.883,158.813 123.313,158.813 C124.054,158.813 124.77,158.691 125.437,158.492 L129.874,166.13 C128.447,167.432 127.54,169.305 127.54,171.386 C127.54,173.469 128.447,175.332 129.874,176.641 L125.437,184.28 C124.77,184.081 124.054,183.962 123.313,183.962 C119.883,183.962 117.028,186.345 116.305,189.535 L107.358,189.535 C106.635,186.345 103.773,183.962 100.35,183.962 C99.62,183.962 98.915,184.081 98.248,184.272 L93.8,176.623 C95.227,175.325 96.116,173.458 96.116,171.386 C96.116,169.313 95.227,167.45 93.8,166.141 z M100.35,223.426 C99.62,223.426 98.915,223.533 98.248,223.736 L93.8,216.087 C95.227,214.778 96.116,212.915 96.116,210.842 C96.116,208.769 95.227,206.914 93.8,205.605 L98.248,197.956 C98.915,198.155 99.62,198.265 100.35,198.265 C103.773,198.265 106.635,195.883 107.358,192.7 L116.305,192.7 C117.028,195.883 119.883,198.265 123.313,198.265 C124.054,198.265 124.77,198.155 125.437,197.948 L129.874,205.586 C128.447,206.896 127.54,208.758 127.54,210.842 C127.54,212.922 128.447,214.796 129.874,216.098 L125.437,223.736 C124.777,223.533 124.073,223.426 123.342,223.426 L123.313,223.426 C119.883,223.426 117.028,225.809 116.305,228.992 L107.358,228.992 C106.635,225.809 103.773,223.426 100.35,223.426 z M134.757,243.158 C134.034,243.158 133.33,243.265 132.662,243.468 L128.226,235.811 C129.646,234.509 130.531,232.647 130.531,230.574 C130.531,228.501 129.646,226.635 128.226,225.337 L132.662,217.688 C133.323,217.887 134.016,217.986 134.739,217.986 L134.757,217.986 C138.187,217.986 141.053,215.615 141.776,212.424 L150.713,212.424 C151.447,215.615 154.309,217.986 157.731,217.986 C158.473,217.986 159.184,217.879 159.852,217.68 L164.289,225.318 C162.862,226.628 161.958,228.49 161.958,230.574 C161.958,232.654 162.862,234.521 164.289,235.83 L159.852,243.468 C159.184,243.265 158.48,243.158 157.739,243.158 L157.731,243.158 C154.309,243.158 151.447,245.53 150.713,248.724 L141.776,248.724 C141.053,245.53 138.187,243.158 134.757,243.158 z M276.562,270.038 C276.562,270.145 276.569,270.263 276.577,270.374 C276.577,270.4 276.569,270.429 276.569,270.462 C276.569,272.454 277.403,274.265 278.727,275.567 L274.449,282.932 C273.777,282.722 273.065,282.611 272.324,282.611 C268.902,282.611 266.039,284.994 265.317,288.177 L256.369,288.177 C255.646,284.994 252.784,282.611 249.361,282.611 C248.631,282.611 247.927,282.722 247.266,282.921 L242.822,275.275 C244.238,273.966 245.135,272.111 245.135,270.038 C245.135,267.962 244.238,266.099 242.822,264.79 L247.259,257.144 C247.927,257.343 248.62,257.45 249.354,257.45 L249.361,257.45 C252.784,257.45 255.646,255.068 256.369,251.888 L265.317,251.888 C266.039,255.068 268.902,257.45 272.324,257.45 C273.065,257.45 273.777,257.343 274.449,257.133 L278.885,264.782 C277.458,266.081 276.562,267.954 276.562,270.038 z M313.293,334.578 L309.066,341.87 C308.332,341.615 307.547,341.479 306.732,341.479 C303.309,341.479 300.447,343.861 299.724,347.044 L290.776,347.044 C290.053,343.861 287.191,341.479 283.761,341.479 C282.965,341.479 282.186,341.615 281.464,341.862 L277.229,334.571 C278.638,333.261 279.535,331.395 279.535,329.322 C279.535,327.25 278.638,325.395 277.229,324.085 L281.508,316.701 C282.223,316.937 282.983,317.067 283.761,317.067 C287.191,317.067 290.046,314.684 290.776,311.501 L299.724,311.501 C300.447,314.684 303.309,317.067 306.732,317.067 C307.528,317.067 308.295,316.93 309.011,316.694 L313.293,324.067 C311.866,325.376 310.969,327.242 310.969,329.322 C310.969,331.406 311.866,333.28 313.293,334.578 z M306.732,277.61 C307.473,277.61 308.185,277.492 308.856,277.293 L313.171,284.721 C311.81,286.023 310.969,287.848 310.969,289.87 C310.969,289.921 310.969,289.977 310.977,290.025 C310.969,290.076 310.969,290.131 310.969,290.187 C310.969,292.215 311.81,294.034 313.171,295.332 L308.856,302.764 C308.185,302.553 307.473,302.443 306.732,302.443 C303.309,302.443 300.447,304.825 299.724,308.008 L290.776,308.008 C290.053,304.825 287.191,302.443 283.761,302.443 C283.038,302.443 282.334,302.553 281.666,302.753 L277.348,295.313 C278.69,294.015 279.535,292.204 279.535,290.187 L279.535,289.87 C279.535,289.597 279.516,289.324 279.487,289.058 C279.324,287.351 278.546,285.813 277.384,284.677 L281.666,277.293 C282.334,277.492 283.038,277.61 283.761,277.61 C287.191,277.61 290.053,275.227 290.776,272.037 L299.724,272.037 C300.447,275.227 303.309,277.61 306.732,277.61 z M313.293,216.098 L308.856,223.744 C308.185,223.533 307.473,223.426 306.732,223.426 C303.309,223.426 300.447,225.809 299.724,228.992 L290.776,228.992 C290.053,225.809 287.191,223.426 283.761,223.426 L283.75,223.426 C283.027,223.426 282.323,223.533 281.666,223.736 L277.229,216.087 C278.638,214.778 279.535,212.915 279.535,210.842 C279.535,208.769 278.638,206.914 277.229,205.605 L281.666,197.956 C282.334,198.155 283.038,198.265 283.761,198.265 C287.191,198.265 290.053,195.883 290.776,192.7 L299.724,192.7 C300.447,195.883 303.309,198.265 306.732,198.265 C307.473,198.265 308.185,198.155 308.856,197.948 L313.293,205.586 C311.866,206.896 310.969,208.758 310.969,210.842 C310.969,212.922 311.866,214.796 313.293,216.098 z M313.293,176.641 L308.856,184.28 C308.185,184.081 307.473,183.962 306.732,183.962 C303.309,183.962 300.447,186.345 299.724,189.535 L290.776,189.535 C290.053,186.345 287.191,183.962 283.761,183.962 C283.038,183.962 282.334,184.081 281.666,184.272 L277.229,176.623 C278.638,175.325 279.535,173.458 279.535,171.386 C279.535,169.313 278.638,167.45 277.229,166.141 L281.666,158.503 C282.334,158.691 283.038,158.813 283.761,158.813 C287.191,158.813 290.053,156.419 290.776,153.236 L299.724,153.236 C300.447,156.419 303.309,158.813 306.732,158.813 C307.473,158.813 308.185,158.691 308.856,158.492 L313.293,166.13 C311.866,167.432 310.969,169.305 310.969,171.386 C310.969,173.469 311.866,175.332 313.293,176.641 z M318.158,139.081 C322.13,139.081 325.35,135.879 325.35,131.933 C325.35,127.975 322.13,124.774 318.158,124.774 C317.427,124.774 316.723,124.885 316.044,125.095 L311.607,117.445 C313.035,116.136 313.924,114.274 313.924,112.201 C313.924,110.117 313.035,108.254 311.607,106.953 L316.044,99.307 C316.723,99.506 317.427,99.617 318.158,99.617 C322.13,99.617 325.35,96.415 325.35,92.469 C325.35,88.522 322.13,85.321 318.158,85.321 C317.427,85.321 316.723,85.432 316.044,85.631 L311.607,77.993 C313.035,76.672 313.924,74.81 313.924,72.737 C313.924,68.791 310.704,65.589 306.732,65.589 C303.309,65.589 300.447,67.972 299.724,71.162 L290.776,71.162 C290.053,67.972 287.191,65.589 283.761,65.589 C279.789,65.589 276.569,68.791 276.569,72.737 C276.569,74.817 277.477,76.691 278.911,78 L274.474,85.638 C273.785,85.428 273.065,85.321 272.343,85.321 C268.913,85.321 266.058,87.693 265.324,90.887 L256.387,90.887 C255.665,87.693 252.802,85.321 249.372,85.321 L249.361,85.321 C248.631,85.321 247.916,85.432 247.259,85.631 L242.811,77.993 C244.238,76.672 245.135,74.817 245.135,72.737 C245.135,68.791 241.915,65.589 237.935,65.589 C234.513,65.589 231.651,67.972 230.928,71.162 L221.98,71.162 C221.257,67.972 218.395,65.589 214.972,65.589 C210.993,65.589 207.773,68.791 207.773,72.737 C207.773,74.817 208.677,76.691 210.115,78 L205.678,85.638 C204.988,85.428 204.269,85.321 203.546,85.321 L203.528,85.321 C202.798,85.321 202.093,85.432 201.422,85.631 L196.985,77.993 C198.405,76.672 199.301,74.817 199.301,72.737 C199.301,68.791 196.081,65.589 192.109,65.589 C188.679,65.589 185.824,67.972 185.094,71.162 L176.154,71.162 C175.431,67.972 172.569,65.589 169.139,65.589 C165.167,65.589 161.947,68.791 161.947,72.737 C161.947,74.817 162.854,76.691 164.282,78 L159.852,85.631 C159.177,85.432 158.473,85.321 157.731,85.321 L157.72,85.321 C154.29,85.321 151.436,87.693 150.713,90.887 L141.776,90.887 C141.053,87.693 138.187,85.321 134.757,85.321 C130.789,85.321 127.569,88.522 127.569,92.469 C127.569,94.549 128.473,96.423 129.911,97.732 L125.474,105.363 C124.796,105.164 124.084,105.053 123.342,105.053 L123.313,105.053 C119.883,105.053 117.028,107.425 116.305,110.619 L107.358,110.619 C106.635,107.425 103.773,105.053 100.35,105.053 C96.37,105.053 93.151,108.254 93.151,112.201 C93.151,114.281 94.058,116.155 95.485,117.457 L91.056,125.095 C90.381,124.885 89.665,124.774 88.924,124.774 C84.955,124.774 81.725,127.975 81.725,131.933 C81.725,135.879 84.955,139.081 88.924,139.081 C89.665,139.081 90.381,138.97 91.056,138.76 L95.485,146.391 C94.058,147.7 93.151,149.574 93.151,151.654 C93.151,153.745 94.058,155.611 95.485,156.92 L91.056,164.559 C90.381,164.349 89.665,164.231 88.924,164.231 C84.955,164.231 81.725,167.432 81.725,171.386 C81.725,175.332 84.955,178.533 88.924,178.533 C89.665,178.533 90.381,178.423 91.056,178.216 L95.485,185.855 C94.058,187.153 93.151,189.026 93.151,191.11 C93.151,193.201 94.058,195.064 95.485,196.384 L91.056,204.012 C90.381,203.801 89.665,203.694 88.924,203.694 C84.955,203.694 81.725,206.896 81.725,210.842 C81.725,214.789 84.955,217.986 88.924,217.986 C89.665,217.986 90.381,217.879 91.056,217.669 L95.485,225.307 C94.058,226.617 93.151,228.49 93.151,230.574 C93.151,234.521 96.37,237.718 100.35,237.718 C103.773,237.718 106.635,235.347 107.358,232.156 L116.305,232.156 C117.028,235.347 119.883,237.718 123.313,237.718 L123.342,237.718 C124.084,237.718 124.796,237.611 125.474,237.401 L129.911,245.039 C128.473,246.349 127.569,248.222 127.569,250.306 C127.569,254.253 130.789,257.45 134.757,257.45 C138.187,257.45 141.053,255.068 141.776,251.888 L150.724,251.888 C151.447,255.068 154.309,257.45 157.731,257.45 L157.739,257.45 C158.48,257.45 159.203,257.343 159.87,257.133 L164.307,264.771 C162.88,266.081 161.965,267.947 161.965,270.038 C161.965,273.984 165.196,277.182 169.165,277.182 C172.595,277.182 175.449,274.8 176.172,271.609 L185.12,271.609 C185.843,274.8 188.709,277.182 192.128,277.182 C196.107,277.182 199.327,273.984 199.327,270.038 C199.327,267.954 198.431,266.092 197.014,264.782 L201.44,257.144 C202.108,257.343 202.805,257.45 203.535,257.45 L203.554,257.45 C204.288,257.45 204.999,257.343 205.667,257.144 L210.104,264.771 C208.669,266.081 207.762,267.947 207.762,270.038 C207.762,273.984 210.985,277.182 214.954,277.182 C218.384,277.182 221.239,274.8 221.973,271.609 L230.917,271.609 C231.639,274.8 234.505,277.182 237.924,277.182 L237.935,277.182 C238.677,277.182 239.388,277.075 240.067,276.865 L244.504,284.496 C243.069,285.805 242.169,287.675 242.169,289.759 C242.169,293.716 245.393,296.914 249.361,296.914 C252.784,296.914 255.646,294.524 256.369,291.341 L265.254,291.341 C265.811,294.742 268.765,297.342 272.343,297.342 C273.084,297.342 273.796,297.224 274.474,297.014 L278.782,304.445 C277.429,305.744 276.569,307.573 276.569,309.602 C276.569,309.653 276.577,309.701 276.577,309.756 C276.577,309.808 276.569,309.863 276.569,309.919 C276.569,311.947 277.421,313.766 278.782,315.064 L274.474,322.496 C273.796,322.285 273.084,322.175 272.343,322.175 C268.37,322.175 265.151,325.376 265.151,329.322 C265.151,333.28 268.37,336.478 272.343,336.478 C273.084,336.478 273.796,336.36 274.474,336.16 L278.745,343.518 C277.41,344.809 276.569,346.628 276.569,348.627 C276.569,348.7 276.577,348.774 276.577,348.844 C276.577,348.911 276.569,348.981 276.569,349.054 C276.569,351.065 277.41,352.875 278.745,354.174 L274.603,361.296 C273.899,361.056 273.128,360.919 272.343,360.919 C268.913,360.919 266.058,363.302 265.324,366.496 L256.387,366.496 C255.665,363.302 252.802,360.919 249.372,360.919 C245.4,360.919 242.18,364.121 242.18,368.078 C242.18,370.158 243.084,372.032 244.511,373.334 L240.085,380.972 C239.407,380.762 238.695,380.651 237.954,380.651 C234.524,380.651 231.669,383.034 230.946,386.217 L221.998,386.217 C221.268,383.034 218.402,380.651 214.98,380.651 C211.011,380.651 207.791,383.853 207.791,387.799 C207.791,389.89 208.688,391.757 210.122,393.066 L205.685,400.704 C205.018,400.494 204.295,400.383 203.554,400.383 L203.528,400.383 C202.798,400.383 202.093,400.494 201.422,400.693 L196.985,393.047 C198.405,391.746 199.301,389.883 199.301,387.799 C199.301,383.853 196.081,380.651 192.109,380.651 C188.679,380.651 185.824,383.034 185.102,386.217 L176.154,386.217 C175.431,383.034 172.569,380.651 169.139,380.651 L169.065,380.651 C168.335,380.651 167.63,380.762 166.963,380.972 L162.522,373.323 C163.942,372.014 164.838,370.151 164.838,368.078 C164.838,364.121 161.619,360.919 157.646,360.919 C154.216,360.919 151.354,363.302 150.631,366.496 L141.82,366.496 C141.201,363.177 138.272,360.658 134.75,360.658 C134.016,360.658 133.312,360.768 132.644,360.967 L128.244,353.41 C128.985,352.702 129.561,351.846 129.937,350.891 C130.313,350.028 130.523,349.073 130.523,348.081 C130.523,348.062 130.512,348.055 130.512,348.036 C130.512,348.025 130.523,348.011 130.523,348 C130.523,345.919 129.627,344.053 128.207,342.755 L132.5,335.353 C133.186,335.57 133.916,335.688 134.676,335.688 C137.988,335.688 140.777,333.461 141.61,330.433 C141.82,329.75 141.949,329.024 141.949,328.268 C141.949,324.321 138.719,321.12 134.75,321.12 C134.016,321.12 133.312,321.231 132.644,321.43 L128.2,313.784 C129.627,312.482 130.523,310.62 130.523,308.547 C130.523,304.589 127.303,301.388 123.324,301.388 C119.901,301.388 117.039,303.771 116.316,306.953 L107.369,306.953 C106.646,303.771 103.78,301.388 100.361,301.388 C96.389,301.388 93.162,304.589 93.162,308.547 C93.162,310.627 94.065,312.501 95.504,313.802 L91.067,321.441 C90.388,321.231 89.676,321.12 88.935,321.12 C84.963,321.12 81.743,324.321 81.743,328.268 C81.743,332.225 84.963,335.423 88.935,335.423 C89.676,335.423 90.388,335.305 91.067,335.098 L95.504,342.737 C94.065,344.046 93.162,345.908 93.162,348 C93.162,348.011 93.169,348.025 93.169,348.036 C93.169,348.055 93.162,348.062 93.162,348.081 C93.162,350.165 94.065,352.027 95.504,353.336 L91.067,360.975 C90.377,360.765 89.658,360.658 88.935,360.658 C84.963,360.658 81.743,363.859 81.743,367.805 C81.743,371.759 84.963,374.96 88.935,374.96 C89.676,374.96 90.388,374.842 91.067,374.643 L95.504,382.271 C94.065,383.58 93.162,385.453 93.162,387.537 C93.162,391.484 96.389,394.685 100.361,394.685 C103.78,394.685 106.646,392.302 107.369,389.12 L116.187,389.12 C116.811,392.439 119.735,394.958 123.258,394.958 C123.999,394.958 124.714,394.847 125.382,394.637 L129.819,402.275 C128.392,403.577 127.484,405.451 127.484,407.531 C127.484,411.478 130.704,414.679 134.676,414.679 C138.106,414.679 140.961,412.307 141.691,409.113 L150.631,409.113 C151.354,412.307 154.216,414.679 157.646,414.679 L157.72,414.679 C158.462,414.679 159.177,414.568 159.852,414.362 L164.282,422 C162.854,423.309 161.947,425.183 161.947,427.263 C161.947,431.209 165.167,434.411 169.139,434.411 C172.569,434.411 175.431,432.039 176.154,428.845 L185.102,428.845 C185.824,432.039 188.679,434.411 192.109,434.411 C196.081,434.411 199.301,431.209 199.301,427.263 C199.301,425.19 198.405,423.328 196.985,422.018 L201.422,414.369 C202.093,414.568 202.798,414.679 203.528,414.679 L203.554,414.679 C204.295,414.679 205.018,414.568 205.685,414.362 L210.122,422 C208.688,423.309 207.791,425.183 207.791,427.263 C207.791,431.209 211.011,434.411 214.98,434.411 C218.402,434.411 221.268,432.039 221.998,428.845 L230.946,428.845 C231.669,432.039 234.524,434.411 237.954,434.411 C241.922,434.411 245.146,431.209 245.146,427.263 C245.146,425.19 244.246,423.328 242.822,422.018 L247.266,414.369 C247.934,414.568 248.638,414.679 249.372,414.679 C252.802,414.679 255.665,412.307 256.387,409.113 L265.324,409.113 C266.058,412.307 268.913,414.679 272.343,414.679 C276.315,414.679 279.535,411.478 279.535,407.531 C279.535,405.458 278.638,403.596 277.218,402.286 L281.519,394.873 C282.223,395.109 282.983,395.238 283.761,395.238 C287.191,395.238 290.053,392.856 290.776,389.665 L299.724,389.665 C300.447,392.856 303.309,395.238 306.732,395.238 C310.704,395.238 313.924,392.037 313.924,388.091 C313.924,386.01 313.035,384.144 311.607,382.835 L316.044,375.197 C316.723,375.396 317.427,375.506 318.158,375.506 C322.13,375.506 325.35,372.305 325.35,368.359 C325.35,364.412 322.13,361.211 318.158,361.211 C317.427,361.211 316.723,361.321 316.044,361.521 L311.773,354.155 C313.097,352.857 313.924,351.053 313.924,349.054 C313.924,348.981 313.913,348.911 313.913,348.844 C313.913,348.774 313.924,348.7 313.924,348.627 C313.924,346.628 313.097,344.828 311.773,343.526 L316.044,336.16 C316.723,336.371 317.427,336.478 318.158,336.478 C322.13,336.478 325.35,333.28 325.35,329.322 C325.35,325.376 322.13,322.175 318.158,322.175 C317.427,322.175 316.723,322.285 316.044,322.485 L311.736,315.056 C313.083,313.755 313.924,311.936 313.924,309.919 C313.924,309.863 313.924,309.808 313.913,309.756 C313.924,309.701 313.924,309.653 313.924,309.602 C313.924,307.58 313.083,305.762 311.736,304.464 L316.044,297.025 C316.723,297.224 317.427,297.342 318.158,297.342 C322.13,297.342 325.35,294.141 325.35,290.187 C325.35,290.131 325.339,290.076 325.339,290.025 C325.339,289.977 325.35,289.921 325.35,289.87 C325.35,285.923 322.13,282.722 318.158,282.722 C317.427,282.722 316.723,282.829 316.044,283.032 L311.736,275.593 C313.083,274.291 313.924,272.472 313.924,270.462 C313.924,270.411 313.924,270.355 313.913,270.3 C313.924,270.245 313.924,270.189 313.924,270.138 C313.924,266.191 310.704,262.99 306.732,262.99 C303.309,262.99 300.447,265.361 299.724,268.555 L290.795,268.555 C290.109,265.317 287.217,262.879 283.75,262.879 C283.02,262.879 282.316,262.99 281.648,263.2 L277.2,255.551 C278.627,254.241 279.524,252.379 279.524,250.306 C279.524,248.222 278.627,246.367 277.2,245.058 L281.648,237.412 C282.316,237.611 283.02,237.718 283.75,237.718 L283.761,237.718 C287.191,237.718 290.046,235.347 290.776,232.156 L299.724,232.156 C300.447,235.347 303.309,237.718 306.732,237.718 C310.704,237.718 313.924,234.521 313.924,230.574 C313.924,228.501 313.035,226.635 311.607,225.326 L316.044,217.68 C316.723,217.879 317.427,217.986 318.158,217.986 C322.13,217.986 325.35,214.789 325.35,210.842 C325.35,206.896 322.13,203.694 318.158,203.694 C317.427,203.694 316.723,203.801 316.044,204.004 L311.607,196.366 C313.035,195.057 313.924,193.19 313.924,191.11 C313.924,189.037 313.035,187.171 311.607,185.873 L316.044,178.224 C316.723,178.423 317.427,178.533 318.158,178.533 C322.13,178.533 325.35,175.332 325.35,171.386 C325.35,167.432 322.13,164.231 318.158,164.231 C317.427,164.231 316.723,164.349 316.044,164.548 L311.607,156.902 C313.035,155.6 313.924,153.738 313.924,151.654 C313.924,149.581 313.035,147.718 311.607,146.409 L316.044,138.76 C316.723,138.97 317.427,139.081 318.158,139.081 z" fill="#000000"/>
      <path d="M394.752,414.054 L394.752,397.388 L415.576,397.388 Q416.941,400.647 417.608,404.34 Q418.275,408.033 418.275,412.192 Q418.275,419.422 415.53,424.372 Q412.783,429.323 407.569,431.866 Q402.356,434.411 395.032,434.411 Q388.205,434.411 382.898,431.633 Q377.591,428.856 374.581,423.674 Q371.571,418.491 371.571,411.261 Q371.571,407.537 372.253,404.232 Q372.936,400.927 374.302,397.948 L377.157,399.22 Q375.791,402.168 375.108,405.225 Q374.426,408.282 374.426,411.416 Q374.426,417.561 377.048,421.983 Q379.67,426.405 384.31,428.748 Q388.949,431.091 395.001,431.091 Q401.859,431.091 406.391,428.826 Q410.921,426.56 413.186,422.199 Q415.452,417.839 415.452,411.602 Q415.452,408.189 414.955,405.473 Q414.458,402.757 413.652,400.555 L397.669,400.555 L397.669,414.054 z M372.285,357.822 Q372.285,352.422 373.463,348.807 Q374.643,345.192 377.343,343.362 Q380.043,341.53 384.635,341.53 Q388.08,341.53 390.547,342.787 Q393.015,344.044 394.597,346.247 Q396.18,348.45 397.019,351.337 L417.655,338.893 L417.655,342.678 L397.919,354.379 L397.919,365.643 L417.655,365.643 L417.655,368.839 L372.285,368.839 z M375.108,358.133 L375.108,365.643 L395.094,365.643 L395.094,356.612 Q395.094,351.057 392.425,347.939 Q389.757,344.82 384.76,344.82 Q379.267,344.82 377.188,348.109 Q375.108,351.399 375.108,358.133 z M417.655,285.517 L401.611,291.692 L401.611,310.746 L417.655,317.046 L417.655,320.305 L372.13,302.461 L372.13,299.544 L417.655,282.165 z M398.724,292.717 L381.719,298.984 Q381.067,299.234 380.043,299.59 Q379.018,299.947 377.87,300.334 Q376.723,300.723 375.698,301.096 Q376.785,301.406 377.87,301.778 Q378.957,302.151 379.965,302.492 Q380.974,302.833 381.78,303.144 L398.724,309.661 z M417.655,238.937 L375.76,255.602 L375.76,255.758 Q376.908,255.695 378.165,255.648 Q379.422,255.602 380.788,255.571 Q382.153,255.54 383.643,255.54 L417.655,255.54 L417.655,258.581 L372.285,258.581 L372.285,253.74 L412.69,237.664 L412.69,237.479 L372.285,221.28 L372.285,216.563 L417.655,216.563 L417.655,219.696 L383.27,219.696 Q382.06,219.696 380.788,219.665 Q379.515,219.635 378.258,219.588 Q377.002,219.541 375.823,219.48 L375.823,219.665 L417.655,236.392 z M417.655,186.554 L372.285,186.554 L372.285,183.358 L417.655,183.358 z M417.655,120.362 L417.655,123.62 L377.53,150.433 L377.53,150.588 Q379.205,150.525 380.927,150.48 Q382.65,150.433 384.465,150.387 Q386.28,150.34 388.205,150.34 L417.655,150.34 L417.655,153.382 L372.285,153.382 L372.285,150.092 L412.286,123.372 L412.286,123.217 Q410.921,123.247 409.121,123.294 Q407.321,123.341 405.428,123.387 Q403.536,123.434 401.859,123.434 L372.285,123.434 L372.285,120.362 z M417.655,65.589 L417.655,90.385 L372.285,90.385 L372.285,65.589 L375.171,65.589 L375.171,87.188 L392.364,87.188 L392.364,66.799 L395.249,66.799 L395.249,87.188 L414.768,87.188 L414.768,65.589 z" fill="#000000"/>
    </g>
  </g>
</svg>
