<?xml version="1.0" encoding="UTF-8"?>
<!DOCTYPE svg PUBLIC "-//W3C//DTD SVG 1.1//EN" "http://www.w3.org/Graphics/SVG/1.1/DTD/svg11.dtd">
<svg version="1.1" xmlns="http://www.w3.org/2000/svg" xmlns:xlink="http://www.w3.org/1999/xlink" x="0" y="0" width="540.28" height="140.28" viewBox="0, 0, 540.28, 140.28">
  <g id="Background">
    <rect x="0" y="0" width="540.28" height="140.28" fill="#000000" fill-opacity="0"/>
  </g>
  <g id="Layer_1">
    <path d="M-0,0 L540.28,0 L540.28,140.28 L-0,140.28 z" fill="#FFFFFF"/>
    <path d="M141.559,101.046 C141.172,101.401 140.929,101.907 140.929,102.471 C140.929,103.036 141.172,103.541 141.559,103.896 L140.356,105.967 C140.174,105.913 139.981,105.881 139.78,105.881 C138.852,105.881 138.076,106.527 137.88,107.392 L135.469,107.392 C135.303,106.49 134.509,105.804 133.552,105.804 C133.353,105.804 133.162,105.834 132.981,105.891 L131.805,103.867 C132.175,103.514 132.406,103.018 132.406,102.471 L132.406,102.395 C132.406,101.847 132.177,101.352 131.808,100.999 L132.929,99.071 C133.125,99.138 133.336,99.175 133.552,99.175 C134.482,99.175 135.256,98.529 135.454,97.666 L137.88,97.666 C138.076,98.529 138.852,99.175 139.78,99.175 C140.001,99.175 140.214,99.138 140.413,99.071 L141.559,101.046 z M82.052,90.181 L83.258,88.105 C83.436,88.159 83.627,88.191 83.826,88.191 C84.753,88.191 85.53,87.546 85.726,86.68 L88.152,86.68 C88.348,87.546 89.124,88.191 90.052,88.191 C90.253,88.191 90.446,88.159 90.627,88.105 L91.83,90.176 C91.565,90.418 91.369,90.733 91.272,91.088 C91.213,91.273 91.18,91.47 91.18,91.675 C91.18,92.232 91.418,92.733 91.795,93.085 L90.627,95.097 C90.446,95.043 90.253,95.011 90.052,95.011 C89.156,95.011 88.4,95.617 88.174,96.438 C88.164,96.465 88.159,96.493 88.152,96.522 L85.726,96.522 C85.53,95.657 84.753,95.011 83.826,95.011 C83.627,95.011 83.436,95.04 83.258,95.095 L82.052,93.024 C82.437,92.669 82.68,92.163 82.68,91.601 C82.68,91.039 82.437,90.534 82.052,90.181 z M83.826,105.73 C83.627,105.73 83.436,105.763 83.258,105.817 L82.052,103.743 C82.437,103.388 82.68,102.883 82.68,102.321 C82.68,101.759 82.437,101.253 82.052,100.901 L83.258,98.827 C83.436,98.882 83.627,98.911 83.826,98.911 C84.753,98.911 85.53,98.265 85.726,97.4 L88.119,97.4 C88.296,98.29 89.087,98.963 90.034,98.963 C90.248,98.963 90.456,98.926 90.649,98.862 L91.83,100.896 C91.565,101.14 91.369,101.453 91.272,101.808 C91.213,101.993 91.18,102.19 91.18,102.395 C91.18,102.952 91.418,103.452 91.795,103.807 L90.627,105.819 C90.446,105.763 90.253,105.73 90.052,105.73 C89.154,105.73 88.4,106.337 88.174,107.158 C88.164,107.185 88.159,107.212 88.152,107.242 L85.726,107.242 C85.53,106.379 84.753,105.73 83.826,105.73 z M93.13,111.154 C92.932,111.154 92.741,111.184 92.562,111.238 L91.356,109.165 C91.619,108.923 91.815,108.61 91.912,108.255 C91.972,108.073 92.004,107.875 92.004,107.671 C92.004,107.116 91.768,106.616 91.391,106.263 L92.562,104.249 C92.741,104.303 92.932,104.333 93.13,104.333 C94.028,104.333 94.784,103.729 95.01,102.908 C95.018,102.88 95.025,102.851 95.032,102.824 L97.456,102.824 C97.654,103.687 98.428,104.333 99.358,104.333 C99.557,104.333 99.75,104.303 99.934,104.246 L101.137,106.317 C100.747,106.672 100.504,107.18 100.504,107.742 C100.504,108.307 100.747,108.815 101.137,109.167 L99.936,111.236 C99.758,111.184 99.572,111.154 99.378,111.154 L99.358,111.154 C98.428,111.154 97.652,111.8 97.456,112.663 L95.032,112.663 C94.834,111.8 94.06,111.154 93.13,111.154 z M108.702,116.504 C107.772,116.504 106.998,117.15 106.8,118.013 L104.376,118.013 C104.18,117.15 103.404,116.504 102.474,116.504 C102.278,116.504 102.084,116.534 101.906,116.588 L100.7,114.512 C101.087,114.16 101.328,113.654 101.328,113.092 C101.328,112.53 101.087,112.027 100.7,111.672 L101.903,109.601 C102.077,109.653 102.263,109.683 102.454,109.683 C102.459,109.683 102.461,109.68 102.464,109.68 C102.469,109.68 102.471,109.683 102.474,109.683 C103.404,109.683 104.18,109.037 104.376,108.174 L106.8,108.174 C106.998,109.037 107.772,109.683 108.702,109.683 C108.901,109.683 109.097,109.653 109.278,109.596 L110.481,111.667 C110.094,112.022 109.848,112.528 109.848,113.092 C109.848,113.657 110.094,114.165 110.481,114.517 L109.278,116.591 C109.097,116.534 108.901,116.504 108.702,116.504 z M121.132,116.504 C120.202,116.504 119.428,117.15 119.232,118.013 L116.806,118.013 C116.608,117.15 115.831,116.504 114.903,116.504 C114.705,116.504 114.514,116.534 114.335,116.588 L113.13,114.512 C113.514,114.16 113.758,113.654 113.758,113.092 C113.758,112.53 113.514,112.027 113.13,111.672 L114.335,109.599 C114.514,109.653 114.705,109.683 114.903,109.683 C115.831,109.683 116.608,109.037 116.806,108.174 L119.232,108.174 C119.428,109.037 120.202,109.683 121.132,109.683 C121.33,109.683 121.524,109.653 121.707,109.596 L122.908,111.667 C122.523,112.022 122.278,112.528 122.278,113.092 C122.278,113.657 122.523,114.165 122.908,114.517 L121.707,116.591 C121.524,116.534 121.33,116.504 121.132,116.504 z M130.456,111.154 C129.526,111.154 128.752,111.8 128.553,112.663 L126.13,112.663 C125.934,111.8 125.158,111.154 124.228,111.154 C124.032,111.154 123.838,111.184 123.66,111.238 L122.454,109.165 C122.841,108.81 123.082,108.304 123.082,107.742 C123.082,107.18 122.838,106.677 122.454,106.322 L123.66,104.249 C123.838,104.303 124.032,104.333 124.228,104.333 C125.158,104.333 125.934,103.687 126.13,102.824 L128.539,102.824 C128.705,103.726 129.501,104.409 130.456,104.409 C130.657,104.409 130.85,104.379 131.034,104.323 L132.207,106.342 C131.835,106.697 131.602,107.192 131.602,107.742 C131.602,107.757 131.604,107.769 131.604,107.782 C131.604,107.794 131.602,107.806 131.602,107.821 C131.602,108.371 131.835,108.866 132.205,109.219 L131.031,111.241 C130.85,111.184 130.654,111.154 130.456,111.154 z M139.78,41.777 C138.852,41.777 138.076,42.423 137.88,43.286 L135.454,43.286 C135.258,42.423 134.482,41.777 133.552,41.777 C133.356,41.777 133.165,41.807 132.984,41.861 L131.781,39.788 C132.163,39.433 132.406,38.93 132.406,38.368 C132.406,37.806 132.163,37.3 131.781,36.945 L132.984,34.872 C133.165,34.926 133.356,34.956 133.552,34.956 C134.482,34.956 135.258,34.31 135.454,33.447 L137.88,33.447 C138.076,34.31 138.852,34.956 139.78,34.956 C139.981,34.956 140.174,34.926 140.356,34.869 L141.559,36.943 C141.172,37.295 140.929,37.803 140.929,38.368 C140.929,38.93 141.172,39.438 141.559,39.79 L140.356,41.864 C140.174,41.807 139.981,41.777 139.78,41.777 z M130.451,68.525 C129.523,68.525 128.747,69.168 128.551,70.034 L126.125,70.034 C125.929,69.168 125.153,68.525 124.225,68.525 L124.223,68.525 C124.024,68.525 123.836,68.552 123.655,68.606 L122.452,66.533 C122.836,66.18 123.079,65.675 123.079,65.113 C123.079,64.551 122.836,64.045 122.452,63.693 L123.657,61.617 C123.836,61.673 124.027,61.7 124.225,61.7 C125.153,61.7 125.929,61.057 126.125,60.192 L128.551,60.192 C128.747,61.057 129.523,61.7 130.451,61.7 L130.456,61.7 C130.654,61.7 130.848,61.671 131.027,61.617 L132.23,63.688 C131.843,64.043 131.6,64.548 131.6,65.113 C131.6,65.677 131.843,66.183 132.23,66.538 L131.027,68.609 C130.845,68.554 130.652,68.525 130.451,68.525 z M130.456,29.606 C130.654,29.606 130.85,29.576 131.031,29.519 L132.234,31.593 C131.848,31.945 131.602,32.453 131.602,33.018 C131.602,33.582 131.845,34.088 132.234,34.443 L131.031,36.514 C130.85,36.457 130.654,36.427 130.456,36.427 C129.526,36.427 128.752,37.073 128.553,37.936 L126.13,37.936 C125.934,37.073 125.158,36.427 124.228,36.427 C124.032,36.427 123.838,36.457 123.66,36.511 L122.454,34.438 C122.841,34.083 123.082,33.58 123.082,33.018 C123.082,32.456 122.838,31.95 122.454,31.598 L123.66,29.522 C123.838,29.576 124.029,29.606 124.225,29.606 L124.228,29.606 C125.158,29.606 125.934,28.96 126.13,28.097 L128.553,28.097 C128.752,28.96 129.526,29.606 130.456,29.606 z M132.237,45.143 L131.034,47.214 C130.85,47.157 130.657,47.125 130.456,47.125 C129.379,47.125 128.506,47.993 128.506,49.065 C128.506,50.135 129.379,51.003 130.456,51.003 C130.657,51.003 130.85,50.973 131.034,50.917 L132.237,52.988 C131.848,53.34 131.602,53.848 131.602,54.413 C131.602,54.98 131.848,55.485 132.237,55.843 L131.034,57.911 C130.85,57.854 130.657,57.825 130.456,57.825 L130.451,57.825 C129.523,57.825 128.747,58.471 128.551,59.336 L126.125,59.336 C125.929,58.471 125.153,57.825 124.225,57.825 C123.149,57.825 122.275,58.693 122.275,59.763 C122.275,60.33 122.519,60.835 122.908,61.19 L121.705,63.261 C121.521,63.204 121.328,63.175 121.127,63.175 L121.124,63.175 C120.197,63.175 119.42,63.821 119.224,64.684 L116.799,64.684 C116.6,63.821 115.826,63.175 114.896,63.175 C113.82,63.175 112.946,64.043 112.946,65.113 C112.946,65.677 113.192,66.185 113.581,66.54 L112.378,68.609 C112.197,68.554 112.004,68.525 111.805,68.525 L111.8,68.525 C111.602,68.525 111.413,68.552 111.232,68.606 L110.032,66.535 C110.416,66.18 110.659,65.675 110.659,65.113 C110.659,64.043 109.786,63.175 108.707,63.175 C107.78,63.175 107.003,63.821 106.807,64.684 L104.381,64.684 C104.185,63.821 103.411,63.175 102.481,63.175 L102.479,63.175 C102.28,63.175 102.087,63.204 101.908,63.259 L100.703,61.188 C101.09,60.833 101.33,60.327 101.33,59.763 C101.33,58.693 100.457,57.825 99.381,57.825 C98.453,57.825 97.677,58.471 97.481,59.336 L95.055,59.336 C94.859,58.471 94.082,57.825 93.152,57.825 L93.147,57.825 C92.946,57.825 92.755,57.854 92.574,57.909 L91.371,55.838 C91.756,55.483 92.001,54.977 92.001,54.413 C92.001,53.851 91.756,53.345 91.371,52.993 L92.574,50.919 C92.755,50.973 92.946,51.003 93.147,51.003 C94.224,51.003 95.097,50.135 95.097,49.065 C95.097,47.993 94.224,47.125 93.147,47.125 C92.946,47.125 92.755,47.157 92.574,47.211 L91.371,45.138 C91.756,44.785 92.001,44.28 92.001,43.715 C92.001,43.153 91.756,42.648 91.371,42.293 L92.574,40.219 C92.755,40.276 92.946,40.306 93.147,40.306 L93.152,40.306 C94.082,40.306 94.859,39.66 95.055,38.794 L97.481,38.794 C97.677,39.66 98.453,40.306 99.381,40.306 C100.457,40.306 101.33,39.438 101.33,38.368 C101.33,37.803 101.09,37.298 100.703,36.943 L101.906,34.872 C102.087,34.926 102.278,34.956 102.474,34.956 L102.479,34.956 C103.407,34.956 104.183,34.31 104.379,33.447 L106.8,33.447 C106.998,34.31 107.772,34.956 108.702,34.956 C109.779,34.956 110.652,34.088 110.652,33.018 C110.652,32.453 110.409,31.948 110.024,31.595 L111.227,29.522 C111.409,29.576 111.6,29.606 111.798,29.606 L111.803,29.606 C112.004,29.606 112.197,29.576 112.381,29.519 L113.584,31.59 C113.194,31.945 112.949,32.451 112.949,33.018 C112.949,34.088 113.822,34.956 114.901,34.956 C115.829,34.956 116.605,34.31 116.801,33.447 L119.227,33.447 C119.423,34.31 120.199,34.956 121.127,34.956 L121.132,34.956 C121.333,34.956 121.526,34.926 121.71,34.869 L122.91,36.94 C122.523,37.295 122.278,37.801 122.278,38.368 C122.278,39.438 123.151,40.306 124.228,40.306 C125.158,40.306 125.934,39.66 126.13,38.794 L128.553,38.794 C128.752,39.66 129.526,40.306 130.456,40.306 C130.657,40.306 130.85,40.276 131.034,40.219 L132.237,42.288 C131.848,42.643 131.602,43.151 131.602,43.715 C131.602,44.282 131.848,44.788 132.237,45.143 z M108.707,73.872 C107.78,73.872 107.003,74.518 106.807,75.381 L104.381,75.381 C104.185,74.518 103.411,73.872 102.481,73.872 C102.283,73.872 102.092,73.902 101.913,73.956 L100.708,71.883 C101.092,71.528 101.335,71.025 101.335,70.463 C101.335,69.9 101.092,69.395 100.708,69.043 L101.913,66.967 C102.092,67.021 102.283,67.05 102.479,67.05 L102.481,67.05 C103.411,67.05 104.185,66.407 104.381,65.542 L106.807,65.542 C107.003,66.407 107.78,67.05 108.707,67.05 C108.908,67.05 109.102,67.021 109.283,66.967 L110.486,69.033 C110.094,69.388 109.848,69.896 109.848,70.463 C109.848,71.03 110.094,71.535 110.486,71.89 L109.283,73.959 C109.102,73.902 108.908,73.872 108.707,73.872 z M114.896,73.872 C114.7,73.872 114.509,73.902 114.328,73.956 L113.125,71.885 C113.512,71.533 113.758,71.027 113.758,70.463 C113.758,69.898 113.512,69.393 113.125,69.038 L114.328,66.967 C114.509,67.021 114.7,67.05 114.896,67.05 C115.826,67.05 116.6,66.407 116.799,65.542 L119.224,65.542 C119.42,66.407 120.197,67.05 121.124,67.05 L121.127,67.05 C121.328,67.05 121.519,67.021 121.7,66.967 L122.903,69.038 C122.516,69.393 122.273,69.898 122.273,70.463 C122.273,71.027 122.516,71.533 122.903,71.888 L121.7,73.959 C121.519,73.902 121.328,73.872 121.127,73.872 L121.124,73.872 C120.197,73.872 119.42,74.518 119.224,75.381 L116.799,75.381 C116.6,74.518 115.826,73.872 114.896,73.872 z M133.552,24.258 C134.482,24.258 135.258,23.612 135.454,22.747 L137.88,22.747 C138.076,23.612 138.852,24.258 139.78,24.258 C139.981,24.258 140.174,24.226 140.356,24.172 L141.559,26.243 C141.172,26.598 140.929,27.103 140.929,27.668 C140.929,28.232 141.172,28.738 141.559,29.093 L140.356,31.164 C140.174,31.11 139.981,31.08 139.78,31.08 C138.852,31.08 138.076,31.723 137.88,32.589 L135.454,32.589 C135.256,31.723 134.482,31.08 133.552,31.08 C133.356,31.08 133.165,31.107 132.984,31.164 L131.781,29.088 C132.163,28.735 132.406,28.23 132.406,27.668 C132.406,27.106 132.163,26.6 131.781,26.248 L132.984,24.172 C133.165,24.226 133.356,24.258 133.552,24.258 z M114.901,24.258 C115.829,24.258 116.605,23.612 116.801,22.747 L119.227,22.747 C119.423,23.612 120.199,24.258 121.127,24.258 C121.328,24.258 121.521,24.226 121.702,24.172 L122.905,26.243 C122.519,26.598 122.275,27.103 122.275,27.668 C122.275,28.232 122.519,28.738 122.905,29.093 L121.702,31.164 C121.521,31.107 121.33,31.08 121.132,31.08 L121.127,31.08 C120.199,31.08 119.423,31.723 119.227,32.589 L116.801,32.589 C116.605,31.723 115.829,31.08 114.901,31.08 C114.703,31.08 114.512,31.107 114.331,31.164 L113.127,29.088 C113.512,28.735 113.755,28.23 113.755,27.668 C113.755,27.106 113.512,26.6 113.127,26.248 L114.331,24.172 C114.512,24.226 114.703,24.258 114.901,24.258 z M102.474,24.258 C103.404,24.258 104.18,23.612 104.376,22.747 L106.802,22.747 C106.998,23.612 107.772,24.258 108.702,24.258 C108.901,24.258 109.097,24.226 109.278,24.172 L110.481,26.243 C110.094,26.598 109.848,27.103 109.848,27.668 C109.848,28.232 110.094,28.738 110.481,29.093 L109.278,31.164 C109.097,31.11 108.901,31.08 108.702,31.08 C107.772,31.08 106.998,31.723 106.802,32.589 L104.379,32.589 C104.183,31.723 103.407,31.08 102.479,31.08 L102.474,31.08 C102.278,31.08 102.087,31.107 101.906,31.161 L100.703,29.09 C101.09,28.735 101.33,28.23 101.33,27.668 C101.33,27.103 101.09,26.598 100.703,26.245 L101.906,24.172 C102.084,24.226 102.278,24.258 102.474,24.258 z M93.152,29.606 C94.082,29.606 94.859,28.96 95.055,28.097 L97.478,28.097 C97.674,28.96 98.448,29.606 99.378,29.606 L99.381,29.606 C99.582,29.606 99.773,29.576 99.956,29.522 L101.157,31.59 C100.77,31.945 100.524,32.451 100.524,33.018 C100.524,33.582 100.77,34.09 101.157,34.445 L99.956,36.514 C99.775,36.457 99.582,36.427 99.381,36.427 C98.453,36.427 97.677,37.073 97.478,37.936 L95.055,37.936 C94.859,37.073 94.082,36.427 93.152,36.427 L93.147,36.427 C92.951,36.427 92.763,36.457 92.584,36.511 L91.381,34.438 C91.766,34.083 92.006,33.58 92.006,33.018 C92.006,32.456 91.766,31.95 91.381,31.598 L92.584,29.522 C92.765,29.576 92.956,29.606 93.152,29.606 z M82.047,36.945 L83.253,34.872 C83.434,34.926 83.625,34.956 83.823,34.956 C84.751,34.956 85.527,34.31 85.723,33.447 L88.149,33.447 C88.345,34.31 89.119,34.956 90.049,34.956 L90.057,34.956 C90.255,34.956 90.446,34.926 90.625,34.872 L91.828,36.943 C91.441,37.295 91.195,37.803 91.195,38.368 C91.195,38.93 91.441,39.438 91.828,39.79 L90.625,41.864 C90.444,41.807 90.25,41.777 90.049,41.777 C89.119,41.777 88.345,42.423 88.149,43.286 L85.723,43.286 C85.527,42.423 84.751,41.777 83.823,41.777 C83.625,41.777 83.434,41.807 83.253,41.861 L82.047,39.788 C82.434,39.433 82.675,38.93 82.675,38.368 C82.675,37.806 82.434,37.3 82.047,36.945 z M82.047,47.643 L83.253,45.572 C83.434,45.623 83.625,45.656 83.823,45.656 C84.751,45.656 85.527,45.007 85.723,44.144 L88.149,44.144 C88.345,45.007 89.119,45.656 90.049,45.656 C90.25,45.656 90.444,45.623 90.625,45.569 L91.828,47.64 C91.441,47.993 91.195,48.501 91.195,49.065 C91.195,49.63 91.441,50.135 91.828,50.49 L90.625,52.561 C90.444,52.507 90.25,52.475 90.049,52.475 C89.119,52.475 88.345,53.121 88.149,53.986 L85.723,53.986 C85.527,53.121 84.751,52.475 83.823,52.475 C83.625,52.475 83.434,52.507 83.253,52.559 L82.047,50.485 C82.434,50.133 82.675,49.627 82.675,49.065 C82.675,48.503 82.434,47.998 82.047,47.643 z M83.823,63.175 C83.625,63.175 83.434,63.204 83.253,63.259 L82.047,61.185 C82.434,60.83 82.675,60.325 82.675,59.763 C82.675,59.201 82.434,58.698 82.047,58.343 L83.253,56.269 C83.434,56.323 83.625,56.353 83.823,56.353 C84.751,56.353 85.527,55.707 85.723,54.844 L88.149,54.844 C88.345,55.707 89.119,56.353 90.049,56.353 C90.25,56.353 90.444,56.323 90.625,56.267 L91.828,58.338 C91.441,58.693 91.195,59.198 91.195,59.763 C91.195,60.327 91.441,60.835 91.828,61.188 L90.625,63.259 C90.446,63.204 90.255,63.175 90.057,63.175 L90.049,63.175 C89.119,63.175 88.345,63.821 88.149,64.684 L85.723,64.684 C85.527,63.821 84.751,63.175 83.823,63.175 z M93.152,68.525 C92.956,68.525 92.765,68.554 92.584,68.609 L91.381,66.533 C91.766,66.18 92.006,65.675 92.006,65.113 C92.006,64.551 91.766,64.045 91.381,63.693 L92.584,61.619 C92.763,61.673 92.951,61.7 93.147,61.7 L93.152,61.7 C94.082,61.7 94.859,61.057 95.055,60.192 L97.478,60.192 C97.677,61.057 98.453,61.7 99.381,61.7 C99.582,61.7 99.775,61.671 99.956,61.617 L101.159,63.688 C100.772,64.043 100.527,64.548 100.527,65.113 C100.527,65.677 100.772,66.183 101.159,66.538 L99.956,68.609 C99.775,68.554 99.584,68.525 99.383,68.525 L99.381,68.525 C98.453,68.525 97.677,69.168 97.478,70.034 L95.055,70.034 C94.859,69.168 94.082,68.525 93.152,68.525 z M131.6,75.813 C131.6,75.842 131.602,75.874 131.604,75.904 C131.604,75.911 131.602,75.919 131.602,75.928 C131.602,76.468 131.828,76.959 132.187,77.312 L131.027,79.309 C130.845,79.252 130.652,79.222 130.451,79.222 C129.523,79.222 128.747,79.868 128.551,80.731 L126.125,80.731 C125.929,79.868 125.153,79.222 124.225,79.222 C124.027,79.222 123.836,79.252 123.657,79.306 L122.452,77.233 C122.836,76.878 123.079,76.375 123.079,75.813 C123.079,75.25 122.836,74.745 122.452,74.39 L123.655,72.317 C123.836,72.371 124.024,72.4 124.223,72.4 L124.225,72.4 C125.153,72.4 125.929,71.754 126.125,70.892 L128.551,70.892 C128.747,71.754 129.523,72.4 130.451,72.4 C130.652,72.4 130.845,72.371 131.027,72.314 L132.23,74.388 C131.843,74.74 131.6,75.248 131.6,75.813 z M141.559,93.312 L140.413,95.289 C140.214,95.22 140.001,95.183 139.78,95.183 C138.852,95.183 138.076,95.829 137.88,96.692 L135.454,96.692 C135.258,95.829 134.482,95.183 133.552,95.183 C133.336,95.183 133.125,95.22 132.929,95.287 L131.781,93.31 C132.163,92.955 132.406,92.449 132.406,91.887 C132.406,91.325 132.163,90.822 131.781,90.467 L132.941,88.465 C133.135,88.529 133.341,88.564 133.552,88.564 C134.482,88.564 135.256,87.918 135.454,87.055 L137.88,87.055 C138.076,87.918 138.852,88.564 139.78,88.564 C139.996,88.564 140.204,88.527 140.398,88.463 L141.559,90.462 C141.172,90.817 140.929,91.323 140.929,91.887 C140.929,92.452 141.172,92.96 141.559,93.312 z M139.78,77.866 C139.981,77.866 140.174,77.834 140.356,77.78 L141.526,79.794 C141.157,80.147 140.929,80.642 140.929,81.19 C140.929,81.204 140.929,81.219 140.931,81.232 C140.929,81.246 140.929,81.261 140.929,81.276 C140.929,81.826 141.157,82.319 141.526,82.671 L140.356,84.686 C140.174,84.629 139.981,84.599 139.78,84.599 C138.852,84.599 138.076,85.245 137.88,86.108 L135.454,86.108 C135.258,85.245 134.482,84.599 133.552,84.599 C133.356,84.599 133.165,84.629 132.984,84.683 L131.813,82.666 C132.177,82.314 132.406,81.823 132.406,81.276 L132.406,81.19 C132.406,81.116 132.401,81.042 132.393,80.97 C132.349,80.507 132.138,80.09 131.823,79.782 L132.984,77.78 C133.165,77.834 133.356,77.866 133.552,77.866 C134.482,77.866 135.258,77.22 135.454,76.355 L137.88,76.355 C138.076,77.22 138.852,77.866 139.78,77.866 z M141.559,61.188 L140.356,63.261 C140.174,63.204 139.981,63.175 139.78,63.175 C138.852,63.175 138.076,63.821 137.88,64.684 L135.454,64.684 C135.258,63.821 134.482,63.175 133.552,63.175 L133.549,63.175 C133.353,63.175 133.162,63.204 132.984,63.259 L131.781,61.185 C132.163,60.83 132.406,60.325 132.406,59.763 C132.406,59.201 132.163,58.698 131.781,58.343 L132.984,56.269 C133.165,56.323 133.356,56.353 133.552,56.353 C134.482,56.353 135.258,55.707 135.454,54.844 L137.88,54.844 C138.076,55.707 138.852,56.353 139.78,56.353 C139.981,56.353 140.174,56.323 140.356,56.267 L141.559,58.338 C141.172,58.693 140.929,59.198 140.929,59.763 C140.929,60.327 141.172,60.835 141.559,61.188 z M141.559,50.49 L140.356,52.561 C140.174,52.507 139.981,52.475 139.78,52.475 C138.852,52.475 138.076,53.121 137.88,53.986 L135.454,53.986 C135.258,53.121 134.482,52.475 133.552,52.475 C133.356,52.475 133.165,52.507 132.984,52.559 L131.781,50.485 C132.163,50.133 132.406,49.627 132.406,49.065 C132.406,48.503 132.163,47.998 131.781,47.643 L132.984,45.572 C133.165,45.623 133.356,45.656 133.552,45.656 C134.482,45.656 135.258,45.007 135.454,44.144 L137.88,44.144 C138.076,45.007 138.852,45.656 139.78,45.656 C139.981,45.656 140.174,45.623 140.356,45.569 L141.559,47.64 C141.172,47.993 140.929,48.501 140.929,49.065 C140.929,49.63 141.172,50.135 141.559,50.49 z M142.878,40.306 C143.955,40.306 144.828,39.438 144.828,38.368 C144.828,37.295 143.955,36.427 142.878,36.427 C142.68,36.427 142.489,36.457 142.305,36.514 L141.102,34.44 C141.489,34.085 141.73,33.58 141.73,33.018 C141.73,32.453 141.489,31.948 141.102,31.595 L142.305,29.522 C142.489,29.576 142.68,29.606 142.878,29.606 C143.955,29.606 144.828,28.738 144.828,27.668 C144.828,26.598 143.955,25.73 142.878,25.73 C142.68,25.73 142.489,25.76 142.305,25.814 L141.102,23.743 C141.489,23.385 141.73,22.88 141.73,22.318 C141.73,21.248 140.857,20.38 139.78,20.38 C138.852,20.38 138.076,21.026 137.88,21.891 L135.454,21.891 C135.258,21.026 134.482,20.38 133.552,20.38 C132.475,20.38 131.602,21.248 131.602,22.318 C131.602,22.882 131.848,23.39 132.237,23.745 L131.034,25.816 C130.847,25.759 130.652,25.73 130.456,25.73 C129.526,25.73 128.752,26.373 128.553,27.239 L126.13,27.239 C125.934,26.373 125.158,25.73 124.228,25.73 L124.225,25.73 C124.027,25.73 123.833,25.76 123.655,25.814 L122.449,23.743 C122.836,23.385 123.079,22.882 123.079,22.318 C123.079,21.248 122.206,20.38 121.127,20.38 C120.199,20.38 119.423,21.026 119.227,21.891 L116.801,21.891 C116.605,21.026 115.829,20.38 114.901,20.38 C113.822,20.38 112.949,21.248 112.949,22.318 C112.949,22.882 113.194,23.39 113.584,23.745 L112.381,25.816 C112.194,25.759 111.999,25.73 111.803,25.73 L111.798,25.73 C111.6,25.73 111.409,25.76 111.227,25.814 L110.024,23.743 C110.409,23.385 110.652,22.882 110.652,22.318 C110.652,21.248 109.779,20.38 108.702,20.38 C107.772,20.38 106.998,21.026 106.8,21.891 L104.376,21.891 C104.18,21.026 103.404,20.38 102.474,20.38 C101.397,20.38 100.524,21.248 100.524,22.318 C100.524,22.882 100.77,23.39 101.157,23.745 L99.956,25.814 C99.773,25.76 99.582,25.73 99.381,25.73 L99.378,25.73 C98.448,25.73 97.674,26.373 97.478,27.239 L95.055,27.239 C94.859,26.373 94.082,25.73 93.152,25.73 C92.076,25.73 91.203,26.598 91.203,27.668 C91.203,28.232 91.448,28.74 91.838,29.095 L90.635,31.164 C90.451,31.11 90.258,31.08 90.057,31.08 L90.049,31.08 C89.119,31.08 88.345,31.723 88.149,32.589 L85.723,32.589 C85.527,31.723 84.751,31.08 83.823,31.08 C82.744,31.08 81.871,31.948 81.871,33.018 C81.871,33.582 82.117,34.09 82.504,34.443 L81.303,36.514 C81.12,36.457 80.926,36.427 80.725,36.427 C79.649,36.427 78.773,37.295 78.773,38.368 C78.773,39.438 79.649,40.306 80.725,40.306 C80.926,40.306 81.12,40.276 81.303,40.219 L82.504,42.288 C82.117,42.643 81.871,43.151 81.871,43.715 C81.871,44.282 82.117,44.788 82.504,45.143 L81.303,47.214 C81.12,47.157 80.926,47.125 80.725,47.125 C79.649,47.125 78.773,47.993 78.773,49.065 C78.773,50.135 79.649,51.003 80.725,51.003 C80.926,51.003 81.12,50.973 81.303,50.917 L82.504,52.988 C82.117,53.34 81.871,53.848 81.871,54.413 C81.871,54.98 82.117,55.485 82.504,55.843 L81.303,57.911 C81.12,57.854 80.926,57.825 80.725,57.825 C79.649,57.825 78.773,58.693 78.773,59.763 C78.773,60.833 79.649,61.7 80.725,61.7 C80.926,61.7 81.12,61.671 81.303,61.614 L82.504,63.685 C82.117,64.04 81.871,64.548 81.871,65.113 C81.871,66.183 82.744,67.05 83.823,67.05 C84.751,67.05 85.527,66.407 85.723,65.542 L88.149,65.542 C88.345,66.407 89.119,67.05 90.049,67.05 L90.057,67.05 C90.258,67.05 90.451,67.021 90.635,66.964 L91.838,69.035 C91.448,69.39 91.203,69.898 91.203,70.463 C91.203,71.533 92.076,72.4 93.152,72.4 C94.082,72.4 94.859,71.754 95.055,70.892 L97.481,70.892 C97.677,71.754 98.453,72.4 99.381,72.4 L99.383,72.4 C99.584,72.4 99.78,72.371 99.961,72.314 L101.164,74.385 C100.777,74.74 100.529,75.246 100.529,75.813 C100.529,76.883 101.405,77.75 102.481,77.75 C103.411,77.75 104.185,77.104 104.381,76.239 L106.807,76.239 C107.003,77.104 107.78,77.75 108.707,77.75 C109.786,77.75 110.659,76.883 110.659,75.813 C110.659,75.248 110.416,74.743 110.032,74.388 L111.232,72.317 C111.413,72.371 111.602,72.4 111.8,72.4 L111.805,72.4 C112.004,72.4 112.197,72.371 112.378,72.317 L113.581,74.385 C113.192,74.74 112.946,75.246 112.946,75.813 C112.946,76.883 113.82,77.75 114.896,77.75 C115.826,77.75 116.6,77.104 116.799,76.239 L119.224,76.239 C119.42,77.104 120.197,77.75 121.124,77.75 L121.127,77.75 C121.328,77.75 121.521,77.721 121.705,77.664 L122.908,79.733 C122.519,80.088 122.275,80.595 122.275,81.16 C122.275,82.233 123.149,83.1 124.225,83.1 C125.153,83.1 125.929,82.452 126.125,81.589 L128.534,81.589 C128.685,82.511 129.486,83.216 130.456,83.216 C130.657,83.216 130.85,83.184 131.034,83.127 L132.202,85.142 C131.835,85.494 131.602,85.99 131.602,86.54 C131.602,86.554 131.604,86.567 131.604,86.582 C131.604,86.596 131.602,86.611 131.602,86.626 C131.602,87.176 131.833,87.669 132.202,88.021 L131.034,90.036 C130.85,89.979 130.657,89.949 130.456,89.949 C129.379,89.949 128.506,90.817 128.506,91.887 C128.506,92.96 129.379,93.827 130.456,93.827 C130.657,93.827 130.85,93.795 131.034,93.741 L132.192,95.736 C131.83,96.086 131.602,96.579 131.602,97.121 C131.602,97.141 131.604,97.161 131.604,97.18 C131.604,97.198 131.602,97.217 131.602,97.237 C131.602,97.782 131.83,98.273 132.192,98.625 L131.069,100.556 C130.878,100.491 130.669,100.454 130.456,100.454 C129.526,100.454 128.752,101.1 128.553,101.966 L126.13,101.966 C125.934,101.1 125.158,100.454 124.228,100.454 C123.151,100.454 122.278,101.322 122.278,102.395 C122.278,102.959 122.523,103.467 122.91,103.82 L121.71,105.891 C121.526,105.834 121.333,105.804 121.132,105.804 C120.202,105.804 119.428,106.45 119.232,107.313 L116.806,107.313 C116.608,106.45 115.831,105.804 114.903,105.804 C113.827,105.804 112.954,106.672 112.954,107.742 C112.954,108.309 113.197,108.815 113.586,109.17 L112.383,111.241 C112.202,111.184 112.006,111.154 111.805,111.154 L111.798,111.154 C111.6,111.154 111.409,111.184 111.227,111.238 L110.024,109.165 C110.409,108.812 110.652,108.307 110.652,107.742 C110.652,106.672 109.779,105.804 108.702,105.804 C107.772,105.804 106.998,106.45 106.802,107.313 L104.376,107.313 C104.18,106.45 103.404,105.804 102.474,105.804 L102.454,105.804 C102.256,105.804 102.065,105.834 101.884,105.891 L100.68,103.817 C101.065,103.462 101.308,102.957 101.308,102.395 C101.308,101.322 100.435,100.454 99.358,100.454 C98.428,100.454 97.652,101.1 97.456,101.966 L95.067,101.966 C94.899,101.066 94.105,100.383 93.15,100.383 C92.951,100.383 92.76,100.413 92.579,100.467 L91.386,98.418 C91.587,98.226 91.743,97.994 91.845,97.735 C91.947,97.501 92.004,97.242 92.004,96.973 C92.004,96.968 92.001,96.966 92.001,96.961 C92.001,96.958 92.004,96.954 92.004,96.951 C92.004,96.387 91.761,95.881 91.376,95.529 L92.54,93.522 C92.726,93.581 92.924,93.613 93.13,93.613 C94.028,93.613 94.784,93.009 95.01,92.188 C95.067,92.003 95.102,91.806 95.102,91.601 C95.102,90.531 94.226,89.663 93.15,89.663 C92.951,89.663 92.76,89.693 92.579,89.747 L91.374,87.674 C91.761,87.321 92.004,86.816 92.004,86.254 C92.004,85.181 91.131,84.313 90.052,84.313 C89.124,84.313 88.348,84.959 88.152,85.822 L85.726,85.822 C85.53,84.959 84.753,84.313 83.826,84.313 C82.749,84.313 81.874,85.181 81.874,86.254 C81.874,86.818 82.119,87.326 82.509,87.679 L81.306,89.75 C81.122,89.693 80.929,89.663 80.728,89.663 C79.651,89.663 78.778,90.531 78.778,91.601 C78.778,92.674 79.651,93.541 80.728,93.541 C80.929,93.541 81.122,93.509 81.306,93.453 L82.509,95.524 C82.119,95.879 81.874,96.384 81.874,96.951 C81.874,96.954 81.876,96.958 81.876,96.961 C81.876,96.966 81.874,96.968 81.874,96.973 C81.874,97.538 82.119,98.043 82.509,98.398 L81.306,100.469 C81.119,100.412 80.924,100.383 80.728,100.383 C79.651,100.383 78.778,101.251 78.778,102.321 C78.778,103.393 79.651,104.261 80.728,104.261 C80.929,104.261 81.122,104.229 81.306,104.175 L82.509,106.243 C82.119,106.598 81.874,107.106 81.874,107.671 C81.874,108.741 82.749,109.609 83.826,109.609 C84.753,109.609 85.53,108.963 85.726,108.1 L88.117,108.1 C88.286,109 89.079,109.683 90.034,109.683 C90.235,109.683 90.429,109.653 90.61,109.596 L91.813,111.667 C91.426,112.02 91.18,112.528 91.18,113.092 C91.18,114.162 92.053,115.03 93.13,115.03 C94.06,115.03 94.834,114.387 95.032,113.521 L97.456,113.521 C97.652,114.387 98.428,115.03 99.358,115.03 L99.378,115.03 C99.579,115.03 99.773,115 99.956,114.944 L101.157,117.015 C100.77,117.37 100.524,117.878 100.524,118.442 C100.524,119.512 101.397,120.38 102.474,120.38 C103.404,120.38 104.18,119.737 104.376,118.871 L106.802,118.871 C106.998,119.737 107.772,120.38 108.702,120.38 C109.779,120.38 110.652,119.512 110.652,118.442 C110.652,117.88 110.409,117.375 110.024,117.02 L111.227,114.946 C111.409,115 111.6,115.03 111.798,115.03 L111.805,115.03 C112.006,115.03 112.202,115 112.383,114.944 L113.586,117.015 C113.197,117.37 112.954,117.878 112.954,118.442 C112.954,119.512 113.827,120.38 114.903,120.38 C115.831,120.38 116.608,119.737 116.806,118.871 L119.232,118.871 C119.428,119.737 120.202,120.38 121.132,120.38 C122.208,120.38 123.082,119.512 123.082,118.442 C123.082,117.88 122.838,117.375 122.452,117.02 L123.657,114.946 C123.838,115 124.029,115.03 124.228,115.03 C125.158,115.03 125.934,114.387 126.13,113.521 L128.553,113.521 C128.752,114.387 129.526,115.03 130.456,115.03 C131.533,115.03 132.406,114.162 132.406,113.092 C132.406,112.53 132.163,112.025 131.778,111.67 L132.944,109.66 C133.135,109.724 133.341,109.759 133.552,109.759 C134.482,109.759 135.258,109.113 135.454,108.248 L137.88,108.248 C138.076,109.113 138.852,109.759 139.78,109.759 C140.857,109.759 141.73,108.891 141.73,107.821 C141.73,107.257 141.489,106.751 141.102,106.396 L142.305,104.325 C142.489,104.379 142.68,104.409 142.878,104.409 C143.955,104.409 144.828,103.541 144.828,102.471 C144.828,101.401 143.955,100.533 142.878,100.533 C142.68,100.533 142.489,100.563 142.305,100.617 L141.147,98.62 C141.506,98.268 141.73,97.779 141.73,97.237 C141.73,97.217 141.727,97.198 141.727,97.18 C141.727,97.161 141.73,97.141 141.73,97.121 C141.73,96.579 141.506,96.091 141.147,95.738 L142.305,93.741 C142.489,93.798 142.68,93.827 142.878,93.827 C143.955,93.827 144.828,92.96 144.828,91.887 C144.828,90.817 143.955,89.949 142.878,89.949 C142.68,89.949 142.489,89.979 142.305,90.033 L141.137,88.019 C141.502,87.666 141.73,87.173 141.73,86.626 C141.73,86.611 141.73,86.596 141.727,86.582 C141.73,86.567 141.73,86.554 141.73,86.54 C141.73,85.992 141.502,85.499 141.137,85.147 L142.305,83.13 C142.489,83.184 142.68,83.216 142.878,83.216 C143.955,83.216 144.828,82.348 144.828,81.276 C144.828,81.261 144.825,81.246 144.825,81.232 C144.825,81.219 144.828,81.204 144.828,81.19 C144.828,80.12 143.955,79.252 142.878,79.252 C142.68,79.252 142.489,79.281 142.305,79.336 L141.137,77.319 C141.502,76.966 141.73,76.473 141.73,75.928 C141.73,75.914 141.73,75.899 141.727,75.884 C141.73,75.869 141.73,75.854 141.73,75.84 C141.73,74.77 140.857,73.902 139.78,73.902 C138.852,73.902 138.076,74.545 137.88,75.411 L135.459,75.411 C135.273,74.533 134.489,73.872 133.549,73.872 C133.351,73.872 133.16,73.902 132.979,73.959 L131.773,71.885 C132.16,71.53 132.403,71.025 132.403,70.463 C132.403,69.898 132.16,69.395 131.773,69.04 L132.979,66.967 C133.16,67.021 133.351,67.05 133.549,67.05 L133.552,67.05 C134.482,67.05 135.256,66.407 135.454,65.542 L137.88,65.542 C138.076,66.407 138.852,67.05 139.78,67.05 C140.857,67.05 141.73,66.183 141.73,65.113 C141.73,64.551 141.489,64.045 141.102,63.69 L142.305,61.617 C142.489,61.671 142.68,61.7 142.878,61.7 C143.955,61.7 144.828,60.833 144.828,59.763 C144.828,58.693 143.955,57.825 142.878,57.825 C142.68,57.825 142.489,57.854 142.305,57.909 L141.102,55.838 C141.489,55.483 141.73,54.977 141.73,54.413 C141.73,53.851 141.489,53.345 141.102,52.993 L142.305,50.919 C142.489,50.973 142.68,51.003 142.878,51.003 C143.955,51.003 144.828,50.135 144.828,49.065 C144.828,47.993 143.955,47.125 142.878,47.125 C142.68,47.125 142.489,47.157 142.305,47.211 L141.102,45.138 C141.489,44.785 141.73,44.28 141.73,43.715 C141.73,43.153 141.489,42.648 141.102,42.293 L142.305,40.219 C142.489,40.276 142.68,40.306 142.878,40.306 z" fill="#000000"/>
    <path d="M198.387,70.362 L211.498,70.362 L211.498,86.744 Q208.934,87.818 206.029,88.343 Q203.124,88.868 199.852,88.868 Q194.164,88.868 190.27,86.708 Q186.375,84.547 184.374,80.445 Q182.372,76.344 182.372,70.582 Q182.372,65.211 184.557,61.036 Q186.742,56.861 190.819,54.493 Q194.896,52.125 200.584,52.125 Q203.514,52.125 206.114,52.662 Q208.714,53.199 211.058,54.274 L210.057,56.52 Q207.738,55.445 205.333,54.908 Q202.928,54.371 200.462,54.371 Q195.628,54.371 192.149,56.434 Q188.67,58.497 186.827,62.147 Q184.984,65.797 184.984,70.558 Q184.984,75.953 186.766,79.518 Q188.548,83.082 191.979,84.864 Q195.409,86.647 200.316,86.647 Q203.001,86.647 205.138,86.256 Q207.274,85.865 209.007,85.231 L209.007,72.657 L198.387,72.657 z M242.625,52.687 Q246.873,52.687 249.717,53.614 Q252.561,54.542 254.001,56.666 Q255.442,58.79 255.442,62.403 Q255.442,65.113 254.453,67.054 Q253.464,68.995 251.731,70.24 Q249.998,71.485 247.727,72.145 L257.517,88.38 L254.539,88.38 L245.334,72.853 L236.472,72.853 L236.472,88.38 L233.958,88.38 L233.958,52.687 z M242.38,54.908 L236.472,54.908 L236.472,70.631 L243.577,70.631 Q247.947,70.631 250.4,68.531 Q252.854,66.432 252.854,62.501 Q252.854,58.18 250.266,56.544 Q247.678,54.908 242.38,54.908 z M299.508,88.38 L294.65,75.758 L279.66,75.758 L274.704,88.38 L272.14,88.38 L286.178,52.565 L288.473,52.565 L302.145,88.38 z M293.844,73.487 L288.913,60.109 Q288.717,59.596 288.437,58.79 Q288.156,57.984 287.851,57.081 Q287.545,56.178 287.252,55.372 Q287.008,56.227 286.715,57.081 Q286.422,57.936 286.154,58.729 Q285.885,59.523 285.641,60.157 L280.514,73.487 z M336.153,88.38 L323.042,55.421 L322.92,55.421 Q322.969,56.324 323.006,57.313 Q323.042,58.302 323.067,59.376 Q323.091,60.45 323.091,61.622 L323.091,88.38 L320.699,88.38 L320.699,52.687 L324.507,52.687 L337.154,84.474 L337.3,84.474 L350.044,52.687 L353.755,52.687 L353.755,88.38 L351.29,88.38 L351.29,61.329 Q351.29,60.377 351.314,59.376 Q351.338,58.375 351.375,57.386 Q351.412,56.398 351.46,55.47 L351.314,55.47 L338.155,88.38 z M377.363,88.38 L377.363,52.687 L379.877,52.687 L379.877,88.38 z M429.437,88.38 L426.874,88.38 L405.78,56.813 L405.658,56.813 Q405.707,58.131 405.743,59.486 Q405.78,60.841 405.816,62.269 Q405.853,63.697 405.853,65.211 L405.853,88.38 L403.46,88.38 L403.46,52.687 L406.048,52.687 L427.069,84.156 L427.191,84.156 Q427.167,83.082 427.13,81.666 Q427.093,80.25 427.057,78.761 Q427.02,77.272 427.02,75.953 L427.02,52.687 L429.437,52.687 z M472.527,88.38 L453.02,88.38 L453.02,52.687 L472.527,52.687 L472.527,54.957 L455.535,54.957 L455.535,68.483 L471.575,68.483 L471.575,70.753 L455.535,70.753 L455.535,86.109 L472.527,86.109 z" fill="#000000"/>
  </g>
</svg>
