<svg version="1.1" id="Layer_1" xmlns="http://www.w3.org/2000/svg" xmlns:xlink="http://www.w3.org/1999/xlink" x="0px" y="0px"
	 width="100%" viewBox="0 0 149 150" enable-background="new 0 0 149 150" xml:space="preserve">
<path fill="#000000" opacity="1.000000" stroke="none" 
	d="
M73.000000,151.000000 
	C49.017677,151.000000 25.035355,151.000000 1.026515,151.000000 
	C1.026515,101.054512 1.026515,51.109013 1.026515,1.081755 
	C50.575462,1.081755 100.151100,1.081755 149.863373,1.081755 
	C149.863373,50.999767 149.863373,100.999825 149.863373,151.000000 
	C125.901848,151.000000 101.919579,151.000000 77.310493,150.637131 
	C76.514076,147.549118 76.344475,144.823990 76.174881,142.098846 
	C76.680016,142.103806 77.185150,142.108749 77.690285,142.113693 
	C77.558037,143.421829 77.425797,144.729950 77.252098,146.448135 
	C84.614662,143.338257 91.499046,140.430344 98.978561,137.271057 
	C98.367615,139.814056 97.936104,141.610199 97.504585,143.406342 
	C97.932404,143.670273 98.360229,143.934204 98.788048,144.198135 
	C100.931107,141.307068 103.001259,138.357620 105.249069,135.550415 
	C106.315651,134.218399 107.721375,133.157928 108.984146,131.984711 
	C108.994835,131.994980 109.017754,132.011017 109.030365,132.344421 
	C110.621292,136.060928 111.376884,133.908478 112.069313,132.188187 
	C114.084831,127.180725 116.043854,122.150536 118.511459,115.896423 
	C118.946457,119.171364 119.196709,121.055405 119.446960,122.939445 
	C119.770180,122.914955 120.093399,122.890472 120.416618,122.865990 
	C121.779282,116.112457 123.141953,109.358932 124.798187,101.150452 
	C125.308624,107.099953 125.691483,111.562546 126.185371,117.319176 
	C130.844177,108.313698 129.799896,99.786903 129.947388,91.379601 
	C130.796722,93.967796 131.646072,96.556000 132.495422,99.144196 
	C133.054367,98.966751 133.613327,98.789307 134.172272,98.611862 
	C133.126221,91.281670 131.986374,83.962753 131.103149,76.612991 
	C130.894714,74.878395 131.550003,73.040016 131.807953,71.249374 
	C131.995544,67.888397 126.881462,64.934868 131.827209,61.035057 
	C124.373070,47.702290 116.059532,35.084866 103.682465,25.476559 
	C104.085197,24.956409 104.487938,24.436260 104.890671,23.916113 
	C108.967751,24.369390 113.044830,24.822670 117.121910,25.275949 
	C116.529160,23.681067 115.735100,22.729803 114.768951,22.499037 
	C109.478561,21.235415 104.192467,19.766973 98.814392,19.111067 
	C93.696632,18.486910 92.900200,17.515585 95.620750,13.036663 
	C96.664963,11.317547 97.782303,9.642856 98.866325,7.947921 
	C96.947739,7.547889 95.744057,7.740901 95.017654,8.434072 
	C91.794655,11.509635 88.666588,14.688442 85.583450,17.905855 
	C81.634605,22.026676 78.345116,21.804087 75.456268,17.277573 
	C72.742035,13.024659 69.867149,8.874275 66.341133,3.598826 
	C65.950813,10.361964 72.176430,15.712955 67.650421,20.636301 
	C62.872734,16.789621 58.610352,13.357837 54.347973,9.926051 
	C53.935860,10.369072 53.523746,10.812094 53.111633,11.255115 
	C54.611271,13.503331 56.110909,15.751548 58.350407,19.108944 
	C52.360405,17.882624 47.497368,16.887024 42.634331,15.891426 
	C42.397335,16.460407 42.160339,17.029390 41.923344,17.598372 
	C45.203602,20.314188 48.483856,23.030003 52.523590,26.374611 
	C40.293671,30.489260 29.038601,33.059311 19.521492,39.609314 
	C19.659260,40.029858 19.797028,40.450401 19.934795,40.870945 
	C23.619122,39.907879 27.303450,38.944817 30.996159,37.993114 
	C31.004541,38.004475 31.025438,38.025593 30.975765,38.367199 
	C29.468010,40.228992 28.073988,41.817482 26.539742,43.256470 
	C22.063545,47.454727 17.281090,51.392254 14.052328,58.247265 
	C17.145903,56.499287 19.076004,55.408710 21.006104,54.318138 
	C21.284384,54.543324 21.562666,54.768513 21.840948,54.993702 
	C18.880770,60.228725 15.920592,65.463753 12.960416,70.698776 
	C13.234009,70.885513 13.507602,71.072243 13.781195,71.258972 
	C15.845514,69.830750 17.909834,68.402527 19.984768,66.984810 
	C19.995380,66.995323 20.018366,67.012032 19.952200,67.394775 
	C17.162273,78.302940 15.624423,88.956612 15.091277,99.718941 
	C15.652152,99.795242 16.213026,99.871552 16.773901,99.947861 
	C17.662367,95.796661 18.550833,91.645470 19.569899,86.884064 
	C20.094973,93.232414 20.524096,98.952736 21.062002,104.662811 
	C21.277718,106.952698 21.539080,109.505295 24.973652,107.177017 
	C28.754261,113.177795 27.742727,121.541183 34.668179,126.719467 
	C34.560745,124.602104 34.494877,123.303978 34.429012,122.005852 
	C35.604488,122.866585 35.812225,124.105804 36.530689,124.855705 
	C40.896439,129.412430 41.325214,138.704178 51.005211,137.008438 
	C51.550205,136.912964 52.317631,137.906296 52.936314,138.444778 
	C55.184135,140.401230 57.356697,142.449265 59.674671,144.317581 
	C60.673351,145.122513 62.293739,146.374985 63.059013,146.054916 
	C68.456009,143.797638 70.440926,147.882401 73.000000,151.000000 
z"/>
<path fill="#2C1201" opacity="1.000000" stroke="none" 
	d="
M73.399994,151.000000 
	C70.440926,147.882401 68.456009,143.797638 63.059013,146.054916 
	C62.293739,146.374985 60.673351,145.122513 59.674671,144.317581 
	C57.356697,142.449265 55.184135,140.401230 52.936314,138.444778 
	C52.317631,137.906296 51.550205,136.912964 51.005211,137.008438 
	C41.325214,138.704178 40.896439,129.412430 36.530689,124.855705 
	C35.812225,124.105804 35.604488,122.866585 34.429012,122.005852 
	C34.494877,123.303978 34.560745,124.602104 34.668179,126.719467 
	C27.742727,121.541183 28.754261,113.177795 24.973652,107.177017 
	C21.539080,109.505295 21.277718,106.952698 21.062002,104.662811 
	C20.524096,98.952736 20.094973,93.232414 19.569899,86.884064 
	C18.550833,91.645470 17.662367,95.796661 16.773901,99.947861 
	C16.213026,99.871552 15.652152,99.795242 15.091277,99.718941 
	C15.624423,88.956612 17.162273,78.302940 20.108116,67.276779 
	C20.384945,66.532730 20.439692,66.289421 20.494434,66.046104 
	C20.321007,66.355499 20.147579,66.664902 19.974152,66.974297 
	C17.909834,68.402527 15.845514,69.830750 13.781195,71.258972 
	C13.507602,71.072243 13.234009,70.885513 12.960416,70.698776 
	C15.920592,65.463753 18.880770,60.228725 21.840948,54.993702 
	C21.562666,54.768513 21.284384,54.543324 21.006104,54.318138 
	C19.076004,55.408710 17.145903,56.499287 14.052328,58.247265 
	C17.281090,51.392254 22.063545,47.454727 26.539742,43.256470 
	C28.073988,41.817482 29.468010,40.228992 31.170216,38.357391 
	C31.603292,37.854774 31.792248,37.703579 31.981203,37.552380 
	C31.866364,37.506313 31.703009,37.387997 31.645174,37.426830 
	C31.408525,37.585716 31.204079,37.792564 30.987778,37.981754 
	C27.303450,38.944817 23.619122,39.907879 19.934795,40.870945 
	C19.797028,40.450401 19.659260,40.029858 19.521492,39.609314 
	C29.038601,33.059311 40.293671,30.489260 52.523590,26.374611 
	C48.483856,23.030003 45.203602,20.314188 41.923344,17.598372 
	C42.160339,17.029390 42.397335,16.460407 42.634331,15.891426 
	C47.497368,16.887024 52.360405,17.882624 58.350407,19.108944 
	C56.110909,15.751548 54.611271,13.503331 53.111633,11.255115 
	C53.523746,10.812094 53.935860,10.369072 54.347973,9.926051 
	C58.610352,13.357837 62.872734,16.789621 67.650421,20.636301 
	C72.176430,15.712955 65.950813,10.361964 66.341133,3.598826 
	C69.867149,8.874275 72.742035,13.024659 75.456268,17.277573 
	C78.345116,21.804087 81.634605,22.026676 85.583450,17.905855 
	C88.666588,14.688442 91.794655,11.509635 95.017654,8.434072 
	C95.744057,7.740901 96.947739,7.547889 98.866325,7.947921 
	C97.782303,9.642856 96.664963,11.317547 95.620750,13.036663 
	C92.900200,17.515585 93.696632,18.486910 98.814392,19.111067 
	C104.192467,19.766973 109.478561,21.235415 114.768951,22.499037 
	C115.735100,22.729803 116.529160,23.681067 117.121910,25.275949 
	C113.044830,24.822670 108.967751,24.369390 104.890671,23.916113 
	C104.487938,24.436260 104.085197,24.956409 103.682465,25.476559 
	C116.059532,35.084866 124.373070,47.702290 131.827209,61.035057 
	C126.881462,64.934868 131.995544,67.888397 131.807953,71.249374 
	C131.550003,73.040016 130.894714,74.878395 131.103149,76.612991 
	C131.986374,83.962753 133.126221,91.281670 134.172272,98.611862 
	C133.613327,98.789307 133.054367,98.966751 132.495422,99.144196 
	C131.646072,96.556000 130.796722,93.967796 129.947388,91.379601 
	C129.799896,99.786903 130.844177,108.313698 126.185371,117.319176 
	C125.691483,111.562546 125.308624,107.099953 124.798187,101.150452 
	C123.141953,109.358932 121.779282,116.112457 120.416618,122.865990 
	C120.093399,122.890472 119.770180,122.914955 119.446960,122.939445 
	C119.196709,121.055405 118.946457,119.171364 118.511459,115.896423 
	C116.043854,122.150536 114.084831,127.180725 112.069313,132.188187 
	C111.376884,133.908478 110.621292,136.060928 109.220306,132.174561 
	C109.524704,131.198456 109.651764,130.725601 109.778831,130.252747 
	C109.574036,130.211777 109.369240,130.170822 109.164444,130.129852 
	C109.100784,130.744720 109.037125,131.359573 108.973465,131.974426 
	C107.721375,133.157928 106.315651,134.218399 105.249069,135.550415 
	C103.001259,138.357620 100.931107,141.307068 98.788048,144.198135 
	C98.360229,143.934204 97.932404,143.670273 97.504585,143.406342 
	C97.936104,141.610199 98.367615,139.814056 98.978561,137.271057 
	C91.499046,140.430344 84.614662,143.338257 77.252098,146.448135 
	C77.425797,144.729950 77.558037,143.421829 77.690285,142.113693 
	C77.185150,142.108749 76.680016,142.103806 76.174881,142.098846 
	C76.344475,144.823990 76.514076,147.549118 76.841835,150.637131 
	C75.933327,151.000000 74.866661,151.000000 73.399994,151.000000 
M113.188065,86.270409 
	C112.369537,86.215187 111.551003,86.159966 109.970779,86.153954 
	C107.632790,87.150192 105.294792,88.146439 102.264252,89.010292 
	C101.962860,88.920547 101.650772,88.854973 101.365524,88.728745 
	C101.256859,88.680656 101.122368,88.406700 101.147026,88.381836 
	C104.311180,85.191238 106.097679,81.426880 104.192146,77.100906 
	C102.912392,74.195564 100.710365,71.696480 98.920448,69.014824 
	C105.792496,63.351673 102.156342,55.673889 98.017082,47.975616 
	C98.572472,47.988400 99.127869,48.001179 99.683266,48.013962 
	C99.827744,45.035336 99.972214,42.056709 100.116692,39.078083 
	C96.944519,39.078083 93.772346,39.078083 90.600174,39.078083 
	C78.779762,34.375538 73.242134,34.364670 60.313313,39.472626 
	C57.467854,38.619205 53.825340,37.204765 51.899021,38.448463 
	C49.119030,40.243328 49.408340,43.838116 51.772182,46.831188 
	C52.295921,47.494347 51.942631,49.319233 51.403667,50.277729 
	C47.411919,57.376728 45.784340,64.252747 53.209660,70.530434 
	C43.145752,73.126152 40.809956,79.042976 45.351151,87.163826 
	C43.551220,86.251900 41.751286,85.339981 39.385616,84.310959 
	C39.576450,85.253647 39.767284,86.196327 40.291458,87.700325 
	C41.634644,88.383934 42.977829,89.067543 44.789677,90.134949 
	C45.520248,90.445534 46.250824,90.756111 47.330631,91.544090 
	C47.887287,91.698112 48.443943,91.852135 49.465126,92.437691 
	C50.632767,92.891647 51.800404,93.345612 53.489849,94.221672 
	C53.925194,94.290321 54.360542,94.358963 55.391453,94.827675 
	C57.942551,95.483833 60.493652,96.139999 63.367844,97.093987 
	C63.926083,97.104355 64.484322,97.114723 65.813858,97.427589 
	C78.397972,99.193092 90.469971,97.290833 102.854607,92.283562 
	C105.611130,91.061867 108.367661,89.840172 111.638588,88.503204 
	C111.763336,88.379440 111.888077,88.255684 112.642197,88.067146 
	C112.804314,87.713486 112.966431,87.359825 113.188065,86.270409 
M127.355270,59.882622 
	C127.419281,59.848038 127.483292,59.813454 127.355270,59.882622 
M100.328613,134.883255 
	C100.392105,134.847519 100.455589,134.811768 100.328613,134.883255 
M59.324905,20.872881 
	C59.388840,20.838085 59.452774,20.803289 59.324905,20.872881 
z"/>
<path fill="#FAE9A6" opacity="1.000000" stroke="none" 
	d="
M46.228241,86.799835 
	C40.809956,79.042976 43.145752,73.126152 53.209660,70.530434 
	C45.784340,64.252747 47.411919,57.376728 51.403667,50.277729 
	C51.942631,49.319233 52.295921,47.494347 51.772182,46.831188 
	C49.408340,43.838116 49.119030,40.243328 51.899021,38.448463 
	C53.825340,37.204765 57.467854,38.619205 60.313313,39.472626 
	C73.242134,34.364670 78.779762,34.375538 90.600174,39.078083 
	C93.772346,39.078083 96.944519,39.078083 100.116692,39.078083 
	C99.972214,42.056709 99.827744,45.035336 99.683266,48.013962 
	C99.127869,48.001179 98.572472,47.988400 98.017082,47.975616 
	C102.156342,55.673889 105.792496,63.351673 98.920448,69.014824 
	C100.710365,71.696480 102.912392,74.195564 104.192146,77.100906 
	C106.097679,81.426880 104.311180,85.191238 101.147026,88.381836 
	C101.122368,88.406700 101.256859,88.680656 101.365524,88.728745 
	C101.650772,88.854973 101.962860,88.920547 102.490829,89.389771 
	C102.517891,90.632301 102.318382,91.495354 102.118866,92.358406 
	C90.469971,97.290833 78.397972,99.193092 65.290192,97.071350 
	C64.192604,96.742134 63.618679,96.769150 63.044754,96.796158 
	C60.493652,96.139999 57.942551,95.483833 55.213455,94.038422 
	C55.132633,92.860291 55.229801,92.471405 55.725674,92.121048 
	C67.597595,95.880920 79.116455,96.421516 91.573441,92.744286 
	C84.015274,89.518608 81.701210,84.352272 84.530190,76.764534 
	C77.172180,76.764534 70.795601,76.764534 64.401100,76.764534 
	C66.908920,85.023315 64.659515,88.603409 55.366997,90.381958 
	C52.317593,90.517876 49.124458,85.869095 46.981400,91.066696 
	C46.250824,90.756111 45.520248,90.445534 44.728363,89.695343 
	C45.187447,88.437103 45.707844,87.618469 46.228241,86.799835 
M79.531342,67.959740 
	C79.491043,64.048012 75.941544,62.093014 71.726120,63.867409 
	C70.661125,64.315697 69.300728,65.506920 69.228378,66.445572 
	C69.161560,67.312492 70.593781,69.039230 71.446350,69.092285 
	C73.939095,69.247398 76.472054,68.756027 79.531342,67.959740 
z"/>
<path fill="#DFCF93" opacity="1.000000" stroke="none" 
	d="
M102.486740,92.320984 
	C102.318382,91.495354 102.517891,90.632301 102.837097,89.455963 
	C105.294792,88.146439 107.632790,87.150192 110.436966,86.759842 
	C110.976822,87.783310 111.050507,88.200890 111.124184,88.618477 
	C108.367661,89.840172 105.611130,91.061867 102.486740,92.320984 
z"/>
<path fill="#DFCF93" opacity="1.000000" stroke="none" 
	d="
M55.326973,92.082520 
	C55.229801,92.471405 55.132633,92.860291 54.915672,93.838394 
	C54.360542,94.358963 53.925194,94.290321 53.208382,93.687927 
	C51.682102,90.595222 50.642113,90.291138 49.000599,92.006165 
	C48.443943,91.852135 47.887287,91.698112 47.156013,91.305389 
	C49.124458,85.869095 52.317593,90.517876 55.208084,90.552109 
	C55.398117,91.288040 55.362545,91.685280 55.326973,92.082520 
z"/>
<path fill="#DFCF93" opacity="1.000000" stroke="none" 
	d="
M45.789696,86.981827 
	C45.707844,87.618469 45.187447,88.437103 44.494034,89.503448 
	C42.977829,89.067543 41.634644,88.383934 40.140327,87.080917 
	C39.976585,85.783691 39.963970,85.105873 39.951355,84.428055 
	C41.751286,85.339981 43.551220,86.251900 45.789696,86.981827 
z"/>
<path fill="#FAE9A6" opacity="1.000000" stroke="none" 
	d="
M49.232864,92.221924 
	C50.642113,90.291138 51.682102,90.595222 52.947479,93.476868 
	C51.800404,93.345612 50.632767,92.891647 49.232864,92.221924 
z"/>
<path fill="#FAE9A6" opacity="1.000000" stroke="none" 
	d="
M39.668488,84.369507 
	C39.963970,85.105873 39.976585,85.783691 39.973656,86.800262 
	C39.767284,86.196327 39.576450,85.253647 39.668488,84.369507 
z"/>
<path fill="#DFCF93" opacity="1.000000" stroke="none" 
	d="
M63.206299,96.945068 
	C63.618679,96.769150 64.192604,96.742134 64.904549,96.920105 
	C64.484322,97.114723 63.926083,97.104355 63.206299,96.945068 
z"/>
<path fill="#FAE9A6" opacity="1.000000" stroke="none" 
	d="
M111.381386,88.560837 
	C111.050507,88.200890 110.976822,87.783310 110.817810,86.735229 
	C111.551003,86.159966 112.369537,86.215187 112.920029,86.768967 
	C112.438934,87.555664 112.225883,87.843796 112.012825,88.131935 
	C111.888077,88.255684 111.763336,88.379440 111.381386,88.560837 
z"/>
<path fill="#000000" opacity="1.000000" stroke="none" 
	d="
M108.984146,131.984711 
	C109.037125,131.359573 109.100784,130.744720 109.164444,130.129852 
	C109.369240,130.170822 109.574036,130.211777 109.778831,130.252747 
	C109.651764,130.725601 109.524704,131.198456 109.207695,131.841156 
	C109.017754,132.011017 108.994835,131.994980 108.984146,131.984711 
z"/>
<path fill="#000000" opacity="1.000000" stroke="none" 
	d="
M19.984764,66.984810 
	C20.147579,66.664902 20.321007,66.355499 20.494434,66.046104 
	C20.439692,66.289421 20.384945,66.532730 20.174282,66.894043 
	C20.018366,67.012032 19.995380,66.995323 19.984764,66.984810 
z"/>
<path fill="#000000" opacity="1.000000" stroke="none" 
	d="
M127.451286,59.830746 
	C127.483292,59.813454 127.419281,59.848038 127.451286,59.830746 
z"/>
<path fill="#000000" opacity="1.000000" stroke="none" 
	d="
M30.996159,37.993114 
	C31.204079,37.792564 31.408525,37.585716 31.645174,37.426830 
	C31.703009,37.387997 31.866364,37.506313 31.981203,37.552380 
	C31.792248,37.703579 31.603292,37.854774 31.219887,38.015785 
	C31.025438,38.025593 31.004541,38.004475 30.996159,37.993114 
z"/>
<path fill="#000000" opacity="1.000000" stroke="none" 
	d="
M100.423843,134.829636 
	C100.455589,134.811768 100.392105,134.847519 100.423843,134.829636 
z"/>
<path fill="#000000" opacity="1.000000" stroke="none" 
	d="
M59.420807,20.820686 
	C59.452774,20.803289 59.388840,20.838085 59.420807,20.820686 
z"/>
<path fill="#DFCF93" opacity="1.000000" stroke="none" 
	d="
M112.327515,88.099541 
	C112.225883,87.843796 112.438934,87.555664 112.890274,87.136841 
	C112.966431,87.359825 112.804314,87.713486 112.327515,88.099541 
z"/>
<path fill="#301706" opacity="1.000000" stroke="none" 
	d="
M55.725674,92.121048 
	C55.362545,91.685280 55.398117,91.288040 55.592598,90.720650 
	C64.659515,88.603409 66.908920,85.023315 64.401100,76.764534 
	C70.795601,76.764534 77.172180,76.764534 84.530190,76.764534 
	C81.701210,84.352272 84.015274,89.518608 91.573441,92.744286 
	C79.116455,96.421516 67.597595,95.880920 55.725674,92.121048 
z"/>
<path fill="#3B322A" opacity="1.000000" stroke="none" 
	d="
M79.260300,68.238869 
	C76.472054,68.756027 73.939095,69.247398 71.446350,69.092285 
	C70.593781,69.039230 69.161560,67.312492 69.228378,66.445572 
	C69.300728,65.506920 70.661125,64.315697 71.726120,63.867409 
	C75.941544,62.093014 79.491043,64.048012 79.260300,68.238869 
z"/>
</svg>