<?xml version="1.0" encoding="utf-8"?>
<!-- Generator: Adobe Illustrator 28.4.1, SVG Export Plug-In . SVG Version: 6.00 Build 0)  -->
<svg version="1.1" id="Layer_1" xmlns="http://www.w3.org/2000/svg" xmlns:xlink="http://www.w3.org/1999/xlink" x="0px" y="0px"
	 width="661.2px" height="799.1px" viewBox="0 0 661.2 799.1" style="enable-background:new 0 0 661.2 799.1;" xml:space="preserve"
	>
<style type="text/css">
	.Drop_x0020_Shadow{fill:none;}
	.Round_x0020_Corners_x0020_2_x0020_pt{fill:#FFFFFF;stroke:#231F20;stroke-miterlimit:10;}
	.Live_x0020_Reflect_x0020_X{fill:none;}
	.Bevel_x0020_Soft{fill:url(#SVGID_1_);}
	.Dusk{fill:#FFFFFF;}
	.Foliage_GS{fill:#FFDD00;}
	.Pompadour_GS{fill-rule:evenodd;clip-rule:evenodd;fill:#44ADE2;}
	.st0{fill:#2B1100;}
	.st1{fill:#FFCC00;}
	.st2{fill:#FFEEAA;}
	.st3{fill:#FEEDA9;}
	.st4{fill:#241C1C;}
	.st5{fill:#948961;}
</style>
<linearGradient id="SVGID_1_" gradientUnits="userSpaceOnUse" x1="0" y1="0" x2="0.7071" y2="0.7071">
	<stop  offset="0" style="stop-color:#DEDFE3"/>
	<stop  offset="0.1783" style="stop-color:#DADBDF"/>
	<stop  offset="0.3611" style="stop-color:#CECFD3"/>
	<stop  offset="0.546" style="stop-color:#B9BCBF"/>
	<stop  offset="0.7324" style="stop-color:#9CA0A2"/>
	<stop  offset="0.9181" style="stop-color:#787D7E"/>
	<stop  offset="1" style="stop-color:#656B6C"/>
</linearGradient>
<g>
	<path class="st0" d="M297.9,0.4C313.6,27.9,330.5,55,347.2,82c0.1,0.2,0.3,0.3,0.5,0.4c17.2,3.4,39.6,0.4,50.9-14.7c0,0,0,0,0,0
		c19.7-22.5,38.8-44.5,63.6-61.7c0.7-0.5,1.6,0.3,1.1,1.1c-13.4,21.5-25.1,43.2-30.9,68.2c-0.1,0.5,0.3,1,0.8,1
		c23-1.2,45.4-2.6,68.5-0.3c20.7,1.9,40.8,11.7,61.1,18.9c0.9,0.3,0.6,1.7-0.4,1.5c-23.6-3.8-47.1-5.9-71.1-2.2
		c-0.5,0.1-0.8,0.7-0.6,1.1c18.3,36.2,57.9,61.7,86.4,90.1c0.2,0.2,0.3,0.6,0.2,0.9c-1.2,2.6-2.3,5.2-3.5,7.7
		c-0.1,0.3-0.1,0.6,0.1,0.8c27,30.3,50.1,65.1,71.8,99.7c0.5,0.8-0.6,1.7-1.3,0.9c-18-21.4-35.5-43-55.3-62.8
		c-0.6-0.6-1.7,0.1-1.2,0.9c22.7,41.8,47,82.5,66.3,126.1c0.3,0.8-0.6,1.5-1.2,0.9l-19.7-17.2c-0.6-0.5-1.5,0-1.3,0.8
		c5.9,23.6,14.3,46.1,18.8,70.1c6.4,29.8,8.9,59.9,10.4,90.2c0,0.9-1.3,1.1-1.5,0.2c-6.4-25.3-13.3-49.8-26.9-72.4
		c-0.4-0.7-1.5-0.4-1.5,0.5c3,57.8,9.2,113.3-2.6,170.6c-0.2,0.9-1.6,0.8-1.6-0.2c0.5-33.5-3.1-64.1-14.4-96.1
		c-0.3-0.8-1.4-0.7-1.5,0.1c-6.7,44.9-14.3,89.4-22.7,134.1c-0.2,0.9-1.5,0.8-1.6-0.1c-0.6-14.2-1.6-28.2-3.1-42.4
		c-0.1-0.7-0.9-1-1.4-0.4c-16.6,19.6-19.1,41.8-27.9,65.3c-5,15.2-12,29.4-19.7,43.3c-0.4,0.8-1.7,0.3-1.5-0.6
		c3.5-15.5,6.7-31.1,8.6-46.9c0.1-0.8-0.9-1.2-1.4-0.6c-26.9,31.3-43.7,69-71,100.2c-0.6,0.7-1.7,0-1.3-0.8
		c8.1-17.9,17-34.8,19.5-54.7c0.1-0.6-0.6-1.1-1.2-0.8c-25.1,14.4-45,35.6-69.7,50.6c-0.7,0.5-1.6-0.5-1-1.2
		c8.2-10.7,16.5-21.2,24-32.4c0.5-0.7-0.4-1.6-1.1-1.1c-27.6,17.2-53.3,37.2-80.6,55.1c-0.5,0.3-1.2,0-1.2-0.7
		c0.2-11.1,0.2-22.1-0.3-33.2c0-0.7-0.8-1-1.3-0.6c-7.3,6.4-14.5,13-21.5,19.8c-0.2,0.2-0.3,0.4-0.2,0.7c2.1,12.8,4.8,25.6,7.7,38.3
		c0.2,0.7-0.6,1.2-1.2,0.8c-29.7-19.2-57.7-41.8-88.8-58.5c-0.7-0.4-1.5,0.4-1,1.1c7,10.9,14.5,21.4,21.9,32.1
		c0.5,0.7-0.4,1.6-1.1,1.1c-34.1-25.5-62.1-57.5-95-84c-0.6-0.5-1.5,0.2-1.2,0.9c5.6,13.4,12.5,26.2,19.6,38.8
		c0.4,0.7-0.4,1.5-1.1,1.1c-53.3-33.6-69.8-89-98.4-141.5c-0.4-0.7-1.5-0.4-1.5,0.4c0.8,25.8,8.4,49.2,17.1,73.1
		c0.3,0.9-0.9,1.5-1.4,0.7C80.9,624,72.6,567.5,54.8,521.6c-0.3-0.8-1.4-0.6-1.5,0.2c-1.6,14-2.8,28-4.1,41.9
		c-0.1,0.9-1.3,1-1.5,0.1c-14.3-57-15.1-114.6-8.7-172.7c0.1-0.9-1.2-1.2-1.5-0.3c-11.1,34.6-18.4,68.6-23,104.3
		c-0.1,1-1.6,0.9-1.6-0.1c3.3-61.5,12.4-121.9,32.2-180.6c0.2-0.7-0.6-1.3-1.2-0.9c-15.3,10.8-29,23.2-42.5,36.1
		c-0.7,0.6-1.7-0.2-1.2-1c24.7-37.7,46.9-76.9,72.2-114.3c0.5-0.7-0.3-1.6-1.1-1.1c-22.1,13.6-42.7,29-63.2,44.8
		c-0.7,0.6-1.6-0.3-1.1-1.1c34.8-48.8,80.4-81.5,125.9-119.5c0.6-0.5,0.2-1.5-0.6-1.4c-34.4,3.1-63.2,18.9-95.8,28
		c-0.9,0.3-1.4-1-0.6-1.4c58.4-31.9,121-51.1,185.1-68.3c0.5-0.1,0.7-0.7,0.5-1.2c-16.1-25.3-38.6-38.9-64.2-52.7
		c-0.7-0.4-0.4-1.5,0.4-1.5c12.6,0.7,25.4,1.1,37.8,3.3c21.3,4.2,41.6,17.8,61.5,27.1c0.5,0.3,1.2-0.2,1.1-0.8
		c-2-25.1-17.1-39.7-32.2-57.4c-0.6-0.7,0.3-1.7,1-1.2c13.3,8.5,27.8,16.1,39.5,26.5c10.6,9.7,15.2,21.7,21.8,34.1
		c0.2,0.5,0.9,0.6,1.2,0.2c6.4-6.1,16.9-12.9,17.7-22C310.7,47,303,22.5,296.5,1C296.2,0.1,297.4-0.4,297.9,0.4z"/>
	<path class="st1" d="M202.4,171"/>
	<path class="st2" d="M487,374.2c-7.2-7.2-16.8-9.9-26.3-12.7c-3-0.9-3.9-4.7-1.5-6.7c14.8-13,26.9-27.2,29.9-47.9
		c2.5-25-12.8-49.2-21.1-71.1c2.4-1.6,4.7-3.5,6.8-5.7c16.3-16.3,17.8-41.1,3.5-55.4c-14.3-14.3-39.1-12.8-55.4,3.5
		c-2,2-3.8,4.1-5.3,6.3c-29.4-15.6-60.3-25.8-94.1-21.4c-23.2,2.7-44.4,11.2-64.9,22c-1.6-2.4-3.5-4.8-5.7-6.9
		c-16.3-16.3-41.1-17.8-55.4-3.5c-14.3,14.3-12.8,39.1,3.5,55.4c2.2,2.2,4.6,4.2,7.1,5.8c-10.8,19.3-20.3,38.8-23.7,61.1
		c0,0.2,0,0.4-0.1,0.6c-0.5,22.8,10.8,38.7,25.9,53.4c2.2,2.2,1.2,6-1.9,6.7c-13.3,3.1-25.3,5.4-35.4,16.4
		c-18.1,16.6-17.6,47.1-2.5,65.6c18.6,22.8,52.4,36.3,80.6,23.5c17.6-7.3,31.9-23.8,32.2-43.5c0.4-9.5-3.2-18.9-7.2-27.8
		c-1.3-3,1.4-6.2,4.6-5.4c35,9.1,70.6,8.3,106,2c3.2-0.6,5.6,2.7,4.2,5.6c-8.7,18.4-13.9,36.2-1.8,55.8c20,34.6,72.1,28.9,95.9,2
		C505.1,432.9,509.5,392.9,487,374.2z"/>
	<path class="st3" d="M130.2,436.8c1.6-3,5.2-4.5,8.4-3.4c12.1,4.1,23.6,11.9,34.7,17.7c41.8,24.4,90.2,37.9,138.2,42.3
		c68.6,4.2,140.1-15.8,202.2-43.8c6.8-3,13.6-5.7,20.6-7.7c7.1-2.1,12.1,7,6.6,11.9c-2.8,2.5-6.2,4.6-10.5,6.3
		c-69.2,30.9-141.8,53.7-218.5,48.6c-63.3-2.6-126.4-28.5-179.3-62.8c-3-2-4.1-5.9-2.4-9.1C130.2,436.8,130.2,436.8,130.2,436.8z"/>
	<ellipse class="st4" cx="330.6" cy="337.5" rx="29.3" ry="19.5"/>
	<g>
		<g>
			<path class="st5" d="M372.9,268c-2.7-6.4-3-13.3-1.2-19.5c-4.8,7.8-5.8,17.7-2,26.7c6.3,14.8,23.4,21.6,38.2,15.3
				c8.4-3.6,14.2-10.6,16.5-18.7c-3,4.9-7.6,9-13.3,11.5C396.3,289.7,379.2,282.8,372.9,268z"/>
		</g>
		<g>
			<path class="st5" d="M296.8,268c2.7-6.4,3-13.3,1.2-19.5c4.8,7.8,5.8,17.7,2,26.7c-6.3,14.8-23.4,21.6-38.2,15.3
				c-8.4-3.6-14.2-10.6-16.5-18.7c3,4.9,7.6,9,13.3,11.5C273.4,289.7,290.5,282.8,296.8,268z"/>
		</g>
	</g>
	
		<ellipse transform="matrix(0.7071 -0.7071 0.7071 0.7071 -76.3002 219.5897)" class="st1" cx="226.9" cy="201.9" rx="13.4" ry="17.5"/>
	
		<ellipse transform="matrix(0.7071 -0.7071 0.7071 0.7071 -11.304 376.5043)" class="st1" cx="448.8" cy="201.9" rx="17.5" ry="13.4"/>
</g>
</svg>
