<?xml version="1.0" encoding="UTF-8"?>
<!DOCTYPE svg PUBLIC "-//W3C//DTD SVG 1.1//EN" "http://www.w3.org/Graphics/SVG/1.1/DTD/svg11.dtd">
<svg version="1.1" xmlns="http://www.w3.org/2000/svg" xmlns:xlink="http://www.w3.org/1999/xlink" x="0" y="0" width="1100" height="325" viewBox="0, 0, 1100, 325">
  <g id="Background">
    <rect x="0" y="0" width="1100" height="325" fill="#FFFFFF"/>
  </g>
  <defs>
    <linearGradient id="Gradient_1" gradientUnits="userSpaceOnUse" x1="120.912" y1="108.117" x2="588.841" y2="361.884" gradientTransform="matrix(1, 0, 0, 1, 0, 0)">
      <stop offset="0" stop-color="#ED1846"/>
      <stop offset="0.087" stop-color="#E4274C"/>
      <stop offset="0.243" stop-color="#CF3E59"/>
      <stop offset="0.45" stop-color="#AB556F"/>
      <stop offset="0.7" stop-color="#75678F"/>
      <stop offset="0.984" stop-color="#0075B8"/>
      <stop offset="1" stop-color="#0076BB"/>
    </linearGradient>
    <linearGradient id="Gradient_2" gradientUnits="userSpaceOnUse" x1="51.971" y1="235.239" x2="519.9" y2="489.006" gradientTransform="matrix(1, 0, 0, 1, 0, 0)">
      <stop offset="0" stop-color="#ED1846"/>
      <stop offset="0.087" stop-color="#E4274C"/>
      <stop offset="0.243" stop-color="#CF3E59"/>
      <stop offset="0.45" stop-color="#AB556F"/>
      <stop offset="0.7" stop-color="#75678F"/>
      <stop offset="0.984" stop-color="#0075B8"/>
      <stop offset="1" stop-color="#0076BB"/>
    </linearGradient>
    <linearGradient id="Gradient_3" gradientUnits="userSpaceOnUse" x1="171.95" y1="14.005" x2="639.88" y2="267.772" gradientTransform="matrix(1, 0, 0, 1, 0, 0)">
      <stop offset="0" stop-color="#ED1846"/>
      <stop offset="0.087" stop-color="#E4274C"/>
      <stop offset="0.243" stop-color="#CF3E59"/>
      <stop offset="0.45" stop-color="#AB556F"/>
      <stop offset="0.7" stop-color="#75678F"/>
      <stop offset="0.984" stop-color="#0075B8"/>
      <stop offset="1" stop-color="#0076BB"/>
    </linearGradient>
    <linearGradient id="Gradient_4" gradientUnits="userSpaceOnUse" x1="109.202" y1="129.708" x2="577.131" y2="383.475" gradientTransform="matrix(1, 0, 0, 1, 0, 0)">
      <stop offset="0" stop-color="#ED1846"/>
      <stop offset="0.087" stop-color="#E4274C"/>
      <stop offset="0.243" stop-color="#CF3E59"/>
      <stop offset="0.45" stop-color="#AB556F"/>
      <stop offset="0.7" stop-color="#75678F"/>
      <stop offset="0.984" stop-color="#0075B8"/>
      <stop offset="1" stop-color="#0076BB"/>
    </linearGradient>
    <linearGradient id="Gradient_5" gradientUnits="userSpaceOnUse" x1="113.606" y1="121.588" x2="581.535" y2="375.355" gradientTransform="matrix(1, 0, 0, 1, 0, 0)">
      <stop offset="0" stop-color="#ED1846"/>
      <stop offset="0.087" stop-color="#E4274C"/>
      <stop offset="0.243" stop-color="#CF3E59"/>
      <stop offset="0.45" stop-color="#AB556F"/>
      <stop offset="0.7" stop-color="#75678F"/>
      <stop offset="0.984" stop-color="#0075B8"/>
      <stop offset="1" stop-color="#0076BB"/>
    </linearGradient>
    <linearGradient id="Gradient_6" gradientUnits="userSpaceOnUse" x1="113.605" y1="121.59" x2="581.534" y2="375.357" gradientTransform="matrix(1, 0, 0, 1, 0, 0)">
      <stop offset="0" stop-color="#ED1846"/>
      <stop offset="0.087" stop-color="#E4274C"/>
      <stop offset="0.243" stop-color="#CF3E59"/>
      <stop offset="0.45" stop-color="#AB556F"/>
      <stop offset="0.7" stop-color="#75678F"/>
      <stop offset="0.984" stop-color="#0075B8"/>
      <stop offset="1" stop-color="#0076BB"/>
    </linearGradient>
    <linearGradient id="Gradient_7" gradientUnits="userSpaceOnUse" x1="113.609" y1="121.582" x2="581.538" y2="375.35" gradientTransform="matrix(1, 0, 0, 1, 0, 0)">
      <stop offset="0" stop-color="#ED1846"/>
      <stop offset="0.087" stop-color="#E4274C"/>
      <stop offset="0.243" stop-color="#CF3E59"/>
      <stop offset="0.45" stop-color="#AB556F"/>
      <stop offset="0.7" stop-color="#75678F"/>
      <stop offset="0.984" stop-color="#0075B8"/>
      <stop offset="1" stop-color="#0076BB"/>
    </linearGradient>
    <linearGradient id="Gradient_8" gradientUnits="userSpaceOnUse" x1="113.613" y1="121.574" x2="581.543" y2="375.341" gradientTransform="matrix(1, 0, 0, 1, 0, 0)">
      <stop offset="0" stop-color="#ED1846"/>
      <stop offset="0.087" stop-color="#E4274C"/>
      <stop offset="0.243" stop-color="#CF3E59"/>
      <stop offset="0.45" stop-color="#AB556F"/>
      <stop offset="0.7" stop-color="#75678F"/>
      <stop offset="0.984" stop-color="#0075B8"/>
      <stop offset="1" stop-color="#0076BB"/>
    </linearGradient>
    <linearGradient id="Gradient_9" gradientUnits="userSpaceOnUse" x1="166.043" y1="25.408" x2="633.972" y2="279.175" gradientTransform="matrix(1, 0, 0, 1, 0, 0)">
      <stop offset="0" stop-color="#ED1846"/>
      <stop offset="0.087" stop-color="#E4274C"/>
      <stop offset="0.243" stop-color="#CF3E59"/>
      <stop offset="0.45" stop-color="#AB556F"/>
      <stop offset="0.7" stop-color="#75678F"/>
      <stop offset="0.984" stop-color="#0075B8"/>
      <stop offset="1" stop-color="#0076BB"/>
    </linearGradient>
    <linearGradient id="Gradient_10" gradientUnits="userSpaceOnUse" x1="174.198" y1="10.371" x2="642.127" y2="264.138" gradientTransform="matrix(1, 0, 0, 1, 0, 0)">
      <stop offset="0" stop-color="#ED1846"/>
      <stop offset="0.087" stop-color="#E4274C"/>
      <stop offset="0.243" stop-color="#CF3E59"/>
      <stop offset="0.45" stop-color="#AB556F"/>
      <stop offset="0.7" stop-color="#75678F"/>
      <stop offset="0.984" stop-color="#0075B8"/>
      <stop offset="1" stop-color="#0076BB"/>
    </linearGradient>
    <linearGradient id="Gradient_11" gradientUnits="userSpaceOnUse" x1="175.25" y1="-9.712" x2="657.478" y2="251.809" gradientTransform="matrix(1, 0, 0, 1, 0, 0)">
      <stop offset="0" stop-color="#ED1846"/>
      <stop offset="0.087" stop-color="#E4274C"/>
      <stop offset="0.243" stop-color="#CF3E59"/>
      <stop offset="0.45" stop-color="#AB556F"/>
      <stop offset="0.7" stop-color="#75678F"/>
      <stop offset="0.984" stop-color="#0075B8"/>
      <stop offset="1" stop-color="#0076BB"/>
    </linearGradient>
    <linearGradient id="Gradient_12" gradientUnits="userSpaceOnUse" x1="181.127" y1="-26.54" x2="663.354" y2="234.982" gradientTransform="matrix(1, 0, 0, 1, 0, 0)">
      <stop offset="0" stop-color="#ED1846"/>
      <stop offset="0.087" stop-color="#E4274C"/>
      <stop offset="0.243" stop-color="#CF3E59"/>
      <stop offset="0.45" stop-color="#AB556F"/>
      <stop offset="0.7" stop-color="#75678F"/>
      <stop offset="0.984" stop-color="#0075B8"/>
      <stop offset="1" stop-color="#0076BB"/>
    </linearGradient>
    <linearGradient id="Gradient_13" gradientUnits="userSpaceOnUse" x1="187.45" y1="-36.725" x2="669.678" y2="224.796" gradientTransform="matrix(1, 0, 0, 1, 0, 0)">
      <stop offset="0" stop-color="#ED1846"/>
      <stop offset="0.087" stop-color="#E4274C"/>
      <stop offset="0.243" stop-color="#CF3E59"/>
      <stop offset="0.45" stop-color="#AB556F"/>
      <stop offset="0.7" stop-color="#75678F"/>
      <stop offset="0.984" stop-color="#0075B8"/>
      <stop offset="1" stop-color="#0076BB"/>
    </linearGradient>
    <linearGradient id="Gradient_14" gradientUnits="userSpaceOnUse" x1="190.49" y1="-46.669" x2="672.718" y2="214.852" gradientTransform="matrix(1, 0, 0, 1, 0, 0)">
      <stop offset="0" stop-color="#ED1846"/>
      <stop offset="0.087" stop-color="#E4274C"/>
      <stop offset="0.243" stop-color="#CF3E59"/>
      <stop offset="0.45" stop-color="#AB556F"/>
      <stop offset="0.7" stop-color="#75678F"/>
      <stop offset="0.984" stop-color="#0075B8"/>
      <stop offset="1" stop-color="#0076BB"/>
    </linearGradient>
    <linearGradient id="Gradient_15" gradientUnits="userSpaceOnUse" x1="198.035" y1="-64.515" x2="680.262" y2="197.006" gradientTransform="matrix(1, 0, 0, 1, 0, 0)">
      <stop offset="0" stop-color="#ED1846"/>
      <stop offset="0.087" stop-color="#E4274C"/>
      <stop offset="0.243" stop-color="#CF3E59"/>
      <stop offset="0.45" stop-color="#AB556F"/>
      <stop offset="0.7" stop-color="#75678F"/>
      <stop offset="0.984" stop-color="#0075B8"/>
      <stop offset="1" stop-color="#0076BB"/>
    </linearGradient>
    <linearGradient id="Gradient_16" gradientUnits="userSpaceOnUse" x1="207.445" y1="-79.826" x2="688.44" y2="181.026" gradientTransform="matrix(1, 0, 0, 1, 0, 0)">
      <stop offset="0" stop-color="#ED1846"/>
      <stop offset="0.087" stop-color="#E4274C"/>
      <stop offset="0.243" stop-color="#CF3E59"/>
      <stop offset="0.45" stop-color="#AB556F"/>
      <stop offset="0.7" stop-color="#75678F"/>
      <stop offset="0.984" stop-color="#0075B8"/>
      <stop offset="1" stop-color="#0076BB"/>
    </linearGradient>
    <linearGradient id="Gradient_17" gradientUnits="userSpaceOnUse" x1="218.988" y1="-97.32" x2="699.983" y2="163.533" gradientTransform="matrix(1, 0, 0, 1, 0, 0)">
      <stop offset="0" stop-color="#ED1846"/>
      <stop offset="0.087" stop-color="#E4274C"/>
      <stop offset="0.243" stop-color="#CF3E59"/>
      <stop offset="0.45" stop-color="#AB556F"/>
      <stop offset="0.7" stop-color="#75678F"/>
      <stop offset="0.984" stop-color="#0075B8"/>
      <stop offset="1" stop-color="#0076BB"/>
    </linearGradient>
    <linearGradient id="Gradient_18" gradientUnits="userSpaceOnUse" x1="225.442" y1="-105.429" x2="706.436" y2="155.423" gradientTransform="matrix(1, 0, 0, 1, 0, 0)">
      <stop offset="0" stop-color="#ED1846"/>
      <stop offset="0.087" stop-color="#E4274C"/>
      <stop offset="0.243" stop-color="#CF3E59"/>
      <stop offset="0.45" stop-color="#AB556F"/>
      <stop offset="0.7" stop-color="#75678F"/>
      <stop offset="0.984" stop-color="#0075B8"/>
      <stop offset="1" stop-color="#0076BB"/>
    </linearGradient>
    <linearGradient id="Gradient_19" gradientUnits="userSpaceOnUse" x1="233.301" y1="-114.235" x2="714.296" y2="146.618" gradientTransform="matrix(1, 0, 0, 1, 0, 0)">
      <stop offset="0" stop-color="#ED1846"/>
      <stop offset="0.087" stop-color="#E4274C"/>
      <stop offset="0.243" stop-color="#CF3E59"/>
      <stop offset="0.45" stop-color="#AB556F"/>
      <stop offset="0.7" stop-color="#75678F"/>
      <stop offset="0.984" stop-color="#0075B8"/>
      <stop offset="1" stop-color="#0076BB"/>
    </linearGradient>
    <linearGradient id="Gradient_20" gradientUnits="userSpaceOnUse" x1="243.812" y1="-127.93" x2="724.807" y2="132.923" gradientTransform="matrix(1, 0, 0, 1, 0, 0)">
      <stop offset="0" stop-color="#ED1846"/>
      <stop offset="0.087" stop-color="#E4274C"/>
      <stop offset="0.243" stop-color="#CF3E59"/>
      <stop offset="0.45" stop-color="#AB556F"/>
      <stop offset="0.7" stop-color="#75678F"/>
      <stop offset="0.984" stop-color="#0075B8"/>
      <stop offset="1" stop-color="#0076BB"/>
    </linearGradient>
    <linearGradient id="Gradient_21" gradientUnits="userSpaceOnUse" x1="261.574" y1="-143.37" x2="729.504" y2="110.397" gradientTransform="matrix(1, 0, 0, 1, 0, 0)">
      <stop offset="0" stop-color="#ED1846"/>
      <stop offset="0.087" stop-color="#E4274C"/>
      <stop offset="0.243" stop-color="#CF3E59"/>
      <stop offset="0.45" stop-color="#AB556F"/>
      <stop offset="0.7" stop-color="#75678F"/>
      <stop offset="0.984" stop-color="#0075B8"/>
      <stop offset="1" stop-color="#0076BB"/>
    </linearGradient>
    <linearGradient id="Gradient_22" gradientUnits="userSpaceOnUse" x1="269.718" y1="-158.407" x2="737.647" y2="95.361" gradientTransform="matrix(1, 0, 0, 1, 0, 0)">
      <stop offset="0" stop-color="#ED1846"/>
      <stop offset="0.087" stop-color="#E4274C"/>
      <stop offset="0.243" stop-color="#CF3E59"/>
      <stop offset="0.45" stop-color="#AB556F"/>
      <stop offset="0.7" stop-color="#75678F"/>
      <stop offset="0.984" stop-color="#0075B8"/>
      <stop offset="1" stop-color="#0076BB"/>
    </linearGradient>
    <linearGradient id="Gradient_23" gradientUnits="userSpaceOnUse" x1="262.244" y1="-185.888" x2="744.471" y2="75.634" gradientTransform="matrix(1, 0, 0, 1, 0, 0)">
      <stop offset="0" stop-color="#ED1846"/>
      <stop offset="0.087" stop-color="#E4274C"/>
      <stop offset="0.243" stop-color="#CF3E59"/>
      <stop offset="0.45" stop-color="#AB556F"/>
      <stop offset="0.7" stop-color="#75678F"/>
      <stop offset="0.984" stop-color="#0075B8"/>
      <stop offset="1" stop-color="#0076BB"/>
    </linearGradient>
    <linearGradient id="Gradient_24" gradientUnits="userSpaceOnUse" x1="269.316" y1="-203.211" x2="751.544" y2="58.311" gradientTransform="matrix(1, 0, 0, 1, 0, 0)">
      <stop offset="0" stop-color="#ED1846"/>
      <stop offset="0.087" stop-color="#E4274C"/>
      <stop offset="0.243" stop-color="#CF3E59"/>
      <stop offset="0.45" stop-color="#AB556F"/>
      <stop offset="0.7" stop-color="#75678F"/>
      <stop offset="0.984" stop-color="#0075B8"/>
      <stop offset="1" stop-color="#0076BB"/>
    </linearGradient>
    <linearGradient id="Gradient_25" gradientUnits="userSpaceOnUse" x1="288.463" y1="-217.412" x2="763.895" y2="40.424" gradientTransform="matrix(1, 0, 0, 1, 0, 0)">
      <stop offset="0" stop-color="#ED1846"/>
      <stop offset="0.087" stop-color="#E4274C"/>
      <stop offset="0.243" stop-color="#CF3E59"/>
      <stop offset="0.45" stop-color="#AB556F"/>
      <stop offset="0.7" stop-color="#75678F"/>
      <stop offset="0.984" stop-color="#0075B8"/>
      <stop offset="1" stop-color="#0076BB"/>
    </linearGradient>
    <linearGradient id="Gradient_26" gradientUnits="userSpaceOnUse" x1="289.698" y1="-236.817" x2="771.926" y2="24.705" gradientTransform="matrix(1, 0, 0, 1, 0, 0)">
      <stop offset="0" stop-color="#ED1846"/>
      <stop offset="0.087" stop-color="#E4274C"/>
      <stop offset="0.243" stop-color="#CF3E59"/>
      <stop offset="0.45" stop-color="#AB556F"/>
      <stop offset="0.7" stop-color="#75678F"/>
      <stop offset="0.984" stop-color="#0075B8"/>
      <stop offset="1" stop-color="#0076BB"/>
    </linearGradient>
    <linearGradient id="Gradient_27" gradientUnits="userSpaceOnUse" x1="297.058" y1="-244.064" x2="778.052" y2="16.789" gradientTransform="matrix(1, 0, 0, 1, 0, 0)">
      <stop offset="0" stop-color="#ED1846"/>
      <stop offset="0.087" stop-color="#E4274C"/>
      <stop offset="0.243" stop-color="#CF3E59"/>
      <stop offset="0.45" stop-color="#AB556F"/>
      <stop offset="0.7" stop-color="#75678F"/>
      <stop offset="0.984" stop-color="#0075B8"/>
      <stop offset="1" stop-color="#0076BB"/>
    </linearGradient>
    <linearGradient id="Gradient_28" gradientUnits="userSpaceOnUse" x1="299.882" y1="-257.544" x2="782.11" y2="3.978" gradientTransform="matrix(1, 0, 0, 1, 0, 0)">
      <stop offset="0" stop-color="#ED1846"/>
      <stop offset="0.087" stop-color="#E4274C"/>
      <stop offset="0.243" stop-color="#CF3E59"/>
      <stop offset="0.45" stop-color="#AB556F"/>
      <stop offset="0.7" stop-color="#75678F"/>
      <stop offset="0.984" stop-color="#0075B8"/>
      <stop offset="1" stop-color="#0076BB"/>
    </linearGradient>
    <linearGradient id="Gradient_29" gradientUnits="userSpaceOnUse" x1="325.201" y1="-262.538" x2="793.13" y2="-8.771" gradientTransform="matrix(1, 0, 0, 1, 0, 0)">
      <stop offset="0" stop-color="#ED1846"/>
      <stop offset="0.087" stop-color="#E4274C"/>
      <stop offset="0.243" stop-color="#CF3E59"/>
      <stop offset="0.45" stop-color="#AB556F"/>
      <stop offset="0.7" stop-color="#75678F"/>
      <stop offset="0.984" stop-color="#0075B8"/>
      <stop offset="1" stop-color="#0076BB"/>
    </linearGradient>
    <linearGradient id="Gradient_30" gradientUnits="userSpaceOnUse" x1="137.388" y1="75.671" x2="607.328" y2="330.528" gradientTransform="matrix(1, 0, 0, 1, 0, 0)">
      <stop offset="0" stop-color="#ED1846"/>
      <stop offset="0.087" stop-color="#E4274C"/>
      <stop offset="0.243" stop-color="#CF3E59"/>
      <stop offset="0.45" stop-color="#AB556F"/>
      <stop offset="0.7" stop-color="#75678F"/>
      <stop offset="0.984" stop-color="#0075B8"/>
      <stop offset="1" stop-color="#0076BB"/>
    </linearGradient>
    <linearGradient id="Gradient_31" gradientUnits="userSpaceOnUse" x1="154.631" y1="43.876" x2="624.571" y2="298.734" gradientTransform="matrix(1, 0, 0, 1, 0, 0)">
      <stop offset="0" stop-color="#ED1846"/>
      <stop offset="0.087" stop-color="#E4274C"/>
      <stop offset="0.243" stop-color="#CF3E59"/>
      <stop offset="0.45" stop-color="#AB556F"/>
      <stop offset="0.7" stop-color="#75678F"/>
      <stop offset="0.984" stop-color="#0075B8"/>
      <stop offset="1" stop-color="#0076BB"/>
    </linearGradient>
    <linearGradient id="Gradient_32" gradientUnits="userSpaceOnUse" x1="161.912" y1="5.154" x2="645.286" y2="267.296" gradientTransform="matrix(1, 0, 0, 1, 0, 0)">
      <stop offset="0" stop-color="#ED1846"/>
      <stop offset="0.087" stop-color="#E4274C"/>
      <stop offset="0.243" stop-color="#CF3E59"/>
      <stop offset="0.45" stop-color="#AB556F"/>
      <stop offset="0.7" stop-color="#75678F"/>
      <stop offset="0.984" stop-color="#0075B8"/>
      <stop offset="1" stop-color="#0076BB"/>
    </linearGradient>
    <linearGradient id="Gradient_33" gradientUnits="userSpaceOnUse" x1="187.688" y1="-22.633" x2="657.627" y2="232.224" gradientTransform="matrix(1, 0, 0, 1, 0, 0)">
      <stop offset="0" stop-color="#ED1846"/>
      <stop offset="0.087" stop-color="#E4274C"/>
      <stop offset="0.243" stop-color="#CF3E59"/>
      <stop offset="0.45" stop-color="#AB556F"/>
      <stop offset="0.7" stop-color="#75678F"/>
      <stop offset="0.984" stop-color="#0075B8"/>
      <stop offset="1" stop-color="#0076BB"/>
    </linearGradient>
    <linearGradient id="Gradient_34" gradientUnits="userSpaceOnUse" x1="205.832" y1="-54.238" x2="675.771" y2="200.619" gradientTransform="matrix(1, 0, 0, 1, 0, 0)">
      <stop offset="0" stop-color="#ED1846"/>
      <stop offset="0.087" stop-color="#E4274C"/>
      <stop offset="0.243" stop-color="#CF3E59"/>
      <stop offset="0.45" stop-color="#AB556F"/>
      <stop offset="0.7" stop-color="#75678F"/>
      <stop offset="0.984" stop-color="#0075B8"/>
      <stop offset="1" stop-color="#0076BB"/>
    </linearGradient>
    <linearGradient id="Gradient_35" gradientUnits="userSpaceOnUse" x1="207.697" y1="-91.564" x2="691.07" y2="170.579" gradientTransform="matrix(1, 0, 0, 1, 0, 0)">
      <stop offset="0" stop-color="#ED1846"/>
      <stop offset="0.087" stop-color="#E4274C"/>
      <stop offset="0.243" stop-color="#CF3E59"/>
      <stop offset="0.45" stop-color="#AB556F"/>
      <stop offset="0.7" stop-color="#75678F"/>
      <stop offset="0.984" stop-color="#0075B8"/>
      <stop offset="1" stop-color="#0076BB"/>
    </linearGradient>
    <linearGradient id="Gradient_36" gradientUnits="userSpaceOnUse" x1="225.614" y1="-128.372" x2="708.988" y2="133.771" gradientTransform="matrix(1, 0, 0, 1, 0, 0)">
      <stop offset="0" stop-color="#ED1846"/>
      <stop offset="0.087" stop-color="#E4274C"/>
      <stop offset="0.243" stop-color="#CF3E59"/>
      <stop offset="0.45" stop-color="#AB556F"/>
      <stop offset="0.7" stop-color="#75678F"/>
      <stop offset="0.984" stop-color="#0075B8"/>
      <stop offset="1" stop-color="#0076BB"/>
    </linearGradient>
    <linearGradient id="Gradient_37" gradientUnits="userSpaceOnUse" x1="238.361" y1="-150.167" x2="721.734" y2="111.976" gradientTransform="matrix(1, 0, 0, 1, 0, 0)">
      <stop offset="0" stop-color="#ED1846"/>
      <stop offset="0.087" stop-color="#E4274C"/>
      <stop offset="0.243" stop-color="#CF3E59"/>
      <stop offset="0.45" stop-color="#AB556F"/>
      <stop offset="0.7" stop-color="#75678F"/>
      <stop offset="0.984" stop-color="#0075B8"/>
      <stop offset="1" stop-color="#0076BB"/>
    </linearGradient>
    <linearGradient id="Gradient_38" gradientUnits="userSpaceOnUse" x1="261.291" y1="-174.953" x2="737.853" y2="83.496" gradientTransform="matrix(1, 0, 0, 1, 0, 0)">
      <stop offset="0" stop-color="#ED1846"/>
      <stop offset="0.087" stop-color="#E4274C"/>
      <stop offset="0.243" stop-color="#CF3E59"/>
      <stop offset="0.45" stop-color="#AB556F"/>
      <stop offset="0.7" stop-color="#75678F"/>
      <stop offset="0.984" stop-color="#0075B8"/>
      <stop offset="1" stop-color="#0076BB"/>
    </linearGradient>
    <linearGradient id="Gradient_39" gradientUnits="userSpaceOnUse" x1="266.92" y1="-214.988" x2="750.293" y2="47.155" gradientTransform="matrix(1, 0, 0, 1, 0, 0)">
      <stop offset="0" stop-color="#ED1846"/>
      <stop offset="0.087" stop-color="#E4274C"/>
      <stop offset="0.243" stop-color="#CF3E59"/>
      <stop offset="0.45" stop-color="#AB556F"/>
      <stop offset="0.7" stop-color="#75678F"/>
      <stop offset="0.984" stop-color="#0075B8"/>
      <stop offset="1" stop-color="#0076BB"/>
    </linearGradient>
  </defs>
  <g id="Layer_2">
    <path d="M0,0 L1100,0 L1100,325 L0,325 L0,0 z" fill="#000000"/>
  </g>
  <g id="Layer_1">
    <g>
      <path d="M113,95.65 C108.5,95.65 104.8,99.35 104.8,103.85 C104.8,108.35 108.5,112.05 113,112.05 C117.5,112.05 121.2,108.35 121.2,103.85 C121.2,99.25 117.5,95.65 113,95.65 z" fill="url(#Gradient_1)"/>
      <path d="M84.5,244.65 C80,244.65 76.3,248.35 76.3,252.85 C76.3,257.35 80,261.05 84.5,261.05 C89,261.05 92.7,257.35 92.7,252.85 C92.8,248.35 89.1,244.65 84.5,244.65 z" fill="url(#Gradient_2)"/>
      <path d="M302.5,76.55 C298,76.55 294.3,80.25 294.3,84.75 C294.3,89.25 298,92.95 302.5,92.95 C307,92.95 310.7,89.25 310.7,84.75 C310.7,80.25 307,76.55 302.5,76.55 z" fill="url(#Gradient_3)"/>
      <path d="M266.9,207.05 C262.4,207.05 258.7,210.75 258.7,215.25 C258.7,219.75 262.4,223.45 266.9,223.45 C271.4,223.45 275.1,219.75 275.1,215.25 C275.1,210.75 271.4,207.05 266.9,207.05 z" fill="url(#Gradient_4)"/>
      <path d="M189,258.25 C204.5,258.25 220,254.45 233.7,247.15 C244,241.75 253.2,234.35 260.9,225.65 C257.3,223.55 254.9,219.65 254.9,215.25 C254.9,212.55 255.8,210.05 257.3,208.05 L247.7,201.25 L246.4,203.05 C233.2,221.75 211.7,232.85 189,232.85 C150.2,232.85 118.7,201.25 118.7,162.55 C118.7,123.75 150.3,92.15 189,92.15 C211.7,92.15 233.1,103.25 246.4,121.95 L247.7,123.75 L268.5,109.05 L267.2,107.25 C258.5,94.95 246.9,84.85 233.7,77.85 C220,70.65 204.6,66.75 189,66.75 C162.5,66.75 138.4,77.55 121.1,95.05 C123.5,97.25 125,100.35 125,103.85 C125,110.45 119.6,115.85 113,115.85 C110.6,115.85 108.4,115.15 106.5,113.95 C98.1,128.25 93.2,144.85 93.2,162.55 C93.3,215.35 136.2,258.25 189,258.25 z" fill="url(#Gradient_5)"/>
      <path d="M281.9,99.55 L292.8,91.85 C291.3,89.85 290.5,87.45 290.5,84.75 C290.5,80.85 292.4,77.35 295.3,75.15 C283.7,61.05 269.3,49.25 253.2,40.75 C243.5,35.65 233.2,31.65 222.6,28.95 C211.7,26.25 200.4,24.85 189,24.85 C113.1,24.85 51.4,86.55 51.4,162.45 C51.4,192.55 61.1,220.45 77.6,243.15 C79.6,241.75 82,240.95 84.6,240.95 C91.2,240.95 96.6,246.35 96.6,252.95 C96.6,256.15 95.3,259.05 93.3,261.25 C118.1,285.35 151.9,300.15 189.1,300.15 C200.5,300.15 211.8,298.75 222.7,295.95 C233.3,293.25 243.6,289.35 253.3,284.15 C272.3,274.05 289,259.45 301.4,241.85 L302.7,240.05 L281.9,225.35 L280.6,227.15 C259.5,256.85 225.3,274.65 189,274.65 C127.1,274.65 76.8,224.35 76.8,162.45 C76.8,100.55 127.1,50.25 189,50.25 C225.3,50.25 259.5,67.95 280.6,97.75 L281.9,99.55 z" fill="url(#Gradient_6)"/>
      <path d="M189,150.55 C182.4,150.55 177,155.95 177,162.55 C177,169.15 182.4,174.55 189,174.55 C195.6,174.55 201,169.15 201,162.55 C201,155.85 195.6,150.55 189,150.55 z" fill="url(#Gradient_7)"/>
      <path d="M214.6,209.85 C232,200.45 242.8,182.25 242.8,162.45 C242.8,148.05 237.2,134.55 227,124.35 C216.8,114.15 203.3,108.55 188.9,108.55 C174.5,108.55 161,114.15 150.8,124.35 C140.6,134.55 135,148.05 135,162.45 C135,182.25 145.8,200.35 163.2,209.85 L165.2,210.95 L177.3,188.55 L175.3,187.45 C166.1,182.45 160.4,172.85 160.4,162.45 C160.4,146.75 173.1,134.05 188.8,134.05 C204.5,134.05 217.2,146.75 217.2,162.45 C217.2,172.85 211.5,182.45 202.3,187.45 L200.3,188.55 L212.4,210.95 L214.6,209.85 z" fill="url(#Gradient_8)"/>
      <g>
        <path d="M343,144.15 L346.1,144.15 C353.1,144.15 358.5,138.85 358.5,131.85 L358.5,129.65 L350.8,128.95 L350.8,131.85 C350.8,134.65 348.7,136.85 345.9,136.85 L343.1,136.85 C340.3,136.85 338.2,134.65 338.2,131.85 L338.2,112.55 C338.2,109.75 340.3,107.55 343.1,107.55 L345.9,107.55 C348.7,107.55 350.8,109.75 350.8,112.55 L350.8,115.45 L358.5,114.75 L358.5,112.55 C358.5,105.55 353.1,100.25 346.1,100.25 L343,100.25 C336,100.25 330.6,105.55 330.6,112.55 L330.6,131.85 C330.6,138.85 336,144.15 343,144.15 z" fill="url(#Gradient_9)"/>
        <path d="M382,100.25 L378.9,100.25 C371.9,100.25 366.5,105.55 366.5,112.55 L366.5,131.85 C366.5,138.85 371.9,144.15 378.9,144.15 L382,144.15 C389,144.15 394.4,138.85 394.4,131.85 L394.4,112.55 C394.4,105.55 389,100.25 382,100.25 z M386.7,131.85 C386.7,134.65 384.6,136.85 381.8,136.85 L379,136.85 C376.2,136.85 374.1,134.65 374.1,131.85 L374.1,112.55 C374.1,109.75 376.2,107.55 379,107.55 L381.8,107.55 C384.6,107.55 386.7,109.75 386.7,112.55 L386.7,131.85 z" fill="url(#Gradient_10)"/>
        <path d="M410.5,114.15 L410.9,116.05 L427.6,144.25 L434.6,144.25 L434.6,100.25 L426.7,100.25 L426.7,130.35 L426.3,128.45 L409.5,100.25 L402.6,100.25 L402.6,144.25 L410.5,144.25 z" fill="url(#Gradient_11)"/>
        <path d="M441.4,144.25 L449.4,144.25 L449.4,126.05 L465.6,126.05 L465.6,118.45 L449.4,118.45 L449.4,107.75 L469.5,107.75 L469.5,100.25 L441.4,100.25 z" fill="url(#Gradient_12)"/>
        <path d="M476.6,100.25 L484.5,100.25 L484.5,144.25 L476.6,144.25 z" fill="url(#Gradient_13)"/>
        <path d="M521.1,131.55 L521.1,112.95 C521.1,105.75 515.5,100.25 508.3,100.25 L492.3,100.25 L492.3,144.25 L508.3,144.25 C515.5,144.25 521.1,138.75 521.1,131.55 z M500.2,136.75 L500.2,107.75 L508.1,107.75 C511,107.75 513.1,110.05 513.1,112.95 L513.1,131.55 C513.1,134.45 511,136.75 508.1,136.75 L500.2,136.75 z" fill="url(#Gradient_14)"/>
        <path d="M528.4,144.25 L556.5,144.25 L556.5,136.75 L536.3,136.75 L536.3,126.05 L552.5,126.05 L552.5,118.45 L536.3,118.45 L536.3,107.75 L556.5,107.75 L556.5,100.25 L528.4,100.25 z" fill="url(#Gradient_15)"/>
        <path d="M571.9,114.15 L572.3,115.95 L589,144.15 L596,144.15 L596,100.25 L588.1,100.25 L588.1,130.25 L587.7,128.45 L570.9,100.25 L564,100.25 L564,144.15 L571.9,144.15 z" fill="url(#Gradient_16)"/>
        <path d="M604.3,107.75 L614.6,107.75 L614.6,144.15 L622.5,144.15 L622.5,107.75 L632.9,107.75 L632.9,100.25 L604.3,100.25 z" fill="url(#Gradient_17)"/>
        <path d="M641.2,100.25 L649.1,100.25 L649.1,144.15 L641.2,144.15 z" fill="url(#Gradient_18)"/>
        <path d="M670.1,100.25 L657.9,144.15 L666.4,144.15 L668.7,135.45 L682.2,135.45 L684.5,144.15 L693,144.15 L680.7,100.25 L670.1,100.25 z M670.3,128.65 L675.3,109.55 L675.4,107.85 L675.5,109.45 L680.4,128.55 L670.3,128.55 z" fill="url(#Gradient_19)"/>
        <path d="M709,100.25 L701.1,100.25 L701.1,144.15 L725.2,144.15 L725.2,136.65 L709,136.65 z" fill="url(#Gradient_20)"/>
        <path d="M752.8,100.25 L749.7,100.25 C742.7,100.25 737.3,105.55 737.3,112.55 L737.3,131.85 C737.3,138.85 742.7,144.15 749.7,144.15 L752.8,144.15 C759.8,144.15 765.2,138.85 765.2,131.85 L765.2,129.65 L757.5,128.95 L757.5,131.85 C757.5,134.65 755.4,136.85 752.6,136.85 L749.8,136.85 C747,136.85 744.9,134.65 744.9,131.85 L744.9,112.55 C744.9,109.75 747,107.55 749.8,107.55 L752.6,107.55 C755.4,107.55 757.5,109.75 757.5,112.55 L757.5,115.45 L765.2,114.75 L765.2,112.55 C765.3,105.55 759.8,100.25 752.8,100.25 z" fill="url(#Gradient_21)"/>
        <path d="M801.1,131.85 L801.1,112.55 C801.1,105.55 795.7,100.25 788.7,100.25 L785.6,100.25 C778.6,100.25 773.2,105.55 773.2,112.55 L773.2,131.85 C773.2,138.85 778.6,144.15 785.6,144.15 L788.7,144.15 C795.7,144.15 801.1,138.85 801.1,131.85 z M793.4,131.85 C793.4,134.65 791.3,136.85 788.5,136.85 L785.7,136.85 C782.9,136.85 780.8,134.65 780.8,131.85 L780.8,112.55 C780.8,109.75 782.9,107.55 785.7,107.55 L788.5,107.55 C791.3,107.55 793.4,109.75 793.4,112.55 L793.4,131.85 z" fill="url(#Gradient_22)"/>
        <path d="M830.6,133.75 L830.4,135.35 L830.3,133.75 L820.6,100.25 L809.1,100.25 L809.1,144.25 L817,144.25 L817,109.95 L817.2,111.85 L826.6,144.25 L834.3,144.25 L843.6,111.85 L843.9,109.95 L843.9,144.25 L851.8,144.25 L851.8,100.25 L840.2,100.25 z" fill="url(#Gradient_23)"/>
        <path d="M875.9,100.25 L859.5,100.25 L859.5,144.25 L867.4,144.25 L867.4,129.85 L875.8,129.85 C883,129.85 888.6,124.35 888.6,117.15 L888.6,112.95 C888.7,105.75 883.1,100.25 875.9,100.25 z M880.8,117.15 C880.8,120.05 878.7,122.35 875.8,122.35 L867.5,122.35 L867.5,107.75 L875.8,107.75 C878.7,107.75 880.8,110.05 880.8,112.95 L880.8,117.15 z" fill="url(#Gradient_24)"/>
        <path d="M924.4,131.75 L924.4,100.25 L916.6,100.25 L916.6,131.75 C916.6,134.65 914.5,136.85 911.6,136.85 L908.7,136.85 C905.8,136.85 903.7,134.65 903.7,131.75 L903.7,100.25 L895.9,100.25 L895.9,131.75 C895.9,138.85 901.4,144.25 908.5,144.25 L911.6,144.25 C918.8,144.25 924.4,138.85 924.4,131.75 z" fill="url(#Gradient_25)"/>
        <path d="M932.3,107.75 L942.7,107.75 L942.7,144.25 L950.6,144.25 L950.6,107.75 L961,107.75 L961,100.25 L932.3,100.25 z" fill="url(#Gradient_26)"/>
        <path d="M968.5,100.25 L976.4,100.25 L976.4,144.15 L968.5,144.15 z" fill="url(#Gradient_27)"/>
        <path d="M992.1,114.15 L992.5,116.05 L1009.3,144.25 L1016.2,144.25 L1016.2,100.25 L1008.3,100.25 L1008.3,130.35 L1007.9,128.45 L991.2,100.25 L984.2,100.25 L984.2,144.25 L992.1,144.25 z" fill="url(#Gradient_28)"/>
        <path d="M1048.6,114.75 L1048.6,112.55 C1048.6,105.55 1043.2,100.25 1036.2,100.25 L1033.1,100.25 C1026.1,100.25 1020.7,105.55 1020.7,112.55 L1020.7,131.85 C1020.7,138.85 1026.1,144.15 1033.1,144.15 L1034.9,144.15 C1038.4,144.15 1041.4,142.65 1043.4,140.15 L1045.6,143.55 L1048.6,143.55 L1048.6,119.85 L1040.9,119.85 L1034.6,119.85 L1034.6,127.15 L1040.9,127.15 L1040.9,131.75 C1040.9,134.55 1038.8,136.75 1036,136.75 L1033.2,136.75 C1030.4,136.75 1028.3,134.55 1028.3,131.75 L1028.3,112.55 C1028.3,109.75 1030.4,107.55 1033.2,107.55 L1036,107.55 C1038.8,107.55 1040.9,109.75 1040.9,112.55 L1040.9,115.45 L1048.6,114.75 z" fill="url(#Gradient_29)"/>
      </g>
      <g>
        <path d="M353.6,159.05 L349.1,159.05 C338.7,159.05 330.6,166.95 330.6,177.35 L330.6,205.95 C330.6,216.35 338.7,224.25 349.1,224.25 L353.6,224.25 C364,224.25 372.1,216.35 372.1,205.95 L372.1,202.65 L360.7,201.55 L360.7,205.85 C360.7,210.05 357.6,213.25 353.5,213.25 L349.3,213.25 C345.1,213.25 342.1,209.95 342.1,205.85 L342.1,177.25 C342.1,173.05 345.2,169.85 349.3,169.85 L353.5,169.85 C357.7,169.85 360.7,173.15 360.7,177.25 L360.7,181.55 L372.1,180.45 L372.1,177.15 C372,166.95 364,159.05 353.6,159.05 z" fill="url(#Gradient_30)"/>
        <path d="M429.4,159.05 L424.9,159.05 C414.5,159.05 406.4,166.95 406.4,177.35 L406.4,205.95 C406.4,216.35 414.5,224.25 424.9,224.25 L429.4,224.25 C439.8,224.25 447.9,216.35 447.9,205.95 L447.9,177.35 C447.9,166.95 439.8,159.05 429.4,159.05 z M436.5,205.95 C436.5,210.15 433.4,213.35 429.3,213.35 L425.1,213.35 C420.9,213.35 417.9,210.05 417.9,205.95 L417.9,177.35 C417.9,173.15 421,169.95 425.1,169.95 L429.3,169.95 C433.5,169.95 436.5,173.25 436.5,177.35 L436.5,205.95 z" fill="url(#Gradient_31)"/>
        <path d="M517.9,203.65 L517.3,200.95 L492.4,159.05 L482.1,159.05 L482.1,224.25 L493.8,224.25 L493.8,179.65 L494.4,182.45 L519.3,224.25 L529.6,224.25 L529.6,159.05 L517.9,159.05 z" fill="url(#Gradient_32)"/>
        <path d="M574.5,177.95 L574.5,177.45 C574.5,173.25 577.6,170.05 581.7,170.05 L584.5,170.05 C588.7,170.05 591.7,173.35 591.7,177.45 L591.7,180.65 L603.1,179.55 L603.1,177.45 C603.1,167.05 595,159.15 584.6,159.15 L581.4,159.15 C571,159.15 562.9,167.05 562.9,177.45 L562.9,177.95 C562.9,202.35 592.1,191.75 592.1,205.25 L592.1,206.05 C592.1,210.25 589,213.45 584.9,213.45 L581.2,213.45 C577,213.45 574,210.15 574,206.05 L574,202.85 L562.6,203.95 L562.6,206.05 C562.6,216.45 570.7,224.35 581.1,224.35 L585.2,224.35 C595.6,224.35 603.7,216.45 603.7,206.05 L603.7,205.25 C603.6,181.65 574.5,190.65 574.5,177.95 z" fill="url(#Gradient_33)"/>
        <path d="M661.6,159.05 L657.1,159.05 C646.7,159.05 638.6,166.95 638.6,177.35 L638.6,205.95 C638.6,216.35 646.7,224.25 657.1,224.25 L661.6,224.25 C672,224.25 680.1,216.35 680.1,205.95 L680.1,177.35 C680,166.95 672,159.05 661.6,159.05 z M668.6,205.95 C668.6,210.15 665.5,213.35 661.4,213.35 L657.2,213.35 C653,213.35 650,210.05 650,205.95 L650,177.35 C650,173.15 653.1,169.95 657.2,169.95 L661.4,169.95 C665.6,169.95 668.6,173.25 668.6,177.35 L668.6,205.95 z" fill="url(#Gradient_34)"/>
        <path d="M758.5,181.35 L758.5,177.85 C758.5,167.15 750.2,159.05 739.5,159.05 L715.3,159.05 L715.3,224.25 L727,224.25 L727,200.15 L734.6,200.15 L747,224.25 L759.9,224.25 L746.6,198.85 C753.7,196.15 758.5,189.55 758.5,181.35 z M739.4,188.95 L727.1,188.95 L727.1,170.25 L739.4,170.25 C743.7,170.25 746.9,173.65 746.9,177.85 L746.9,181.25 C746.8,185.65 743.6,188.95 739.4,188.95 z" fill="url(#Gradient_35)"/>
        <path d="M786.9,170.25 L802.2,170.25 L802.2,224.25 L814,224.25 L814,170.25 L829.3,170.25 L829.3,159.05 L786.9,159.05 z" fill="url(#Gradient_36)"/>
        <path d="M862.8,159.05 L874.5,159.05 L874.5,224.25 L862.8,224.25 z" fill="url(#Gradient_37)"/>
        <path d="M939.9,205.75 C939.9,209.95 936.8,213.25 932.6,213.25 L928.4,213.25 C924.2,213.25 921.1,209.95 921.1,205.75 L921.1,159.15 L909.5,159.15 L909.5,205.75 C909.5,216.35 917.7,224.25 928.2,224.25 L932.8,224.25 C943.4,224.25 951.5,216.25 951.5,205.75 L951.5,159.15 L939.9,159.15 L939.9,205.75 z" fill="url(#Gradient_38)"/>
        <path d="M1017,208.75 L1016.8,211.15 L1016.6,208.75 L1002.3,159.05 L985.1,159.05 L985.1,224.25 L996.9,224.25 L996.9,173.55 L997.2,176.35 L1011.1,224.25 L1022.5,224.25 L1036.3,176.35 L1036.7,173.55 L1036.7,224.25 L1048.5,224.25 L1048.5,159.05 L1031.3,159.05 z" fill="url(#Gradient_39)"/>
      </g>
    </g>
  </g>
</svg>
