<?xml version="1.0" encoding="UTF-8"?>
<svg id="Layer_1" xmlns="http://www.w3.org/2000/svg" width="789" height="318.3" version="1.1" viewBox="0 0 789 318.3">
  <!-- Generator: Adobe Illustrator 29.0.0, SVG Export Plug-In . SVG Version: 2.1.0 Build 186)  -->
  <defs>
    <style>
      .st0 {
        fill: none;
      }

      .st1 {
        fill-rule: evenodd;
      }
    </style>
  </defs>
  <g>
    <path class="st1" d="M140.4,90c.6,6.1,2.1,10.6,4.1,13.7,1.2,1.9,2.6,3.3,4,4.2,1.4.8,2.9,1.2,4.3,1,1.1-.1,2.2-.5,3.2-1.1,5.7-3.6,8-18.5,8.3-20.7-1.6-2-14-16.6-23.9,2.9h0ZM143.3,104.5c-2.1-3.3-3.7-8.1-4.3-14.5v-.2s0-.2,0-.2c11.7-23.2,26.5-3.2,26.6-3.1l.2.2v.3c0,0-2.3,17.8-9,22-1.2.8-2.5,1.2-3.8,1.3-1.7.2-3.5-.2-5.2-1.2-1.6-1-3.2-2.5-4.5-4.6Z"/>
    <path class="st1" d="M118.3,38.4c-1.8,0-3.4.7-4.6,1.9-1.2,1.2-1.9,2.8-1.9,4.6s.7,3.4,1.9,4.6c1.2,1.2,2.8,1.9,4.6,1.9s3.4-.7,4.6-1.9c1.2-1.2,1.9-2.8,1.9-4.6s-.7-3.4-1.9-4.6c-1.2-1.2-2.8-1.9-4.6-1.9h0ZM112.7,39.3c1.4-1.4,3.4-2.3,5.6-2.3s4.2.9,5.6,2.3c1.4,1.4,2.3,3.4,2.3,5.6s-.9,4.2-2.3,5.6c-1.4,1.4-3.4,2.3-5.6,2.3s-4.2-.9-5.6-2.3c-1.4-1.4-2.3-3.4-2.3-5.6s.9-4.2,2.3-5.6Z"/>
    <path d="M118.3,37.7c-4,0-7.2,3.2-7.2,7.2s3.2,7.2,7.2,7.2,7.2-3.2,7.2-7.2-3.2-7.2-7.2-7.2ZM120.6,48.1c-1.1,0-1.9-.9-1.9-1.9s.9-1.9,1.9-1.9,1.9.9,1.9,1.9-.9,1.9-1.9,1.9Z"/>
    <path class="st1" d="M183,38.4c-1.8,0-3.4.7-4.6,1.9-1.2,1.2-1.9,2.8-1.9,4.6s.7,3.4,1.9,4.6c1.2,1.2,2.8,1.9,4.6,1.9s3.4-.7,4.6-1.9c1.2-1.2,1.9-2.8,1.9-4.6s-.7-3.4-1.9-4.6c-1.2-1.2-2.8-1.9-4.6-1.9h0ZM177.4,39.3c1.4-1.4,3.4-2.3,5.6-2.3s4.2.9,5.6,2.3c1.4,1.4,2.3,3.4,2.3,5.6s-.9,4.2-2.3,5.6c-1.4,1.4-3.4,2.3-5.6,2.3s-4.2-.9-5.6-2.3c-1.4-1.4-2.3-3.4-2.3-5.6s.9-4.2,2.3-5.6Z"/>
    <path d="M183,37.7c-4,0-7.2,3.2-7.2,7.2s3.2,7.2,7.2,7.2,7.2-3.2,7.2-7.2-3.2-7.2-7.2-7.2ZM185.3,48.1c-1.1,0-1.9-.9-1.9-1.9s.9-1.9,1.9-1.9,1.9.9,1.9,1.9-.9,1.9-1.9,1.9Z"/>
    <g>
      <path class="st0" d="M136.3,54.7c-3.9,1.7-7.5,4-10.5,6.8-1.2,1.1-2.2,2.2-3.2,3.5,3.9-.8,7.5-2.8,10.2-5.6,1.4-1.4,2.6-3,3.5-4.7Z"/>
      <path class="st0" d="M162.9,53.6c-.4-.1-.8-.3-1.2-.4-4.1-1.3-8.4-1.8-12.7-1.5-3.7.3-7.4,1.1-10.8,2.4-1.1,2.4-2.6,4.5-4.4,6.4-3.3,3.3-7.6,5.5-12.3,6.2-2.9,4.3-4.6,9.3-4.4,14.8.2,5.4,2,9.3,4.6,11.8,1.4,1.3,3,2.2,4.7,2.8,1.7.6,3.6.9,5.5.8,4.3-.1,8.5-1.9,11.4-4.9,7.2-7.6,9.3-6,16.7-.5,1.4,1,3,2.2,4.8,3.5,5,3.5,10.2,3.3,14.4.8,1.9-1.2,3.6-2.8,4.9-4.8,1.3-2,2.2-4.4,2.6-7,.7-5.2-.6-11.2-5.2-17.1-5.4-.4-10.3-2.7-13.9-6.3-1.9-1.9-3.5-4.2-4.6-6.8Z"/>
      <path class="st0" d="M173.6,59.2c-2.7-2-5.7-3.7-8.9-5,1,1.9,2.2,3.7,3.7,5.2,3.1,3.1,7.1,5.2,11.7,5.8-1.8-2-3.9-4.1-6.6-6Z"/>
      <path class="st0" d="M137.2,52.9c1-2.5,1.6-5.2,1.6-8,0-5.7-2.3-10.8-6-14.5-3.7-3.7-8.9-6-14.5-6s-10.8,2.3-14.5,6c-3.7,3.7-6,8.9-6,14.5s2.3,10.8,6,14.5c3.7,3.7,8.9,6,14.5,6s1.6,0,2.4-.1c1.2-1.7,2.6-3.3,4.2-4.8,3.5-3.3,7.8-5.8,12.4-7.6Z"/>
      <path class="st0" d="M182.1,65.4c.3,0,.6,0,.9,0,5.7,0,10.8-2.3,14.5-6,3.7-3.7,6-8.9,6-14.5s-2.3-10.8-6-14.5c-3.7-3.7-8.9-6-14.5-6s-10.8,2.3-14.5,6c-3.7,3.7-6,8.9-6,14.5s.5,5.3,1.5,7.6c3.7,1.3,7.3,3.2,10.5,5.6,3.2,2.3,5.7,4.8,7.7,7.3Z"/>
      <path d="M118.3,65.4c-5.7,0-10.8-2.3-14.5-6-3.7-3.7-6-8.9-6-14.5s2.3-10.8,6-14.5c3.7-3.7,8.9-6,14.5-6s10.8,2.3,14.5,6c3.7,3.7,6,8.9,6,14.5s-.6,5.6-1.6,8c.6-.2,1.1-.5,1.7-.6.8-2.3,1.3-4.8,1.3-7.4,0-6.1-2.5-11.5-6.4-15.5-4-4-9.5-6.4-15.5-6.4s-11.5,2.5-15.5,6.4c-4,4-6.4,9.5-6.4,15.5s2.5,11.5,6.4,15.5c4,4,9.5,6.4,15.5,6.4s.9,0,1.4,0c.3-.5.6-1,1-1.5-.8,0-1.6.1-2.4.1Z"/>
      <path d="M204.9,44.9c0-6.1-2.5-11.5-6.4-15.5-4-4-9.5-6.4-15.5-6.4s-11.5,2.5-15.5,6.4c-4,4-6.4,9.5-6.4,15.5s.4,4.8,1.2,7c.6.2,1.1.4,1.7.6-.9-2.4-1.5-4.9-1.5-7.6,0-5.7,2.3-10.8,6-14.5,3.7-3.7,8.9-6,14.5-6s10.8,2.3,14.5,6c3.7,3.7,6,8.9,6,14.5s-2.3,10.8-6,14.5c-3.7,3.7-8.9,6-14.5,6s-.6,0-.9,0c.4.5.7,1,1.1,1.4,6,0,11.4-2.5,15.4-6.4,4-4,6.4-9.5,6.4-15.5Z"/>
      <path d="M173.6,59.2c2.6,1.9,4.8,4,6.6,6,.6,0,1.3.1,1.9.2-2-2.5-4.5-4.9-7.7-7.3-3.2-2.4-6.7-4.2-10.5-5.6.2.6.5,1.2.8,1.8,3.1,1.3,6.1,2.9,8.9,5Z"/>
      <path d="M136.3,54.7c.3-.6.6-1.2.9-1.8-4.6,1.8-8.9,4.3-12.4,7.6-1.6,1.5-3,3.1-4.2,4.8.7,0,1.3-.2,2-.3,1-1.2,2-2.4,3.2-3.5,3-2.8,6.6-5.1,10.5-6.8Z"/>
      <path d="M181.4,66.7c4.5,5.9,5.9,12,5.2,17.1-.4,2.6-1.3,5-2.6,7-1.3,2-3,3.7-4.9,4.8-4.1,2.5-9.4,2.7-14.4-.8-1.9-1.3-3.4-2.5-4.8-3.5-7.4-5.5-9.5-7.1-16.7.5-2.9,3-7.1,4.8-11.4,4.9-1.9,0-3.7-.2-5.5-.8-1.7-.6-3.4-1.5-4.7-2.8-2.7-2.5-4.5-6.3-4.6-11.8-.2-5.6,1.5-10.6,4.4-14.8-.6,0-1.2.1-1.8.2-2.6,4.3-4.2,9.2-4,14.7.2,5.8,2.1,10,5.1,12.7,1.5,1.4,3.3,2.5,5.2,3.1,1.9.7,3.9.9,6,.9,4.6-.1,9.2-2,12.3-5.3,6.3-6.7,8.2-5.3,14.8-.3,1.4,1,3,2.2,4.9,3.6,5.5,3.8,11.3,3.6,15.9.9,2.1-1.3,3.9-3.1,5.3-5.3,1.4-2.2,2.4-4.8,2.8-7.6.7-5.2-.5-11.3-4.8-17.3,0,0-.1,0-.2,0-.5,0-1.1,0-1.6,0Z"/>
      <path d="M149,51.6c4.2-.3,8.5.2,12.7,1.5.4.1.8.3,1.2.4-.2-.6-.4-1.1-.6-1.7,0,0,0,0-.1,0-4.3-1.3-8.8-1.9-13.2-1.6-3.4.2-6.8.9-10,2-.2.6-.4,1.2-.7,1.7,3.5-1.3,7.1-2.1,10.8-2.4Z"/>
      <path d="M122.6,64.9c-.6.1-1.3.2-2,.3-.3.5-.7,1-1,1.5.6,0,1.2,0,1.8-.2.4-.5.8-1.1,1.2-1.6Z"/>
      <path d="M136.3,54.7c.6-.3,1.3-.5,1.9-.7.3-.6.5-1.2.7-1.7-.6.2-1.1.4-1.7.6-.3.6-.6,1.2-.9,1.8Z"/>
      <path d="M180.1,65.2c.4.5.9,1,1.3,1.5.5,0,1.1,0,1.6,0s.1,0,.2,0c-.3-.5-.7-1-1.1-1.4-.7,0-1.3,0-1.9-.2Z"/>
      <path d="M164.7,54.2c-.3-.6-.6-1.2-.8-1.8-.6-.2-1.1-.4-1.7-.6.2.6.4,1.1.6,1.7.6.2,1.2.4,1.9.7Z"/>
    </g>
    <path class="st1" d="M142.4,56.8c-1.7.7-2.3,3-1.4,5.2.9,2.1,3,3.3,4.7,2.6,1.7-.7,2.3-3,1.4-5.2-.9-2.1-3-3.3-4.7-2.6Z"/>
    <path class="st1" d="M161.4,56.8c1.7.7,2.3,3,1.4,5.2-.9,2.1-3,3.3-4.7,2.6-1.7-.7-2.3-3-1.4-5.2.9-2.1,3-3.3,4.7-2.6Z"/>
    <path class="st0" d="M173.5,169c-.9.5-1.8.9-2.7,1.3-17.2,7.2-25,17-26.4,26-.6,4,.1,7.8,1.8,11.2.2.4.5.8.7,1.2,18.7-16,25.4-28.8,26.5-39.6Z"/>
    <path class="st0" d="M148.1,210.3c1.6,2.1,3.7,4,6.2,5.5,8.5,5.1,21.5,5.8,35.5-2.2,14.4-8.2,23.4-19.7,28-31.8,5.4-14.2,4.8-29.3-.2-40.9-2-4.5-4.4-7.1-7.1-8.3-2.5-1.1-5.2-1.1-7.9-.4-2.7.8-5.4,2.3-7.7,4-4.2,3.2-7.3,7.1-7.4,8.7,0,.2,0,.6,0,1.1-.4,4.9-1.2,15-11.7,21.7-.8,11.4-7.4,25.4-27.5,42.5Z"/>
    <path class="st0" d="M143.1,196.1c1.4-9.4,9.5-19.7,27.2-27,1.2-.5,2.4-1.1,3.4-1.7.3-5.8-.9-11-2.7-15.8-4.7-12.8-16.3-23.1-31.8-28.2-6.3-2.1-12.7-3.1-18.8-3.1s-16.5,2-22.5,6c-14,9.2-25.6,31.4-30.3,58.1-3.7,21.2,1.1,37.5,13.2,44.7,14.4,8.6,36.9,2.8,60.3-15.5,1.7-1.4,3.3-2.7,4.9-4-.3-.5-.6-1-.9-1.5-1.9-3.6-2.6-7.7-2-12Z"/>
    <path d="M141,213.5c-23.4,18.3-45.9,24.1-60.3,15.5-12.1-7.2-16.9-23.6-13.2-44.7,4.6-26.7,16.2-48.9,30.3-58.1,6.1-4,14-6,22.5-6s12.5,1,18.8,3.1c15.5,5.1,27.1,15.4,31.8,28.2,1.8,4.8,3,10,2.7,15.8.7-.4,1.4-.8,2-1.3.1-5.7-1.1-10.8-2.8-15.3-4.9-13.4-17-24.1-33.1-29.5-15.7-5.2-32.2-4-43.1,3.1-14.5,9.5-26.4,32.2-31.2,59.4-3.8,22.1,1.3,39.1,14.2,46.8,4.8,2.9,10.4,4.3,16.5,4.3,13.3,0,29.3-6.8,46.1-19.9,1.7-1.3,3.3-2.6,4.8-3.9-.4-.5-.8-1.1-1.2-1.7-1.6,1.3-3.2,2.6-4.9,4Z"/>
    <path d="M144.4,196.3c1.3-9,9.1-18.8,26.4-26,1-.4,1.9-.8,2.7-1.3,0-.6.1-1.1.1-1.7-1.1.6-2.2,1.2-3.4,1.7-17.7,7.4-25.8,17.6-27.2,27-.6,4.3.1,8.4,2,12,.3.5.6,1,.9,1.5.4-.3.7-.6,1.1-.9-.2-.4-.5-.8-.7-1.2-1.7-3.4-2.4-7.2-1.8-11.2Z"/>
    <g>
      <path class="st0" d="M167,217.1c-1,.7-2,1.4-3,2.1,7.4,1.2,16.3-.3,25.7-5.6,14.4-8.2,23.4-19.7,28-31.8,5.4-14.2,4.8-29.3-.2-40.9-.1-.2-.2-.4-.3-.7-9.2,31.1-26.9,59.7-50.3,76.8Z"/>
      <path class="st0" d="M216.3,138.5c-1.7-3-3.7-4.9-5.8-5.9-2.5-1.1-5.2-1.1-7.9-.4-2.7.8-5.4,2.3-7.7,4-4.2,3.2-7.3,7.1-7.4,8.7,0,.2,0,.6,0,1.1-.4,4.9-1.2,15-11.7,21.7,0-.6,0-1.2,0-1.7,9.1-6.3,9.9-15.5,10.3-20,0-.4,0-.7,0-1.1.2-1.9,3.5-6.3,8-9.7,2.4-1.8,5.3-3.4,8.2-4.3,3-.8,6-.9,8.9.4,2.1,1,4.1,2.7,5.8,5.3.9-3.4,1.8-6.8,2.5-10.3,7.3-34.7,4-70.9-13.7-97-6.5-9.5-14.9-16.6-24.3-21.2-10-5-21.2-7.2-32.3-6.7-16.1.7-29.9,5.7-40.7,14.9-10.6,9-18.3,22-22.6,38.9-1.4,5.6-2.6,12.1-3.4,21.1-.7,7.7-1,17.2-1,29.4,0,9.8-10.6,6.8-15.2,2.4-3.3-3.2-6-8.3-7.2-16.2-1.4-9.3-4.3-18.7-9.1-25-7.7-10.2-23.3-9.5-32.1-1.3-3,2.8-5.6,6.8-6.9,12.1-1.4,5.7-1.3,13,1.4,22.3,3.9,13.6,11,24,19.6,31.3,10,8.5,21.9,12.9,33.2,13.6h1c0,0-.4,1-.4,1-4.3,10.4-8.7,21.1-11.4,31.8-2.3,8.8-3.5,17.6-2.8,26.5.2,3.1.7,6.1,1.4,9.1.2,1,.5,2,.8,3h0s0,0,0,0c.7,4.1.4,7.6-1.6,10.4-2,2.8-5.6,4.9-11.6,6.4-3.1.8-6.6,1.2-10.3,1.7-13,1.7-27.4,3.5-28.6,22.5-.8,13.1,3.5,28.2,11.8,39.9,7.2,10.2,17.4,17.9,29.9,19.3,6.9.8,14.5.5,22-.8,9.8-1.7,19.3-5,26.6-9.5,7.2-4.5,12.1-10.2,12.9-16.8.2-1.4.1-2.9-.1-4.5-1.3-7.7-4.7-13.7-7.5-18.6-1.9-3.3-3.6-6.3-4.3-9.1-1.2-4.5-.2-7.6,1.9-9.7,2.1-2.1,5.3-3.1,8.9-3.6,13.5-1.9,23.5-4.7,32.9-9.1,7.9-3.6,15.4-8.5,24.3-14.9-2.6-.7-5-1.7-7.1-3-2.6-1.6-4.8-3.6-6.5-5.8.4-.3.7-.6,1.1-.9,1.6,2.1,3.7,4,6.2,5.5,2.3,1.4,5,2.4,7.9,3.1,1.3-.9,2.6-1.9,4-2.9,23.5-17.2,41.2-46.1,50.1-77.5Z"/>
      <path d="M136.3,234.8c-9.4,4.4-19.3,7.1-32.9,9.1-3.6.5-6.8,1.6-8.9,3.6-2.1,2.1-3.1,5.2-1.9,9.7.7,2.9,2.4,5.8,4.3,9.1,2.8,5,6.2,10.9,7.5,18.6.3,1.5.3,3,.1,4.5-.8,6.5-5.7,12.3-12.9,16.8-7.3,4.6-16.8,7.9-26.6,9.5-7.5,1.3-15.1,1.6-22,.8-12.4-1.4-22.7-9.1-29.9-19.3-8.3-11.7-12.6-26.9-11.8-39.9,1.2-19,15.6-20.8,28.6-22.5,3.6-.5,7.1-.9,10.3-1.7,6-1.5,9.7-3.6,11.6-6.4,2-2.8,2.3-6.3,1.6-10.4h0s0,0,0,0c-.3-1-.6-2-.8-3-.7-3-1.2-6-1.4-9.1-.7-8.9.5-17.7,2.8-26.5,2.8-10.7,7.1-21.3,11.4-31.8l.4-.9h-1c-11.3-.8-23.3-5.2-33.2-13.7-8.6-7.3-15.8-17.7-19.6-31.3-2.6-9.2-2.7-16.6-1.4-22.3,1.3-5.3,3.8-9.2,6.9-12.1,8.8-8.2,24.4-8.8,32.1,1.3,4.7,6.3,7.7,15.7,9.1,25,1.2,7.9,3.9,13.1,7.2,16.2,4.6,4.4,15.2,7.3,15.2-2.4,0-12.1.4-21.6,1-29.4.8-8.9,1.9-15.5,3.4-21.1,4.3-17,12.1-30,22.6-38.9,10.9-9.2,24.7-14.2,40.7-14.9,11.1-.5,22.3,1.7,32.3,6.7,9.4,4.6,17.8,11.7,24.3,21.2,17.7,26.1,21.1,62.3,13.7,97-.7,3.4-1.6,6.9-2.5,10.3.3.5.7,1.1,1,1.7,1.1-3.9,2.1-7.7,2.9-11.6,7.4-35,4-71.7-14-98.1-6.6-9.8-15.2-17-24.8-21.7C171.7,1.8,160.3-.4,148.9,0c-16.4.7-30.5,5.8-41.6,15.2-10.8,9.2-18.7,22.4-23.1,39.7-1.4,5.6-2.6,12.3-3.4,21.3-.7,7.9-1.1,17.6-1,30,0,2.9-2.6,5.3-5.8,4.6-2.5-.5-4.9-1.7-7-3.7-3.1-3-5.6-7.8-6.8-15.4-1.5-9.5-4.5-19.1-9.3-25.6-8.3-11-24.6-10.4-34.1-1.5-3.2,3-5.9,7.2-7.3,12.7-1.4,5.9-1.3,13.5,1.4,23,3.9,13.9,11.2,24.5,20.1,32,9.9,8.4,21.8,12.9,33.1,13.9-4.2,10.2-8.4,20.6-11.1,31.1-2.3,8.9-3.5,17.9-2.8,27,.3,3.5.6,5.8,1.5,9.2.2,1,.5,2,.8,3,.6,3.7.4,6.8-1.4,9.3-1.8,2.5-5.2,4.5-10.8,5.9-3.1.8-6.5,1.2-10.1,1.7-13.6,1.7-28.6,3.7-29.8,23.7-.8,13.4,3.6,28.8,12,40.8,7.4,10.5,18,18.4,30.9,19.9,7,.8,14.8.5,22.4-.8,10-1.7,19.7-5.1,27.1-9.7,7.5-4.7,12.7-10.8,13.5-17.8.2-1.6.1-3.2-.1-4.8-1.4-8-4.8-14-7.7-19.1-1.8-3.2-3.5-6.1-4.2-8.8-1-3.9-.3-6.6,1.5-8.4,1.8-1.8,4.8-2.8,8.1-3.2,13.7-2,23.7-4.7,33.3-9.2,8.2-3.8,16.1-8.9,25.6-15.7-.6-.1-1.2-.3-1.8-.4-9,6.4-16.5,11.2-24.3,14.9Z"/>
      <path d="M211,131.4c-2.8-1.3-5.9-1.3-8.9-.4-2.9.8-5.7,2.4-8.2,4.3-4.5,3.4-7.8,7.8-8,9.7,0,.4,0,.8,0,1.1-.4,4.5-1.1,13.7-10.3,20,0,.6,0,1.2,0,1.7,10.5-6.7,11.3-16.8,11.7-21.7,0-.5,0-.9,0-1.1.2-1.6,3.2-5.5,7.4-8.7,2.3-1.7,5-3.3,7.7-4,2.7-.8,5.4-.8,7.9.4,2.1,1,4.1,2.8,5.8,5.9.2-.6.3-1.2.5-1.8-1.7-2.6-3.7-4.3-5.8-5.3Z"/>
      <path d="M148.1,210.3c-.3.3-.7.6-1.1.9,1.7,2.3,3.9,4.3,6.5,5.8,2.1,1.3,4.5,2.3,7.1,3,.5-.4,1-.7,1.5-1.1-2.9-.7-5.6-1.7-7.9-3.1-2.5-1.5-4.5-3.4-6.2-5.5Z"/>
      <path d="M217.8,138.3c-.2.7-.4,1.3-.6,2,.1.2.2.4.3.7,5,11.6,5.6,26.7.2,40.9-4.6,12.1-13.6,23.6-28,31.8-9.4,5.4-18.3,6.8-25.7,5.6-.5.4-1.1.8-1.6,1.1,8,1.6,17.7.3,28-5.6,14.7-8.4,23.9-20.1,28.6-32.5,5.6-14.5,4.9-30-.2-42-.3-.8-.7-1.5-1-2.1Z"/>
      <path d="M216.3,138.5c.3.6.6,1.2.9,1.8.2-.7.4-1.3.6-2-.3-.6-.6-1.1-1-1.7-.2.6-.3,1.2-.5,1.8Z"/>
      <path d="M162.2,218.9c-.5.4-1,.7-1.5,1.1.6.2,1.2.3,1.8.4.5-.4,1-.8,1.6-1.1-.6,0-1.3-.2-1.9-.4Z"/>
    </g>
    <path d="M147,208.6c-.3.3-.7.6-1.1.9.4.6.7,1.1,1.2,1.7.4-.3.7-.6,1.1-.9-.4-.5-.8-1.1-1.1-1.7Z"/>
    <path d="M173.5,169c.7-.4,1.4-.8,2.1-1.2,0-.6,0-1.2,0-1.7-.6.4-1.3.9-2,1.3,0,.6,0,1.1-.1,1.7Z"/>
    <g>
      <path class="st1" d="M143.9,104.1c0,0,0,.2.1.2,0,0,0-.2-.1-.2Z"/>
      <path class="st1" d="M145.3,106c-.1-.1-.2-.2-.3-.4.1.1.2.2.3.4Z"/>
      <path class="st1" d="M151.2,109.6c.1,0,.2,0,.3,0-.1,0-.2,0-.3,0Z"/>
      <path class="st1" d="M146.1,106.8c0,0,.2.2.3.3,0,0-.2-.2-.3-.3Z"/>
      <path class="st1" d="M142.9,102.3c0,.2.2.4.3.5,0-.2-.2-.4-.3-.5Z"/>
      <path class="st1" d="M158.6,106.4c0,0,.1-.2.2-.2,0,0-.1.2-.2.2Z"/>
      <path class="st1" d="M157.3,98.1c1.5.8,2.8,2.1,3.9,3.6,2.8-6.5,3.9-14.9,3.9-14.9,0,0-14.2-19.2-25.4,3,.5,4.9,1.6,8.9,3,11.9,4.2-5,9.9-6.1,14.6-3.6Z"/>
      <path class="st1" d="M160.4,103.5c0-.1.1-.2.2-.4,0,.1-.1.2-.2.4Z"/>
      <path class="st1" d="M159.6,105c0,0,0-.1.1-.2,0,0,0,.1-.1.2Z"/>
      <path class="st1" d="M155.4,109c-.1,0-.2,0-.3.1.1,0,.2,0,.3-.1Z"/>
      <path class="st1" d="M154.1,109.4c0,0-.2,0-.3,0,0,0,.2,0,.3,0Z"/>
      <path class="st1" d="M157.5,107.6c0,0,.1-.1.2-.2,0,0-.1.1-.2.2Z"/>
      <path class="st1" d="M148.6,108.7c.1,0,.2.1.3.2-.1,0-.2-.1-.3-.2Z"/>
      <path class="st1" d="M150,109.3s0,0,0,0c0,0,0,0,0,0Z"/>
      <path class="st1" d="M147.5,108c0,0,.2.1.3.2,0,0-.2-.1-.3-.2Z"/>
      <path class="st1" d="M152.5,109.6c0,0,.2,0,.3,0,0,0-.2,0-.3,0Z"/>
    </g>
    <path class="st1" d="M142.2,101.4c2.1-2.6,4.7-4.2,7.3-4.8,2.8-.7,5.6-.3,8.2,1,.8.4,1.6,1,2.3,1.6.7.7,1.3,1.4,1.9,2.2l.2.3-.2.4c-.6,1.5-1.4,2.9-2.2,4-.8,1.2-1.8,2.2-2.9,2.9-.3.2-.7.4-1.1.6h0c-2.1,1-4.4,1.1-6.6.2-2.1-.8-4.2-2.6-5.9-5.3-.5-.7-.9-1.5-1.3-2.4l-.2-.4.3-.3h0ZM149.8,97.9c-2.2.6-4.4,1.9-6.3,4,.3.7.7,1.3,1,1.8,1.5,2.4,3.3,4,5.2,4.7,1.8.7,3.7.6,5.5-.2h0c.3-.1.6-.3.9-.5.9-.6,1.7-1.4,2.5-2.5.7-1,1.3-2.2,1.9-3.4-.5-.6-1-1.2-1.5-1.7h0c-.6-.6-1.3-1.1-2-1.4-2.3-1.2-4.8-1.5-7.2-.9Z"/>
    <path class="st1" d="M142.6,46.2c-.2,0-.4,0-.4-.2,0-.2,0-.4.3-.4,2.3-.6,5.3-1.1,8.6-1.1s5.2.3,7.9,1.1c.2,0,.3.2.2.4,0,.2-.2.3-.4.2-2.6-.8-5.2-1.1-7.7-1.1s-6.2.5-8.4,1.1Z"/>
    <path class="st1" d="M146.8,41.9c-.2,0-.4,0-.4-.3,0-.2,0-.4.3-.4,2.3-.4,6.2-.6,8.5,0,.2,0,.3.2.3.4,0,.2-.2.3-.4.3-2.1-.5-6-.3-8.2,0Z"/>
    <path class="st1" d="M147.6,112.3c-.2,0-.4,0-.4.3,0,.2,0,.4.3.4,2.3.4,6.2.6,8.5,0,.2,0,.3-.2.3-.4,0-.2-.2-.3-.4-.3-2.1.5-6,.3-8.2,0Z"/>
    <path class="st1" d="M122.8,81c.5-.4,1.3-.3,1.6.2.4.5.3,1.3-.2,1.6-.5.4-1.3.3-1.6-.2-.4-.5-.3-1.3.2-1.6Z"/>
    <path class="st1" d="M126.7,86.1c.5-.4,1.3-.3,1.6.2.4.5.3,1.3-.2,1.6-.5.4-1.3.3-1.6-.2-.4-.5-.3-1.3.2-1.6Z"/>
    <path class="st1" d="M128.3,81.1c.5-.4,1.3-.3,1.6.2.4.5.3,1.3-.2,1.6-.5.4-1.3.3-1.6-.2-.4-.5-.3-1.3.2-1.6Z"/>
    <path class="st1" d="M179.8,81c-.5-.4-1.3-.3-1.6.2-.4.5-.3,1.3.2,1.6.5.4,1.3.3,1.6-.2.4-.5.3-1.3-.2-1.6Z"/>
    <path class="st1" d="M175.9,86.1c-.5-.4-1.3-.3-1.6.2-.4.5-.3,1.3.2,1.6.5.4,1.3.3,1.6-.2.4-.5.3-1.3-.2-1.6Z"/>
    <path class="st1" d="M174.3,81.1c-.5-.4-1.3-.3-1.6.2-.4.5-.3,1.3.2,1.6.5.4,1.3.3,1.6-.2.4-.5.3-1.3-.2-1.6Z"/>
    <path class="st1" d="M193,132.5c-.2.2-.5.2-.7,0-.2-.2-.2-.5,0-.7,1.8-1.9,4.7-3.3,7.8-3.7,2.7-.4,5.6,0,8.2,1.5.2.1.3.4.2.7-.1.2-.4.3-.7.2-2.3-1.4-5-1.7-7.5-1.4-2.9.4-5.6,1.7-7.3,3.4Z"/>
    <path class="st1" d="M71.3,113.4c-.2-.2-.2-.5,0-.7.2-.2.5-.2.7,0,1.5,1.5,2.8,4,3.4,6.8.6,2.5.7,5.1,0,7.2,0,.3-.4.4-.6.3-.3,0-.4-.4-.3-.6.6-1.9.5-4.3,0-6.6-.6-2.6-1.8-5-3.2-6.3Z"/>
    <path class="st1" d="M69.8,110.4c-.2-.1-.4-.4-.3-.6.1-.2.4-.4.6-.3,2.1.9,3.8,1.7,5.4,2.6,1.5,1,2.9,2.1,4.1,3.7.2.2.1.5,0,.7-.2.2-.5.1-.7,0-1.1-1.5-2.4-2.6-3.8-3.5-1.5-.9-3.2-1.7-5.2-2.6Z"/>
    <path class="st1" d="M70.4,142.8c.2-.2.5-.1.7,0,.2.2.1.5,0,.7-1.3,1.1-2.7,1.6-4.3,1.9-1.5.3-3.2.3-4.8.2-.3,0-.5-.2-.5-.5,0-.3.2-.5.5-.5,1.6,0,3.2,0,4.6-.2,1.4-.3,2.7-.8,3.8-1.7Z"/>
    <path class="st1" d="M46.5,301.9c-.4,10.3,9.1,10.1,13.1,5.9,2.8-3,3.6-9-3.7-10.7-4.3-1-9.2,0-9.4,4.9Z"/>
    <path class="st1" d="M33,307.5c5.2,6.3,14.8-6.9,2.7-6.3-4.4.2-4.7,3-2.7,6.3Z"/>
    <path class="st1" d="M32,279.9c-.6-5.3-6.9-4.9-9.4-2.5-1.8,1.8-3.8,5.1,1.3,7.7,4.4,2.2,8.6-.9,8.1-5.2Z"/>
    <path class="st1" d="M18.2,294.9c5.2,6.3,14.8-6.9,2.7-6.3-4.4.2-4.7,3-2.7,6.3Z"/>
    <path class="st1" d="M7.1,271.3c-.8,8.2,9.8,7,11.1,2.1.4-1.7,1-4.4-2-6.4-4-2.6-8.6-.3-9.1,4.3Z"/>
    <path class="st1" d="M7.2,257.7c-.8,3.8,4.6,5.3,6.2,3.4.8-.9,2.3-2.7.3-5.3-2.3-3-5.9-1.2-6.6,1.8Z"/>
    <path class="st1" d="M33,289.5c-.8,4.2,5.7,5.5,6.6,2.8,1.9-5.9-5.4-9.1-6.6-2.8Z"/>
    <path class="st1" d="M104.5,70.5c-.3,0-.5-.2-.5-.5,0-.3.2-.5.5-.5,11.2-.1,20.2,4.3,20.2,4.4.2.1.3.4.2.7-.1.2-.4.3-.7.2,0,0-8.8-4.4-19.7-4.3Z"/>
    <path class="st1" d="M200.1,69.5c.3,0,.5.2.5.5,0,.3-.2.5-.5.5-11-.1-19.7,4.2-19.7,4.3-.2.1-.5,0-.7-.2-.1-.2,0-.5.2-.7,0,0,9-4.5,20.2-4.4Z"/>
    <path class="st1" d="M201.8,80.5c.3,0,.4.4.3.6,0,.3-.4.4-.6.3-10.4-3.8-20.2-2.6-20.2-2.6-.3,0-.5-.2-.5-.4,0-.3.2-.5.4-.5,0,0,10-1.3,20.7,2.6Z"/>
    <path class="st1" d="M103.5,81.5c-.3,0-.5,0-.6-.3,0-.3,0-.5.3-.6,10.6-3.9,20.6-2.6,20.7-2.6.3,0,.5.3.4.5,0,.3-.3.5-.5.4,0,0-9.8-1.2-20.2,2.6Z"/>
    <path class="st1" d="M195.3,92.7c.2.2.2.5,0,.7-.2.2-.5.2-.7,0-6.6-5.9-14.2-7.9-14.2-7.9-.3,0-.4-.3-.4-.6,0-.3.3-.4.6-.4,0,0,7.8,2,14.6,8.1Z"/>
    <path class="st1" d="M108.8,93.4c-.2.2-.5.2-.7,0-.2-.2-.2-.5,0-.7,6.7-6,14.6-8.1,14.6-8.1.3,0,.5,0,.6.4,0,.3,0,.5-.4.6,0,0-7.6,2-14.2,7.9Z"/>
    <path class="st1" d="M57.4,225.3c-.2-.2-.1-.5.1-.7.2-.2.5-.1.7.1,3.2,4.5,8.3,8.4,14,11.1,6.1,2.9,12.6,4.6,17.8,4.3.3,0,.5.2.5.5,0,.3-.2.5-.5.5-5.3.3-12.1-1.4-18.3-4.4-5.8-2.8-11.1-6.8-14.4-11.5Z"/>
    <path class="st1" d="M57.1,231.6c-.2-.2-.1-.5.1-.7.2-.2.5-.1.7.1,1.5,2.1,3.4,4,5.5,5.8,2.3,1.9,5,3.6,7.8,5,.2.1.3.4.2.7-.1.2-.4.3-.7.2-2.8-1.4-5.5-3.2-7.9-5.1-2.2-1.8-4.2-3.8-5.7-6Z"/>
  </g>
  <g>
    <path d="M286.4,213.1c-6.2,0-9.3-1.7-9.3-5.1v-98.6c0-3.4,3.1-5.1,9.3-5.1h4.6c3.8,0,6.5.3,8,.9,1.5.6,2.6,1.8,3.3,3.4l15.5,34.9c.8,2,1.5,3.8,2,5.6.5,1.8,1,3.4,1.4,4.8.3-1.4.7-3,1.2-4.8s1.2-3.6,2.1-5.6l15.6-34.9c.7-1.6,1.8-2.8,3.3-3.4,1.5-.6,4.1-.9,8-.9h4.6c6.2,0,9.3,1.7,9.3,5.1v98.6c0,3.4-3.1,5.1-9.3,5.1h-3.7c-6.2,0-9.3-1.7-9.3-5.1v-45.6c0-1.4,0-2.9.2-4.3.1-1.4.3-2.8.6-4.2l-.6-.2c-.4,1.2-.9,2.5-1.5,3.6s-1.1,2.4-1.6,3.6l-8.7,19.8c-1.1,2.5-4.1,3.7-9,3.7h-2.6c-5.1,0-8.1-1.2-9.3-3.7l-8.2-19.8c-.4-1.1-.9-2.3-1.4-3.6-.5-1.2-1-2.5-1.5-3.7l-.6.2c.2,1.3.4,2.7.5,4.2.1,1.4.2,2.9.2,4.3v45.6c0,3.4-3.1,5.1-9.3,5.1h-3.7Z"/>
    <path d="M399.7,214.1c-7.3,0-12.9-2.2-16.7-6.6-3.8-4.4-5.7-10.3-5.7-17.6s.4-6.1,1.2-9.4c.8-3.3,2.5-6.4,5.1-9.4,2.6-2.9,6.4-5.3,11.6-7.2,5.2-1.9,12-2.8,20.6-2.8v-2.5c0-3.3-.7-5.7-2.2-7.3-1.5-1.6-3.9-2.4-7.2-2.4s-6.9.4-9.8,1.2c-2.9.8-5.4,1.7-7.3,2.5-2,.8-3.4,1.2-4.3,1.2s-1.9-.8-2.5-2.4c-.6-1.6-1.1-3.4-1.3-5.5-.3-2.1-.4-3.7-.4-4.9s1.3-3.1,4-4.6c2.7-1.5,6.1-2.9,10.4-3.9,4.2-1.1,8.6-1.6,13-1.6,7.6,0,13.7,1.1,18.2,3.4,4.5,2.3,7.7,5.4,9.7,9.4,2,4,3,8.7,3,13.9v28.6c0,4.5.1,8.1.4,10.8.3,2.7.5,4.8.8,6.4.3,1.6.4,3,.4,4.1s-.7,2.1-2.2,2.8c-1.5.7-3.3,1.3-5.3,1.7-2.1.4-4,.7-5.8.9-1.8.2-3,.2-3.6.2-2,0-3.3-.5-4-1.6-.7-1.1-1.4-3.2-2-6.3-1.1,1.8-3.2,3.7-6.1,5.8s-6.8,3.2-11.7,3.2ZM407.9,197.5c3.6,0,6.2-1.7,7.9-5.1v-18.1c-5.7,0-9.7,1.3-12,3.9-2.3,2.6-3.5,5.9-3.5,9.9s.6,5.1,1.9,6.8c1.3,1.8,3.2,2.6,5.6,2.6Z"/>
    <path d="M460.5,213.1c-3.3,0-5.7-.4-7.2-1.3s-2.2-2.1-2.2-3.8v-49.2c0-4.5-.1-8.2-.4-10.9-.3-2.7-.5-4.9-.8-6.4s-.4-2.9-.4-4,.7-2.1,2.2-2.8c1.5-.7,3.3-1.3,5.4-1.6,2.1-.4,4.1-.6,6-.8,1.9-.2,3.3-.2,4.1-.2,1.9,0,3.1.7,3.7,2,.6,1.3,1.3,4.1,2.2,8.4,2.3-2.9,5.2-5.6,8.9-8,3.7-2.5,7.9-3.7,12.8-3.7s10.9,1.8,14.2,5.5c3.3,3.7,5,9,5,16v55.8c0,1.7-.8,2.9-2.2,3.8s-3.9,1.3-7.2,1.3h-4.3c-3.3,0-5.7-.4-7.2-1.3s-2.2-2.1-2.2-3.8v-51.2c0-2.4-.5-4.2-1.5-5.4-1-1.2-2.9-1.9-5.6-1.9s-3.4.5-5.1,1.4c-1.8.9-3.2,2.1-4.3,3.6v53.5c0,1.7-.8,2.9-2.2,3.8s-3.9,1.3-7.2,1.3h-4.3Z"/>
    <path d="M546.6,214.1c-7.3,0-12.9-2.2-16.7-6.6-3.8-4.4-5.7-10.3-5.7-17.6s.4-6.1,1.2-9.4c.8-3.3,2.5-6.4,5.1-9.4,2.6-2.9,6.4-5.3,11.6-7.2s12-2.8,20.6-2.8v-2.5c0-3.3-.8-5.7-2.2-7.3-1.5-1.6-3.9-2.4-7.2-2.4s-6.9.4-9.8,1.2c-2.9.8-5.4,1.7-7.3,2.5-2,.8-3.4,1.2-4.3,1.2s-1.9-.8-2.5-2.4c-.6-1.6-1.1-3.4-1.3-5.5-.3-2.1-.4-3.7-.4-4.9s1.3-3.1,4-4.6c2.7-1.5,6.1-2.9,10.4-3.9,4.2-1.1,8.6-1.6,13-1.6,7.6,0,13.7,1.1,18.2,3.4,4.5,2.3,7.7,5.4,9.7,9.4,2,4,3,8.7,3,13.9v28.6c0,4.5.1,8.1.4,10.8.3,2.7.5,4.8.8,6.4.3,1.6.4,3,.4,4.1s-.8,2.1-2.2,2.8c-1.5.7-3.3,1.3-5.3,1.7-2.1.4-4,.7-5.8.9-1.8.2-3,.2-3.6.2-2,0-3.3-.5-4-1.6-.7-1.1-1.4-3.2-2-6.3-1.1,1.8-3.2,3.7-6.1,5.8s-6.8,3.2-11.7,3.2ZM554.8,197.5c3.6,0,6.2-1.7,7.9-5.1v-18.1c-5.7,0-9.7,1.3-12,3.9-2.3,2.6-3.5,5.9-3.5,9.9s.6,5.1,1.9,6.8c1.3,1.8,3.2,2.6,5.6,2.6Z"/>
    <path d="M623,213.1c-6.2,0-9.3-1.7-9.3-5.1v-83.2h-17.3c-3.1,0-4.6-2.6-4.6-7.7v-4.8c0-5.2,1.5-7.7,4.6-7.7h58.6c3.1,0,4.6,2.6,4.6,7.7v4.8c0,5.2-1.5,7.7-4.6,7.7h-17.3v83.2c0,3.4-3.1,5.1-9.3,5.1h-5.4Z"/>
    <path d="M673.1,212.8c-3.8,0-5.7-2.1-5.7-6.2v-95.9c0-4.1,1.9-6.2,5.7-6.2h45.5c3.1,0,4.6,2.6,4.6,7.7v4.8c0,5.2-1.5,7.7-4.6,7.7h-27.2v22.4h24.3c3,0,4.5,2.6,4.5,7.7v4.8c0,5.2-1.5,7.7-4.5,7.7h-24.3v25h27.2c3.1,0,4.6,2.6,4.6,7.7v4.8c0,5.2-1.5,7.7-4.6,7.7h-45.5Z"/>
    <path d="M738.9,212.8c-3.8,0-5.7-2.1-5.7-6.2v-95.9c0-4.1,1.9-6.2,5.7-6.2h45.5c3.1,0,4.6,2.6,4.6,7.7v4.8c0,5.2-1.5,7.7-4.6,7.7h-27.2v22.4h24.3c3,0,4.5,2.6,4.5,7.7v4.8c0,5.2-1.5,7.7-4.5,7.7h-24.3v25h27.2c3.1,0,4.6,2.6,4.6,7.7v4.8c0,5.2-1.5,7.7-4.6,7.7h-45.5Z"/>
  </g>
</svg>