<?xml version="1.0" encoding="UTF-8"?>
<!DOCTYPE svg PUBLIC "-//W3C//DTD SVG 1.1//EN" "http://www.w3.org/Graphics/SVG/1.1/DTD/svg11.dtd">
<svg version="1.1" xmlns="http://www.w3.org/2000/svg" xmlns:xlink="http://www.w3.org/1999/xlink" x="0" y="0" width="340" height="500" viewBox="0, 0, 170, 250">
  <g id="Background">
    <rect x="0" y="0" width="170" height="250" fill="#000000" fill-opacity="0"/>
  </g>
  <g id="Layer_2">
    <path d="M-0,0 L171.347,0 L171.347,250 L-0,250 L-0,0 z" fill="#000000"/>
  </g>
  <g id="Layer_1">
    <g>
      <path d="M26.676,7.943 L26.676,50.992 L125.161,50.992 C120.038,54.938 115.079,58.949 110.299,63.006 L26.676,63.006 L26.676,88.801 L82.719,88.801 C78.834,92.815 75.133,96.826 71.612,100.815 L26.676,100.815 L26.676,110.031 C27.875,115.652 29.439,121.191 31.355,126.609 L51.142,126.609 C48.268,130.7 45.625,134.714 43.224,138.624 L36.3,138.624 C37.318,140.759 38.392,142.865 39.523,144.943 C36.42,150.465 33.825,155.75 31.801,160.703 C31.413,161.612 31.544,162.66 32.146,163.443 C32.749,164.229 33.726,164.629 34.704,164.489 C35.684,164.35 36.511,163.695 36.869,162.772 C50.923,128.386 94.761,75.064 156.973,35.315 C158.016,34.666 158.501,33.401 158.156,32.221 C157.811,31.043 156.724,30.236 155.497,30.249 C154.974,30.255 154.462,30.411 154.024,30.698 C150.15,33.174 146.35,35.698 142.621,38.266 L142.621,7.943 L116.44,7.943 L116.44,25.198 L97.74,25.198 L97.74,7.943 L71.559,7.943 L71.559,25.198 L52.859,25.198 L52.859,7.943 z M140.707,52.64 C138.062,52.643 135.918,54.787 135.918,57.432 C135.918,59.088 136.775,60.627 138.182,61.501 L137.769,87.801 C136.603,88.708 135.921,90.101 135.918,91.577 C135.918,94.222 138.062,96.369 140.707,96.369 C143.354,96.369 145.498,94.222 145.498,91.577 C145.498,89.926 144.65,88.393 143.25,87.519 L143.661,61.197 C144.819,60.29 145.496,58.902 145.498,57.432 C145.498,54.787 143.354,52.643 140.707,52.64 z M127.003,72.192 L118.127,72.373 C117.511,72.387 116.917,72.608 116.443,73.003 C111.843,76.806 107.219,80.683 102.496,86.706 C99.952,86.84 97.959,88.938 97.956,91.487 C97.956,94.132 100.1,96.275 102.748,96.275 C105.393,96.278 107.539,94.132 107.539,91.487 C107.539,90.849 107.413,90.219 107.167,89.633 C111.17,84.62 115.058,81.291 119.238,77.827 L124.32,77.726 L124.32,87.284 C122.784,88.125 121.831,89.734 121.831,91.487 C121.831,94.132 123.975,96.275 126.623,96.275 C129.268,96.275 131.411,94.132 131.411,91.487 C131.409,90.115 130.82,88.812 129.796,87.905 L129.796,74.928 C129.796,74.194 129.5,73.487 128.975,72.973 C128.449,72.458 127.74,72.176 127.003,72.19 z M85.824,103.865 C83.179,103.865 81.036,106.012 81.033,108.657 C81.033,111.304 83.179,113.448 85.824,113.448 C87.399,113.448 88.872,112.673 89.764,111.378 C89.871,111.389 89.978,111.395 90.085,111.395 L134.949,111.395 C135.844,112.681 137.312,113.448 138.878,113.451 C141.525,113.451 143.669,111.304 143.669,108.657 C143.669,106.012 141.525,103.868 138.878,103.868 C137.314,103.871 135.85,104.634 134.954,105.919 L90.085,105.919 C89.978,105.916 89.871,105.921 89.764,105.932 C88.872,104.637 87.399,103.865 85.824,103.865 z M121.571,119.515 C119.964,119.515 118.464,120.323 117.576,121.662 L71.256,121.752 C70.514,121.752 69.802,122.056 69.287,122.593 C64.906,127.149 62.048,131.308 59.269,135.845 C57.311,136.493 55.989,138.325 55.989,140.387 C55.986,143.034 58.132,145.178 60.777,145.178 C63.425,145.178 65.569,143.034 65.569,140.387 C65.566,139.374 65.246,138.388 64.649,137.572 C66.932,133.966 69.279,130.738 72.54,127.228 L117.711,127.138 C118.614,128.367 120.046,129.095 121.571,129.098 C124.216,129.098 126.363,126.952 126.36,124.307 C126.36,121.659 124.216,119.515 121.571,119.515 z M136.819,119.515 C134.174,119.515 132.03,121.659 132.03,124.304 C132.03,125.353 132.375,126.368 133.01,127.201 C131.934,130.106 130.675,132.937 129.251,135.705 C126.738,135.877 124.788,137.961 124.786,140.48 C124.786,143.125 126.929,145.271 129.577,145.271 C132.222,145.271 134.368,143.125 134.368,140.48 C134.366,139.809 134.223,139.147 133.95,138.533 C135.573,135.412 137.002,132.198 138.221,128.887 C140.236,128.271 141.613,126.412 141.613,124.304 C141.613,121.659 139.467,119.515 136.819,119.515 z M78.999,138.062 C78.062,138.062 77.191,138.541 76.688,139.33 L68.498,152.141 C66.048,152.387 64.183,154.449 64.183,156.91 C64.183,159.555 66.327,161.699 68.975,161.702 C71.62,161.702 73.766,159.555 73.766,156.91 C73.764,156.188 73.599,155.473 73.282,154.824 L80.496,143.544 L109.464,143.577 L115,154.452 C114.554,155.194 114.318,156.043 114.316,156.91 C114.316,159.555 116.462,161.702 119.11,161.702 C121.755,161.699 123.898,159.555 123.898,156.91 C123.898,154.608 122.261,152.634 120,152.204 L113.582,139.598 C113.116,138.678 112.172,138.101 111.142,138.098 z M50.847,152.119 C48.202,152.119 46.055,154.263 46.055,156.91 C46.061,159.134 47.591,161.064 49.757,161.571 C51.57,164.615 53.826,168.287 60.265,174.086 C60.263,174.119 60.263,174.149 60.26,174.182 C60.26,176.826 62.406,178.973 65.054,178.973 C67.699,178.973 69.843,176.826 69.843,174.182 C69.846,171.534 67.699,169.39 65.054,169.39 C64.528,169.39 64.008,169.478 63.513,169.648 C58.283,164.922 56.484,162.192 54.885,159.492 C55.378,158.72 55.641,157.825 55.641,156.91 C55.641,154.263 53.494,152.116 50.847,152.119 z M87.484,152.119 C84.839,152.116 82.692,154.263 82.692,156.91 C82.692,159.555 84.839,161.702 87.484,161.702 C90.131,161.699 92.275,159.555 92.275,156.91 C92.275,154.263 90.131,152.119 87.484,152.119 z M102.701,152.119 C100.056,152.119 97.91,154.263 97.91,156.91 C97.912,158.474 98.679,159.939 99.963,160.834 L99.824,177.987 C95.667,182.708 91.259,186.842 86.591,190.393 C84.113,188.507 81.734,186.62 79.976,184.534 L80.009,177.04 L84.16,176.993 C85.06,178.234 86.501,178.97 88.034,178.973 C90.679,178.973 92.823,176.826 92.825,174.182 C92.825,171.534 90.679,169.39 88.034,169.39 C86.435,169.39 84.943,170.187 84.056,171.515 L77.249,171.591 C75.754,171.611 74.549,172.824 74.544,174.318 L74.495,185.687 C74.492,186.303 74.697,186.902 75.078,187.387 C77.906,191.004 81.534,193.709 85.011,196.277 C85.961,196.978 87.259,196.989 88.223,196.304 C94.246,192.017 99.607,186.732 104.618,180.961 C105.048,180.468 105.283,179.838 105.288,179.187 L105.439,160.842 C106.726,159.947 107.493,158.477 107.493,156.91 C107.495,154.263 105.349,152.119 102.701,152.119 z" fill="#FFFFFF"/>
      <path d="M46.621,226.021 L32.605,226.021 L32.605,236.521 L48.988,236.521 L48.988,241.255 L26.676,241.255 L26.676,207.13 L48.824,207.13 L48.824,211.911 L32.605,211.911 L32.605,221.333 L46.621,221.333 z M58.551,215.896 L58.715,218.825 Q61.527,215.426 66.098,215.426 Q74.019,215.426 74.16,224.497 L74.16,241.255 L68.465,241.255 L68.465,224.825 Q68.465,222.411 67.422,221.251 Q66.379,220.09 64.012,220.09 Q60.566,220.09 58.879,223.208 L58.879,241.255 L53.184,241.255 L53.184,215.896 z M95.113,241.255 Q94.738,240.528 94.457,238.888 Q91.738,241.724 87.801,241.724 Q83.98,241.724 81.566,239.544 Q79.152,237.364 79.152,234.153 Q79.152,230.099 82.164,227.931 Q85.176,225.763 90.777,225.763 L94.269,225.763 L94.269,224.099 Q94.269,222.13 93.168,220.946 Q92.066,219.763 89.816,219.763 Q87.871,219.763 86.629,220.735 Q85.387,221.708 85.387,223.208 L79.691,223.208 Q79.691,221.122 81.074,219.306 Q82.457,217.489 84.836,216.458 Q87.215,215.426 90.144,215.426 Q94.598,215.426 97.246,217.665 Q99.894,219.903 99.965,223.958 L99.965,235.396 Q99.965,238.817 100.926,240.857 L100.926,241.255 z M88.855,237.153 Q90.543,237.153 92.031,236.333 Q93.519,235.513 94.269,234.13 L94.269,229.349 L91.199,229.349 Q88.035,229.349 86.441,230.45 Q84.848,231.551 84.848,233.567 Q84.848,235.208 85.937,236.181 Q87.027,237.153 88.855,237.153 z M119.207,221.099 Q118.082,220.911 116.887,220.911 Q112.973,220.911 111.613,223.911 L111.613,241.255 L105.918,241.255 L105.918,215.896 L111.355,215.896 L111.496,218.732 Q113.559,215.426 117.215,215.426 Q118.434,215.426 119.23,215.755 z M131.91,224.239 L136.738,215.896 L143.066,215.896 L135.309,228.388 L143.324,241.255 L137.043,241.255 L131.98,232.583 L126.941,241.255 L120.613,241.255 L128.629,228.388 L120.894,215.896 L127.176,215.896 z" fill="#FFFFFF"/>
    </g>
  </g>
</svg>
