<?xml version="1.0" encoding="UTF-8"?>
<!DOCTYPE svg PUBLIC "-//W3C//DTD SVG 1.1//EN" "http://www.w3.org/Graphics/SVG/1.1/DTD/svg11.dtd">
<svg version="1.1" xmlns="http://www.w3.org/2000/svg" xmlns:xlink="http://www.w3.org/1999/xlink" x="0" y="0" width="399.36" height="153.36" viewBox="0, 0, 199.68, 76.68">
  <g id="Background">
    <rect x="0" y="0" width="199.68" height="76.68" fill="#000000"/>
  </g>
  <g id="Layer_2">
    <path d="M0,0 L199.68,0 L199.68,76.68 L0,76.68 L0,0 z" fill="#000000"/>
  </g>
  <g id="Layer_1">
    <path d="M4.002,3.98 L4.002,19.703 L39.972,19.703 C38.101,21.144 36.29,22.609 34.544,24.091 L4.002,24.091 L4.002,33.512 L24.471,33.512 C23.052,34.978 21.7,36.443 20.414,37.9 L4.002,37.9 L4.002,41.266 C4.44,43.319 5.011,45.342 5.711,47.321 L12.938,47.321 C11.888,48.815 10.923,50.281 10.046,51.709 L7.517,51.709 C7.889,52.489 8.281,53.258 8.694,54.017 C7.561,56.034 6.613,57.964 5.874,59.773 C5.732,60.105 5.78,60.488 6,60.774 C6.22,61.061 6.577,61.207 6.934,61.156 C7.292,61.105 7.594,60.866 7.725,60.529 C12.858,47.97 28.869,28.495 51.591,13.977 C51.972,13.74 52.149,13.278 52.023,12.847 C51.897,12.417 51.5,12.122 51.052,12.127 C50.861,12.129 50.674,12.186 50.514,12.291 C49.099,13.195 47.711,14.117 46.349,15.055 L46.349,3.98 L36.787,3.98 L36.787,10.282 L29.957,10.282 L29.957,3.98 L20.395,3.98 L20.395,10.282 L13.565,10.282 L13.565,3.98 z M45.65,20.305 C44.684,20.306 43.901,21.089 43.901,22.055 C43.901,22.66 44.214,23.222 44.728,23.541 L44.577,33.147 C44.151,33.478 43.902,33.987 43.901,34.526 C43.901,35.492 44.684,36.276 45.65,36.276 C46.617,36.276 47.4,35.492 47.4,34.526 C47.4,33.923 47.09,33.363 46.579,33.044 L46.729,23.43 C47.152,23.099 47.399,22.592 47.4,22.055 C47.4,21.089 46.617,20.306 45.65,20.305 z M40.645,27.446 L37.403,27.512 C37.178,27.517 36.961,27.598 36.788,27.742 C35.108,29.131 33.419,30.547 31.694,32.747 C30.765,32.796 30.037,33.562 30.036,34.493 C30.036,35.459 30.819,36.242 31.786,36.242 C32.752,36.243 33.536,35.459 33.536,34.493 C33.536,34.26 33.49,34.03 33.4,33.816 C34.862,31.985 36.282,30.769 37.809,29.504 L39.665,29.467 L39.665,32.958 C39.104,33.265 38.756,33.853 38.756,34.493 C38.756,35.459 39.539,36.242 40.506,36.242 C41.472,36.242 42.255,35.459 42.255,34.493 C42.254,33.992 42.039,33.516 41.665,33.185 L41.665,28.445 C41.665,28.177 41.557,27.919 41.365,27.731 C41.173,27.543 40.914,27.44 40.645,27.445 z M25.605,39.014 C24.639,39.014 23.856,39.798 23.855,40.764 C23.855,41.731 24.639,42.514 25.605,42.514 C26.18,42.514 26.718,42.231 27.044,41.758 C27.083,41.762 27.122,41.764 27.161,41.764 L43.547,41.764 C43.874,42.234 44.41,42.514 44.982,42.515 C45.949,42.515 46.732,41.731 46.732,40.764 C46.732,39.798 45.949,39.015 44.982,39.015 C44.411,39.016 43.876,39.295 43.549,39.764 L27.161,39.764 C27.122,39.763 27.083,39.765 27.044,39.769 C26.718,39.296 26.18,39.014 25.605,39.014 z M38.661,44.73 C38.074,44.73 37.526,45.025 37.202,45.514 L20.284,45.547 C20.013,45.547 19.753,45.658 19.565,45.854 C17.965,47.518 16.921,49.037 15.906,50.694 C15.191,50.931 14.708,51.6 14.708,52.353 C14.707,53.32 15.491,54.103 16.457,54.103 C17.424,54.103 18.207,53.32 18.207,52.353 C18.206,51.983 18.089,51.623 17.871,51.325 C18.705,50.008 19.562,48.829 20.753,47.547 L37.251,47.514 C37.581,47.963 38.104,48.229 38.661,48.23 C39.627,48.23 40.411,47.446 40.41,46.48 C40.41,45.513 39.627,44.73 38.661,44.73 z M44.23,44.73 C43.264,44.73 42.481,45.513 42.481,46.479 C42.481,46.862 42.607,47.233 42.839,47.537 C42.446,48.598 41.986,49.632 41.466,50.643 C40.548,50.706 39.836,51.467 39.835,52.387 C39.835,53.353 40.618,54.137 41.585,54.137 C42.551,54.137 43.335,53.353 43.335,52.387 C43.334,52.142 43.282,51.9 43.182,51.676 C43.775,50.536 44.297,49.362 44.742,48.153 C45.478,47.928 45.981,47.249 45.981,46.479 C45.981,45.513 45.197,44.73 44.23,44.73 z M23.112,51.504 C22.77,51.504 22.452,51.679 22.268,51.967 L19.277,56.646 C18.382,56.736 17.701,57.489 17.701,58.388 C17.701,59.354 18.484,60.137 19.451,60.138 C20.417,60.138 21.201,59.354 21.201,58.388 C21.2,58.124 21.14,57.863 21.024,57.626 L23.659,53.506 L34.239,53.518 L36.261,57.49 C36.098,57.761 36.012,58.071 36.011,58.388 C36.011,59.354 36.795,60.138 37.762,60.138 C38.728,60.137 39.511,59.354 39.511,58.388 C39.511,57.547 38.913,56.826 38.087,56.669 L35.743,52.065 C35.573,51.729 35.228,51.518 34.852,51.517 z M12.83,56.638 C11.864,56.638 11.08,57.421 11.08,58.388 C11.082,59.2 11.641,59.905 12.432,60.09 C13.094,61.202 13.918,62.543 16.27,64.661 C16.269,64.673 16.269,64.684 16.268,64.696 C16.268,65.662 17.052,66.446 18.019,66.446 C18.985,66.446 19.768,65.662 19.768,64.696 C19.769,63.729 18.985,62.946 18.019,62.946 C17.827,62.946 17.637,62.978 17.456,63.04 C15.546,61.314 14.889,60.317 14.305,59.331 C14.485,59.049 14.581,58.722 14.581,58.388 C14.581,57.421 13.797,56.637 12.83,56.638 z M26.211,56.638 C25.245,56.637 24.461,57.421 24.461,58.388 C24.461,59.354 25.245,60.138 26.211,60.138 C27.178,60.137 27.961,59.354 27.961,58.388 C27.961,57.421 27.178,56.638 26.211,56.638 z M31.769,56.638 C30.803,56.638 30.019,57.421 30.019,58.388 C30.02,58.959 30.3,59.494 30.769,59.821 L30.718,66.086 C29.2,67.81 27.59,69.32 25.885,70.617 C24.98,69.928 24.111,69.239 23.469,68.477 L23.481,65.74 L24.997,65.723 C25.326,66.176 25.852,66.445 26.412,66.446 C27.378,66.446 28.161,65.662 28.162,64.696 C28.162,63.729 27.378,62.946 26.412,62.946 C25.828,62.946 25.283,63.237 24.959,63.722 L22.473,63.75 C21.927,63.757 21.487,64.2 21.485,64.746 L21.467,68.898 C21.466,69.123 21.541,69.342 21.68,69.519 C22.713,70.84 24.038,71.828 25.308,72.766 C25.655,73.022 26.129,73.026 26.481,72.776 C28.681,71.21 30.639,69.28 32.469,67.172 C32.626,66.992 32.712,66.762 32.714,66.524 L32.769,59.824 C33.239,59.497 33.519,58.96 33.519,58.388 C33.52,57.421 32.736,56.638 31.769,56.638 z" fill="#FFFFFF"/>
    <path d="M99.418,39.171 L85.402,39.171 L85.402,49.671 L101.785,49.671 L101.785,54.405 L79.473,54.405 L79.473,20.28 L101.621,20.28 L101.621,25.061 L85.402,25.061 L85.402,34.483 L99.418,34.483 z M111.348,29.046 L111.512,31.975 Q114.324,28.577 118.895,28.577 Q126.816,28.577 126.957,37.647 L126.957,54.405 L121.262,54.405 L121.262,37.975 Q121.262,35.561 120.219,34.401 Q119.176,33.241 116.809,33.241 Q113.363,33.241 111.676,36.358 L111.676,54.405 L105.981,54.405 L105.981,29.046 z M147.91,54.405 Q147.535,53.678 147.254,52.038 Q144.535,54.874 140.598,54.874 Q136.777,54.874 134.363,52.694 Q131.949,50.514 131.949,47.303 Q131.949,43.249 134.961,41.081 Q137.973,38.913 143.574,38.913 L147.066,38.913 L147.066,37.249 Q147.066,35.28 145.965,34.096 Q144.863,32.913 142.613,32.913 Q140.668,32.913 139.426,33.885 Q138.184,34.858 138.184,36.358 L132.488,36.358 Q132.488,34.272 133.871,32.456 Q135.254,30.639 137.633,29.608 Q140.012,28.577 142.941,28.577 Q147.395,28.577 150.043,30.815 Q152.691,33.053 152.762,37.108 L152.762,48.546 Q152.762,51.967 153.723,54.007 L153.723,54.405 z M141.652,50.303 Q143.34,50.303 144.828,49.483 Q146.316,48.663 147.066,47.28 L147.066,42.499 L143.996,42.499 Q140.832,42.499 139.238,43.6 Q137.645,44.702 137.645,46.717 Q137.645,48.358 138.734,49.331 Q139.824,50.303 141.652,50.303 z M172.004,34.249 Q170.879,34.061 169.684,34.061 Q165.77,34.061 164.41,37.061 L164.41,54.405 L158.715,54.405 L158.715,29.046 L164.152,29.046 L164.293,31.882 Q166.356,28.577 170.012,28.577 Q171.231,28.577 172.027,28.905 z M184.707,37.389 L189.535,29.046 L195.863,29.046 L188.106,41.538 L196.121,54.405 L189.84,54.405 L184.777,45.733 L179.738,54.405 L173.41,54.405 L181.426,41.538 L173.691,29.046 L179.973,29.046 z" fill="#FFFFFF"/>
  </g>
</svg>
