<?xml version="1.0" encoding="UTF-8"?>
<!DOCTYPE svg PUBLIC "-//W3C//DTD SVG 1.1//EN" "http://www.w3.org/Graphics/SVG/1.1/DTD/svg11.dtd">
<svg version="1.1" xmlns="http://www.w3.org/2000/svg" xmlns:xlink="http://www.w3.org/1999/xlink" x="0" y="0" width="101.52" height="143.26" viewBox="0, 0, 50.76, 71.63">
  <g id="Background">
    <rect x="0" y="0" width="50.76" height="71.63" fill="#FFFFFF"/>
  </g>
  <g id="Layer_2">
    <path d="M0.062,-0 L50.822,-0 L50.822,71.63 L0.062,71.63 L0.062,-0 z" fill="#000000"/>
  </g>
  <g id="Layer_1">
    <path d="M1.412,1.39 L1.412,7.692 L1.412,7.692 L1.412,17.113 L37.382,17.113 C35.511,18.554 33.7,20.019 31.954,21.501 L1.412,21.501 L1.412,30.922 L21.881,30.922 C20.462,32.388 19.11,33.853 17.824,35.31 L1.412,35.31 L1.412,38.676 C1.85,40.729 2.421,42.752 3.121,44.731 L10.348,44.731 C9.298,46.225 8.333,47.691 7.456,49.119 L4.927,49.119 C5.299,49.899 5.691,50.668 6.104,51.427 C4.971,53.444 4.023,55.374 3.284,57.183 C3.142,57.515 3.19,57.898 3.41,58.184 C3.63,58.471 3.987,58.617 4.344,58.566 C4.702,58.515 5.004,58.276 5.135,57.939 C10.268,45.38 26.279,25.905 49.001,11.387 C49.382,11.15 49.559,10.688 49.433,10.257 C49.307,9.827 48.91,9.532 48.462,9.537 C48.271,9.539 48.084,9.596 47.924,9.701 C46.509,10.605 45.121,11.527 43.759,12.465 L43.759,10.811 L43.759,10.811 L43.759,1.39 L34.197,1.39 L34.197,7.692 L27.367,7.692 L27.367,1.39 L17.805,1.39 L17.805,7.692 L10.975,7.692 L10.975,1.39 z M43.06,17.715 C42.094,17.716 41.311,18.499 41.311,19.465 C41.311,20.07 41.624,20.632 42.138,20.951 L41.987,30.557 C41.561,30.888 41.312,31.397 41.311,31.936 C41.311,32.902 42.094,33.686 43.06,33.686 C44.027,33.686 44.81,32.902 44.81,31.936 C44.81,31.333 44.5,30.773 43.989,30.454 L44.139,20.84 C44.562,20.509 44.809,20.002 44.81,19.465 C44.81,18.499 44.027,17.716 43.06,17.715 z M38.055,24.856 L34.813,24.922 C34.588,24.927 34.371,25.008 34.198,25.152 C32.518,26.541 30.829,27.957 29.104,30.157 C28.175,30.206 27.447,30.972 27.446,31.903 C27.446,32.869 28.229,33.652 29.196,33.652 C30.162,33.653 30.946,32.869 30.946,31.903 C30.946,31.67 30.9,31.44 30.81,31.226 C32.272,29.395 33.692,28.179 35.219,26.914 L37.075,26.877 L37.075,30.368 C36.514,30.675 36.166,31.263 36.166,31.903 C36.166,32.869 36.949,33.652 37.916,33.652 C38.882,33.652 39.665,32.869 39.665,31.903 C39.664,31.402 39.449,30.926 39.075,30.595 L39.075,25.855 C39.075,25.587 38.967,25.329 38.775,25.141 C38.583,24.953 38.324,24.85 38.055,24.855 z M23.015,36.424 C22.049,36.424 21.266,37.208 21.265,38.174 C21.265,39.141 22.049,39.924 23.015,39.924 C23.59,39.924 24.128,39.641 24.454,39.168 C24.493,39.172 24.532,39.174 24.571,39.174 L40.957,39.174 C41.284,39.644 41.82,39.924 42.392,39.925 C43.359,39.925 44.142,39.141 44.142,38.174 C44.142,37.208 43.359,36.425 42.392,36.425 C41.821,36.426 41.286,36.705 40.959,37.174 L24.571,37.174 C24.532,37.173 24.493,37.175 24.454,37.179 C24.128,36.706 23.59,36.424 23.015,36.424 z M36.071,42.14 C35.484,42.14 34.936,42.435 34.612,42.924 L17.694,42.957 C17.423,42.957 17.163,43.068 16.975,43.264 C15.375,44.928 14.331,46.447 13.316,48.104 C12.601,48.341 12.118,49.01 12.118,49.763 C12.117,50.73 12.901,51.513 13.867,51.513 C14.834,51.513 15.617,50.73 15.617,49.763 C15.616,49.393 15.499,49.033 15.281,48.735 C16.115,47.418 16.972,46.239 18.163,44.957 L34.661,44.924 C34.991,45.373 35.514,45.639 36.071,45.64 C37.037,45.64 37.821,44.856 37.82,43.89 C37.82,42.923 37.037,42.14 36.071,42.14 z M41.64,42.14 C40.674,42.14 39.891,42.923 39.891,43.889 C39.891,44.272 40.017,44.643 40.249,44.947 C39.856,46.008 39.396,47.042 38.876,48.053 C37.958,48.116 37.246,48.877 37.245,49.797 C37.245,50.763 38.028,51.547 38.995,51.547 C39.961,51.547 40.745,50.763 40.745,49.797 C40.744,49.552 40.692,49.31 40.592,49.086 C41.185,47.946 41.707,46.772 42.152,45.563 C42.888,45.338 43.391,44.659 43.391,43.889 C43.391,42.923 42.607,42.14 41.64,42.14 z M20.522,48.914 C20.18,48.914 19.862,49.089 19.678,49.377 L16.687,54.056 C15.792,54.146 15.111,54.899 15.111,55.798 C15.111,56.764 15.894,57.547 16.861,57.548 C17.827,57.548 18.611,56.764 18.611,55.798 C18.61,55.534 18.55,55.273 18.434,55.036 L21.069,50.916 L31.649,50.928 L33.671,54.9 C33.508,55.171 33.422,55.481 33.421,55.798 C33.421,56.764 34.205,57.548 35.172,57.548 C36.138,57.547 36.921,56.764 36.921,55.798 C36.921,54.957 36.323,54.236 35.497,54.079 L33.153,49.475 C32.983,49.139 32.638,48.928 32.262,48.927 z M10.24,54.048 C9.274,54.048 8.49,54.831 8.49,55.798 C8.492,56.61 9.051,57.315 9.842,57.5 C10.504,58.612 11.328,59.953 13.68,62.071 C13.679,62.083 13.679,62.094 13.678,62.106 C13.678,63.072 14.462,63.856 15.429,63.856 C16.395,63.856 17.178,63.072 17.178,62.106 C17.179,61.139 16.395,60.356 15.429,60.356 C15.237,60.356 15.047,60.388 14.866,60.45 C12.956,58.724 12.299,57.727 11.715,56.741 C11.895,56.459 11.991,56.132 11.991,55.798 C11.991,54.831 11.207,54.047 10.24,54.048 z M23.621,54.048 C22.655,54.047 21.871,54.831 21.871,55.798 C21.871,56.764 22.655,57.548 23.621,57.548 C24.588,57.547 25.371,56.764 25.371,55.798 C25.371,54.831 24.588,54.048 23.621,54.048 z M29.179,54.048 C28.213,54.048 27.429,54.831 27.429,55.798 C27.43,56.369 27.71,56.904 28.179,57.231 L28.128,63.496 C26.61,65.22 25,66.73 23.295,68.027 C22.39,67.338 21.521,66.649 20.879,65.887 L20.891,63.15 L22.407,63.133 C22.736,63.586 23.262,63.855 23.822,63.856 C24.788,63.856 25.571,63.072 25.572,62.106 C25.572,61.139 24.788,60.356 23.822,60.356 C23.238,60.356 22.693,60.647 22.369,61.132 L19.883,61.16 C19.337,61.167 18.897,61.61 18.895,62.156 L18.877,66.308 C18.876,66.533 18.951,66.752 19.09,66.929 C20.123,68.25 21.448,69.238 22.718,70.176 C23.065,70.432 23.539,70.436 23.891,70.186 C26.091,68.62 28.049,66.69 29.879,64.582 C30.036,64.402 30.122,64.172 30.124,63.934 L30.179,57.234 C30.649,56.907 30.929,56.37 30.929,55.798 C30.93,54.831 30.146,54.048 29.179,54.048 z" fill="#FFFFFF"/>
  </g>
</svg>
