<?xml version="1.0" encoding="UTF-8"?>
<!DOCTYPE svg PUBLIC "-//W3C//DTD SVG 1.1//EN" "http://www.w3.org/Graphics/SVG/1.1/DTD/svg11.dtd">
<svg version="1.1" xmlns="http://www.w3.org/2000/svg" xmlns:xlink="http://www.w3.org/1999/xlink" x="0" y="0" width="519.48" height="119.48" viewBox="0, 0, 519.48, 119.48">
  <g id="Background">
    <rect x="0" y="0" width="519.48" height="119.48" fill="#FFFFFF"/>
  </g>
  <g id="Layer_1">
    <path d="M0,-0 L519.48,-0 L519.48,119.48 L0,119.48 z" fill="#FFFFFF"/>
    <path d="M174.402,75.066 C172.366,76.207 170.26,77.013 168.074,77.487 C165.889,77.96 163.669,78.197 161.402,78.197 C158.745,78.197 156.307,77.745 154.092,76.851 C151.874,75.953 149.979,74.701 148.404,73.081 C146.829,71.469 145.596,69.541 144.711,67.307 C143.825,65.073 143.381,62.635 143.381,59.99 C143.381,57.344 143.825,54.916 144.711,52.697 C145.596,50.478 146.829,48.562 148.404,46.947 C149.979,45.333 151.874,44.068 154.092,43.156 C156.307,42.243 158.745,41.785 161.402,41.785 C166.591,41.785 170.776,43.382 173.958,46.58 L171.594,49.028 C171.071,48.407 170.421,47.828 169.649,47.288 C168.878,46.753 168.042,46.297 167.139,45.919 C166.236,45.545 165.294,45.249 164.307,45.039 C163.324,44.827 162.354,44.719 161.402,44.719 C159.137,44.719 157.093,45.111 155.273,45.895 C153.45,46.679 151.899,47.754 150.619,49.127 C149.339,50.495 148.355,52.112 147.663,53.971 C146.973,55.833 146.631,57.835 146.631,59.99 C146.631,62.144 146.973,64.154 147.663,66.008 C148.355,67.869 149.339,69.486 150.619,70.855 C151.899,72.225 153.45,73.3 155.273,74.087 C157.093,74.871 159.137,75.26 161.402,75.26 C163.275,75.26 165.028,75.115 166.67,74.819 C168.312,74.528 169.806,73.986 171.15,73.207 L171.15,61.555 L162.781,61.555 L162.781,58.621 L174.402,58.621 L174.402,75.066 z M197.052,57.935 L203.945,57.935 C205.652,57.935 207.038,57.726 208.107,57.299 C209.171,56.875 210,56.352 210.59,55.731 C211.183,55.11 211.585,54.442 211.798,53.724 C212.012,53.007 212.118,52.356 212.118,51.769 C212.118,51.18 212.012,50.526 211.798,49.812 C211.585,49.094 211.183,48.423 210.59,47.802 C210,47.186 209.171,46.663 208.107,46.237 C207.038,45.815 205.652,45.601 203.945,45.601 L197.052,45.601 L197.052,57.935 z M193.802,42.664 L202.96,42.664 C203.419,42.664 204.044,42.682 204.831,42.714 C205.619,42.748 206.473,42.844 207.393,43.007 C208.311,43.17 209.246,43.433 210.198,43.791 C211.151,44.151 212.004,44.674 212.761,45.356 C213.512,46.042 214.137,46.907 214.631,47.95 C215.122,48.993 215.368,50.268 215.368,51.769 C215.368,53.431 215.082,54.804 214.507,55.881 C213.931,56.956 213.212,57.829 212.341,58.497 C211.468,59.165 210.511,59.663 209.459,59.989 C208.407,60.317 207.408,60.543 206.458,60.674 L216.6,77.316 L212.907,77.316 L203.109,60.869 L197.052,60.869 L197.052,77.316 L193.802,77.316 L193.802,42.664 z M249.001,46.19 L240.878,65.181 L256.879,65.181 L249.001,46.19 z M247.473,42.664 L250.822,42.664 L265.496,77.316 L261.853,77.316 L258.06,68.117 L239.595,68.117 L235.656,77.316 L232.258,77.316 L247.473,42.664 z M286.57,57.935 L293.955,57.935 C294.875,57.935 295.778,57.829 296.663,57.617 C297.549,57.405 298.34,57.062 299.027,56.589 C299.717,56.116 300.275,55.489 300.702,54.705 C301.128,53.921 301.342,52.96 301.342,51.818 C301.342,50.709 301.121,49.762 300.677,48.978 C300.235,48.197 299.66,47.553 298.955,47.045 C298.248,46.54 297.435,46.173 296.515,45.943 C295.597,45.714 294.677,45.601 293.759,45.601 L286.57,45.601 L286.57,57.935 z M283.319,42.664 L293.364,42.664 C294.58,42.664 295.85,42.805 297.182,43.083 C298.511,43.357 299.724,43.84 300.826,44.526 C301.922,45.209 302.827,46.15 303.532,47.341 C304.239,48.532 304.593,50.026 304.593,51.818 C304.593,53.381 304.303,54.737 303.73,55.881 C303.157,57.023 302.383,57.96 301.416,58.692 C300.446,59.429 299.332,59.974 298.067,60.334 C296.802,60.691 295.483,60.869 294.104,60.869 L286.57,60.869 L286.57,77.316 L283.319,77.316 L283.319,42.664 z M320.447,42.665 L323.696,42.665 L323.696,57.936 L343.195,57.936 L343.195,42.665 L346.444,42.665 L346.444,77.316 L343.195,77.316 L343.195,60.869 L323.696,60.869 L323.696,77.316 L320.447,77.316 z M366.829,42.665 L388.154,42.665 L388.154,45.599 L370.079,45.599 L370.079,57.936 L387.015,57.936 L387.015,60.869 L370.079,60.869 L370.079,74.38 L388.94,74.38 L388.94,77.316 L366.829,77.316 z M407.844,42.665 L412.029,42.665 L433.254,73.012 L433.351,73.012 L433.351,42.665 L436.6,42.665 L436.6,77.316 L432.416,77.316 L411.195,46.972 L411.094,46.972 L411.094,77.316 L407.844,77.316 z M456.989,42.665 L478.311,42.665 L478.311,45.599 L460.238,45.599 L460.238,57.936 L477.177,57.936 L477.177,60.869 L460.238,60.869 L460.238,74.38 L479.097,74.38 L479.097,77.316 L456.989,77.316 z" fill="#000000"/>
    <path d="M103.669,90.656 C103.282,91.011 103.039,91.517 103.039,92.081 C103.039,92.646 103.282,93.151 103.669,93.506 L102.466,95.577 C102.284,95.523 102.091,95.491 101.89,95.491 C100.962,95.491 100.186,96.137 99.99,97.002 L97.579,97.002 C97.413,96.1 96.619,95.414 95.662,95.414 C95.463,95.414 95.272,95.444 95.091,95.501 L93.915,93.477 C94.285,93.124 94.516,92.628 94.516,92.081 L94.516,92.042 L94.516,92.005 C94.516,91.457 94.287,90.962 93.918,90.609 L95.039,88.681 C95.235,88.748 95.446,88.785 95.662,88.785 C96.592,88.785 97.366,88.139 97.564,87.276 L99.99,87.276 C100.186,88.139 100.962,88.785 101.89,88.785 C102.111,88.785 102.324,88.748 102.523,88.681 L103.669,90.656 z M44.162,79.791 L45.368,77.715 C45.546,77.769 45.737,77.801 45.936,77.801 C46.863,77.801 47.64,77.156 47.836,76.29 L50.262,76.29 C50.458,77.156 51.234,77.801 52.162,77.801 C52.363,77.801 52.556,77.769 52.737,77.715 L53.94,79.786 C53.675,80.028 53.479,80.343 53.382,80.698 C53.323,80.883 53.29,81.08 53.29,81.285 C53.29,81.842 53.528,82.343 53.905,82.695 L52.737,84.707 C52.556,84.653 52.363,84.621 52.162,84.621 C51.266,84.621 50.51,85.227 50.284,86.048 C50.274,86.075 50.269,86.103 50.262,86.132 L47.836,86.132 C47.64,85.267 46.863,84.621 45.936,84.621 C45.737,84.621 45.546,84.65 45.368,84.705 L44.162,82.634 C44.547,82.279 44.79,81.773 44.79,81.211 C44.79,80.649 44.547,80.144 44.162,79.791 z M45.936,95.34 C45.737,95.34 45.546,95.373 45.368,95.427 L44.162,93.353 C44.547,92.998 44.79,92.493 44.79,91.931 C44.79,91.369 44.547,90.863 44.162,90.511 L45.368,88.437 C45.546,88.492 45.737,88.521 45.936,88.521 C46.863,88.521 47.64,87.875 47.836,87.01 L50.229,87.01 C50.406,87.9 51.197,88.573 52.144,88.573 C52.358,88.573 52.566,88.536 52.759,88.472 L53.94,90.506 C53.675,90.75 53.479,91.063 53.382,91.418 C53.323,91.603 53.29,91.8 53.29,92.005 C53.29,92.562 53.528,93.062 53.905,93.417 L52.737,95.429 C52.556,95.373 52.363,95.34 52.162,95.34 C51.264,95.34 50.51,95.947 50.284,96.768 C50.274,96.795 50.269,96.822 50.262,96.852 L47.836,96.852 C47.64,95.989 46.863,95.34 45.936,95.34 z M55.24,100.764 C55.042,100.764 54.851,100.794 54.672,100.848 L53.466,98.775 C53.729,98.533 53.925,98.22 54.022,97.865 C54.082,97.683 54.114,97.485 54.114,97.281 C54.114,96.726 53.878,96.226 53.501,95.873 L54.672,93.859 C54.851,93.913 55.042,93.943 55.24,93.943 C56.138,93.943 56.894,93.339 57.12,92.518 C57.128,92.49 57.135,92.461 57.142,92.434 L59.566,92.434 C59.764,93.297 60.538,93.943 61.468,93.943 C61.667,93.943 61.86,93.913 62.044,93.856 L63.247,95.927 C62.857,96.282 62.614,96.79 62.614,97.352 C62.614,97.917 62.857,98.425 63.247,98.777 L62.046,100.846 C61.868,100.794 61.682,100.764 61.488,100.764 L61.468,100.764 C60.538,100.764 59.762,101.41 59.566,102.273 L57.142,102.273 C56.944,101.41 56.17,100.764 55.24,100.764 z M70.812,106.114 C69.882,106.114 69.108,106.76 68.91,107.623 L66.486,107.623 C66.29,106.76 65.514,106.114 64.584,106.114 C64.388,106.114 64.194,106.144 64.016,106.198 L62.81,104.122 C63.197,103.77 63.438,103.264 63.438,102.702 C63.438,102.14 63.197,101.637 62.81,101.282 L64.013,99.211 C64.187,99.263 64.373,99.293 64.564,99.293 C64.569,99.293 64.571,99.29 64.574,99.29 C64.579,99.29 64.581,99.293 64.584,99.293 C65.514,99.293 66.29,98.647 66.486,97.784 L68.91,97.784 C69.108,98.647 69.882,99.293 70.812,99.293 C71.011,99.293 71.207,99.263 71.388,99.206 L72.591,101.277 C72.204,101.632 71.958,102.138 71.958,102.702 C71.958,103.267 72.204,103.775 72.591,104.127 L71.388,106.201 C71.207,106.144 71.011,106.114 70.812,106.114 z M83.242,106.114 C82.312,106.114 81.538,106.76 81.342,107.623 L78.916,107.623 C78.718,106.76 77.941,106.114 77.013,106.114 C76.815,106.114 76.624,106.144 76.445,106.198 L75.24,104.122 C75.624,103.77 75.868,103.264 75.868,102.702 C75.868,102.14 75.624,101.637 75.24,101.282 L76.445,99.209 C76.624,99.263 76.815,99.293 77.013,99.293 C77.941,99.293 78.718,98.647 78.916,97.784 L81.342,97.784 C81.538,98.647 82.312,99.293 83.242,99.293 C83.44,99.293 83.634,99.263 83.817,99.206 L85.018,101.277 C84.633,101.632 84.388,102.138 84.388,102.702 C84.388,103.267 84.633,103.775 85.018,104.127 L83.817,106.201 C83.634,106.144 83.44,106.114 83.242,106.114 z M92.566,100.764 C91.636,100.764 90.862,101.41 90.663,102.273 L88.24,102.273 C88.044,101.41 87.268,100.764 86.338,100.764 C86.142,100.764 85.948,100.794 85.77,100.848 L84.564,98.775 C84.951,98.42 85.192,97.914 85.192,97.352 C85.192,96.79 84.948,96.287 84.564,95.932 L85.77,93.859 C85.948,93.913 86.142,93.943 86.338,93.943 C87.268,93.943 88.044,93.297 88.24,92.434 L90.649,92.434 C90.815,93.336 91.611,94.019 92.566,94.019 C92.767,94.019 92.96,93.989 93.144,93.933 L94.317,95.952 C93.945,96.307 93.712,96.802 93.712,97.352 C93.712,97.367 93.714,97.379 93.714,97.392 C93.714,97.404 93.712,97.416 93.712,97.431 C93.712,97.981 93.945,98.476 94.315,98.829 L93.141,100.851 C92.96,100.794 92.764,100.764 92.566,100.764 z M101.89,31.387 C100.962,31.387 100.186,32.033 99.99,32.896 L97.564,32.896 C97.368,32.033 96.592,31.387 95.662,31.387 C95.466,31.387 95.275,31.417 95.094,31.471 L93.891,29.398 C94.273,29.043 94.516,28.54 94.516,27.978 C94.516,27.416 94.273,26.91 93.891,26.555 L95.094,24.482 C95.275,24.536 95.466,24.566 95.662,24.566 C96.592,24.566 97.368,23.92 97.564,23.057 L99.99,23.057 C100.186,23.92 100.962,24.566 101.89,24.566 C102.091,24.566 102.284,24.536 102.466,24.479 L103.669,26.553 C103.282,26.905 103.039,27.413 103.039,27.978 C103.039,28.54 103.282,29.048 103.669,29.4 L102.466,31.474 C102.284,31.417 102.091,31.387 101.89,31.387 z M92.561,58.135 C91.633,58.135 90.857,58.778 90.661,59.644 L88.235,59.644 C88.039,58.778 87.263,58.135 86.335,58.135 L86.333,58.135 C86.134,58.135 85.946,58.162 85.765,58.216 L84.562,56.143 C84.946,55.79 85.189,55.285 85.189,54.723 C85.189,54.161 84.946,53.655 84.562,53.303 L85.767,51.227 C85.946,51.283 86.137,51.31 86.335,51.31 C87.263,51.31 88.039,50.667 88.235,49.802 L90.661,49.802 C90.857,50.667 91.633,51.31 92.561,51.31 L92.566,51.31 C92.764,51.31 92.958,51.281 93.137,51.227 L94.34,53.298 C93.953,53.653 93.71,54.158 93.71,54.723 C93.71,55.287 93.953,55.793 94.34,56.148 L93.137,58.219 C92.955,58.164 92.762,58.135 92.561,58.135 z M92.566,19.216 C92.764,19.216 92.96,19.186 93.141,19.129 L94.344,21.203 C93.958,21.555 93.712,22.063 93.712,22.628 C93.712,23.192 93.955,23.698 94.344,24.053 L93.141,26.124 C92.96,26.067 92.764,26.037 92.566,26.037 C91.636,26.037 90.862,26.683 90.663,27.546 L88.24,27.546 C88.044,26.683 87.268,26.037 86.338,26.037 C86.142,26.037 85.948,26.067 85.77,26.121 L84.564,24.048 C84.951,23.693 85.192,23.19 85.192,22.628 C85.192,22.066 84.948,21.56 84.564,21.208 L85.77,19.132 C85.948,19.186 86.139,19.216 86.335,19.216 L86.338,19.216 C87.268,19.216 88.044,18.57 88.24,17.707 L90.663,17.707 C90.862,18.57 91.636,19.216 92.566,19.216 z M94.347,34.753 L93.144,36.824 C92.96,36.767 92.767,36.735 92.566,36.735 C91.489,36.735 90.616,37.603 90.616,38.675 C90.616,39.745 91.489,40.613 92.566,40.613 C92.767,40.613 92.96,40.583 93.144,40.527 L94.347,42.598 C93.958,42.95 93.712,43.458 93.712,44.023 C93.712,44.59 93.958,45.095 94.347,45.453 L93.144,47.521 C92.96,47.464 92.767,47.435 92.566,47.435 L92.561,47.435 C91.633,47.435 90.857,48.081 90.661,48.946 L88.235,48.946 C88.039,48.081 87.263,47.435 86.335,47.435 C85.259,47.435 84.385,48.303 84.385,49.373 C84.385,49.94 84.629,50.445 85.018,50.8 L83.815,52.871 C83.631,52.814 83.438,52.785 83.237,52.785 L83.234,52.785 C82.307,52.785 81.53,53.431 81.334,54.294 L78.909,54.294 C78.71,53.431 77.936,52.785 77.006,52.785 C75.93,52.785 75.056,53.653 75.056,54.723 C75.056,55.287 75.302,55.795 75.691,56.15 L74.488,58.219 C74.307,58.164 74.114,58.135 73.915,58.135 L73.91,58.135 C73.712,58.135 73.523,58.162 73.342,58.216 L72.142,56.145 C72.526,55.79 72.769,55.285 72.769,54.723 C72.769,53.653 71.896,52.785 70.817,52.785 C69.89,52.785 69.113,53.431 68.917,54.294 L66.491,54.294 C66.295,53.431 65.521,52.785 64.591,52.785 L64.589,52.785 C64.39,52.785 64.197,52.814 64.018,52.869 L62.813,50.798 C63.2,50.443 63.44,49.937 63.44,49.373 C63.44,48.303 62.567,47.435 61.491,47.435 C60.563,47.435 59.787,48.081 59.591,48.946 L57.165,48.946 C56.969,48.081 56.192,47.435 55.262,47.435 L55.257,47.435 C55.056,47.435 54.865,47.464 54.684,47.519 L53.481,45.448 C53.866,45.093 54.111,44.587 54.111,44.023 C54.111,43.461 53.866,42.955 53.481,42.603 L54.684,40.529 C54.865,40.583 55.056,40.613 55.257,40.613 C56.334,40.613 57.207,39.745 57.207,38.675 C57.207,37.603 56.334,36.735 55.257,36.735 C55.056,36.735 54.865,36.767 54.684,36.821 L53.481,34.748 C53.866,34.395 54.111,33.89 54.111,33.325 C54.111,32.763 53.866,32.258 53.481,31.903 L54.684,29.829 C54.865,29.886 55.056,29.916 55.257,29.916 L55.262,29.916 C56.192,29.916 56.969,29.27 57.165,28.404 L59.591,28.404 C59.787,29.27 60.563,29.916 61.491,29.916 C62.567,29.916 63.44,29.048 63.44,27.978 C63.44,27.413 63.2,26.908 62.813,26.553 L64.016,24.482 C64.197,24.536 64.388,24.566 64.584,24.566 L64.589,24.566 C65.517,24.566 66.293,23.92 66.489,23.057 L68.91,23.057 C69.108,23.92 69.882,24.566 70.812,24.566 C71.889,24.566 72.762,23.698 72.762,22.628 C72.762,22.063 72.519,21.558 72.134,21.205 L73.337,19.132 C73.519,19.186 73.71,19.216 73.908,19.216 L73.913,19.216 C74.114,19.216 74.307,19.186 74.491,19.129 L75.694,21.2 C75.304,21.555 75.059,22.061 75.059,22.628 C75.059,23.698 75.932,24.566 77.011,24.566 C77.939,24.566 78.715,23.92 78.911,23.057 L81.337,23.057 C81.533,23.92 82.309,24.566 83.237,24.566 L83.242,24.566 C83.443,24.566 83.636,24.536 83.82,24.479 L85.02,26.55 C84.633,26.905 84.388,27.411 84.388,27.978 C84.388,29.048 85.261,29.916 86.338,29.916 C87.268,29.916 88.044,29.27 88.24,28.404 L90.663,28.404 C90.862,29.27 91.636,29.916 92.566,29.916 C92.767,29.916 92.96,29.886 93.144,29.829 L94.347,31.898 C93.958,32.253 93.712,32.761 93.712,33.325 C93.712,33.892 93.958,34.398 94.347,34.753 z M70.817,63.482 C69.89,63.482 69.113,64.128 68.917,64.991 L66.491,64.991 C66.295,64.128 65.521,63.482 64.591,63.482 C64.393,63.482 64.202,63.512 64.023,63.566 L62.818,61.493 C63.202,61.138 63.445,60.635 63.445,60.073 C63.445,59.51 63.202,59.005 62.818,58.653 L64.023,56.577 C64.202,56.631 64.393,56.66 64.589,56.66 L64.591,56.66 C65.521,56.66 66.295,56.017 66.491,55.152 L68.917,55.152 C69.113,56.017 69.89,56.66 70.817,56.66 C71.018,56.66 71.212,56.631 71.393,56.577 L72.596,58.643 C72.204,58.998 71.958,59.506 71.958,60.073 C71.958,60.64 72.204,61.145 72.596,61.5 L71.393,63.569 C71.212,63.512 71.018,63.482 70.817,63.482 z M77.006,63.482 C76.81,63.482 76.619,63.512 76.438,63.566 L75.235,61.495 C75.622,61.143 75.868,60.637 75.868,60.073 C75.868,59.508 75.622,59.003 75.235,58.648 L76.438,56.577 C76.619,56.631 76.81,56.66 77.006,56.66 C77.936,56.66 78.71,56.017 78.909,55.152 L81.334,55.152 C81.53,56.017 82.307,56.66 83.234,56.66 L83.237,56.66 C83.438,56.66 83.629,56.631 83.81,56.577 L85.013,58.648 C84.626,59.003 84.383,59.508 84.383,60.073 C84.383,60.637 84.626,61.143 85.013,61.498 L83.81,63.569 C83.629,63.512 83.438,63.482 83.237,63.482 L83.234,63.482 C82.307,63.482 81.53,64.128 81.334,64.991 L78.909,64.991 C78.71,64.128 77.936,63.482 77.006,63.482 z M95.662,13.868 C96.592,13.868 97.368,13.222 97.564,12.357 L99.99,12.357 C100.186,13.222 100.962,13.868 101.89,13.868 C102.091,13.868 102.284,13.836 102.466,13.782 L103.669,15.853 C103.282,16.208 103.039,16.713 103.039,17.278 C103.039,17.842 103.282,18.348 103.669,18.703 L102.466,20.774 C102.284,20.72 102.091,20.69 101.89,20.69 C100.962,20.69 100.186,21.333 99.99,22.199 L97.564,22.199 C97.366,21.333 96.592,20.69 95.662,20.69 C95.466,20.69 95.275,20.717 95.094,20.774 L93.891,18.698 C94.273,18.345 94.516,17.84 94.516,17.278 C94.516,16.716 94.273,16.21 93.891,15.858 L95.094,13.782 C95.275,13.836 95.466,13.868 95.662,13.868 z M77.011,13.868 C77.939,13.868 78.715,13.222 78.911,12.357 L81.337,12.357 C81.533,13.222 82.309,13.868 83.237,13.868 C83.438,13.868 83.631,13.836 83.812,13.782 L85.015,15.853 C84.629,16.208 84.385,16.713 84.385,17.278 C84.385,17.842 84.629,18.348 85.015,18.703 L83.812,20.774 C83.631,20.717 83.44,20.69 83.242,20.69 L83.237,20.69 C82.309,20.69 81.533,21.333 81.337,22.199 L78.911,22.199 C78.715,21.333 77.939,20.69 77.011,20.69 C76.813,20.69 76.622,20.717 76.441,20.774 L75.237,18.698 C75.622,18.345 75.865,17.84 75.865,17.278 C75.865,16.716 75.622,16.21 75.237,15.858 L76.441,13.782 C76.622,13.836 76.813,13.868 77.011,13.868 z M64.584,13.868 C65.514,13.868 66.29,13.222 66.486,12.357 L68.912,12.357 C69.108,13.222 69.882,13.868 70.812,13.868 C71.011,13.868 71.207,13.836 71.388,13.782 L72.591,15.853 C72.204,16.208 71.958,16.713 71.958,17.278 C71.958,17.842 72.204,18.348 72.591,18.703 L71.388,20.774 C71.207,20.72 71.011,20.69 70.812,20.69 C69.882,20.69 69.108,21.333 68.912,22.199 L66.489,22.199 C66.293,21.333 65.517,20.69 64.589,20.69 L64.584,20.69 C64.388,20.69 64.197,20.717 64.016,20.771 L62.813,18.7 C63.2,18.345 63.44,17.84 63.44,17.278 C63.44,16.713 63.2,16.208 62.813,15.855 L64.016,13.782 C64.194,13.836 64.388,13.868 64.584,13.868 z M55.262,19.216 C56.192,19.216 56.969,18.57 57.165,17.707 L59.588,17.707 C59.784,18.57 60.558,19.216 61.488,19.216 L61.491,19.216 C61.692,19.216 61.883,19.186 62.066,19.132 L63.267,21.2 C62.88,21.555 62.634,22.061 62.634,22.628 C62.634,23.192 62.88,23.7 63.267,24.055 L62.066,26.124 C61.885,26.067 61.692,26.037 61.491,26.037 C60.563,26.037 59.787,26.683 59.588,27.546 L57.165,27.546 C56.969,26.683 56.192,26.037 55.262,26.037 L55.257,26.037 C55.061,26.037 54.873,26.067 54.694,26.121 L53.491,24.048 C53.876,23.693 54.116,23.19 54.116,22.628 C54.116,22.066 53.876,21.56 53.491,21.208 L54.694,19.132 C54.875,19.186 55.066,19.216 55.262,19.216 z M44.157,26.555 L45.363,24.482 C45.544,24.536 45.735,24.566 45.933,24.566 C46.861,24.566 47.637,23.92 47.833,23.057 L50.259,23.057 C50.455,23.92 51.229,24.566 52.159,24.566 L52.167,24.566 C52.365,24.566 52.556,24.536 52.735,24.482 L53.938,26.553 C53.551,26.905 53.305,27.413 53.305,27.978 C53.305,28.54 53.551,29.048 53.938,29.4 L52.735,31.474 C52.554,31.417 52.36,31.387 52.159,31.387 C51.229,31.387 50.455,32.033 50.259,32.896 L47.833,32.896 C47.637,32.033 46.861,31.387 45.933,31.387 C45.735,31.387 45.544,31.417 45.363,31.471 L44.157,29.398 C44.544,29.043 44.785,28.54 44.785,27.978 C44.785,27.416 44.544,26.91 44.157,26.555 z M44.157,37.253 L45.363,35.182 C45.544,35.233 45.735,35.266 45.933,35.266 C46.861,35.266 47.637,34.617 47.833,33.754 L50.259,33.754 C50.455,34.617 51.229,35.266 52.159,35.266 C52.36,35.266 52.554,35.233 52.735,35.179 L53.938,37.25 C53.551,37.603 53.305,38.111 53.305,38.675 C53.305,39.24 53.551,39.745 53.938,40.1 L52.735,42.171 C52.554,42.117 52.36,42.085 52.159,42.085 C51.229,42.085 50.455,42.731 50.259,43.596 L47.833,43.596 C47.637,42.731 46.861,42.085 45.933,42.085 C45.735,42.085 45.544,42.117 45.363,42.169 L44.157,40.095 C44.544,39.743 44.785,39.237 44.785,38.675 C44.785,38.113 44.544,37.608 44.157,37.253 z M45.933,52.785 C45.735,52.785 45.544,52.814 45.363,52.869 L44.157,50.795 C44.544,50.44 44.785,49.935 44.785,49.373 C44.785,48.811 44.544,48.308 44.157,47.953 L45.363,45.879 C45.544,45.933 45.735,45.963 45.933,45.963 C46.861,45.963 47.637,45.317 47.833,44.454 L50.259,44.454 C50.455,45.317 51.229,45.963 52.159,45.963 C52.36,45.963 52.554,45.933 52.735,45.877 L53.938,47.948 C53.551,48.303 53.305,48.808 53.305,49.373 C53.305,49.937 53.551,50.445 53.938,50.798 L52.735,52.869 C52.556,52.814 52.365,52.785 52.167,52.785 L52.159,52.785 C51.229,52.785 50.455,53.431 50.259,54.294 L47.833,54.294 C47.637,53.431 46.861,52.785 45.933,52.785 z M55.262,58.135 C55.066,58.135 54.875,58.164 54.694,58.219 L53.491,56.143 C53.876,55.79 54.116,55.285 54.116,54.723 C54.116,54.161 53.876,53.655 53.491,53.303 L54.694,51.229 C54.873,51.283 55.061,51.31 55.257,51.31 L55.262,51.31 C56.192,51.31 56.969,50.667 57.165,49.802 L59.588,49.802 C59.787,50.667 60.563,51.31 61.491,51.31 C61.692,51.31 61.885,51.281 62.066,51.227 L63.269,53.298 C62.882,53.653 62.637,54.158 62.637,54.723 C62.637,55.287 62.882,55.793 63.269,56.148 L62.066,58.219 C61.885,58.164 61.694,58.135 61.493,58.135 L61.491,58.135 C60.563,58.135 59.787,58.778 59.588,59.644 L57.165,59.644 C56.969,58.778 56.192,58.135 55.262,58.135 z M93.71,65.423 C93.71,65.452 93.712,65.484 93.714,65.514 C93.714,65.521 93.712,65.529 93.712,65.538 C93.712,66.078 93.938,66.569 94.297,66.922 L93.137,68.919 C92.955,68.862 92.762,68.832 92.561,68.832 C91.633,68.832 90.857,69.478 90.661,70.341 L88.235,70.341 C88.039,69.478 87.263,68.832 86.335,68.832 C86.137,68.832 85.946,68.862 85.767,68.916 L84.562,66.843 C84.946,66.488 85.189,65.985 85.189,65.423 C85.189,64.86 84.946,64.355 84.562,64 L85.765,61.927 C85.946,61.981 86.134,62.01 86.333,62.01 L86.335,62.01 C87.263,62.01 88.039,61.364 88.235,60.502 L90.661,60.502 C90.857,61.364 91.633,62.01 92.561,62.01 C92.762,62.01 92.955,61.981 93.137,61.924 L94.34,63.998 C93.953,64.35 93.71,64.858 93.71,65.423 z M103.669,82.922 L102.523,84.899 C102.324,84.83 102.111,84.793 101.89,84.793 C100.962,84.793 100.186,85.439 99.99,86.302 L97.564,86.302 C97.368,85.439 96.592,84.793 95.662,84.793 C95.446,84.793 95.235,84.83 95.039,84.897 L93.891,82.92 C94.273,82.565 94.516,82.059 94.516,81.497 C94.516,80.935 94.273,80.432 93.891,80.077 L95.051,78.075 C95.245,78.139 95.451,78.174 95.662,78.174 C96.592,78.174 97.366,77.528 97.564,76.665 L99.99,76.665 C100.186,77.528 100.962,78.174 101.89,78.174 C102.106,78.174 102.314,78.137 102.508,78.073 L103.669,80.072 C103.282,80.427 103.039,80.933 103.039,81.497 C103.039,82.062 103.282,82.57 103.669,82.922 z M101.89,67.476 C102.091,67.476 102.284,67.444 102.466,67.39 L103.636,69.404 C103.267,69.757 103.039,70.252 103.039,70.8 C103.039,70.814 103.039,70.829 103.041,70.842 C103.039,70.856 103.039,70.871 103.039,70.886 C103.039,71.436 103.267,71.929 103.636,72.281 L102.466,74.296 C102.284,74.239 102.091,74.209 101.89,74.209 C100.962,74.209 100.186,74.855 99.99,75.718 L97.564,75.718 C97.368,74.855 96.592,74.209 95.662,74.209 C95.466,74.209 95.275,74.239 95.094,74.293 L93.923,72.276 C94.287,71.924 94.516,71.433 94.516,70.886 L94.516,70.842 L94.516,70.8 C94.516,70.726 94.511,70.652 94.503,70.58 C94.459,70.117 94.248,69.7 93.933,69.392 L95.094,67.39 C95.275,67.444 95.466,67.476 95.662,67.476 C96.592,67.476 97.368,66.83 97.564,65.965 L99.99,65.965 C100.186,66.83 100.962,67.476 101.89,67.476 z M103.669,50.798 L102.466,52.871 C102.284,52.814 102.091,52.785 101.89,52.785 C100.962,52.785 100.186,53.431 99.99,54.294 L97.564,54.294 C97.368,53.431 96.592,52.785 95.662,52.785 L95.659,52.785 C95.463,52.785 95.272,52.814 95.094,52.869 L93.891,50.795 C94.273,50.44 94.516,49.935 94.516,49.373 C94.516,48.811 94.273,48.308 93.891,47.953 L95.094,45.879 C95.275,45.933 95.466,45.963 95.662,45.963 C96.592,45.963 97.368,45.317 97.564,44.454 L99.99,44.454 C100.186,45.317 100.962,45.963 101.89,45.963 C102.091,45.963 102.284,45.933 102.466,45.877 L103.669,47.948 C103.282,48.303 103.039,48.808 103.039,49.373 C103.039,49.937 103.282,50.445 103.669,50.798 z M103.669,40.1 L102.466,42.171 C102.284,42.117 102.091,42.085 101.89,42.085 C100.962,42.085 100.186,42.731 99.99,43.596 L97.564,43.596 C97.368,42.731 96.592,42.085 95.662,42.085 C95.466,42.085 95.275,42.117 95.094,42.169 L93.891,40.095 C94.273,39.743 94.516,39.237 94.516,38.675 C94.516,38.113 94.273,37.608 93.891,37.253 L95.094,35.182 C95.275,35.233 95.466,35.266 95.662,35.266 C96.592,35.266 97.368,34.617 97.564,33.754 L99.99,33.754 C100.186,34.617 100.962,35.266 101.89,35.266 C102.091,35.266 102.284,35.233 102.466,35.179 L103.669,37.25 C103.282,37.603 103.039,38.111 103.039,38.675 C103.039,39.24 103.282,39.745 103.669,40.1 z M104.988,29.916 C106.065,29.916 106.938,29.048 106.938,27.978 C106.938,26.905 106.065,26.037 104.988,26.037 C104.79,26.037 104.599,26.067 104.415,26.124 L103.212,24.05 C103.599,23.695 103.84,23.19 103.84,22.628 C103.84,22.063 103.599,21.558 103.212,21.205 L104.415,19.132 C104.599,19.186 104.79,19.216 104.988,19.216 C106.065,19.216 106.938,18.348 106.938,17.278 C106.938,16.208 106.065,15.34 104.988,15.34 C104.79,15.34 104.599,15.37 104.415,15.424 L103.212,13.353 C103.599,12.995 103.84,12.49 103.84,11.928 C103.84,10.858 102.967,9.99 101.89,9.99 C100.962,9.99 100.186,10.636 99.99,11.501 L97.564,11.501 C97.368,10.636 96.592,9.99 95.662,9.99 C94.585,9.99 93.712,10.858 93.712,11.928 C93.712,12.492 93.958,13 94.347,13.355 L93.144,15.426 C92.957,15.369 92.762,15.34 92.566,15.34 C91.636,15.34 90.862,15.983 90.663,16.849 L88.24,16.849 C88.044,15.983 87.268,15.34 86.338,15.34 L86.335,15.34 C86.137,15.34 85.943,15.37 85.765,15.424 L84.559,13.353 C84.946,12.995 85.189,12.492 85.189,11.928 C85.189,10.858 84.316,9.99 83.237,9.99 C82.309,9.99 81.533,10.636 81.337,11.501 L78.911,11.501 C78.715,10.636 77.939,9.99 77.011,9.99 C75.932,9.99 75.059,10.858 75.059,11.928 C75.059,12.492 75.304,13 75.694,13.355 L74.491,15.426 C74.304,15.369 74.109,15.34 73.913,15.34 L73.908,15.34 C73.71,15.34 73.519,15.37 73.337,15.424 L72.134,13.353 C72.519,12.995 72.762,12.492 72.762,11.928 C72.762,10.858 71.889,9.99 70.812,9.99 C69.882,9.99 69.108,10.636 68.91,11.501 L66.486,11.501 C66.29,10.636 65.514,9.99 64.584,9.99 C63.507,9.99 62.634,10.858 62.634,11.928 C62.634,12.492 62.88,13 63.267,13.355 L62.066,15.424 C61.883,15.37 61.692,15.34 61.491,15.34 L61.488,15.34 C60.558,15.34 59.784,15.983 59.588,16.849 L57.165,16.849 C56.969,15.983 56.192,15.34 55.262,15.34 C54.186,15.34 53.313,16.208 53.313,17.278 C53.313,17.842 53.558,18.35 53.948,18.705 L52.745,20.774 C52.561,20.72 52.368,20.69 52.167,20.69 L52.159,20.69 C51.229,20.69 50.455,21.333 50.259,22.199 L47.833,22.199 C47.637,21.333 46.861,20.69 45.933,20.69 C44.854,20.69 43.981,21.558 43.981,22.628 C43.981,23.192 44.227,23.7 44.614,24.053 L43.413,26.124 C43.23,26.067 43.036,26.037 42.835,26.037 C41.759,26.037 40.883,26.905 40.883,27.978 C40.883,29.048 41.759,29.916 42.835,29.916 C43.036,29.916 43.23,29.886 43.413,29.829 L44.614,31.898 C44.227,32.253 43.981,32.761 43.981,33.325 C43.981,33.892 44.227,34.398 44.614,34.753 L43.413,36.824 C43.23,36.767 43.036,36.735 42.835,36.735 C41.759,36.735 40.883,37.603 40.883,38.675 C40.883,39.745 41.759,40.613 42.835,40.613 C43.036,40.613 43.23,40.583 43.413,40.527 L44.614,42.598 C44.227,42.95 43.981,43.458 43.981,44.023 C43.981,44.59 44.227,45.095 44.614,45.453 L43.413,47.521 C43.23,47.464 43.036,47.435 42.835,47.435 C41.759,47.435 40.883,48.303 40.883,49.373 C40.883,50.443 41.759,51.31 42.835,51.31 C43.036,51.31 43.23,51.281 43.413,51.224 L44.614,53.295 C44.227,53.65 43.981,54.158 43.981,54.723 C43.981,55.793 44.854,56.66 45.933,56.66 C46.861,56.66 47.637,56.017 47.833,55.152 L50.259,55.152 C50.455,56.017 51.229,56.66 52.159,56.66 L52.167,56.66 C52.368,56.66 52.561,56.631 52.745,56.574 L53.948,58.645 C53.558,59 53.313,59.508 53.313,60.073 C53.313,61.143 54.186,62.01 55.262,62.01 C56.192,62.01 56.969,61.364 57.165,60.502 L59.591,60.502 C59.787,61.364 60.563,62.01 61.491,62.01 L61.493,62.01 C61.694,62.01 61.89,61.981 62.071,61.924 L63.274,63.995 C62.887,64.35 62.639,64.856 62.639,65.423 C62.639,66.493 63.515,67.36 64.591,67.36 C65.521,67.36 66.295,66.714 66.491,65.849 L68.917,65.849 C69.113,66.714 69.89,67.36 70.817,67.36 C71.896,67.36 72.769,66.493 72.769,65.423 C72.769,64.858 72.526,64.353 72.142,63.998 L73.342,61.927 C73.523,61.981 73.712,62.01 73.91,62.01 L73.915,62.01 C74.114,62.01 74.307,61.981 74.488,61.927 L75.691,63.995 C75.302,64.35 75.056,64.856 75.056,65.423 C75.056,66.493 75.93,67.36 77.006,67.36 C77.936,67.36 78.71,66.714 78.909,65.849 L81.334,65.849 C81.53,66.714 82.307,67.36 83.234,67.36 L83.237,67.36 C83.438,67.36 83.631,67.331 83.815,67.274 L85.018,69.343 C84.629,69.698 84.385,70.205 84.385,70.77 C84.385,71.843 85.259,72.71 86.335,72.71 C87.263,72.71 88.039,72.062 88.235,71.199 L90.644,71.199 C90.795,72.121 91.596,72.826 92.566,72.826 C92.767,72.826 92.96,72.794 93.144,72.737 L94.312,74.752 C93.945,75.104 93.712,75.6 93.712,76.15 C93.712,76.164 93.714,76.177 93.714,76.192 C93.714,76.206 93.712,76.221 93.712,76.236 C93.712,76.786 93.943,77.279 94.312,77.631 L93.144,79.646 C92.96,79.589 92.767,79.559 92.566,79.559 C91.489,79.559 90.616,80.427 90.616,81.497 C90.616,82.57 91.489,83.437 92.566,83.437 C92.767,83.437 92.96,83.405 93.144,83.351 L94.302,85.346 C93.94,85.696 93.712,86.189 93.712,86.731 C93.712,86.751 93.714,86.771 93.714,86.79 C93.714,86.808 93.712,86.827 93.712,86.847 C93.712,87.392 93.94,87.883 94.302,88.235 L93.179,90.166 C92.988,90.101 92.779,90.064 92.566,90.064 C91.636,90.064 90.862,90.71 90.663,91.576 L88.24,91.576 C88.044,90.71 87.268,90.064 86.338,90.064 C85.261,90.064 84.388,90.932 84.388,92.005 C84.388,92.569 84.633,93.077 85.02,93.43 L83.82,95.501 C83.636,95.444 83.443,95.414 83.242,95.414 C82.312,95.414 81.538,96.06 81.342,96.923 L78.916,96.923 C78.718,96.06 77.941,95.414 77.013,95.414 C75.937,95.414 75.064,96.282 75.064,97.352 C75.064,97.919 75.307,98.425 75.696,98.78 L74.493,100.851 C74.312,100.794 74.116,100.764 73.915,100.764 L73.908,100.764 C73.71,100.764 73.519,100.794 73.337,100.848 L72.134,98.775 C72.519,98.422 72.762,97.917 72.762,97.352 C72.762,96.282 71.889,95.414 70.812,95.414 C69.882,95.414 69.108,96.06 68.912,96.923 L66.486,96.923 C66.29,96.06 65.514,95.414 64.584,95.414 L64.564,95.414 C64.366,95.414 64.175,95.444 63.994,95.501 L62.79,93.427 C63.175,93.072 63.418,92.567 63.418,92.005 C63.418,90.932 62.545,90.064 61.468,90.064 C60.538,90.064 59.762,90.71 59.566,91.576 L57.177,91.576 C57.009,90.676 56.215,89.993 55.26,89.993 C55.061,89.993 54.87,90.023 54.689,90.077 L53.496,88.028 C53.697,87.836 53.853,87.604 53.955,87.345 C54.057,87.111 54.114,86.852 54.114,86.583 C54.114,86.578 54.111,86.576 54.111,86.571 C54.111,86.568 54.114,86.564 54.114,86.561 C54.114,85.997 53.871,85.491 53.486,85.139 L54.65,83.132 C54.836,83.191 55.034,83.223 55.24,83.223 C56.138,83.223 56.894,82.619 57.12,81.798 C57.177,81.613 57.212,81.416 57.212,81.211 C57.212,80.141 56.336,79.273 55.26,79.273 C55.061,79.273 54.87,79.303 54.689,79.357 L53.484,77.284 C53.871,76.931 54.114,76.426 54.114,75.864 C54.114,74.791 53.241,73.923 52.162,73.923 C51.234,73.923 50.458,74.569 50.262,75.432 L47.836,75.432 C47.64,74.569 46.863,73.923 45.936,73.923 C44.859,73.923 43.984,74.791 43.984,75.864 C43.984,76.428 44.229,76.936 44.619,77.289 L43.416,79.36 C43.232,79.303 43.039,79.273 42.838,79.273 C41.761,79.273 40.888,80.141 40.888,81.211 C40.888,82.284 41.761,83.151 42.838,83.151 C43.039,83.151 43.232,83.119 43.416,83.063 L44.619,85.134 C44.229,85.489 43.984,85.994 43.984,86.561 C43.984,86.564 43.986,86.568 43.986,86.571 C43.986,86.576 43.984,86.578 43.984,86.583 C43.984,87.148 44.229,87.653 44.619,88.008 L43.416,90.079 C43.229,90.022 43.034,89.993 42.838,89.993 C41.761,89.993 40.888,90.861 40.888,91.931 C40.888,93.003 41.761,93.871 42.838,93.871 C43.039,93.871 43.232,93.839 43.416,93.785 L44.619,95.853 C44.229,96.208 43.984,96.716 43.984,97.281 C43.984,98.351 44.859,99.219 45.936,99.219 C46.863,99.219 47.64,98.573 47.836,97.71 L50.227,97.71 C50.396,98.61 51.189,99.293 52.144,99.293 C52.345,99.293 52.539,99.263 52.72,99.206 L53.923,101.277 C53.536,101.63 53.29,102.138 53.29,102.702 C53.29,103.772 54.163,104.64 55.24,104.64 C56.17,104.64 56.944,103.997 57.142,103.131 L59.566,103.131 C59.762,103.997 60.538,104.64 61.468,104.64 L61.488,104.64 C61.689,104.64 61.883,104.61 62.066,104.554 L63.267,106.625 C62.88,106.98 62.634,107.488 62.634,108.052 C62.634,109.122 63.507,109.99 64.584,109.99 C65.514,109.99 66.29,109.347 66.486,108.481 L68.912,108.481 C69.108,109.347 69.882,109.99 70.812,109.99 C71.889,109.99 72.762,109.122 72.762,108.052 C72.762,107.49 72.519,106.985 72.134,106.63 L73.337,104.556 C73.519,104.61 73.71,104.64 73.908,104.64 L73.915,104.64 C74.116,104.64 74.312,104.61 74.493,104.554 L75.696,106.625 C75.307,106.98 75.064,107.488 75.064,108.052 C75.064,109.122 75.937,109.99 77.013,109.99 C77.941,109.99 78.718,109.347 78.916,108.481 L81.342,108.481 C81.538,109.347 82.312,109.99 83.242,109.99 C84.318,109.99 85.192,109.122 85.192,108.052 C85.192,107.49 84.948,106.985 84.562,106.63 L85.767,104.556 C85.948,104.61 86.139,104.64 86.338,104.64 C87.268,104.64 88.044,103.997 88.24,103.131 L90.663,103.131 C90.862,103.997 91.636,104.64 92.566,104.64 C93.643,104.64 94.516,103.772 94.516,102.702 C94.516,102.14 94.273,101.635 93.888,101.28 L95.054,99.27 C95.245,99.334 95.451,99.369 95.662,99.369 C96.592,99.369 97.368,98.723 97.564,97.858 L99.99,97.858 C100.186,98.723 100.962,99.369 101.89,99.369 C102.967,99.369 103.84,98.501 103.84,97.431 C103.84,96.867 103.599,96.361 103.212,96.006 L104.415,93.935 C104.599,93.989 104.79,94.019 104.988,94.019 C106.065,94.019 106.938,93.151 106.938,92.081 C106.938,91.011 106.065,90.143 104.988,90.143 C104.79,90.143 104.599,90.173 104.415,90.227 L103.257,88.23 C103.616,87.878 103.84,87.389 103.84,86.847 C103.84,86.827 103.837,86.808 103.837,86.79 C103.837,86.771 103.84,86.751 103.84,86.731 C103.84,86.189 103.616,85.701 103.257,85.348 L104.415,83.351 C104.599,83.408 104.79,83.437 104.988,83.437 C106.065,83.437 106.938,82.57 106.938,81.497 C106.938,80.427 106.065,79.559 104.988,79.559 C104.79,79.559 104.599,79.589 104.415,79.643 L103.247,77.629 C103.612,77.276 103.84,76.783 103.84,76.236 C103.84,76.221 103.84,76.206 103.837,76.192 C103.84,76.177 103.84,76.164 103.84,76.15 C103.84,75.602 103.612,75.109 103.247,74.757 L104.415,72.74 C104.599,72.794 104.79,72.826 104.988,72.826 C106.065,72.826 106.938,71.958 106.938,70.886 C106.938,70.871 106.935,70.856 106.935,70.842 C106.935,70.829 106.938,70.814 106.938,70.8 C106.938,69.73 106.065,68.862 104.988,68.862 C104.79,68.862 104.599,68.891 104.415,68.946 L103.247,66.929 C103.612,66.576 103.84,66.083 103.84,65.538 C103.84,65.524 103.84,65.509 103.837,65.494 C103.84,65.479 103.84,65.464 103.84,65.45 C103.84,64.38 102.967,63.512 101.89,63.512 C100.962,63.512 100.186,64.155 99.99,65.021 L97.569,65.021 C97.383,64.143 96.599,63.482 95.659,63.482 C95.461,63.482 95.27,63.512 95.089,63.569 L93.883,61.495 C94.27,61.14 94.513,60.635 94.513,60.073 C94.513,59.508 94.27,59.005 93.883,58.65 L95.089,56.577 C95.27,56.631 95.461,56.66 95.659,56.66 L95.662,56.66 C96.592,56.66 97.366,56.017 97.564,55.152 L99.99,55.152 C100.186,56.017 100.962,56.66 101.89,56.66 C102.967,56.66 103.84,55.793 103.84,54.723 C103.84,54.161 103.599,53.655 103.212,53.3 L104.415,51.227 C104.599,51.281 104.79,51.31 104.988,51.31 C106.065,51.31 106.938,50.443 106.938,49.373 C106.938,48.303 106.065,47.435 104.988,47.435 C104.79,47.435 104.599,47.464 104.415,47.519 L103.212,45.448 C103.599,45.093 103.84,44.587 103.84,44.023 C103.84,43.461 103.599,42.955 103.212,42.603 L104.415,40.529 C104.599,40.583 104.79,40.613 104.988,40.613 C106.065,40.613 106.938,39.745 106.938,38.675 C106.938,37.603 106.065,36.735 104.988,36.735 C104.79,36.735 104.599,36.767 104.415,36.821 L103.212,34.748 C103.599,34.395 103.84,33.89 103.84,33.325 C103.84,32.763 103.599,32.258 103.212,31.903 L104.415,29.829 C104.599,29.886 104.79,29.916 104.988,29.916 z" fill="#DD2A7C"/>
  </g>
</svg>
