<?xml version="1.0" encoding="utf-8"?>
<!-- Generator: Adobe Illustrator 27.1.1, SVG Export Plug-In . SVG Version: 6.00 Build 0)  -->
<svg version="1.1" id="Layer_1" xmlns="http://www.w3.org/2000/svg" xmlns:xlink="http://www.w3.org/1999/xlink" x="0px" y="0px"
	 viewBox="0 0 1200 628" style="enable-background:new 0 0 1200 628;" xml:space="preserve">
<style type="text/css">
	.st0{fill:#2C7D21;}
	.st1{fill:#962A39;}
	.st2{fill:#46D267;}
	.st3{fill:#F9C886;}
	.st4{fill:#E16D86;}
	.st5{fill:#952938;}
	.st6{fill:#525252;}
	.st7{display:none;}
</style>
<g>
	<g>
		<ellipse class="st0" cx="169.2" cy="418" rx="149.4" ry="199.1"/>
		<path class="st1" d="M169.2,218.9c82.5,0,149.4,89.1,149.4,199.1s-66.9,199.1-149.4,199.1S19.8,528,19.8,418
			S86.7,218.9,169.2,218.9 M169.2,214.6c-84.8,0-153.7,91.3-153.7,203.5s69,203.5,153.7,203.5C254,621.5,323,530.2,323,418
			S254,214.6,169.2,214.6L169.2,214.6z"/>
	</g>
	<g>
		<ellipse class="st2" cx="382.6" cy="418" rx="149.4" ry="199.1"/>
		<path class="st0" d="M382.6,218.9C465.1,218.9,532,308,532,418s-66.9,199.1-149.4,199.1S233.3,528,233.3,418
			S300.1,218.9,382.6,218.9 M382.6,214.6c-84.8,0-153.7,91.3-153.7,203.5s69,203.5,153.7,203.5S536.4,530.2,536.4,418
			S467.4,214.6,382.6,214.6L382.6,214.6z"/>
	</g>
	<g>
		<ellipse class="st3" cx="598.3" cy="418" rx="149.4" ry="199.1"/>
		<path class="st2" d="M598.3,218.9c82.5,0,149.4,89.1,149.4,199.1s-66.9,199.1-149.4,199.1S448.9,528,448.9,418
			S515.8,218.9,598.3,218.9 M598.3,214.6c-84.8,0-153.7,91.3-153.7,203.5s69,203.5,153.7,203.5S752.1,530.2,752.1,418
			S683.1,214.6,598.3,214.6L598.3,214.6z"/>
	</g>
	<g>
		<ellipse class="st4" cx="815.1" cy="418" rx="149.4" ry="199.1"/>
		<path class="st3" d="M815.1,218.9c82.5,0,149.4,89.1,149.4,199.1s-66.9,199.1-149.4,199.1S665.7,528,665.7,418
			S732.6,218.9,815.1,218.9 M815.1,214.6c-84.8,0-153.7,91.3-153.7,203.5s69,203.5,153.7,203.5S968.9,530.2,968.9,418
			S899.9,214.6,815.1,214.6L815.1,214.6z"/>
	</g>
	<g>
		<ellipse class="st5" cx="1030.8" cy="418" rx="149.4" ry="199.1"/>
		<path class="st4" d="M1030.8,218.9c82.5,0,149.4,89.1,149.4,199.1s-66.9,199.1-149.4,199.1S881.4,528,881.4,418
			S948.3,218.9,1030.8,218.9 M1030.8,214.6C946,214.6,877,305.8,877,418s69,203.5,153.7,203.5s153.7-91.3,153.7-203.5
			S1115.6,214.6,1030.8,214.6L1030.8,214.6z"/>
	</g>
	<g>
		<g>
			<path class="st6" d="M76.8,9.3h16.4c1.8,0,3.3,0.5,4.4,1.4s2,2.1,2.5,3.5L143,121.3c1,2.4,1.9,5,2.7,7.8c0.8,2.8,1.6,5.8,2.4,8.8
				c0.6-3,1.3-6,2.1-8.8c0.7-2.8,1.6-5.4,2.6-7.8l42.7-107.1c0.5-1.2,1.3-2.3,2.5-3.3s2.7-1.5,4.4-1.5h16.5L157,161.2h-18.5
				L76.8,9.3z"/>
			<path class="st6" d="M332,9.3V26h-72.9v50.4h59v16.1h-59v51.8H332V161h-93.5V9.3H332z"/>
			<path class="st6" d="M384.1,97.8v63.3h-20.4V9.3h42.9c9.6,0,17.9,1,24.9,2.9s12.8,4.7,17.3,8.4c4.6,3.7,7.9,8.1,10.1,13.3
				s3.3,11,3.3,17.4c0,5.4-0.8,10.4-2.5,15c-1.7,4.7-4.1,8.8-7.4,12.6c-3.2,3.7-7.1,6.9-11.8,9.5c-4.6,2.6-9.9,4.6-15.7,5.9
				c2.5,1.5,4.8,3.6,6.8,6.5l44.3,60.3h-18.2c-3.7,0-6.5-1.4-8.3-4.3L410,102.6c-1.2-1.7-2.5-2.9-3.9-3.7c-1.4-0.7-3.5-1.1-6.4-1.1
				H384.1z M384.1,82.9h21.5c6,0,11.3-0.7,15.8-2.2c4.6-1.4,8.4-3.5,11.4-6.1c3.1-2.6,5.4-5.8,6.9-9.5c1.6-3.7,2.3-7.7,2.3-12.2
				c0-9-3-15.9-9-20.4c-6-4.6-14.8-6.9-26.6-6.9h-22.5v57.3H384.1z"/>
			<path class="st6" d="M622.8,161.1H607c-1.8,0-3.3-0.5-4.4-1.4c-1.1-0.9-2-2.1-2.5-3.5l-14.2-36.6h-68.1l-14.2,36.6
				c-0.5,1.3-1.3,2.4-2.5,3.4s-2.7,1.5-4.4,1.5h-15.9L541.3,9.3h20.9L622.8,161.1z M523.4,104.8h56.7L556.2,43
				c-1.6-3.8-3.1-8.6-4.6-14.3c-0.8,2.9-1.5,5.6-2.3,8c-0.7,2.4-1.5,4.6-2.2,6.4L523.4,104.8z"/>
			<path class="st6" d="M666.4,161.1h-20.5V9.3h20.5V161.1z"/>
			<path class="st6" d="M784.8,33.1c-0.6,1.1-1.3,1.9-2,2.4s-1.6,0.8-2.8,0.8s-2.6-0.6-4.2-1.8c-1.6-1.2-3.6-2.5-6-4
				c-2.4-1.4-5.4-2.8-8.8-4c-3.4-1.2-7.6-1.8-12.4-1.8c-4.6,0-8.7,0.6-12.2,1.9c-3.5,1.2-6.5,2.9-8.8,5c-2.4,2.1-4.1,4.6-5.3,7.5
				c-1.2,2.9-1.8,5.9-1.8,9.3c0,4.2,1,7.7,3.1,10.5s4.8,5.2,8.3,7.1c3.4,2,7.3,3.7,11.7,5.1c4.3,1.4,8.8,2.9,13.3,4.5
				c4.6,1.6,9,3.3,13.3,5.2c4.3,1.9,8.2,4.4,11.7,7.4c3.4,3,6.2,6.6,8.3,10.9s3.1,9.6,3.1,15.9c0,6.6-1.1,12.9-3.4,18.7
				c-2.3,5.8-5.6,10.9-9.9,15.2c-4.3,4.3-9.7,7.7-16,10.2s-13.5,3.7-21.6,3.7c-9.8,0-18.8-1.8-26.8-5.3c-8.1-3.6-15-8.4-20.7-14.5
				l5.9-9.7c0.6-0.8,1.3-1.4,2.1-2c0.8-0.5,1.7-0.8,2.7-0.8c1.5,0,3.2,0.8,5.1,2.4c1.9,1.6,4.3,3.3,7.1,5.2
				c2.9,1.9,6.3,3.7,10.4,5.2c4.1,1.6,9,2.4,14.9,2.4c4.9,0,9.2-0.7,13-2s7-3.2,9.7-5.7c2.6-2.4,4.7-5.3,6.1-8.7
				c1.4-3.4,2.1-7.2,2.1-11.3c0-4.6-1-8.3-3.1-11.3c-2.1-2.9-4.8-5.4-8.2-7.4s-7.3-3.7-11.6-5c-4.3-1.4-8.8-2.8-13.3-4.2
				c-4.6-1.4-9-3.1-13.3-5s-8.2-4.4-11.6-7.4c-3.4-3-6.1-6.8-8.2-11.4c-2.1-4.6-3.1-10.2-3.1-16.9c0-5.4,1-10.6,3.1-15.6
				s5.1-9.5,9.1-13.3c4-3.9,8.8-7,14.7-9.3c5.8-2.3,12.5-3.5,20.1-3.5c8.5,0,16.2,1.3,23.2,4s13.1,6.6,18.3,11.7L784.8,33.1z"/>
			<path class="st6" d="M960.3,85.3c0,11.4-1.8,21.8-5.4,31.3c-3.6,9.5-8.7,17.7-15.3,24.5s-14.5,12.2-23.7,15.9
				c-9.2,3.8-19.4,5.7-30.6,5.7c-11.2,0-21.3-1.9-30.5-5.7s-17.1-9.1-23.6-15.9c-6.6-6.8-11.7-15-15.3-24.5s-5.4-19.9-5.4-31.3
				s1.8-21.8,5.4-31.3c3.6-9.5,8.7-17.7,15.3-24.6s14.4-12.2,23.6-16c9.2-3.8,19.3-5.7,30.5-5.7s21.3,1.9,30.6,5.7
				c9.2,3.8,17.1,9.2,23.7,16c6.6,6.9,11.7,15.1,15.3,24.6C958.5,63.5,960.3,73.9,960.3,85.3z M939.2,85.3c0-9.3-1.3-17.7-3.8-25.1
				s-6.1-13.7-10.8-18.8s-10.3-9.1-16.9-11.8c-6.6-2.8-14.1-4.1-22.2-4.1c-8.1,0-15.5,1.4-22.1,4.1c-6.6,2.8-12.3,6.7-17,11.8
				s-8.3,11.4-10.9,18.8c-2.5,7.4-3.8,15.8-3.8,25.1s1.3,17.7,3.8,25c2.5,7.4,6.2,13.6,10.9,18.7c4.7,5.1,10.4,9,17,11.8
				c6.6,2.7,14,4.1,22.1,4.1c8.2,0,15.6-1.4,22.2-4.1c6.6-2.7,12.3-6.6,16.9-11.8c4.7-5.1,8.3-11.4,10.8-18.7
				C938,103,939.2,94.6,939.2,85.3z"/>
			<path class="st6" d="M1003,10c0.9,0.5,1.9,1.4,3,2.8l87.9,114.4c-0.2-1.8-0.4-3.6-0.4-5.3c-0.1-1.7-0.1-3.4-0.1-5V9.3h18v151.8
				H1101c-1.6,0-3-0.3-4.1-0.8c-1.1-0.6-2.2-1.5-3.2-2.9l-87.8-114.3c0.1,1.8,0.2,3.5,0.3,5.2s0.1,3.2,0.1,4.7v108.1h-18V9.3H999
				C1000.8,9.3,1002.2,9.6,1003,10z"/>
		</g>
	</g>
</g>
<g class="st7">
	
		<text transform="matrix(1 0 0 1 89.0376 -75.5722)" style="display:inline;fill:#525252; font-family:'Lato-Regular'; font-size:203.67px;">VERAISON</text>
</g>
</svg>
