<?xml version="1.0" encoding="UTF-8"?>
<svg id="Layer_1" data-name="Layer 1" xmlns="http://www.w3.org/2000/svg" xmlns:xlink="http://www.w3.org/1999/xlink" viewBox="0 0 939.66 313.86">
  <defs>
    <style>
      .cls-1 {
        fill: url(#linear-gradient-2);
      }

      .cls-2 {
        fill: url(#linear-gradient);
      }

      .cls-3 {
        fill: #0f151f;
      }

      .cls-4 {
        fill: #00a5b2;
      }
    </style>
    <linearGradient id="linear-gradient" x1="22.16" y1="32.3" x2="315.41" y2="291.89" gradientUnits="userSpaceOnUse">
      <stop offset="0" stop-color="#eb0045"/>
      <stop offset=".07" stop-color="#db074c"/>
      <stop offset=".2" stop-color="#b41b5f"/>
      <stop offset=".37" stop-color="#733b7f"/>
      <stop offset=".59" stop-color="#1c66aa"/>
      <stop offset=".66" stop-color="#0075b8"/>
      <stop offset="1" stop-color="#3fc1c9"/>
    </linearGradient>
    <linearGradient id="linear-gradient-2" x1="306.92" y1="228.23" x2="809.57" y2="228.23" xlink:href="#linear-gradient"/>
  </defs>
  <path class="cls-2" d="M254.76,257.97c0-15.15,12.32-27.47,27.47-27.47,6.17,0,11.85,2.07,16.44,5.51,13.58-23.23,21.4-50.24,21.4-79.09,0-42.73-17.1-81.45-44.8-109.75-4.97,4.92-11.79,7.97-19.32,7.97-15.15,0-27.47-12.32-27.47-27.47,0-4.36,1.05-8.46,2.86-12.12C210.72,5.59,187.58,0,163.14,0,110.1,0,63.23,26.35,34.82,66.64c1.1.81,2.16,1.67,3.15,2.65,5.22,5.18,8.1,12.11,8.1,19.51,0,15.15-12.32,27.47-27.47,27.47-2.35,0-4.61-.33-6.79-.88-3.63,13.24-5.6,27.16-5.6,41.54,0,38.78,14.09,74.24,37.4,101.63,4.85-4.32,11.22-6.96,18.21-6.96,15.15,0,27.47,12.32,27.47,27.47,0,5.17-1.46,9.99-3.96,14.13,22.94,13.13,49.49,20.67,77.81,20.67,38.05,0,72.94-13.55,100.11-36.08-5.22-5-8.49-12.02-8.49-19.81h0ZM220.98,193.46c-2.88,4.1-6.74,6.35-11.47,6.69-3.27.23-5.87,3.06-5.68,6.34.22,3.66-1.25,7.32-4.03,10.04-2.85,2.79-6.61,4.21-10.32,3.91-2.4-.2-4.77,1.07-5.9,3.39-.41.85-.6,1.8-.58,2.74.13,6.45-3.93,10.7-7.78,12.52-4.84,2.3-10.26,1.53-14.53-2.05l-96.33-96.38c-2.29-2.29-2.29-6,0-8.28l28.42-28.44c2.29-2.29,6.01-2.29,8.3.02l8.73,8.81c4.19,4.23,10.61,5.02,15.62,1.92,8.64-5.35,19.28-5.17,27.6.02l-27.08,27.1c-2.34,2.34-2.34,6.14,0,8.48l2.03,2.04c6.79,6.8,15.83,10.54,25.43,10.54h0c9.54,0,18.69-3.79,25.43-10.54l7.87-7.88,38.23,38.26c-.42,3.84-1.84,7.74-3.97,10.77h0ZM190.96,131.71c-1.17-1.17-2.7-1.76-4.23-1.76s-3.07.59-4.24,1.76l-12.11,12.12c-4.53,4.53-10.56,7.03-16.96,7.03-5.36,0-10.45-1.75-14.62-4.97l27.27-27.29c8.66-8.68,22.66-9.76,32.57-2.51,5.02,3.67,11.88,3.12,16.31-1.31l10.24-10.25c2.29-2.29,5.99-2.29,8.28,0l28.46,28.48c2.29,2.29,2.29,6,0,8.28l-30.81,30.59-40.15-40.18h0ZM0,88.8c0,8.77,6.19,16.18,14.41,18.1,3.91-11.63,9.13-22.65,15.51-32.88-3.14-2.4-7.06-3.83-11.31-3.83C8.39,70.2,0,78.59,0,88.8ZM18.6,107.4c10.21,0,18.6-8.39,18.6-18.6,0-6.1-2.88-11.4-7.29-14.77-6.38,10.23-11.6,21.25-15.51,32.88,1.35.32,2.75.5,4.2.5ZM18.6,107.4c10.21,0,18.6-8.39,18.6-18.6,0-6.1-2.88-11.4-7.29-14.77-6.38,10.23-11.6,21.25-15.51,32.88,1.35.32,2.75.5,4.2.5ZM239.21,19.67c10.72,5.96,20.69,13.11,29.68,21.32,3.48-3.39,5.66-8.11,5.66-13.3,0-10.44-8.39-18.6-18.6-18.6-7.34,0-13.73,4.35-16.74,10.59h0ZM237.35,27.68c0,10.21,8.39,18.6,18.6,18.6,5.01,0,9.58-2.03,12.94-5.3-8.99-8.21-18.96-15.36-29.68-21.32-1.18,2.44-1.86,5.15-1.86,8.02h0ZM237.35,27.68c0,10.21,8.39,18.6,18.6,18.6,5.01,0,9.58-2.03,12.94-5.3-8.99-8.21-18.96-15.36-29.68-21.32-1.18,2.44-1.86,5.15-1.86,8.02h0ZM294,243.54c-6.88,10.38-14.97,19.88-24.06,28.33,3.29,2.91,7.59,4.71,12.29,4.71,10.21,0,18.6-8.39,18.6-18.6,0-5.89-2.67-11.05-6.84-14.44h0ZM294,243.54c-3.22-2.61-7.32-4.17-11.77-4.17-10.21,0-18.6,8.39-18.6,18.6,0,5.51,2.46,10.48,6.31,13.9,9.09-8.45,17.17-17.95,24.06-28.33ZM294,243.54c-3.22-2.61-7.32-4.17-11.77-4.17-10.21,0-18.6,8.39-18.6,18.6,0,5.51,2.46,10.48,6.31,13.9,9.09-8.45,17.17-17.95,24.06-28.33ZM77.76,288.57c-10.3-6.7-19.76-14.56-28.2-23.42-3.87,3.42-6.34,8.39-6.34,13.91,0,10.21,8.39,18.6,18.6,18.6,6.74,0,12.67-3.67,15.94-9.09h0ZM77.76,288.57c1.68-2.79,2.67-6.04,2.67-9.51,0-10.44-8.39-18.6-18.6-18.6-4.69,0-8.98,1.78-12.27,4.69,8.44,8.86,17.9,16.73,28.2,23.42h0ZM77.76,288.57c1.68-2.79,2.67-6.04,2.67-9.51,0-10.44-8.39-18.6-18.6-18.6-4.69,0-8.98,1.78-12.27,4.69,8.44,8.86,17.9,16.73,28.2,23.42h0Z"/>
  <g>
    <path class="cls-1" d="M407.9,215.01c3.34,3.84,5.01,9.26,5.01,16.26,0,4.57-.76,8.51-2.28,11.83s-3.7,5.85-6.55,7.62c-2.85,1.76-6.24,2.64-10.16,2.64s-7.3-.87-10.13-2.61c-2.83-1.74-5.01-4.26-6.52-7.55s-2.28-7.27-2.28-11.92.76-8.46,2.28-11.77,3.69-5.85,6.52-7.61c2.83-1.76,6.21-2.64,10.13-2.64,5.99,0,10.65,1.92,13.98,5.76ZM387.51,220.01c-1.4,2.33-2.09,6.08-2.09,11.25s.71,8.94,2.12,11.28c1.41,2.35,3.54,3.52,6.37,3.52s5.07-1.16,6.46-3.49c1.4-2.33,2.09-6.1,2.09-11.32s-.71-8.98-2.12-11.29c-1.42-2.3-3.56-3.46-6.43-3.46s-5.01,1.16-6.4,3.49ZM445.85,252.32h-8.31l-.42-4.06c-2.35,3.4-5.6,5.09-9.77,5.09-2.95,0-5.19-.89-6.71-2.67-1.52-1.78-2.27-4.27-2.27-7.46v-23.12h9.59v21.9c0,1.58.25,2.68.76,3.31.51.63,1.28.94,2.34.94,2.02,0,3.76-1.25,5.22-3.76v-22.39h9.59v32.22h0ZM473.57,250.8c-1.17.81-2.54,1.44-4.1,1.88-1.56.45-3.11.67-4.64.67-7.04-.04-10.56-3.92-10.56-11.65v-14.93h-4.55v-6.67h4.55v-6.98l9.59-1.09v8.07h7.4l-1.03,6.67h-6.37v14.8c0,1.5.24,2.57.73,3.21.49.65,1.25.97,2.3.97s2.25-.34,3.46-1.03l3.21,6.07ZM497.48,219.62l-1.52,9.28c-1.22-.28-2.19-.42-2.91-.42-1.9,0-3.35.66-4.34,1.97-.99,1.31-1.77,3.29-2.34,5.91v15.96h-9.59v-32.22h8.37l.79,6.25c.73-2.22,1.83-3.97,3.31-5.25s3.14-1.91,5.01-1.91c1.17,0,2.25.14,3.22.42ZM527.21,239.03h-19.96c.32,2.71,1.09,4.61,2.3,5.7s2.89,1.64,5.04,1.64c1.29,0,2.55-.23,3.76-.7s2.53-1.18,3.94-2.15l3.94,5.34c-3.76,2.99-7.95,4.49-12.56,4.49-5.22,0-9.22-1.54-12.01-4.61s-4.19-7.2-4.19-12.38c0-3.28.59-6.22,1.76-8.83,1.17-2.61,2.89-4.67,5.16-6.19s4.98-2.28,8.13-2.28c4.65,0,8.29,1.46,10.92,4.37,2.63,2.91,3.94,6.96,3.94,12.13,0,1.33-.06,2.49-.18,3.46h0ZM517.98,232.85c-.08-4.93-1.82-7.4-5.22-7.4-1.66,0-2.94.61-3.85,1.82s-1.47,3.22-1.67,6.01h10.74v-.42ZM558.3,245.65c.34.57.9.99,1.67,1.28l-2,6.25c-1.98-.16-3.6-.6-4.85-1.3-1.25-.71-2.22-1.83-2.91-3.37-2.1,3.24-5.34,4.85-9.71,4.85-3.2,0-5.74-.93-7.64-2.79s-2.85-4.29-2.85-7.28c0-3.52,1.29-6.21,3.88-8.07,2.59-1.86,6.33-2.79,11.23-2.79h3.28v-1.4c0-1.9-.41-3.2-1.21-3.91-.81-.71-2.22-1.06-4.25-1.06-1.05,0-2.33.15-3.82.46s-3.03.72-4.61,1.24l-2.18-6.31c2.02-.77,4.1-1.36,6.22-1.76,2.13-.4,4.1-.61,5.92-.61,4.61,0,7.99.95,10.13,2.85,2.14,1.9,3.21,4.75,3.21,8.55v12.5c0,1.21.17,2.1.52,2.67ZM548.38,243.4v-5.7h-2.37c-2.18,0-3.81.39-4.88,1.15-1.07.77-1.61,1.96-1.61,3.58,0,1.3.33,2.3,1,3s1.59,1.06,2.76,1.06c2.18,0,3.88-1.03,5.09-3.1ZM585.39,220.04c1.78.65,3.46,1.64,5.03,2.97l-4.12,5.7c-2.02-1.54-4.07-2.3-6.13-2.3s-3.76.79-4.85,2.37c-1.09,1.58-1.64,4.13-1.64,7.64s.55,5.81,1.64,7.22c1.09,1.42,2.67,2.12,4.73,2.12,1.09,0,2.08-.17,2.97-.51s1.96-.9,3.22-1.67l4.19,5.95c-3.2,2.55-6.82,3.82-10.86,3.82-3.28,0-6.11-.7-8.49-2.09-2.39-1.4-4.23-3.36-5.52-5.89s-1.94-5.49-1.94-8.89.65-6.41,1.94-9.04c1.3-2.63,3.13-4.68,5.52-6.16,2.38-1.48,5.16-2.22,8.31-2.22,2.22,0,4.23.33,6.01.97h0ZM619.91,221.62c1.58,1.7,2.37,4.09,2.37,7.16v23.54h-9.59v-21.9c0-1.62-.26-2.74-.79-3.37-.53-.63-1.27-.94-2.24-.94-1.94,0-3.8,1.38-5.58,4.13v22.08h-9.59v-45.02l9.59-.97v17.23c1.34-1.5,2.75-2.62,4.25-3.37,1.49-.75,3.17-1.12,5.03-1.12,2.79,0,4.98.85,6.55,2.55h0ZM668.23,210.4c2.04.77,3.97,1.92,5.79,3.46l-4.73,5.64c-1.25-.97-2.49-1.7-3.7-2.18s-2.51-.73-3.88-.73c-2.83,0-5.07,1.19-6.7,3.58-1.64,2.39-2.46,6.07-2.46,11.04s.82,8.52,2.46,10.89c1.64,2.37,3.91,3.55,6.82,3.55,1.54,0,2.93-.29,4.19-.88,1.25-.59,2.61-1.43,4.06-2.52l4.43,5.7c-1.58,1.58-3.49,2.87-5.73,3.88-2.25,1.01-4.72,1.52-7.43,1.52-3.88,0-7.26-.85-10.13-2.55s-5.11-4.22-6.7-7.55c-1.6-3.34-2.4-7.35-2.4-12.04s.82-8.52,2.46-11.83,3.9-5.83,6.8-7.55c2.89-1.72,6.18-2.58,9.86-2.58,2.63,0,4.97.39,7.01,1.15ZM703.09,223.59c2.79,3.01,4.19,7.23,4.19,12.65,0,3.44-.64,6.44-1.91,9.01s-3.09,4.56-5.46,5.98c-2.37,1.41-5.17,2.12-8.4,2.12-4.89,0-8.75-1.51-11.56-4.52-2.81-3.01-4.22-7.23-4.22-12.65,0-3.44.64-6.44,1.91-9.01s3.09-4.56,5.46-5.98c2.37-1.41,5.17-2.12,8.4-2.12,4.93,0,8.8,1.51,11.59,4.52h0ZM687.13,228.57c-.97,1.64-1.46,4.18-1.46,7.61s.48,6.09,1.43,7.71c.95,1.62,2.42,2.43,4.4,2.43s3.4-.82,4.37-2.46c.97-1.64,1.46-4.18,1.46-7.62s-.48-6.09-1.43-7.71c-.95-1.62-2.42-2.43-4.4-2.43s-3.4.82-4.37,2.46ZM754.72,221.65c1.54,1.72,2.3,4.1,2.3,7.13v23.54h-9.59v-21.9c0-2.87-.91-4.31-2.73-4.31-1.01,0-1.9.34-2.67,1.03-.77.69-1.52,1.74-2.24,3.16v22.02h-9.59v-21.9c0-2.87-.91-4.31-2.73-4.31-.97,0-1.85.35-2.64,1.06s-1.55,1.75-2.27,3.12v22.02h-9.59v-32.22h8.37l.67,3.76c1.25-1.62,2.64-2.82,4.16-3.61,1.52-.79,3.24-1.18,5.19-1.18,1.82,0,3.39.45,4.7,1.33,1.31.89,2.28,2.14,2.88,3.76,1.29-1.74,2.72-3.02,4.28-3.85,1.56-.83,3.35-1.24,5.37-1.24,2.55,0,4.59.86,6.13,2.58h0ZM805.99,221.65c1.54,1.72,2.3,4.1,2.3,7.13v23.54h-9.59v-21.9c0-2.87-.91-4.31-2.73-4.31-1.01,0-1.9.34-2.67,1.03-.77.69-1.52,1.74-2.24,3.16v22.02h-9.59v-21.9c0-2.87-.91-4.31-2.73-4.31-.97,0-1.85.35-2.64,1.06s-1.55,1.75-2.27,3.12v22.02h-9.59v-32.22h8.37l.67,3.76c1.25-1.62,2.64-2.82,4.16-3.61,1.52-.79,3.24-1.18,5.19-1.18,1.82,0,3.39.45,4.7,1.33,1.31.89,2.28,2.14,2.88,3.76,1.29-1.74,2.72-3.02,4.28-3.85,1.56-.83,3.35-1.24,5.37-1.24,2.55,0,4.59.86,6.13,2.58h0ZM824.34,204.66c1.07,1.03,1.61,2.34,1.61,3.91s-.54,2.88-1.61,3.91-2.44,1.55-4.1,1.55-3.01-.52-4.06-1.55c-1.05-1.03-1.58-2.34-1.58-3.91s.53-2.88,1.58-3.91c1.05-1.03,2.4-1.55,4.06-1.55s3.02.52,4.1,1.55ZM825.1,220.1v32.22h-9.59v-32.22h9.59ZM852.83,250.8c-1.17.81-2.54,1.44-4.1,1.88-1.56.45-3.11.67-4.64.67-7.04-.04-10.56-3.92-10.56-11.65v-14.93h-4.55v-6.67h4.55v-6.98l9.59-1.09v8.07h7.4l-1.03,6.67h-6.37v14.8c0,1.5.24,2.57.73,3.21.49.65,1.25.97,2.3.97s2.24-.34,3.46-1.03l3.21,6.07h0ZM876.25,250.8c-1.17.81-2.54,1.44-4.1,1.88-1.56.45-3.11.67-4.64.67-7.04-.04-10.56-3.92-10.56-11.65v-14.93h-4.55v-6.67h4.55v-6.98l9.59-1.09v8.07h7.4l-1.03,6.67h-6.37v14.8c0,1.5.24,2.57.73,3.21.49.65,1.25.97,2.3.97s2.24-.34,3.46-1.03l3.21,6.07h0ZM906.28,239.03h-19.96c.33,2.71,1.09,4.61,2.31,5.7s2.89,1.64,5.03,1.64c1.3,0,2.55-.23,3.76-.7s2.53-1.18,3.94-2.15l3.94,5.34c-3.76,2.99-7.95,4.49-12.56,4.49-5.22,0-9.22-1.54-12.01-4.61-2.79-3.07-4.19-7.2-4.19-12.38,0-3.28.59-6.22,1.76-8.83,1.17-2.61,2.89-4.67,5.16-6.19s4.98-2.28,8.13-2.28c4.65,0,8.29,1.46,10.92,4.37,2.63,2.91,3.94,6.96,3.94,12.13,0,1.33-.06,2.49-.18,3.46h0ZM897.05,232.85c-.08-4.93-1.82-7.4-5.22-7.4-1.66,0-2.94.61-3.85,1.82s-1.47,3.22-1.67,6.01h10.74v-.42ZM939.77,239.03h-19.96c.33,2.71,1.09,4.61,2.31,5.7s2.89,1.64,5.03,1.64c1.3,0,2.55-.23,3.76-.7s2.53-1.18,3.94-2.15l3.94,5.34c-3.76,2.99-7.95,4.49-12.56,4.49-5.22,0-9.22-1.54-12.01-4.61-2.79-3.07-4.19-7.2-4.19-12.38,0-3.28.59-6.22,1.76-8.83,1.17-2.61,2.89-4.67,5.16-6.19s4.98-2.28,8.13-2.28c4.65,0,8.29,1.46,10.92,4.37,2.63,2.91,3.94,6.96,3.94,12.13,0,1.33-.06,2.49-.18,3.46h0ZM930.54,232.85c-.08-4.93-1.82-7.4-5.22-7.4-1.66,0-2.94.61-3.85,1.82s-1.47,3.22-1.67,6.01h10.74v-.42Z"/>
    <g>
      <g>
        <path class="cls-3" d="M385.32,97.12h2.59c5.84,0,10.34-4.42,10.34-10.26v-1.83l-6.42-.58v2.42c0,2.34-1.75,4.17-4.09,4.17h-2.34c-2.34,0-4.09-1.83-4.09-4.17v-16.1c0-2.34,1.75-4.17,4.09-4.17h2.34c2.34,0,4.09,1.83,4.09,4.17v2.42l6.42-.58v-1.83c0-5.84-4.5-10.26-10.34-10.26h-2.59c-5.84,0-10.34,4.42-10.34,10.26v16.1c0,5.84,4.5,10.26,10.34,10.26h0Z"/>
        <path class="cls-3" d="M417.85,60.51h-2.59c-5.84,0-10.34,4.42-10.34,10.26v16.1c0,5.84,4.5,10.26,10.34,10.26h2.59c5.84,0,10.34-4.42,10.34-10.26v-16.1c0-5.84-4.5-10.26-10.34-10.26ZM421.77,86.86c0,2.34-1.75,4.17-4.09,4.17h-2.34c-2.34,0-4.09-1.83-4.09-4.17v-16.1c0-2.34,1.75-4.17,4.09-4.17h2.34c2.34,0,4.09,1.83,4.09,4.17v16.1Z"/>
        <polygon class="cls-3" points="441.61 72.1 441.95 73.69 455.88 97.21 461.71 97.21 461.71 60.51 455.13 60.51 455.13 85.61 454.79 84.03 440.78 60.51 435.03 60.51 435.03 97.21 441.61 97.21 441.61 72.1"/>
        <polygon class="cls-3" points="467.38 97.21 474.06 97.21 474.06 82.03 487.57 82.03 487.57 75.69 474.06 75.69 474.06 66.77 490.82 66.77 490.82 60.51 467.38 60.51 467.38 97.21"/>
        <rect class="cls-3" x="496.74" y="60.51" width="6.59" height="36.69"/>
        <path class="cls-3" d="M533.85,86.61v-15.51c0-6-4.67-10.59-10.67-10.59h-13.34v36.69h13.34c6,0,10.67-4.59,10.67-10.59ZM516.42,90.95v-24.18h6.59c2.42,0,4.17,1.92,4.17,4.34v15.51c0,2.42-1.75,4.34-4.17,4.34h-6.59Z"/>
        <polygon class="cls-3" points="539.94 97.21 563.37 97.21 563.37 90.95 546.53 90.95 546.53 82.03 560.04 82.03 560.04 75.69 546.53 75.69 546.53 66.77 563.37 66.77 563.37 60.51 539.94 60.51 539.94 97.21"/>
        <polygon class="cls-3" points="576.22 72.1 576.55 73.6 590.48 97.12 596.31 97.12 596.31 60.51 589.73 60.51 589.73 85.53 589.39 84.03 575.38 60.51 569.63 60.51 569.63 97.12 576.22 97.12 576.22 72.1"/>
        <polygon class="cls-3" points="603.24 66.77 611.83 66.77 611.83 97.12 618.41 97.12 618.41 66.77 627.09 66.77 627.09 60.51 603.24 60.51 603.24 66.77"/>
        <rect class="cls-3" x="634.01" y="60.51" width="6.59" height="36.61"/>
        <path class="cls-3" d="M658.11,60.51l-10.17,36.61h7.09l1.92-7.26h11.26l1.92,7.26h7.09l-10.26-36.61h-8.84ZM658.28,84.2l4.17-15.93v-1.42l.17,1.33,4.09,15.93h-8.42v.08Z"/>
        <polygon class="cls-3" points="690.55 60.51 683.96 60.51 683.96 97.12 704.06 97.12 704.06 90.87 690.55 90.87 690.55 60.51"/>
      </g>
      <g>
        <path class="cls-3" d="M387.91,109.68h-2.59c-5.84,0-10.34,4.42-10.34,10.26v16.1c0,5.84,4.5,10.26,10.34,10.26h2.59c5.84,0,10.34-4.42,10.34-10.26v-1.83l-6.42-.58v2.42c0,2.34-1.75,4.17-4.09,4.17h-2.34c-2.34,0-4.09-1.83-4.09-4.17v-16.1c0-2.34,1.75-4.17,4.09-4.17h2.34c2.34,0,4.09,1.83,4.09,4.17v2.42l6.42-.58v-1.83c0-5.84-4.5-10.26-10.34-10.26h0Z"/>
        <path class="cls-3" d="M428.19,136.03v-16.1c0-5.84-4.5-10.26-10.34-10.26h-2.59c-5.84,0-10.34,4.42-10.34,10.26v16.1c0,5.84,4.5,10.26,10.34,10.26h2.59c5.84,0,10.34-4.42,10.34-10.26ZM421.77,136.03c0,2.34-1.75,4.17-4.09,4.17h-2.34c-2.34,0-4.09-1.83-4.09-4.17v-16.1c0-2.34,1.75-4.17,4.09-4.17h2.34c2.34,0,4.09,1.83,4.09,4.17v16.1Z"/>
        <polygon class="cls-3" points="452.79 137.61 452.62 138.95 452.54 137.61 444.45 109.68 434.86 109.68 434.86 146.37 441.45 146.37 441.45 117.77 441.61 119.35 449.45 146.37 455.88 146.37 463.63 119.35 463.88 117.77 463.88 146.37 470.47 146.37 470.47 109.68 460.8 109.68 452.79 137.61"/>
        <path class="cls-3" d="M490.57,109.68h-13.68v36.69h6.59v-12.01h7.01c6,0,10.67-4.59,10.67-10.59v-3.5c0-6-4.59-10.59-10.59-10.59ZM494.65,123.77c0,2.42-1.75,4.34-4.17,4.34h-6.92v-12.18h6.92c2.42,0,4.17,1.92,4.17,4.34v3.5Z"/>
        <path class="cls-3" d="M531.02,135.95v-26.27h-6.5v26.27c0,2.42-1.75,4.25-4.17,4.25h-2.42c-2.42,0-4.17-1.83-4.17-4.25v-26.27h-6.5v26.27c0,5.92,4.59,10.42,10.51,10.42h2.59c6,0,10.67-4.5,10.67-10.42h0Z"/>
        <polygon class="cls-3" points="537.6 115.93 546.28 115.93 546.28 146.37 552.87 146.37 552.87 115.93 561.54 115.93 561.54 109.68 537.6 109.68 537.6 115.93"/>
        <rect class="cls-3" x="567.79" y="109.68" width="6.59" height="36.61"/>
        <polygon class="cls-3" points="587.47 121.27 587.81 122.85 601.82 146.37 607.57 146.37 607.57 109.68 600.98 109.68 600.98 134.78 600.65 133.19 586.72 109.68 580.89 109.68 580.89 146.37 587.47 146.37 587.47 121.27"/>
        <path class="cls-3" d="M634.59,121.77v-1.83c0-5.84-4.5-10.26-10.34-10.26h-2.59c-5.84,0-10.34,4.42-10.34,10.26v16.1c0,5.84,4.5,10.26,10.34,10.26h1.5c2.92,0,5.42-1.25,7.09-3.34l1.83,2.84h2.5v-19.76h-11.68v6.09h5.25v3.84c0,2.34-1.75,4.17-4.09,4.17h-2.34c-2.34,0-4.09-1.83-4.09-4.17v-16.01c0-2.34,1.75-4.17,4.09-4.17h2.34c2.34,0,4.09,1.83,4.09,4.17v2.42l6.42-.58Z"/>
      </g>
      <g>
        <path class="cls-4" d="M382.25,158.29h-1.42c-3.29,0-5.85,2.5-5.85,5.78v9.04c0,3.29,2.56,5.78,5.85,5.78h1.42c3.29,0,5.85-2.5,5.85-5.78v-1.04l-3.6-.35v1.36c0,1.33-.98,2.34-2.28,2.34h-1.33c-1.33,0-2.28-1.04-2.28-2.34v-9.04c0-1.33.98-2.34,2.28-2.34h1.33c1.33,0,2.28,1.04,2.28,2.34v1.36l3.6-.35v-1.04c-.03-3.22-2.56-5.72-5.85-5.72h0Z"/>
        <path class="cls-4" d="M416.97,158.29h-1.42c-3.29,0-5.85,2.5-5.85,5.78v9.04c0,3.29,2.56,5.78,5.85,5.78h1.42c3.29,0,5.85-2.5,5.85-5.78v-9.04c0-3.29-2.56-5.78-5.85-5.78ZM419.22,173.11c0,1.33-.98,2.34-2.28,2.34h-1.33c-1.33,0-2.28-1.04-2.28-2.34v-9.04c0-1.33.98-2.34,2.28-2.34h1.33c1.33,0,2.28,1.04,2.28,2.34v9.04Z"/>
        <polygon class="cls-4" points="454.79 172.38 454.6 171.53 446.73 158.29 443.48 158.29 443.48 178.89 447.18 178.89 447.18 164.8 447.37 165.68 455.24 178.89 458.49 178.89 458.49 158.29 454.79 158.29 454.79 172.38"/>
        <path class="cls-4" d="M482.97,164.26v-.16c0-1.33.98-2.34,2.28-2.34h.89c1.33,0,2.28,1.04,2.28,2.34v1.01l3.6-.35v-.66c0-3.29-2.56-5.78-5.85-5.78h-1.01c-3.29,0-5.85,2.5-5.85,5.78v.16c0,7.71,9.23,4.36,9.23,8.63v.25c0,1.33-.98,2.34-2.28,2.34h-1.17c-1.33,0-2.28-1.04-2.28-2.34v-1.01l-3.6.35v.66c0,3.29,2.56,5.78,5.85,5.78h1.3c3.29,0,5.85-2.5,5.85-5.78v-.25c0-7.46-9.23-4.61-9.23-8.63h0Z"/>
        <path class="cls-4" d="M521.14,158.29h-1.42c-3.29,0-5.85,2.5-5.85,5.78v9.04c0,3.29,2.56,5.78,5.85,5.78h1.42c3.29,0,5.85-2.5,5.85-5.78v-9.04c-.03-3.29-2.56-5.78-5.85-5.78ZM523.35,173.11c0,1.33-.98,2.34-2.28,2.34h-1.33c-1.33,0-2.28-1.04-2.28-2.34v-9.04c0-1.33.98-2.34,2.28-2.34h1.33c1.33,0,2.28,1.04,2.28,2.34v9.04Z"/>
        <path class="cls-4" d="M561.76,165.33v-1.11c0-3.38-2.62-5.94-6.01-5.94h-7.65v20.61h3.7v-7.62h2.4l3.92,7.62h4.08l-4.2-8.03c2.24-.85,3.76-2.94,3.76-5.53h0ZM555.72,167.74h-3.89v-5.91h3.89c1.36,0,2.37,1.07,2.37,2.4v1.07c0,1.39-1.04,2.43-2.37,2.43Z"/>
        <polygon class="cls-4" points="583.17 161.83 588.01 161.83 588.01 178.89 591.74 178.89 591.74 161.83 596.58 161.83 596.58 158.29 583.17 158.29 583.17 161.83"/>
        <rect class="cls-4" x="622.75" y="158.29" width="3.7" height="20.61"/>
        <path class="cls-4" d="M662.29,173.05c0,1.33-.98,2.37-2.31,2.37h-1.33c-1.33,0-2.31-1.04-2.31-2.37v-14.73h-3.67v14.73c0,3.35,2.59,5.85,5.91,5.85h1.45c3.35,0,5.91-2.53,5.91-5.85v-14.73h-3.67v14.73h0Z"/>
        <polygon class="cls-4" points="694.11 174 694.04 174.75 693.98 174 689.46 158.29 684.02 158.29 684.02 178.89 687.75 178.89 687.75 162.87 687.85 163.75 692.24 178.89 695.84 178.89 700.21 163.75 700.33 162.87 700.33 178.89 704.06 178.89 704.06 158.29 698.63 158.29 694.11 174"/>
      </g>
    </g>
  </g>
</svg>