<?xml version="1.0" encoding="UTF-8"?>
<svg id="Layer_1" data-name="Layer 1" xmlns="http://www.w3.org/2000/svg" xmlns:xlink="http://www.w3.org/1999/xlink" viewBox="0 0 984.13 341.54">
  <defs>
    <style>
      .cls-1 {
        fill: url(#linear-gradient-2);
      }

      .cls-2 {
        fill: url(#linear-gradient);
      }

      .cls-3 {
        fill: #0f151f;
      }

      .cls-4 {
        fill: #00a5b2;
      }
    </style>
    <linearGradient id="linear-gradient" x1="34.31" y1="56.89" x2="293.88" y2="286.67" gradientUnits="userSpaceOnUse">
      <stop offset="0" stop-color="#eb0045"/>
      <stop offset=".07" stop-color="#db074c"/>
      <stop offset=".2" stop-color="#b41b5f"/>
      <stop offset=".37" stop-color="#733b7f"/>
      <stop offset=".59" stop-color="#1c66aa"/>
      <stop offset=".66" stop-color="#0075b8"/>
      <stop offset="1" stop-color="#3fc1c9"/>
    </linearGradient>
    <linearGradient id="linear-gradient-2" x1="375.3" y1="242.49" x2="984.13" y2="242.49" xlink:href="#linear-gradient"/>
  </defs>
  <path class="cls-2" d="M254.76,271.81c0-15.15,12.32-27.47,27.47-27.47,6.17,0,11.85,2.07,16.44,5.51,13.58-23.23,21.4-50.24,21.4-79.09,0-42.73-17.1-81.45-44.8-109.75-4.97,4.92-11.79,7.97-19.32,7.97-15.15,0-27.47-12.32-27.47-27.47,0-4.36,1.05-8.46,2.86-12.12-20.62-9.97-43.76-15.56-68.2-15.56-53.05,0-99.91,26.35-128.32,66.64,1.1.81,2.16,1.67,3.15,2.65,5.22,5.18,8.1,12.11,8.1,19.51,0,15.15-12.32,27.47-27.47,27.47-2.35,0-4.61-.33-6.79-.88-3.63,13.24-5.6,27.16-5.6,41.54,0,38.78,14.09,74.24,37.4,101.63,4.85-4.32,11.22-6.96,18.21-6.96,15.15,0,27.47,12.32,27.47,27.47,0,5.17-1.46,9.99-3.96,14.13,22.94,13.13,49.49,20.67,77.81,20.67,38.05,0,72.94-13.55,100.11-36.08-5.22-5-8.49-12.02-8.49-19.81ZM130.17,100.7c0-6.83,5.54-12.37,12.37-12.37h41.22c6.83,0,12.37,5.54,12.37,12.37v8.24c0,6.83-5.54,12.37-12.37,12.37h-41.22c-6.83,0-12.37-5.54-12.37-12.37v-8.24ZM237.35,203.74c0,23.32,0,34.98-7.24,42.22-7.24,7.24-18.9,7.24-42.22,7.24h-49.47c-23.32,0-34.98,0-42.22-7.24-7.24-7.24-7.24-18.9-7.24-42.22v-49.47c0-23.32,0-34.98,7.24-42.22,4.69-4.69,11.24-6.35,21.61-6.93v3.82c0,13.66,11.07,24.73,24.73,24.73h41.22c13.66,0,24.73-11.07,24.73-24.73v-3.82c10.37.58,16.92,2.23,21.61,6.93,7.24,7.24,7.24,18.9,7.24,42.22v49.47ZM183.66,166.26l-31.12,29.04-9.91-9.25c-2.5-2.33-6.41-2.19-8.74.3-2.33,2.5-2.2,6.41.3,8.74l14.13,13.19c2.38,2.22,6.06,2.22,8.44,0l35.33-32.98c2.5-2.33,2.63-6.24.3-8.74-2.33-2.5-6.24-2.63-8.74-.3h0ZM0,102.64c0,8.77,6.19,16.18,14.41,18.1,3.91-11.63,9.13-22.65,15.51-32.88-3.14-2.4-7.06-3.83-11.31-3.83C8.39,84.04,0,92.43,0,102.64ZM18.6,121.24c10.21,0,18.6-8.39,18.6-18.6,0-6.1-2.88-11.4-7.29-14.77-6.38,10.23-11.6,21.25-15.51,32.88,1.35.32,2.75.5,4.2.5ZM18.6,121.24c10.21,0,18.6-8.39,18.6-18.6,0-6.1-2.88-11.4-7.29-14.77-6.38,10.23-11.6,21.25-15.51,32.88,1.35.32,2.75.5,4.2.5ZM239.21,33.51c10.72,5.96,20.69,13.11,29.68,21.32,3.48-3.39,5.66-8.11,5.66-13.3,0-10.44-8.39-18.6-18.6-18.6-7.34,0-13.73,4.35-16.74,10.59ZM237.35,41.52c0,10.21,8.39,18.6,18.6,18.6,5.01,0,9.58-2.03,12.94-5.3-8.99-8.21-18.96-15.36-29.68-21.32-1.18,2.44-1.86,5.15-1.86,8.02ZM237.35,41.52c0,10.21,8.39,18.6,18.6,18.6,5.01,0,9.58-2.03,12.94-5.3-8.99-8.21-18.96-15.36-29.68-21.32-1.18,2.44-1.86,5.15-1.86,8.02ZM294,257.38c-6.88,10.38-14.97,19.88-24.06,28.33,3.29,2.91,7.59,4.71,12.29,4.71,10.21,0,18.6-8.39,18.6-18.6,0-5.89-2.67-11.05-6.84-14.44h0ZM294,257.38c-3.22-2.61-7.32-4.17-11.77-4.17-10.21,0-18.6,8.39-18.6,18.6,0,5.51,2.46,10.48,6.31,13.9,9.09-8.45,17.17-17.95,24.06-28.33h0ZM294,257.38c-3.22-2.61-7.32-4.17-11.77-4.17-10.21,0-18.6,8.39-18.6,18.6,0,5.51,2.46,10.48,6.31,13.9,9.09-8.45,17.17-17.95,24.06-28.33h0ZM77.76,302.41c-10.3-6.7-19.76-14.56-28.2-23.42-3.87,3.42-6.34,8.39-6.34,13.91,0,10.21,8.39,18.6,18.6,18.6,6.74,0,12.67-3.67,15.94-9.09h0ZM77.76,302.41c1.68-2.79,2.67-6.04,2.67-9.51,0-10.44-8.39-18.6-18.6-18.6-4.69,0-8.98,1.78-12.27,4.69,8.44,8.86,17.9,16.73,28.2,23.42h0ZM77.76,302.41c1.68-2.79,2.67-6.04,2.67-9.51,0-10.44-8.39-18.6-18.6-18.6-4.69,0-8.98,1.78-12.27,4.69,8.44,8.86,17.9,16.73,28.2,23.42h0Z"/>
  <g>
    <g>
      <g>
        <path class="cls-3" d="M387.22,36.61h2.59c5.84,0,10.34-4.42,10.34-10.26v-1.83l-6.42-.58v2.42c0,2.34-1.75,4.17-4.09,4.17h-2.34c-2.34,0-4.09-1.83-4.09-4.17V10.26c0-2.34,1.75-4.17,4.09-4.17h2.34c2.34,0,4.09,1.83,4.09,4.17v2.42l6.42-.58v-1.83C400.15,4.42,395.64,0,389.8,0h-2.59c-5.84,0-10.34,4.42-10.34,10.26v16.1c0,5.84,4.5,10.26,10.34,10.26h0Z"/>
        <path class="cls-3" d="M419.74,0h-2.59c-5.84,0-10.34,4.42-10.34,10.26v16.1c0,5.84,4.5,10.26,10.34,10.26h2.59c5.84,0,10.34-4.42,10.34-10.26V10.26C430.09,4.42,425.58,0,419.74,0ZM423.66,26.35c0,2.34-1.75,4.17-4.09,4.17h-2.34c-2.34,0-4.09-1.83-4.09-4.17V10.26c0-2.34,1.75-4.17,4.09-4.17h2.34c2.34,0,4.09,1.83,4.09,4.17v16.1Z"/>
        <polygon class="cls-3" points="443.51 11.59 443.85 13.18 457.77 36.69 463.61 36.69 463.61 0 457.02 0 457.02 25.1 456.69 23.52 442.68 0 436.92 0 436.92 36.69 443.51 36.69 443.51 11.59"/>
        <polygon class="cls-3" points="469.28 36.69 475.95 36.69 475.95 21.52 489.46 21.52 489.46 15.18 475.95 15.18 475.95 6.25 492.72 6.25 492.72 0 469.28 0 469.28 36.69"/>
        <rect class="cls-3" x="498.64" width="6.59" height="36.69"/>
        <path class="cls-3" d="M535.75,26.1v-15.51c0-6-4.67-10.59-10.67-10.59h-13.34v36.69h13.34c6,0,10.67-4.59,10.67-10.59ZM518.32,30.44V6.25h6.59c2.42,0,4.17,1.92,4.17,4.34v15.51c0,2.42-1.75,4.34-4.17,4.34h-6.59Z"/>
        <polygon class="cls-3" points="541.84 36.69 565.27 36.69 565.27 30.44 548.42 30.44 548.42 21.52 561.93 21.52 561.93 15.18 548.42 15.18 548.42 6.25 565.27 6.25 565.27 0 541.84 0 541.84 36.69"/>
        <polygon class="cls-3" points="578.11 11.59 578.45 13.09 592.37 36.61 598.21 36.61 598.21 0 591.62 0 591.62 25.02 591.29 23.52 577.28 0 571.52 0 571.52 36.61 578.11 36.61 578.11 11.59"/>
        <polygon class="cls-3" points="605.13 6.25 613.72 6.25 613.72 36.61 620.31 36.61 620.31 6.25 628.98 6.25 628.98 0 605.13 0 605.13 6.25"/>
        <rect class="cls-3" x="635.91" width="6.59" height="36.61"/>
        <path class="cls-3" d="M660.01,0l-10.17,36.61h7.09l1.92-7.26h11.26l1.92,7.26h7.09l-10.26-36.61h-8.84ZM660.17,23.68l4.17-15.93v-1.42l.17,1.33,4.09,15.93h-8.42v.08Z"/>
        <polygon class="cls-3" points="692.45 0 685.86 0 685.86 36.61 705.96 36.61 705.96 30.36 692.45 30.36 692.45 0"/>
      </g>
      <g>
        <path class="cls-3" d="M389.8,49.17h-2.59c-5.84,0-10.34,4.42-10.34,10.26v16.1c0,5.84,4.5,10.26,10.34,10.26h2.59c5.84,0,10.34-4.42,10.34-10.26v-1.83l-6.42-.58v2.42c0,2.34-1.75,4.17-4.09,4.17h-2.34c-2.34,0-4.09-1.83-4.09-4.17v-16.1c0-2.34,1.75-4.17,4.09-4.17h2.34c2.34,0,4.09,1.83,4.09,4.17v2.42l6.42-.58v-1.83c0-5.84-4.5-10.26-10.34-10.26h0Z"/>
        <path class="cls-3" d="M430.09,75.52v-16.1c0-5.84-4.5-10.26-10.34-10.26h-2.59c-5.84,0-10.34,4.42-10.34,10.26v16.1c0,5.84,4.5,10.26,10.34,10.26h2.59c5.84,0,10.34-4.42,10.34-10.26ZM423.66,75.52c0,2.34-1.75,4.17-4.09,4.17h-2.34c-2.34,0-4.09-1.83-4.09-4.17v-16.1c0-2.34,1.75-4.17,4.09-4.17h2.34c2.34,0,4.09,1.83,4.09,4.17v16.1Z"/>
        <polygon class="cls-3" points="454.69 77.1 454.52 78.44 454.44 77.1 446.35 49.17 436.76 49.17 436.76 85.86 443.34 85.86 443.34 57.26 443.51 58.84 451.35 85.86 457.77 85.86 465.53 58.84 465.78 57.26 465.78 85.86 472.37 85.86 472.37 49.17 462.69 49.17 454.69 77.1"/>
        <path class="cls-3" d="M492.47,49.17h-13.68v36.69h6.59v-12.01h7.01c6,0,10.67-4.59,10.67-10.59v-3.5c0-6-4.59-10.59-10.59-10.59ZM496.55,63.26c0,2.42-1.75,4.34-4.17,4.34h-6.92v-12.18h6.92c2.42,0,4.17,1.92,4.17,4.34v3.5Z"/>
        <path class="cls-3" d="M532.91,75.44v-26.27h-6.5v26.27c0,2.42-1.75,4.25-4.17,4.25h-2.42c-2.42,0-4.17-1.83-4.17-4.25v-26.27h-6.5v26.27c0,5.92,4.59,10.42,10.51,10.42h2.59c6,0,10.67-4.5,10.67-10.42h0Z"/>
        <polygon class="cls-3" points="539.5 55.42 548.17 55.42 548.17 85.86 554.76 85.86 554.76 55.42 563.44 55.42 563.44 49.17 539.5 49.17 539.5 55.42"/>
        <rect class="cls-3" x="569.69" y="49.17" width="6.59" height="36.61"/>
        <polygon class="cls-3" points="589.37 60.76 589.71 62.34 603.72 85.86 609.47 85.86 609.47 49.17 602.88 49.17 602.88 74.27 602.55 72.68 588.62 49.17 582.78 49.17 582.78 85.86 589.37 85.86 589.37 60.76"/>
        <path class="cls-3" d="M636.49,61.26v-1.83c0-5.84-4.5-10.26-10.34-10.26h-2.59c-5.84,0-10.34,4.42-10.34,10.26v16.1c0,5.84,4.5,10.26,10.34,10.26h1.5c2.92,0,5.42-1.25,7.09-3.34l1.83,2.84h2.5v-19.76h-11.68v6.09h5.25v3.84c0,2.34-1.75,4.17-4.09,4.17h-2.34c-2.34,0-4.09-1.83-4.09-4.17v-16.01c0-2.34,1.75-4.17,4.09-4.17h2.34c2.34,0,4.09,1.83,4.09,4.17v2.42l6.42-.58Z"/>
      </g>
      <g>
        <path class="cls-4" d="M384.15,97.78h-1.42c-3.29,0-5.85,2.5-5.85,5.78v9.04c0,3.29,2.56,5.78,5.85,5.78h1.42c3.29,0,5.85-2.5,5.85-5.78v-1.04l-3.6-.35v1.36c0,1.33-.98,2.34-2.28,2.34h-1.33c-1.33,0-2.28-1.04-2.28-2.34v-9.04c0-1.33.98-2.34,2.28-2.34h1.33c1.33,0,2.28,1.04,2.28,2.34v1.36l3.6-.35v-1.04c-.03-3.22-2.56-5.72-5.85-5.72h0Z"/>
        <path class="cls-4" d="M418.87,97.78h-1.42c-3.29,0-5.85,2.5-5.85,5.78v9.04c0,3.29,2.56,5.78,5.85,5.78h1.42c3.29,0,5.85-2.5,5.85-5.78v-9.04c0-3.29-2.56-5.78-5.85-5.78ZM421.11,112.6c0,1.33-.98,2.34-2.28,2.34h-1.33c-1.33,0-2.28-1.04-2.28-2.34v-9.04c0-1.33.98-2.34,2.28-2.34h1.33c1.33,0,2.28,1.04,2.28,2.34v9.04Z"/>
        <polygon class="cls-4" points="456.69 111.87 456.5 111.02 448.63 97.78 445.38 97.78 445.38 118.38 449.07 118.38 449.07 104.29 449.26 105.17 457.13 118.38 460.39 118.38 460.39 97.78 456.69 97.78 456.69 111.87"/>
        <path class="cls-4" d="M484.87,103.75v-.16c0-1.33.98-2.34,2.28-2.34h.89c1.33,0,2.28,1.04,2.28,2.34v1.01l3.6-.35v-.66c0-3.29-2.56-5.78-5.85-5.78h-1.01c-3.29,0-5.85,2.5-5.85,5.78v.16c0,7.71,9.23,4.36,9.23,8.63v.25c0,1.33-.98,2.34-2.28,2.34h-1.17c-1.33,0-2.28-1.04-2.28-2.34v-1.01l-3.6.35v.66c0,3.29,2.56,5.78,5.85,5.78h1.3c3.29,0,5.85-2.5,5.85-5.78v-.25c0-7.46-9.23-4.61-9.23-8.63h0Z"/>
        <path class="cls-4" d="M523.04,97.78h-1.42c-3.29,0-5.85,2.5-5.85,5.78v9.04c0,3.29,2.56,5.78,5.85,5.78h1.42c3.29,0,5.85-2.5,5.85-5.78v-9.04c-.03-3.29-2.56-5.78-5.85-5.78ZM525.25,112.6c0,1.33-.98,2.34-2.28,2.34h-1.33c-1.33,0-2.28-1.04-2.28-2.34v-9.04c0-1.33.98-2.34,2.28-2.34h1.33c1.33,0,2.28,1.04,2.28,2.34v9.04Z"/>
        <path class="cls-4" d="M563.66,104.82v-1.11c0-3.38-2.62-5.94-6.01-5.94h-7.65v20.61h3.7v-7.62h2.4l3.92,7.62h4.08l-4.2-8.03c2.24-.85,3.76-2.94,3.76-5.53h0ZM557.62,107.23h-3.89v-5.91h3.89c1.36,0,2.37,1.07,2.37,2.4v1.07c0,1.39-1.04,2.43-2.37,2.43Z"/>
        <polygon class="cls-4" points="585.07 101.32 589.91 101.32 589.91 118.38 593.64 118.38 593.64 101.32 598.47 101.32 598.47 97.78 585.07 97.78 585.07 101.32"/>
        <rect class="cls-4" x="624.65" y="97.78" width="3.7" height="20.61"/>
        <path class="cls-4" d="M664.19,112.54c0,1.33-.98,2.37-2.31,2.37h-1.33c-1.33,0-2.31-1.04-2.31-2.37v-14.73h-3.67v14.73c0,3.35,2.59,5.85,5.91,5.85h1.45c3.35,0,5.91-2.53,5.91-5.85v-14.73h-3.67v14.73h0Z"/>
        <polygon class="cls-4" points="696 113.48 695.94 114.24 695.88 113.48 691.36 97.78 685.92 97.78 685.92 118.38 689.65 118.38 689.65 102.36 689.74 103.24 694.14 118.38 697.74 118.38 702.1 103.24 702.23 102.36 702.23 118.38 705.96 118.38 705.96 97.78 700.52 97.78 696 113.48"/>
      </g>
    </g>
    <path class="cls-1" d="M403.42,150.21c2.13.83,4.14,2.05,6.04,3.67l-4.31,4.49c-1.5-1.17-2.9-2.02-4.22-2.55-1.31-.53-2.84-.79-4.58-.79-3.24,0-5.89,1.3-7.95,3.88-2.06,2.59-3.09,6.55-3.09,11.89s.82,9.61,2.46,12.07c1.64,2.47,4.14,3.7,7.49,3.7,2.55,0,4.77-.55,6.67-1.64v-10.92h-6.31l-.85-5.95h15.05v20.51c-4.53,2.75-9.35,4.13-14.44,4.13-5.99,0-10.57-1.86-13.74-5.58-3.18-3.72-4.76-9.16-4.76-16.32,0-4.57.86-8.5,2.58-11.8,1.72-3.3,4.03-5.79,6.95-7.49,2.91-1.7,6.15-2.55,9.71-2.55,2.75,0,5.19.41,7.31,1.24h0ZM441.83,163.32c2.65,3.01,3.97,7.15,3.97,12.41,0,3.36-.61,6.32-1.82,8.89-1.22,2.57-2.96,4.56-5.22,5.98-2.27,1.41-4.96,2.12-8.07,2.12-4.73,0-8.43-1.51-11.1-4.52-2.67-3.01-4.01-7.17-4.01-12.47,0-3.36.61-6.31,1.82-8.86,1.21-2.55,2.96-4.53,5.25-5.95,2.29-1.42,4.99-2.12,8.1-2.12,4.73,0,8.42,1.51,11.07,4.52h0ZM423.78,175.72c0,3.8.58,6.6,1.73,8.4,1.15,1.8,2.88,2.7,5.19,2.7s4.03-.91,5.19-2.73c1.15-1.82,1.73-4.61,1.73-8.37s-.58-6.54-1.73-8.34c-1.15-1.8-2.86-2.7-5.13-2.7-4.65,0-6.98,3.68-6.98,11.04ZM478.5,159.71l-10.43,32.1h-9.28l-10.62-32.1h8.43l6.86,25.85,7.04-25.85h8.01ZM509.08,178.15h-20.14c.24,3.12,1.05,5.34,2.43,6.67,1.38,1.34,3.2,2,5.46,2,1.41,0,2.75-.23,4-.7,1.25-.46,2.59-1.18,4.01-2.15l3.21,4.43c-3.56,2.87-7.52,4.31-11.89,4.31-4.89,0-8.67-1.5-11.32-4.49-2.65-2.99-3.97-7.08-3.97-12.26,0-3.28.57-6.22,1.7-8.83,1.13-2.61,2.77-4.65,4.92-6.13,2.14-1.48,4.69-2.22,7.64-2.22,4.49,0,7.97,1.43,10.43,4.28,2.47,2.85,3.7,6.83,3.7,11.92,0,.41-.06,1.46-.18,3.16h0ZM501.56,172.75c0-5.62-2.08-8.43-6.25-8.43-1.9,0-3.39.7-4.46,2.09-1.07,1.4-1.71,3.63-1.91,6.7h12.62v-.36ZM535.29,159.28l-1.33,7.52c-.97-.24-1.92-.36-2.85-.36-1.9,0-3.4.68-4.49,2.03-1.09,1.36-1.96,3.43-2.61,6.22v17.11h-7.77v-32.1h6.73l.73,6.31c.77-2.31,1.88-4.07,3.34-5.31,1.46-1.23,3.13-1.85,5.04-1.85,1.17,0,2.24.14,3.21.42h0ZM563.96,161.38c1.6,1.72,2.4,4.12,2.4,7.19v23.24h-7.77v-22.02c0-1.9-.33-3.24-1-4-.67-.77-1.65-1.15-2.94-1.15s-2.54.42-3.61,1.24c-1.07.83-2.12,2.03-3.12,3.61v22.33h-7.77v-32.1h6.73l.61,4.19c2.63-3.4,5.88-5.1,9.77-5.1,2.87,0,5.1.86,6.7,2.58h0ZM599.69,186.07c.39.59,1,1.04,1.85,1.36l-1.64,5.16c-1.82-.16-3.31-.61-4.46-1.33s-2.03-1.84-2.64-3.34c-1.09,1.62-2.46,2.82-4.1,3.61s-3.47,1.18-5.49,1.18c-3.2,0-5.73-.91-7.58-2.73-1.86-1.82-2.79-4.21-2.79-7.16,0-3.48,1.26-6.14,3.79-7.98,2.53-1.84,6.14-2.76,10.83-2.76h4.01v-1.82c0-2.06-.48-3.51-1.43-4.34-.95-.83-2.48-1.24-4.58-1.24-2.35,0-5.18.57-8.49,1.7l-1.82-5.28c4-1.54,7.89-2.31,11.65-2.31,8.21,0,12.32,3.68,12.32,11.04v13.47c0,1.25.19,2.18.58,2.76h0ZM591.47,183.13v-6.49h-3.22c-5.01,0-7.52,1.86-7.52,5.58,0,1.54.39,2.73,1.15,3.58.77.85,1.9,1.27,3.4,1.27,2.63,0,4.69-1.31,6.19-3.94ZM632.33,161.38c1.6,1.72,2.4,4.12,2.4,7.19v23.24h-7.77v-22.02c0-1.9-.33-3.24-1-4-.67-.77-1.65-1.15-2.94-1.15s-2.54.42-3.61,1.24c-1.07.83-2.12,2.03-3.12,3.61v22.33h-7.77v-32.1h6.73l.61,4.19c2.63-3.4,5.88-5.1,9.77-5.1,2.87,0,5.1.86,6.7,2.58h0ZM662.37,159.71c1.68.61,3.27,1.56,4.76,2.85l-3.46,4.67c-1.09-.81-2.14-1.4-3.15-1.76-1.01-.36-2.12-.55-3.34-.55-4.81,0-7.22,3.66-7.22,10.98,0,3.72.63,6.4,1.88,8.04,1.25,1.64,3.03,2.46,5.34,2.46,1.13,0,2.17-.18,3.12-.55.95-.37,2.07-.95,3.37-1.76l3.46,4.91c-3.04,2.47-6.49,3.7-10.38,3.7-3.07,0-5.74-.68-8.01-2.03-2.26-1.35-4-3.29-5.22-5.79-1.21-2.51-1.82-5.46-1.82-8.86s.61-6.4,1.82-9.01,2.95-4.63,5.22-6.07c2.27-1.44,4.92-2.15,7.95-2.15,2.1,0,4,.3,5.67.91h0ZM697.7,178.15h-20.14c.24,3.12,1.05,5.34,2.43,6.67,1.38,1.34,3.2,2,5.46,2,1.41,0,2.75-.23,4-.7,1.25-.46,2.59-1.18,4.01-2.15l3.21,4.43c-3.56,2.87-7.52,4.31-11.89,4.31-4.89,0-8.67-1.5-11.32-4.49-2.65-2.99-3.97-7.08-3.97-12.26,0-3.28.57-6.22,1.7-8.83,1.13-2.61,2.77-4.65,4.92-6.13,2.14-1.48,4.69-2.22,7.64-2.22,4.49,0,7.97,1.43,10.43,4.28s3.7,6.83,3.7,11.92c0,.41-.06,1.46-.18,3.16h0ZM690.18,172.75c0-5.62-2.08-8.43-6.25-8.43-1.9,0-3.39.7-4.46,2.09-1.07,1.4-1.71,3.63-1.91,6.7h12.62v-.36ZM733.38,175h-5.09v16.81h-8.01v-41.92h12.5c11.08,0,16.62,4.11,16.62,12.32,0,2.79-.69,5.1-2.06,6.92-1.38,1.82-3.52,3.3-6.43,4.43l10.98,18.26h-9.22l-9.28-16.81h0ZM728.29,169.23h4.97c2.55,0,4.48-.56,5.79-1.67,1.31-1.11,1.97-2.9,1.97-5.37,0-2.26-.68-3.91-2.03-4.94-1.35-1.03-3.49-1.55-6.4-1.55h-4.31v13.53h0ZM764.47,144.81c.91.91,1.37,2.03,1.37,3.37s-.46,2.45-1.37,3.34c-.91.89-2.09,1.34-3.55,1.34s-2.58-.45-3.49-1.34c-.91-.89-1.37-2-1.37-3.34s.46-2.46,1.37-3.37c.91-.91,2.07-1.37,3.49-1.37s2.64.45,3.55,1.37ZM764.87,159.71v32.1h-7.77v-32.1h7.77ZM795.75,162.62l-3.03,4.55c-2.75-1.74-5.44-2.61-8.07-2.61-1.54,0-2.73.29-3.58.88s-1.27,1.36-1.27,2.34c0,.73.18,1.34.55,1.82s1.02.94,1.97,1.36,2.36.9,4.22,1.43c3.48.93,6.06,2.16,7.73,3.7,1.68,1.54,2.52,3.68,2.52,6.43,0,3.2-1.29,5.69-3.88,7.49-2.59,1.8-5.81,2.7-9.65,2.7-2.63,0-5.03-.4-7.19-1.21s-4.03-1.92-5.61-3.34l3.88-4.37c2.79,2.1,5.7,3.16,8.74,3.16,1.74,0,3.12-.34,4.16-1.03s1.55-1.64,1.55-2.85c0-.93-.19-1.67-.58-2.22-.39-.55-1.07-1.03-2.06-1.46-.99-.42-2.54-.94-4.64-1.55-3.28-.89-5.68-2.13-7.22-3.73-1.54-1.6-2.31-3.59-2.31-5.98,0-1.78.52-3.38,1.55-4.79,1.03-1.42,2.49-2.53,4.37-3.34,1.88-.81,4.03-1.21,6.46-1.21,4.33,0,8.13,1.27,11.41,3.82h0ZM810.86,146v45.81h-7.77v-44.96s7.77-.85,7.77-.85ZM830.09,159.71l-10.68,14.14,11.71,17.96h-8.92l-11.04-17.53,10.74-14.56h8.19ZM399.36,218.44c1.84.81,3.26,1.93,4.25,3.37.99,1.44,1.49,3.06,1.49,4.88,0,2.39-.72,4.46-2.15,6.22-1.44,1.76-3.47,3.47-6.1,5.13l9.34,8.8c1.33-2.91,2.41-6.07,3.22-9.46l6.73,2c-1.5,4.53-3.34,8.39-5.52,11.59l7.1,6.43-6.25,3.58-5.28-5.1c-3.64,3.4-8.09,5.1-13.35,5.1-2.83,0-5.33-.48-7.49-1.43-2.16-.95-3.85-2.3-5.07-4.06s-1.82-3.79-1.82-6.1c0-2.47.69-4.62,2.06-6.46,1.38-1.84,3.48-3.67,6.31-5.49-2.1-2.06-3.61-3.84-4.52-5.34-.91-1.5-1.37-3.2-1.37-5.1,0-1.78.46-3.41,1.37-4.88.91-1.48,2.26-2.66,4.06-3.55,1.8-.89,3.99-1.33,6.58-1.33,2.43,0,4.56.41,6.4,1.21h0ZM387.71,245.01c-.75,1.17-1.12,2.51-1.12,4.01,0,1.9.68,3.41,2.03,4.52,1.36,1.11,3.17,1.67,5.43,1.67,1.58,0,3-.27,4.28-.82s2.52-1.34,3.73-2.4l-10.8-10.37c-1.62,1.09-2.8,2.22-3.55,3.4h0ZM389.68,223.72c-.81.81-1.21,1.9-1.21,3.28,0,1.21.31,2.32.94,3.31.63.99,1.67,2.19,3.12,3.61,1.7-1.09,2.97-2.17,3.82-3.25s1.27-2.3,1.27-3.67-.41-2.47-1.24-3.28c-.83-.81-1.95-1.22-3.37-1.22s-2.53.41-3.34,1.22ZM462.3,218.32c1.9.73,3.76,1.84,5.58,3.34l-4.06,4.73c-2.47-1.98-5.06-2.97-7.77-2.97-3.12,0-5.61,1.25-7.49,3.76-1.88,2.51-2.82,6.45-2.82,11.83s.93,9.16,2.79,11.71c1.86,2.55,4.37,3.82,7.52,3.82,1.66,0,3.13-.29,4.43-.88,1.3-.59,2.67-1.43,4.13-2.52l3.76,4.73c-1.41,1.46-3.2,2.67-5.37,3.64s-4.58,1.46-7.25,1.46c-3.64,0-6.86-.85-9.65-2.55-2.79-1.7-4.96-4.2-6.49-7.49-1.54-3.29-2.3-7.27-2.3-11.92s.8-8.49,2.39-11.77c1.6-3.28,3.78-5.76,6.55-7.46,2.77-1.7,5.9-2.55,9.37-2.55,2.55,0,4.77.36,6.67,1.09h0ZM496.79,231.57c2.65,3.01,3.97,7.15,3.97,12.41,0,3.36-.61,6.32-1.82,8.89-1.21,2.57-2.95,4.56-5.22,5.98-2.26,1.41-4.95,2.12-8.07,2.12-4.73,0-8.43-1.51-11.1-4.52s-4-7.17-4-12.47c0-3.36.61-6.31,1.82-8.86s2.96-4.53,5.25-5.95c2.29-1.41,4.98-2.12,8.1-2.12,4.73,0,8.42,1.51,11.07,4.52ZM478.74,243.98c0,3.8.57,6.6,1.73,8.4,1.15,1.8,2.88,2.7,5.19,2.7s4.03-.91,5.19-2.73c1.15-1.82,1.73-4.61,1.73-8.37s-.57-6.54-1.73-8.34c-1.15-1.8-2.86-2.7-5.13-2.7-4.65,0-6.98,3.68-6.98,11.04ZM548.27,229.69c1.54,1.76,2.3,4.14,2.3,7.13v23.24h-7.76v-22.02c0-3.44-1.17-5.16-3.52-5.16-1.25,0-2.34.39-3.25,1.18s-1.85,2.01-2.82,3.67v22.33h-7.77v-22.02c0-3.44-1.17-5.16-3.52-5.16-1.3,0-2.4.39-3.31,1.18s-1.85,2.01-2.82,3.67v22.33h-7.77v-32.1h6.73l.61,4.19c2.43-3.4,5.52-5.1,9.28-5.1,1.86,0,3.47.48,4.82,1.43,1.36.95,2.34,2.27,2.94,3.97,1.3-1.74,2.72-3.07,4.28-4.01,1.56-.93,3.35-1.4,5.37-1.4,2.59,0,4.65.88,6.19,2.64ZM585.22,231.48c1.94,2.95,2.91,7.1,2.91,12.44,0,3.32-.5,6.26-1.49,8.83-.99,2.57-2.45,4.58-4.37,6.04-1.92,1.46-4.2,2.18-6.83,2.18-3.4,0-6.09-1.17-8.07-3.52v14.98l-7.77.85v-45.32h6.8l.42,3.94c1.25-1.62,2.69-2.83,4.31-3.64,1.62-.81,3.32-1.21,5.09-1.21,4.04,0,7.04,1.48,8.98,4.43h0ZM580.01,243.98c0-3.92-.51-6.75-1.52-8.49-1.01-1.74-2.53-2.61-4.55-2.61-1.3,0-2.51.39-3.64,1.18-1.13.79-2.1,1.85-2.91,3.19v14.44c1.5,2.22,3.46,3.34,5.89,3.34,4.49,0,6.73-3.68,6.73-11.04h0ZM597.57,258.81c-1.4-1.43-2.09-3.47-2.09-6.1v-37.61l7.77-.85v38.22c0,1.5.61,2.24,1.82,2.24.61,0,1.22-.1,1.82-.3l1.64,5.46c-1.62.73-3.34,1.09-5.16,1.09-2.47,0-4.4-.72-5.79-2.15ZM621.05,213.07c.91.91,1.36,2.03,1.36,3.37s-.45,2.45-1.36,3.34-2.09,1.33-3.55,1.33-2.58-.44-3.49-1.33-1.37-2-1.37-3.34.46-2.46,1.37-3.37,2.07-1.37,3.49-1.37,2.64.46,3.55,1.37ZM621.44,227.96v32.1h-7.77v-32.1h7.77ZM655.08,254.32c.38.59,1,1.04,1.85,1.36l-1.64,5.16c-1.82-.16-3.31-.61-4.46-1.33s-2.03-1.84-2.64-3.34c-1.09,1.62-2.46,2.82-4.1,3.61-1.64.79-3.47,1.18-5.49,1.18-3.2,0-5.72-.91-7.58-2.73s-2.79-4.21-2.79-7.16c0-3.48,1.26-6.14,3.79-7.98,2.53-1.84,6.14-2.76,10.83-2.76h4v-1.82c0-2.06-.48-3.51-1.42-4.34-.95-.83-2.48-1.24-4.58-1.24-2.35,0-5.18.57-8.49,1.7l-1.82-5.28c4.01-1.54,7.89-2.3,11.65-2.3,8.21,0,12.32,3.68,12.32,11.04v13.47c0,1.25.19,2.17.58,2.76ZM646.86,251.38v-6.49h-3.21c-5.02,0-7.52,1.86-7.52,5.58,0,1.54.38,2.73,1.15,3.58s1.9,1.27,3.4,1.27c2.63,0,4.69-1.31,6.19-3.94h0ZM687.73,229.63c1.6,1.72,2.39,4.11,2.39,7.19v23.24h-7.76v-22.02c0-1.9-.33-3.23-1-4s-1.65-1.15-2.94-1.15-2.54.41-3.61,1.24c-1.07.83-2.11,2.03-3.12,3.61v22.33h-7.77v-32.1h6.73l.61,4.19c2.63-3.4,5.89-5.1,9.77-5.1,2.87,0,5.11.86,6.71,2.58h0ZM717.76,227.96c1.68.61,3.27,1.56,4.76,2.85l-3.46,4.67c-1.09-.81-2.14-1.4-3.15-1.76-1.01-.36-2.13-.55-3.34-.55-4.81,0-7.22,3.66-7.22,10.98,0,3.72.63,6.4,1.88,8.04,1.25,1.64,3.03,2.46,5.34,2.46,1.13,0,2.17-.18,3.12-.55s2.07-.95,3.37-1.76l3.46,4.92c-3.03,2.47-6.49,3.7-10.37,3.7-3.07,0-5.74-.68-8.01-2.03-2.27-1.35-4-3.29-5.22-5.79-1.21-2.51-1.82-5.46-1.82-8.86s.61-6.4,1.82-9.01c1.22-2.61,2.95-4.63,5.22-6.07,2.27-1.44,4.92-2.15,7.95-2.15,2.1,0,3.99.3,5.67.91h0ZM753.1,246.41h-20.14c.24,3.12,1.05,5.34,2.43,6.67,1.37,1.33,3.19,2,5.46,2,1.42,0,2.75-.23,4.01-.7,1.25-.47,2.59-1.18,4-2.15l3.22,4.43c-3.56,2.87-7.52,4.31-11.89,4.31-4.89,0-8.67-1.49-11.32-4.49-2.65-2.99-3.97-7.08-3.97-12.26,0-3.28.57-6.22,1.7-8.83,1.13-2.61,2.77-4.65,4.91-6.13s4.69-2.22,7.64-2.22c4.49,0,7.97,1.43,10.43,4.28,2.47,2.85,3.7,6.82,3.7,11.92,0,.41-.06,1.46-.18,3.15ZM745.58,241.01c0-5.62-2.08-8.43-6.25-8.43-1.9,0-3.39.7-4.46,2.09-1.07,1.4-1.71,3.63-1.91,6.71h12.62v-.36ZM398.96,286.75c2.19.85,4.23,2.14,6.13,3.88l-3.94,4.55c-1.5-1.25-3-2.16-4.52-2.73-1.52-.57-3.14-.85-4.88-.85-1.94,0-3.51.43-4.7,1.3-1.19.87-1.79,2.09-1.79,3.67,0,1.05.23,1.92.7,2.61.47.69,1.31,1.34,2.52,1.94s3.01,1.27,5.4,2c4.12,1.3,7.23,2.9,9.31,4.82,2.08,1.92,3.12,4.72,3.12,8.4,0,2.51-.64,4.73-1.91,6.67-1.27,1.94-3.1,3.46-5.49,4.55-2.39,1.09-5.22,1.64-8.49,1.64s-6.06-.51-8.58-1.55c-2.53-1.03-4.7-2.44-6.52-4.22l4.13-4.61c1.62,1.38,3.29,2.42,5.03,3.12s3.66,1.06,5.76,1.06c2.3,0,4.17-.55,5.58-1.64,1.41-1.09,2.12-2.63,2.12-4.61,0-1.22-.24-2.22-.73-3s-1.31-1.5-2.49-2.13c-1.17-.63-2.87-1.28-5.1-1.97-4.45-1.38-7.66-3.04-9.65-4.98-1.98-1.94-2.97-4.49-2.97-7.64,0-2.3.61-4.33,1.82-6.07,1.21-1.74,2.9-3.09,5.07-4.06s4.62-1.46,7.37-1.46c2.95,0,5.52.42,7.71,1.27h0ZM438.52,299.74c1.94,2.95,2.91,7.1,2.91,12.44,0,3.32-.49,6.26-1.48,8.83-.99,2.57-2.45,4.58-4.37,6.04-1.92,1.46-4.2,2.18-6.82,2.18-3.4,0-6.09-1.17-8.07-3.52v14.98l-7.77.85v-45.32h6.8l.42,3.94c1.25-1.62,2.69-2.83,4.31-3.64,1.62-.81,3.32-1.21,5.1-1.21,4.04,0,7.04,1.48,8.98,4.43ZM433.3,312.24c0-3.92-.5-6.75-1.52-8.49s-2.53-2.61-4.55-2.61c-1.3,0-2.51.39-3.64,1.18s-2.1,1.85-2.91,3.19v14.44c1.49,2.22,3.46,3.34,5.88,3.34,4.49,0,6.73-3.68,6.73-11.04h0ZM475.22,314.66h-20.14c.24,3.12,1.05,5.34,2.43,6.67s3.2,2,5.46,2c1.41,0,2.75-.23,4-.7,1.25-.47,2.59-1.18,4.01-2.15l3.21,4.43c-3.56,2.87-7.52,4.31-11.89,4.31-4.89,0-8.67-1.49-11.32-4.49-2.65-2.99-3.97-7.08-3.97-12.26,0-3.28.57-6.22,1.7-8.83,1.13-2.61,2.77-4.65,4.92-6.13,2.14-1.48,4.69-2.22,7.64-2.22,4.49,0,7.97,1.43,10.43,4.28,2.47,2.85,3.7,6.82,3.7,11.92,0,.41-.06,1.46-.18,3.15h0ZM467.7,309.26c0-5.62-2.08-8.43-6.25-8.43-1.9,0-3.39.7-4.46,2.09-1.07,1.4-1.71,3.63-1.91,6.71h12.62v-.36ZM500.98,296.22c1.68.61,3.27,1.56,4.76,2.85l-3.46,4.67c-1.09-.81-2.14-1.4-3.15-1.76-1.01-.36-2.12-.55-3.34-.55-4.81,0-7.22,3.66-7.22,10.98,0,3.72.63,6.4,1.88,8.04,1.25,1.64,3.03,2.46,5.34,2.46,1.13,0,2.17-.18,3.12-.55s2.07-.95,3.37-1.76l3.46,4.92c-3.04,2.47-6.49,3.7-10.38,3.7-3.07,0-5.74-.68-8.01-2.03-2.26-1.35-4-3.29-5.22-5.79-1.21-2.51-1.82-5.46-1.82-8.86s.61-6.4,1.82-9.01c1.21-2.61,2.95-4.63,5.22-6.07,2.27-1.44,4.92-2.15,7.95-2.15,2.1,0,4,.3,5.67.91h0ZM518.76,281.32c.91.91,1.36,2.03,1.36,3.37s-.45,2.45-1.36,3.34c-.91.89-2.09,1.33-3.55,1.33s-2.58-.44-3.49-1.33c-.91-.89-1.37-2-1.37-3.34s.46-2.46,1.37-3.37,2.07-1.37,3.49-1.37,2.64.46,3.55,1.37ZM519.15,296.22v32.1h-7.77v-32.1h7.77ZM552.79,322.58c.38.59,1,1.04,1.85,1.36l-1.64,5.16c-1.82-.16-3.31-.61-4.46-1.33s-2.03-1.84-2.64-3.34c-1.09,1.62-2.46,2.82-4.1,3.61-1.64.79-3.47,1.18-5.49,1.18-3.2,0-5.72-.91-7.58-2.73s-2.79-4.21-2.79-7.16c0-3.48,1.26-6.14,3.79-7.98,2.53-1.84,6.14-2.76,10.83-2.76h4v-1.82c0-2.06-.48-3.51-1.42-4.34-.95-.83-2.48-1.24-4.58-1.24-2.35,0-5.18.57-8.49,1.7l-1.82-5.28c4.01-1.54,7.89-2.3,11.65-2.3,8.21,0,12.32,3.68,12.32,11.04v13.47c0,1.25.19,2.17.58,2.76h0ZM544.57,319.64v-6.49h-3.21c-5.02,0-7.52,1.86-7.52,5.58,0,1.54.38,2.73,1.15,3.58s1.9,1.27,3.4,1.27c2.63,0,4.69-1.31,6.19-3.94h0ZM562.8,327.07c-1.4-1.43-2.09-3.47-2.09-6.1v-37.61l7.77-.85v38.22c0,1.5.61,2.24,1.82,2.24.61,0,1.22-.1,1.82-.3l1.64,5.46c-1.62.73-3.34,1.09-5.16,1.09-2.47,0-4.4-.72-5.79-2.15ZM602.33,286.39v41.92h-8.01v-41.92h8.01ZM635.73,297.89c1.6,1.72,2.39,4.11,2.39,7.19v23.24h-7.76v-22.02c0-1.9-.33-3.23-1-4s-1.65-1.15-2.94-1.15-2.54.41-3.61,1.24c-1.07.83-2.11,2.03-3.12,3.61v22.33h-7.77v-32.1h6.73l.61,4.19c2.63-3.4,5.89-5.1,9.77-5.1,2.87,0,5.11.86,6.71,2.58h0ZM665.55,326.8c-1.13.81-2.4,1.42-3.79,1.82-1.4.4-2.82.61-4.28.61-3.16-.04-5.55-.94-7.19-2.7-1.64-1.76-2.46-4.36-2.46-7.8v-16.93h-5.03v-5.58h5.03v-7.1l7.77-.91v8.01h7.46l-.79,5.58h-6.67v16.75c0,1.58.27,2.71.82,3.4.55.69,1.4,1.03,2.58,1.03s2.45-.38,3.82-1.15l2.73,4.98h0ZM695.04,314.66h-20.14c.24,3.12,1.05,5.34,2.43,6.67,1.37,1.33,3.2,2,5.46,2,1.42,0,2.75-.23,4.01-.7s2.59-1.18,4-2.15l3.22,4.43c-3.56,2.87-7.52,4.31-11.89,4.31-4.89,0-8.67-1.49-11.31-4.49-2.65-2.99-3.97-7.08-3.97-12.26,0-3.28.57-6.22,1.7-8.83,1.13-2.61,2.77-4.65,4.91-6.13,2.14-1.48,4.69-2.22,7.64-2.22,4.49,0,7.97,1.43,10.44,4.28,2.46,2.85,3.7,6.82,3.7,11.92,0,.41-.06,1.46-.18,3.15h0ZM687.51,309.26c0-5.62-2.08-8.43-6.25-8.43-1.9,0-3.39.7-4.46,2.09-1.07,1.4-1.71,3.63-1.91,6.71h12.62v-.36h0ZM721.25,295.79l-1.33,7.52c-.97-.24-1.92-.36-2.85-.36-1.9,0-3.4.68-4.49,2.03-1.09,1.35-1.96,3.43-2.61,6.22v17.11h-7.77v-32.1h6.73l.73,6.31c.77-2.3,1.88-4.08,3.34-5.31,1.46-1.23,3.13-1.85,5.03-1.85,1.17,0,2.25.14,3.22.42h0ZM750.43,314.66h-20.14c.24,3.12,1.05,5.34,2.43,6.67,1.37,1.33,3.19,2,5.46,2,1.42,0,2.75-.23,4.01-.7,1.25-.47,2.59-1.18,4-2.15l3.22,4.43c-3.56,2.87-7.52,4.31-11.89,4.31-4.89,0-8.67-1.49-11.32-4.49s-3.97-7.08-3.97-12.26c0-3.28.57-6.22,1.7-8.83,1.13-2.61,2.77-4.65,4.91-6.13,2.14-1.48,4.69-2.22,7.64-2.22,4.49,0,7.97,1.43,10.43,4.28,2.47,2.85,3.7,6.82,3.7,11.92,0,.41-.06,1.46-.18,3.15h0ZM742.91,309.26c0-5.62-2.08-8.43-6.25-8.43-1.9,0-3.39.7-4.46,2.09-1.07,1.4-1.71,3.63-1.91,6.71h12.62v-.36ZM779.13,299.13l-3.03,4.55c-2.75-1.74-5.44-2.61-8.07-2.61-1.54,0-2.73.29-3.58.88-.85.59-1.27,1.37-1.27,2.34,0,.73.18,1.33.55,1.82s1.02.94,1.97,1.37,2.36.9,4.22,1.43c3.48.93,6.06,2.16,7.73,3.7,1.68,1.54,2.52,3.68,2.52,6.43,0,3.2-1.29,5.69-3.88,7.49-2.59,1.8-5.81,2.7-9.65,2.7-2.63,0-5.03-.41-7.19-1.21s-4.03-1.92-5.61-3.34l3.88-4.37c2.79,2.1,5.7,3.15,8.74,3.15,1.74,0,3.12-.34,4.16-1.03,1.03-.69,1.55-1.64,1.55-2.85,0-.93-.19-1.67-.58-2.22-.39-.55-1.07-1.03-2.06-1.46-.99-.42-2.54-.94-4.64-1.55-3.28-.89-5.68-2.13-7.22-3.73-1.54-1.6-2.31-3.59-2.31-5.98,0-1.78.52-3.38,1.55-4.79,1.03-1.42,2.49-2.53,4.37-3.34,1.88-.81,4.03-1.21,6.46-1.21,4.33,0,8.13,1.27,11.41,3.82h0ZM804.85,326.8c-1.13.81-2.4,1.42-3.79,1.82s-2.82.61-4.28.61c-3.16-.04-5.55-.94-7.19-2.7-1.64-1.76-2.46-4.36-2.46-7.8v-16.93h-5.04v-5.58h5.04v-7.1l7.77-.91v8.01h7.46l-.79,5.58h-6.67v16.75c0,1.58.27,2.71.82,3.4.55.69,1.4,1.03,2.58,1.03s2.45-.38,3.82-1.15l2.73,4.98h0ZM848.87,286.72c2.12.83,4.13,2.05,6.04,3.67l-4.31,4.49c-1.5-1.17-2.9-2.02-4.22-2.55-1.31-.53-2.84-.79-4.58-.79-3.24,0-5.89,1.29-7.95,3.88-2.06,2.59-3.1,6.55-3.1,11.89s.82,9.61,2.46,12.07,4.14,3.7,7.49,3.7c2.55,0,4.77-.55,6.67-1.64v-10.92h-6.31l-.85-5.95h15.05v20.51c-4.53,2.75-9.34,4.12-14.44,4.12-5.99,0-10.57-1.86-13.74-5.58-3.18-3.72-4.76-9.16-4.76-16.32,0-4.57.86-8.5,2.58-11.8s4.03-5.8,6.95-7.49c2.91-1.7,6.15-2.55,9.71-2.55,2.75,0,5.19.41,7.31,1.24h0ZM882.15,295.79l-1.33,7.52c-.97-.24-1.92-.36-2.85-.36-1.9,0-3.4.68-4.49,2.03-1.09,1.35-1.96,3.43-2.61,6.22v17.11h-7.77v-32.1h6.73l.73,6.31c.77-2.3,1.88-4.08,3.34-5.31,1.46-1.23,3.13-1.85,5.03-1.85,1.17,0,2.25.14,3.22.42h0ZM909.36,299.83c2.65,3.01,3.97,7.15,3.97,12.41,0,3.36-.61,6.32-1.82,8.89s-2.95,4.56-5.22,5.98c-2.27,1.41-4.95,2.12-8.07,2.12-4.73,0-8.43-1.51-11.1-4.52-2.67-3.01-4.01-7.17-4.01-12.47,0-3.36.61-6.31,1.82-8.86,1.21-2.55,2.96-4.53,5.25-5.95,2.28-1.41,4.98-2.12,8.1-2.12,4.73,0,8.42,1.51,11.07,4.52h0ZM891.31,312.24c0,3.8.58,6.6,1.73,8.4,1.15,1.8,2.88,2.7,5.19,2.7s4.03-.91,5.19-2.73c1.15-1.82,1.73-4.61,1.73-8.37s-.58-6.54-1.73-8.34-2.86-2.7-5.13-2.7c-4.65,0-6.98,3.68-6.98,11.04h0ZM946.28,328.31h-6.73l-.42-4.49c-1.17,1.82-2.56,3.18-4.16,4.07-1.6.89-3.49,1.33-5.67,1.33-2.87,0-5.09-.88-6.65-2.64-1.56-1.76-2.33-4.19-2.33-7.31v-23.06h7.76v22.09c0,1.82.31,3.12.94,3.88.63.77,1.63,1.15,3,1.15,2.47,0,4.63-1.52,6.49-4.55v-22.57h7.77v32.1h0ZM981.22,299.74c1.94,2.95,2.91,7.1,2.91,12.44,0,3.32-.49,6.26-1.49,8.83-.99,2.57-2.45,4.58-4.37,6.04-1.92,1.46-4.2,2.18-6.83,2.18-3.4,0-6.09-1.17-8.07-3.52v14.98l-7.77.85v-45.32h6.79l.42,3.94c1.25-1.62,2.69-2.83,4.31-3.64,1.62-.81,3.32-1.21,5.1-1.21,4.04,0,7.04,1.48,8.98,4.43ZM976,312.24c0-3.92-.51-6.75-1.52-8.49-1.01-1.74-2.53-2.61-4.55-2.61-1.29,0-2.51.39-3.64,1.18-1.13.79-2.1,1.85-2.91,3.19v14.44c1.49,2.22,3.46,3.34,5.88,3.34,4.49,0,6.73-3.68,6.73-11.04Z"/>
  </g>
</svg>