<?xml version="1.0" encoding="UTF-8"?>
<svg id="Layer_1" data-name="Layer 1" xmlns="http://www.w3.org/2000/svg" xmlns:xlink="http://www.w3.org/1999/xlink" viewBox="0 0 985.77 313.86">
  <defs>
    <style>
      .cls-1 {
        fill: url(#linear-gradient-2);
      }

      .cls-2 {
        fill: url(#linear-gradient);
      }

      .cls-3 {
        fill: #0f151f;
      }

      .cls-4 {
        fill: #00a5b2;
      }
    </style>
    <linearGradient id="linear-gradient" x1="34.31" y1="43.05" x2="293.88" y2="272.83" gradientUnits="userSpaceOnUse">
      <stop offset="0" stop-color="#eb0045"/>
      <stop offset=".07" stop-color="#db074c"/>
      <stop offset=".2" stop-color="#b41b5f"/>
      <stop offset=".37" stop-color="#733b7f"/>
      <stop offset=".59" stop-color="#1c66aa"/>
      <stop offset=".66" stop-color="#0075b8"/>
      <stop offset="1" stop-color="#3fc1c9"/>
    </linearGradient>
    <linearGradient id="linear-gradient-2" x1="371.9" y1="228.24" x2="972.11" y2="228.24" xlink:href="#linear-gradient"/>
  </defs>
  <path class="cls-2" d="M126.35,132.8h49.47c3.22,0,5.82-2.6,5.82-5.82s-2.6-5.82-5.82-5.82h-49.47c-3.22,0-5.82,2.6-5.82,5.82s2.6,5.82,5.82,5.82ZM213.64,168.87c-1.56.89-1.06.51-10.35,14.43l-3.88-2.59c-2.68-1.78-6.29-1.06-8.07,1.61-1.78,2.68-1.06,6.29,1.61,8.07l8.73,5.82c2.67,1.78,6.28,1.07,8.07-1.61,4.97-7.46,2.33-3.5,11.64-17.46,3.41-5.12-2.45-11.33-7.75-8.27ZM155.45,144.44h-29.1c-3.22,0-5.82,2.6-5.82,5.82s2.6,5.82,5.82,5.82h29.1c3.22,0,5.82-2.6,5.82-5.82s-2.6-5.82-5.82-5.82ZM282.23,230.51c6.17,0,11.85,2.07,16.44,5.51,13.58-23.23,21.4-50.24,21.4-79.09,0-42.73-17.1-81.45-44.8-109.75-4.97,4.92-11.79,7.97-19.32,7.97-15.15,0-27.47-12.32-27.47-27.47,0-4.36,1.05-8.46,2.86-12.12C210.72,5.59,187.58,0,163.14,0,110.1,0,63.23,26.35,34.82,66.64c1.1.81,2.16,1.67,3.15,2.65,5.22,5.18,8.1,12.11,8.1,19.51,0,15.15-12.32,27.47-27.47,27.47-2.35,0-4.61-.33-6.79-.88-3.63,13.24-5.6,27.16-5.6,41.54,0,38.78,14.09,74.24,37.4,101.63,4.85-4.32,11.22-6.96,18.21-6.96,15.15,0,27.47,12.32,27.47,27.47,0,5.17-1.46,9.99-3.96,14.13,22.94,13.13,49.49,20.67,77.81,20.67,38.05,0,72.94-13.55,100.11-36.08-5.22-5-8.49-12.02-8.49-19.81,0-15.15,12.32-27.47,27.47-27.47h0ZM170,228.83h-65.93c-6.97,0-12.64-5.67-12.64-12.64V81.42c0-6.97,5.67-12.64,12.64-12.64h102.76c6.97,0,12.64,5.67,12.64,12.64v58.78c-37.84-10.51-68.86,30.58-49.38,63.98-.13,1.15-.09-.4-.09,24.65h0ZM234.01,249.2c0,4.47-4.85,7.27-8.71,5.05l-17.48-9.99-17.48,9.99c-3.88,2.22-8.71-.59-8.71-5.05v-32.03c15.53,11.68,36.87,11.67,52.38,0v32.03h0ZM207.82,214.28c-17.65,0-32.01-14.36-32.01-32.01s14.36-32.01,32.01-32.01,32.01,14.36,32.01,32.01-14.36,32.01-32.01,32.01h0ZM126.35,109.52h49.47c3.22,0,5.82-2.6,5.82-5.82s-2.6-5.82-5.82-5.82h-49.47c-3.22,0-5.82,2.6-5.82,5.82s2.6,5.82,5.82,5.82ZM18.6,70.2c-10.21,0-18.6,8.39-18.6,18.6,0,8.77,6.19,16.18,14.41,18.1,3.91-11.63,9.13-22.65,15.51-32.88-3.14-2.4-7.06-3.83-11.31-3.83ZM37.21,88.8c0-6.1-2.88-11.4-7.29-14.77-6.38,10.23-11.6,21.25-15.51,32.88,1.35.32,2.75.5,4.2.5,10.21,0,18.6-8.39,18.6-18.6ZM37.21,88.8c0-6.1-2.88-11.4-7.29-14.77-6.38,10.23-11.6,21.25-15.51,32.88,1.35.32,2.75.5,4.2.5,10.21,0,18.6-8.39,18.6-18.6ZM274.55,27.68c0-10.44-8.39-18.6-18.6-18.6-7.34,0-13.73,4.35-16.74,10.59,10.72,5.96,20.69,13.11,29.68,21.32,3.48-3.39,5.66-8.11,5.66-13.3ZM255.95,46.28c5.01,0,9.58-2.03,12.94-5.3-8.99-8.21-18.96-15.36-29.68-21.32-1.18,2.44-1.86,5.15-1.86,8.02,0,10.21,8.39,18.6,18.6,18.6ZM255.95,46.28c5.01,0,9.58-2.03,12.94-5.3-8.99-8.21-18.96-15.36-29.68-21.32-1.18,2.44-1.86,5.15-1.86,8.02,0,10.21,8.39,18.6,18.6,18.6ZM294,243.54c-6.88,10.38-14.97,19.88-24.06,28.33,3.29,2.91,7.59,4.71,12.29,4.71,10.21,0,18.6-8.39,18.6-18.6,0-5.89-2.67-11.05-6.84-14.44h0ZM294,243.54c-3.22-2.61-7.32-4.17-11.77-4.17-10.21,0-18.6,8.39-18.6,18.6,0,5.51,2.46,10.48,6.31,13.9,9.09-8.45,17.17-17.95,24.06-28.33ZM294,243.54c-3.22-2.61-7.32-4.17-11.77-4.17-10.21,0-18.6,8.39-18.6,18.6,0,5.51,2.46,10.48,6.31,13.9,9.09-8.45,17.17-17.95,24.06-28.33ZM43.22,279.06c0,10.21,8.39,18.6,18.6,18.6,6.74,0,12.67-3.67,15.94-9.09-10.3-6.7-19.76-14.56-28.2-23.42-3.87,3.42-6.34,8.39-6.34,13.91h0ZM61.82,260.46c-4.69,0-8.98,1.79-12.27,4.69,8.44,8.86,17.9,16.73,28.2,23.42,1.68-2.79,2.67-6.04,2.67-9.51,0-10.44-8.39-18.6-18.6-18.6h0ZM61.82,260.46c-4.69,0-8.98,1.79-12.27,4.69,8.44,8.86,17.9,16.73,28.2,23.42,1.68-2.79,2.67-6.04,2.67-9.51,0-10.44-8.39-18.6-18.6-18.6h0Z"/>
  <g>
    <path class="cls-1" d="M398.78,211.98l-2.18-9.04h-12.25l-2.13,9.04h-10.31l12.68-42.05h12.07l12.68,42.05h-10.56ZM386.04,195.72h8.86l-4.43-18.56-4.43,18.56ZM432.45,210.46c-1.17.81-2.54,1.44-4.1,1.88-1.56.45-3.11.67-4.64.67-7.04-.04-10.56-3.92-10.56-11.65v-14.93h-4.55v-6.67h4.55v-6.98l9.59-1.09v8.07h7.4l-1.03,6.67h-6.37v14.8c0,1.49.24,2.57.73,3.21s1.25.97,2.3.97,2.25-.34,3.46-1.03l3.21,6.07ZM455.87,210.46c-1.17.81-2.54,1.44-4.1,1.88-1.56.45-3.11.67-4.64.67-7.04-.04-10.56-3.92-10.56-11.65v-14.93h-4.55v-6.67h4.55v-6.98l9.59-1.09v8.07h7.4l-1.03,6.67h-6.37v14.8c0,1.49.25,2.57.73,3.21s1.25.97,2.3.97,2.24-.34,3.46-1.03l3.22,6.07h0ZM485.91,198.69h-19.96c.32,2.71,1.09,4.61,2.3,5.7,1.22,1.09,2.89,1.64,5.04,1.64,1.29,0,2.55-.23,3.76-.7,1.21-.47,2.53-1.18,3.94-2.15l3.94,5.34c-3.76,2.99-7.95,4.49-12.56,4.49-5.22,0-9.22-1.54-12.01-4.61-2.79-3.07-4.19-7.2-4.19-12.38,0-3.28.58-6.22,1.76-8.83,1.17-2.61,2.89-4.67,5.16-6.19,2.26-1.52,4.97-2.28,8.13-2.28,4.65,0,8.29,1.46,10.92,4.37,2.63,2.91,3.94,6.96,3.94,12.14,0,1.33-.06,2.49-.18,3.46h0ZM476.68,192.5c-.08-4.93-1.82-7.4-5.22-7.4-1.66,0-2.94.61-3.85,1.82s-1.47,3.22-1.67,6.01h10.74v-.43ZM509.32,179.76c2.02.69,3.8,1.66,5.34,2.91l-3.52,5.4c-2.63-1.66-5.28-2.49-7.95-2.49-1.25,0-2.22.21-2.88.64-.67.43-1,1.02-1,1.79,0,.61.15,1.1.45,1.49s.92.78,1.85,1.18c.93.41,2.37.89,4.31,1.46,3.36.97,5.86,2.24,7.49,3.79s2.46,3.71,2.46,6.46c0,2.18-.63,4.07-1.88,5.67s-2.97,2.82-5.16,3.67-4.61,1.27-7.28,1.27-5.23-.42-7.55-1.27c-2.33-.85-4.3-2.02-5.92-3.52l4.67-5.22c2.71,2.1,5.56,3.16,8.55,3.16,1.46,0,2.6-.26,3.43-.79.83-.52,1.24-1.27,1.24-2.24,0-.77-.16-1.38-.49-1.82-.32-.44-.95-.86-1.88-1.24-.93-.38-2.41-.86-4.43-1.43-3.2-.93-5.58-2.22-7.16-3.88s-2.37-3.72-2.37-6.19c0-1.86.54-3.53,1.61-5.01,1.07-1.48,2.61-2.65,4.61-3.52,2-.87,4.32-1.31,6.95-1.31,2.3,0,4.47.34,6.49,1.03ZM541,210.46c-1.17.81-2.54,1.44-4.1,1.88-1.56.45-3.11.67-4.64.67-7.04-.04-10.56-3.92-10.56-11.65v-14.93h-4.55v-6.67h4.55v-6.98l9.59-1.09v8.07h7.4l-1.03,6.67h-6.37v14.8c0,1.49.25,2.57.73,3.21s1.25.97,2.3.97,2.24-.34,3.46-1.03l3.22,6.07h0ZM569.6,205.3c.34.57.9.99,1.67,1.27l-2,6.25c-1.98-.16-3.6-.6-4.85-1.31-1.25-.71-2.22-1.83-2.91-3.37-2.1,3.24-5.34,4.85-9.71,4.85-3.2,0-5.75-.93-7.64-2.79-1.9-1.86-2.85-4.29-2.85-7.28,0-3.52,1.3-6.21,3.88-8.07,2.59-1.86,6.33-2.79,11.22-2.79h3.28v-1.4c0-1.9-.41-3.2-1.21-3.91-.81-.71-2.23-1.06-4.25-1.06-1.05,0-2.33.15-3.82.46-1.5.3-3.04.72-4.61,1.24l-2.18-6.31c2.02-.77,4.1-1.36,6.22-1.76,2.12-.4,4.1-.61,5.91-.61,4.61,0,7.99.95,10.13,2.85,2.14,1.9,3.22,4.75,3.22,8.55v12.5c0,1.21.17,2.1.51,2.67h0ZM559.68,203.06v-5.7h-2.37c-2.18,0-3.81.39-4.88,1.15-1.07.77-1.61,1.96-1.61,3.58,0,1.3.33,2.3,1,3s1.59,1.06,2.76,1.06c2.18,0,3.88-1.03,5.1-3.1ZM596.93,210.46c-1.17.81-2.54,1.44-4.1,1.88-1.56.45-3.11.67-4.64.67-7.04-.04-10.56-3.92-10.56-11.65v-14.93h-4.55v-6.67h4.55v-6.98l9.59-1.09v8.07h7.4l-1.03,6.67h-6.37v14.8c0,1.49.25,2.57.73,3.21s1.25.97,2.3.97,2.24-.34,3.46-1.03l3.22,6.07h0ZM608.97,164.32c1.07,1.03,1.61,2.34,1.61,3.92s-.54,2.88-1.61,3.91c-1.07,1.03-2.44,1.55-4.1,1.55s-3.01-.51-4.06-1.55c-1.05-1.03-1.58-2.33-1.58-3.91s.52-2.88,1.58-3.92c1.05-1.03,2.4-1.55,4.06-1.55s3.02.52,4.1,1.55ZM609.73,179.76v32.22h-9.59v-32.22h9.59ZM642.8,183.25c2.79,3.01,4.19,7.23,4.19,12.65,0,3.44-.64,6.44-1.91,9.01-1.28,2.57-3.1,4.56-5.46,5.98-2.37,1.41-5.17,2.12-8.4,2.12-4.89,0-8.75-1.51-11.56-4.52-2.81-3.01-4.22-7.23-4.22-12.65,0-3.44.64-6.44,1.91-9.01,1.27-2.57,3.1-4.56,5.46-5.98,2.37-1.41,5.17-2.12,8.4-2.12,4.93,0,8.8,1.51,11.59,4.52h0ZM626.84,188.22c-.97,1.64-1.46,4.18-1.46,7.61s.47,6.09,1.42,7.71c.95,1.62,2.42,2.43,4.4,2.43s3.4-.82,4.37-2.46c.97-1.64,1.46-4.18,1.46-7.62s-.48-6.09-1.43-7.71c-.95-1.62-2.42-2.43-4.4-2.43s-3.4.82-4.37,2.46ZM678.11,181.28c1.58,1.7,2.37,4.09,2.37,7.16v23.54h-9.59v-21.9c0-1.62-.25-2.74-.76-3.37-.51-.63-1.26-.94-2.28-.94-1.94,0-3.8,1.4-5.58,4.19v22.02h-9.59v-32.22h8.37l.67,3.82c1.38-1.62,2.86-2.83,4.46-3.64,1.6-.81,3.39-1.21,5.37-1.21,2.79,0,4.98.85,6.55,2.55ZM398.39,238.49c2.32.89,4.44,2.24,6.34,4.06l-4.61,5.4c-2.87-2.35-5.95-3.52-9.22-3.52-1.74,0-3.12.35-4.12,1.06-1.01.71-1.52,1.73-1.52,3.06,0,.93.22,1.69.67,2.28.44.59,1.23,1.14,2.37,1.67s2.83,1.15,5.1,1.88c4.29,1.38,7.44,3.06,9.46,5.07,2.02,2,3.03,4.85,3.03,8.53,0,2.63-.67,4.94-2,6.95-1.33,2-3.26,3.56-5.76,4.67-2.51,1.11-5.48,1.67-8.92,1.67s-6.48-.55-9.13-1.64c-2.65-1.09-4.93-2.55-6.83-4.37l5.04-5.52c1.62,1.38,3.29,2.41,5.01,3.09,1.72.69,3.59,1.03,5.61,1.03s3.69-.45,4.88-1.36c1.19-.91,1.79-2.17,1.79-3.79,0-1.05-.22-1.93-.67-2.64-.45-.71-1.21-1.34-2.3-1.91-1.09-.57-2.67-1.17-4.73-1.82-4.65-1.42-7.96-3.16-9.92-5.22-1.96-2.06-2.94-4.67-2.94-7.83,0-2.43.65-4.56,1.94-6.4,1.29-1.84,3.09-3.26,5.4-4.25,2.31-.99,4.92-1.49,7.83-1.49,3.16,0,5.9.45,8.22,1.33h0ZM438.4,251.47c1.98,2.99,2.97,7.18,2.97,12.56,0,3.32-.51,6.28-1.55,8.89-1.03,2.61-2.52,4.65-4.46,6.13-1.94,1.48-4.21,2.22-6.8,2.22-3.24,0-5.84-1.11-7.83-3.34v14.74l-9.59,1.03v-45.69h8.43l.49,3.58c1.25-1.58,2.69-2.74,4.31-3.49,1.62-.75,3.28-1.12,4.98-1.12,4.04,0,7.06,1.5,9.04,4.49h0ZM431.42,264.15c0-3.8-.42-6.44-1.27-7.92-.85-1.48-2.12-2.22-3.82-2.22-1.09,0-2.12.32-3.06.97-.95.65-1.79,1.58-2.52,2.79v13.59c1.29,1.9,2.93,2.85,4.91,2.85,3.84,0,5.76-3.36,5.76-10.07h0ZM475.29,266.94h-19.96c.32,2.71,1.09,4.61,2.3,5.7s2.89,1.64,5.04,1.64c1.29,0,2.55-.23,3.76-.7s2.53-1.18,3.94-2.15l3.94,5.34c-3.76,2.99-7.95,4.49-12.56,4.49-5.22,0-9.22-1.54-12.01-4.61s-4.19-7.2-4.19-12.38c0-3.28.59-6.22,1.76-8.83,1.17-2.61,2.89-4.67,5.16-6.19,2.27-1.52,4.98-2.28,8.13-2.28,4.65,0,8.29,1.46,10.92,4.37,2.63,2.91,3.94,6.96,3.94,12.13,0,1.33-.06,2.49-.18,3.46h0ZM466.07,260.76c-.08-4.93-1.82-7.4-5.22-7.4-1.66,0-2.94.61-3.85,1.82s-1.47,3.21-1.67,6.01h10.74v-.42h0ZM500.83,247.95c1.78.65,3.46,1.64,5.03,2.97l-4.12,5.7c-2.02-1.54-4.07-2.3-6.13-2.3s-3.76.79-4.85,2.37c-1.09,1.58-1.64,4.13-1.64,7.64s.55,5.81,1.64,7.22c1.09,1.42,2.67,2.12,4.73,2.12,1.09,0,2.08-.17,2.97-.51.89-.34,1.96-.9,3.22-1.67l4.19,5.95c-3.2,2.55-6.82,3.82-10.86,3.82-3.28,0-6.11-.7-8.49-2.09-2.39-1.4-4.23-3.36-5.52-5.88s-1.94-5.49-1.94-8.89.65-6.41,1.94-9.04,3.13-4.68,5.52-6.16c2.38-1.48,5.16-2.22,8.31-2.22,2.22,0,4.23.33,6.01.97h0ZM518.76,232.57c1.07,1.03,1.61,2.33,1.61,3.91s-.54,2.88-1.61,3.91c-1.07,1.03-2.44,1.55-4.1,1.55s-3.01-.51-4.06-1.55c-1.05-1.03-1.58-2.33-1.58-3.91s.52-2.88,1.58-3.91c1.05-1.03,2.4-1.55,4.06-1.55s3.02.51,4.1,1.55ZM519.52,248.01v32.22h-9.59v-32.22h9.59ZM553.16,273.56c.34.57.9.99,1.67,1.27l-2,6.25c-1.98-.16-3.6-.6-4.85-1.31-1.25-.71-2.22-1.83-2.91-3.37-2.1,3.24-5.34,4.85-9.71,4.85-3.2,0-5.75-.93-7.64-2.79-1.9-1.86-2.85-4.29-2.85-7.28,0-3.52,1.3-6.21,3.88-8.07,2.59-1.86,6.33-2.79,11.22-2.79h3.28v-1.4c0-1.9-.41-3.2-1.21-3.91-.81-.71-2.23-1.06-4.25-1.06-1.05,0-2.33.15-3.82.45-1.5.3-3.04.72-4.61,1.24l-2.18-6.31c2.02-.77,4.1-1.35,6.22-1.76,2.12-.4,4.1-.61,5.91-.61,4.61,0,7.99.95,10.13,2.85,2.14,1.9,3.22,4.75,3.22,8.55v12.5c0,1.21.17,2.1.51,2.67h0ZM543.24,271.31v-5.7h-2.37c-2.18,0-3.81.39-4.88,1.15-1.07.77-1.61,1.96-1.61,3.58,0,1.3.33,2.3,1,3s1.59,1.06,2.76,1.06c2.18,0,3.88-1.03,5.1-3.09ZM561.71,278.86c-1.56-1.6-2.34-3.87-2.34-6.82v-36.83l9.59-1.03v37.5c0,1.33.55,2,1.64,2,.57,0,1.09-.1,1.58-.3l1.88,6.8c-1.74.73-3.68,1.09-5.83,1.09-2.79,0-4.96-.8-6.52-2.4h0ZM602.21,238.19v42.05h-9.95v-42.05h9.95ZM635.28,249.53c1.58,1.7,2.37,4.09,2.37,7.16v23.54h-9.59v-21.9c0-1.62-.25-2.74-.76-3.37-.51-.63-1.26-.94-2.28-.94-1.94,0-3.8,1.4-5.58,4.19v22.02h-9.59v-32.22h8.37l.67,3.82c1.38-1.62,2.86-2.83,4.46-3.64,1.6-.81,3.39-1.21,5.37-1.21,2.79,0,4.98.85,6.55,2.55ZM665.07,278.71c-1.17.81-2.54,1.44-4.1,1.88s-3.11.67-4.64.67c-7.04-.04-10.56-3.92-10.56-11.65v-14.93h-4.55v-6.67h4.55v-6.98l9.59-1.09v8.07h7.4l-1.03,6.67h-6.37v14.8c0,1.5.24,2.57.73,3.21.49.65,1.25.97,2.3.97s2.25-.34,3.46-1.03l3.21,6.07h0ZM695.1,266.94h-19.96c.32,2.71,1.09,4.61,2.3,5.7,1.22,1.09,2.89,1.64,5.04,1.64,1.29,0,2.55-.23,3.76-.7,1.21-.47,2.53-1.18,3.94-2.15l3.94,5.34c-3.76,2.99-7.95,4.49-12.56,4.49-5.22,0-9.22-1.54-12.01-4.61-2.79-3.07-4.19-7.2-4.19-12.38,0-3.28.58-6.22,1.76-8.83,1.17-2.61,2.89-4.67,5.16-6.19,2.26-1.52,4.97-2.28,8.13-2.28,4.65,0,8.29,1.46,10.92,4.37,2.63,2.91,3.94,6.96,3.94,12.13,0,1.33-.06,2.49-.18,3.46h0ZM685.87,260.76c-.08-4.93-1.82-7.4-5.22-7.4-1.66,0-2.94.61-3.85,1.82-.91,1.21-1.47,3.21-1.67,6.01h10.74v-.42ZM721.37,247.53l-1.52,9.28c-1.21-.28-2.18-.42-2.91-.42-1.9,0-3.35.66-4.34,1.97-.99,1.31-1.77,3.29-2.33,5.91v15.96h-9.59v-32.22h8.37l.79,6.25c.73-2.22,1.83-3.97,3.3-5.25,1.48-1.27,3.15-1.91,5.01-1.91,1.17,0,2.25.14,3.22.42h0ZM751.1,266.94h-19.96c.33,2.71,1.09,4.61,2.31,5.7s2.89,1.64,5.03,1.64c1.3,0,2.55-.23,3.76-.7s2.53-1.18,3.94-2.15l3.94,5.34c-3.76,2.99-7.95,4.49-12.56,4.49-5.22,0-9.22-1.54-12.01-4.61-2.79-3.07-4.19-7.2-4.19-12.38,0-3.28.59-6.22,1.76-8.83,1.17-2.61,2.89-4.67,5.16-6.19s4.98-2.28,8.13-2.28c4.65,0,8.29,1.46,10.92,4.37,2.63,2.91,3.94,6.96,3.94,12.13,0,1.33-.06,2.49-.18,3.46h0ZM741.88,260.76c-.08-4.93-1.82-7.4-5.22-7.4-1.66,0-2.94.61-3.85,1.82s-1.47,3.21-1.67,6.01h10.74v-.42ZM774.52,248.01c2.02.69,3.8,1.66,5.34,2.91l-3.52,5.4c-2.63-1.66-5.28-2.49-7.95-2.49-1.25,0-2.22.21-2.88.64s-1,1.02-1,1.79c0,.61.15,1.1.46,1.49s.92.78,1.85,1.18c.93.41,2.37.89,4.31,1.46,3.36.97,5.85,2.23,7.49,3.79,1.64,1.56,2.46,3.71,2.46,6.46,0,2.18-.63,4.08-1.88,5.67-1.25,1.6-2.97,2.82-5.16,3.67-2.19.85-4.61,1.27-7.28,1.27s-5.23-.42-7.55-1.27-4.3-2.02-5.91-3.52l4.67-5.22c2.71,2.1,5.56,3.15,8.55,3.15,1.46,0,2.6-.26,3.43-.79.83-.52,1.24-1.27,1.24-2.24,0-.77-.16-1.38-.49-1.82-.32-.45-.95-.86-1.88-1.24-.93-.38-2.41-.86-4.43-1.43-3.2-.93-5.58-2.22-7.16-3.88-1.58-1.66-2.37-3.72-2.37-6.19,0-1.86.54-3.53,1.61-5.01,1.07-1.48,2.61-2.65,4.61-3.52,2-.87,4.32-1.31,6.95-1.31,2.3,0,4.47.34,6.49,1.03h0ZM806.19,278.71c-1.17.81-2.54,1.44-4.1,1.88-1.56.44-3.11.67-4.64.67-7.04-.04-10.56-3.92-10.56-11.65v-14.93h-4.55v-6.67h4.55v-6.98l9.59-1.09v8.07h7.4l-1.03,6.67h-6.37v14.8c0,1.5.24,2.57.73,3.21.49.65,1.25.97,2.3.97s2.24-.34,3.46-1.03l3.21,6.07h0ZM856.18,242.31l-5.03,5.28c-1.5-1.13-2.88-1.95-4.16-2.46-1.27-.5-2.74-.76-4.4-.76-3.12,0-5.6,1.22-7.46,3.67-1.86,2.45-2.79,6.16-2.79,11.13,0,5.38.71,9.19,2.13,11.44,1.41,2.25,3.62,3.37,6.61,3.37,2.1,0,4-.46,5.7-1.4v-9.53h-5.46l-.97-7.04h16.08v20.81c-2.18,1.41-4.59,2.51-7.22,3.28-2.63.77-5.26,1.15-7.89,1.15-6.39,0-11.21-1.87-14.44-5.61-3.24-3.74-4.85-9.23-4.85-16.47,0-4.61.88-8.57,2.64-11.89s4.17-5.83,7.22-7.55c3.05-1.72,6.48-2.58,10.28-2.58,5.42,0,10.09,1.72,14.01,5.16h0ZM883.6,247.53l-1.52,9.28c-1.21-.28-2.18-.42-2.91-.42-1.9,0-3.35.66-4.34,1.97-.99,1.31-1.77,3.29-2.33,5.91v15.96h-9.59v-32.22h8.37l.79,6.25c.73-2.22,1.83-3.97,3.3-5.25,1.48-1.27,3.15-1.91,5.01-1.91,1.17,0,2.24.14,3.21.42h0ZM910.96,251.5c2.79,3.01,4.19,7.23,4.19,12.65,0,3.44-.64,6.44-1.91,9.01-1.27,2.57-3.09,4.56-5.46,5.98-2.37,1.41-5.17,2.12-8.4,2.12-4.89,0-8.75-1.51-11.56-4.52s-4.22-7.23-4.22-12.65c0-3.44.64-6.44,1.91-9.01,1.27-2.57,3.09-4.56,5.46-5.98,2.37-1.41,5.17-2.12,8.4-2.12,4.93,0,8.8,1.51,11.59,4.52h0ZM895.01,256.48c-.97,1.64-1.46,4.18-1.46,7.61s.48,6.09,1.43,7.71,2.42,2.43,4.4,2.43,3.4-.82,4.37-2.46c.97-1.64,1.46-4.18,1.46-7.61s-.48-6.09-1.43-7.71c-.95-1.62-2.42-2.43-4.4-2.43s-3.4.82-4.37,2.46ZM948.03,280.23h-8.31l-.42-4.06c-2.35,3.4-5.6,5.09-9.77,5.09-2.96,0-5.19-.89-6.71-2.67-1.52-1.78-2.28-4.27-2.28-7.46v-23.12h9.59v21.9c0,1.58.25,2.68.76,3.31.5.63,1.28.94,2.34.94,2.02,0,3.76-1.25,5.22-3.76v-22.39h9.59v32.22h0ZM982.8,251.47c1.98,2.99,2.97,7.18,2.97,12.56,0,3.32-.51,6.28-1.55,8.89-1.03,2.61-2.52,4.65-4.46,6.13-1.94,1.48-4.21,2.22-6.79,2.22-3.24,0-5.85-1.11-7.83-3.34v14.74l-9.59,1.03v-45.69h8.43l.49,3.58c1.25-1.58,2.69-2.74,4.31-3.49,1.62-.75,3.28-1.12,4.98-1.12,4.04,0,7.06,1.5,9.04,4.49h0ZM975.82,264.15c0-3.8-.42-6.44-1.27-7.92-.85-1.48-2.13-2.22-3.82-2.22-1.09,0-2.11.32-3.06.97-.95.65-1.79,1.58-2.52,2.79v13.59c1.29,1.9,2.93,2.85,4.91,2.85,3.84,0,5.76-3.36,5.76-10.07Z"/>
    <g>
      <g>
        <path class="cls-3" d="M382.25,56.77h2.59c5.84,0,10.34-4.42,10.34-10.26v-1.83l-6.42-.58v2.42c0,2.34-1.75,4.17-4.09,4.17h-2.34c-2.34,0-4.09-1.83-4.09-4.17v-16.1c0-2.34,1.75-4.17,4.09-4.17h2.34c2.34,0,4.09,1.83,4.09,4.17v2.42l6.42-.58v-1.83c0-5.84-4.5-10.26-10.34-10.26h-2.59c-5.84,0-10.34,4.42-10.34,10.26v16.1c0,5.84,4.5,10.26,10.34,10.26h0Z"/>
        <path class="cls-3" d="M414.77,20.16h-2.59c-5.84,0-10.34,4.42-10.34,10.26v16.1c0,5.84,4.5,10.26,10.34,10.26h2.59c5.84,0,10.34-4.42,10.34-10.26v-16.1c0-5.84-4.5-10.26-10.34-10.26ZM418.69,46.51c0,2.34-1.75,4.17-4.09,4.17h-2.34c-2.34,0-4.09-1.83-4.09-4.17v-16.1c0-2.34,1.75-4.17,4.09-4.17h2.34c2.34,0,4.09,1.83,4.09,4.17v16.1Z"/>
        <polygon class="cls-3" points="438.54 31.75 438.87 33.34 452.8 56.86 458.64 56.86 458.64 20.16 452.05 20.16 452.05 45.26 451.71 43.68 437.7 20.16 431.95 20.16 431.95 56.86 438.54 56.86 438.54 31.75"/>
        <polygon class="cls-3" points="464.31 56.86 470.98 56.86 470.98 41.68 484.49 41.68 484.49 35.34 470.98 35.34 470.98 26.42 487.74 26.42 487.74 20.16 464.31 20.16 464.31 56.86"/>
        <rect class="cls-3" x="493.66" y="20.16" width="6.59" height="36.69"/>
        <path class="cls-3" d="M530.77,46.26v-15.51c0-6-4.67-10.59-10.67-10.59h-13.34v36.69h13.34c6,0,10.67-4.59,10.67-10.59ZM513.34,50.6v-24.18h6.59c2.42,0,4.17,1.92,4.17,4.34v15.51c0,2.42-1.75,4.34-4.17,4.34h-6.59Z"/>
        <polygon class="cls-3" points="536.86 56.86 560.3 56.86 560.3 50.6 543.45 50.6 543.45 41.68 556.96 41.68 556.96 35.34 543.45 35.34 543.45 26.42 560.3 26.42 560.3 20.16 536.86 20.16 536.86 56.86"/>
        <polygon class="cls-3" points="573.14 31.75 573.47 33.25 587.4 56.77 593.24 56.77 593.24 20.16 586.65 20.16 586.65 45.18 586.32 43.68 572.31 20.16 566.55 20.16 566.55 56.77 573.14 56.77 573.14 31.75"/>
        <polygon class="cls-3" points="600.16 26.42 608.75 26.42 608.75 56.77 615.34 56.77 615.34 26.42 624.01 26.42 624.01 20.16 600.16 20.16 600.16 26.42"/>
        <rect class="cls-3" x="630.93" y="20.16" width="6.59" height="36.61"/>
        <path class="cls-3" d="M655.03,20.16l-10.17,36.61h7.09l1.92-7.26h11.26l1.92,7.26h7.09l-10.26-36.61h-8.84ZM655.2,43.85l4.17-15.93v-1.42l.17,1.33,4.09,15.93h-8.42v.08Z"/>
        <polygon class="cls-3" points="687.48 20.16 680.89 20.16 680.89 56.77 700.99 56.77 700.99 50.52 687.48 50.52 687.48 20.16"/>
      </g>
      <g>
        <path class="cls-3" d="M384.83,69.33h-2.59c-5.84,0-10.34,4.42-10.34,10.26v16.1c0,5.84,4.5,10.26,10.34,10.26h2.59c5.84,0,10.34-4.42,10.34-10.26v-1.83l-6.42-.58v2.42c0,2.34-1.75,4.17-4.09,4.17h-2.34c-2.34,0-4.09-1.83-4.09-4.17v-16.1c0-2.34,1.75-4.17,4.09-4.17h2.34c2.34,0,4.09,1.83,4.09,4.17v2.42l6.42-.58v-1.83c0-5.84-4.5-10.26-10.34-10.26h0Z"/>
        <path class="cls-3" d="M425.11,95.68v-16.1c0-5.84-4.5-10.26-10.34-10.26h-2.59c-5.84,0-10.34,4.42-10.34,10.26v16.1c0,5.84,4.5,10.26,10.34,10.26h2.59c5.84,0,10.34-4.42,10.34-10.26ZM418.69,95.68c0,2.34-1.75,4.17-4.09,4.17h-2.34c-2.34,0-4.09-1.83-4.09-4.17v-16.1c0-2.34,1.75-4.17,4.09-4.17h2.34c2.34,0,4.09,1.83,4.09,4.17v16.1Z"/>
        <polygon class="cls-3" points="449.71 97.27 449.55 98.6 449.46 97.27 441.37 69.33 431.78 69.33 431.78 106.02 438.37 106.02 438.37 77.42 438.54 79 446.38 106.02 452.8 106.02 460.55 79 460.8 77.42 460.8 106.02 467.39 106.02 467.39 69.33 457.72 69.33 449.71 97.27"/>
        <path class="cls-3" d="M487.49,69.33h-13.68v36.69h6.59v-12.01h7.01c6,0,10.67-4.59,10.67-10.59v-3.5c0-6-4.59-10.59-10.59-10.59ZM491.58,83.42c0,2.42-1.75,4.34-4.17,4.34h-6.92v-12.18h6.92c2.42,0,4.17,1.92,4.17,4.34v3.5Z"/>
        <path class="cls-3" d="M527.94,95.6v-26.27h-6.5v26.27c0,2.42-1.75,4.25-4.17,4.25h-2.42c-2.42,0-4.17-1.83-4.17-4.25v-26.27h-6.5v26.27c0,5.92,4.59,10.42,10.51,10.42h2.59c6,0,10.67-4.5,10.67-10.42h0Z"/>
        <polygon class="cls-3" points="534.53 75.58 543.2 75.58 543.2 106.02 549.79 106.02 549.79 75.58 558.46 75.58 558.46 69.33 534.53 69.33 534.53 75.58"/>
        <rect class="cls-3" x="564.72" y="69.33" width="6.59" height="36.61"/>
        <polygon class="cls-3" points="584.4 80.92 584.73 82.5 598.74 106.02 604.5 106.02 604.5 69.33 597.91 69.33 597.91 94.43 597.57 92.85 583.65 69.33 577.81 69.33 577.81 106.02 584.4 106.02 584.4 80.92"/>
        <path class="cls-3" d="M631.52,81.42v-1.83c0-5.84-4.5-10.26-10.34-10.26h-2.59c-5.84,0-10.34,4.42-10.34,10.26v16.1c0,5.84,4.5,10.26,10.34,10.26h1.5c2.92,0,5.42-1.25,7.09-3.34l1.83,2.84h2.5v-19.76h-11.68v6.09h5.25v3.84c0,2.34-1.75,4.17-4.09,4.17h-2.34c-2.34,0-4.09-1.83-4.09-4.17v-16.01c0-2.34,1.75-4.17,4.09-4.17h2.34c2.34,0,4.09,1.83,4.09,4.17v2.42l6.42-.58Z"/>
      </g>
      <g>
        <path class="cls-4" d="M379.17,117.94h-1.42c-3.29,0-5.85,2.5-5.85,5.78v9.04c0,3.29,2.56,5.78,5.85,5.78h1.42c3.29,0,5.85-2.5,5.85-5.78v-1.04l-3.6-.35v1.36c0,1.33-.98,2.34-2.28,2.34h-1.33c-1.33,0-2.28-1.04-2.28-2.34v-9.04c0-1.33.98-2.34,2.28-2.34h1.33c1.33,0,2.28,1.04,2.28,2.34v1.36l3.6-.35v-1.04c-.03-3.22-2.56-5.72-5.85-5.72h0Z"/>
        <path class="cls-4" d="M413.9,117.94h-1.42c-3.29,0-5.85,2.5-5.85,5.78v9.04c0,3.29,2.56,5.78,5.85,5.78h1.42c3.29,0,5.85-2.5,5.85-5.78v-9.04c0-3.29-2.56-5.78-5.85-5.78ZM416.14,132.76c0,1.33-.98,2.34-2.28,2.34h-1.33c-1.33,0-2.28-1.04-2.28-2.34v-9.04c0-1.33.98-2.34,2.28-2.34h1.33c1.33,0,2.28,1.04,2.28,2.34v9.04Z"/>
        <polygon class="cls-4" points="451.72 132.03 451.53 131.18 443.66 117.94 440.4 117.94 440.4 138.55 444.1 138.55 444.1 124.45 444.29 125.33 452.16 138.55 455.42 138.55 455.42 117.94 451.72 117.94 451.72 132.03"/>
        <path class="cls-4" d="M479.9,123.91v-.16c0-1.33.98-2.34,2.28-2.34h.89c1.33,0,2.28,1.04,2.28,2.34v1.01l3.6-.35v-.66c0-3.29-2.56-5.78-5.85-5.78h-1.01c-3.29,0-5.85,2.5-5.85,5.78v.16c0,7.71,9.23,4.36,9.23,8.63v.25c0,1.33-.98,2.34-2.28,2.34h-1.17c-1.33,0-2.28-1.04-2.28-2.34v-1.01l-3.6.35v.66c0,3.29,2.56,5.78,5.85,5.78h1.3c3.29,0,5.85-2.5,5.85-5.78v-.25c0-7.46-9.23-4.61-9.23-8.63h0Z"/>
        <path class="cls-4" d="M518.06,117.94h-1.42c-3.29,0-5.85,2.5-5.85,5.78v9.04c0,3.29,2.56,5.78,5.85,5.78h1.42c3.29,0,5.85-2.5,5.85-5.78v-9.04c-.03-3.29-2.56-5.78-5.85-5.78ZM520.28,132.76c0,1.33-.98,2.34-2.28,2.34h-1.33c-1.33,0-2.28-1.04-2.28-2.34v-9.04c0-1.33.98-2.34,2.28-2.34h1.33c1.33,0,2.28,1.04,2.28,2.34v9.04Z"/>
        <path class="cls-4" d="M558.68,124.99v-1.11c0-3.38-2.62-5.94-6.01-5.94h-7.65v20.61h3.7v-7.62h2.4l3.92,7.62h4.08l-4.2-8.03c2.24-.85,3.76-2.94,3.76-5.53h0ZM552.64,127.39h-3.89v-5.91h3.89c1.36,0,2.37,1.07,2.37,2.4v1.07c0,1.39-1.04,2.43-2.37,2.43Z"/>
        <polygon class="cls-4" points="580.1 121.48 584.93 121.48 584.93 138.55 588.66 138.55 588.66 121.48 593.5 121.48 593.5 117.94 580.1 117.94 580.1 121.48"/>
        <rect class="cls-4" x="619.67" y="117.94" width="3.7" height="20.61"/>
        <path class="cls-4" d="M659.21,132.7c0,1.33-.98,2.37-2.31,2.37h-1.33c-1.33,0-2.31-1.04-2.31-2.37v-14.73h-3.67v14.73c0,3.35,2.59,5.85,5.91,5.85h1.45c3.35,0,5.91-2.53,5.91-5.85v-14.73h-3.67v14.73h0Z"/>
        <polygon class="cls-4" points="691.03 133.65 690.97 134.4 690.9 133.65 686.38 117.94 680.95 117.94 680.95 138.55 684.68 138.55 684.68 122.52 684.77 123.4 689.16 138.55 692.77 138.55 697.13 123.4 697.26 122.52 697.26 138.55 700.99 138.55 700.99 117.94 695.55 117.94 691.03 133.65"/>
      </g>
    </g>
  </g>
</svg>