<?xml version="1.0" encoding="UTF-8"?>
<svg id="Layer_1" xmlns="http://www.w3.org/2000/svg" xmlns:xlink="http://www.w3.org/1999/xlink" version="1.1" viewBox="0 0 987.0399072 344.8796338">
  <!-- Generator: Adobe Illustrator 29.3.1, SVG Export Plug-In . SVG Version: 2.1.0 Build 151)  -->
  <defs>
    <style>
      .st0 {
        fill: none;
      }

      .st1 {
        fill: url(#New_Gradient_Swatch);
      }

      .st2 {
        fill: url(#linear-gradient);
      }

      .st3 {
        fill: #fff;
      }

      .st4 {
        fill: #0f151f;
      }

      .st5 {
        fill: #00a5b2;
      }

      .st6 {
        fill: #333;
      }
    </style>
    <linearGradient id="linear-gradient" x1="36.3532789" y1="58.635472" x2="295.9253761" y2="288.4203766" gradientUnits="userSpaceOnUse">
      <stop offset="0" stop-color="#eb0045"/>
      <stop offset=".0668586" stop-color="#db074c"/>
      <stop offset=".1958937" stop-color="#b41b5f"/>
      <stop offset=".374079" stop-color="#733b7f"/>
      <stop offset=".5924563" stop-color="#1c66aa"/>
      <stop offset=".6592675" stop-color="#0075b8"/>
      <stop offset="1" stop-color="#3fc1c9"/>
    </linearGradient>
    <linearGradient id="New_Gradient_Swatch" data-name="New Gradient Swatch" x1="372.7284817" y1="245.3477347" x2="963.0615238" y2="245.3477347" gradientUnits="userSpaceOnUse">
      <stop offset="0" stop-color="#eb0045"/>
      <stop offset=".0668586" stop-color="#db074c"/>
      <stop offset=".1958937" stop-color="#b41b5f"/>
      <stop offset=".374079" stop-color="#733b7f"/>
      <stop offset=".5924563" stop-color="#1c66aa"/>
      <stop offset=".6592675" stop-color="#0075b8"/>
      <stop offset="1" stop-color="#3fc1c9"/>
    </linearGradient>
  </defs>
  <path class="st2" d="M256.8119023,273.5608869c0-15.1461334,12.322113-27.4683838,27.4682312-27.4683838,6.167572,0,11.8474731,2.0679932,16.437439,5.5132751,13.5845947-23.2277832,21.4046936-50.2374725,21.4046936-79.0883026,0-42.7311249-17.1010132-81.4515228-44.8048706-109.7510147-4.9663086,4.9214401-11.7926025,7.9694366-19.3203125,7.9694366-15.1461334,0-27.4682312-12.3220978-27.4682312-27.4682312,0-4.3553886,1.0459747-8.4619465,2.8580017-12.1245193-20.6225586-9.9661579-43.7555695-15.5566072-68.1956635-15.5566072-53.0480118,0-99.9135971,26.3479586-128.318924,66.6429262,1.1002579.8063889,2.1647301,1.6717682,3.1500473,2.6488953,5.2210693,5.1770935,8.0963554,12.1060181,8.0960541,19.5100098,0,15.1461334-12.3220978,27.4682312-27.4682312,27.4682312-2.3466911,0-4.6130161-.3275299-6.7889671-.883873-3.6261806,13.2370529-5.6010647,27.1567764-5.6010647,41.5447311,0,38.7765045,14.0931854,74.242218,37.3981495,101.6266174,4.853508-4.3156738,11.2221451-6.9622803,18.2124786-6.9622803,15.1461334,0,27.4682312,12.3222656,27.4682312,27.4682312,0,5.1707153-1.4626617,9.9945068-3.9567413,14.1291199,22.9392242,13.1275635,49.485527,20.6694031,77.8089676,20.6694031,38.0535126,0,72.9378662-13.5504761,100.1067657-36.0812073-5.2180481-5.0028687-8.4860535-12.0239868-8.4860535-19.8064575ZM2.0473406,104.3883787c0,8.765213,6.1945601,16.1755753,14.4058542,18.1010284,3.9091301-11.6264038,9.1271667-22.6453552,15.5067177-32.8755112-3.1445885-2.4006729-7.0643349-3.8283081-11.3097878-3.8283081-10.208622,0-18.602787,8.3938599-18.6027842,18.6027908ZM20.6501267,122.9911695c10.2089252,0,18.6027851-8.3938599,18.6027851-18.6027832,0-6.0958481-2.8761978-11.4024353-7.2929993-14.7744751-6.3795547,10.2301559-11.5975914,21.2491074-15.5067196,32.8755035,1.3522739.31707,2.7530708.5017548,4.1969337.5017548ZM20.6501267,122.9911695c10.2089252,0,18.6027851-8.3938599,18.6027851-18.6027832,0-6.0958481-2.8761978-11.4024353-7.2929993-14.7744751-6.3795547,10.2301559-11.5975914,21.2491074-15.5067196,32.8755035,1.3522739.31707,2.7530708.5017548,4.1969337.5017548ZM241.2539341,35.2518297c10.7238617,5.9551296,20.687149,13.1116581,29.681778,21.3193111,3.4818115-3.3884163,5.6641541-8.1069717,5.6641541-13.3034744,0-10.4357681-8.3938599-18.602787-18.6027832-18.602787-7.3418274,0-13.7256165,4.3517494-16.7431488,10.5869503ZM239.3942845,43.2676702c0,10.2089233,8.3938599,18.602787,18.6027985,18.602787,5.0124207,0,9.5799561-2.0311394,12.9386292-5.2993126-8.9946289-8.2076569-18.9579163-15.3641834-29.6817932-21.319313-1.1784973,2.4352455-1.8596344,5.1485882-1.8596344,8.0158386ZM239.3942845,43.2676702c0,10.2089233,8.3938599,18.602787,18.6027985,18.602787,5.0124207,0,9.5799561-2.0311394,12.9386292-5.2993126-8.9946289-8.2076569-18.9579163-15.3641834-29.6817932-21.319313-1.1784973,2.4352455-1.8596344,5.1485882-1.8596344,8.0158386ZM296.0478642,259.1254774c-6.8829651,10.3786163-14.9681091,19.8830414-24.055542,28.3310394,3.2883301,2.9147034,7.5892944,4.7071838,12.2878418,4.7071838,10.2089233,0,18.6027832-8.3938599,18.6027832-18.6027832,0-5.8875122-2.6730042-11.0512543-6.8350525-14.4354248l-.0000305-.0000153ZM296.0478642,259.1254774c-3.2152405-2.6143188-7.3184814-4.1673584-11.7677307-4.1673584-10.2089233,0-18.6027832,8.3938599-18.6027832,18.6027985,0,5.510376,2.4585876,10.477478,6.3149719,13.8955994,9.0874329-8.447998,17.1725769-17.9524231,24.055542-28.3310242v-.0000153ZM296.0478642,259.1254774c-3.2152405-2.6143188-7.3184814-4.1673584-11.7677307-4.1673584-10.2089233,0-18.6027832,8.3938599-18.6027832,18.6027985,0,5.510376,2.4585876,10.477478,6.3149719,13.8955994,9.0874329-8.447998,17.1725769-17.9524231,24.055542-28.3310242v-.0000153ZM79.8065693,304.1580854c-10.3020248-6.6958618-19.7612686-14.5644531-28.2030487-23.4223328-3.868187,3.4187317-6.3355789,8.3940125-6.3355789,13.9142456,0,10.2089233,8.3938637,18.6029358,18.6027832,18.6029358,6.7401428,0,12.671463-3.6706238,15.9358444-9.0948792v.0000305ZM79.8065693,304.1580854c1.6801071-2.7915955,2.6669388-6.0391235,2.6669388-9.5080566,0-10.4356079-8.3938599-18.6027832-18.6027832-18.6027832-4.6888351,0-8.9815979,1.784729-12.2672081,4.6885376,8.4417763,8.8578491,17.9010277,16.7264709,28.2030525,23.4223328v-.0000305ZM79.8065693,304.1580854c1.6801071-2.7915955,2.6669388-6.0391235,2.6669388-9.5080566,0-10.4356079-8.3938599-18.6027832-18.6027832-18.6027832-4.6888351,0-8.9815979,1.784729-12.2672081,4.6885376,8.4417763,8.8578491,17.9010277,16.7264709,28.2030525,23.4223328v-.0000305Z"/>
  <g>
    <g>
      <path class="st6" d="M405.7972541,151.4981253l-.96875,7.6289062h-10.3535156v34.3310547h-9.9296875v-34.3310547h-10.8388672v-7.6289062h32.0908203Z"/>
      <path class="st6" d="M428.4417853,160.822344l-1.5136719,9.2636719c-1.2109375-.28125-2.1796875-.4238281-2.90625-.4238281-1.8974609,0-3.3408203.6572266-4.3291016,1.9677734-.9892578,1.3125-1.7666016,3.2802734-2.3310547,5.9042969v15.9238281h-9.5664062v-32.1513672h8.3554688l.7871094,6.2363281c.7265625-2.21875,1.8261719-3.9658203,3.2998047-5.2373047s3.1386719-1.9072266,4.9951172-1.9072266c1.1708984,0,2.2402344.1425781,3.2089844.4238281Z"/>
      <path class="st6" d="M459.1995978,193.4580862h-8.2949219l-.4238281-4.0566406c-2.3417969,3.390625-5.5917969,5.0859375-9.7480469,5.0859375-2.9472656,0-5.1777344-.8886719-6.6914062-2.6640625s-2.2705078-4.2578125-2.2705078-7.4472656v-23.0693359h9.5673828v21.8583984c0,1.5742188.2509766,2.6738281.7568359,3.2998047.5039062.6259766,1.2802734.9384766,2.3310547.9384766,2.0175781,0,3.7539062-1.2509766,5.2070312-3.7539062v-22.3427734h9.5664062v32.1513672Z"/>
      <path class="st6" d="M484.5081916,161.306719c2.0185547.6875,3.7939453,1.65625,5.328125,2.90625l-3.5117188,5.3886719c-2.6240234-1.6542969-5.2675781-2.4824219-7.9316406-2.4824219-1.2519531,0-2.2099609.2119141-2.8759766.6357422s-.9990234,1.0205078-.9990234,1.7861328c0,.6054688.1513672,1.1005859.4541016,1.4833984.3027344.3847656.9179688.7783203,1.8466797,1.1806641.9277344.4042969,2.3613281.8886719,4.2988281,1.4541016,3.3505859.96875,5.8427734,2.2304688,7.4775391,3.7841797s2.4521484,3.703125,2.4521484,6.4482422c0,2.1796875-.6259766,4.0673828-1.8769531,5.6611328-1.2509766,1.5947266-2.9667969,2.8154297-5.1464844,3.6630859s-4.6015625,1.2714844-7.265625,1.2714844c-2.7050781,0-5.2177734-.4238281-7.5380859-1.2714844-2.3212891-.8476562-4.2900391-2.0175781-5.9033203-3.5117188l4.6621094-5.2070312c2.7041016,2.0986328,5.5498047,3.1484375,8.5371094,3.1484375,1.453125,0,2.5927734-.2617188,3.4208984-.7871094.8271484-.5244141,1.2412109-1.2714844,1.2412109-2.2402344,0-.7666016-.1611328-1.3720703-.484375-1.8164062s-.9492188-.8574219-1.8769531-1.2412109c-.9287109-.3837891-2.4023438-.8574219-4.4199219-1.4228516-3.1894531-.9287109-5.5703125-2.2197266-7.1445312-3.875s-2.3613281-3.7138672-2.3613281-6.1767578c0-1.8554688.5341797-3.5205078,1.6044922-4.9951172,1.0693359-1.4726562,2.6035156-2.6425781,4.6015625-3.5117188,1.9980469-.8671875,4.3085938-1.3017578,6.9326172-1.3017578,2.3007812,0,4.4599609.34375,6.4785156,1.0292969Z"/>
      <path class="st6" d="M516.1136603,191.9444143c-1.1708984.8076172-2.5332031,1.4335938-4.0869141,1.8769531s-3.0986328.6660156-4.6318359.6660156c-7.0234375-.0410156-10.5351562-3.9150391-10.5351562-11.625v-14.8955078h-4.5410156v-6.6601562h4.5410156v-6.9628906l9.5664062-1.0898438v8.0527344h7.3867188l-1.0292969,6.6601562h-6.3574219v14.7744141c0,1.4931641.2421875,2.5634766.7265625,3.2089844s1.2509766.96875,2.3007812.96875c1.0898438,0,2.2402344-.3427734,3.4511719-1.0292969l3.2089844,6.0546875Z"/>
      <path class="st6" d="M560.6156134,161.306719l-6.6601562,32.1513672h-11.4433594l-4.2988281-23.6142578-4.2382812,23.6142578h-11.3232422l-6.8417969-32.1513672h9.6875l3.3310547,25.0068359,5.0253906-25.0068359h9.3242188l4.4199219,25.0068359,3.875-25.0068359h9.1425781Z"/>
      <path class="st6" d="M590.1624884,164.7881643c2.7861328,3.0078125,4.1787109,7.2158203,4.1787109,12.625,0,3.4306641-.6357422,6.4277344-1.9072266,8.9912109-1.2724609,2.5634766-3.0888672,4.5517578-5.4501953,5.9638672s-5.15625,2.1191406-8.3857422,2.1191406c-4.8847656,0-8.7294922-1.5029297-11.5341797-4.5107422-2.8056641-3.0068359-4.2080078-7.2148438-4.2080078-12.6240234,0-3.4306641.6357422-6.4277344,1.9072266-8.9921875,1.2714844-2.5625,3.0878906-4.5498047,5.4492188-5.9638672,2.3613281-1.4121094,5.15625-2.1191406,8.3857422-2.1191406,4.9248047,0,8.7792969,1.5048828,11.5644531,4.5107422ZM574.2386603,169.7530081c-.96875,1.6347656-1.453125,4.1689453-1.453125,7.5996094,0,3.5117188.4736328,6.0751953,1.4228516,7.6894531.9482422,1.6142578,2.4111328,2.421875,4.3896484,2.421875,1.9375,0,3.390625-.8173828,4.359375-2.4521484s1.453125-4.1679688,1.453125-7.5986328c0-3.5117188-.4746094-6.0751953-1.4228516-7.6904297-.9482422-1.6132812-2.4121094-2.421875-4.3896484-2.421875-1.9375,0-3.390625.8173828-4.359375,2.4521484Z"/>
      <path class="st6" d="M620.67909,160.822344l-1.5136719,9.2636719c-1.2109375-.28125-2.1796875-.4238281-2.90625-.4238281-1.8974609,0-3.3408203.6572266-4.3291016,1.9677734-.9892578,1.3125-1.7666016,3.2802734-2.3310547,5.9042969v15.9238281h-9.5664062v-32.1513672h8.3554688l.7871094,6.2363281c.7265625-2.21875,1.8261719-3.9658203,3.2998047-5.2373047s3.1386719-1.9072266,4.9951172-1.9072266c1.1708984,0,2.2402344.1425781,3.2089844.4238281Z"/>
      <path class="st6" d="M644.4740119,191.9444143c-1.171875.8076172-2.5341797,1.4335938-4.0869141,1.8769531-1.5546875.4433594-3.0986328.6660156-4.6318359.6660156-7.0244141-.0410156-10.5361328-3.9150391-10.5361328-11.625v-14.8955078h-4.5410156v-6.6601562h4.5410156v-6.9628906l9.5673828-1.0898438v8.0527344h7.3867188l-1.0292969,6.6601562h-6.3574219v14.7744141c0,1.4931641.2421875,2.5634766.7265625,3.2089844s1.25.96875,2.3007812.96875c1.0898438,0,2.2402344-.3427734,3.4511719-1.0292969l3.2089844,6.0546875Z"/>
      <path class="st6" d="M673.0521369,162.8203909c1.5742188,1.6953125,2.3613281,4.078125,2.3613281,7.1445312v23.4931641h-9.5664062v-21.8583984c0-1.6132812-.2636719-2.7333984-.7871094-3.3603516-.5253906-.625-1.2714844-.9384766-2.2402344-.9384766-1.9375,0-3.7949219,1.3730469-5.5703125,4.1171875v22.0400391h-9.5673828v-44.9267578l9.5673828-.96875v17.1953125c1.3320312-1.4921875,2.7441406-2.6123047,4.2382812-3.3603516,1.4921875-.7460938,3.1679688-1.1201172,5.0253906-1.1201172,2.7851562,0,4.9648438.8476562,6.5390625,2.5429688Z"/>
      <path class="st6" d="M699.9954962,193.5186331c-1.2919922,4.1572266-3.4003906,7.3564453-6.3271484,9.5966797s-6.8525391,3.5019531-11.7763672,3.7841797l-1.0292969-6.7207031c3.0673828-.4042969,5.3378906-1.0898438,6.8115234-2.0585938,1.4726562-.96875,2.6533203-2.5234375,3.5419922-4.6621094h-3.2695312l-9.8085938-32.1513672h10.171875l5.7519531,26.0361328,6.296875-26.0361328h9.8701172l-10.2333984,32.2119141Z"/>
      <path class="st6" d="M423.8402228,219.6153128l-7.0234375,41.9599609h-12.8964844l-5.2070312-32.0302734-5.5097656,32.0302734h-12.5947266l-6.9023438-41.9599609h9.9306641l4.1777344,34.4521484,5.8125-34.4521484h10.4140625l5.4492188,34.4521484,4.9042969-34.4521484h9.4453125Z"/>
      <path class="st6" d="M453.0843634,232.9053518c2.7861328,3.0078125,4.1787109,7.2158203,4.1787109,12.625,0,3.4306641-.6357422,6.4277344-1.9072266,8.9912109-1.2724609,2.5634766-3.0888672,4.5517578-5.4501953,5.9638672s-5.15625,2.1191406-8.3857422,2.1191406c-4.8847656,0-8.7294922-1.5029297-11.5341797-4.5107422-2.8056641-3.0068359-4.2080078-7.2148438-4.2080078-12.6240234,0-3.4306641.6357422-6.4277344,1.9072266-8.9921875,1.2714844-2.5625,3.0878906-4.5498047,5.4492188-5.9638672,2.3613281-1.4121094,5.15625-2.1191406,8.3857422-2.1191406,4.9248047,0,8.7792969,1.5048828,11.5644531,4.5107422ZM437.1605353,237.8701956c-.96875,1.6347656-1.453125,4.1689453-1.453125,7.5996094,0,3.5117188.4736328,6.0751953,1.4228516,7.6894531.9482422,1.6142578,2.4111328,2.421875,4.3896484,2.421875,1.9375,0,3.390625-.8173828,4.359375-2.4521484s1.453125-4.1679688,1.453125-7.5986328c0-3.5117188-.4746094-6.0751953-1.4228516-7.6904297-.9482422-1.6132812-2.4121094-2.421875-4.3896484-2.421875-1.9375,0-3.390625.8173828-4.359375,2.4521484Z"/>
      <path class="st6" d="M483.600965,228.9395315l-1.5136719,9.2636719c-1.2109375-.28125-2.1796875-.4238281-2.90625-.4238281-1.8974609,0-3.3408203.6572266-4.3291016,1.9677734-.9892578,1.3125-1.7666016,3.2802734-2.3310547,5.9042969v15.9238281h-9.5664062v-32.1513672h8.3554688l.7871094,6.2363281c.7265625-2.21875,1.8261719-3.9658203,3.2998047-5.2373047s3.1386719-1.9072266,4.9951172-1.9072266c1.1708984,0,2.2402344.1425781,3.2089844.4238281Z"/>
      <path class="st6" d="M496.8001837,215.619219v45.9560547h-9.5673828v-44.9267578l9.5673828-1.0292969ZM516.6595587,229.4239065l-9.7480469,14.1083984,10.5351562,18.0429688h-10.7773438l-9.5664062-17.5585938,9.8085938-14.5927734h9.7480469Z"/>
      <path class="st6" d="M522.6829962,260.212969c-1.5537109-1.59375-2.3310547-3.8642578-2.3310547-6.8115234v-36.7529297l9.5673828-1.0292969v37.4189453c0,1.3320312.5449219,1.9980469,1.6347656,1.9980469.5644531,0,1.0898438-.1005859,1.5742188-.3027344l1.8769531,6.78125c-1.7363281.7265625-3.6738281,1.0898438-5.8125,1.0898438-2.7861328,0-4.9560547-.7978516-6.5097656-2.3916016Z"/>
      <path class="st6" d="M563.8265509,232.9053518c2.7851562,3.0078125,4.1777344,7.2158203,4.1777344,12.625,0,3.4306641-.6357422,6.4277344-1.9072266,8.9912109s-3.0878906,4.5517578-5.4492188,5.9638672-5.1572266,2.1191406-8.3857422,2.1191406c-4.8847656,0-8.7294922-1.5029297-11.5351562-4.5107422-2.8056641-3.0068359-4.2080078-7.2148438-4.2080078-12.6240234,0-3.4306641.6357422-6.4277344,1.9072266-8.9921875,1.2714844-2.5625,3.0878906-4.5498047,5.4492188-5.9638672,2.3623047-1.4121094,5.15625-2.1191406,8.3867188-2.1191406,4.9238281,0,8.7792969,1.5048828,11.5644531,4.5107422ZM547.9027228,237.8701956c-.96875,1.6347656-1.453125,4.1689453-1.453125,7.5996094,0,3.5117188.4736328,6.0751953,1.4228516,7.6894531.9472656,1.6142578,2.4111328,2.421875,4.3896484,2.421875,1.9375,0,3.390625-.8173828,4.359375-2.4521484s1.453125-4.1679688,1.453125-7.5986328c0-3.5117188-.4755859-6.0751953-1.4228516-7.6904297-.9492188-1.6132812-2.4130859-2.421875-4.3896484-2.421875-1.9375,0-3.390625.8173828-4.359375,2.4521484Z"/>
      <path class="st6" d="M599.1566291,254.9151175c.3427734.5654297.8974609.9892578,1.6650391,1.2714844l-1.9980469,6.2363281c-1.9785156-.1621094-3.5927734-.5957031-4.84375-1.3017578-1.2519531-.7060547-2.2207031-1.8261719-2.90625-3.3603516-2.0996094,3.2294922-5.328125,4.84375-9.6875,4.84375-3.1894531,0-5.7324219-.9287109-7.6298828-2.7851562s-2.8457031-4.2783203-2.8457031-7.265625c0-3.5117188,1.2919922-6.1962891,3.875-8.0527344s6.3173828-2.7851562,11.2021484-2.7851562h3.2695312v-1.3935547c0-1.8964844-.4042969-3.1982422-1.2109375-3.9052734-.8085938-.7050781-2.2207031-1.0595703-4.2382812-1.0595703-1.0507812,0-2.3222656.1513672-3.8144531.4541016-1.4941406.3027344-3.0283203.7177734-4.6025391,1.2412109l-2.1796875-6.296875c2.0185547-.765625,4.0869141-1.3515625,6.2060547-1.7558594,2.1201172-.4023438,4.0878906-.6054688,5.9042969-.6054688,4.6015625,0,7.9716797.9492188,10.1113281,2.8457031,2.1386719,1.8984375,3.2089844,4.7441406,3.2089844,8.5371094v12.4736328c0,1.2109375.1708984,2.0986328.5146484,2.6640625ZM589.257215,252.6748831v-5.6914062h-2.3613281c-2.1796875,0-3.8056641.3837891-4.8740234,1.1503906-1.0703125.7666016-1.6044922,1.9580078-1.6044922,3.5722656,0,1.2919922.3330078,2.2910156.9990234,2.9970703.6660156.7070312,1.5830078,1.0595703,2.7548828,1.0595703,2.1796875,0,3.875-1.0292969,5.0859375-3.0878906Z"/>
      <path class="st6" d="M635.0921759,216.6485159v44.9267578h-8.4775391l-.484375-3.7539062c-2.2607422,3.1894531-5.3076172,4.7832031-9.1425781,4.7832031-3.9960938,0-7.0341797-1.5332031-9.1123047-4.6015625-2.0791016-3.0673828-3.1181641-7.265625-3.1181641-12.59375,0-3.2695312.5449219-6.1962891,1.6347656-8.7802734,1.0898438-2.5820312,2.6337891-4.6015625,4.6318359-6.0546875s4.2880859-2.1796875,6.8720703-2.1796875c3.0673828,0,5.6103516,1.0097656,7.6289062,3.0273438v-15.8027344l9.5673828,1.0292969ZM625.5247931,251.9483206v-13.8662109c-.7666016-.9277344-1.5439453-1.6132812-2.3310547-2.0585938-.7871094-.4433594-1.6855469-.6660156-2.6943359-.6660156-1.7763672,0-3.1894531.828125-4.2382812,2.4824219-1.0498047,1.65625-1.5742188,4.1992188-1.5742188,7.6298828,0,3.7539062.4541016,6.3779297,1.3623047,7.8710938s2.2099609,2.2402344,3.9052734,2.2402344c2.2197266,0,4.0771484-1.2109375,5.5703125-3.6328125Z"/>
      <path class="st6" d="M667.0609259,219.6153128v41.9599609h-9.9306641v-41.9599609h9.9306641Z"/>
      <path class="st6" d="M703.5111212,216.6485159v44.9267578h-8.4775391l-.484375-3.7539062c-2.2607422,3.1894531-5.3076172,4.7832031-9.1425781,4.7832031-3.9960938,0-7.0341797-1.5332031-9.1123047-4.6015625-2.0791016-3.0673828-3.1181641-7.265625-3.1181641-12.59375,0-3.2695312.5449219-6.1962891,1.6347656-8.7802734,1.0898438-2.5820312,2.6337891-4.6015625,4.6318359-6.0546875s4.2880859-2.1796875,6.8720703-2.1796875c3.0673828,0,5.6103516,1.0097656,7.6289062,3.0273438v-15.8027344l9.5673828,1.0292969ZM693.9437384,251.9483206v-13.8662109c-.7666016-.9277344-1.5439453-1.6132812-2.3310547-2.0585938-.7871094-.4433594-1.6855469-.6660156-2.6943359-.6660156-1.7763672,0-3.1894531.828125-4.2382812,2.4824219-1.0498047,1.65625-1.5742188,4.1992188-1.5742188,7.6298828,0,3.7539062.4541016,6.3779297,1.3623047,7.8710938s2.2099609,2.2402344,3.9052734,2.2402344c2.2197266,0,4.0771484-1.2109375,5.5703125-3.6328125Z"/>
      <path class="st6" d="M738.8704962,248.3155081h-19.9208984c.3222656,2.7041016,1.0898438,4.6015625,2.3007812,5.6914062s2.8857422,1.6347656,5.0253906,1.6347656c1.2919922,0,2.5429688-.2314453,3.7539062-.6962891,1.2109375-.4638672,2.5224609-1.1806641,3.9355469-2.1494141l3.9355469,5.328125c-3.7539062,2.9873047-7.9316406,4.4804688-12.5332031,4.4804688-5.2070312,0-9.203125-1.5332031-11.9882812-4.6015625-2.7851562-3.0673828-4.1777344-7.1845703-4.1777344-12.3515625,0-3.2695312.5839844-6.2070312,1.7558594-8.8105469,1.1699219-2.6035156,2.8857422-4.6621094,5.1464844-6.1757812,2.2597656-1.5136719,4.9648438-2.2705078,8.1132812-2.2705078,4.6416016,0,8.2744141,1.453125,10.8984375,4.359375s3.9365234,6.9433594,3.9365234,12.1103516c0,1.3320312-.0605469,2.4824219-.1816406,3.4511719ZM729.6663947,242.1397268c-.0810547-4.9248047-1.8164062-7.3876953-5.2070312-7.3876953-1.6552734,0-2.9365234.6054688-3.8447266,1.8164062s-1.4638672,3.2089844-1.6650391,5.9951172h10.7167969v-.4238281Z"/>
      <path class="st6" d="M769.8089728,230.9375784c1.5742188,1.6953125,2.3623047,4.078125,2.3623047,7.1445312v23.4931641h-9.5673828v-21.8583984c0-1.6132812-.2519531-2.7333984-.7568359-3.3603516-.5048828-.625-1.2617188-.9384766-2.2705078-.9384766-1.9375,0-3.7949219,1.3925781-5.5703125,4.1777344v21.9794922h-9.5664062v-32.1513672h8.3554688l.6660156,3.8144531c1.3720703-1.6132812,2.8554688-2.8242188,4.4501953-3.6328125,1.5947266-.8066406,3.3808594-1.2109375,5.3583984-1.2109375,2.7851562,0,4.9648438.8476562,6.5390625,2.5429688Z"/>
      <path class="st6" d="M799.538465,260.0616018c-1.171875.8076172-2.5341797,1.4335938-4.0869141,1.8769531-1.5546875.4433594-3.0986328.6660156-4.6318359.6660156-7.0244141-.0410156-10.5361328-3.9150391-10.5361328-11.625v-14.8955078h-4.5410156v-6.6601562h4.5410156v-6.9628906l9.5673828-1.0898438v8.0527344h7.3867188l-1.0292969,6.6601562h-6.3574219v14.7744141c0,1.4931641.2421875,2.5634766.7265625,3.2089844s1.25.96875,2.3007812.96875c1.0898438,0,2.2402344-.3427734,3.4511719-1.0292969l3.2089844,6.0546875Z"/>
      <path class="st6" d="M811.5570197,214.0147268c1.0683594,1.0292969,1.6044922,2.3310547,1.6044922,3.9052734s-.5361328,2.8759766-1.6044922,3.9052734c-1.0703125,1.0292969-2.4326172,1.5439453-4.0878906,1.5439453s-3.0068359-.5146484-4.0566406-1.5439453-1.5742188-2.3310547-1.5742188-3.9052734.5244141-2.8759766,1.5742188-3.9052734,2.4013672-1.5439453,4.0566406-1.5439453,3.0175781.5146484,4.0878906,1.5439453ZM812.3138556,229.4239065v32.1513672h-9.5673828v-32.1513672h9.5673828Z"/>
      <path class="st6" d="M839.9837775,260.0616018c-1.171875.8076172-2.5341797,1.4335938-4.0869141,1.8769531-1.5546875.4433594-3.0986328.6660156-4.6318359.6660156-7.0244141-.0410156-10.5361328-3.9150391-10.5361328-11.625v-14.8955078h-4.5410156v-6.6601562h4.5410156v-6.9628906l9.5673828-1.0898438v8.0527344h7.3867188l-1.0292969,6.6601562h-6.3574219v14.7744141c0,1.4931641.2421875,2.5634766.7265625,3.2089844s1.25.96875,2.3007812.96875c1.0898438,0,2.2402344-.3427734,3.4511719-1.0292969l3.2089844,6.0546875Z"/>
      <path class="st6" d="M860.6302619,261.6358206c-1.2919922,4.1572266-3.4003906,7.3564453-6.3271484,9.5966797s-6.8525391,3.5019531-11.7763672,3.7841797l-1.0292969-6.7207031c3.0673828-.4042969,5.3378906-1.0898438,6.8115234-2.0585938,1.4726562-.96875,2.6533203-2.5234375,3.5419922-4.6621094h-3.2695312l-9.8085938-32.1513672h10.171875l5.7519531,26.0361328,6.296875-26.0361328h9.8701172l-10.2333984,32.2119141Z"/>
      <path class="st6" d="M398.80409,288.0342581c2.3203125.8886719,4.4296875,2.2402344,6.3271484,4.0566406l-4.6015625,5.3886719c-2.8662109-2.3408203-5.9335938-3.5117188-9.203125-3.5117188-1.7363281,0-3.109375.3535156-4.1171875,1.0595703-1.0097656.7070312-1.5136719,1.7255859-1.5136719,3.0576172,0,.9296875.2207031,1.6865234.6660156,2.2705078.4433594.5859375,1.2304688,1.1416016,2.3613281,1.6650391,1.1289062.5253906,2.8242188,1.1503906,5.0859375,1.8769531,4.2783203,1.3730469,7.4267578,3.0576172,9.4453125,5.0556641,2.0175781,1.9990234,3.0273438,4.8349609,3.0273438,8.5078125,0,2.6240234-.6660156,4.9345703-1.9980469,6.9326172s-3.25,3.5527344-5.7519531,4.6621094c-2.5039062,1.109375-5.4707031,1.6650391-8.9003906,1.6650391-3.4316406,0-6.4697266-.5449219-9.1132812-1.6347656s-4.9140625-2.5429688-6.8115234-4.359375l5.0253906-5.5097656c1.6142578,1.3720703,3.2792969,2.4013672,4.9960938,3.0878906,1.7148438.6865234,3.5810547,1.0292969,5.6005859,1.0292969,2.0585938,0,3.6826172-.4541016,4.8740234-1.3623047,1.1894531-.9082031,1.7861328-2.1699219,1.7861328-3.7841797,0-1.0498047-.2226562-1.9277344-.6660156-2.6337891-.4453125-.7060547-1.2109375-1.3417969-2.3007812-1.9072266s-2.6640625-1.1708984-4.7226562-1.8164062c-4.6425781-1.4130859-7.9423828-3.1494141-9.9003906-5.2080078s-2.9365234-4.6621094-2.9365234-7.8105469c0-2.421875.6455078-4.5507812,1.9375-6.3876953,1.2919922-1.8359375,3.0878906-3.2490234,5.3886719-4.2382812,2.3017578-.9882812,4.9052734-1.4833984,7.8115234-1.4833984,3.1484375,0,5.8818359.4443359,8.2041016,1.3320312Z"/>
      <path class="st6" d="M438.7347541,300.9912893c1.9775391,2.9882812,2.9677734,7.1660156,2.9677734,12.5341797,0,3.3095703-.5146484,6.2666016-1.5439453,8.8701172s-2.5136719,4.6425781-4.4511719,6.1152344-4.1982422,2.2099609-6.78125,2.2099609c-3.2294922,0-5.8330078-1.109375-7.8105469-3.3300781v14.7128906l-9.5664062,1.0292969v-45.5927734h8.4160156l.484375,3.5722656c1.2509766-1.5742188,2.6835938-2.7333984,4.2988281-3.4814453,1.6142578-.7460938,3.2695312-1.1201172,4.9648438-1.1201172,4.0361328,0,7.0439453,1.4941406,9.0214844,4.4804688ZM431.7718634,313.6465628c0-3.7939453-.4238281-6.4277344-1.2714844-7.9023438-.8476562-1.4726562-2.1191406-2.2099609-3.8144531-2.2099609-1.0898438,0-2.109375.3242188-3.0576172.96875-.9492188.6464844-1.7861328,1.5742188-2.5126953,2.7851562v13.5634766c1.2910156,1.8974609,2.9257812,2.8457031,4.9042969,2.8457031,3.8349609,0,5.7519531-3.3505859,5.7519531-10.0507812Z"/>
      <path class="st6" d="M475.5472541,316.431719h-19.9199219c.3222656,2.7041016,1.0898438,4.6015625,2.3007812,5.6914062s2.8847656,1.6347656,5.0253906,1.6347656c1.2910156,0,2.5429688-.2314453,3.7539062-.6962891,1.2109375-.4638672,2.5224609-1.1806641,3.9355469-2.1494141l3.9355469,5.328125c-3.7539062,2.9873047-7.9316406,4.4804688-12.5332031,4.4804688-5.2070312,0-9.2041016-1.5332031-11.9892578-4.6015625-2.7851562-3.0673828-4.1777344-7.1845703-4.1777344-12.3515625,0-3.2695312.5849609-6.2070312,1.7558594-8.8105469s2.8857422-4.6621094,5.1464844-6.1757812,4.9658203-2.2705078,8.1142578-2.2705078c4.640625,0,8.2744141,1.453125,10.8984375,4.359375,2.6230469,2.90625,3.9355469,6.9433594,3.9355469,12.1103516,0,1.3320312-.0605469,2.4824219-.1816406,3.4511719ZM466.3441291,310.2559378c-.0820312-4.9248047-1.8164062-7.3876953-5.2070312-7.3876953-1.65625,0-2.9365234.6054688-3.8447266,1.8164062s-1.4638672,3.2089844-1.6650391,5.9951172h10.7167969v-.4238281Z"/>
      <path class="st6" d="M501.0374884,297.4795706c1.7753906.6464844,3.4511719,1.6347656,5.0253906,2.9667969l-4.1171875,5.6914062c-2.0195312-1.5332031-4.0566406-2.3007812-6.1152344-2.3007812-2.140625,0-3.7539062.7871094-4.84375,2.3613281s-1.6347656,4.1181641-1.6347656,7.6298828c0,3.390625.5449219,5.7919922,1.6347656,7.2050781s2.6640625,2.1191406,4.7226562,2.1191406c1.0898438,0,2.078125-.171875,2.9667969-.5146484.8867188-.3427734,1.9570312-.8984375,3.2089844-1.6650391l4.1777344,5.9335938c-3.1894531,2.5429688-6.8027344,3.8144531-10.8378906,3.8144531-3.2695312,0-6.0957031-.6962891-8.4775391-2.0888672s-4.2177734-3.3496094-5.5097656-5.8730469c-1.2919922-2.5224609-1.9375-5.4794922-1.9375-8.8701172s.6455078-6.3974609,1.9375-9.0224609c1.2919922-2.6230469,3.1279297-4.6708984,5.5097656-6.1455078,2.3818359-1.4726562,5.1474609-2.2099609,8.2958984-2.2099609,2.21875,0,4.2167969.3242188,5.9941406.96875Z"/>
      <path class="st6" d="M518.92909,282.1309378c1.0683594,1.0292969,1.6044922,2.3310547,1.6044922,3.9052734s-.5361328,2.8759766-1.6044922,3.9052734c-1.0703125,1.0292969-2.4326172,1.5439453-4.0878906,1.5439453s-3.0068359-.5146484-4.0566406-1.5439453-1.5742188-2.3310547-1.5742188-3.9052734.5244141-2.8759766,1.5742188-3.9052734,2.4013672-1.5439453,4.0566406-1.5439453,3.0175781.5146484,4.0878906,1.5439453ZM519.6859259,297.5401175v32.1513672h-9.5673828v-32.1513672h9.5673828Z"/>
      <path class="st6" d="M553.2591681,323.0313284c.3427734.5654297.8984375.9892578,1.6660156,1.2714844l-1.9990234,6.2363281c-1.9775391-.1621094-3.5927734-.5957031-4.84375-1.3017578s-2.2197266-1.8261719-2.90625-3.3603516c-2.0986328,3.2294922-5.328125,4.84375-9.6875,4.84375-3.1894531,0-5.7324219-.9287109-7.6289062-2.7851562-1.8984375-1.8564453-2.8457031-4.2783203-2.8457031-7.265625,0-3.5117188,1.2910156-6.1962891,3.875-8.0527344,2.5830078-1.8564453,6.3164062-2.7851562,11.2011719-2.7851562h3.2695312v-1.3935547c0-1.8964844-.4033203-3.1982422-1.2109375-3.9052734-.8076172-.7050781-2.2207031-1.0595703-4.2382812-1.0595703-1.0498047,0-2.3212891.1513672-3.8144531.4541016-1.4941406.3027344-3.0273438.7177734-4.6015625,1.2412109l-2.1796875-6.296875c2.0175781-.765625,4.0869141-1.3515625,6.2060547-1.7558594,2.1191406-.4023438,4.0869141-.6054688,5.9033203-.6054688,4.6015625,0,7.9716797.9492188,10.1113281,2.8457031,2.1396484,1.8984375,3.2089844,4.7441406,3.2089844,8.5371094v12.4736328c0,1.2109375.171875,2.0986328.5146484,2.6640625ZM543.3597541,320.791094v-5.6914062h-2.3613281c-2.1796875,0-3.8046875.3837891-4.8740234,1.1503906-1.0703125.7666016-1.6044922,1.9580078-1.6044922,3.5722656,0,1.2919922.3330078,2.2910156.9990234,2.9970703.6660156.7070312,1.5839844,1.0595703,2.7548828,1.0595703,2.1796875,0,3.875-1.0292969,5.0859375-3.0878906Z"/>
      <path class="st6" d="M561.7962775,328.32918c-1.5537109-1.59375-2.3310547-3.8642578-2.3310547-6.8115234v-36.7529297l9.5673828-1.0292969v37.4189453c0,1.3320312.5449219,1.9980469,1.6347656,1.9980469.5644531,0,1.0898438-.1005859,1.5742188-.3027344l1.8769531,6.78125c-1.7363281.7265625-3.6738281,1.0898438-5.8125,1.0898438-2.7861328,0-4.9560547-.7978516-6.5097656-2.3916016Z"/>
      <path class="st6" d="M602.2122931,287.7315237v41.9599609h-9.9296875v-41.9599609h9.9296875Z"/>
      <path class="st6" d="M635.2113166,299.0537893c1.5742188,1.6953125,2.3613281,4.078125,2.3613281,7.1445312v23.4931641h-9.5664062v-21.8583984c0-1.6132812-.2529297-2.7333984-.7568359-3.3603516-.5058594-.625-1.2626953-.9384766-2.2705078-.9384766-1.9375,0-3.7949219,1.3925781-5.5703125,4.1777344v21.9794922h-9.5673828v-32.1513672h8.3564453l.6660156,3.8144531c1.3710938-1.6132812,2.8544922-2.8242188,4.4501953-3.6328125,1.59375-.8066406,3.3798828-1.2109375,5.3583984-1.2109375,2.7851562,0,4.9648438.8476562,6.5390625,2.5429688Z"/>
      <path class="st6" d="M664.9398322,328.1778128c-1.1708984.8076172-2.5332031,1.4335938-4.0869141,1.8769531s-3.0986328.6660156-4.6318359.6660156c-7.0234375-.0410156-10.5351562-3.9150391-10.5351562-11.625v-14.8955078h-4.5410156v-6.6601562h4.5410156v-6.9628906l9.5664062-1.0898438v8.0527344h7.3867188l-1.0292969,6.6601562h-6.3574219v14.7744141c0,1.4931641.2421875,2.5634766.7265625,3.2089844s1.2509766.96875,2.3007812.96875c1.0898438,0,2.2402344-.3427734,3.4511719-1.0292969l3.2089844,6.0546875Z"/>
      <path class="st6" d="M694.9115119,316.431719h-19.9208984c.3222656,2.7041016,1.0898438,4.6015625,2.3007812,5.6914062s2.8857422,1.6347656,5.0253906,1.6347656c1.2919922,0,2.5429688-.2314453,3.7539062-.6962891,1.2109375-.4638672,2.5224609-1.1806641,3.9355469-2.1494141l3.9355469,5.328125c-3.7539062,2.9873047-7.9316406,4.4804688-12.5332031,4.4804688-5.2070312,0-9.203125-1.5332031-11.9882812-4.6015625-2.7851562-3.0673828-4.1777344-7.1845703-4.1777344-12.3515625,0-3.2695312.5839844-6.2070312,1.7558594-8.8105469,1.1699219-2.6035156,2.8857422-4.6621094,5.1464844-6.1757812,2.2597656-1.5136719,4.9648438-2.2705078,8.1132812-2.2705078,4.6416016,0,8.2744141,1.453125,10.8984375,4.359375s3.9365234,6.9433594,3.9365234,12.1103516c0,1.3320312-.0605469,2.4824219-.1816406,3.4511719ZM685.7074103,310.2559378c-.0810547-4.9248047-1.8164062-7.3876953-5.2070312-7.3876953-1.6552734,0-2.9365234.6054688-3.8447266,1.8164062s-1.4638672,3.2089844-1.6650391,5.9951172h10.7167969v-.4238281Z"/>
      <path class="st6" d="M721.1273322,297.0557425l-1.5136719,9.2636719c-1.2109375-.28125-2.1796875-.4238281-2.90625-.4238281-1.8974609,0-3.3408203.6572266-4.3291016,1.9677734-.9892578,1.3125-1.7666016,3.2802734-2.3310547,5.9042969v15.9238281h-9.5664062v-32.1513672h8.3554688l.7871094,6.2363281c.7265625-2.21875,1.8261719-3.9658203,3.2998047-5.2373047s3.1386719-1.9072266,4.9951172-1.9072266c1.1708984,0,2.2402344.1425781,3.2089844.4238281Z"/>
      <path class="st6" d="M750.7962775,316.431719h-19.9208984c.3222656,2.7041016,1.0898438,4.6015625,2.3007812,5.6914062s2.8857422,1.6347656,5.0253906,1.6347656c1.2919922,0,2.5429688-.2314453,3.7539062-.6962891,1.2109375-.4638672,2.5224609-1.1806641,3.9355469-2.1494141l3.9355469,5.328125c-3.7539062,2.9873047-7.9316406,4.4804688-12.5332031,4.4804688-5.2070312,0-9.203125-1.5332031-11.9882812-4.6015625-2.7851562-3.0673828-4.1777344-7.1845703-4.1777344-12.3515625,0-3.2695312.5839844-6.2070312,1.7558594-8.8105469,1.1699219-2.6035156,2.8857422-4.6621094,5.1464844-6.1757812,2.2597656-1.5136719,4.9648438-2.2705078,8.1132812-2.2705078,4.6416016,0,8.2744141,1.453125,10.8984375,4.359375s3.9365234,6.9433594,3.9365234,12.1103516c0,1.3320312-.0605469,2.4824219-.1816406,3.4511719ZM741.5921759,310.2559378c-.0810547-4.9248047-1.8164062-7.3876953-5.2070312-7.3876953-1.6552734,0-2.9365234.6054688-3.8447266,1.8164062s-1.4638672,3.2089844-1.6650391,5.9951172h10.7167969v-.4238281Z"/>
      <path class="st6" d="M774.1663947,297.5401175c2.0185547.6875,3.7939453,1.65625,5.328125,2.90625l-3.5117188,5.3886719c-2.6240234-1.6542969-5.2675781-2.4824219-7.9316406-2.4824219-1.2519531,0-2.2099609.2119141-2.8759766.6357422s-.9990234,1.0205078-.9990234,1.7861328c0,.6054688.1513672,1.1005859.4541016,1.4833984.3027344.3847656.9179688.7783203,1.8466797,1.1806641.9277344.4042969,2.3613281.8886719,4.2988281,1.4541016,3.3505859.96875,5.8427734,2.2304688,7.4775391,3.7841797s2.4521484,3.703125,2.4521484,6.4482422c0,2.1796875-.6259766,4.0673828-1.8769531,5.6611328-1.2509766,1.5947266-2.9667969,2.8154297-5.1464844,3.6630859s-4.6015625,1.2714844-7.265625,1.2714844c-2.7050781,0-5.2177734-.4238281-7.5380859-1.2714844-2.3212891-.8476562-4.2900391-2.0175781-5.9033203-3.5117188l4.6621094-5.2070312c2.7041016,2.0986328,5.5498047,3.1484375,8.5371094,3.1484375,1.453125,0,2.5927734-.2617188,3.4208984-.7871094.8271484-.5244141,1.2412109-1.2714844,1.2412109-2.2402344,0-.7666016-.1611328-1.3720703-.484375-1.8164062s-.9492188-.8574219-1.8769531-1.2412109c-.9287109-.3837891-2.4023438-.8574219-4.4199219-1.4228516-3.1894531-.9287109-5.5703125-2.2197266-7.1445312-3.875s-2.3613281-3.7138672-2.3613281-6.1767578c0-1.8554688.5341797-3.5205078,1.6044922-4.9951172,1.0693359-1.4726562,2.6035156-2.6425781,4.6015625-3.5117188,1.9980469-.8671875,4.3085938-1.3017578,6.9326172-1.3017578,2.3007812,0,4.4599609.34375,6.4785156,1.0292969Z"/>
      <path class="st6" d="M805.7718634,328.1778128c-1.1708984.8076172-2.5332031,1.4335938-4.0869141,1.8769531s-3.0986328.6660156-4.6318359.6660156c-7.0234375-.0410156-10.5351562-3.9150391-10.5351562-11.625v-14.8955078h-4.5410156v-6.6601562h4.5410156v-6.9628906l9.5664062-1.0898438v8.0527344h7.3867188l-1.0292969,6.6601562h-6.3574219v14.7744141c0,1.4931641.2421875,2.5634766.7265625,3.2089844s1.2509766.96875,2.3007812.96875c1.0898438,0,2.2402344-.3427734,3.4511719-1.0292969l3.2089844,6.0546875Z"/>
      <path class="st6" d="M855.663465,291.8487112l-5.0253906,5.2675781c-1.4941406-1.1298828-2.8769531-1.9472656-4.1484375-2.4521484-1.2714844-.5039062-2.734375-.7568359-4.3896484-.7568359-3.1083984,0-5.5908203,1.2216797-7.4472656,3.6630859-1.8574219,2.4433594-2.7851562,6.1455078-2.7851562,11.1103516,0,5.3691406.7060547,9.1738281,2.1191406,11.4140625,1.4121094,2.2402344,3.6123047,3.3603516,6.5996094,3.3603516,2.0986328,0,3.9960938-.4638672,5.6914062-1.3925781v-9.5058594h-5.4492188l-.96875-7.0244141h16.0458984v20.7685547c-2.1796875,1.4130859-4.5820312,2.5029297-7.2060547,3.2695312s-5.2470703,1.1503906-7.8710938,1.1503906c-6.3779297,0-11.1816406-1.8662109-14.4101562-5.6005859-3.2294922-3.7333984-4.84375-9.2128906-4.84375-16.4394531,0-4.6015625.8779297-8.5566406,2.6337891-11.8671875,1.7558594-3.3095703,4.1572266-5.8222656,7.2050781-7.5380859,3.046875-1.7148438,6.46875-2.5732422,10.2626953-2.5732422,5.4091797,0,10.0712891,1.7158203,13.9873047,5.1464844Z"/>
      <path class="st6" d="M883.0296759,297.0557425l-1.5136719,9.2636719c-1.2109375-.28125-2.1796875-.4238281-2.90625-.4238281-1.8974609,0-3.3408203.6572266-4.3291016,1.9677734-.9892578,1.3125-1.7666016,3.2802734-2.3310547,5.9042969v15.9238281h-9.5664062v-32.1513672h8.3554688l.7871094,6.2363281c.7265625-2.21875,1.8261719-3.9658203,3.2998047-5.2373047s3.1386719-1.9072266,4.9951172-1.9072266c1.1708984,0,2.2402344.1425781,3.2089844.4238281Z"/>
      <path class="st6" d="M910.3363166,301.0215628c2.7861328,3.0078125,4.1787109,7.2158203,4.1787109,12.625,0,3.4306641-.6357422,6.4277344-1.9072266,8.9912109-1.2724609,2.5634766-3.0888672,4.5517578-5.4501953,5.9638672s-5.15625,2.1191406-8.3857422,2.1191406c-4.8847656,0-8.7294922-1.5029297-11.5341797-4.5107422-2.8056641-3.0068359-4.2080078-7.2148438-4.2080078-12.6240234,0-3.4306641.6357422-6.4277344,1.9072266-8.9921875,1.2714844-2.5625,3.0878906-4.5498047,5.4492188-5.9638672,2.3613281-1.4121094,5.15625-2.1191406,8.3857422-2.1191406,4.9248047,0,8.7792969,1.5048828,11.5644531,4.5107422ZM894.4124884,305.9864065c-.96875,1.6347656-1.453125,4.1689453-1.453125,7.5996094,0,3.5117188.4736328,6.0751953,1.4228516,7.6894531.9482422,1.6142578,2.4111328,2.421875,4.3896484,2.421875,1.9375,0,3.390625-.8173828,4.359375-2.4521484s1.453125-4.1679688,1.453125-7.5986328c0-3.5117188-.4746094-6.0751953-1.4228516-7.6904297-.9482422-1.6132812-2.4121094-2.421875-4.3896484-2.421875-1.9375,0-3.390625.8173828-4.359375,2.4521484Z"/>
      <path class="st6" d="M947.3314337,329.6914847h-8.2949219l-.4238281-4.0566406c-2.3417969,3.390625-5.5917969,5.0859375-9.7480469,5.0859375-2.9472656,0-5.1777344-.8886719-6.6914062-2.6640625s-2.2705078-4.2578125-2.2705078-7.4472656v-23.0693359h9.5673828v21.8583984c0,1.5742188.2509766,2.6738281.7568359,3.2998047.5039062.6259766,1.2802734.9384766,2.3310547.9384766,2.0175781,0,3.7539062-1.2509766,5.2070312-3.7539062v-22.3427734h9.5664062v32.1513672Z"/>
      <path class="st6" d="M982.0247931,300.9912893c1.9775391,2.9882812,2.9677734,7.1660156,2.9677734,12.5341797,0,3.3095703-.5146484,6.2666016-1.5439453,8.8701172s-2.5136719,4.6425781-4.4511719,6.1152344-4.1982422,2.2099609-6.78125,2.2099609c-3.2294922,0-5.8330078-1.109375-7.8105469-3.3300781v14.7128906l-9.5664062,1.0292969v-45.5927734h8.4160156l.484375,3.5722656c1.2509766-1.5742188,2.6835938-2.7333984,4.2988281-3.4814453,1.6142578-.7460938,3.2695312-1.1201172,4.9648438-1.1201172,4.0361328,0,7.0439453,1.4941406,9.0214844,4.4804688ZM975.0619025,313.6465628c0-3.7939453-.4238281-6.4277344-1.2714844-7.9023438-.8476562-1.4726562-2.1191406-2.2099609-3.8144531-2.2099609-1.0898438,0-2.109375.3242188-3.0576172.96875-.9492188.6464844-1.7861328,1.5742188-2.5126953,2.7851562v13.5634766c1.2910156,1.8974609,2.9257812,2.8457031,4.9042969,2.8457031,3.8349609,0,5.7519531-3.3505859,5.7519531-10.0507812Z"/>
    </g>
    <g>
      <path class="st1" d="M405.7972541,151.4981253l-.96875,7.6289062h-10.3535156v34.3310547h-9.9296875v-34.3310547h-10.8388672v-7.6289062h32.0908203Z"/>
      <path class="st1" d="M428.4417853,160.822344l-1.5136719,9.2636719c-1.2109375-.28125-2.1796875-.4238281-2.90625-.4238281-1.8974609,0-3.3408203.6572266-4.3291016,1.9677734-.9892578,1.3125-1.7666016,3.2802734-2.3310547,5.9042969v15.9238281h-9.5664062v-32.1513672h8.3554688l.7871094,6.2363281c.7265625-2.21875,1.8261719-3.9658203,3.2998047-5.2373047s3.1386719-1.9072266,4.9951172-1.9072266c1.1708984,0,2.2402344.1425781,3.2089844.4238281Z"/>
      <path class="st1" d="M459.1995978,193.4580862h-8.2949219l-.4238281-4.0566406c-2.3417969,3.390625-5.5917969,5.0859375-9.7480469,5.0859375-2.9472656,0-5.1777344-.8886719-6.6914062-2.6640625s-2.2705078-4.2578125-2.2705078-7.4472656v-23.0693359h9.5673828v21.8583984c0,1.5742188.2509766,2.6738281.7568359,3.2998047.5039062.6259766,1.2802734.9384766,2.3310547.9384766,2.0175781,0,3.7539062-1.2509766,5.2070312-3.7539062v-22.3427734h9.5664062v32.1513672Z"/>
      <path class="st1" d="M484.5081916,161.306719c2.0185547.6875,3.7939453,1.65625,5.328125,2.90625l-3.5117188,5.3886719c-2.6240234-1.6542969-5.2675781-2.4824219-7.9316406-2.4824219-1.2519531,0-2.2099609.2119141-2.8759766.6357422s-.9990234,1.0205078-.9990234,1.7861328c0,.6054688.1513672,1.1005859.4541016,1.4833984.3027344.3847656.9179688.7783203,1.8466797,1.1806641.9277344.4042969,2.3613281.8886719,4.2988281,1.4541016,3.3505859.96875,5.8427734,2.2304688,7.4775391,3.7841797s2.4521484,3.703125,2.4521484,6.4482422c0,2.1796875-.6259766,4.0673828-1.8769531,5.6611328-1.2509766,1.5947266-2.9667969,2.8154297-5.1464844,3.6630859s-4.6015625,1.2714844-7.265625,1.2714844c-2.7050781,0-5.2177734-.4238281-7.5380859-1.2714844-2.3212891-.8476562-4.2900391-2.0175781-5.9033203-3.5117188l4.6621094-5.2070312c2.7041016,2.0986328,5.5498047,3.1484375,8.5371094,3.1484375,1.453125,0,2.5927734-.2617188,3.4208984-.7871094.8271484-.5244141,1.2412109-1.2714844,1.2412109-2.2402344,0-.7666016-.1611328-1.3720703-.484375-1.8164062s-.9492188-.8574219-1.8769531-1.2412109c-.9287109-.3837891-2.4023438-.8574219-4.4199219-1.4228516-3.1894531-.9287109-5.5703125-2.2197266-7.1445312-3.875s-2.3613281-3.7138672-2.3613281-6.1767578c0-1.8554688.5341797-3.5205078,1.6044922-4.9951172,1.0693359-1.4726562,2.6035156-2.6425781,4.6015625-3.5117188,1.9980469-.8671875,4.3085938-1.3017578,6.9326172-1.3017578,2.3007812,0,4.4599609.34375,6.4785156,1.0292969Z"/>
      <path class="st1" d="M516.1136603,191.9444143c-1.1708984.8076172-2.5332031,1.4335938-4.0869141,1.8769531s-3.0986328.6660156-4.6318359.6660156c-7.0234375-.0410156-10.5351562-3.9150391-10.5351562-11.625v-14.8955078h-4.5410156v-6.6601562h4.5410156v-6.9628906l9.5664062-1.0898438v8.0527344h7.3867188l-1.0292969,6.6601562h-6.3574219v14.7744141c0,1.4931641.2421875,2.5634766.7265625,3.2089844s1.2509766.96875,2.3007812.96875c1.0898438,0,2.2402344-.3427734,3.4511719-1.0292969l3.2089844,6.0546875Z"/>
      <path class="st1" d="M560.6156134,161.306719l-6.6601562,32.1513672h-11.4433594l-4.2988281-23.6142578-4.2382812,23.6142578h-11.3232422l-6.8417969-32.1513672h9.6875l3.3310547,25.0068359,5.0253906-25.0068359h9.3242188l4.4199219,25.0068359,3.875-25.0068359h9.1425781Z"/>
      <path class="st1" d="M590.1624884,164.7881643c2.7861328,3.0078125,4.1787109,7.2158203,4.1787109,12.625,0,3.4306641-.6357422,6.4277344-1.9072266,8.9912109-1.2724609,2.5634766-3.0888672,4.5517578-5.4501953,5.9638672s-5.15625,2.1191406-8.3857422,2.1191406c-4.8847656,0-8.7294922-1.5029297-11.5341797-4.5107422-2.8056641-3.0068359-4.2080078-7.2148438-4.2080078-12.6240234,0-3.4306641.6357422-6.4277344,1.9072266-8.9921875,1.2714844-2.5625,3.0878906-4.5498047,5.4492188-5.9638672,2.3613281-1.4121094,5.15625-2.1191406,8.3857422-2.1191406,4.9248047,0,8.7792969,1.5048828,11.5644531,4.5107422ZM574.2386603,169.7530081c-.96875,1.6347656-1.453125,4.1689453-1.453125,7.5996094,0,3.5117188.4736328,6.0751953,1.4228516,7.6894531.9482422,1.6142578,2.4111328,2.421875,4.3896484,2.421875,1.9375,0,3.390625-.8173828,4.359375-2.4521484s1.453125-4.1679688,1.453125-7.5986328c0-3.5117188-.4746094-6.0751953-1.4228516-7.6904297-.9482422-1.6132812-2.4121094-2.421875-4.3896484-2.421875-1.9375,0-3.390625.8173828-4.359375,2.4521484Z"/>
      <path class="st1" d="M620.67909,160.822344l-1.5136719,9.2636719c-1.2109375-.28125-2.1796875-.4238281-2.90625-.4238281-1.8974609,0-3.3408203.6572266-4.3291016,1.9677734-.9892578,1.3125-1.7666016,3.2802734-2.3310547,5.9042969v15.9238281h-9.5664062v-32.1513672h8.3554688l.7871094,6.2363281c.7265625-2.21875,1.8261719-3.9658203,3.2998047-5.2373047s3.1386719-1.9072266,4.9951172-1.9072266c1.1708984,0,2.2402344.1425781,3.2089844.4238281Z"/>
      <path class="st1" d="M644.4740119,191.9444143c-1.171875.8076172-2.5341797,1.4335938-4.0869141,1.8769531-1.5546875.4433594-3.0986328.6660156-4.6318359.6660156-7.0244141-.0410156-10.5361328-3.9150391-10.5361328-11.625v-14.8955078h-4.5410156v-6.6601562h4.5410156v-6.9628906l9.5673828-1.0898438v8.0527344h7.3867188l-1.0292969,6.6601562h-6.3574219v14.7744141c0,1.4931641.2421875,2.5634766.7265625,3.2089844s1.25.96875,2.3007812.96875c1.0898438,0,2.2402344-.3427734,3.4511719-1.0292969l3.2089844,6.0546875Z"/>
      <path class="st1" d="M673.0521369,162.8203909c1.5742188,1.6953125,2.3613281,4.078125,2.3613281,7.1445312v23.4931641h-9.5664062v-21.8583984c0-1.6132812-.2636719-2.7333984-.7871094-3.3603516-.5253906-.625-1.2714844-.9384766-2.2402344-.9384766-1.9375,0-3.7949219,1.3730469-5.5703125,4.1171875v22.0400391h-9.5673828v-44.9267578l9.5673828-.96875v17.1953125c1.3320312-1.4921875,2.7441406-2.6123047,4.2382812-3.3603516,1.4921875-.7460938,3.1679688-1.1201172,5.0253906-1.1201172,2.7851562,0,4.9648438.8476562,6.5390625,2.5429688Z"/>
      <path class="st1" d="M699.9954962,193.5186331c-1.2919922,4.1572266-3.4003906,7.3564453-6.3271484,9.5966797s-6.8525391,3.5019531-11.7763672,3.7841797l-1.0292969-6.7207031c3.0673828-.4042969,5.3378906-1.0898438,6.8115234-2.0585938,1.4726562-.96875,2.6533203-2.5234375,3.5419922-4.6621094h-3.2695312l-9.8085938-32.1513672h10.171875l5.7519531,26.0361328,6.296875-26.0361328h9.8701172l-10.2333984,32.2119141Z"/>
      <path class="st1" d="M423.8402228,219.6153128l-7.0234375,41.9599609h-12.8964844l-5.2070312-32.0302734-5.5097656,32.0302734h-12.5947266l-6.9023438-41.9599609h9.9306641l4.1777344,34.4521484,5.8125-34.4521484h10.4140625l5.4492188,34.4521484,4.9042969-34.4521484h9.4453125Z"/>
      <path class="st1" d="M453.0843634,232.9053518c2.7861328,3.0078125,4.1787109,7.2158203,4.1787109,12.625,0,3.4306641-.6357422,6.4277344-1.9072266,8.9912109-1.2724609,2.5634766-3.0888672,4.5517578-5.4501953,5.9638672s-5.15625,2.1191406-8.3857422,2.1191406c-4.8847656,0-8.7294922-1.5029297-11.5341797-4.5107422-2.8056641-3.0068359-4.2080078-7.2148438-4.2080078-12.6240234,0-3.4306641.6357422-6.4277344,1.9072266-8.9921875,1.2714844-2.5625,3.0878906-4.5498047,5.4492188-5.9638672,2.3613281-1.4121094,5.15625-2.1191406,8.3857422-2.1191406,4.9248047,0,8.7792969,1.5048828,11.5644531,4.5107422ZM437.1605353,237.8701956c-.96875,1.6347656-1.453125,4.1689453-1.453125,7.5996094,0,3.5117188.4736328,6.0751953,1.4228516,7.6894531.9482422,1.6142578,2.4111328,2.421875,4.3896484,2.421875,1.9375,0,3.390625-.8173828,4.359375-2.4521484s1.453125-4.1679688,1.453125-7.5986328c0-3.5117188-.4746094-6.0751953-1.4228516-7.6904297-.9482422-1.6132812-2.4121094-2.421875-4.3896484-2.421875-1.9375,0-3.390625.8173828-4.359375,2.4521484Z"/>
      <path class="st1" d="M483.600965,228.9395315l-1.5136719,9.2636719c-1.2109375-.28125-2.1796875-.4238281-2.90625-.4238281-1.8974609,0-3.3408203.6572266-4.3291016,1.9677734-.9892578,1.3125-1.7666016,3.2802734-2.3310547,5.9042969v15.9238281h-9.5664062v-32.1513672h8.3554688l.7871094,6.2363281c.7265625-2.21875,1.8261719-3.9658203,3.2998047-5.2373047s3.1386719-1.9072266,4.9951172-1.9072266c1.1708984,0,2.2402344.1425781,3.2089844.4238281Z"/>
      <path class="st1" d="M496.8001837,215.619219v45.9560547h-9.5673828v-44.9267578l9.5673828-1.0292969ZM516.6595587,229.4239065l-9.7480469,14.1083984,10.5351562,18.0429688h-10.7773438l-9.5664062-17.5585938,9.8085938-14.5927734h9.7480469Z"/>
      <path class="st1" d="M522.6829962,260.212969c-1.5537109-1.59375-2.3310547-3.8642578-2.3310547-6.8115234v-36.7529297l9.5673828-1.0292969v37.4189453c0,1.3320312.5449219,1.9980469,1.6347656,1.9980469.5644531,0,1.0898438-.1005859,1.5742188-.3027344l1.8769531,6.78125c-1.7363281.7265625-3.6738281,1.0898438-5.8125,1.0898438-2.7861328,0-4.9560547-.7978516-6.5097656-2.3916016Z"/>
      <path class="st1" d="M563.8265509,232.9053518c2.7851562,3.0078125,4.1777344,7.2158203,4.1777344,12.625,0,3.4306641-.6357422,6.4277344-1.9072266,8.9912109s-3.0878906,4.5517578-5.4492188,5.9638672-5.1572266,2.1191406-8.3857422,2.1191406c-4.8847656,0-8.7294922-1.5029297-11.5351562-4.5107422-2.8056641-3.0068359-4.2080078-7.2148438-4.2080078-12.6240234,0-3.4306641.6357422-6.4277344,1.9072266-8.9921875,1.2714844-2.5625,3.0878906-4.5498047,5.4492188-5.9638672,2.3623047-1.4121094,5.15625-2.1191406,8.3867188-2.1191406,4.9238281,0,8.7792969,1.5048828,11.5644531,4.5107422ZM547.9027228,237.8701956c-.96875,1.6347656-1.453125,4.1689453-1.453125,7.5996094,0,3.5117188.4736328,6.0751953,1.4228516,7.6894531.9472656,1.6142578,2.4111328,2.421875,4.3896484,2.421875,1.9375,0,3.390625-.8173828,4.359375-2.4521484s1.453125-4.1679688,1.453125-7.5986328c0-3.5117188-.4755859-6.0751953-1.4228516-7.6904297-.9492188-1.6132812-2.4130859-2.421875-4.3896484-2.421875-1.9375,0-3.390625.8173828-4.359375,2.4521484Z"/>
      <path class="st1" d="M599.1566291,254.9151175c.3427734.5654297.8974609.9892578,1.6650391,1.2714844l-1.9980469,6.2363281c-1.9785156-.1621094-3.5927734-.5957031-4.84375-1.3017578-1.2519531-.7060547-2.2207031-1.8261719-2.90625-3.3603516-2.0996094,3.2294922-5.328125,4.84375-9.6875,4.84375-3.1894531,0-5.7324219-.9287109-7.6298828-2.7851562s-2.8457031-4.2783203-2.8457031-7.265625c0-3.5117188,1.2919922-6.1962891,3.875-8.0527344s6.3173828-2.7851562,11.2021484-2.7851562h3.2695312v-1.3935547c0-1.8964844-.4042969-3.1982422-1.2109375-3.9052734-.8085938-.7050781-2.2207031-1.0595703-4.2382812-1.0595703-1.0507812,0-2.3222656.1513672-3.8144531.4541016-1.4941406.3027344-3.0283203.7177734-4.6025391,1.2412109l-2.1796875-6.296875c2.0185547-.765625,4.0869141-1.3515625,6.2060547-1.7558594,2.1201172-.4023438,4.0878906-.6054688,5.9042969-.6054688,4.6015625,0,7.9716797.9492188,10.1113281,2.8457031,2.1386719,1.8984375,3.2089844,4.7441406,3.2089844,8.5371094v12.4736328c0,1.2109375.1708984,2.0986328.5146484,2.6640625ZM589.257215,252.6748831v-5.6914062h-2.3613281c-2.1796875,0-3.8056641.3837891-4.8740234,1.1503906-1.0703125.7666016-1.6044922,1.9580078-1.6044922,3.5722656,0,1.2919922.3330078,2.2910156.9990234,2.9970703.6660156.7070312,1.5830078,1.0595703,2.7548828,1.0595703,2.1796875,0,3.875-1.0292969,5.0859375-3.0878906Z"/>
      <path class="st1" d="M635.0921759,216.6485159v44.9267578h-8.4775391l-.484375-3.7539062c-2.2607422,3.1894531-5.3076172,4.7832031-9.1425781,4.7832031-3.9960938,0-7.0341797-1.5332031-9.1123047-4.6015625-2.0791016-3.0673828-3.1181641-7.265625-3.1181641-12.59375,0-3.2695312.5449219-6.1962891,1.6347656-8.7802734,1.0898438-2.5820312,2.6337891-4.6015625,4.6318359-6.0546875s4.2880859-2.1796875,6.8720703-2.1796875c3.0673828,0,5.6103516,1.0097656,7.6289062,3.0273438v-15.8027344l9.5673828,1.0292969ZM625.5247931,251.9483206v-13.8662109c-.7666016-.9277344-1.5439453-1.6132812-2.3310547-2.0585938-.7871094-.4433594-1.6855469-.6660156-2.6943359-.6660156-1.7763672,0-3.1894531.828125-4.2382812,2.4824219-1.0498047,1.65625-1.5742188,4.1992188-1.5742188,7.6298828,0,3.7539062.4541016,6.3779297,1.3623047,7.8710938s2.2099609,2.2402344,3.9052734,2.2402344c2.2197266,0,4.0771484-1.2109375,5.5703125-3.6328125Z"/>
      <path class="st1" d="M667.0609259,219.6153128v41.9599609h-9.9306641v-41.9599609h9.9306641Z"/>
      <path class="st1" d="M703.5111212,216.6485159v44.9267578h-8.4775391l-.484375-3.7539062c-2.2607422,3.1894531-5.3076172,4.7832031-9.1425781,4.7832031-3.9960938,0-7.0341797-1.5332031-9.1123047-4.6015625-2.0791016-3.0673828-3.1181641-7.265625-3.1181641-12.59375,0-3.2695312.5449219-6.1962891,1.6347656-8.7802734,1.0898438-2.5820312,2.6337891-4.6015625,4.6318359-6.0546875s4.2880859-2.1796875,6.8720703-2.1796875c3.0673828,0,5.6103516,1.0097656,7.6289062,3.0273438v-15.8027344l9.5673828,1.0292969ZM693.9437384,251.9483206v-13.8662109c-.7666016-.9277344-1.5439453-1.6132812-2.3310547-2.0585938-.7871094-.4433594-1.6855469-.6660156-2.6943359-.6660156-1.7763672,0-3.1894531.828125-4.2382812,2.4824219-1.0498047,1.65625-1.5742188,4.1992188-1.5742188,7.6298828,0,3.7539062.4541016,6.3779297,1.3623047,7.8710938s2.2099609,2.2402344,3.9052734,2.2402344c2.2197266,0,4.0771484-1.2109375,5.5703125-3.6328125Z"/>
      <path class="st1" d="M738.8704962,248.3155081h-19.9208984c.3222656,2.7041016,1.0898438,4.6015625,2.3007812,5.6914062s2.8857422,1.6347656,5.0253906,1.6347656c1.2919922,0,2.5429688-.2314453,3.7539062-.6962891,1.2109375-.4638672,2.5224609-1.1806641,3.9355469-2.1494141l3.9355469,5.328125c-3.7539062,2.9873047-7.9316406,4.4804688-12.5332031,4.4804688-5.2070312,0-9.203125-1.5332031-11.9882812-4.6015625-2.7851562-3.0673828-4.1777344-7.1845703-4.1777344-12.3515625,0-3.2695312.5839844-6.2070312,1.7558594-8.8105469,1.1699219-2.6035156,2.8857422-4.6621094,5.1464844-6.1757812,2.2597656-1.5136719,4.9648438-2.2705078,8.1132812-2.2705078,4.6416016,0,8.2744141,1.453125,10.8984375,4.359375s3.9365234,6.9433594,3.9365234,12.1103516c0,1.3320312-.0605469,2.4824219-.1816406,3.4511719ZM729.6663947,242.1397268c-.0810547-4.9248047-1.8164062-7.3876953-5.2070312-7.3876953-1.6552734,0-2.9365234.6054688-3.8447266,1.8164062s-1.4638672,3.2089844-1.6650391,5.9951172h10.7167969v-.4238281Z"/>
      <path class="st1" d="M769.8089728,230.9375784c1.5742188,1.6953125,2.3623047,4.078125,2.3623047,7.1445312v23.4931641h-9.5673828v-21.8583984c0-1.6132812-.2519531-2.7333984-.7568359-3.3603516-.5048828-.625-1.2617188-.9384766-2.2705078-.9384766-1.9375,0-3.7949219,1.3925781-5.5703125,4.1777344v21.9794922h-9.5664062v-32.1513672h8.3554688l.6660156,3.8144531c1.3720703-1.6132812,2.8554688-2.8242188,4.4501953-3.6328125,1.5947266-.8066406,3.3808594-1.2109375,5.3583984-1.2109375,2.7851562,0,4.9648438.8476562,6.5390625,2.5429688Z"/>
      <path class="st1" d="M799.538465,260.0616018c-1.171875.8076172-2.5341797,1.4335938-4.0869141,1.8769531-1.5546875.4433594-3.0986328.6660156-4.6318359.6660156-7.0244141-.0410156-10.5361328-3.9150391-10.5361328-11.625v-14.8955078h-4.5410156v-6.6601562h4.5410156v-6.9628906l9.5673828-1.0898438v8.0527344h7.3867188l-1.0292969,6.6601562h-6.3574219v14.7744141c0,1.4931641.2421875,2.5634766.7265625,3.2089844s1.25.96875,2.3007812.96875c1.0898438,0,2.2402344-.3427734,3.4511719-1.0292969l3.2089844,6.0546875Z"/>
      <path class="st1" d="M811.5570197,214.0147268c1.0683594,1.0292969,1.6044922,2.3310547,1.6044922,3.9052734s-.5361328,2.8759766-1.6044922,3.9052734c-1.0703125,1.0292969-2.4326172,1.5439453-4.0878906,1.5439453s-3.0068359-.5146484-4.0566406-1.5439453-1.5742188-2.3310547-1.5742188-3.9052734.5244141-2.8759766,1.5742188-3.9052734,2.4013672-1.5439453,4.0566406-1.5439453,3.0175781.5146484,4.0878906,1.5439453ZM812.3138556,229.4239065v32.1513672h-9.5673828v-32.1513672h9.5673828Z"/>
      <path class="st1" d="M839.9837775,260.0616018c-1.171875.8076172-2.5341797,1.4335938-4.0869141,1.8769531-1.5546875.4433594-3.0986328.6660156-4.6318359.6660156-7.0244141-.0410156-10.5361328-3.9150391-10.5361328-11.625v-14.8955078h-4.5410156v-6.6601562h4.5410156v-6.9628906l9.5673828-1.0898438v8.0527344h7.3867188l-1.0292969,6.6601562h-6.3574219v14.7744141c0,1.4931641.2421875,2.5634766.7265625,3.2089844s1.25.96875,2.3007812.96875c1.0898438,0,2.2402344-.3427734,3.4511719-1.0292969l3.2089844,6.0546875Z"/>
      <path class="st1" d="M860.6302619,261.6358206c-1.2919922,4.1572266-3.4003906,7.3564453-6.3271484,9.5966797s-6.8525391,3.5019531-11.7763672,3.7841797l-1.0292969-6.7207031c3.0673828-.4042969,5.3378906-1.0898438,6.8115234-2.0585938,1.4726562-.96875,2.6533203-2.5234375,3.5419922-4.6621094h-3.2695312l-9.8085938-32.1513672h10.171875l5.7519531,26.0361328,6.296875-26.0361328h9.8701172l-10.2333984,32.2119141Z"/>
      <path class="st1" d="M398.80409,288.0342581c2.3203125.8886719,4.4296875,2.2402344,6.3271484,4.0566406l-4.6015625,5.3886719c-2.8662109-2.3408203-5.9335938-3.5117188-9.203125-3.5117188-1.7363281,0-3.109375.3535156-4.1171875,1.0595703-1.0097656.7070312-1.5136719,1.7255859-1.5136719,3.0576172,0,.9296875.2207031,1.6865234.6660156,2.2705078.4433594.5859375,1.2304688,1.1416016,2.3613281,1.6650391,1.1289062.5253906,2.8242188,1.1503906,5.0859375,1.8769531,4.2783203,1.3730469,7.4267578,3.0576172,9.4453125,5.0556641,2.0175781,1.9990234,3.0273438,4.8349609,3.0273438,8.5078125,0,2.6240234-.6660156,4.9345703-1.9980469,6.9326172s-3.25,3.5527344-5.7519531,4.6621094c-2.5039062,1.109375-5.4707031,1.6650391-8.9003906,1.6650391-3.4316406,0-6.4697266-.5449219-9.1132812-1.6347656s-4.9140625-2.5429688-6.8115234-4.359375l5.0253906-5.5097656c1.6142578,1.3720703,3.2792969,2.4013672,4.9960938,3.0878906,1.7148438.6865234,3.5810547,1.0292969,5.6005859,1.0292969,2.0585938,0,3.6826172-.4541016,4.8740234-1.3623047,1.1894531-.9082031,1.7861328-2.1699219,1.7861328-3.7841797,0-1.0498047-.2226562-1.9277344-.6660156-2.6337891-.4453125-.7060547-1.2109375-1.3417969-2.3007812-1.9072266s-2.6640625-1.1708984-4.7226562-1.8164062c-4.6425781-1.4130859-7.9423828-3.1494141-9.9003906-5.2080078s-2.9365234-4.6621094-2.9365234-7.8105469c0-2.421875.6455078-4.5507812,1.9375-6.3876953,1.2919922-1.8359375,3.0878906-3.2490234,5.3886719-4.2382812,2.3017578-.9882812,4.9052734-1.4833984,7.8115234-1.4833984,3.1484375,0,5.8818359.4443359,8.2041016,1.3320312Z"/>
      <path class="st1" d="M438.7347541,300.9912893c1.9775391,2.9882812,2.9677734,7.1660156,2.9677734,12.5341797,0,3.3095703-.5146484,6.2666016-1.5439453,8.8701172s-2.5136719,4.6425781-4.4511719,6.1152344-4.1982422,2.2099609-6.78125,2.2099609c-3.2294922,0-5.8330078-1.109375-7.8105469-3.3300781v14.7128906l-9.5664062,1.0292969v-45.5927734h8.4160156l.484375,3.5722656c1.2509766-1.5742188,2.6835938-2.7333984,4.2988281-3.4814453,1.6142578-.7460938,3.2695312-1.1201172,4.9648438-1.1201172,4.0361328,0,7.0439453,1.4941406,9.0214844,4.4804688ZM431.7718634,313.6465628c0-3.7939453-.4238281-6.4277344-1.2714844-7.9023438-.8476562-1.4726562-2.1191406-2.2099609-3.8144531-2.2099609-1.0898438,0-2.109375.3242188-3.0576172.96875-.9492188.6464844-1.7861328,1.5742188-2.5126953,2.7851562v13.5634766c1.2910156,1.8974609,2.9257812,2.8457031,4.9042969,2.8457031,3.8349609,0,5.7519531-3.3505859,5.7519531-10.0507812Z"/>
      <path class="st1" d="M475.5472541,316.431719h-19.9199219c.3222656,2.7041016,1.0898438,4.6015625,2.3007812,5.6914062s2.8847656,1.6347656,5.0253906,1.6347656c1.2910156,0,2.5429688-.2314453,3.7539062-.6962891,1.2109375-.4638672,2.5224609-1.1806641,3.9355469-2.1494141l3.9355469,5.328125c-3.7539062,2.9873047-7.9316406,4.4804688-12.5332031,4.4804688-5.2070312,0-9.2041016-1.5332031-11.9892578-4.6015625-2.7851562-3.0673828-4.1777344-7.1845703-4.1777344-12.3515625,0-3.2695312.5849609-6.2070312,1.7558594-8.8105469s2.8857422-4.6621094,5.1464844-6.1757812,4.9658203-2.2705078,8.1142578-2.2705078c4.640625,0,8.2744141,1.453125,10.8984375,4.359375,2.6230469,2.90625,3.9355469,6.9433594,3.9355469,12.1103516,0,1.3320312-.0605469,2.4824219-.1816406,3.4511719ZM466.3441291,310.2559378c-.0820312-4.9248047-1.8164062-7.3876953-5.2070312-7.3876953-1.65625,0-2.9365234.6054688-3.8447266,1.8164062s-1.4638672,3.2089844-1.6650391,5.9951172h10.7167969v-.4238281Z"/>
      <path class="st1" d="M501.0374884,297.4795706c1.7753906.6464844,3.4511719,1.6347656,5.0253906,2.9667969l-4.1171875,5.6914062c-2.0195312-1.5332031-4.0566406-2.3007812-6.1152344-2.3007812-2.140625,0-3.7539062.7871094-4.84375,2.3613281s-1.6347656,4.1181641-1.6347656,7.6298828c0,3.390625.5449219,5.7919922,1.6347656,7.2050781s2.6640625,2.1191406,4.7226562,2.1191406c1.0898438,0,2.078125-.171875,2.9667969-.5146484.8867188-.3427734,1.9570312-.8984375,3.2089844-1.6650391l4.1777344,5.9335938c-3.1894531,2.5429688-6.8027344,3.8144531-10.8378906,3.8144531-3.2695312,0-6.0957031-.6962891-8.4775391-2.0888672s-4.2177734-3.3496094-5.5097656-5.8730469c-1.2919922-2.5224609-1.9375-5.4794922-1.9375-8.8701172s.6455078-6.3974609,1.9375-9.0224609c1.2919922-2.6230469,3.1279297-4.6708984,5.5097656-6.1455078,2.3818359-1.4726562,5.1474609-2.2099609,8.2958984-2.2099609,2.21875,0,4.2167969.3242188,5.9941406.96875Z"/>
      <path class="st1" d="M518.92909,282.1309378c1.0683594,1.0292969,1.6044922,2.3310547,1.6044922,3.9052734s-.5361328,2.8759766-1.6044922,3.9052734c-1.0703125,1.0292969-2.4326172,1.5439453-4.0878906,1.5439453s-3.0068359-.5146484-4.0566406-1.5439453-1.5742188-2.3310547-1.5742188-3.9052734.5244141-2.8759766,1.5742188-3.9052734,2.4013672-1.5439453,4.0566406-1.5439453,3.0175781.5146484,4.0878906,1.5439453ZM519.6859259,297.5401175v32.1513672h-9.5673828v-32.1513672h9.5673828Z"/>
      <path class="st1" d="M553.2591681,323.0313284c.3427734.5654297.8984375.9892578,1.6660156,1.2714844l-1.9990234,6.2363281c-1.9775391-.1621094-3.5927734-.5957031-4.84375-1.3017578s-2.2197266-1.8261719-2.90625-3.3603516c-2.0986328,3.2294922-5.328125,4.84375-9.6875,4.84375-3.1894531,0-5.7324219-.9287109-7.6289062-2.7851562-1.8984375-1.8564453-2.8457031-4.2783203-2.8457031-7.265625,0-3.5117188,1.2910156-6.1962891,3.875-8.0527344,2.5830078-1.8564453,6.3164062-2.7851562,11.2011719-2.7851562h3.2695312v-1.3935547c0-1.8964844-.4033203-3.1982422-1.2109375-3.9052734-.8076172-.7050781-2.2207031-1.0595703-4.2382812-1.0595703-1.0498047,0-2.3212891.1513672-3.8144531.4541016-1.4941406.3027344-3.0273438.7177734-4.6015625,1.2412109l-2.1796875-6.296875c2.0175781-.765625,4.0869141-1.3515625,6.2060547-1.7558594,2.1191406-.4023438,4.0869141-.6054688,5.9033203-.6054688,4.6015625,0,7.9716797.9492188,10.1113281,2.8457031,2.1396484,1.8984375,3.2089844,4.7441406,3.2089844,8.5371094v12.4736328c0,1.2109375.171875,2.0986328.5146484,2.6640625ZM543.3597541,320.791094v-5.6914062h-2.3613281c-2.1796875,0-3.8046875.3837891-4.8740234,1.1503906-1.0703125.7666016-1.6044922,1.9580078-1.6044922,3.5722656,0,1.2919922.3330078,2.2910156.9990234,2.9970703.6660156.7070312,1.5839844,1.0595703,2.7548828,1.0595703,2.1796875,0,3.875-1.0292969,5.0859375-3.0878906Z"/>
      <path class="st1" d="M561.7962775,328.32918c-1.5537109-1.59375-2.3310547-3.8642578-2.3310547-6.8115234v-36.7529297l9.5673828-1.0292969v37.4189453c0,1.3320312.5449219,1.9980469,1.6347656,1.9980469.5644531,0,1.0898438-.1005859,1.5742188-.3027344l1.8769531,6.78125c-1.7363281.7265625-3.6738281,1.0898438-5.8125,1.0898438-2.7861328,0-4.9560547-.7978516-6.5097656-2.3916016Z"/>
      <path class="st1" d="M602.2122931,287.7315237v41.9599609h-9.9296875v-41.9599609h9.9296875Z"/>
      <path class="st1" d="M635.2113166,299.0537893c1.5742188,1.6953125,2.3613281,4.078125,2.3613281,7.1445312v23.4931641h-9.5664062v-21.8583984c0-1.6132812-.2529297-2.7333984-.7568359-3.3603516-.5058594-.625-1.2626953-.9384766-2.2705078-.9384766-1.9375,0-3.7949219,1.3925781-5.5703125,4.1777344v21.9794922h-9.5673828v-32.1513672h8.3564453l.6660156,3.8144531c1.3710938-1.6132812,2.8544922-2.8242188,4.4501953-3.6328125,1.59375-.8066406,3.3798828-1.2109375,5.3583984-1.2109375,2.7851562,0,4.9648438.8476562,6.5390625,2.5429688Z"/>
      <path class="st1" d="M664.9398322,328.1778128c-1.1708984.8076172-2.5332031,1.4335938-4.0869141,1.8769531s-3.0986328.6660156-4.6318359.6660156c-7.0234375-.0410156-10.5351562-3.9150391-10.5351562-11.625v-14.8955078h-4.5410156v-6.6601562h4.5410156v-6.9628906l9.5664062-1.0898438v8.0527344h7.3867188l-1.0292969,6.6601562h-6.3574219v14.7744141c0,1.4931641.2421875,2.5634766.7265625,3.2089844s1.2509766.96875,2.3007812.96875c1.0898438,0,2.2402344-.3427734,3.4511719-1.0292969l3.2089844,6.0546875Z"/>
      <path class="st1" d="M694.9115119,316.431719h-19.9208984c.3222656,2.7041016,1.0898438,4.6015625,2.3007812,5.6914062s2.8857422,1.6347656,5.0253906,1.6347656c1.2919922,0,2.5429688-.2314453,3.7539062-.6962891,1.2109375-.4638672,2.5224609-1.1806641,3.9355469-2.1494141l3.9355469,5.328125c-3.7539062,2.9873047-7.9316406,4.4804688-12.5332031,4.4804688-5.2070312,0-9.203125-1.5332031-11.9882812-4.6015625-2.7851562-3.0673828-4.1777344-7.1845703-4.1777344-12.3515625,0-3.2695312.5839844-6.2070312,1.7558594-8.8105469,1.1699219-2.6035156,2.8857422-4.6621094,5.1464844-6.1757812,2.2597656-1.5136719,4.9648438-2.2705078,8.1132812-2.2705078,4.6416016,0,8.2744141,1.453125,10.8984375,4.359375s3.9365234,6.9433594,3.9365234,12.1103516c0,1.3320312-.0605469,2.4824219-.1816406,3.4511719ZM685.7074103,310.2559378c-.0810547-4.9248047-1.8164062-7.3876953-5.2070312-7.3876953-1.6552734,0-2.9365234.6054688-3.8447266,1.8164062s-1.4638672,3.2089844-1.6650391,5.9951172h10.7167969v-.4238281Z"/>
      <path class="st1" d="M721.1273322,297.0557425l-1.5136719,9.2636719c-1.2109375-.28125-2.1796875-.4238281-2.90625-.4238281-1.8974609,0-3.3408203.6572266-4.3291016,1.9677734-.9892578,1.3125-1.7666016,3.2802734-2.3310547,5.9042969v15.9238281h-9.5664062v-32.1513672h8.3554688l.7871094,6.2363281c.7265625-2.21875,1.8261719-3.9658203,3.2998047-5.2373047s3.1386719-1.9072266,4.9951172-1.9072266c1.1708984,0,2.2402344.1425781,3.2089844.4238281Z"/>
      <path class="st1" d="M750.7962775,316.431719h-19.9208984c.3222656,2.7041016,1.0898438,4.6015625,2.3007812,5.6914062s2.8857422,1.6347656,5.0253906,1.6347656c1.2919922,0,2.5429688-.2314453,3.7539062-.6962891,1.2109375-.4638672,2.5224609-1.1806641,3.9355469-2.1494141l3.9355469,5.328125c-3.7539062,2.9873047-7.9316406,4.4804688-12.5332031,4.4804688-5.2070312,0-9.203125-1.5332031-11.9882812-4.6015625-2.7851562-3.0673828-4.1777344-7.1845703-4.1777344-12.3515625,0-3.2695312.5839844-6.2070312,1.7558594-8.8105469,1.1699219-2.6035156,2.8857422-4.6621094,5.1464844-6.1757812,2.2597656-1.5136719,4.9648438-2.2705078,8.1132812-2.2705078,4.6416016,0,8.2744141,1.453125,10.8984375,4.359375s3.9365234,6.9433594,3.9365234,12.1103516c0,1.3320312-.0605469,2.4824219-.1816406,3.4511719ZM741.5921759,310.2559378c-.0810547-4.9248047-1.8164062-7.3876953-5.2070312-7.3876953-1.6552734,0-2.9365234.6054688-3.8447266,1.8164062s-1.4638672,3.2089844-1.6650391,5.9951172h10.7167969v-.4238281Z"/>
      <path class="st1" d="M774.1663947,297.5401175c2.0185547.6875,3.7939453,1.65625,5.328125,2.90625l-3.5117188,5.3886719c-2.6240234-1.6542969-5.2675781-2.4824219-7.9316406-2.4824219-1.2519531,0-2.2099609.2119141-2.8759766.6357422s-.9990234,1.0205078-.9990234,1.7861328c0,.6054688.1513672,1.1005859.4541016,1.4833984.3027344.3847656.9179688.7783203,1.8466797,1.1806641.9277344.4042969,2.3613281.8886719,4.2988281,1.4541016,3.3505859.96875,5.8427734,2.2304688,7.4775391,3.7841797s2.4521484,3.703125,2.4521484,6.4482422c0,2.1796875-.6259766,4.0673828-1.8769531,5.6611328-1.2509766,1.5947266-2.9667969,2.8154297-5.1464844,3.6630859s-4.6015625,1.2714844-7.265625,1.2714844c-2.7050781,0-5.2177734-.4238281-7.5380859-1.2714844-2.3212891-.8476562-4.2900391-2.0175781-5.9033203-3.5117188l4.6621094-5.2070312c2.7041016,2.0986328,5.5498047,3.1484375,8.5371094,3.1484375,1.453125,0,2.5927734-.2617188,3.4208984-.7871094.8271484-.5244141,1.2412109-1.2714844,1.2412109-2.2402344,0-.7666016-.1611328-1.3720703-.484375-1.8164062s-.9492188-.8574219-1.8769531-1.2412109c-.9287109-.3837891-2.4023438-.8574219-4.4199219-1.4228516-3.1894531-.9287109-5.5703125-2.2197266-7.1445312-3.875s-2.3613281-3.7138672-2.3613281-6.1767578c0-1.8554688.5341797-3.5205078,1.6044922-4.9951172,1.0693359-1.4726562,2.6035156-2.6425781,4.6015625-3.5117188,1.9980469-.8671875,4.3085938-1.3017578,6.9326172-1.3017578,2.3007812,0,4.4599609.34375,6.4785156,1.0292969Z"/>
      <path class="st1" d="M805.7718634,328.1778128c-1.1708984.8076172-2.5332031,1.4335938-4.0869141,1.8769531s-3.0986328.6660156-4.6318359.6660156c-7.0234375-.0410156-10.5351562-3.9150391-10.5351562-11.625v-14.8955078h-4.5410156v-6.6601562h4.5410156v-6.9628906l9.5664062-1.0898438v8.0527344h7.3867188l-1.0292969,6.6601562h-6.3574219v14.7744141c0,1.4931641.2421875,2.5634766.7265625,3.2089844s1.2509766.96875,2.3007812.96875c1.0898438,0,2.2402344-.3427734,3.4511719-1.0292969l3.2089844,6.0546875Z"/>
      <path class="st1" d="M855.663465,291.8487112l-5.0253906,5.2675781c-1.4941406-1.1298828-2.8769531-1.9472656-4.1484375-2.4521484-1.2714844-.5039062-2.734375-.7568359-4.3896484-.7568359-3.1083984,0-5.5908203,1.2216797-7.4472656,3.6630859-1.8574219,2.4433594-2.7851562,6.1455078-2.7851562,11.1103516,0,5.3691406.7060547,9.1738281,2.1191406,11.4140625,1.4121094,2.2402344,3.6123047,3.3603516,6.5996094,3.3603516,2.0986328,0,3.9960938-.4638672,5.6914062-1.3925781v-9.5058594h-5.4492188l-.96875-7.0244141h16.0458984v20.7685547c-2.1796875,1.4130859-4.5820312,2.5029297-7.2060547,3.2695312s-5.2470703,1.1503906-7.8710938,1.1503906c-6.3779297,0-11.1816406-1.8662109-14.4101562-5.6005859-3.2294922-3.7333984-4.84375-9.2128906-4.84375-16.4394531,0-4.6015625.8779297-8.5566406,2.6337891-11.8671875,1.7558594-3.3095703,4.1572266-5.8222656,7.2050781-7.5380859,3.046875-1.7148438,6.46875-2.5732422,10.2626953-2.5732422,5.4091797,0,10.0712891,1.7158203,13.9873047,5.1464844Z"/>
      <path class="st1" d="M883.0296759,297.0557425l-1.5136719,9.2636719c-1.2109375-.28125-2.1796875-.4238281-2.90625-.4238281-1.8974609,0-3.3408203.6572266-4.3291016,1.9677734-.9892578,1.3125-1.7666016,3.2802734-2.3310547,5.9042969v15.9238281h-9.5664062v-32.1513672h8.3554688l.7871094,6.2363281c.7265625-2.21875,1.8261719-3.9658203,3.2998047-5.2373047s3.1386719-1.9072266,4.9951172-1.9072266c1.1708984,0,2.2402344.1425781,3.2089844.4238281Z"/>
      <path class="st1" d="M910.3363166,301.0215628c2.7861328,3.0078125,4.1787109,7.2158203,4.1787109,12.625,0,3.4306641-.6357422,6.4277344-1.9072266,8.9912109-1.2724609,2.5634766-3.0888672,4.5517578-5.4501953,5.9638672s-5.15625,2.1191406-8.3857422,2.1191406c-4.8847656,0-8.7294922-1.5029297-11.5341797-4.5107422-2.8056641-3.0068359-4.2080078-7.2148438-4.2080078-12.6240234,0-3.4306641.6357422-6.4277344,1.9072266-8.9921875,1.2714844-2.5625,3.0878906-4.5498047,5.4492188-5.9638672,2.3613281-1.4121094,5.15625-2.1191406,8.3857422-2.1191406,4.9248047,0,8.7792969,1.5048828,11.5644531,4.5107422ZM894.4124884,305.9864065c-.96875,1.6347656-1.453125,4.1689453-1.453125,7.5996094,0,3.5117188.4736328,6.0751953,1.4228516,7.6894531.9482422,1.6142578,2.4111328,2.421875,4.3896484,2.421875,1.9375,0,3.390625-.8173828,4.359375-2.4521484s1.453125-4.1679688,1.453125-7.5986328c0-3.5117188-.4746094-6.0751953-1.4228516-7.6904297-.9482422-1.6132812-2.4121094-2.421875-4.3896484-2.421875-1.9375,0-3.390625.8173828-4.359375,2.4521484Z"/>
      <path class="st1" d="M947.3314337,329.6914847h-8.2949219l-.4238281-4.0566406c-2.3417969,3.390625-5.5917969,5.0859375-9.7480469,5.0859375-2.9472656,0-5.1777344-.8886719-6.6914062-2.6640625s-2.2705078-4.2578125-2.2705078-7.4472656v-23.0693359h9.5673828v21.8583984c0,1.5742188.2509766,2.6738281.7568359,3.2998047.5039062.6259766,1.2802734.9384766,2.3310547.9384766,2.0175781,0,3.7539062-1.2509766,5.2070312-3.7539062v-22.3427734h9.5664062v32.1513672Z"/>
      <path class="st1" d="M982.0247931,300.9912893c1.9775391,2.9882812,2.9677734,7.1660156,2.9677734,12.5341797,0,3.3095703-.5146484,6.2666016-1.5439453,8.8701172s-2.5136719,4.6425781-4.4511719,6.1152344-4.1982422,2.2099609-6.78125,2.2099609c-3.2294922,0-5.8330078-1.109375-7.8105469-3.3300781v14.7128906l-9.5664062,1.0292969v-45.5927734h8.4160156l.484375,3.5722656c1.2509766-1.5742188,2.6835938-2.7333984,4.2988281-3.4814453,1.6142578-.7460938,3.2695312-1.1201172,4.9648438-1.1201172,4.0361328,0,7.0439453,1.4941406,9.0214844,4.4804688ZM975.0619025,313.6465628c0-3.7939453-.4238281-6.4277344-1.2714844-7.9023438-.8476562-1.4726562-2.1191406-2.2099609-3.8144531-2.2099609-1.0898438,0-2.109375.3242188-3.0576172.96875-.9492188.6464844-1.7861328,1.5742188-2.5126953,2.7851562v13.5634766c1.2910156,1.8974609,2.9257812,2.8457031,4.9042969,2.8457031,3.8349609,0,5.7519531-3.3505859,5.7519531-10.0507812Z"/>
    </g>
  </g>
  <g>
    <g>
      <path class="st4" d="M383.4755783,38.3576359h2.5852845c5.8377276,0,10.3411124-4.4199963,10.3411124-10.2577239v-1.8347118l-6.4215105-.5837702v2.4184884c0,2.3350936-1.7513234,4.1698054-4.0864042,4.1698054h-2.3350809c-2.3350809,0-4.0864042-1.8347118-4.0864042-4.1698054V12.0044732c0-2.3350936,1.7513234-4.1698054,4.0864042-4.1698054h2.3350809c2.3350809,0,4.0864042,1.8347118,4.0864042,4.1698054v2.4184884l6.4215105-.5837702v-1.8347118c0-5.8377276-4.5033848-10.2577239-10.3411124-10.2577239h-2.5852845c-5.8377276,0-10.3411124,4.4199963-10.3411124,10.2577239v16.0954451c0,5.8377276,4.5033848,10.2577239,10.3411124,10.2577239v-.0000127Z"/>
      <path class="st4" d="M416.0000607,1.7467429h-2.5852845c-5.8377276,0-10.3411124,4.4199963-10.3411124,10.2577239v16.0954451c0,5.8377276,4.5033848,10.2577239,10.3411124,10.2577239h2.5852845c5.8377276,0,10.3411124-4.4199963,10.3411124-10.2577239V12.0044605c0-5.8377276-4.5033848-10.2577239-10.3411124-10.2577175ZM419.9196625,28.099912c0,2.3350936-1.7513234,4.1698054-4.0864042,4.1698054h-2.3350809c-2.3350809,0-4.0864042-1.8347118-4.0864042-4.1698054V12.0044605c0-2.3350936,1.7513234-4.1698054,4.0864042-4.1698054h2.3350809c2.3350809,0,4.0864042,1.8347118,4.0864042,4.1698054v16.0954515Z"/>
      <polygon class="st4" points="439.7679516 13.3388033 440.101531 14.9233243 454.0286913 38.4410307 459.8664189 38.4410307 459.8664189 1.7467429 453.2781059 1.7467429 453.2781059 26.8489703 452.9445266 25.264443 438.9339905 1.7467429 433.1796641 1.7467429 433.1796641 38.4410307 439.7679516 38.4410307 439.7679516 13.3388033"/>
      <polygon class="st4" points="465.5373441 38.4410307 472.2090328 38.4410307 472.2090328 23.2629351 485.7192125 23.2629351 485.7192125 16.9248322 472.2090328 16.9248322 472.2090328 8.0014511 488.9716557 8.0014511 488.9716557 1.7467429 465.5373441 1.7467429 465.5373441 38.4410307"/>
      <rect class="st4" x="494.8927845" y="1.7467429" width="6.5882875" height="36.6942878"/>
      <path class="st4" d="M532.0040528,27.8497211v-15.5116749c0-6.0045173-4.6701872-10.5913032-10.6746917-10.5913032h-13.3433774v36.6942878h13.3433774c6.00453,0,10.6746917-4.586786,10.6746917-10.5913096ZM514.5742457,32.1863226V8.0014511h6.5882875c2.4184821,0,4.1698054,1.918113,4.1698054,4.3365951v15.5116749c0,2.4184884-1.7513234,4.3365951-4.1698054,4.3365951l-6.5882875.0000064Z"/>
      <polygon class="st4" points="538.0919586 38.4410307 561.5262702 38.4410307 561.5262702 32.1863226 544.680246 32.1863226 544.680246 23.2629351 558.1904258 23.2629351 558.1904258 16.9248322 544.680246 16.9248322 544.680246 8.0014511 561.5262702 8.0014511 561.5262702 1.7467429 538.0919586 1.7467429 538.0919586 38.4410307"/>
      <polygon class="st4" points="574.3692658 13.3388033 574.7028706 14.8399294 588.62998 38.3576359 594.4677076 38.3576359 594.4677076 1.7467429 587.8794456 1.7467429 587.8794456 26.7655755 587.5458408 25.264443 573.5353047 1.7467429 567.7809529 1.7467429 567.7809529 38.3576359 574.3692658 38.3576359 574.3692658 13.3388033"/>
      <polygon class="st4" points="601.3896253 8.0014511 609.9794143 8.0014511 609.9794143 38.3576359 616.5676764 38.3576359 616.5676764 8.0014511 625.240892 8.0014511 625.240892 1.7467429 601.3896253 1.7467429 601.3896253 8.0014511"/>
      <rect class="st4" x="632.1627589" y="1.7467429" width="6.5883129" height="36.6108929"/>
      <path class="st4" d="M656.2642546,1.7467429l-10.1743354,36.6108929h7.0886692l1.9181003-7.2554589h11.2584747l1.9181003,7.2554589h7.0886692l-10.2577112-36.6108929h-8.8399672ZM656.431057,25.431239l4.1698054-15.9286555v-1.4177313l.1668024,1.3343365,4.0864297,15.9286555h-8.4229866l-.0000509.0833948Z"/>
      <polygon class="st4" points="688.7053103 1.7467429 682.1170483 1.7467429 682.1170483 38.3576359 702.2154901 38.3576359 702.2154901 32.1029277 688.7053103 32.1029277 688.7053103 1.7467429"/>
    </g>
    <g>
      <path class="st4" d="M386.0608628,50.9127431h-2.585259c-5.8377276,0-10.3411378,4.4199963-10.3411378,10.2577239v16.0954451c0,5.8377276,4.5034102,10.2577239,10.3411378,10.2577239h2.585259c5.8377276,0,10.3411378-4.4199963,10.3411378-10.2577239v-1.8347118l-6.4215105-.5837702v2.4184884c0,2.3350936-1.7512979,4.1698054-4.0864297,4.1698054h-2.3350809c-2.3350809,0-4.0864297-1.8347118-4.0864297-4.1698054v-16.0954451c0-2.3350936,1.7512979-4.1698054,4.0864297-4.1698054h2.3350809c2.3350809,0,4.0864297,1.8347118,4.0864297,4.1698054v2.4184884l6.4215105-.5837702v-1.8347118c0-5.8377276-4.5034102-10.2577239-10.3411378-10.2577239v-.0000127Z"/>
      <path class="st4" d="M426.341173,77.2659121v-16.0954515c0-5.8377276-4.5034102-10.2577239-10.3411378-10.2577239h-2.585259c-5.8377276,0-10.3411378,4.4199963-10.3411378,10.2577239v16.0954515c0,5.8377276,4.5034102,10.2577239,10.3411378,10.2577239h2.585259c5.8377276,0,10.3411378-4.4199963,10.3411378-10.2577239ZM419.9196625,77.2659121c0,2.3350936-1.7512979,4.1698054-4.0864297,4.1698054h-2.3350809c-2.3350809,0-4.0864297-1.8347118-4.0864297-4.1698054v-16.0954515c0-2.3350936,1.7512979-4.1698054,4.0864297-4.1698054h2.3350809c2.3350809,0,4.0864297,1.8347118,4.0864297,4.1698054v16.0954515Z"/>
      <polygon class="st4" points="450.9430251 78.8504394 450.7762227 80.1847759 450.6928469 78.8504394 442.6034142 50.9127431 433.0128617 50.9127431 433.0128617 87.6070308 439.6011238 87.6070308 439.6011238 59.002163 439.7679262 60.5866904 447.6071807 87.6070308 454.0286913 87.6070308 461.7845192 60.5866904 462.0346973 59.002163 462.0346973 87.6070308 468.6230103 87.6070308 468.6230103 50.9127431 458.9490311 50.9127431 450.9430251 78.8504394"/>
      <path class="st4" d="M488.7214521,50.9127431h-13.6769822v36.6942878h6.5883129v-12.0090409h7.0052935c6.00453,0,10.6746917-4.586786,10.6746917-10.5913032v-3.502634c0-6.0045173-4.586786-10.5913032-10.591316-10.5913096ZM492.8078818,65.0066867c0,2.4184884-1.7512979,4.3365951-4.1698054,4.3365951h-6.9218668v-12.1758306h6.9218668c2.4185075,0,4.1698054,1.918113,4.1698054,4.3365951v3.5026404Z"/>
      <path class="st4" d="M529.1685648,77.1825173v-26.2697742h-6.5048863v26.2697742c0,2.4184884-1.7512979,4.2532003-4.1698054,4.2532003h-2.4185075c-2.4185075,0-4.1698054-1.8347118-4.1698054-4.2532003v-26.2697742h-6.5048863v26.2697742c0,5.9211224,4.586786,10.4245136,10.5078893,10.4245136h2.585259c6.00453,0,10.6746917-4.5033911,10.6746917-10.4245136h.0000509Z"/>
      <polygon class="st4" points="535.7568777 57.1674512 544.4300424 57.1674512 544.4300424 87.6070308 551.0183554 87.6070308 551.0183554 57.1674512 559.6915201 57.1674512 559.6915201 50.9127431 535.7568777 50.9127431 535.7568777 57.1674512"/>
      <rect class="st4" x="565.9462283" y="50.9127431" width="6.5883129" height="36.6108929"/>
      <polygon class="st4" points="585.6277405 62.5048034 585.9612943 64.0893244 599.9718813 87.6070308 605.7261823 87.6070308 605.7261823 50.9127431 599.1379202 50.9127431 599.1379202 76.0149705 598.8043154 74.4304431 584.8771551 50.9127431 579.0394275 50.9127431 579.0394275 87.6070308 585.6277405 87.6070308 585.6277405 62.5048034"/>
      <path class="st4" d="M632.7465418,63.0051788v-1.8347118c0-5.8377276-4.5034102-10.2577239-10.3411378-10.2577239h-2.585259c-5.8377276,0-10.3411378,4.4199963-10.3411378,10.2577239v16.0954451c0,5.8377276,4.5034102,10.2577239,10.3411378,10.2577239h1.5011198c2.9188638,0,5.4207471-1.2509416,7.0886692-3.3358443l1.8347246,2.835469h2.5018833v-19.7648816h-11.6754552v6.0879185h5.2539447v3.8362197c0,2.3350936-1.7512979,4.1698054-4.0864297,4.1698054h-2.3350809c-2.3350809,0-4.0864297-1.8347118-4.0864297-4.1698054v-16.0120567c0-2.3350936,1.7512979-4.1698054,4.0864297-4.1698054h2.3350809c2.3350809,0,4.0864297,1.8347118,4.0864297,4.1698054v2.4184884l6.4215105-.5837702Z"/>
    </g>
    <g>
      <path class="st5" d="M380.4042766,99.5221274h-1.4223543c-3.2872168,0-5.8474564,2.49702-5.8474564,5.7842416v9.0398535c0,3.2872168,2.5602396,5.7842416,5.8474564,5.7842416h1.4223543c3.2872168,0,5.8474564-2.49702,5.8474564-5.7842416v-1.0430608l-3.6032955-.3476885v1.3591395c0,1.3275297-.979846,2.3389806-2.2757707,2.3389806h-1.3275345c-1.3275345,0-2.2757707-1.0430608-2.2757707-2.3389806v-9.0398535c0-1.3275297.979846-2.3389806,2.2757707-2.3389806h1.3275345c1.3275345,0,2.2757707,1.0430608,2.2757707,2.3389806v1.3591395l3.6032955-.3476885v-1.0430608c-.0316098-3.224002-2.5602396-5.7210269-5.8474564-5.7210269v.0000048Z"/>
      <path class="st5" d="M415.1267989,99.5221274h-1.4223543c-3.2872168,0-5.8474564,2.49702-5.8474564,5.7842416v9.0398535c0,3.2872168,2.5602396,5.7842416,5.8474564,5.7842416h1.4223543c3.2872168,0,5.8474564-2.49702,5.8474564-5.7842416v-9.0398535c0-3.2872168-2.5602396-5.7842416-5.8474564-5.7842416ZM417.3709598,114.3462225c0,1.3275297-.979846,2.3389806-2.2757707,2.3389806h-1.3275345c-1.3275345,0-2.2757707-1.0430608-2.2757707-2.3389806v-9.0398535c0-1.3275297.979846-2.3389806,2.2757707-2.3389806h1.3275345c1.3275345,0,2.2757707,1.0430608,2.2757707,2.3389806v9.0398535Z"/>
      <polygon class="st5" points="452.9468889 113.6192405 452.7572397 112.7658289 444.8868814 99.5221274 441.6312744 99.5221274 441.6312744 120.1304594 445.3293897 120.1304594 445.3293897 106.0333511 445.5190388 106.9183725 453.3893972 120.1304594 456.6450138 120.1304594 456.6450138 99.5221274 452.9468889 99.5221274 452.9468889 113.6192405"/>
      <path class="st5" d="M481.1265922,105.4960182v-.1580394c0-1.3275297.9798363-2.3389806,2.2757707-2.3389806h.8850166c1.3275345,0,2.2757707,1.0430608,2.2757707,2.3389806v1.011451l3.6033052-.3476885v-.6637673c0-3.2872168-2.56023-5.7842416-5.8474564-5.7842416h-1.0114558c-3.2872265,0-5.8474564,2.49702-5.8474564,5.7842416v.1580394c0,7.712319,9.2295027,4.3618874,9.2295027,8.6289502v.2528639c0,1.3275297-.9798363,2.3389806-2.2757707,2.3389806h-1.1694951c-1.3275345,0-2.2757707-1.0430608-2.2757707-2.3389806v-1.011451l-3.6032955.3476885v.6637673c0,3.2872168,2.5602396,5.7842416,5.8474468,5.7842416h1.2959151c3.2872265,0,5.8474564-2.49702,5.8474564-5.7842416v-.2528639c0-7.4594599-9.2295027-4.6147513-9.2295027-8.6289502h.0000193Z"/>
      <path class="st5" d="M519.2943659,99.5221274h-1.4223543c-3.2872265,0-5.8474564,2.49702-5.8474564,5.7842416v9.0398535c0,3.2872168,2.56023,5.7842416,5.8474564,5.7842416h1.4223543c3.2872265,0,5.8474564-2.49702,5.8474564-5.7842416v-9.0398535c-.0316002-3.2872168-2.56023-5.7842416-5.8474564-5.7842416ZM521.5069169,114.3462225c0,1.3275297-.9798363,2.3389806-2.2757707,2.3389806h-1.3275345c-1.3275345,0-2.2757707-1.0430608-2.2757707-2.3389806v-9.0398535c0-1.3275297.9798363-2.3389806,2.2757707-2.3389806h1.3275345c1.3275345,0,2.2757707,1.0430608,2.2757707,2.3389806v9.0398535Z"/>
      <path class="st5" d="M559.9117545,106.5706839v-1.1062755c0-3.3820414-2.6234496-5.942281-6.0054958-5.942281h-7.649109v20.608332h3.6981249v-7.6174992h2.4021906l3.9193839,7.6174992h4.0774233l-4.2038432-8.0283977c2.2441512-.8534116,3.7613446-2.9395331,3.7613446-5.5313777h-.0000193ZM553.8746585,108.9728842h-3.8877645v-5.9106712h3.8877645c1.3591347,0,2.3705904,1.0746657,2.3705904,2.4022002v1.0746657c0,1.3907445-1.0430559,2.4338052-2.3705904,2.4338052Z"/>
      <polygon class="st5" points="581.3273605 103.0622082 586.1633611 103.0622082 586.1633611 120.1304594 589.8930863 120.1304594 589.8930863 103.0622082 594.7291062 103.0622082 594.7291062 99.5221274 581.3273605 99.5221274 581.3273605 103.0622082"/>
      <rect class="st5" x="620.9016932" y="99.5221274" width="3.6981249" height="20.608332"/>
      <path class="st5" d="M660.4444064,114.2830029c0,1.3275297-.9798363,2.3705904-2.3073708,2.3705904h-1.3275345c-1.3275345,0-2.3073708-1.0430608-2.3073708-2.3705904v-14.7292705h-3.6665055v14.7292705c0,3.3504364,2.5918494,5.8474564,5.910676,5.8474564h1.4539544c3.3504268,0,5.910676-2.5286298,5.910676-5.8474564v-14.7292705h-3.6665055v14.7292705h-.0000193Z"/>
      <polygon class="st5" points="692.2590102 115.2312391 692.1958099 115.9898309 692.1325903 115.2312391 687.6126684 99.5221274 682.1761105 99.5221274 682.1761105 120.1304594 685.9058356 120.1304594 685.9058356 104.1052689 686.0006553 104.9902903 690.3941573 120.1304594 693.9974432 120.1304594 698.3593451 104.9902903 698.485765 104.1052689 698.485765 120.1304594 702.2154901 120.1304594 702.2154901 99.5221274 696.7789514 99.5221274 692.2590102 115.2312391"/>
    </g>
  </g>
  <path class="st3" d="M217.5956559,83.6983149c-18.7201143,0-33.6303085,15.23356-33.6303085,33.9536768s15.2335625,33.9536768,33.9536768,33.9536768,33.9536768-15.2335625,33.9536768-33.9536768-15.5569308-33.9536768-34.2770452-33.9536768ZM235.8999249,111.3802636l-19.402101,19.4021035c-1.894618,1.8946131-4.9643476,1.8946131-6.8589656,0l-9.7010505-9.7010505c-1.894618-1.8946155-1.894618-4.9643501,0-6.8589656s4.9643476-1.8946155,6.8589656,0l6.2717256,6.2717256,15.9727761-15.9727811c1.894618-1.8946155,4.9643476-1.8946155,6.8589656,0s1.894618,4.9643525-.0003158,6.8589681Z"/>
  <g>
    <path class="st0" d="M179.1149222,180.7088059c2.6787109,0,4.8504639-2.1717529,4.8504639-4.8505249s-2.1717529-4.8505249-4.8504639-4.8505249c-2.6789551,0-4.8505859,2.1717529-4.8505859,4.8505249s2.1716309,4.8505249,4.8505859,4.8505249Z"/>
    <path class="st0" d="M198.5170218,180.7088059c2.6787109,0,4.8504639-2.1717529,4.8504639-4.8505249s-2.1717529-4.8505249-4.8504639-4.8505249c-2.6789551,0-4.8505859,2.1717529-4.8505859,4.8505249s2.1716309,4.8505249,4.8505859,4.8505249Z"/>
    <path class="st0" d="M217.9191214,209.8119553h-38.8041992c-2.6811523,0-4.8505859,2.1694946-4.8505859,4.8505249s2.1694336,4.8505249,4.8505859,4.8505249h38.8041992c2.6809082,0,4.8504639-2.1694946,4.8504639-4.8505249s-2.1695557-4.8505249-4.8504639-4.8505249Z"/>
    <path class="st0" d="M217.9191214,190.4098557h-38.8041992c-2.6811523,0-4.8505859,2.1694946-4.8505859,4.8505249s2.1694336,4.8505249,4.8505859,4.8505249h38.8041992c2.6809082,0,4.8504639-2.1694946,4.8504639-4.8505249s-2.1695557-4.8505249-4.8504639-4.8505249Z"/>
    <path class="st0" d="M217.9191214,171.0077561c-2.6789551,0-4.8505859,2.1717529-4.8505859,4.8505249s2.1716309,4.8505249,4.8505859,4.8505249c2.6787109,0,4.8504639-2.1717529,4.8504639-4.8505249s-2.1717529-4.8505249-4.8504639-4.8505249Z"/>
    <path class="st3" d="M217.9191214,161.3067063c-22.4118652,0-40.7156982-17.0366821-43.1645508-38.8041992h-73.8948975c-8.0240479,0-14.5516357,6.5275269-14.5516357,14.5515747v87.3094482c0,8.0240479,6.5275879,14.5515747,14.5516357,14.5515747h126.760376c8.0241699,0,14.5516357-6.5275269,14.5516357-14.5515747v-70.4467773c-6.9429932,4.6581421-15.2817383,7.3899536-24.2525635,7.3899536ZM198.5170218,171.0077561c2.6787109,0,4.8504639,2.1717529,4.8504639,4.8505249s-2.1717529,4.8505249-4.8504639,4.8505249c-2.6789551,0-4.8505859-2.1717529-4.8505859-4.8505249s2.1716309-4.8505249,4.8505859-4.8505249ZM179.1149222,171.0077561c2.6787109,0,4.8504639,2.1717529,4.8504639,4.8505249s-2.1717529,4.8505249-4.8504639,4.8505249c-2.6789551,0-4.8505859-2.1717529-4.8505859-4.8505249s2.1716309-4.8505249,4.8505859-4.8505249ZM99.5370413,157.9448899c0-3.8525391,3.1342773-6.9863281,6.9863281-6.9863281s6.9863281,3.1337891,6.9863281,6.9863281c0,2.3378906-1.1469727,4.4628906-3.0161133,5.7470703v2.9329224c5.0385742-3.7849731,11.1558838-6.0130005,17.75-6.0130005,6.5943604,0,12.7116699,2.2280273,17.7504883,6.0131226v-2.934021c-1.8696289-1.2832031-3.0170898-3.4091797-3.0170898-5.7460938,0-3.8525391,3.1347656-6.9863281,6.9873047-6.9863281s6.9873047,3.1337891,6.9873047,6.9863281c0,2.3369141-1.1474609,4.4628906-3.0170898,5.7480469v11.5539551c3.4228516,5.3855591,5.4301758,11.894165,5.4301758,18.9001465,0,10.6835938-13.6699219,19.0527344-31.1210938,19.0527344-17.4506836,0-31.1206055-8.3691406-31.1206055-19.0527344,0-7.0060425,2.0073242-13.5146484,5.4301758-18.9002075v-11.5558472c-1.8691406-1.2841797-3.0161133-3.4091797-3.0161133-5.7460938ZM217.9191214,219.5130051h-38.8041992c-2.6811523,0-4.8505859-2.1694946-4.8505859-4.8505249s2.1694336-4.8505249,4.8505859-4.8505249h38.8041992c2.6809082,0,4.8504639,2.1694946,4.8504639,4.8505249s-2.1695557,4.8505249-4.8504639,4.8505249ZM217.9191214,200.1109055h-38.8041992c-2.6811523,0-4.8505859-2.1694946-4.8505859-4.8505249s2.1694336-4.8505249,4.8505859-4.8505249h38.8041992c2.6809082,0,4.8504639,2.1694946,4.8504639,4.8505249s-2.1695557,4.8505249-4.8504639,4.8505249ZM217.9191214,180.7088059c-2.6789551,0-4.8505859-2.1717529-4.8505859-4.8505249s2.1716309-4.8505249,4.8505859-4.8505249c2.6787109,0,4.8504639,2.1717529,4.8504639,4.8505249s-2.1717529,4.8505249-4.8504639,4.8505249Z"/>
    <path class="st3" d="M106.2694632,194.1470383c0,4.0390625,8.5600586,9.90625,21.9741211,9.90625,13.4135742,0,21.9736328-5.8671875,21.9736328-9.90625,0-13.4482422-9.8574219-24.3886719-21.9736328-24.3886719-12.1166992,0-21.9741211,10.9404297-21.9741211,24.3886719ZM128.2411429,182.7993821c4.8676758,0,9.6279297-.7607422,14.1577148-2.2636719,2.0830078,3.6933594,3.2250977,8.4990234,3.2250977,13.6113281,0,1.7148438-6.6118164,4.1064453-17.3803711,4.1064453-10.7680664,0-17.3798828-2.3916016-17.3798828-4.1064453,0-5.1113281,1.1420898-9.9179688,3.2255859-13.6113281,4.5449219,1.5029297,9.3022461,2.2646484,14.1518555,2.2636719Z"/>
  </g>
  <g>
    <circle class="st3" cx="119.1056748" cy="190.1291485" r="2.6352888"/>
    <circle class="st3" cx="137.3810056" cy="190.1291485" r="2.6352888"/>
  </g>
</svg>