<?xml version="1.0" encoding="UTF-8"?>
<svg id="Layer_1" data-name="Layer 1" xmlns="http://www.w3.org/2000/svg" xmlns:xlink="http://www.w3.org/1999/xlink" viewBox="0 0 831.12 313.86">
  <defs>
    <style>
      .cls-1 {
        fill: url(#linear-gradient-2);
      }

      .cls-2 {
        fill: url(#linear-gradient);
      }

      .cls-3 {
        fill: #0f151f;
      }

      .cls-4 {
        fill: #00a5b2;
      }
    </style>
    <linearGradient id="linear-gradient" x1="371.9" y1="228.26" x2="831.12" y2="228.26" gradientUnits="userSpaceOnUse">
      <stop offset="0" stop-color="#eb0045"/>
      <stop offset=".07" stop-color="#db074c"/>
      <stop offset=".2" stop-color="#b41b5f"/>
      <stop offset=".37" stop-color="#733b7f"/>
      <stop offset=".59" stop-color="#1c66aa"/>
      <stop offset=".66" stop-color="#0075b8"/>
      <stop offset="1" stop-color="#3fc1c9"/>
    </linearGradient>
    <linearGradient id="linear-gradient-2" x1="34.31" y1="43.05" x2="293.88" y2="272.83" xlink:href="#linear-gradient"/>
  </defs>
  <g>
    <g>
      <g>
        <path class="cls-3" d="M383.58,56.75h2.59c5.84,0,10.34-4.42,10.34-10.26v-1.83l-6.42-.58v2.42c0,2.34-1.75,4.17-4.09,4.17h-2.34c-2.34,0-4.09-1.83-4.09-4.17v-16.1c0-2.34,1.75-4.17,4.09-4.17h2.34c2.34,0,4.09,1.83,4.09,4.17v2.42l6.42-.58v-1.83c0-5.84-4.5-10.26-10.34-10.26h-2.59c-5.84,0-10.34,4.42-10.34,10.26v16.1c0,5.84,4.5,10.26,10.34,10.26h0Z"/>
        <path class="cls-3" d="M416.1,20.14h-2.59c-5.84,0-10.34,4.42-10.34,10.26v16.1c0,5.84,4.5,10.26,10.34,10.26h2.59c5.84,0,10.34-4.42,10.34-10.26v-16.1c0-5.84-4.5-10.26-10.34-10.26ZM420.02,46.49c0,2.34-1.75,4.17-4.09,4.17h-2.34c-2.34,0-4.09-1.83-4.09-4.17v-16.1c0-2.34,1.75-4.17,4.09-4.17h2.34c2.34,0,4.09,1.83,4.09,4.17v16.1Z"/>
        <polygon class="cls-3" points="439.87 31.73 440.2 33.32 454.13 56.83 459.97 56.83 459.97 20.14 453.38 20.14 453.38 45.24 453.05 43.66 439.04 20.14 433.28 20.14 433.28 56.83 439.87 56.83 439.87 31.73"/>
        <polygon class="cls-3" points="465.64 56.83 472.31 56.83 472.31 41.65 485.82 41.65 485.82 35.32 472.31 35.32 472.31 26.39 489.07 26.39 489.07 20.14 465.64 20.14 465.64 56.83"/>
        <rect class="cls-3" x="494.99" y="20.14" width="6.59" height="36.69"/>
        <path class="cls-3" d="M532.11,46.24v-15.51c0-6-4.67-10.59-10.67-10.59h-13.34v36.69h13.34c6,0,10.67-4.59,10.67-10.59ZM514.68,50.58v-24.18h6.59c2.42,0,4.17,1.92,4.17,4.34v15.51c0,2.42-1.75,4.34-4.17,4.34h-6.59Z"/>
        <polygon class="cls-3" points="538.19 56.83 561.63 56.83 561.63 50.58 544.78 50.58 544.78 41.65 558.29 41.65 558.29 35.32 544.78 35.32 544.78 26.39 561.63 26.39 561.63 20.14 538.19 20.14 538.19 56.83"/>
        <polygon class="cls-3" points="574.47 31.73 574.8 33.23 588.73 56.75 594.57 56.75 594.57 20.14 587.98 20.14 587.98 45.16 587.65 43.66 573.64 20.14 567.88 20.14 567.88 56.75 574.47 56.75 574.47 31.73"/>
        <polygon class="cls-3" points="601.49 26.39 610.08 26.39 610.08 56.75 616.67 56.75 616.67 26.39 625.34 26.39 625.34 20.14 601.49 20.14 601.49 26.39"/>
        <rect class="cls-3" x="632.26" y="20.14" width="6.59" height="36.61"/>
        <path class="cls-3" d="M656.37,20.14l-10.17,36.61h7.09l1.92-7.26h11.26l1.92,7.26h7.09l-10.26-36.61h-8.84ZM656.53,43.82l4.17-15.93v-1.42l.17,1.33,4.09,15.93h-8.42v.08Z"/>
        <polygon class="cls-3" points="688.81 20.14 682.22 20.14 682.22 56.75 702.32 56.75 702.32 50.49 688.81 50.49 688.81 20.14"/>
      </g>
      <g>
        <path class="cls-3" d="M386.16,69.3h-2.59c-5.84,0-10.34,4.42-10.34,10.26v16.1c0,5.84,4.5,10.26,10.34,10.26h2.59c5.84,0,10.34-4.42,10.34-10.26v-1.83l-6.42-.58v2.42c0,2.34-1.75,4.17-4.09,4.17h-2.34c-2.34,0-4.09-1.83-4.09-4.17v-16.1c0-2.34,1.75-4.17,4.09-4.17h2.34c2.34,0,4.09,1.83,4.09,4.17v2.42l6.42-.58v-1.83c0-5.84-4.5-10.26-10.34-10.26h0Z"/>
        <path class="cls-3" d="M426.44,95.66v-16.1c0-5.84-4.5-10.26-10.34-10.26h-2.59c-5.84,0-10.34,4.42-10.34,10.26v16.1c0,5.84,4.5,10.26,10.34,10.26h2.59c5.84,0,10.34-4.42,10.34-10.26ZM420.02,95.66c0,2.34-1.75,4.17-4.09,4.17h-2.34c-2.34,0-4.09-1.83-4.09-4.17v-16.1c0-2.34,1.75-4.17,4.09-4.17h2.34c2.34,0,4.09,1.83,4.09,4.17v16.1Z"/>
        <polygon class="cls-3" points="451.04 97.24 450.88 98.58 450.79 97.24 442.7 69.3 433.11 69.3 433.11 106 439.7 106 439.7 77.39 439.87 78.98 447.71 106 454.13 106 461.89 78.98 462.14 77.39 462.14 106 468.72 106 468.72 69.3 459.05 69.3 451.04 97.24"/>
        <path class="cls-3" d="M488.82,69.3h-13.68v36.69h6.59v-12.01h7.01c6,0,10.67-4.59,10.67-10.59v-3.5c0-6-4.59-10.59-10.59-10.59ZM492.91,83.4c0,2.42-1.75,4.34-4.17,4.34h-6.92v-12.18h6.92c2.42,0,4.17,1.92,4.17,4.34v3.5Z"/>
        <path class="cls-3" d="M529.27,95.57v-26.27h-6.5v26.27c0,2.42-1.75,4.25-4.17,4.25h-2.42c-2.42,0-4.17-1.83-4.17-4.25v-26.27h-6.5v26.27c0,5.92,4.59,10.42,10.51,10.42h2.59c6,0,10.67-4.5,10.67-10.42h0Z"/>
        <polygon class="cls-3" points="535.86 75.56 544.53 75.56 544.53 106 551.12 106 551.12 75.56 559.79 75.56 559.79 69.3 535.86 69.3 535.86 75.56"/>
        <rect class="cls-3" x="566.05" y="69.3" width="6.59" height="36.61"/>
        <polygon class="cls-3" points="585.73 80.9 586.06 82.48 600.07 106 605.83 106 605.83 69.3 599.24 69.3 599.24 94.41 598.91 92.82 584.98 69.3 579.14 69.3 579.14 106 585.73 106 585.73 80.9"/>
        <path class="cls-3" d="M632.85,81.4v-1.83c0-5.84-4.5-10.26-10.34-10.26h-2.59c-5.84,0-10.34,4.42-10.34,10.26v16.1c0,5.84,4.5,10.26,10.34,10.26h1.5c2.92,0,5.42-1.25,7.09-3.34l1.83,2.84h2.5v-19.76h-11.68v6.09h5.25v3.84c0,2.34-1.75,4.17-4.09,4.17h-2.34c-2.34,0-4.09-1.83-4.09-4.17v-16.01c0-2.34,1.75-4.17,4.09-4.17h2.34c2.34,0,4.09,1.83,4.09,4.17v2.42l6.42-.58Z"/>
      </g>
      <g>
        <path class="cls-4" d="M380.51,117.91h-1.42c-3.29,0-5.85,2.5-5.85,5.78v9.04c0,3.29,2.56,5.78,5.85,5.78h1.42c3.29,0,5.85-2.5,5.85-5.78v-1.04l-3.6-.35v1.36c0,1.33-.98,2.34-2.28,2.34h-1.33c-1.33,0-2.28-1.04-2.28-2.34v-9.04c0-1.33.98-2.34,2.28-2.34h1.33c1.33,0,2.28,1.04,2.28,2.34v1.36l3.6-.35v-1.04c-.03-3.22-2.56-5.72-5.85-5.72h0Z"/>
        <path class="cls-4" d="M415.23,117.91h-1.42c-3.29,0-5.85,2.5-5.85,5.78v9.04c0,3.29,2.56,5.78,5.85,5.78h1.42c3.29,0,5.85-2.5,5.85-5.78v-9.04c0-3.29-2.56-5.78-5.85-5.78ZM417.47,132.74c0,1.33-.98,2.34-2.28,2.34h-1.33c-1.33,0-2.28-1.04-2.28-2.34v-9.04c0-1.33.98-2.34,2.28-2.34h1.33c1.33,0,2.28,1.04,2.28,2.34v9.04Z"/>
        <polygon class="cls-4" points="453.05 132.01 452.86 131.16 444.99 117.91 441.73 117.91 441.73 138.52 445.43 138.52 445.43 124.43 445.62 125.31 453.49 138.52 456.75 138.52 456.75 117.91 453.05 117.91 453.05 132.01"/>
        <path class="cls-4" d="M481.23,123.89v-.16c0-1.33.98-2.34,2.28-2.34h.89c1.33,0,2.28,1.04,2.28,2.34v1.01l3.6-.35v-.66c0-3.29-2.56-5.78-5.85-5.78h-1.01c-3.29,0-5.85,2.5-5.85,5.78v.16c0,7.71,9.23,4.36,9.23,8.63v.25c0,1.33-.98,2.34-2.28,2.34h-1.17c-1.33,0-2.28-1.04-2.28-2.34v-1.01l-3.6.35v.66c0,3.29,2.56,5.78,5.85,5.78h1.3c3.29,0,5.85-2.5,5.85-5.78v-.25c0-7.46-9.23-4.61-9.23-8.63h0Z"/>
        <path class="cls-4" d="M519.4,117.91h-1.42c-3.29,0-5.85,2.5-5.85,5.78v9.04c0,3.29,2.56,5.78,5.85,5.78h1.42c3.29,0,5.85-2.5,5.85-5.78v-9.04c-.03-3.29-2.56-5.78-5.85-5.78ZM521.61,132.74c0,1.33-.98,2.34-2.28,2.34h-1.33c-1.33,0-2.28-1.04-2.28-2.34v-9.04c0-1.33.98-2.34,2.28-2.34h1.33c1.33,0,2.28,1.04,2.28,2.34v9.04Z"/>
        <path class="cls-4" d="M560.01,124.96v-1.11c0-3.38-2.62-5.94-6.01-5.94h-7.65v20.61h3.7v-7.62h2.4l3.92,7.62h4.08l-4.2-8.03c2.24-.85,3.76-2.94,3.76-5.53h0ZM553.98,127.36h-3.89v-5.91h3.89c1.36,0,2.37,1.07,2.37,2.4v1.07c0,1.39-1.04,2.43-2.37,2.43Z"/>
        <polygon class="cls-4" points="581.43 121.45 586.26 121.45 586.26 138.52 589.99 138.52 589.99 121.45 594.83 121.45 594.83 117.91 581.43 117.91 581.43 121.45"/>
        <rect class="cls-4" x="621" y="117.91" width="3.7" height="20.61"/>
        <path class="cls-4" d="M660.55,132.67c0,1.33-.98,2.37-2.31,2.37h-1.33c-1.33,0-2.31-1.04-2.31-2.37v-14.73h-3.67v14.73c0,3.35,2.59,5.85,5.91,5.85h1.45c3.35,0,5.91-2.53,5.91-5.85v-14.73h-3.67v14.73h0Z"/>
        <polygon class="cls-4" points="692.36 133.62 692.3 134.38 692.23 133.62 687.71 117.91 682.28 117.91 682.28 138.52 686.01 138.52 686.01 122.5 686.1 123.38 690.5 138.52 694.1 138.52 698.46 123.38 698.59 122.5 698.59 138.52 702.32 138.52 702.32 117.91 696.88 117.91 692.36 133.62"/>
      </g>
    </g>
    <path class="cls-2" d="M405.4,169.95l-.97,7.64h-10.37v34.4h-9.95v-34.4h-10.86v-7.64h32.16,0ZM433.79,198.71h-19.96c.32,2.71,1.09,4.61,2.3,5.7,1.22,1.09,2.89,1.64,5.04,1.64,1.29,0,2.55-.23,3.76-.7,1.21-.47,2.53-1.18,3.94-2.15l3.94,5.34c-3.76,2.99-7.95,4.49-12.56,4.49-5.22,0-9.22-1.54-12.01-4.61-2.79-3.07-4.19-7.2-4.19-12.38,0-3.28.58-6.22,1.76-8.83,1.17-2.61,2.89-4.67,5.16-6.19,2.26-1.52,4.97-2.28,8.13-2.28,4.65,0,8.29,1.46,10.92,4.37,2.63,2.91,3.94,6.96,3.94,12.13,0,1.33-.06,2.49-.18,3.46h0ZM424.57,192.52c-.08-4.93-1.82-7.4-5.22-7.4-1.66,0-2.94.61-3.85,1.82s-1.47,3.22-1.67,6.01h10.74v-.42ZM459.33,179.72c1.78.65,3.46,1.64,5.03,2.97l-4.12,5.7c-2.02-1.54-4.07-2.3-6.13-2.3s-3.76.79-4.85,2.37c-1.09,1.58-1.64,4.13-1.64,7.64s.55,5.81,1.64,7.22c1.09,1.42,2.67,2.12,4.73,2.12,1.09,0,2.08-.17,2.97-.51s1.96-.9,3.22-1.67l4.19,5.95c-3.2,2.55-6.82,3.82-10.86,3.82-3.28,0-6.11-.7-8.49-2.09-2.39-1.4-4.23-3.36-5.52-5.89s-1.94-5.49-1.94-8.89.65-6.41,1.94-9.04c1.3-2.63,3.13-4.68,5.52-6.16,2.38-1.48,5.16-2.22,8.31-2.22,2.22,0,4.23.33,6.01.97h0ZM493.85,181.3c1.58,1.7,2.37,4.09,2.37,7.16v23.54h-9.59v-21.9c0-1.62-.26-2.74-.79-3.37-.53-.63-1.27-.94-2.24-.94-1.94,0-3.8,1.38-5.58,4.13v22.08h-9.59v-45.02l9.59-.97v17.23c1.34-1.5,2.75-2.62,4.25-3.37,1.49-.75,3.17-1.12,5.03-1.12,2.79,0,4.98.85,6.55,2.55ZM528.86,181.3c1.58,1.7,2.37,4.09,2.37,7.16v23.54h-9.59v-21.9c0-1.62-.25-2.74-.76-3.37-.51-.63-1.26-.94-2.28-.94-1.94,0-3.8,1.4-5.58,4.19v22.02h-9.59v-32.22h8.37l.67,3.82c1.38-1.62,2.86-2.83,4.46-3.64,1.6-.81,3.39-1.21,5.37-1.21,2.79,0,4.98.85,6.55,2.55ZM547.27,164.34c1.07,1.03,1.61,2.34,1.61,3.91s-.54,2.88-1.61,3.91c-1.07,1.03-2.44,1.55-4.1,1.55s-3.01-.52-4.06-1.55c-1.05-1.03-1.58-2.34-1.58-3.91s.52-2.88,1.58-3.91c1.05-1.03,2.4-1.55,4.06-1.55s3.02.52,4.1,1.55ZM548.03,179.78v32.22h-9.59v-32.22h9.59ZM575.52,179.72c1.78.65,3.46,1.64,5.04,2.97l-4.13,5.7c-2.02-1.54-4.06-2.3-6.13-2.3s-3.76.79-4.85,2.37c-1.09,1.58-1.64,4.13-1.64,7.64s.55,5.81,1.64,7.22c1.09,1.42,2.67,2.12,4.73,2.12,1.09,0,2.08-.17,2.97-.51.89-.34,1.96-.9,3.21-1.67l4.19,5.95c-3.2,2.55-6.82,3.82-10.86,3.82-3.28,0-6.11-.7-8.49-2.09-2.38-1.4-4.23-3.36-5.52-5.89-1.3-2.53-1.94-5.49-1.94-8.89s.65-6.41,1.94-9.04c1.29-2.63,3.13-4.68,5.52-6.16,2.39-1.48,5.16-2.22,8.31-2.22,2.22,0,4.23.33,6.01.97h0ZM610.13,205.32c.34.57.9.99,1.67,1.28l-2,6.25c-1.98-.16-3.6-.6-4.85-1.3-1.25-.71-2.22-1.83-2.91-3.37-2.1,3.24-5.34,4.85-9.71,4.85-3.2,0-5.75-.93-7.64-2.79-1.9-1.86-2.85-4.29-2.85-7.28,0-3.52,1.3-6.21,3.88-8.07,2.59-1.86,6.33-2.79,11.22-2.79h3.28v-1.4c0-1.9-.41-3.2-1.21-3.91-.81-.71-2.23-1.06-4.25-1.06-1.05,0-2.33.15-3.82.46-1.5.3-3.04.72-4.61,1.24l-2.18-6.31c2.02-.77,4.1-1.36,6.22-1.76,2.12-.4,4.1-.61,5.91-.61,4.61,0,7.99.95,10.13,2.85,2.14,1.9,3.22,4.75,3.22,8.55v12.5c0,1.21.17,2.1.51,2.67h0ZM600.21,203.08v-5.7h-2.37c-2.18,0-3.81.39-4.88,1.15s-1.61,1.96-1.61,3.58c0,1.3.33,2.3,1,3s1.59,1.06,2.76,1.06c2.18,0,3.88-1.03,5.1-3.1ZM618.68,210.64c-1.56-1.6-2.33-3.87-2.33-6.83v-36.83l9.59-1.03v37.49c0,1.33.55,2,1.64,2,.57,0,1.09-.1,1.58-.3l1.88,6.8c-1.74.73-3.68,1.09-5.82,1.09-2.79,0-4.97-.8-6.52-2.39h0ZM398.78,280.25l-2.18-9.04h-12.25l-2.13,9.04h-10.31l12.68-42.05h12.07l12.68,42.05h-10.56ZM386.04,263.99h8.86l-4.43-18.56-4.43,18.56ZM441.13,235.24v45.02h-8.49l-.49-3.76c-2.27,3.2-5.32,4.79-9.16,4.79s-7.05-1.54-9.13-4.61c-2.08-3.07-3.12-7.28-3.12-12.62,0-3.28.55-6.21,1.64-8.8s2.64-4.61,4.64-6.07c2-1.46,4.3-2.18,6.89-2.18,3.07,0,5.62,1.01,7.64,3.03v-15.83l9.59,1.03h0ZM431.54,270.61v-13.89c-.77-.93-1.55-1.62-2.34-2.06-.79-.44-1.69-.67-2.7-.67-1.78,0-3.2.83-4.25,2.49-1.05,1.66-1.58,4.21-1.58,7.64,0,3.76.45,6.39,1.36,7.89.91,1.5,2.22,2.24,3.91,2.24,2.22,0,4.09-1.21,5.58-3.64ZM476.38,248.04l-10.13,32.22h-11.34l-10.37-32.22h10.43l5.7,24.94,5.94-24.94h9.77ZM488.6,232.6c1.07,1.03,1.61,2.34,1.61,3.91s-.54,2.88-1.61,3.91c-1.07,1.03-2.44,1.55-4.1,1.55s-3.01-.51-4.06-1.55c-1.05-1.03-1.58-2.33-1.58-3.91s.52-2.88,1.58-3.91c1.05-1.03,2.4-1.55,4.06-1.55s3.02.52,4.1,1.55ZM489.36,248.04v32.22h-9.59v-32.22h9.59ZM514.72,248.04c2.02.69,3.8,1.66,5.34,2.91l-3.52,5.4c-2.63-1.66-5.28-2.49-7.95-2.49-1.25,0-2.22.21-2.88.64s-1,1.02-1,1.79c0,.61.15,1.1.45,1.49s.92.78,1.85,1.18c.93.41,2.37.89,4.31,1.46,3.36.97,5.86,2.23,7.49,3.79s2.46,3.71,2.46,6.46c0,2.18-.63,4.08-1.88,5.67-1.25,1.6-2.97,2.82-5.16,3.67s-4.61,1.27-7.28,1.27-5.23-.42-7.55-1.27c-2.33-.85-4.3-2.02-5.92-3.52l4.67-5.22c2.71,2.1,5.56,3.15,8.55,3.15,1.46,0,2.6-.26,3.43-.79.83-.52,1.24-1.27,1.24-2.24,0-.77-.16-1.38-.49-1.82-.32-.45-.95-.86-1.88-1.24-.93-.38-2.41-.86-4.43-1.43-3.2-.93-5.58-2.22-7.16-3.88-1.58-1.66-2.37-3.72-2.37-6.19,0-1.86.54-3.53,1.61-5.01,1.07-1.48,2.61-2.65,4.61-3.52,2-.87,4.32-1.31,6.95-1.31,2.3,0,4.47.34,6.49,1.03ZM551.73,251.53c2.79,3.01,4.19,7.23,4.19,12.65,0,3.44-.64,6.44-1.91,9.01-1.28,2.57-3.1,4.56-5.46,5.98-2.37,1.41-5.17,2.12-8.4,2.12-4.89,0-8.75-1.51-11.56-4.52-2.81-3.01-4.22-7.23-4.22-12.65,0-3.44.64-6.44,1.91-9.01,1.27-2.57,3.1-4.56,5.46-5.98,2.37-1.41,5.17-2.12,8.4-2.12,4.93,0,8.8,1.51,11.59,4.52h0ZM535.78,256.5c-.97,1.64-1.46,4.18-1.46,7.61s.47,6.09,1.42,7.71,2.42,2.43,4.4,2.43,3.4-.82,4.37-2.46c.97-1.64,1.46-4.18,1.46-7.61s-.48-6.09-1.43-7.71c-.95-1.62-2.42-2.43-4.4-2.43s-3.4.82-4.37,2.46ZM582.31,247.55l-1.52,9.28c-1.22-.28-2.19-.42-2.91-.42-1.9,0-3.35.66-4.34,1.97-.99,1.31-1.77,3.29-2.34,5.91v15.96h-9.59v-32.22h8.37l.79,6.25c.73-2.22,1.83-3.97,3.31-5.25s3.14-1.91,5.01-1.91c1.17,0,2.25.14,3.22.42h0ZM603.73,280.31c-1.3,4.17-3.41,7.37-6.34,9.62-2.93,2.24-6.87,3.51-11.8,3.79l-1.03-6.73c3.07-.41,5.35-1.09,6.82-2.06,1.48-.97,2.66-2.53,3.55-4.67h-3.28l-9.83-32.22h10.19l5.76,26.09,6.31-26.09h9.89l-10.25,32.28h0ZM656.12,238.33c2.04.77,3.97,1.92,5.79,3.46l-4.73,5.64c-1.25-.97-2.49-1.7-3.7-2.18s-2.51-.73-3.88-.73c-2.83,0-5.07,1.19-6.7,3.58-1.64,2.39-2.46,6.07-2.46,11.04s.82,8.53,2.46,10.89c1.64,2.37,3.91,3.55,6.82,3.55,1.54,0,2.93-.29,4.19-.88,1.25-.59,2.61-1.43,4.07-2.52l4.43,5.7c-1.58,1.58-3.49,2.87-5.73,3.88-2.24,1.01-4.72,1.52-7.43,1.52-3.88,0-7.26-.85-10.13-2.55-2.87-1.7-5.11-4.22-6.71-7.56-1.6-3.34-2.4-7.35-2.4-12.04s.82-8.51,2.46-11.83c1.64-3.32,3.9-5.83,6.8-7.55,2.89-1.72,6.18-2.58,9.86-2.58,2.63,0,4.96.39,7.01,1.15h0ZM690.97,251.53c2.79,3.01,4.19,7.23,4.19,12.65,0,3.44-.64,6.44-1.91,9.01s-3.09,4.56-5.46,5.98c-2.37,1.41-5.17,2.12-8.4,2.12-4.89,0-8.75-1.51-11.56-4.52-2.81-3.01-4.22-7.23-4.22-12.65,0-3.44.64-6.44,1.91-9.01,1.27-2.57,3.09-4.56,5.46-5.98,2.37-1.41,5.17-2.12,8.4-2.12,4.93,0,8.8,1.51,11.59,4.52h0ZM675.02,256.5c-.97,1.64-1.46,4.18-1.46,7.61s.48,6.09,1.43,7.71c.95,1.62,2.42,2.43,4.4,2.43s3.4-.82,4.37-2.46c.97-1.64,1.46-4.18,1.46-7.61s-.48-6.09-1.43-7.71c-.95-1.62-2.42-2.43-4.4-2.43s-3.4.82-4.37,2.46ZM728.04,280.25h-8.31l-.42-4.06c-2.35,3.4-5.6,5.09-9.77,5.09-2.96,0-5.19-.89-6.71-2.67-1.52-1.78-2.28-4.27-2.28-7.46v-23.12h9.59v21.9c0,1.58.25,2.68.76,3.31.5.63,1.28.94,2.34.94,2.02,0,3.76-1.25,5.22-3.76v-22.39h9.59v32.22h0ZM760.99,249.55c1.58,1.7,2.37,4.09,2.37,7.16v23.54h-9.59v-21.9c0-1.62-.25-2.74-.76-3.37-.51-.63-1.26-.94-2.28-.94-1.94,0-3.8,1.4-5.58,4.19v22.02h-9.59v-32.22h8.37l.67,3.82c1.37-1.62,2.86-2.83,4.46-3.64,1.6-.81,3.39-1.21,5.37-1.21,2.79,0,4.97.85,6.55,2.55ZM790.53,247.98c1.78.65,3.46,1.64,5.03,2.97l-4.12,5.7c-2.02-1.54-4.07-2.3-6.13-2.3s-3.76.79-4.85,2.37-1.64,4.13-1.64,7.64.55,5.81,1.64,7.22c1.09,1.42,2.67,2.12,4.73,2.12,1.09,0,2.08-.17,2.97-.51.89-.34,1.96-.9,3.21-1.67l4.19,5.95c-3.2,2.55-6.82,3.82-10.86,3.82-3.28,0-6.11-.7-8.49-2.09-2.39-1.4-4.23-3.36-5.52-5.88-1.29-2.53-1.94-5.49-1.94-8.89s.65-6.41,1.94-9.04c1.3-2.63,3.13-4.68,5.52-6.16s5.16-2.22,8.31-2.22c2.22,0,4.23.33,6.01.97h0ZM808.46,232.6c1.07,1.03,1.61,2.34,1.61,3.91s-.54,2.88-1.61,3.91c-1.07,1.03-2.44,1.55-4.1,1.55s-3.01-.51-4.06-1.55c-1.05-1.03-1.58-2.33-1.58-3.91s.53-2.88,1.58-3.91c1.05-1.03,2.4-1.55,4.06-1.55s3.02.52,4.1,1.55ZM809.22,248.04v32.22h-9.59v-32.22h9.59ZM818.77,278.89c-1.56-1.6-2.34-3.87-2.34-6.82v-36.83l9.59-1.03v37.49c0,1.33.55,2,1.64,2,.57,0,1.09-.1,1.58-.3l1.88,6.8c-1.74.73-3.68,1.09-5.83,1.09-2.79,0-4.96-.8-6.52-2.4h0Z"/>
  </g>
  <path class="cls-1" d="M105.72,208.83c-1.78,1.78-1.78,4.67,0,6.45,1.78,1.78,4.67,1.78,6.45,0l27.66-27.67c1.78-1.78,1.78-4.67,0-6.45-1.78-1.78-4.67-1.78-6.45,0l-27.66,27.67h0ZM254.76,257.97c0-15.15,12.32-27.47,27.47-27.47,6.17,0,11.85,2.07,16.44,5.51,13.58-23.23,21.4-50.24,21.4-79.09,0-42.73-17.1-81.45-44.8-109.75-4.97,4.92-11.79,7.97-19.32,7.97-15.15,0-27.47-12.32-27.47-27.47,0-4.36,1.05-8.46,2.86-12.12C210.72,5.59,187.58,0,163.14,0,110.1,0,63.23,26.35,34.82,66.64c1.1.81,2.16,1.67,3.15,2.65,5.22,5.18,8.1,12.11,8.1,19.51,0,15.15-12.32,27.47-27.47,27.47-2.35,0-4.61-.33-6.79-.88-3.63,13.24-5.6,27.16-5.6,41.54,0,38.78,14.09,74.24,37.4,101.63,4.85-4.32,11.22-6.96,18.21-6.96,15.15,0,27.47,12.32,27.47,27.47,0,5.17-1.46,9.99-3.96,14.13,22.94,13.13,49.49,20.67,77.81,20.67,38.05,0,72.94-13.55,100.11-36.08-5.22-5-8.49-12.02-8.49-19.81ZM201.14,101.39c-2.1-2.1-1.67-5.61.88-7.14l24.18-14.51c1.79-1.08,4.09-.79,5.57.69l7.86,7.86c1.48,1.48,1.76,3.78.69,5.57l-14.51,24.18c-1.53,2.55-5.04,2.98-7.14.88l-2.71-2.71-30.7,30.57-12.9-12.9,30.7-30.58s-1.93-1.92-1.93-1.92ZM116.45,229.43c-7.11,7.11-18.68,7.11-25.8,0-7.11-7.11-7.11-18.68,0-25.8l43.47-43.48,25.8,25.8-43.47,43.48h0ZM239.84,211.07c-.43,1.57-1.66,2.79-3.23,3.21-1.57.42-3.24-.03-4.39-1.18l-12.25-12.25c-3.47-3.47-9.35-3.53-12.91,0-3.54,3.55-3.57,9.3,0,12.89l12.25,12.25c1.15,1.15,1.6,2.82,1.19,4.39-.42,1.57-1.64,2.8-3.2,3.23-10.96,3.01-22.58.03-30.77-8.16-8.11-8.11-11.39-19.12-7.59-33.38l-50.89-50.93c-14.28,3.83-25.37.43-33.38-7.58-8.21-8.21-11.14-19.9-8.16-30.76.43-1.57,1.66-2.79,3.23-3.21,1.57-.42,3.25.03,4.39,1.18l12.25,12.25c3.5,3.51,9.4,3.51,12.91,0,3.54-3.55,3.57-9.3,0-12.89l-12.25-12.25c-1.15-1.15-1.6-2.82-1.19-4.39s1.63-2.8,3.2-3.23c10.99-3.02,22.6-.02,30.77,8.16,8.03,8.03,11.19,19.84,8.26,30.84l-.67,2.54,50.88,50.93c14.27-3.82,25.38-.43,33.39,7.58,8.21,8.21,11.13,19.9,8.16,30.77ZM0,88.8c0,8.77,6.19,16.18,14.41,18.1,3.91-11.63,9.13-22.65,15.51-32.88-3.14-2.4-7.06-3.83-11.31-3.83C8.39,70.2,0,78.59,0,88.8ZM18.6,107.4c10.21,0,18.6-8.39,18.6-18.6,0-6.1-2.88-11.4-7.29-14.77-6.38,10.23-11.6,21.25-15.51,32.88,1.35.32,2.75.5,4.2.5ZM18.6,107.4c10.21,0,18.6-8.39,18.6-18.6,0-6.1-2.88-11.4-7.29-14.77-6.38,10.23-11.6,21.25-15.51,32.88,1.35.32,2.75.5,4.2.5ZM239.21,19.67c10.72,5.96,20.69,13.11,29.68,21.32,3.48-3.39,5.66-8.11,5.66-13.3,0-10.44-8.39-18.6-18.6-18.6-7.34,0-13.73,4.35-16.74,10.59h0ZM237.35,27.68c0,10.21,8.39,18.6,18.6,18.6,5.01,0,9.58-2.03,12.94-5.3-8.99-8.21-18.96-15.36-29.68-21.32-1.18,2.44-1.86,5.15-1.86,8.02ZM237.35,27.68c0,10.21,8.39,18.6,18.6,18.6,5.01,0,9.58-2.03,12.94-5.3-8.99-8.21-18.96-15.36-29.68-21.32-1.18,2.44-1.86,5.15-1.86,8.02ZM294,243.54c-6.88,10.38-14.97,19.88-24.06,28.33,3.29,2.91,7.59,4.71,12.29,4.71,10.21,0,18.6-8.39,18.6-18.6,0-5.89-2.67-11.05-6.84-14.44h0ZM294,243.54c-3.22-2.61-7.32-4.17-11.77-4.17-10.21,0-18.6,8.39-18.6,18.6,0,5.51,2.46,10.48,6.31,13.9,9.09-8.45,17.17-17.95,24.06-28.33ZM294,243.54c-3.22-2.61-7.32-4.17-11.77-4.17-10.21,0-18.6,8.39-18.6,18.6,0,5.51,2.46,10.48,6.31,13.9,9.09-8.45,17.17-17.95,24.06-28.33ZM77.76,288.57c-10.3-6.7-19.76-14.56-28.2-23.42-3.87,3.42-6.34,8.39-6.34,13.91,0,10.21,8.39,18.6,18.6,18.6,6.74,0,12.67-3.67,15.94-9.09h0ZM77.76,288.57c1.68-2.79,2.67-6.04,2.67-9.51,0-10.44-8.39-18.6-18.6-18.6-4.69,0-8.98,1.78-12.27,4.69,8.44,8.86,17.9,16.73,28.2,23.42h0ZM77.76,288.57c1.68-2.79,2.67-6.04,2.67-9.51,0-10.44-8.39-18.6-18.6-18.6-4.69,0-8.98,1.78-12.27,4.69,8.44,8.86,17.9,16.73,28.2,23.42h0Z"/>
</svg>