<?xml version="1.0" encoding="UTF-8"?>
<svg id="Layer_1" data-name="Layer 1" xmlns="http://www.w3.org/2000/svg" xmlns:xlink="http://www.w3.org/1999/xlink" viewBox="0 0 985.77 313.86">
  <defs>
    <style>
      .cls-1 {
        fill: url(#linear-gradient-2);
      }

      .cls-2 {
        fill: url(#linear-gradient);
      }

      .cls-3 {
        fill: #0f151f;
      }

      .cls-4 {
        fill: #00a5b2;
      }
    </style>
    <linearGradient id="linear-gradient" x1="373.24" y1="228.23" x2="985.77" y2="228.23" gradientUnits="userSpaceOnUse">
      <stop offset="0" stop-color="#eb0045"/>
      <stop offset=".07" stop-color="#db074c"/>
      <stop offset=".2" stop-color="#b41b5f"/>
      <stop offset=".37" stop-color="#733b7f"/>
      <stop offset=".59" stop-color="#1c66aa"/>
      <stop offset=".66" stop-color="#0075b8"/>
      <stop offset="1" stop-color="#3fc1c9"/>
    </linearGradient>
    <linearGradient id="linear-gradient-2" x1="34.31" y1="43.05" x2="293.88" y2="272.83" xlink:href="#linear-gradient"/>
  </defs>
  <g>
    <g>
      <g>
        <path class="cls-3" d="M386.98,56.77h2.59c5.84,0,10.34-4.42,10.34-10.26v-1.83l-6.42-.58v2.42c0,2.34-1.75,4.17-4.09,4.17h-2.34c-2.34,0-4.09-1.83-4.09-4.17v-16.1c0-2.34,1.75-4.17,4.09-4.17h2.34c2.34,0,4.09,1.83,4.09,4.17v2.42l6.42-.58v-1.83c0-5.84-4.5-10.26-10.34-10.26h-2.59c-5.84,0-10.34,4.42-10.34,10.26v16.1c0,5.84,4.5,10.26,10.34,10.26h0Z"/>
        <path class="cls-3" d="M419.51,20.16h-2.59c-5.84,0-10.34,4.42-10.34,10.26v16.1c0,5.84,4.5,10.26,10.34,10.26h2.59c5.84,0,10.34-4.42,10.34-10.26v-16.1c0-5.84-4.5-10.26-10.34-10.26ZM423.42,46.52c0,2.34-1.75,4.17-4.09,4.17h-2.34c-2.34,0-4.09-1.83-4.09-4.17v-16.1c0-2.34,1.75-4.17,4.09-4.17h2.34c2.34,0,4.09,1.83,4.09,4.17v16.1Z"/>
        <polygon class="cls-3" points="443.27 31.76 443.61 33.34 457.53 56.86 463.37 56.86 463.37 20.16 456.78 20.16 456.78 45.27 456.45 43.68 442.44 20.16 436.68 20.16 436.68 56.86 443.27 56.86 443.27 31.76"/>
        <polygon class="cls-3" points="469.04 56.86 475.71 56.86 475.71 41.68 489.22 41.68 489.22 35.34 475.71 35.34 475.71 26.42 492.48 26.42 492.48 20.16 469.04 20.16 469.04 56.86"/>
        <rect class="cls-3" x="498.4" y="20.16" width="6.59" height="36.69"/>
        <path class="cls-3" d="M535.51,46.27v-15.51c0-6-4.67-10.59-10.67-10.59h-13.34v36.69h13.34c6,0,10.67-4.59,10.67-10.59ZM518.08,50.6v-24.18h6.59c2.42,0,4.17,1.92,4.17,4.34v15.51c0,2.42-1.75,4.34-4.17,4.34h-6.59Z"/>
        <polygon class="cls-3" points="541.6 56.86 565.03 56.86 565.03 50.6 548.19 50.6 548.19 41.68 561.7 41.68 561.7 35.34 548.19 35.34 548.19 26.42 565.03 26.42 565.03 20.16 541.6 20.16 541.6 56.86"/>
        <polygon class="cls-3" points="577.87 31.76 578.21 33.26 592.14 56.77 597.97 56.77 597.97 20.16 591.38 20.16 591.38 45.18 591.05 43.68 577.04 20.16 571.29 20.16 571.29 56.77 577.87 56.77 577.87 31.76"/>
        <polygon class="cls-3" points="604.89 26.42 613.48 26.42 613.48 56.77 620.07 56.77 620.07 26.42 628.75 26.42 628.75 20.16 604.89 20.16 604.89 26.42"/>
        <rect class="cls-3" x="635.67" y="20.16" width="6.59" height="36.61"/>
        <path class="cls-3" d="M659.77,20.16l-10.17,36.61h7.09l1.92-7.26h11.26l1.92,7.26h7.09l-10.26-36.61h-8.84ZM659.94,43.85l4.17-15.93v-1.42l.17,1.33,4.09,15.93h-8.42v.08Z"/>
        <polygon class="cls-3" points="692.21 20.16 685.62 20.16 685.62 56.77 705.72 56.77 705.72 50.52 692.21 50.52 692.21 20.16"/>
      </g>
      <g>
        <path class="cls-3" d="M389.57,69.33h-2.59c-5.84,0-10.34,4.42-10.34,10.26v16.1c0,5.84,4.5,10.26,10.34,10.26h2.59c5.84,0,10.34-4.42,10.34-10.26v-1.83l-6.42-.58v2.42c0,2.34-1.75,4.17-4.09,4.17h-2.34c-2.34,0-4.09-1.83-4.09-4.17v-16.1c0-2.34,1.75-4.17,4.09-4.17h2.34c2.34,0,4.09,1.83,4.09,4.17v2.42l6.42-.58v-1.83c0-5.84-4.5-10.26-10.34-10.26h0Z"/>
        <path class="cls-3" d="M429.85,95.68v-16.1c0-5.84-4.5-10.26-10.34-10.26h-2.59c-5.84,0-10.34,4.42-10.34,10.26v16.1c0,5.84,4.5,10.26,10.34,10.26h2.59c5.84,0,10.34-4.42,10.34-10.26ZM423.42,95.68c0,2.34-1.75,4.17-4.09,4.17h-2.34c-2.34,0-4.09-1.83-4.09-4.17v-16.1c0-2.34,1.75-4.17,4.09-4.17h2.34c2.34,0,4.09,1.83,4.09,4.17v16.1Z"/>
        <polygon class="cls-3" points="454.45 97.27 454.28 98.6 454.2 97.27 446.11 69.33 436.52 69.33 436.52 106.02 443.11 106.02 443.11 77.42 443.27 79 451.11 106.02 457.53 106.02 465.29 79 465.54 77.42 465.54 106.02 472.13 106.02 472.13 69.33 462.45 69.33 454.45 97.27"/>
        <path class="cls-3" d="M492.23,69.33h-13.68v36.69h6.59v-12.01h7.01c6,0,10.67-4.59,10.67-10.59v-3.5c0-6-4.59-10.59-10.59-10.59ZM496.31,83.42c0,2.42-1.75,4.34-4.17,4.34h-6.92v-12.18h6.92c2.42,0,4.17,1.92,4.17,4.34v3.5Z"/>
        <path class="cls-3" d="M532.67,95.6v-26.27h-6.5v26.27c0,2.42-1.75,4.25-4.17,4.25h-2.42c-2.42,0-4.17-1.83-4.17-4.25v-26.27h-6.5v26.27c0,5.92,4.59,10.42,10.51,10.42h2.59c6,0,10.67-4.5,10.67-10.42h0Z"/>
        <polygon class="cls-3" points="539.26 75.58 547.94 75.58 547.94 106.02 554.52 106.02 554.52 75.58 563.2 75.58 563.2 69.33 539.26 69.33 539.26 75.58"/>
        <rect class="cls-3" x="569.45" y="69.33" width="6.59" height="36.61"/>
        <polygon class="cls-3" points="589.13 80.92 589.47 82.51 603.48 106.02 609.23 106.02 609.23 69.33 602.64 69.33 602.64 94.43 602.31 92.85 588.38 69.33 582.54 69.33 582.54 106.02 589.13 106.02 589.13 80.92"/>
        <path class="cls-3" d="M636.25,81.42v-1.83c0-5.84-4.5-10.26-10.34-10.26h-2.59c-5.84,0-10.34,4.42-10.34,10.26v16.1c0,5.84,4.5,10.26,10.34,10.26h1.5c2.92,0,5.42-1.25,7.09-3.34l1.83,2.84h2.5v-19.76h-11.68v6.09h5.25v3.84c0,2.34-1.75,4.17-4.09,4.17h-2.34c-2.34,0-4.09-1.83-4.09-4.17v-16.01c0-2.34,1.75-4.17,4.09-4.17h2.34c2.34,0,4.09,1.83,4.09,4.17v2.42l6.42-.58Z"/>
      </g>
      <g>
        <path class="cls-4" d="M383.91,117.94h-1.42c-3.29,0-5.85,2.5-5.85,5.78v9.04c0,3.29,2.56,5.78,5.85,5.78h1.42c3.29,0,5.85-2.5,5.85-5.78v-1.04l-3.6-.35v1.36c0,1.33-.98,2.34-2.28,2.34h-1.33c-1.33,0-2.28-1.04-2.28-2.34v-9.04c0-1.33.98-2.34,2.28-2.34h1.33c1.33,0,2.28,1.04,2.28,2.34v1.36l3.6-.35v-1.04c-.03-3.22-2.56-5.72-5.85-5.72h0Z"/>
        <path class="cls-4" d="M418.63,117.94h-1.42c-3.29,0-5.85,2.5-5.85,5.78v9.04c0,3.29,2.56,5.78,5.85,5.78h1.42c3.29,0,5.85-2.5,5.85-5.78v-9.04c0-3.29-2.56-5.78-5.85-5.78ZM420.88,132.76c0,1.33-.98,2.34-2.28,2.34h-1.33c-1.33,0-2.28-1.04-2.28-2.34v-9.04c0-1.33.98-2.34,2.28-2.34h1.33c1.33,0,2.28,1.04,2.28,2.34v9.04Z"/>
        <polygon class="cls-4" points="456.45 132.04 456.26 131.18 448.39 117.94 445.14 117.94 445.14 138.55 448.83 138.55 448.83 124.45 449.02 125.34 456.89 138.55 460.15 138.55 460.15 117.94 456.45 117.94 456.45 132.04"/>
        <path class="cls-4" d="M484.63,123.91v-.16c0-1.33.98-2.34,2.28-2.34h.89c1.33,0,2.28,1.04,2.28,2.34v1.01l3.6-.35v-.66c0-3.29-2.56-5.78-5.85-5.78h-1.01c-3.29,0-5.85,2.5-5.85,5.78v.16c0,7.71,9.23,4.36,9.23,8.63v.25c0,1.33-.98,2.34-2.28,2.34h-1.17c-1.33,0-2.28-1.04-2.28-2.34v-1.01l-3.6.35v.66c0,3.29,2.56,5.78,5.85,5.78h1.3c3.29,0,5.85-2.5,5.85-5.78v-.25c0-7.46-9.23-4.61-9.23-8.63h0Z"/>
        <path class="cls-4" d="M522.8,117.94h-1.42c-3.29,0-5.85,2.5-5.85,5.78v9.04c0,3.29,2.56,5.78,5.85,5.78h1.42c3.29,0,5.85-2.5,5.85-5.78v-9.04c-.03-3.29-2.56-5.78-5.85-5.78ZM525.01,132.76c0,1.33-.98,2.34-2.28,2.34h-1.33c-1.33,0-2.28-1.04-2.28-2.34v-9.04c0-1.33.98-2.34,2.28-2.34h1.33c1.33,0,2.28,1.04,2.28,2.34v9.04Z"/>
        <path class="cls-4" d="M563.42,124.99v-1.11c0-3.38-2.62-5.94-6.01-5.94h-7.65v20.61h3.7v-7.62h2.4l3.92,7.62h4.08l-4.2-8.03c2.24-.85,3.76-2.94,3.76-5.53h0ZM557.38,127.39h-3.89v-5.91h3.89c1.36,0,2.37,1.07,2.37,2.4v1.07c0,1.39-1.04,2.43-2.37,2.43Z"/>
        <polygon class="cls-4" points="584.83 121.48 589.67 121.48 589.67 138.55 593.4 138.55 593.4 121.48 598.23 121.48 598.23 117.94 584.83 117.94 584.83 121.48"/>
        <rect class="cls-4" x="624.41" y="117.94" width="3.7" height="20.61"/>
        <path class="cls-4" d="M663.95,132.7c0,1.33-.98,2.37-2.31,2.37h-1.33c-1.33,0-2.31-1.04-2.31-2.37v-14.73h-3.67v14.73c0,3.35,2.59,5.85,5.91,5.85h1.45c3.35,0,5.91-2.53,5.91-5.85v-14.73h-3.67v14.73h0Z"/>
        <polygon class="cls-4" points="695.76 133.65 695.7 134.41 695.64 133.65 691.12 117.94 685.68 117.94 685.68 138.55 689.41 138.55 689.41 122.52 689.51 123.41 693.9 138.55 697.5 138.55 701.86 123.41 701.99 122.52 701.99 138.55 705.72 138.55 705.72 117.94 700.28 117.94 695.76 133.65"/>
      </g>
    </g>
    <path class="cls-2" d="M386.59,169.93v34.16h16.38l-1.03,7.88h-25.3v-42.05h9.95ZM416.41,164.31c1.07,1.03,1.61,2.34,1.61,3.91s-.54,2.88-1.61,3.91c-1.07,1.03-2.44,1.55-4.1,1.55s-3.01-.52-4.07-1.55c-1.05-1.03-1.58-2.34-1.58-3.91s.53-2.88,1.58-3.91c1.05-1.03,2.41-1.55,4.07-1.55s3.02.51,4.1,1.55ZM417.16,179.76v32.21h-9.59v-32.21h9.59ZM450.11,181.27c1.58,1.7,2.37,4.09,2.37,7.16v23.54h-9.59v-21.9c0-1.62-.25-2.74-.76-3.37-.51-.63-1.26-.94-2.28-.94-1.94,0-3.8,1.39-5.58,4.19v22.02h-9.59v-32.21h8.37l.67,3.82c1.38-1.62,2.86-2.83,4.46-3.64,1.6-.81,3.39-1.21,5.37-1.21,2.79,0,4.98.85,6.55,2.55h0ZM486.87,211.97h-8.31l-.42-4.06c-2.35,3.4-5.6,5.1-9.77,5.1-2.95,0-5.19-.89-6.7-2.67-1.52-1.78-2.28-4.27-2.28-7.46v-23.12h9.59v21.9c0,1.58.25,2.68.76,3.3.5.63,1.28.94,2.34.94,2.02,0,3.76-1.25,5.22-3.76v-22.39h9.59v32.21h0ZM511.93,194.74l10.38,17.23h-10.86l-5.58-12.07-5.46,12.07h-10.43l10.37-16.92-9.34-15.29h10.74l4.49,10.31,4.31-10.31h10.19l-8.8,14.98h0ZM549.97,169.93v42.05h-9.95v-42.05h9.95ZM574.12,169.93l-13.41,18.87,14.5,23.17h-11.53l-13.41-22.45,13.35-19.6h10.5ZM605.06,198.69h-19.96c.32,2.71,1.09,4.61,2.3,5.7,1.22,1.09,2.89,1.64,5.04,1.64,1.29,0,2.55-.23,3.76-.7,1.21-.47,2.53-1.18,3.94-2.15l3.94,5.34c-3.76,2.99-7.95,4.49-12.56,4.49-5.22,0-9.22-1.54-12.01-4.61-2.79-3.07-4.19-7.2-4.19-12.38,0-3.28.58-6.22,1.76-8.83s2.89-4.67,5.16-6.19c2.26-1.52,4.97-2.28,8.13-2.28,4.65,0,8.29,1.46,10.92,4.37s3.94,6.96,3.94,12.13c0,1.33-.06,2.49-.18,3.46h0ZM595.84,192.5c-.08-4.93-1.82-7.4-5.22-7.4-1.66,0-2.94.61-3.85,1.82s-1.47,3.22-1.67,6.01h10.74v-.42ZM631.33,179.27l-1.52,9.28c-1.21-.28-2.18-.43-2.91-.43-1.9,0-3.35.66-4.34,1.97-.99,1.31-1.77,3.29-2.34,5.91v15.95h-9.59v-32.21h8.37l.79,6.25c.73-2.23,1.83-3.97,3.31-5.25,1.48-1.27,3.14-1.91,5.01-1.91,1.17,0,2.24.14,3.21.43ZM660.39,181.27c1.58,1.7,2.37,4.09,2.37,7.16v23.54h-9.59v-21.9c0-1.62-.25-2.74-.76-3.37-.51-.63-1.26-.94-2.28-.94-1.94,0-3.8,1.39-5.58,4.19v22.02h-9.59v-32.21h8.37l.67,3.82c1.38-1.62,2.86-2.83,4.46-3.64,1.6-.81,3.39-1.21,5.37-1.21,2.79,0,4.98.85,6.55,2.55ZM697.89,198.69h-19.96c.32,2.71,1.09,4.61,2.3,5.7s2.89,1.64,5.04,1.64c1.29,0,2.55-.23,3.76-.7s2.53-1.18,3.94-2.15l3.94,5.34c-3.76,2.99-7.95,4.49-12.56,4.49-5.22,0-9.22-1.54-12.01-4.61s-4.19-7.2-4.19-12.38c0-3.28.59-6.22,1.76-8.83,1.17-2.61,2.89-4.67,5.16-6.19,2.27-1.52,4.98-2.28,8.13-2.28,4.65,0,8.29,1.46,10.92,4.37,2.63,2.91,3.94,6.96,3.94,12.13,0,1.33-.06,2.49-.18,3.46h0ZM688.67,192.5c-.08-4.93-1.82-7.4-5.22-7.4-1.66,0-2.94.61-3.85,1.82s-1.47,3.22-1.67,6.01h10.74v-.42ZM705.5,210.61c-1.56-1.6-2.34-3.87-2.34-6.83v-36.83l9.59-1.03v37.49c0,1.33.55,2,1.64,2,.57,0,1.09-.1,1.58-.31l1.88,6.8c-1.74.73-3.68,1.09-5.83,1.09-2.79,0-4.96-.8-6.52-2.4h0ZM398.39,238.48c2.32.89,4.44,2.25,6.34,4.07l-4.61,5.4c-2.87-2.35-5.95-3.52-9.22-3.52-1.74,0-3.12.35-4.12,1.06-1.01.71-1.52,1.73-1.52,3.07,0,.93.22,1.69.67,2.28.44.59,1.23,1.14,2.37,1.67,1.13.52,2.83,1.15,5.1,1.88,4.29,1.38,7.44,3.07,9.46,5.07,2.02,2,3.03,4.85,3.03,8.53,0,2.63-.67,4.94-2,6.95-1.33,2-3.26,3.56-5.76,4.67-2.51,1.12-5.48,1.67-8.92,1.67s-6.48-.54-9.13-1.64c-2.65-1.09-4.93-2.55-6.83-4.37l5.04-5.52c1.62,1.37,3.29,2.41,5.01,3.09,1.72.69,3.59,1.03,5.61,1.03s3.69-.46,4.88-1.36c1.19-.91,1.79-2.17,1.79-3.79,0-1.05-.22-1.93-.67-2.64-.45-.71-1.21-1.34-2.3-1.91-1.09-.56-2.67-1.17-4.73-1.82-4.65-1.42-7.96-3.15-9.92-5.22-1.96-2.06-2.94-4.67-2.94-7.83,0-2.43.65-4.56,1.94-6.4,1.29-1.84,3.09-3.26,5.4-4.25,2.31-.99,4.92-1.49,7.83-1.49,3.16,0,5.9.45,8.22,1.33h0ZM438.4,251.47c1.98,2.99,2.97,7.18,2.97,12.56,0,3.32-.51,6.28-1.55,8.89s-2.52,4.65-4.46,6.13c-1.94,1.48-4.21,2.21-6.8,2.21-3.24,0-5.84-1.11-7.83-3.33v14.74l-9.59,1.03v-45.69h8.43l.49,3.58c1.25-1.58,2.69-2.74,4.31-3.49s3.28-1.12,4.98-1.12c4.04,0,7.06,1.49,9.04,4.49ZM431.42,264.15c0-3.8-.42-6.44-1.27-7.91-.85-1.48-2.12-2.22-3.82-2.22-1.09,0-2.12.33-3.06.97-.95.65-1.79,1.58-2.52,2.79v13.59c1.29,1.9,2.93,2.85,4.91,2.85,3.84,0,5.76-3.36,5.76-10.07h0ZM475.29,266.94h-19.96c.32,2.71,1.09,4.61,2.3,5.71s2.89,1.64,5.04,1.64c1.29,0,2.55-.23,3.76-.69s2.53-1.18,3.94-2.15l3.94,5.34c-3.76,2.99-7.95,4.49-12.56,4.49-5.22,0-9.22-1.53-12.01-4.61-2.79-3.07-4.19-7.2-4.19-12.38,0-3.28.59-6.22,1.76-8.83,1.17-2.61,2.89-4.67,5.16-6.19,2.27-1.52,4.98-2.28,8.13-2.28,4.65,0,8.29,1.46,10.92,4.37,2.63,2.91,3.94,6.96,3.94,12.14,0,1.33-.06,2.48-.18,3.45ZM466.07,260.75c-.08-4.93-1.82-7.4-5.22-7.4-1.66,0-2.94.61-3.85,1.82s-1.47,3.21-1.67,6.01h10.74v-.43h0ZM500.83,247.95c1.78.65,3.46,1.64,5.03,2.97l-4.12,5.71c-2.02-1.54-4.07-2.3-6.13-2.3s-3.76.79-4.85,2.36c-1.09,1.58-1.64,4.13-1.64,7.65s.55,5.8,1.64,7.22c1.09,1.42,2.67,2.12,4.73,2.12,1.09,0,2.08-.17,2.97-.51s1.96-.9,3.22-1.67l4.19,5.95c-3.2,2.55-6.82,3.82-10.86,3.82-3.28,0-6.11-.69-8.49-2.09-2.39-1.4-4.23-3.36-5.52-5.89s-1.94-5.49-1.94-8.89.65-6.41,1.94-9.04,3.13-4.68,5.52-6.16c2.38-1.48,5.16-2.21,8.31-2.21,2.22,0,4.23.33,6.01.97ZM518.76,232.57c1.07,1.03,1.61,2.34,1.61,3.91s-.54,2.88-1.61,3.91c-1.07,1.03-2.44,1.55-4.1,1.55s-3.01-.51-4.06-1.55c-1.05-1.03-1.58-2.33-1.58-3.91s.52-2.88,1.58-3.91c1.05-1.03,2.4-1.55,4.06-1.55s3.02.52,4.1,1.55ZM519.52,248.01v32.22h-9.59v-32.22h9.59ZM553.16,273.55c.34.57.9.99,1.67,1.28l-2,6.25c-1.98-.16-3.6-.6-4.85-1.31s-2.22-1.83-2.91-3.37c-2.1,3.24-5.34,4.85-9.71,4.85-3.2,0-5.75-.93-7.64-2.79-1.9-1.86-2.85-4.28-2.85-7.28,0-3.52,1.3-6.21,3.88-8.07,2.59-1.86,6.33-2.79,11.22-2.79h3.28v-1.4c0-1.9-.41-3.21-1.21-3.92-.81-.7-2.23-1.06-4.25-1.06-1.05,0-2.33.15-3.82.45-1.5.31-3.04.72-4.61,1.25l-2.18-6.31c2.02-.77,4.1-1.35,6.22-1.76s4.1-.61,5.91-.61c4.61,0,7.99.95,10.13,2.85,2.14,1.9,3.22,4.76,3.22,8.55v12.5c0,1.21.17,2.11.51,2.67h0ZM543.24,271.31v-5.71h-2.37c-2.18,0-3.81.39-4.88,1.15s-1.61,1.96-1.61,3.58c0,1.3.33,2.3,1,3s1.59,1.06,2.76,1.06c2.18,0,3.88-1.03,5.1-3.09ZM561.71,278.86c-1.56-1.6-2.34-3.87-2.34-6.82v-36.83l9.59-1.03v37.5c0,1.33.55,2,1.64,2,.57,0,1.09-.1,1.58-.3l1.88,6.79c-1.74.73-3.68,1.09-5.83,1.09-2.79,0-4.96-.8-6.52-2.4h0ZM602.21,238.18v42.05h-9.95v-42.05h9.95ZM635.28,249.53c1.58,1.7,2.37,4.09,2.37,7.16v23.54h-9.59v-21.9c0-1.62-.25-2.74-.76-3.37-.51-.63-1.26-.94-2.28-.94-1.94,0-3.8,1.4-5.58,4.19v22.02h-9.59v-32.22h8.37l.67,3.82c1.38-1.62,2.86-2.83,4.46-3.64,1.6-.81,3.39-1.21,5.37-1.21,2.79,0,4.98.85,6.55,2.55ZM665.07,278.71c-1.17.81-2.54,1.44-4.1,1.88-1.56.44-3.11.66-4.64.66-7.04-.04-10.56-3.92-10.56-11.65v-14.93h-4.55v-6.68h4.55v-6.98l9.59-1.09v8.07h7.4l-1.03,6.68h-6.37v14.8c0,1.49.24,2.57.73,3.21.49.65,1.25.97,2.3.97s2.25-.34,3.46-1.03l3.21,6.07h0ZM695.1,266.94h-19.96c.32,2.71,1.09,4.61,2.3,5.71,1.22,1.09,2.89,1.64,5.04,1.64,1.29,0,2.55-.23,3.76-.69,1.21-.47,2.53-1.18,3.94-2.15l3.94,5.34c-3.76,2.99-7.95,4.49-12.56,4.49-5.22,0-9.22-1.53-12.01-4.61-2.79-3.07-4.19-7.2-4.19-12.38,0-3.28.58-6.22,1.76-8.83s2.89-4.67,5.16-6.19c2.26-1.52,4.97-2.28,8.13-2.28,4.65,0,8.29,1.46,10.92,4.37s3.94,6.96,3.94,12.14c0,1.33-.06,2.48-.18,3.45h0ZM685.87,260.75c-.08-4.93-1.82-7.4-5.22-7.4-1.66,0-2.94.61-3.85,1.82s-1.47,3.21-1.67,6.01h10.74v-.43ZM721.37,247.52l-1.52,9.28c-1.21-.28-2.18-.42-2.91-.42-1.9,0-3.35.66-4.34,1.97s-1.77,3.29-2.33,5.91v15.96h-9.59v-32.22h8.37l.79,6.25c.73-2.22,1.83-3.97,3.3-5.25,1.48-1.28,3.15-1.91,5.01-1.91,1.17,0,2.25.14,3.22.42h0ZM751.1,266.94h-19.96c.33,2.71,1.09,4.61,2.31,5.71s2.89,1.64,5.03,1.64c1.3,0,2.55-.23,3.76-.69s2.53-1.18,3.94-2.15l3.94,5.34c-3.76,2.99-7.95,4.49-12.56,4.49-5.22,0-9.22-1.53-12.01-4.61-2.79-3.07-4.19-7.2-4.19-12.38,0-3.28.59-6.22,1.76-8.83,1.17-2.61,2.89-4.67,5.16-6.19,2.27-1.52,4.98-2.28,8.13-2.28,4.65,0,8.29,1.46,10.92,4.37s3.94,6.96,3.94,12.14c0,1.33-.06,2.48-.18,3.45h0ZM741.88,260.75c-.08-4.93-1.82-7.4-5.22-7.4-1.66,0-2.94.61-3.85,1.82s-1.47,3.21-1.67,6.01h10.74v-.43ZM774.52,248.01c2.02.69,3.8,1.66,5.34,2.91l-3.52,5.4c-2.63-1.65-5.28-2.48-7.95-2.48-1.25,0-2.22.21-2.88.64-.67.42-1,1.02-1,1.79,0,.61.15,1.1.46,1.48s.92.78,1.85,1.18c.93.4,2.37.89,4.31,1.46,3.36.97,5.85,2.24,7.49,3.79,1.64,1.56,2.46,3.71,2.46,6.46,0,2.18-.63,4.08-1.88,5.67-1.25,1.6-2.97,2.82-5.16,3.67-2.19.85-4.61,1.27-7.28,1.27s-5.23-.42-7.55-1.27-4.3-2.02-5.91-3.52l4.67-5.22c2.71,2.11,5.56,3.15,8.55,3.15,1.46,0,2.6-.26,3.43-.79.83-.52,1.24-1.28,1.24-2.25,0-.77-.16-1.37-.49-1.82s-.95-.86-1.88-1.24c-.93-.38-2.41-.86-4.43-1.43-3.2-.93-5.58-2.22-7.16-3.88-1.58-1.66-2.37-3.72-2.37-6.19,0-1.86.54-3.53,1.61-5,1.07-1.48,2.61-2.65,4.61-3.52,2-.87,4.32-1.31,6.95-1.31,2.3,0,4.47.34,6.49,1.03h0ZM806.19,278.71c-1.17.81-2.54,1.44-4.1,1.88-1.56.44-3.11.66-4.64.66-7.04-.04-10.56-3.92-10.56-11.65v-14.93h-4.55v-6.68h4.55v-6.98l9.59-1.09v8.07h7.4l-1.03,6.68h-6.37v14.8c0,1.49.24,2.57.73,3.21.49.65,1.25.97,2.3.97s2.24-.34,3.46-1.03l3.21,6.07h0ZM856.18,242.31l-5.03,5.28c-1.5-1.13-2.88-1.95-4.16-2.46-1.27-.5-2.74-.76-4.4-.76-3.12,0-5.6,1.22-7.46,3.67-1.86,2.45-2.79,6.16-2.79,11.13,0,5.38.71,9.19,2.13,11.44,1.41,2.25,3.62,3.37,6.61,3.37,2.1,0,4-.47,5.7-1.4v-9.53h-5.46l-.97-7.04h16.08v20.81c-2.18,1.41-4.59,2.5-7.22,3.28-2.63.77-5.26,1.15-7.89,1.15-6.39,0-11.21-1.87-14.44-5.61-3.24-3.74-4.85-9.23-4.85-16.47,0-4.61.88-8.57,2.64-11.89,1.76-3.31,4.17-5.83,7.22-7.55,3.05-1.72,6.48-2.58,10.28-2.58,5.42,0,10.09,1.72,14.01,5.16h0ZM883.6,247.52l-1.52,9.28c-1.21-.28-2.18-.42-2.91-.42-1.9,0-3.35.66-4.34,1.97-.99,1.31-1.77,3.29-2.33,5.91v15.96h-9.59v-32.22h8.37l.79,6.25c.73-2.22,1.83-3.97,3.3-5.25,1.48-1.28,3.15-1.91,5.01-1.91,1.17,0,2.24.14,3.21.42h0ZM910.96,251.5c2.79,3.01,4.19,7.23,4.19,12.65,0,3.44-.64,6.44-1.91,9.01-1.27,2.57-3.09,4.56-5.46,5.98-2.37,1.41-5.17,2.12-8.4,2.12-4.89,0-8.75-1.5-11.56-4.52s-4.22-7.23-4.22-12.65c0-3.44.64-6.44,1.91-9.01s3.09-4.56,5.46-5.98c2.37-1.41,5.17-2.12,8.4-2.12,4.93,0,8.8,1.5,11.59,4.52h0ZM895.01,256.48c-.97,1.64-1.46,4.17-1.46,7.61s.48,6.08,1.43,7.71c.95,1.62,2.42,2.43,4.4,2.43s3.4-.82,4.37-2.46c.97-1.64,1.46-4.17,1.46-7.61s-.48-6.08-1.43-7.71c-.95-1.62-2.42-2.43-4.4-2.43s-3.4.82-4.37,2.46ZM948.03,280.23h-8.31l-.42-4.07c-2.35,3.4-5.6,5.09-9.77,5.09-2.96,0-5.19-.89-6.71-2.67s-2.28-4.27-2.28-7.46v-23.12h9.59v21.9c0,1.58.25,2.68.76,3.31.5.63,1.28.94,2.34.94,2.02,0,3.76-1.25,5.22-3.76v-22.39h9.59v32.22h0ZM982.8,251.47c1.98,2.99,2.97,7.18,2.97,12.56,0,3.32-.51,6.28-1.55,8.89-1.03,2.61-2.52,4.65-4.46,6.13-1.94,1.48-4.21,2.21-6.79,2.21-3.24,0-5.85-1.11-7.83-3.33v14.74l-9.59,1.03v-45.69h8.43l.49,3.58c1.25-1.58,2.69-2.74,4.31-3.49s3.28-1.12,4.98-1.12c4.04,0,7.06,1.49,9.04,4.49h0ZM975.82,264.15c0-3.8-.42-6.44-1.27-7.91-.85-1.48-2.13-2.22-3.82-2.22-1.09,0-2.11.33-3.06.97-.95.65-1.79,1.58-2.52,2.79v13.59c1.29,1.9,2.93,2.85,4.91,2.85,3.84,0,5.76-3.36,5.76-10.07Z"/>
  </g>
  <path class="cls-1" d="M126.72,130.88c-2.04-1.84-5.18-1.67-7.02.37s-1.67,5.18.37,7.02l20.74,18.67-20.74,18.67c-2.04,1.84-2.21,4.98-.37,7.02,1.84,2.04,4.98,2.21,7.02.37l24.84-22.36c1.05-.94,1.64-2.28,1.64-3.69s-.6-2.75-1.64-3.69l-24.84-22.36ZM254.76,257.97c0-15.15,12.32-27.47,27.47-27.47,6.17,0,11.85,2.07,16.44,5.51,13.58-23.23,21.4-50.24,21.4-79.09,0-42.73-17.1-81.45-44.8-109.75-4.97,4.92-11.79,7.97-19.32,7.97-15.15,0-27.47-12.32-27.47-27.47,0-4.36,1.05-8.46,2.86-12.12C210.72,5.59,187.58,0,163.14,0,110.1,0,63.23,26.35,34.82,66.64c1.1.81,2.16,1.67,3.15,2.65,5.22,5.18,8.1,12.11,8.1,19.51,0,15.15-12.32,27.47-27.47,27.47-2.35,0-4.61-.33-6.79-.88-3.63,13.24-5.6,27.16-5.6,41.54,0,38.78,14.09,74.24,37.4,101.63,4.85-4.32,11.22-6.96,18.21-6.96,15.15,0,27.47,12.32,27.47,27.47,0,5.17-1.46,9.99-3.96,14.13,22.94,13.13,49.49,20.67,77.81,20.67,38.05,0,72.94-13.55,100.11-36.08-5.22-5-8.49-12.02-8.49-19.81ZM237.68,191.71c0,21.95-17.8,39.75-39.75,39.75h-69.56c-21.95,0-39.75-17.8-39.75-39.75v-69.56c0-21.95,17.8-39.75,39.75-39.75h69.56c21.95,0,39.75,17.8,39.75,39.75v69.56h0ZM202.89,174.32h-39.75c-2.74,0-4.97,2.22-4.97,4.97s2.22,4.97,4.97,4.97h39.75c2.74,0,4.97-2.22,4.97-4.97s-2.22-4.97-4.97-4.97ZM0,88.8c0,8.77,6.19,16.18,14.41,18.1,3.91-11.63,9.13-22.65,15.51-32.88-3.14-2.4-7.06-3.83-11.31-3.83C8.39,70.2,0,78.59,0,88.8ZM18.6,107.4c10.21,0,18.6-8.39,18.6-18.6,0-6.1-2.88-11.4-7.29-14.77-6.38,10.23-11.6,21.25-15.51,32.88,1.35.32,2.75.5,4.2.5ZM18.6,107.4c10.21,0,18.6-8.39,18.6-18.6,0-6.1-2.88-11.4-7.29-14.77-6.38,10.23-11.6,21.25-15.51,32.88,1.35.32,2.75.5,4.2.5ZM239.21,19.67c10.72,5.95,20.69,13.11,29.68,21.32,3.48-3.39,5.66-8.11,5.66-13.3,0-10.44-8.39-18.6-18.6-18.6-7.34,0-13.73,4.35-16.74,10.59h0ZM237.35,27.68c0,10.21,8.39,18.6,18.6,18.6,5.01,0,9.58-2.03,12.94-5.3-8.99-8.21-18.96-15.36-29.68-21.32-1.18,2.44-1.86,5.15-1.86,8.02h0ZM237.35,27.68c0,10.21,8.39,18.6,18.6,18.6,5.01,0,9.58-2.03,12.94-5.3-8.99-8.21-18.96-15.36-29.68-21.32-1.18,2.44-1.86,5.15-1.86,8.02h0ZM294,243.54c-6.88,10.38-14.97,19.88-24.06,28.33,3.29,2.92,7.59,4.71,12.29,4.71,10.21,0,18.6-8.39,18.6-18.6,0-5.89-2.67-11.05-6.84-14.43h0ZM294,243.54c-3.22-2.61-7.32-4.17-11.77-4.17-10.21,0-18.6,8.39-18.6,18.6,0,5.51,2.46,10.48,6.31,13.9,9.09-8.45,17.17-17.95,24.06-28.33ZM294,243.54c-3.22-2.61-7.32-4.17-11.77-4.17-10.21,0-18.6,8.39-18.6,18.6,0,5.51,2.46,10.48,6.31,13.9,9.09-8.45,17.17-17.95,24.06-28.33ZM77.76,288.57c-10.3-6.7-19.76-14.56-28.2-23.42-3.87,3.42-6.34,8.39-6.34,13.91,0,10.21,8.39,18.6,18.6,18.6,6.74,0,12.67-3.67,15.94-9.1h0ZM77.76,288.57c1.68-2.79,2.67-6.04,2.67-9.51,0-10.44-8.39-18.6-18.6-18.6-4.69,0-8.98,1.78-12.27,4.69,8.44,8.86,17.9,16.73,28.2,23.42h0ZM77.76,288.57c1.68-2.79,2.67-6.04,2.67-9.51,0-10.44-8.39-18.6-18.6-18.6-4.69,0-8.98,1.78-12.27,4.69,8.44,8.86,17.9,16.73,28.2,23.42h0Z"/>
</svg>