<?xml version="1.0" encoding="UTF-8"?>
<svg id="Layer_1" data-name="Layer 1" xmlns="http://www.w3.org/2000/svg" xmlns:xlink="http://www.w3.org/1999/xlink" viewBox="0 0 1022.18 327.7">
  <defs>
    <style>
      .cls-1 {
        fill: #fff;
        fill-rule: evenodd;
      }

      .cls-2 {
        fill: #00a5b2;
      }

      .cls-3 {
        fill: #333;
      }

      .cls-4 {
        fill: url(#New_Gradient_Swatch);
      }

      .cls-5 {
        fill: #0f151f;
      }

      .cls-6 {
        fill: url(#linear-gradient);
      }
    </style>
    <linearGradient id="New_Gradient_Swatch" data-name="New Gradient Swatch" x1="366.61" y1="208.89" x2="998.7" y2="208.89" gradientUnits="userSpaceOnUse">
      <stop offset="0" stop-color="#eb0045"/>
      <stop offset=".07" stop-color="#db074c"/>
      <stop offset=".2" stop-color="#b41b5f"/>
      <stop offset=".37" stop-color="#733b7f"/>
      <stop offset=".59" stop-color="#1c66aa"/>
      <stop offset=".66" stop-color="#0075b8"/>
      <stop offset="1" stop-color="#3fc1c9"/>
    </linearGradient>
    <linearGradient id="linear-gradient" x1="34.31" y1="56.89" x2="293.88" y2="286.67" gradientUnits="userSpaceOnUse">
      <stop offset="0" stop-color="#eb0045"/>
      <stop offset=".07" stop-color="#db074c"/>
      <stop offset=".2" stop-color="#b41b5f"/>
      <stop offset=".37" stop-color="#733b7f"/>
      <stop offset=".59" stop-color="#1c66aa"/>
      <stop offset=".66" stop-color="#0075b8"/>
      <stop offset="1" stop-color="#3fc1c9"/>
    </linearGradient>
  </defs>
  <g>
    <g>
      <path class="cls-3" d="M384.85,175.04h-3.88v16.04h-9.93v-41.96h13.74c5.73,0,10.04,1.05,12.93,3.15,2.89,2.1,4.33,5.31,4.33,9.63,0,2.71-.65,4.96-1.94,6.75-1.29,1.8-3.33,3.32-6.12,4.57l10.66,17.86h-11.2l-8.6-16.04ZM380.98,168.2h4.18c2.22,0,3.88-.5,5-1.51,1.11-1.01,1.67-2.6,1.67-4.78,0-2.02-.6-3.49-1.79-4.42-1.19-.93-3.02-1.39-5.48-1.39h-3.57v12.11Z"/>
      <path class="cls-3" d="M435.17,177.82h-19.92c.32,2.7,1.09,4.6,2.3,5.69s2.89,1.63,5.03,1.63c1.29,0,2.54-.23,3.75-.7,1.21-.46,2.52-1.18,3.94-2.15l3.94,5.33c-3.75,2.99-7.93,4.48-12.53,4.48-5.21,0-9.2-1.53-11.99-4.6-2.79-3.07-4.18-7.18-4.18-12.35,0-3.27.58-6.21,1.76-8.81,1.17-2.6,2.89-4.66,5.15-6.18,2.26-1.51,4.97-2.27,8.11-2.27,4.64,0,8.27,1.45,10.9,4.36,2.62,2.91,3.94,6.94,3.94,12.11,0,1.33-.06,2.48-.18,3.45ZM425.97,171.65c-.08-4.92-1.82-7.39-5.21-7.39-1.66,0-2.94.61-3.84,1.82s-1.46,3.21-1.67,6h10.72v-.42Z"/>
      <path class="cls-3" d="M470.35,160.81c-2.1.85-5.19,1.27-9.26,1.27,2.1.89,3.63,1.98,4.6,3.27.97,1.29,1.45,2.97,1.45,5.03s-.54,3.91-1.63,5.54-2.65,2.92-4.69,3.84c-2.04.93-4.43,1.39-7.17,1.39-1.29,0-2.52-.12-3.69-.36-.32.16-.58.41-.76.76s-.27.7-.27,1.06c0,.61.23,1.08.7,1.42.46.34,1.4.51,2.82.51h4.84c2.46,0,4.62.4,6.48,1.21,1.86.81,3.29,1.92,4.3,3.33,1.01,1.41,1.51,3.01,1.51,4.78,0,3.35-1.44,5.96-4.33,7.84-2.89,1.88-7.05,2.82-12.5,2.82-3.92,0-7-.41-9.26-1.24-2.26-.83-3.84-1.99-4.75-3.48s-1.36-3.37-1.36-5.63h8.6c0,.97.19,1.74.58,2.3.38.56,1.08.99,2.09,1.27,1.01.28,2.46.42,4.36.42,2.62,0,4.44-.31,5.45-.94,1.01-.63,1.51-1.52,1.51-2.69,0-.97-.38-1.74-1.15-2.3-.77-.57-1.92-.85-3.45-.85h-4.66c-3.31,0-5.78-.59-7.42-1.79-1.63-1.19-2.45-2.71-2.45-4.57,0-1.17.34-2.31,1.03-3.42.69-1.11,1.61-2.03,2.79-2.75-2.02-1.09-3.48-2.37-4.39-3.84s-1.36-3.26-1.36-5.36c0-3.59,1.29-6.45,3.88-8.57,2.58-2.12,5.99-3.18,10.23-3.18,3.23.08,5.96-.24,8.2-.97s4.55-1.79,6.93-3.21l2.24,7.08ZM449.67,165.62c-.87.95-1.3,2.25-1.3,3.91,0,1.74.43,3.08,1.3,4.03.87.95,2.05,1.42,3.54,1.42,1.57,0,2.77-.46,3.6-1.39.83-.93,1.24-2.32,1.24-4.18,0-3.47-1.61-5.21-4.84-5.21-1.49,0-2.67.48-3.54,1.42Z"/>
      <path class="cls-3" d="M500.62,191.08h-8.29l-.42-4.06c-2.34,3.39-5.59,5.09-9.75,5.09-2.95,0-5.18-.89-6.69-2.66s-2.27-4.26-2.27-7.45v-23.07h9.57v21.86c0,1.57.25,2.67.76,3.3.5.63,1.28.94,2.33.94,2.02,0,3.75-1.25,5.21-3.75v-22.34h9.57v32.15Z"/>
      <path class="cls-3" d="M510.16,189.72c-1.55-1.59-2.33-3.86-2.33-6.81v-36.75l9.57-1.03v37.42c0,1.33.54,2,1.63,2,.56,0,1.09-.1,1.57-.3l1.88,6.78c-1.74.73-3.67,1.09-5.81,1.09-2.79,0-4.96-.8-6.51-2.39Z"/>
      <path class="cls-3" d="M551.88,184.42c.34.57.9.99,1.67,1.27l-2,6.24c-1.98-.16-3.59-.6-4.84-1.3-1.25-.71-2.22-1.83-2.91-3.36-2.1,3.23-5.33,4.84-9.69,4.84-3.19,0-5.73-.93-7.63-2.79-1.9-1.86-2.85-4.28-2.85-7.27,0-3.51,1.29-6.2,3.88-8.05,2.58-1.86,6.32-2.79,11.2-2.79h3.27v-1.39c0-1.9-.4-3.2-1.21-3.91-.81-.71-2.22-1.06-4.24-1.06-1.05,0-2.32.15-3.81.45-1.49.3-3.03.72-4.6,1.24l-2.18-6.3c2.02-.77,4.09-1.35,6.21-1.76,2.12-.4,4.09-.61,5.9-.61,4.6,0,7.97.95,10.11,2.85,2.14,1.9,3.21,4.74,3.21,8.54v12.47c0,1.21.17,2.1.51,2.66ZM541.98,182.18v-5.69h-2.36c-2.18,0-3.81.38-4.87,1.15-1.07.77-1.6,1.96-1.6,3.57,0,1.29.33,2.29,1,3,.67.71,1.58,1.06,2.75,1.06,2.18,0,3.88-1.03,5.09-3.09Z"/>
      <path class="cls-3" d="M579.15,189.57c-1.17.81-2.53,1.43-4.09,1.88-1.55.44-3.1.67-4.63.67-7.02-.04-10.54-3.92-10.54-11.62v-14.9h-4.54v-6.66h4.54v-6.96l9.57-1.09v8.05h7.39l-1.03,6.66h-6.36v14.77c0,1.49.24,2.56.73,3.21s1.25.97,2.3.97,2.24-.34,3.45-1.03l3.21,6.05Z"/>
      <path class="cls-3" d="M606.76,162.41c2.79,3.01,4.18,7.22,4.18,12.62,0,3.43-.64,6.43-1.91,8.99-1.27,2.56-3.09,4.55-5.45,5.96s-5.16,2.12-8.39,2.12c-4.88,0-8.73-1.5-11.53-4.51-2.81-3.01-4.21-7.21-4.21-12.62,0-3.43.64-6.43,1.91-8.99,1.27-2.56,3.09-4.55,5.45-5.96,2.36-1.41,5.16-2.12,8.39-2.12,4.92,0,8.78,1.5,11.56,4.51ZM590.84,167.38c-.97,1.63-1.45,4.17-1.45,7.6s.47,6.08,1.42,7.69c.95,1.61,2.41,2.42,4.39,2.42s3.39-.82,4.36-2.45,1.45-4.17,1.45-7.6-.48-6.08-1.42-7.69c-.95-1.61-2.41-2.42-4.39-2.42s-3.39.82-4.36,2.45Z"/>
      <path class="cls-3" d="M637.28,158.45l-1.51,9.26c-1.21-.28-2.18-.42-2.91-.42-1.9,0-3.34.66-4.33,1.97-.99,1.31-1.77,3.28-2.33,5.9v15.92h-9.57v-32.15h8.36l.79,6.24c.73-2.22,1.83-3.97,3.3-5.24,1.47-1.27,3.14-1.91,5-1.91,1.17,0,2.24.14,3.21.42Z"/>
      <path class="cls-3" d="M657.99,158.93c2.02.69,3.79,1.66,5.33,2.91l-3.51,5.39c-2.62-1.65-5.27-2.48-7.93-2.48-1.25,0-2.21.21-2.88.64s-1,1.02-1,1.79c0,.61.15,1.1.45,1.48.3.38.92.78,1.85,1.18.93.4,2.36.89,4.3,1.45,3.35.97,5.84,2.23,7.48,3.78s2.45,3.7,2.45,6.45c0,2.18-.63,4.07-1.88,5.66-1.25,1.59-2.97,2.82-5.15,3.66s-4.6,1.27-7.27,1.27-5.22-.42-7.54-1.27c-2.32-.85-4.29-2.02-5.9-3.51l4.66-5.21c2.7,2.1,5.55,3.15,8.54,3.15,1.45,0,2.59-.26,3.42-.79.83-.52,1.24-1.27,1.24-2.24,0-.77-.16-1.37-.48-1.82-.32-.44-.95-.86-1.88-1.24-.93-.38-2.4-.86-4.42-1.42-3.19-.93-5.57-2.22-7.15-3.88s-2.36-3.71-2.36-6.18c0-1.86.53-3.52,1.6-5,1.07-1.47,2.6-2.64,4.6-3.51,2-.87,4.31-1.3,6.93-1.3,2.3,0,4.46.34,6.48,1.03Z"/>
      <path class="cls-3" d="M705.91,149.37c1.96.85,3.45,2,4.48,3.45,1.03,1.45,1.54,3.11,1.54,4.96,0,2.38-.68,4.45-2.03,6.21-1.35,1.76-3.34,3.5-5.96,5.24l8.17,7.69c1.17-2.42,2.14-5.33,2.91-8.72l7.99,2.36c-1.53,4.44-3.39,8.19-5.57,11.26l7.33,6.48-8.17,3.81-4.72-4.54c-3.75,3.03-8.17,4.54-13.26,4.54-2.95,0-5.55-.48-7.81-1.45-2.26-.97-4.02-2.34-5.27-4.12-1.25-1.78-1.88-3.83-1.88-6.18s.66-4.54,1.97-6.36c1.31-1.82,3.38-3.65,6.21-5.51-2.18-2.1-3.69-3.88-4.54-5.36-.85-1.47-1.27-3.14-1.27-5s.48-3.48,1.45-5,2.43-2.73,4.39-3.66c1.96-.93,4.33-1.39,7.11-1.39s4.97.42,6.93,1.27ZM694.53,176.52c-.59.99-.88,2.09-.88,3.3,0,1.66.61,2.99,1.82,4,1.21,1.01,2.81,1.51,4.78,1.51,2.54,0,4.82-.77,6.84-2.3l-9.81-9.38c-1.25.93-2.17,1.89-2.75,2.88ZM696.25,155.33c-.69.71-1.03,1.65-1.03,2.82,0,1.05.25,2,.76,2.85.5.85,1.4,1.92,2.69,3.21,1.41-.93,2.45-1.88,3.12-2.85s1-2.08,1-3.33c0-1.17-.33-2.09-1-2.75s-1.56-1-2.69-1c-1.21,0-2.16.35-2.85,1.06Z"/>
      <path class="cls-3" d="M766.03,149.43c2.32.89,4.43,2.24,6.33,4.06l-4.6,5.39c-2.87-2.34-5.93-3.51-9.2-3.51-1.74,0-3.11.35-4.12,1.06-1.01.71-1.51,1.73-1.51,3.06,0,.93.22,1.69.67,2.27.44.59,1.23,1.14,2.36,1.67,1.13.53,2.82,1.15,5.09,1.88,4.28,1.37,7.43,3.06,9.45,5.06,2.02,2,3.03,4.83,3.03,8.51,0,2.62-.67,4.93-2,6.93-1.33,2-3.25,3.55-5.75,4.66-2.5,1.11-5.47,1.67-8.9,1.67s-6.47-.54-9.11-1.63c-2.64-1.09-4.91-2.54-6.81-4.36l5.03-5.51c1.61,1.37,3.28,2.4,5,3.09,1.71.69,3.58,1.03,5.6,1.03s3.68-.45,4.87-1.36c1.19-.91,1.79-2.17,1.79-3.78,0-1.05-.22-1.93-.67-2.63-.44-.71-1.21-1.34-2.3-1.91s-2.66-1.17-4.72-1.82c-4.64-1.41-7.94-3.15-9.9-5.21-1.96-2.06-2.94-4.66-2.94-7.81,0-2.42.65-4.55,1.94-6.39,1.29-1.84,3.09-3.25,5.39-4.24,2.3-.99,4.9-1.48,7.81-1.48,3.15,0,5.88.45,8.2,1.33Z"/>
      <path class="cls-3" d="M798.94,189.57c-1.17.81-2.53,1.43-4.09,1.88-1.55.44-3.1.67-4.63.67-7.02-.04-10.54-3.92-10.54-11.62v-14.9h-4.54v-6.66h4.54v-6.96l9.57-1.09v8.05h7.39l-1.03,6.66h-6.36v14.77c0,1.49.24,2.56.73,3.21s1.25.97,2.3.97,2.24-.34,3.45-1.03l3.21,6.05Z"/>
      <path class="cls-3" d="M827.49,184.42c.34.57.9.99,1.67,1.27l-2,6.24c-1.98-.16-3.59-.6-4.84-1.3-1.25-.71-2.22-1.83-2.91-3.36-2.1,3.23-5.33,4.84-9.69,4.84-3.19,0-5.73-.93-7.63-2.79-1.9-1.86-2.85-4.28-2.85-7.27,0-3.51,1.29-6.2,3.88-8.05,2.58-1.86,6.32-2.79,11.2-2.79h3.27v-1.39c0-1.9-.4-3.2-1.21-3.91-.81-.71-2.22-1.06-4.24-1.06-1.05,0-2.32.15-3.81.45-1.49.3-3.03.72-4.6,1.24l-2.18-6.3c2.02-.77,4.09-1.35,6.21-1.76,2.12-.4,4.09-.61,5.9-.61,4.6,0,7.97.95,10.11,2.85,2.14,1.9,3.21,4.74,3.21,8.54v12.47c0,1.21.17,2.1.51,2.66ZM817.59,182.18v-5.69h-2.36c-2.18,0-3.81.38-4.87,1.15-1.07.77-1.6,1.96-1.6,3.57,0,1.29.33,2.29,1,3,.67.71,1.58,1.06,2.75,1.06,2.18,0,3.88-1.03,5.09-3.09Z"/>
      <path class="cls-3" d="M859.97,160.45c1.57,1.7,2.36,4.08,2.36,7.14v23.49h-9.57v-21.86c0-1.61-.25-2.73-.76-3.36-.51-.62-1.26-.94-2.27-.94-1.94,0-3.79,1.39-5.57,4.18v21.98h-9.57v-32.15h8.36l.67,3.81c1.37-1.61,2.85-2.82,4.45-3.63,1.59-.81,3.38-1.21,5.36-1.21,2.79,0,4.96.85,6.54,2.54Z"/>
      <path class="cls-3" d="M898.36,146.16v44.93h-8.48l-.48-3.75c-2.26,3.19-5.31,4.78-9.14,4.78s-7.03-1.53-9.11-4.6c-2.08-3.07-3.12-7.27-3.12-12.59,0-3.27.54-6.2,1.63-8.78,1.09-2.58,2.63-4.6,4.63-6.05,2-1.45,4.29-2.18,6.87-2.18,3.07,0,5.61,1.01,7.63,3.03v-15.8l9.57,1.03ZM888.79,181.46v-13.87c-.77-.93-1.54-1.61-2.33-2.06-.79-.44-1.69-.67-2.69-.67-1.78,0-3.19.83-4.24,2.48-1.05,1.66-1.57,4.2-1.57,7.63,0,3.75.45,6.38,1.36,7.87s2.21,2.24,3.91,2.24c2.22,0,4.08-1.21,5.57-3.63Z"/>
      <path class="cls-3" d="M931.93,184.42c.34.57.9.99,1.67,1.27l-2,6.24c-1.98-.16-3.59-.6-4.84-1.3-1.25-.71-2.22-1.83-2.91-3.36-2.1,3.23-5.33,4.84-9.69,4.84-3.19,0-5.73-.93-7.63-2.79-1.9-1.86-2.85-4.28-2.85-7.27,0-3.51,1.29-6.2,3.88-8.05,2.58-1.86,6.32-2.79,11.2-2.79h3.27v-1.39c0-1.9-.4-3.2-1.21-3.91-.81-.71-2.22-1.06-4.24-1.06-1.05,0-2.32.15-3.81.45-1.49.3-3.03.72-4.6,1.24l-2.18-6.3c2.02-.77,4.09-1.35,6.21-1.76,2.12-.4,4.09-.61,5.9-.61,4.6,0,7.97.95,10.11,2.85,2.14,1.9,3.21,4.74,3.21,8.54v12.47c0,1.21.17,2.1.51,2.66ZM922.03,182.18v-5.69h-2.36c-2.18,0-3.81.38-4.87,1.15-1.07.77-1.6,1.96-1.6,3.57,0,1.29.33,2.29,1,3,.67.71,1.58,1.06,2.75,1.06,2.18,0,3.88-1.03,5.09-3.09Z"/>
      <path class="cls-3" d="M959.69,158.45l-1.51,9.26c-1.21-.28-2.18-.42-2.91-.42-1.9,0-3.34.66-4.33,1.97-.99,1.31-1.77,3.28-2.33,5.9v15.92h-9.57v-32.15h8.36l.79,6.24c.73-2.22,1.83-3.97,3.3-5.24,1.47-1.27,3.14-1.91,5-1.91,1.17,0,2.24.14,3.21.42Z"/>
      <path class="cls-3" d="M990.33,146.16v44.93h-8.48l-.48-3.75c-2.26,3.19-5.31,4.78-9.14,4.78s-7.03-1.53-9.11-4.6c-2.08-3.07-3.12-7.27-3.12-12.59,0-3.27.54-6.2,1.63-8.78,1.09-2.58,2.63-4.6,4.63-6.05,2-1.45,4.29-2.18,6.87-2.18,3.07,0,5.61,1.01,7.63,3.03v-15.8l9.57,1.03ZM980.76,181.46v-13.87c-.77-.93-1.54-1.61-2.33-2.06-.79-.44-1.69-.67-2.69-.67-1.78,0-3.19.83-4.24,2.48-1.05,1.66-1.57,4.2-1.57,7.63,0,3.75.45,6.38,1.36,7.87s2.21,2.24,3.91,2.24c2.22,0,4.08-1.21,5.57-3.63Z"/>
      <path class="cls-3" d="M1015.64,158.93c2.02.69,3.79,1.66,5.33,2.91l-3.51,5.39c-2.62-1.65-5.27-2.48-7.93-2.48-1.25,0-2.21.21-2.88.64s-1,1.02-1,1.79c0,.61.15,1.1.45,1.48.3.38.92.78,1.85,1.18.93.4,2.36.89,4.3,1.45,3.35.97,5.84,2.23,7.48,3.78s2.45,3.7,2.45,6.45c0,2.18-.63,4.07-1.88,5.66-1.25,1.59-2.97,2.82-5.15,3.66s-4.6,1.27-7.27,1.27-5.22-.42-7.54-1.27c-2.32-.85-4.29-2.02-5.9-3.51l4.66-5.21c2.7,2.1,5.55,3.15,8.54,3.15,1.45,0,2.59-.26,3.42-.79.83-.52,1.24-1.27,1.24-2.24,0-.77-.16-1.37-.48-1.82-.32-.44-.95-.86-1.88-1.24-.93-.38-2.4-.86-4.42-1.42-3.19-.93-5.57-2.22-7.15-3.88s-2.36-3.71-2.36-6.18c0-1.86.53-3.52,1.6-5,1.07-1.47,2.6-2.64,4.6-3.51,2-.87,4.31-1.3,6.93-1.3,2.3,0,4.46.34,6.48,1.03Z"/>
      <path class="cls-3" d="M392.76,217.54c2.32.89,4.43,2.24,6.33,4.06l-4.6,5.39c-2.87-2.34-5.93-3.51-9.2-3.51-1.74,0-3.11.35-4.12,1.06-1.01.71-1.51,1.73-1.51,3.06,0,.93.22,1.69.67,2.27.44.59,1.23,1.14,2.36,1.67,1.13.53,2.82,1.15,5.09,1.88,4.28,1.37,7.43,3.06,9.45,5.06,2.02,2,3.03,4.83,3.03,8.51,0,2.62-.67,4.93-2,6.93-1.33,2-3.25,3.55-5.75,4.66-2.5,1.11-5.47,1.67-8.9,1.67s-6.47-.54-9.11-1.63c-2.64-1.09-4.91-2.54-6.81-4.36l5.03-5.51c1.61,1.37,3.28,2.4,5,3.09,1.71.69,3.58,1.03,5.6,1.03s3.68-.45,4.87-1.36c1.19-.91,1.79-2.17,1.79-3.78,0-1.05-.22-1.93-.67-2.63-.44-.71-1.21-1.34-2.3-1.91s-2.66-1.17-4.72-1.82c-4.64-1.41-7.94-3.15-9.9-5.21-1.96-2.06-2.94-4.66-2.94-7.81,0-2.42.65-4.55,1.94-6.39,1.29-1.84,3.09-3.25,5.39-4.24,2.3-.99,4.9-1.48,7.81-1.48,3.15,0,5.88.44,8.2,1.33Z"/>
      <path class="cls-3" d="M432.69,230.5c1.98,2.99,2.97,7.17,2.97,12.53,0,3.31-.51,6.27-1.54,8.87s-2.51,4.64-4.45,6.12-4.2,2.21-6.78,2.21c-3.23,0-5.83-1.11-7.81-3.33v14.71l-9.57,1.03v-45.59h8.42l.48,3.57c1.25-1.57,2.68-2.73,4.3-3.48,1.61-.75,3.27-1.12,4.96-1.12,4.04,0,7.04,1.49,9.02,4.48ZM425.72,243.16c0-3.79-.42-6.43-1.27-7.9-.85-1.47-2.12-2.21-3.81-2.21-1.09,0-2.11.32-3.06.97-.95.65-1.79,1.57-2.51,2.79v13.56c1.29,1.9,2.93,2.85,4.9,2.85,3.83,0,5.75-3.35,5.75-10.05Z"/>
      <path class="cls-3" d="M469.5,245.94h-19.92c.32,2.7,1.09,4.6,2.3,5.69s2.89,1.63,5.03,1.63c1.29,0,2.54-.23,3.75-.7,1.21-.46,2.52-1.18,3.94-2.15l3.94,5.33c-3.75,2.99-7.93,4.48-12.53,4.48-5.21,0-9.2-1.53-11.99-4.6-2.79-3.07-4.18-7.18-4.18-12.35,0-3.27.58-6.21,1.76-8.81,1.17-2.6,2.89-4.66,5.15-6.18,2.26-1.51,4.97-2.27,8.11-2.27,4.64,0,8.27,1.45,10.9,4.36,2.62,2.91,3.94,6.94,3.94,12.11,0,1.33-.06,2.48-.18,3.45ZM460.3,239.77c-.08-4.92-1.82-7.39-5.21-7.39-1.66,0-2.94.61-3.84,1.82s-1.46,3.21-1.67,6h10.72v-.42Z"/>
      <path class="cls-3" d="M494.99,226.99c1.78.65,3.45,1.63,5.03,2.97l-4.12,5.69c-2.02-1.53-4.06-2.3-6.12-2.3s-3.75.79-4.84,2.36-1.63,4.12-1.63,7.63.54,5.79,1.63,7.21,2.66,2.12,4.72,2.12c1.09,0,2.08-.17,2.97-.51.89-.34,1.96-.9,3.21-1.67l4.18,5.93c-3.19,2.54-6.8,3.81-10.84,3.81-3.27,0-6.1-.7-8.48-2.09-2.38-1.39-4.22-3.35-5.51-5.87-1.29-2.52-1.94-5.48-1.94-8.87s.65-6.4,1.94-9.02c1.29-2.62,3.13-4.67,5.51-6.15,2.38-1.47,5.15-2.21,8.3-2.21,2.22,0,4.22.32,5.99.97Z"/>
      <path class="cls-3" d="M512.88,211.64c1.07,1.03,1.6,2.33,1.6,3.91s-.54,2.88-1.6,3.91c-1.07,1.03-2.43,1.54-4.09,1.54s-3.01-.51-4.06-1.54c-1.05-1.03-1.57-2.33-1.57-3.91s.52-2.88,1.57-3.91c1.05-1.03,2.4-1.54,4.06-1.54s3.02.51,4.09,1.54ZM513.64,227.05v32.15h-9.57v-32.15h9.57Z"/>
      <path class="cls-3" d="M547.21,252.54c.34.57.9.99,1.67,1.27l-2,6.24c-1.98-.16-3.59-.6-4.84-1.3-1.25-.71-2.22-1.83-2.91-3.36-2.1,3.23-5.33,4.84-9.69,4.84-3.19,0-5.73-.93-7.63-2.79-1.9-1.86-2.85-4.28-2.85-7.27,0-3.51,1.29-6.2,3.88-8.05,2.58-1.86,6.32-2.79,11.2-2.79h3.27v-1.39c0-1.9-.4-3.2-1.21-3.91-.81-.71-2.22-1.06-4.24-1.06-1.05,0-2.32.15-3.81.45-1.49.3-3.03.72-4.6,1.24l-2.18-6.3c2.02-.77,4.09-1.35,6.21-1.76,2.12-.4,4.09-.61,5.9-.61,4.6,0,7.97.95,10.11,2.85,2.14,1.9,3.21,4.74,3.21,8.54v12.47c0,1.21.17,2.1.51,2.66ZM537.31,250.3v-5.69h-2.36c-2.18,0-3.81.38-4.87,1.15-1.07.77-1.6,1.96-1.6,3.57,0,1.29.33,2.29,1,3,.67.71,1.58,1.06,2.75,1.06,2.18,0,3.88-1.03,5.09-3.09Z"/>
      <path class="cls-3" d="M555.75,257.84c-1.55-1.59-2.33-3.86-2.33-6.81v-36.75l9.57-1.03v37.42c0,1.33.54,2,1.63,2,.56,0,1.09-.1,1.57-.3l1.88,6.78c-1.74.73-3.67,1.09-5.81,1.09-2.79,0-4.96-.8-6.51-2.39Z"/>
      <path class="cls-3" d="M596.16,217.24v41.96h-9.93v-41.96h9.93Z"/>
      <path class="cls-3" d="M629.16,228.56c1.57,1.7,2.36,4.08,2.36,7.14v23.49h-9.57v-21.86c0-1.61-.25-2.73-.76-3.36-.51-.62-1.26-.94-2.27-.94-1.94,0-3.79,1.39-5.57,4.18v21.98h-9.57v-32.15h8.36l.67,3.81c1.37-1.61,2.85-2.82,4.45-3.63,1.59-.81,3.38-1.21,5.36-1.21,2.79,0,4.96.85,6.54,2.54Z"/>
      <path class="cls-3" d="M658.89,257.69c-1.17.81-2.53,1.43-4.09,1.88-1.55.44-3.1.67-4.63.67-7.02-.04-10.54-3.92-10.54-11.62v-14.9h-4.54v-6.66h4.54v-6.96l9.57-1.09v8.05h7.39l-1.03,6.66h-6.36v14.77c0,1.49.24,2.56.73,3.21s1.25.97,2.3.97,2.24-.34,3.45-1.03l3.21,6.05Z"/>
      <path class="cls-3" d="M688.86,245.94h-19.92c.32,2.7,1.09,4.6,2.3,5.69s2.89,1.63,5.03,1.63c1.29,0,2.54-.23,3.75-.7,1.21-.46,2.52-1.18,3.94-2.15l3.94,5.33c-3.75,2.99-7.93,4.48-12.53,4.48-5.21,0-9.2-1.53-11.99-4.6-2.79-3.07-4.18-7.18-4.18-12.35,0-3.27.58-6.21,1.76-8.81,1.17-2.6,2.89-4.66,5.15-6.18,2.26-1.51,4.97-2.27,8.11-2.27,4.64,0,8.27,1.45,10.9,4.36,2.62,2.91,3.94,6.94,3.94,12.11,0,1.33-.06,2.48-.18,3.45ZM679.66,239.77c-.08-4.92-1.82-7.39-5.21-7.39-1.66,0-2.94.61-3.84,1.82s-1.46,3.21-1.67,6h10.72v-.42Z"/>
      <path class="cls-3" d="M715.08,226.57l-1.51,9.26c-1.21-.28-2.18-.42-2.91-.42-1.9,0-3.34.66-4.33,1.97-.99,1.31-1.77,3.28-2.33,5.9v15.92h-9.57v-32.15h8.36l.79,6.24c.73-2.22,1.83-3.97,3.3-5.24,1.47-1.27,3.14-1.91,5-1.91,1.17,0,2.24.14,3.21.42Z"/>
      <path class="cls-3" d="M744.75,245.94h-19.92c.32,2.7,1.09,4.6,2.3,5.69s2.89,1.63,5.03,1.63c1.29,0,2.54-.23,3.75-.7,1.21-.46,2.52-1.18,3.94-2.15l3.94,5.33c-3.75,2.99-7.93,4.48-12.53,4.48-5.21,0-9.2-1.53-11.99-4.6-2.79-3.07-4.18-7.18-4.18-12.35,0-3.27.58-6.21,1.76-8.81,1.17-2.6,2.89-4.66,5.15-6.18,2.26-1.51,4.97-2.27,8.11-2.27,4.64,0,8.27,1.45,10.9,4.36,2.62,2.91,3.94,6.94,3.94,12.11,0,1.33-.06,2.48-.18,3.45ZM735.54,239.77c-.08-4.92-1.82-7.39-5.21-7.39-1.66,0-2.94.61-3.84,1.82s-1.46,3.21-1.67,6h10.72v-.42Z"/>
      <path class="cls-3" d="M768.12,227.05c2.02.69,3.79,1.66,5.33,2.91l-3.51,5.39c-2.62-1.65-5.27-2.48-7.93-2.48-1.25,0-2.21.21-2.88.64s-1,1.02-1,1.79c0,.61.15,1.1.45,1.48.3.38.92.78,1.85,1.18.93.4,2.36.89,4.3,1.45,3.35.97,5.84,2.23,7.48,3.78s2.45,3.7,2.45,6.45c0,2.18-.63,4.07-1.88,5.66-1.25,1.59-2.97,2.82-5.15,3.66s-4.6,1.27-7.27,1.27-5.22-.42-7.54-1.27c-2.32-.85-4.29-2.02-5.9-3.51l4.66-5.21c2.7,2.1,5.55,3.15,8.54,3.15,1.45,0,2.59-.26,3.42-.79.83-.52,1.24-1.27,1.24-2.24,0-.77-.16-1.37-.48-1.82-.32-.44-.95-.86-1.88-1.24-.93-.38-2.4-.86-4.42-1.42-3.19-.93-5.57-2.22-7.15-3.88s-2.36-3.71-2.36-6.18c0-1.86.53-3.52,1.6-5,1.07-1.47,2.6-2.64,4.6-3.51,2-.87,4.31-1.3,6.93-1.3,2.3,0,4.46.34,6.48,1.03Z"/>
      <path class="cls-3" d="M799.72,257.69c-1.17.81-2.53,1.43-4.09,1.88-1.55.44-3.1.67-4.63.67-7.02-.04-10.54-3.92-10.54-11.62v-14.9h-4.54v-6.66h4.54v-6.96l9.57-1.09v8.05h7.39l-1.03,6.66h-6.36v14.77c0,1.49.24,2.56.73,3.21s1.25.97,2.3.97,2.24-.34,3.45-1.03l3.21,6.05Z"/>
      <path class="cls-3" d="M849.62,221.36l-5.03,5.27c-1.49-1.13-2.88-1.95-4.15-2.45-1.27-.5-2.73-.76-4.39-.76-3.11,0-5.59,1.22-7.45,3.66-1.86,2.44-2.79,6.15-2.79,11.11,0,5.37.71,9.17,2.12,11.41,1.41,2.24,3.61,3.36,6.6,3.36,2.1,0,4-.46,5.69-1.39v-9.51h-5.45l-.97-7.02h16.05v20.77c-2.18,1.41-4.58,2.5-7.21,3.27-2.62.77-5.25,1.15-7.87,1.15-6.38,0-11.18-1.87-14.41-5.6-3.23-3.73-4.84-9.21-4.84-16.44,0-4.6.88-8.56,2.63-11.87,1.76-3.31,4.16-5.82,7.21-7.54,3.05-1.71,6.47-2.57,10.26-2.57,5.41,0,10.07,1.72,13.99,5.15Z"/>
      <path class="cls-3" d="M876.98,226.57l-1.51,9.26c-1.21-.28-2.18-.42-2.91-.42-1.9,0-3.34.66-4.33,1.97-.99,1.31-1.77,3.28-2.33,5.9v15.92h-9.57v-32.15h8.36l.79,6.24c.73-2.22,1.83-3.97,3.3-5.24,1.47-1.27,3.14-1.91,5-1.91,1.17,0,2.24.14,3.21.42Z"/>
      <path class="cls-3" d="M904.29,230.53c2.79,3.01,4.18,7.22,4.18,12.62,0,3.43-.64,6.43-1.91,8.99-1.27,2.56-3.09,4.55-5.45,5.96s-5.16,2.12-8.39,2.12c-4.88,0-8.73-1.5-11.53-4.51-2.81-3.01-4.21-7.21-4.21-12.62,0-3.43.64-6.43,1.91-8.99,1.27-2.56,3.09-4.55,5.45-5.96,2.36-1.41,5.16-2.12,8.39-2.12,4.92,0,8.78,1.5,11.56,4.51ZM888.36,235.5c-.97,1.63-1.45,4.17-1.45,7.6s.47,6.08,1.42,7.69c.95,1.61,2.41,2.42,4.39,2.42s3.39-.82,4.36-2.45,1.45-4.17,1.45-7.6-.48-6.08-1.42-7.69c-.95-1.61-2.41-2.42-4.39-2.42s-3.39.82-4.36,2.45Z"/>
      <path class="cls-3" d="M941.28,259.2h-8.29l-.42-4.06c-2.34,3.39-5.59,5.09-9.75,5.09-2.95,0-5.18-.89-6.69-2.66s-2.27-4.26-2.27-7.45v-23.07h9.57v21.86c0,1.57.25,2.67.76,3.3.5.63,1.28.94,2.33.94,2.02,0,3.75-1.25,5.21-3.75v-22.34h9.57v32.15Z"/>
      <path class="cls-3" d="M975.98,230.5c1.98,2.99,2.97,7.17,2.97,12.53,0,3.31-.51,6.27-1.54,8.87s-2.51,4.64-4.45,6.12-4.2,2.21-6.78,2.21c-3.23,0-5.83-1.11-7.81-3.33v14.71l-9.57,1.03v-45.59h8.42l.48,3.57c1.25-1.57,2.68-2.73,4.3-3.48,1.61-.75,3.27-1.12,4.96-1.12,4.04,0,7.04,1.49,9.02,4.48ZM969.01,243.16c0-3.79-.42-6.43-1.27-7.9-.85-1.47-2.12-2.21-3.81-2.21-1.09,0-2.11.32-3.06.97-.95.65-1.79,1.57-2.51,2.79v13.56c1.29,1.9,2.93,2.85,4.9,2.85,3.83,0,5.75-3.35,5.75-10.05Z"/>
    </g>
    <g>
      <path class="cls-4" d="M384.85,175.04h-3.88v16.04h-9.93v-41.96h13.74c5.73,0,10.04,1.05,12.93,3.15,2.89,2.1,4.33,5.31,4.33,9.63,0,2.71-.65,4.96-1.94,6.75-1.29,1.8-3.33,3.32-6.12,4.57l10.66,17.86h-11.2l-8.6-16.04ZM380.98,168.2h4.18c2.22,0,3.88-.5,5-1.51,1.11-1.01,1.67-2.6,1.67-4.78,0-2.02-.6-3.49-1.79-4.42-1.19-.93-3.02-1.39-5.48-1.39h-3.57v12.11Z"/>
      <path class="cls-4" d="M435.17,177.82h-19.92c.32,2.7,1.09,4.6,2.3,5.69s2.89,1.63,5.03,1.63c1.29,0,2.54-.23,3.75-.7,1.21-.46,2.52-1.18,3.94-2.15l3.94,5.33c-3.75,2.99-7.93,4.48-12.53,4.48-5.21,0-9.2-1.53-11.99-4.6-2.79-3.07-4.18-7.18-4.18-12.35,0-3.27.58-6.21,1.76-8.81,1.17-2.6,2.89-4.66,5.15-6.18,2.26-1.51,4.97-2.27,8.11-2.27,4.64,0,8.27,1.45,10.9,4.36,2.62,2.91,3.94,6.94,3.94,12.11,0,1.33-.06,2.48-.18,3.45ZM425.97,171.65c-.08-4.92-1.82-7.39-5.21-7.39-1.66,0-2.94.61-3.84,1.82s-1.46,3.21-1.67,6h10.72v-.42Z"/>
      <path class="cls-4" d="M470.35,160.81c-2.1.85-5.19,1.27-9.26,1.27,2.1.89,3.63,1.98,4.6,3.27.97,1.29,1.45,2.97,1.45,5.03s-.54,3.91-1.63,5.54-2.65,2.92-4.69,3.84c-2.04.93-4.43,1.39-7.17,1.39-1.29,0-2.52-.12-3.69-.36-.32.16-.58.41-.76.76s-.27.7-.27,1.06c0,.61.23,1.08.7,1.42.46.34,1.4.51,2.82.51h4.84c2.46,0,4.62.4,6.48,1.21,1.86.81,3.29,1.92,4.3,3.33,1.01,1.41,1.51,3.01,1.51,4.78,0,3.35-1.44,5.96-4.33,7.84-2.89,1.88-7.05,2.82-12.5,2.82-3.92,0-7-.41-9.26-1.24-2.26-.83-3.84-1.99-4.75-3.48s-1.36-3.37-1.36-5.63h8.6c0,.97.19,1.74.58,2.3.38.56,1.08.99,2.09,1.27,1.01.28,2.46.42,4.36.42,2.62,0,4.44-.31,5.45-.94,1.01-.63,1.51-1.52,1.51-2.69,0-.97-.38-1.74-1.15-2.3-.77-.57-1.92-.85-3.45-.85h-4.66c-3.31,0-5.78-.59-7.42-1.79-1.63-1.19-2.45-2.71-2.45-4.57,0-1.17.34-2.31,1.03-3.42.69-1.11,1.61-2.03,2.79-2.75-2.02-1.09-3.48-2.37-4.39-3.84s-1.36-3.26-1.36-5.36c0-3.59,1.29-6.45,3.88-8.57,2.58-2.12,5.99-3.18,10.23-3.18,3.23.08,5.96-.24,8.2-.97s4.55-1.79,6.93-3.21l2.24,7.08ZM449.67,165.62c-.87.95-1.3,2.25-1.3,3.91,0,1.74.43,3.08,1.3,4.03.87.95,2.05,1.42,3.54,1.42,1.57,0,2.77-.46,3.6-1.39.83-.93,1.24-2.32,1.24-4.18,0-3.47-1.61-5.21-4.84-5.21-1.49,0-2.67.48-3.54,1.42Z"/>
      <path class="cls-4" d="M500.62,191.08h-8.29l-.42-4.06c-2.34,3.39-5.59,5.09-9.75,5.09-2.95,0-5.18-.89-6.69-2.66s-2.27-4.26-2.27-7.45v-23.07h9.57v21.86c0,1.57.25,2.67.76,3.3.5.63,1.28.94,2.33.94,2.02,0,3.75-1.25,5.21-3.75v-22.34h9.57v32.15Z"/>
      <path class="cls-4" d="M510.16,189.72c-1.55-1.59-2.33-3.86-2.33-6.81v-36.75l9.57-1.03v37.42c0,1.33.54,2,1.63,2,.56,0,1.09-.1,1.57-.3l1.88,6.78c-1.74.73-3.67,1.09-5.81,1.09-2.79,0-4.96-.8-6.51-2.39Z"/>
      <path class="cls-4" d="M551.88,184.42c.34.57.9.99,1.67,1.27l-2,6.24c-1.98-.16-3.59-.6-4.84-1.3-1.25-.71-2.22-1.83-2.91-3.36-2.1,3.23-5.33,4.84-9.69,4.84-3.19,0-5.73-.93-7.63-2.79-1.9-1.86-2.85-4.28-2.85-7.27,0-3.51,1.29-6.2,3.88-8.05,2.58-1.86,6.32-2.79,11.2-2.79h3.27v-1.39c0-1.9-.4-3.2-1.21-3.91-.81-.71-2.22-1.06-4.24-1.06-1.05,0-2.32.15-3.81.45-1.49.3-3.03.72-4.6,1.24l-2.18-6.3c2.02-.77,4.09-1.35,6.21-1.76,2.12-.4,4.09-.61,5.9-.61,4.6,0,7.97.95,10.11,2.85,2.14,1.9,3.21,4.74,3.21,8.54v12.47c0,1.21.17,2.1.51,2.66ZM541.98,182.18v-5.69h-2.36c-2.18,0-3.81.38-4.87,1.15-1.07.77-1.6,1.96-1.6,3.57,0,1.29.33,2.29,1,3,.67.71,1.58,1.06,2.75,1.06,2.18,0,3.88-1.03,5.09-3.09Z"/>
      <path class="cls-4" d="M579.15,189.57c-1.17.81-2.53,1.43-4.09,1.88-1.55.44-3.1.67-4.63.67-7.02-.04-10.54-3.92-10.54-11.62v-14.9h-4.54v-6.66h4.54v-6.96l9.57-1.09v8.05h7.39l-1.03,6.66h-6.36v14.77c0,1.49.24,2.56.73,3.21s1.25.97,2.3.97,2.24-.34,3.45-1.03l3.21,6.05Z"/>
      <path class="cls-4" d="M606.76,162.41c2.79,3.01,4.18,7.22,4.18,12.62,0,3.43-.64,6.43-1.91,8.99-1.27,2.56-3.09,4.55-5.45,5.96s-5.16,2.12-8.39,2.12c-4.88,0-8.73-1.5-11.53-4.51-2.81-3.01-4.21-7.21-4.21-12.62,0-3.43.64-6.43,1.91-8.99,1.27-2.56,3.09-4.55,5.45-5.96,2.36-1.41,5.16-2.12,8.39-2.12,4.92,0,8.78,1.5,11.56,4.51ZM590.84,167.38c-.97,1.63-1.45,4.17-1.45,7.6s.47,6.08,1.42,7.69c.95,1.61,2.41,2.42,4.39,2.42s3.39-.82,4.36-2.45,1.45-4.17,1.45-7.6-.48-6.08-1.42-7.69c-.95-1.61-2.41-2.42-4.39-2.42s-3.39.82-4.36,2.45Z"/>
      <path class="cls-4" d="M637.28,158.45l-1.51,9.26c-1.21-.28-2.18-.42-2.91-.42-1.9,0-3.34.66-4.33,1.97-.99,1.31-1.77,3.28-2.33,5.9v15.92h-9.57v-32.15h8.36l.79,6.24c.73-2.22,1.83-3.97,3.3-5.24,1.47-1.27,3.14-1.91,5-1.91,1.17,0,2.24.14,3.21.42Z"/>
      <path class="cls-4" d="M657.99,158.93c2.02.69,3.79,1.66,5.33,2.91l-3.51,5.39c-2.62-1.65-5.27-2.48-7.93-2.48-1.25,0-2.21.21-2.88.64s-1,1.02-1,1.79c0,.61.15,1.1.45,1.48.3.38.92.78,1.85,1.18.93.4,2.36.89,4.3,1.45,3.35.97,5.84,2.23,7.48,3.78s2.45,3.7,2.45,6.45c0,2.18-.63,4.07-1.88,5.66-1.25,1.59-2.97,2.82-5.15,3.66s-4.6,1.27-7.27,1.27-5.22-.42-7.54-1.27c-2.32-.85-4.29-2.02-5.9-3.51l4.66-5.21c2.7,2.1,5.55,3.15,8.54,3.15,1.45,0,2.59-.26,3.42-.79.83-.52,1.24-1.27,1.24-2.24,0-.77-.16-1.37-.48-1.82-.32-.44-.95-.86-1.88-1.24-.93-.38-2.4-.86-4.42-1.42-3.19-.93-5.57-2.22-7.15-3.88s-2.36-3.71-2.36-6.18c0-1.86.53-3.52,1.6-5,1.07-1.47,2.6-2.64,4.6-3.51,2-.87,4.31-1.3,6.93-1.3,2.3,0,4.46.34,6.48,1.03Z"/>
      <path class="cls-4" d="M705.91,149.37c1.96.85,3.45,2,4.48,3.45,1.03,1.45,1.54,3.11,1.54,4.96,0,2.38-.68,4.45-2.03,6.21-1.35,1.76-3.34,3.5-5.96,5.24l8.17,7.69c1.17-2.42,2.14-5.33,2.91-8.72l7.99,2.36c-1.53,4.44-3.39,8.19-5.57,11.26l7.33,6.48-8.17,3.81-4.72-4.54c-3.75,3.03-8.17,4.54-13.26,4.54-2.95,0-5.55-.48-7.81-1.45-2.26-.97-4.02-2.34-5.27-4.12-1.25-1.78-1.88-3.83-1.88-6.18s.66-4.54,1.97-6.36c1.31-1.82,3.38-3.65,6.21-5.51-2.18-2.1-3.69-3.88-4.54-5.36-.85-1.47-1.27-3.14-1.27-5s.48-3.48,1.45-5,2.43-2.73,4.39-3.66c1.96-.93,4.33-1.39,7.11-1.39s4.97.42,6.93,1.27ZM694.53,176.52c-.59.99-.88,2.09-.88,3.3,0,1.66.61,2.99,1.82,4,1.21,1.01,2.81,1.51,4.78,1.51,2.54,0,4.82-.77,6.84-2.3l-9.81-9.38c-1.25.93-2.17,1.89-2.75,2.88ZM696.25,155.33c-.69.71-1.03,1.65-1.03,2.82,0,1.05.25,2,.76,2.85.5.85,1.4,1.92,2.69,3.21,1.41-.93,2.45-1.88,3.12-2.85s1-2.08,1-3.33c0-1.17-.33-2.09-1-2.75s-1.56-1-2.69-1c-1.21,0-2.16.35-2.85,1.06Z"/>
      <path class="cls-4" d="M766.03,149.43c2.32.89,4.43,2.24,6.33,4.06l-4.6,5.39c-2.87-2.34-5.93-3.51-9.2-3.51-1.74,0-3.11.35-4.12,1.06-1.01.71-1.51,1.73-1.51,3.06,0,.93.22,1.69.67,2.27.44.59,1.23,1.14,2.36,1.67,1.13.53,2.82,1.15,5.09,1.88,4.28,1.37,7.43,3.06,9.45,5.06,2.02,2,3.03,4.83,3.03,8.51,0,2.62-.67,4.93-2,6.93-1.33,2-3.25,3.55-5.75,4.66-2.5,1.11-5.47,1.67-8.9,1.67s-6.47-.54-9.11-1.63c-2.64-1.09-4.91-2.54-6.81-4.36l5.03-5.51c1.61,1.37,3.28,2.4,5,3.09,1.71.69,3.58,1.03,5.6,1.03s3.68-.45,4.87-1.36c1.19-.91,1.79-2.17,1.79-3.78,0-1.05-.22-1.93-.67-2.63-.44-.71-1.21-1.34-2.3-1.91s-2.66-1.17-4.72-1.82c-4.64-1.41-7.94-3.15-9.9-5.21-1.96-2.06-2.94-4.66-2.94-7.81,0-2.42.65-4.55,1.94-6.39,1.29-1.84,3.09-3.25,5.39-4.24,2.3-.99,4.9-1.48,7.81-1.48,3.15,0,5.88.45,8.2,1.33Z"/>
      <path class="cls-4" d="M798.94,189.57c-1.17.81-2.53,1.43-4.09,1.88-1.55.44-3.1.67-4.63.67-7.02-.04-10.54-3.92-10.54-11.62v-14.9h-4.54v-6.66h4.54v-6.96l9.57-1.09v8.05h7.39l-1.03,6.66h-6.36v14.77c0,1.49.24,2.56.73,3.21s1.25.97,2.3.97,2.24-.34,3.45-1.03l3.21,6.05Z"/>
      <path class="cls-4" d="M827.49,184.42c.34.57.9.99,1.67,1.27l-2,6.24c-1.98-.16-3.59-.6-4.84-1.3-1.25-.71-2.22-1.83-2.91-3.36-2.1,3.23-5.33,4.84-9.69,4.84-3.19,0-5.73-.93-7.63-2.79-1.9-1.86-2.85-4.28-2.85-7.27,0-3.51,1.29-6.2,3.88-8.05,2.58-1.86,6.32-2.79,11.2-2.79h3.27v-1.39c0-1.9-.4-3.2-1.21-3.91-.81-.71-2.22-1.06-4.24-1.06-1.05,0-2.32.15-3.81.45-1.49.3-3.03.72-4.6,1.24l-2.18-6.3c2.02-.77,4.09-1.35,6.21-1.76,2.12-.4,4.09-.61,5.9-.61,4.6,0,7.97.95,10.11,2.85,2.14,1.9,3.21,4.74,3.21,8.54v12.47c0,1.21.17,2.1.51,2.66ZM817.59,182.18v-5.69h-2.36c-2.18,0-3.81.38-4.87,1.15-1.07.77-1.6,1.96-1.6,3.57,0,1.29.33,2.29,1,3,.67.71,1.58,1.06,2.75,1.06,2.18,0,3.88-1.03,5.09-3.09Z"/>
      <path class="cls-4" d="M859.97,160.45c1.57,1.7,2.36,4.08,2.36,7.14v23.49h-9.57v-21.86c0-1.61-.25-2.73-.76-3.36-.51-.62-1.26-.94-2.27-.94-1.94,0-3.79,1.39-5.57,4.18v21.98h-9.57v-32.15h8.36l.67,3.81c1.37-1.61,2.85-2.82,4.45-3.63,1.59-.81,3.38-1.21,5.36-1.21,2.79,0,4.96.85,6.54,2.54Z"/>
      <path class="cls-4" d="M898.36,146.16v44.93h-8.48l-.48-3.75c-2.26,3.19-5.31,4.78-9.14,4.78s-7.03-1.53-9.11-4.6c-2.08-3.07-3.12-7.27-3.12-12.59,0-3.27.54-6.2,1.63-8.78,1.09-2.58,2.63-4.6,4.63-6.05,2-1.45,4.29-2.18,6.87-2.18,3.07,0,5.61,1.01,7.63,3.03v-15.8l9.57,1.03ZM888.79,181.46v-13.87c-.77-.93-1.54-1.61-2.33-2.06-.79-.44-1.69-.67-2.69-.67-1.78,0-3.19.83-4.24,2.48-1.05,1.66-1.57,4.2-1.57,7.63,0,3.75.45,6.38,1.36,7.87s2.21,2.24,3.91,2.24c2.22,0,4.08-1.21,5.57-3.63Z"/>
      <path class="cls-4" d="M931.93,184.42c.34.57.9.99,1.67,1.27l-2,6.24c-1.98-.16-3.59-.6-4.84-1.3-1.25-.71-2.22-1.83-2.91-3.36-2.1,3.23-5.33,4.84-9.69,4.84-3.19,0-5.73-.93-7.63-2.79-1.9-1.86-2.85-4.28-2.85-7.27,0-3.51,1.29-6.2,3.88-8.05,2.58-1.86,6.32-2.79,11.2-2.79h3.27v-1.39c0-1.9-.4-3.2-1.21-3.91-.81-.71-2.22-1.06-4.24-1.06-1.05,0-2.32.15-3.81.45-1.49.3-3.03.72-4.6,1.24l-2.18-6.3c2.02-.77,4.09-1.35,6.21-1.76,2.12-.4,4.09-.61,5.9-.61,4.6,0,7.97.95,10.11,2.85,2.14,1.9,3.21,4.74,3.21,8.54v12.47c0,1.21.17,2.1.51,2.66ZM922.03,182.18v-5.69h-2.36c-2.18,0-3.81.38-4.87,1.15-1.07.77-1.6,1.96-1.6,3.57,0,1.29.33,2.29,1,3,.67.71,1.58,1.06,2.75,1.06,2.18,0,3.88-1.03,5.09-3.09Z"/>
      <path class="cls-4" d="M959.69,158.45l-1.51,9.26c-1.21-.28-2.18-.42-2.91-.42-1.9,0-3.34.66-4.33,1.97-.99,1.31-1.77,3.28-2.33,5.9v15.92h-9.57v-32.15h8.36l.79,6.24c.73-2.22,1.83-3.97,3.3-5.24,1.47-1.27,3.14-1.91,5-1.91,1.17,0,2.24.14,3.21.42Z"/>
      <path class="cls-4" d="M990.33,146.16v44.93h-8.48l-.48-3.75c-2.26,3.19-5.31,4.78-9.14,4.78s-7.03-1.53-9.11-4.6c-2.08-3.07-3.12-7.27-3.12-12.59,0-3.27.54-6.2,1.63-8.78,1.09-2.58,2.63-4.6,4.63-6.05,2-1.45,4.29-2.18,6.87-2.18,3.07,0,5.61,1.01,7.63,3.03v-15.8l9.57,1.03ZM980.76,181.46v-13.87c-.77-.93-1.54-1.61-2.33-2.06-.79-.44-1.69-.67-2.69-.67-1.78,0-3.19.83-4.24,2.48-1.05,1.66-1.57,4.2-1.57,7.63,0,3.75.45,6.38,1.36,7.87s2.21,2.24,3.91,2.24c2.22,0,4.08-1.21,5.57-3.63Z"/>
      <path class="cls-4" d="M1015.64,158.93c2.02.69,3.79,1.66,5.33,2.91l-3.51,5.39c-2.62-1.65-5.27-2.48-7.93-2.48-1.25,0-2.21.21-2.88.64s-1,1.02-1,1.79c0,.61.15,1.1.45,1.48.3.38.92.78,1.85,1.18.93.4,2.36.89,4.3,1.45,3.35.97,5.84,2.23,7.48,3.78s2.45,3.7,2.45,6.45c0,2.18-.63,4.07-1.88,5.66-1.25,1.59-2.97,2.82-5.15,3.66s-4.6,1.27-7.27,1.27-5.22-.42-7.54-1.27c-2.32-.85-4.29-2.02-5.9-3.51l4.66-5.21c2.7,2.1,5.55,3.15,8.54,3.15,1.45,0,2.59-.26,3.42-.79.83-.52,1.24-1.27,1.24-2.24,0-.77-.16-1.37-.48-1.82-.32-.44-.95-.86-1.88-1.24-.93-.38-2.4-.86-4.42-1.42-3.19-.93-5.57-2.22-7.15-3.88s-2.36-3.71-2.36-6.18c0-1.86.53-3.52,1.6-5,1.07-1.47,2.6-2.64,4.6-3.51,2-.87,4.31-1.3,6.93-1.3,2.3,0,4.46.34,6.48,1.03Z"/>
      <path class="cls-4" d="M392.76,217.54c2.32.89,4.43,2.24,6.33,4.06l-4.6,5.39c-2.87-2.34-5.93-3.51-9.2-3.51-1.74,0-3.11.35-4.12,1.06-1.01.71-1.51,1.73-1.51,3.06,0,.93.22,1.69.67,2.27.44.59,1.23,1.14,2.36,1.67,1.13.53,2.82,1.15,5.09,1.88,4.28,1.37,7.43,3.06,9.45,5.06,2.02,2,3.03,4.83,3.03,8.51,0,2.62-.67,4.93-2,6.93-1.33,2-3.25,3.55-5.75,4.66-2.5,1.11-5.47,1.67-8.9,1.67s-6.47-.54-9.11-1.63c-2.64-1.09-4.91-2.54-6.81-4.36l5.03-5.51c1.61,1.37,3.28,2.4,5,3.09,1.71.69,3.58,1.03,5.6,1.03s3.68-.45,4.87-1.36c1.19-.91,1.79-2.17,1.79-3.78,0-1.05-.22-1.93-.67-2.63-.44-.71-1.21-1.34-2.3-1.91s-2.66-1.17-4.72-1.82c-4.64-1.41-7.94-3.15-9.9-5.21-1.96-2.06-2.94-4.66-2.94-7.81,0-2.42.65-4.55,1.94-6.39,1.29-1.84,3.09-3.25,5.39-4.24,2.3-.99,4.9-1.48,7.81-1.48,3.15,0,5.88.44,8.2,1.33Z"/>
      <path class="cls-4" d="M432.69,230.5c1.98,2.99,2.97,7.17,2.97,12.53,0,3.31-.51,6.27-1.54,8.87s-2.51,4.64-4.45,6.12-4.2,2.21-6.78,2.21c-3.23,0-5.83-1.11-7.81-3.33v14.71l-9.57,1.03v-45.59h8.42l.48,3.57c1.25-1.57,2.68-2.73,4.3-3.48,1.61-.75,3.27-1.12,4.96-1.12,4.04,0,7.04,1.49,9.02,4.48ZM425.72,243.16c0-3.79-.42-6.43-1.27-7.9-.85-1.47-2.12-2.21-3.81-2.21-1.09,0-2.11.32-3.06.97-.95.65-1.79,1.57-2.51,2.79v13.56c1.29,1.9,2.93,2.85,4.9,2.85,3.83,0,5.75-3.35,5.75-10.05Z"/>
      <path class="cls-4" d="M469.5,245.94h-19.92c.32,2.7,1.09,4.6,2.3,5.69s2.89,1.63,5.03,1.63c1.29,0,2.54-.23,3.75-.7,1.21-.46,2.52-1.18,3.94-2.15l3.94,5.33c-3.75,2.99-7.93,4.48-12.53,4.48-5.21,0-9.2-1.53-11.99-4.6-2.79-3.07-4.18-7.18-4.18-12.35,0-3.27.58-6.21,1.76-8.81,1.17-2.6,2.89-4.66,5.15-6.18,2.26-1.51,4.97-2.27,8.11-2.27,4.64,0,8.27,1.45,10.9,4.36,2.62,2.91,3.94,6.94,3.94,12.11,0,1.33-.06,2.48-.18,3.45ZM460.3,239.77c-.08-4.92-1.82-7.39-5.21-7.39-1.66,0-2.94.61-3.84,1.82s-1.46,3.21-1.67,6h10.72v-.42Z"/>
      <path class="cls-4" d="M494.99,226.99c1.78.65,3.45,1.63,5.03,2.97l-4.12,5.69c-2.02-1.53-4.06-2.3-6.12-2.3s-3.75.79-4.84,2.36-1.63,4.12-1.63,7.63.54,5.79,1.63,7.21,2.66,2.12,4.72,2.12c1.09,0,2.08-.17,2.97-.51.89-.34,1.96-.9,3.21-1.67l4.18,5.93c-3.19,2.54-6.8,3.81-10.84,3.81-3.27,0-6.1-.7-8.48-2.09-2.38-1.39-4.22-3.35-5.51-5.87-1.29-2.52-1.94-5.48-1.94-8.87s.65-6.4,1.94-9.02c1.29-2.62,3.13-4.67,5.51-6.15,2.38-1.47,5.15-2.21,8.3-2.21,2.22,0,4.22.32,5.99.97Z"/>
      <path class="cls-4" d="M512.88,211.64c1.07,1.03,1.6,2.33,1.6,3.91s-.54,2.88-1.6,3.91c-1.07,1.03-2.43,1.54-4.09,1.54s-3.01-.51-4.06-1.54c-1.05-1.03-1.57-2.33-1.57-3.91s.52-2.88,1.57-3.91c1.05-1.03,2.4-1.54,4.06-1.54s3.02.51,4.09,1.54ZM513.64,227.05v32.15h-9.57v-32.15h9.57Z"/>
      <path class="cls-4" d="M547.21,252.54c.34.57.9.99,1.67,1.27l-2,6.24c-1.98-.16-3.59-.6-4.84-1.3-1.25-.71-2.22-1.83-2.91-3.36-2.1,3.23-5.33,4.84-9.69,4.84-3.19,0-5.73-.93-7.63-2.79-1.9-1.86-2.85-4.28-2.85-7.27,0-3.51,1.29-6.2,3.88-8.05,2.58-1.86,6.32-2.79,11.2-2.79h3.27v-1.39c0-1.9-.4-3.2-1.21-3.91-.81-.71-2.22-1.06-4.24-1.06-1.05,0-2.32.15-3.81.45-1.49.3-3.03.72-4.6,1.24l-2.18-6.3c2.02-.77,4.09-1.35,6.21-1.76,2.12-.4,4.09-.61,5.9-.61,4.6,0,7.97.95,10.11,2.85,2.14,1.9,3.21,4.74,3.21,8.54v12.47c0,1.21.17,2.1.51,2.66ZM537.31,250.3v-5.69h-2.36c-2.18,0-3.81.38-4.87,1.15-1.07.77-1.6,1.96-1.6,3.57,0,1.29.33,2.29,1,3,.67.71,1.58,1.06,2.75,1.06,2.18,0,3.88-1.03,5.09-3.09Z"/>
      <path class="cls-4" d="M555.75,257.84c-1.55-1.59-2.33-3.86-2.33-6.81v-36.75l9.57-1.03v37.42c0,1.33.54,2,1.63,2,.56,0,1.09-.1,1.57-.3l1.88,6.78c-1.74.73-3.67,1.09-5.81,1.09-2.79,0-4.96-.8-6.51-2.39Z"/>
      <path class="cls-4" d="M596.16,217.24v41.96h-9.93v-41.96h9.93Z"/>
      <path class="cls-4" d="M629.16,228.56c1.57,1.7,2.36,4.08,2.36,7.14v23.49h-9.57v-21.86c0-1.61-.25-2.73-.76-3.36-.51-.62-1.26-.94-2.27-.94-1.94,0-3.79,1.39-5.57,4.18v21.98h-9.57v-32.15h8.36l.67,3.81c1.37-1.61,2.85-2.82,4.45-3.63,1.59-.81,3.38-1.21,5.36-1.21,2.79,0,4.96.85,6.54,2.54Z"/>
      <path class="cls-4" d="M658.89,257.69c-1.17.81-2.53,1.43-4.09,1.88-1.55.44-3.1.67-4.63.67-7.02-.04-10.54-3.92-10.54-11.62v-14.9h-4.54v-6.66h4.54v-6.96l9.57-1.09v8.05h7.39l-1.03,6.66h-6.36v14.77c0,1.49.24,2.56.73,3.21s1.25.97,2.3.97,2.24-.34,3.45-1.03l3.21,6.05Z"/>
      <path class="cls-4" d="M688.86,245.94h-19.92c.32,2.7,1.09,4.6,2.3,5.69s2.89,1.63,5.03,1.63c1.29,0,2.54-.23,3.75-.7,1.21-.46,2.52-1.18,3.94-2.15l3.94,5.33c-3.75,2.99-7.93,4.48-12.53,4.48-5.21,0-9.2-1.53-11.99-4.6-2.79-3.07-4.18-7.18-4.18-12.35,0-3.27.58-6.21,1.76-8.81,1.17-2.6,2.89-4.66,5.15-6.18,2.26-1.51,4.97-2.27,8.11-2.27,4.64,0,8.27,1.45,10.9,4.36,2.62,2.91,3.94,6.94,3.94,12.11,0,1.33-.06,2.48-.18,3.45ZM679.66,239.77c-.08-4.92-1.82-7.39-5.21-7.39-1.66,0-2.94.61-3.84,1.82s-1.46,3.21-1.67,6h10.72v-.42Z"/>
      <path class="cls-4" d="M715.08,226.57l-1.51,9.26c-1.21-.28-2.18-.42-2.91-.42-1.9,0-3.34.66-4.33,1.97-.99,1.31-1.77,3.28-2.33,5.9v15.92h-9.57v-32.15h8.36l.79,6.24c.73-2.22,1.83-3.97,3.3-5.24,1.47-1.27,3.14-1.91,5-1.91,1.17,0,2.24.14,3.21.42Z"/>
      <path class="cls-4" d="M744.75,245.94h-19.92c.32,2.7,1.09,4.6,2.3,5.69s2.89,1.63,5.03,1.63c1.29,0,2.54-.23,3.75-.7,1.21-.46,2.52-1.18,3.94-2.15l3.94,5.33c-3.75,2.99-7.93,4.48-12.53,4.48-5.21,0-9.2-1.53-11.99-4.6-2.79-3.07-4.18-7.18-4.18-12.35,0-3.27.58-6.21,1.76-8.81,1.17-2.6,2.89-4.66,5.15-6.18,2.26-1.51,4.97-2.27,8.11-2.27,4.64,0,8.27,1.45,10.9,4.36,2.62,2.91,3.94,6.94,3.94,12.11,0,1.33-.06,2.48-.18,3.45ZM735.54,239.77c-.08-4.92-1.82-7.39-5.21-7.39-1.66,0-2.94.61-3.84,1.82s-1.46,3.21-1.67,6h10.72v-.42Z"/>
      <path class="cls-4" d="M768.12,227.05c2.02.69,3.79,1.66,5.33,2.91l-3.51,5.39c-2.62-1.65-5.27-2.48-7.93-2.48-1.25,0-2.21.21-2.88.64s-1,1.02-1,1.79c0,.61.15,1.1.45,1.48.3.38.92.78,1.85,1.18.93.4,2.36.89,4.3,1.45,3.35.97,5.84,2.23,7.48,3.78s2.45,3.7,2.45,6.45c0,2.18-.63,4.07-1.88,5.66-1.25,1.59-2.97,2.82-5.15,3.66s-4.6,1.27-7.27,1.27-5.22-.42-7.54-1.27c-2.32-.85-4.29-2.02-5.9-3.51l4.66-5.21c2.7,2.1,5.55,3.15,8.54,3.15,1.45,0,2.59-.26,3.42-.79.83-.52,1.24-1.27,1.24-2.24,0-.77-.16-1.37-.48-1.82-.32-.44-.95-.86-1.88-1.24-.93-.38-2.4-.86-4.42-1.42-3.19-.93-5.57-2.22-7.15-3.88s-2.36-3.71-2.36-6.18c0-1.86.53-3.52,1.6-5,1.07-1.47,2.6-2.64,4.6-3.51,2-.87,4.31-1.3,6.93-1.3,2.3,0,4.46.34,6.48,1.03Z"/>
      <path class="cls-4" d="M799.72,257.69c-1.17.81-2.53,1.43-4.09,1.88-1.55.44-3.1.67-4.63.67-7.02-.04-10.54-3.92-10.54-11.62v-14.9h-4.54v-6.66h4.54v-6.96l9.57-1.09v8.05h7.39l-1.03,6.66h-6.36v14.77c0,1.49.24,2.56.73,3.21s1.25.97,2.3.97,2.24-.34,3.45-1.03l3.21,6.05Z"/>
      <path class="cls-4" d="M849.62,221.36l-5.03,5.27c-1.49-1.13-2.88-1.95-4.15-2.45-1.27-.5-2.73-.76-4.39-.76-3.11,0-5.59,1.22-7.45,3.66-1.86,2.44-2.79,6.15-2.79,11.11,0,5.37.71,9.17,2.12,11.41,1.41,2.24,3.61,3.36,6.6,3.36,2.1,0,4-.46,5.69-1.39v-9.51h-5.45l-.97-7.02h16.05v20.77c-2.18,1.41-4.58,2.5-7.21,3.27-2.62.77-5.25,1.15-7.87,1.15-6.38,0-11.18-1.87-14.41-5.6-3.23-3.73-4.84-9.21-4.84-16.44,0-4.6.88-8.56,2.63-11.87,1.76-3.31,4.16-5.82,7.21-7.54,3.05-1.71,6.47-2.57,10.26-2.57,5.41,0,10.07,1.72,13.99,5.15Z"/>
      <path class="cls-4" d="M876.98,226.57l-1.51,9.26c-1.21-.28-2.18-.42-2.91-.42-1.9,0-3.34.66-4.33,1.97-.99,1.31-1.77,3.28-2.33,5.9v15.92h-9.57v-32.15h8.36l.79,6.24c.73-2.22,1.83-3.97,3.3-5.24,1.47-1.27,3.14-1.91,5-1.91,1.17,0,2.24.14,3.21.42Z"/>
      <path class="cls-4" d="M904.29,230.53c2.79,3.01,4.18,7.22,4.18,12.62,0,3.43-.64,6.43-1.91,8.99-1.27,2.56-3.09,4.55-5.45,5.96s-5.16,2.12-8.39,2.12c-4.88,0-8.73-1.5-11.53-4.51-2.81-3.01-4.21-7.21-4.21-12.62,0-3.43.64-6.43,1.91-8.99,1.27-2.56,3.09-4.55,5.45-5.96,2.36-1.41,5.16-2.12,8.39-2.12,4.92,0,8.78,1.5,11.56,4.51ZM888.36,235.5c-.97,1.63-1.45,4.17-1.45,7.6s.47,6.08,1.42,7.69c.95,1.61,2.41,2.42,4.39,2.42s3.39-.82,4.36-2.45,1.45-4.17,1.45-7.6-.48-6.08-1.42-7.69c-.95-1.61-2.41-2.42-4.39-2.42s-3.39.82-4.36,2.45Z"/>
      <path class="cls-4" d="M941.28,259.2h-8.29l-.42-4.06c-2.34,3.39-5.59,5.09-9.75,5.09-2.95,0-5.18-.89-6.69-2.66s-2.27-4.26-2.27-7.45v-23.07h9.57v21.86c0,1.57.25,2.67.76,3.3.5.63,1.28.94,2.33.94,2.02,0,3.75-1.25,5.21-3.75v-22.34h9.57v32.15Z"/>
      <path class="cls-4" d="M975.98,230.5c1.98,2.99,2.97,7.17,2.97,12.53,0,3.31-.51,6.27-1.54,8.87s-2.51,4.64-4.45,6.12-4.2,2.21-6.78,2.21c-3.23,0-5.83-1.11-7.81-3.33v14.71l-9.57,1.03v-45.59h8.42l.48,3.57c1.25-1.57,2.68-2.73,4.3-3.48,1.61-.75,3.27-1.12,4.96-1.12,4.04,0,7.04,1.49,9.02,4.48ZM969.01,243.16c0-3.79-.42-6.43-1.27-7.9-.85-1.47-2.12-2.21-3.81-2.21-1.09,0-2.11.32-3.06.97-.95.65-1.79,1.57-2.51,2.79v13.56c1.29,1.9,2.93,2.85,4.9,2.85,3.83,0,5.75-3.35,5.75-10.05Z"/>
    </g>
  </g>
  <path class="cls-6" d="M254.76,271.81c0-15.15,12.32-27.47,27.47-27.47,6.17,0,11.85,2.07,16.44,5.51,13.58-23.23,21.4-50.24,21.4-79.09,0-42.73-17.1-81.45-44.8-109.75-4.97,4.92-11.79,7.97-19.32,7.97-15.15,0-27.47-12.32-27.47-27.47,0-4.36,1.05-8.46,2.86-12.12-20.62-9.97-43.76-15.56-68.2-15.56-53.05,0-99.91,26.35-128.32,66.64,1.1.81,2.16,1.67,3.15,2.65,5.22,5.18,8.1,12.11,8.1,19.51,0,15.15-12.32,27.47-27.47,27.47-2.35,0-4.61-.33-6.79-.88-3.63,13.24-5.6,27.16-5.6,41.54,0,38.78,14.09,74.24,37.4,101.63,4.85-4.32,11.22-6.96,18.21-6.96,15.15,0,27.47,12.32,27.47,27.47,0,5.17-1.46,9.99-3.96,14.13,22.94,13.13,49.49,20.67,77.81,20.67,38.05,0,72.94-13.55,100.11-36.08-5.22-5-8.49-12.02-8.49-19.81ZM0,102.64c0,8.77,6.19,16.18,14.41,18.1,3.91-11.63,9.13-22.65,15.51-32.88-3.14-2.4-7.06-3.83-11.31-3.83C8.39,84.04,0,92.43,0,102.64ZM18.6,121.24c10.21,0,18.6-8.39,18.6-18.6,0-6.1-2.88-11.4-7.29-14.77-6.38,10.23-11.6,21.25-15.51,32.88,1.35.32,2.75.5,4.2.5ZM18.6,121.24c10.21,0,18.6-8.39,18.6-18.6,0-6.1-2.88-11.4-7.29-14.77-6.38,10.23-11.6,21.25-15.51,32.88,1.35.32,2.75.5,4.2.5ZM239.21,33.51c10.72,5.96,20.69,13.11,29.68,21.32,3.48-3.39,5.66-8.11,5.66-13.3,0-10.44-8.39-18.6-18.6-18.6-7.34,0-13.73,4.35-16.74,10.59ZM237.35,41.52c0,10.21,8.39,18.6,18.6,18.6,5.01,0,9.58-2.03,12.94-5.3-8.99-8.21-18.96-15.36-29.68-21.32-1.18,2.44-1.86,5.15-1.86,8.02ZM237.35,41.52c0,10.21,8.39,18.6,18.6,18.6,5.01,0,9.58-2.03,12.94-5.3-8.99-8.21-18.96-15.36-29.68-21.32-1.18,2.44-1.86,5.15-1.86,8.02ZM294,257.38c-6.88,10.38-14.97,19.88-24.06,28.33,3.29,2.91,7.59,4.71,12.29,4.71,10.21,0,18.6-8.39,18.6-18.6,0-5.89-2.67-11.05-6.84-14.44h0ZM294,257.38c-3.22-2.61-7.32-4.17-11.77-4.17-10.21,0-18.6,8.39-18.6,18.6,0,5.51,2.46,10.48,6.31,13.9,9.09-8.45,17.17-17.95,24.06-28.33h0ZM294,257.38c-3.22-2.61-7.32-4.17-11.77-4.17-10.21,0-18.6,8.39-18.6,18.6,0,5.51,2.46,10.48,6.31,13.9,9.09-8.45,17.17-17.95,24.06-28.33h0ZM77.76,302.41c-10.3-6.7-19.76-14.56-28.2-23.42-3.87,3.42-6.34,8.39-6.34,13.91,0,10.21,8.39,18.6,18.6,18.6,6.74,0,12.67-3.67,15.94-9.09h0ZM77.76,302.41c1.68-2.79,2.67-6.04,2.67-9.51,0-10.44-8.39-18.6-18.6-18.6-4.69,0-8.98,1.78-12.27,4.69,8.44,8.86,17.9,16.73,28.2,23.42h0ZM77.76,302.41c1.68-2.79,2.67-6.04,2.67-9.51,0-10.44-8.39-18.6-18.6-18.6-4.69,0-8.98,1.78-12.27,4.69,8.44,8.86,17.9,16.73,28.2,23.42h0Z"/>
  <g>
    <g>
      <path class="cls-5" d="M381.43,36.61h2.59c5.84,0,10.34-4.42,10.34-10.26v-1.83l-6.42-.58v2.42c0,2.34-1.75,4.17-4.09,4.17h-2.34c-2.34,0-4.09-1.83-4.09-4.17V10.26c0-2.34,1.75-4.17,4.09-4.17h2.34c2.34,0,4.09,1.83,4.09,4.17v2.42l6.42-.58v-1.83C394.35,4.42,389.85,0,384.01,0h-2.59c-5.84,0-10.34,4.42-10.34,10.26v16.1c0,5.84,4.5,10.26,10.34,10.26h0Z"/>
      <path class="cls-5" d="M413.95,0h-2.59c-5.84,0-10.34,4.42-10.34,10.26v16.1c0,5.84,4.5,10.26,10.34,10.26h2.59c5.84,0,10.34-4.42,10.34-10.26V10.26C424.29,4.42,419.79,0,413.95,0ZM417.87,26.35c0,2.34-1.75,4.17-4.09,4.17h-2.34c-2.34,0-4.09-1.83-4.09-4.17V10.26c0-2.34,1.75-4.17,4.09-4.17h2.34c2.34,0,4.09,1.83,4.09,4.17v16.1Z"/>
      <polygon class="cls-5" points="437.72 11.59 438.05 13.18 451.98 36.69 457.82 36.69 457.82 0 451.23 0 451.23 25.1 450.9 23.52 436.89 0 431.13 0 431.13 36.69 437.72 36.69 437.72 11.59"/>
      <polygon class="cls-5" points="463.49 36.69 470.16 36.69 470.16 21.52 483.67 21.52 483.67 15.18 470.16 15.18 470.16 6.25 486.92 6.25 486.92 0 463.49 0 463.49 36.69"/>
      <rect class="cls-5" x="492.85" width="6.59" height="36.69"/>
      <path class="cls-5" d="M529.96,26.1v-15.51c0-6-4.67-10.59-10.67-10.59h-13.34v36.69h13.34c6,0,10.67-4.59,10.67-10.59ZM512.53,30.44V6.25h6.59c2.42,0,4.17,1.92,4.17,4.34v15.51c0,2.42-1.75,4.34-4.17,4.34h-6.59Z"/>
      <polygon class="cls-5" points="536.04 36.69 559.48 36.69 559.48 30.44 542.63 30.44 542.63 21.52 556.14 21.52 556.14 15.18 542.63 15.18 542.63 6.25 559.48 6.25 559.48 0 536.04 0 536.04 36.69"/>
      <polygon class="cls-5" points="572.32 11.59 572.66 13.09 586.58 36.61 592.42 36.61 592.42 0 585.83 0 585.83 25.02 585.5 23.52 571.49 0 565.73 0 565.73 36.61 572.32 36.61 572.32 11.59"/>
      <polygon class="cls-5" points="599.34 6.25 607.93 6.25 607.93 36.61 614.52 36.61 614.52 6.25 623.19 6.25 623.19 0 599.34 0 599.34 6.25"/>
      <rect class="cls-5" x="630.12" width="6.59" height="36.61"/>
      <path class="cls-5" d="M654.22,0l-10.17,36.61h7.09l1.92-7.26h11.26l1.92,7.26h7.09l-10.26-36.61h-8.84ZM654.38,23.68l4.17-15.93v-1.42l.17,1.33,4.09,15.93h-8.42v.08Z"/>
      <polygon class="cls-5" points="686.66 0 680.07 0 680.07 36.61 700.17 36.61 700.17 30.36 686.66 30.36 686.66 0"/>
    </g>
    <g>
      <path class="cls-5" d="M384.01,49.17h-2.59c-5.84,0-10.34,4.42-10.34,10.26v16.1c0,5.84,4.5,10.26,10.34,10.26h2.59c5.84,0,10.34-4.42,10.34-10.26v-1.83l-6.42-.58v2.42c0,2.34-1.75,4.17-4.09,4.17h-2.34c-2.34,0-4.09-1.83-4.09-4.17v-16.1c0-2.34,1.75-4.17,4.09-4.17h2.34c2.34,0,4.09,1.83,4.09,4.17v2.42l6.42-.58v-1.83c0-5.84-4.5-10.26-10.34-10.26h0Z"/>
      <path class="cls-5" d="M424.29,75.52v-16.1c0-5.84-4.5-10.26-10.34-10.26h-2.59c-5.84,0-10.34,4.42-10.34,10.26v16.1c0,5.84,4.5,10.26,10.34,10.26h2.59c5.84,0,10.34-4.42,10.34-10.26ZM417.87,75.52c0,2.34-1.75,4.17-4.09,4.17h-2.34c-2.34,0-4.09-1.83-4.09-4.17v-16.1c0-2.34,1.75-4.17,4.09-4.17h2.34c2.34,0,4.09,1.83,4.09,4.17v16.1Z"/>
      <polygon class="cls-5" points="448.9 77.1 448.73 78.44 448.65 77.1 440.56 49.17 430.97 49.17 430.97 85.86 437.55 85.86 437.55 57.26 437.72 58.84 445.56 85.86 451.98 85.86 459.74 58.84 459.99 57.26 459.99 85.86 466.58 85.86 466.58 49.17 456.9 49.17 448.9 77.1"/>
      <path class="cls-5" d="M486.67,49.17h-13.68v36.69h6.59v-12.01h7.01c6,0,10.67-4.59,10.67-10.59v-3.5c0-6-4.59-10.59-10.59-10.59ZM490.76,63.26c0,2.42-1.75,4.34-4.17,4.34h-6.92v-12.18h6.92c2.42,0,4.17,1.92,4.17,4.34v3.5Z"/>
      <path class="cls-5" d="M527.12,75.44v-26.27h-6.5v26.27c0,2.42-1.75,4.25-4.17,4.25h-2.42c-2.42,0-4.17-1.83-4.17-4.25v-26.27h-6.5v26.27c0,5.92,4.59,10.42,10.51,10.42h2.59c6,0,10.67-4.5,10.67-10.42h0Z"/>
      <polygon class="cls-5" points="533.71 55.42 542.38 55.42 542.38 85.86 548.97 85.86 548.97 55.42 557.64 55.42 557.64 49.17 533.71 49.17 533.71 55.42"/>
      <rect class="cls-5" x="563.9" y="49.17" width="6.59" height="36.61"/>
      <polygon class="cls-5" points="583.58 60.76 583.91 62.34 597.92 85.86 603.68 85.86 603.68 49.17 597.09 49.17 597.09 74.27 596.76 72.68 582.83 49.17 576.99 49.17 576.99 85.86 583.58 85.86 583.58 60.76"/>
      <path class="cls-5" d="M630.7,61.26v-1.83c0-5.84-4.5-10.26-10.34-10.26h-2.59c-5.84,0-10.34,4.42-10.34,10.26v16.1c0,5.84,4.5,10.26,10.34,10.26h1.5c2.92,0,5.42-1.25,7.09-3.34l1.83,2.84h2.5v-19.76h-11.68v6.09h5.25v3.84c0,2.34-1.75,4.17-4.09,4.17h-2.34c-2.34,0-4.09-1.83-4.09-4.17v-16.01c0-2.34,1.75-4.17,4.09-4.17h2.34c2.34,0,4.09,1.83,4.09,4.17v2.42l6.42-.58Z"/>
    </g>
    <g>
      <path class="cls-2" d="M378.36,97.78h-1.42c-3.29,0-5.85,2.5-5.85,5.78v9.04c0,3.29,2.56,5.78,5.85,5.78h1.42c3.29,0,5.85-2.5,5.85-5.78v-1.04l-3.6-.35v1.36c0,1.33-.98,2.34-2.28,2.34h-1.33c-1.33,0-2.28-1.04-2.28-2.34v-9.04c0-1.33.98-2.34,2.28-2.34h1.33c1.33,0,2.28,1.04,2.28,2.34v1.36l3.6-.35v-1.04c-.03-3.22-2.56-5.72-5.85-5.72h0Z"/>
      <path class="cls-2" d="M413.08,97.78h-1.42c-3.29,0-5.85,2.5-5.85,5.78v9.04c0,3.29,2.56,5.78,5.85,5.78h1.42c3.29,0,5.85-2.5,5.85-5.78v-9.04c0-3.29-2.56-5.78-5.85-5.78ZM415.32,112.6c0,1.33-.98,2.34-2.28,2.34h-1.33c-1.33,0-2.28-1.04-2.28-2.34v-9.04c0-1.33.98-2.34,2.28-2.34h1.33c1.33,0,2.28,1.04,2.28,2.34v9.04Z"/>
      <polygon class="cls-2" points="450.9 111.87 450.71 111.02 442.84 97.78 439.58 97.78 439.58 118.38 443.28 118.38 443.28 104.29 443.47 105.17 451.34 118.38 454.6 118.38 454.6 97.78 450.9 97.78 450.9 111.87"/>
      <path class="cls-2" d="M479.08,103.75v-.16c0-1.33.98-2.34,2.28-2.34h.89c1.33,0,2.28,1.04,2.28,2.34v1.01l3.6-.35v-.66c0-3.29-2.56-5.78-5.85-5.78h-1.01c-3.29,0-5.85,2.5-5.85,5.78v.16c0,7.71,9.23,4.36,9.23,8.63v.25c0,1.33-.98,2.34-2.28,2.34h-1.17c-1.33,0-2.28-1.04-2.28-2.34v-1.01l-3.6.35v.66c0,3.29,2.56,5.78,5.85,5.78h1.3c3.29,0,5.85-2.5,5.85-5.78v-.25c0-7.46-9.23-4.61-9.23-8.63h0Z"/>
      <path class="cls-2" d="M517.25,97.78h-1.42c-3.29,0-5.85,2.5-5.85,5.78v9.04c0,3.29,2.56,5.78,5.85,5.78h1.42c3.29,0,5.85-2.5,5.85-5.78v-9.04c-.03-3.29-2.56-5.78-5.85-5.78ZM519.46,112.6c0,1.33-.98,2.34-2.28,2.34h-1.33c-1.33,0-2.28-1.04-2.28-2.34v-9.04c0-1.33.98-2.34,2.28-2.34h1.33c1.33,0,2.28,1.04,2.28,2.34v9.04Z"/>
      <path class="cls-2" d="M557.86,104.82v-1.11c0-3.38-2.62-5.94-6.01-5.94h-7.65v20.61h3.7v-7.62h2.4l3.92,7.62h4.08l-4.2-8.03c2.24-.85,3.76-2.94,3.76-5.53h0ZM551.83,107.23h-3.89v-5.91h3.89c1.36,0,2.37,1.07,2.37,2.4v1.07c0,1.39-1.04,2.43-2.37,2.43Z"/>
      <polygon class="cls-2" points="579.28 101.32 584.12 101.32 584.12 118.38 587.85 118.38 587.85 101.32 592.68 101.32 592.68 97.78 579.28 97.78 579.28 101.32"/>
      <rect class="cls-2" x="618.85" y="97.78" width="3.7" height="20.61"/>
      <path class="cls-2" d="M658.4,112.54c0,1.33-.98,2.37-2.31,2.37h-1.33c-1.33,0-2.31-1.04-2.31-2.37v-14.73h-3.67v14.73c0,3.35,2.59,5.85,5.91,5.85h1.45c3.35,0,5.91-2.53,5.91-5.85v-14.73h-3.67v14.73h0Z"/>
      <polygon class="cls-2" points="690.21 113.48 690.15 114.24 690.09 113.48 685.57 97.78 680.13 97.78 680.13 118.38 683.86 118.38 683.86 102.36 683.95 103.24 688.35 118.38 691.95 118.38 696.31 103.24 696.44 102.36 696.44 118.38 700.17 118.38 700.17 97.78 694.73 97.78 690.21 113.48"/>
    </g>
  </g>
  <path class="cls-1" d="M90.51,90.74v155.55c0,.86.34,1.69.95,2.3.61.61,1.44.95,2.3.96h61.59c-1.9-2.04-3.15-4.59-3.61-7.33-.46-2.75-.1-5.57,1.04-8.11l3.69-8.27c.21-.47.37-.96.48-1.46h-57.1c-1.27-.03-2.43-.73-3.06-1.84-.63-1.11-.63-2.46,0-3.57.63-1.11,1.79-1.8,3.06-1.84h55.46l-1.94-5.07c-1.34-3.51-1.23-7.41.3-10.84,1.53-3.43,4.36-6.11,7.87-7.46l8.46-3.24c1.6-.57,2.92-1.74,3.66-3.27h-33.09c-1.29,0-2.49-.69-3.13-1.81s-.65-2.5,0-3.62c.65-1.12,1.84-1.81,3.13-1.81h36.33l.63-1.41c1.53-3.43,4.37-6.11,7.87-7.45,3.51-1.34,7.41-1.24,10.84.29l8.27,3.69c1.67.8,3.59.85,5.3.15l3.98-1.52v-83.04c0-.86-.34-1.69-.95-2.3-.61-.61-1.44-.95-2.3-.96h-18.71v5.28c0,2.45-.98,4.8-2.71,6.53-1.73,1.73-4.08,2.71-6.53,2.71h-60.89c-2.45,0-4.8-.98-6.53-2.71-1.73-1.73-2.71-4.08-2.71-6.53v-5.28h-18.71c-.86,0-1.69.34-2.3.96-.61.61-.95,1.44-.95,2.3h0ZM125.87,171.67h0c.68.68,1.06,1.6,1.06,2.56s-.38,1.88-1.06,2.56l-13.68,13.68h0c-.68.68-1.6,1.06-2.56,1.06s-1.88-.38-2.56-1.06l-7.13-7.14c-.89-.92-1.22-2.24-.88-3.47.34-1.23,1.3-2.19,2.53-2.53,1.23-.34,2.55,0,3.47.88l4.57,4.57,11.13-11.12h0c.68-.68,1.6-1.06,2.56-1.06s1.88.38,2.56,1.06h0ZM125.87,139.83h0c.68.68,1.06,1.6,1.06,2.56s-.38,1.88-1.06,2.56l-13.68,13.68c-.68.68-1.6,1.06-2.56,1.06s-1.88-.38-2.56-1.06l-7.13-7.13h0c-.68-.68-1.06-1.6-1.06-2.56,0-.96.38-1.88,1.06-2.56.68-.68,1.6-1.06,2.56-1.06.96,0,1.88.38,2.56,1.06l4.57,4.58,11.13-11.13c.68-.68,1.6-1.06,2.56-1.06s1.88.38,2.56,1.06h0ZM99.94,124.46h0c-.91-.91-1.27-2.25-.94-3.5.33-1.25,1.31-2.23,2.56-2.56,1.25-.34,2.58.02,3.5.93l4.57,4.58,11.13-11.13c.67-.7,1.6-1.1,2.57-1.11.97,0,1.91.37,2.59,1.06.69.69,1.07,1.62,1.06,2.59,0,.97-.41,1.9-1.11,2.57l-13.68,13.68c-.68.68-1.6,1.06-2.56,1.06s-1.88-.38-2.56-1.06l-7.13-7.13h0ZM140.58,156.77c-1.29,0-2.49-.69-3.13-1.81s-.65-2.5,0-3.62c.65-1.12,1.84-1.81,3.13-1.81h62.01c1.29,0,2.49.69,3.13,1.81.65,1.12.65,2.5,0,3.62-.65,1.12-1.84,1.81-3.13,1.81h-62.01ZM140.58,127.17c-1.29,0-2.49-.69-3.13-1.81-.65-1.12-.65-2.5,0-3.62.65-1.12,1.84-1.81,3.13-1.81h62.01c1.29,0,2.49.69,3.13,1.81.65,1.12.65,2.5,0,3.62-.65,1.12-1.84,1.81-3.13,1.81h-62.01ZM205.84,199.26c6.7,0,13.13,2.67,17.86,7.41,4.74,4.74,7.4,11.17,7.39,17.87,0,6.7-2.66,13.13-7.4,17.86-4.74,4.74-11.16,7.4-17.86,7.4-6.7,0-13.13-2.66-17.86-7.4-4.74-4.74-7.4-11.16-7.4-17.86,0-6.7,2.67-13.13,7.41-17.86,4.74-4.74,11.17-7.4,17.87-7.4h0ZM201.09,229.05l14.87-14.97c.92-.89,2.23-1.23,3.47-.9,1.23.33,2.2,1.29,2.54,2.52.34,1.23.01,2.55-.87,3.47l-15.28,15.4c-1.23,1.22-2.89,1.92-4.62,1.94-1.73.02-3.41-.63-4.67-1.83l-7.12-6.82c-.71-.66-1.13-1.58-1.16-2.55-.03-.97.33-1.91,1-2.61.67-.7,1.6-1.1,2.57-1.12.97-.01,1.91.36,2.6,1.05l6.68,6.41h0ZM205.84,192.03c6.43,0,12.71,1.91,18.06,5.48,5.34,3.57,9.51,8.65,11.97,14.59,2.46,5.94,3.1,12.48,1.85,18.78-1.25,6.31-4.35,12.1-8.9,16.64-4.55,4.54-10.34,7.64-16.64,8.89-6.31,1.25-12.84.61-18.78-1.85-5.94-2.46-11.01-6.63-14.58-11.98-3.57-5.35-5.47-11.63-5.47-18.06.01-8.62,3.44-16.88,9.54-22.97s14.35-9.52,22.97-9.53h0ZM212.4,182.06l8.46-3.24c1.72-.65,3.62-.6,5.3.15,1.68.75,2.99,2.13,3.65,3.85l3.24,8.46c1.31,3.53,4,6.37,7.45,7.87l8.29,3.69c1.68.75,2.99,2.14,3.64,3.85.66,1.72.61,3.62-.14,5.3l-3.69,8.28h0c-1.56,3.42-1.67,7.33-.29,10.84l3.24,8.46h0c.65,1.72.6,3.62-.15,5.3-.75,1.68-2.13,2.99-3.85,3.65l-8.47,3.24h0c-3.52,1.32-6.36,4.01-7.87,7.46l-3.69,8.27c-.75,1.68-2.14,2.98-3.85,3.64-1.72.66-3.62.61-5.3-.14l-8.28-3.69c-3.42-1.56-7.33-1.67-10.84-.3l-8.46,3.24c-1.72.65-3.62.6-5.3-.15-1.68-.75-2.99-2.13-3.65-3.85l-3.24-8.46c-1.32-3.53-4.01-6.37-7.46-7.87l-8.27-3.69h0c-1.67-.75-2.98-2.14-3.64-3.85s-.61-3.62.14-5.3l3.7-8.28c1.56-3.42,1.67-7.33.29-10.84l-3.24-8.46c-.65-1.72-.6-3.62.15-5.3.75-1.68,2.13-2.99,3.84-3.65l8.46-3.24c3.53-1.32,6.37-4.01,7.87-7.45l3.69-8.28c.75-1.68,2.14-2.98,3.85-3.64,1.72-.66,3.62-.61,5.3.14l8.27,3.69c3.42,1.56,7.33,1.67,10.83.3h0ZM121.71,94.77c-1.1-.01-1.99-.9-2-2v-13.12c.01-1.1.9-1.99,2-2h13.31,0c.91,0,1.79-.34,2.46-.97.67-.62,1.08-1.47,1.14-2.38.34-4.59,2.99-8.7,7.03-10.9,4.04-2.2,8.93-2.2,12.98,0,4.04,2.2,6.69,6.31,7.03,10.9.07.91.48,1.76,1.15,2.38.67.62,1.55.97,2.46.97h13.32,0c1.1.02,1.99.9,2,2v13.12c-.02,1.1-.9,1.99-2,2h-60.89Z"/>
</svg>