<?xml version="1.0" encoding="UTF-8"?>
<svg id="Layer_1" xmlns="http://www.w3.org/2000/svg" version="1.1" viewBox="0 0 300 325">
  <!-- Generator: Adobe Illustrator 29.3.0, SVG Export Plug-In . SVG Version: 2.1.0 Build 146)  -->
  <path d="M278.0444907,82.1553102c-3.2515667-2.6706825-5.3720972-6.669997-5.3720972-11.1960895,0-4.8870892,2.4408393-9.1961076,6.147331-11.8358413C250.1880174,26.388041,208.125418,5.7019389,161.218798,5.7019389h-1.166097C73.7775379,5.7019389,3.8376884,75.6417884,3.8376884,161.9169515v.5832649c0,36.2847056,12.3587237,69.6628257,33.0502365,96.2322205,2.5585744-2.2341536,5.8633816-3.6355044,9.5187971-3.6355044,8.0228686,0,14.5498088,6.5269402,14.5498088,14.5495923,0,3.9891425-1.6179921,7.6047358-4.2272099,10.2358125,27.6677508,24.5094632,64.0375114,39.4157237,103.9064287,39.4157237,53.4335602,0,100.5968601-26.7483781,128.9052284-67.5637212l-24.8667806-17.2261183c-23.2236833,33.4514881-62.13254,55.2316177-106.0009882,54.5639471-69.4589535-1.0572353-124.6226138-59.0240301-124.6226138-128.4907749v-.0002164c0-68.8523147,55.8155319-124.6682795,124.6676302-124.6682795h1.9183897c43.4139561,0,81.7111962,21.865401,104.5141496,55.1742651l12.8937259-8.9318529Z"/>
  <path d="M158.5463841,270.475432c32.4520382.6161615,61.7338855-13.1889294,81.9345466-35.3964981-5.202853-2.2194367-8.8608656-7.3833332-8.8608656-13.3878238,0-3.0760462.9726132-5.9213835,2.6079193-8.2741378l-9.688907-6.711767c-13.8174271,19.9123833-36.6437544,33.1251194-62.5588969,33.5666261-43.5130786.7414715-79.1257851-35.7996975-79.1257851-79.3188361v-.0002164c0-42.1039365,34.1319278-76.2360808,76.2360808-76.2360808h1.546139c26.789066,0,50.4114038,13.5451647,64.401538,34.1581152l24.8317198-17.2018787c-19.4457714-28.4724184-52.1523252-47.1680612-89.2332578-47.1680612h-1.8093116c-26.025952,0-49.852162,9.3776881-68.3192603,24.9193719,2.9191382,3.3100014,4.3501392,7.869207,3.3996013,12.516281-1.379059,6.7420664-7.3696985,11.6358648-14.2446497,11.6358648-.9778074,0-1.9621075-.0999883-2.9251981-.2971513-2.0893654-.427439-3.9627387-1.3078553-5.5863578-2.4849899-11.6713585,17.0514634-18.5090847,37.6722052-18.5090847,59.8955729,0,59.1335411,46.7815265,108.6627973,105.9040299,109.7856093Z"/>
  <path d="M175.7976077,189.8364044l11.2809281,25.5374812c19.3817096-9.734789,32.7476745-29.7473771,32.7476745-52.8738856v-.0010821c0-32.6898891-26.4999224-59.1902444-59.1895951-59.1902444h-1.3426997c-31.948634,0-57.8477611,25.8993435-57.8477611,57.8479775,0,23.7550062,13.9801786,44.8003736,34.0856129,54.6280089l11.1991195-25.3524379c-10.3927205-5.3446113-17.3970939-16.4506681-17.3970939-28.8386092,0-16.787858,13.6092264-30.3970844,30.3973008-30.3970844h.9050887c17.2875829,0,31.3023895,14.0145901,31.3023895,31.3023895v.0010821c0,11.7544656-6.5338657,21.9853004-16.1409641,27.3364044Z"/>
  <path d="M147.887461,161.9171679c0,4.8152361,2.5737241,9.0309755,6.3931896,11.4242013,2.0742156,1.2991983,4.5007709,2.0841712,7.1151829,2.0841712s5.0409672-.7847564,7.1151829-2.0841712c3.8194655-2.3932258,6.3931896-6.6089652,6.3931896-11.4242013,0-7.4296481-6.0789407-13.5083725-13.5083725-13.5083725s-13.5083725,6.0787243-13.5083725,13.5083725Z"/>
  <path d="M46.4067219,260.4157893c-5.0976705,0-9.2305192,4.1326322-9.2305192,9.2307356,0,5.097887,4.1328486,9.2305192,9.2305192,9.2305192,5.0981034,0,9.230952-4.1326322,9.230952-9.2305192,0-5.0981034-4.1328486-9.2307356-9.230952-9.2307356Z"/>
  <path d="M79.6629948,98.2573179c4.2934359,0,8.139738-3.0124173,9.0335726-7.3826839,1.0215252-4.9946523-2.1993092-9.871786-7.1935286-10.8933112-.6241692-.1276907-1.2461742-.1891553-1.8595222-.1889389-4.2934359.0002164-8.1401709,3.0124173-9.0340054,7.3826839-1.0215252,4.9946523,2.1993092,9.871786,7.1939615,10.8933112.6241692.1276907,1.2461742.1889389,1.8595222.1889389Z"/>
  <path d="M287.2222022,80.1899563c5.0976705,0,9.2305192-4.1328486,9.2305192-9.2307356s-4.1328486-9.2307356-9.2305192-9.2307356c-5.0981034,0-9.230952,4.1328486-9.230952,9.2307356s4.1328486,9.2307356,9.230952,9.2307356Z"/>
  <path d="M236.9389219,221.6911101c0,5.0981034,4.1328486,9.2307356,9.2305192,9.2307356,5.0981034,0,9.230952-4.1326322,9.230952-9.2307356,0-5.097887-4.1328486-9.2307356-9.230952-9.2307356-5.0976705,0-9.2305192,4.1328486-9.2305192,9.2307356Z"/>
</svg>