<?xml version="1.0" encoding="UTF-8"?>
<!DOCTYPE svg PUBLIC "-//W3C//DTD SVG 1.1//EN" "http://www.w3.org/Graphics/SVG/1.1/DTD/svg11.dtd">
<svg version="1.1" xmlns="http://www.w3.org/2000/svg" xmlns:xlink="http://www.w3.org/1999/xlink" x="0" y="0" width="1038.96" height="898.96" viewBox="0, 0, 1038.96, 898.96">
  <g id="Background">
    <rect x="0" y="0" width="1038.96" height="898.96" fill="#000000"/>
  </g>
  <g id="Layer_1">
    <path d="M0,-0 L1038.96,-0 L1038.96,898.96 L0,898.96 z" fill="#000000"/>
    <g>
      <path d="M66.218,877.312 C64.637,877.312 63.558,876.326 62.966,874.356 L23.089,679.402 C22.497,677.435 23.284,676.446 25.453,676.446 L58.831,676.446 C60.797,676.446 61.884,677.435 62.079,679.402 L82.463,806.416 L83.347,806.416 L102.844,679.402 C103.038,677.435 104.121,676.446 106.095,676.446 L138.881,676.446 C141.046,676.446 141.837,677.435 141.245,679.402 L101.072,874.356 C100.675,876.326 99.693,877.312 98.116,877.312 L66.218,877.312 z M158.966,679.402 C158.966,677.435 159.947,676.446 161.917,676.446 L249.646,676.446 C251.613,676.446 252.602,677.435 252.602,679.402 L252.602,708.349 C252.602,710.319 251.613,711.304 249.646,711.304 L199.431,711.304 C198.251,711.304 197.659,711.892 197.659,713.076 L197.659,756.792 C197.659,757.972 198.251,758.564 199.431,758.564 L242.856,758.564 C244.822,758.564 245.807,759.553 245.807,761.519 L245.807,790.467 C245.807,792.437 244.822,793.422 242.856,793.422 L199.431,793.422 C198.251,793.422 197.659,794.01 197.659,795.194 L197.659,840.682 C197.659,841.866 198.251,842.454 199.431,842.454 L249.646,842.454 C251.613,842.454 252.602,843.443 252.602,845.409 L252.602,874.356 C252.602,876.326 251.613,877.312 249.646,877.312 L161.917,877.312 C159.947,877.312 158.966,876.326 158.966,874.356 L158.966,679.402 z M351.857,877.312 C350.276,877.312 349.198,876.525 348.606,874.948 L325.862,798.737 L314.635,798.737 C313.456,798.737 312.864,799.329 312.864,800.509 L312.864,874.356 C312.864,876.326 311.879,877.312 309.912,877.312 L277.122,877.312 C275.151,877.312 274.17,876.326 274.17,874.356 L274.17,679.402 C274.17,677.435 275.151,676.446 277.122,676.446 L324.974,676.446 C333.836,676.446 341.908,677.581 349.198,679.843 C356.479,682.11 362.682,685.653 367.806,690.478 C372.927,695.306 376.863,701.606 379.62,709.382 C382.377,717.162 383.756,726.661 383.756,737.887 C383.756,750.691 381.737,761.272 377.703,769.64 C373.665,778.016 368.2,784.56 361.307,789.287 L388.779,874.356 C389.565,876.326 389.075,877.312 387.303,877.312 L351.857,877.312 z M323.202,765.359 C330.686,765.359 336.151,763.437 339.597,759.598 C343.039,755.758 344.766,748.522 344.766,737.887 C344.766,727.452 343.039,720.268 339.597,716.323 C336.151,712.386 330.686,710.416 323.202,710.416 L314.635,710.416 C313.456,710.416 312.864,711.008 312.864,712.188 L312.864,763.587 C312.864,764.767 313.456,765.359 314.635,765.359 L323.202,765.359 z M441.058,679.402 C441.65,677.435 442.728,676.446 444.305,676.446 L479.163,676.446 C480.935,676.446 482.013,677.435 482.411,679.402 L525.539,874.356 C525.933,876.326 525.142,877.312 523.176,877.312 L490.385,877.312 C488.614,877.312 487.531,876.326 487.138,874.356 L480.639,838.022 L442.533,838.022 L435.739,874.356 C435.345,876.326 434.263,877.312 432.491,877.312 L399.705,877.312 C397.735,877.312 396.944,876.326 397.341,874.356 L441.058,679.402 z M475.028,807.304 L462.326,737.591 L461.438,737.591 L448.149,807.304 L475.028,807.304 z M537.949,846.589 C537.357,844.424 536.814,842.012 536.324,839.352 C535.833,836.697 535.44,832.906 535.144,827.98 C534.848,823.062 534.6,816.563 534.406,808.483 C534.207,800.411 534.11,789.875 534.11,776.881 C534.11,763.883 534.207,753.35 534.406,745.274 C534.6,737.198 534.848,730.703 535.144,725.778 C535.44,720.856 535.833,717.061 536.324,714.406 C536.814,711.746 537.357,709.338 537.949,707.169 C541.493,696.34 547.351,688.069 555.524,682.353 C563.694,676.645 574.478,673.79 587.869,673.79 C604.019,673.79 616.623,678.027 625.68,686.488 C634.738,694.962 639.761,707.659 640.746,724.594 C640.746,726.763 639.862,727.947 638.09,728.141 L607.071,733.456 C604.903,733.854 603.824,732.966 603.824,730.797 C603.427,722.725 602,717.016 599.539,713.668 C597.074,710.319 593.383,708.645 588.461,708.645 C581.565,708.645 577.133,711.701 575.167,717.803 C574.774,718.983 574.478,720.313 574.283,721.788 C574.084,723.268 573.934,725.976 573.841,729.913 C573.74,733.854 573.643,739.465 573.545,746.75 C573.444,754.035 573.395,764.082 573.395,776.881 C573.395,789.684 573.444,799.726 573.545,807.008 C573.643,814.297 573.74,819.908 573.841,823.845 C573.934,827.786 574.084,830.494 574.283,831.97 C574.478,833.445 574.774,834.775 575.167,835.955 C577.133,842.064 581.565,845.113 588.461,845.113 C593.383,845.113 597.074,843.443 599.539,840.09 C602,836.745 603.427,831.037 603.824,822.961 C603.824,820.796 604.903,819.908 607.071,820.301 L638.09,825.617 C639.862,825.815 640.746,826.999 640.746,829.164 C639.761,846.102 634.738,858.804 625.68,867.269 C616.623,875.739 604.019,879.967 587.869,879.967 C574.478,879.967 563.694,877.117 555.524,871.405 C547.351,865.692 541.493,857.422 537.949,846.589 z M736.745,877.312 C735.164,877.312 734.086,876.525 733.494,874.948 L710.75,798.737 L699.524,798.737 C698.344,798.737 697.752,799.329 697.752,800.509 L697.752,874.356 C697.752,876.326 696.767,877.312 694.8,877.312 L662.01,877.312 C660.04,877.312 659.059,876.326 659.059,874.356 L659.059,679.402 C659.059,677.435 660.04,676.446 662.01,676.446 L709.862,676.446 C718.724,676.446 726.796,677.581 734.086,679.843 C741.367,682.11 747.57,685.653 752.695,690.478 C757.815,695.306 761.752,701.606 764.509,709.382 C767.265,717.162 768.644,726.661 768.644,737.887 C768.644,750.691 766.625,761.272 762.591,769.64 C758.553,778.016 753.088,784.56 746.196,789.287 L773.667,874.356 C774.454,876.326 773.963,877.312 772.191,877.312 L736.745,877.312 z M708.09,765.359 C715.574,765.359 721.039,763.437 724.485,759.598 C727.927,755.758 729.655,748.522 729.655,737.887 C729.655,727.452 727.927,720.268 724.485,716.323 C721.039,712.386 715.574,710.416 708.09,710.416 L699.524,710.416 C698.344,710.416 697.752,711.008 697.752,712.188 L697.752,763.587 C697.752,764.767 698.344,765.359 699.524,765.359 L708.09,765.359 z M846.035,879.967 C829.295,879.967 816.098,875.244 806.453,865.79 C796.8,856.339 791.98,842.064 791.98,822.961 L791.98,679.402 C791.98,677.435 792.961,676.446 794.931,676.446 L827.722,676.446 C829.688,676.446 830.673,677.435 830.673,679.402 L830.673,827.684 C830.673,833.003 832.003,837.24 834.663,840.386 C837.322,843.54 841.109,845.113 846.035,845.113 C851.155,845.113 855.043,843.54 857.703,840.386 C860.362,837.24 861.692,833.003 861.692,827.684 L861.692,679.402 C861.692,677.435 862.673,676.446 864.643,676.446 L897.434,676.446 C899.4,676.446 900.385,677.435 900.385,679.402 L900.385,822.961 C900.385,842.064 895.557,856.339 885.912,865.79 C876.263,875.244 862.969,879.967 846.035,879.967 z M925.489,877.312 C923.519,877.312 922.538,876.326 922.538,874.356 L922.538,846.589 C922.538,846.001 922.635,845.458 922.834,844.967 C923.024,844.477 923.223,844.035 923.421,843.637 L976,711.892 L976,711.304 L928.445,711.304 C926.474,711.304 925.489,710.319 925.489,708.349 L925.489,679.402 C925.489,677.435 926.474,676.446 928.445,676.446 L1014.106,676.446 C1016.072,676.446 1017.061,677.435 1017.061,679.402 L1017.061,707.465 C1017.061,708.251 1016.863,709.236 1016.47,710.416 L963.89,841.866 L963.89,842.454 L1014.106,842.454 C1016.072,842.454 1017.061,843.443 1017.061,845.409 L1017.061,874.356 C1017.061,876.326 1016.072,877.312 1014.106,877.312 L925.489,877.312 z" fill="#FFFFFF"/>
      <path d="M870.926,334.322 L870.926,254.54 L925.03,254.54 L925.03,201.246 L870.926,201.246 L870.926,21.98 L824.736,21.98 L824.736,68.17 L800.786,68.17 L800.786,21.98 L754.595,21.98 L754.595,68.17 L730.645,68.17 L730.645,21.98 L684.455,21.98 L684.455,201.246 L355.424,201.246 L355.424,21.98 L309.234,21.98 L309.234,68.17 L285.283,68.17 L285.283,21.98 L239.093,21.98 L239.093,68.17 L215.143,68.17 L215.143,21.98 L168.953,21.98 L168.953,201.246 L114.849,201.246 L114.849,254.54 L168.953,254.54 L168.953,334.322 L23.014,612.692 L416.117,612.692 L416.117,438.145 C416.117,380.805 462.6,334.322 519.94,334.322 C577.279,334.322 623.762,380.805 623.762,438.145 L623.762,612.692 L1016.864,612.692 L870.926,334.322 z" fill="#FFFFFF"/>
    </g>
  </g>
</svg>
