<?xml version="1.0" encoding="UTF-8"?>
<!DOCTYPE svg PUBLIC "-//W3C//DTD SVG 1.1//EN" "http://www.w3.org/Graphics/SVG/1.1/DTD/svg11.dtd">
<svg version="1.1" xmlns="http://www.w3.org/2000/svg" xmlns:xlink="http://www.w3.org/1999/xlink" x="0" y="0" width="1034.8" height="896.8" viewBox="0, 0, 1034.8, 896.8">
  <g id="Background">
    <rect x="0" y="0" width="1034.8" height="896.8" fill="#000000" fill-opacity="0"/>
  </g>
  <g id="Layer_1">
    <path d="M64.138,875.232 C62.557,875.232 61.478,874.247 60.886,872.276 L21.009,677.322 C20.417,675.355 21.204,674.366 23.373,674.366 L56.751,674.366 C58.717,674.366 59.804,675.355 59.999,677.322 L80.383,804.336 L81.267,804.336 L100.764,677.322 C100.958,675.355 102.041,674.366 104.015,674.366 L136.801,674.366 C138.966,674.366 139.757,675.355 139.165,677.322 L98.992,872.276 C98.595,874.247 97.613,875.232 96.036,875.232 L64.138,875.232 z M156.886,677.322 C156.886,675.355 157.867,674.366 159.837,674.366 L247.566,674.366 C249.533,674.366 250.522,675.355 250.522,677.322 L250.522,706.269 C250.522,708.239 249.533,709.224 247.566,709.224 L197.351,709.224 C196.171,709.224 195.579,709.812 195.579,710.996 L195.579,754.712 C195.579,755.892 196.171,756.484 197.351,756.484 L240.776,756.484 C242.742,756.484 243.727,757.473 243.727,759.44 L243.727,788.387 C243.727,790.357 242.742,791.342 240.776,791.342 L197.351,791.342 C196.171,791.342 195.579,791.93 195.579,793.114 L195.579,838.602 C195.579,839.786 196.171,840.374 197.351,840.374 L247.566,840.374 C249.533,840.374 250.522,841.363 250.522,843.329 L250.522,872.276 C250.522,874.247 249.533,875.232 247.566,875.232 L159.837,875.232 C157.867,875.232 156.886,874.247 156.886,872.276 L156.886,677.322 z M349.777,875.232 C348.196,875.232 347.118,874.445 346.526,872.868 L323.782,796.657 L312.555,796.657 C311.376,796.657 310.784,797.249 310.784,798.429 L310.784,872.276 C310.784,874.247 309.799,875.232 307.832,875.232 L275.042,875.232 C273.071,875.232 272.09,874.247 272.09,872.276 L272.09,677.322 C272.09,675.355 273.071,674.366 275.042,674.366 L322.894,674.366 C331.756,674.366 339.828,675.501 347.118,677.763 C354.399,680.03 360.602,683.573 365.726,688.398 C370.847,693.226 374.783,699.526 377.54,707.302 C380.297,715.082 381.676,724.581 381.676,735.807 C381.676,748.611 379.657,759.192 375.623,767.56 C371.585,775.936 366.12,782.48 359.227,787.207 L386.699,872.276 C387.485,874.247 386.995,875.232 385.223,875.232 L349.777,875.232 z M321.122,763.279 C328.606,763.279 334.071,761.357 337.517,757.518 C340.959,753.678 342.686,746.442 342.686,735.807 C342.686,725.372 340.959,718.188 337.517,714.243 C334.071,710.307 328.606,708.336 321.122,708.336 L312.555,708.336 C311.376,708.336 310.784,708.928 310.784,710.108 L310.784,761.507 C310.784,762.687 311.376,763.279 312.555,763.279 L321.122,763.279 z M438.978,677.322 C439.57,675.355 440.648,674.366 442.225,674.366 L477.083,674.366 C478.855,674.366 479.933,675.355 480.331,677.322 L523.459,872.276 C523.853,874.247 523.062,875.232 521.096,875.232 L488.305,875.232 C486.534,875.232 485.451,874.247 485.058,872.276 L478.559,835.942 L440.454,835.942 L433.659,872.276 C433.265,874.247 432.183,875.232 430.411,875.232 L397.625,875.232 C395.655,875.232 394.864,874.247 395.261,872.276 L438.978,677.322 z M472.948,805.224 L460.246,735.512 L459.358,735.512 L446.069,805.224 L472.948,805.224 z M535.869,844.509 C535.277,842.344 534.734,839.932 534.244,837.272 C533.753,834.617 533.36,830.826 533.064,825.9 C532.768,820.982 532.521,814.483 532.326,806.403 C532.127,798.331 532.03,787.795 532.03,774.801 C532.03,761.803 532.127,751.27 532.326,743.194 C532.521,735.118 532.768,728.623 533.064,723.698 C533.36,718.776 533.753,714.981 534.244,712.326 C534.734,709.666 535.277,707.258 535.869,705.089 C539.413,694.26 545.271,685.989 553.444,680.273 C561.614,674.565 572.398,671.711 585.789,671.711 C601.939,671.711 614.543,675.947 623.6,684.408 C632.657,692.882 637.681,705.579 638.666,722.514 C638.666,724.683 637.782,725.867 636.01,726.061 L604.992,731.376 C602.823,731.774 601.744,730.886 601.744,728.717 C601.347,720.645 599.92,714.936 597.459,711.588 C594.994,708.239 591.302,706.565 586.381,706.565 C579.484,706.565 575.053,709.621 573.087,715.723 C572.694,716.903 572.398,718.233 572.203,719.708 C572.004,721.188 571.854,723.896 571.761,727.833 C571.66,731.774 571.563,737.385 571.465,744.67 C571.364,751.955 571.315,762.002 571.315,774.801 C571.315,787.604 571.364,797.646 571.465,804.928 C571.563,812.217 571.66,817.828 571.761,821.765 C571.854,825.706 572.004,828.414 572.203,829.889 C572.398,831.365 572.694,832.695 573.087,833.875 C575.053,839.984 579.484,843.033 586.381,843.033 C591.302,843.033 594.994,841.363 597.459,838.01 C599.92,834.665 601.347,828.957 601.744,820.881 C601.744,818.716 602.823,817.828 604.992,818.221 L636.01,823.536 C637.782,823.735 638.666,824.919 638.666,827.084 C637.681,844.022 632.657,856.724 623.6,865.189 C614.543,873.659 601.939,877.887 585.789,877.887 C572.398,877.887 561.614,875.037 553.444,869.325 C545.271,863.612 539.413,855.342 535.869,844.509 z M734.665,875.232 C733.084,875.232 732.006,874.445 731.414,872.868 L708.67,796.657 L697.444,796.657 C696.264,796.657 695.672,797.249 695.672,798.429 L695.672,872.276 C695.672,874.247 694.687,875.232 692.721,875.232 L659.93,875.232 C657.96,875.232 656.979,874.247 656.979,872.276 L656.979,677.322 C656.979,675.355 657.96,674.366 659.93,674.366 L707.782,674.366 C716.644,674.366 724.716,675.501 732.006,677.763 C739.287,680.03 745.49,683.573 750.615,688.398 C755.735,693.226 759.672,699.526 762.429,707.302 C765.185,715.082 766.564,724.581 766.564,735.807 C766.564,748.611 764.545,759.192 760.511,767.56 C756.473,775.936 751.008,782.48 744.116,787.207 L771.587,872.276 C772.374,874.247 771.883,875.232 770.111,875.232 L734.665,875.232 z M706.01,763.279 C713.494,763.279 718.959,761.357 722.405,757.518 C725.847,753.678 727.575,746.442 727.575,735.807 C727.575,725.372 725.847,718.188 722.405,714.243 C718.959,710.307 713.494,708.336 706.01,708.336 L697.444,708.336 C696.264,708.336 695.672,708.928 695.672,710.108 L695.672,761.507 C695.672,762.687 696.264,763.279 697.444,763.279 L706.01,763.279 z M843.955,877.887 C827.215,877.887 814.018,873.164 804.373,863.71 C794.72,854.259 789.9,839.984 789.9,820.881 L789.9,677.322 C789.9,675.355 790.881,674.366 792.851,674.366 L825.642,674.366 C827.608,674.366 828.593,675.355 828.593,677.322 L828.593,825.604 C828.593,830.923 829.923,835.16 832.583,838.306 C835.242,841.46 839.029,843.033 843.955,843.033 C849.075,843.033 852.963,841.46 855.623,838.306 C858.282,835.16 859.612,830.923 859.612,825.604 L859.612,677.322 C859.612,675.355 860.593,674.366 862.563,674.366 L895.354,674.366 C897.32,674.366 898.305,675.355 898.305,677.322 L898.305,820.881 C898.305,839.984 893.477,854.259 883.832,863.71 C874.183,873.164 860.889,877.887 843.955,877.887 z M923.409,875.232 C921.439,875.232 920.458,874.247 920.458,872.276 L920.458,844.509 C920.458,843.921 920.555,843.378 920.754,842.887 C920.944,842.397 921.143,841.955 921.341,841.557 L973.92,709.812 L973.92,709.224 L926.365,709.224 C924.394,709.224 923.409,708.239 923.409,706.269 L923.409,677.322 C923.409,675.355 924.394,674.366 926.365,674.366 L1012.026,674.366 C1013.992,674.366 1014.981,675.355 1014.981,677.322 L1014.981,705.385 C1014.981,706.171 1014.783,707.156 1014.39,708.336 L961.81,839.786 L961.81,840.374 L1012.026,840.374 C1013.992,840.374 1014.981,841.363 1014.981,843.329 L1014.981,872.276 C1014.981,874.247 1013.992,875.232 1012.026,875.232 L923.409,875.232 z" fill="#FFFFFF"/>
    <path d="M868.846,332.242 L868.846,252.46 L922.95,252.46 L922.95,199.166 L868.846,199.166 L868.846,19.9 L822.656,19.9 L822.656,66.09 L798.706,66.09 L798.706,19.9 L752.515,19.9 L752.515,66.09 L728.565,66.09 L728.565,19.9 L682.375,19.9 L682.375,199.166 L353.344,199.166 L353.344,19.9 L307.154,19.9 L307.154,66.09 L283.203,66.09 L283.203,19.9 L237.013,19.9 L237.013,66.09 L213.063,66.09 L213.063,19.9 L166.873,19.9 L166.873,199.166 L112.769,199.166 L112.769,252.46 L166.873,252.46 L166.873,332.242 L20.934,610.612 L414.037,610.612 L414.037,436.065 C414.037,378.725 460.52,332.242 517.859,332.242 C575.199,332.242 621.682,378.725 621.682,436.065 L621.682,610.612 L1014.784,610.612 L868.846,332.242 z" fill="#FFFFFF"/>
  </g>
</svg>
